<svg id="Layer_1" data-name="Layer 1" xmlns="http://www.w3.org/2000/svg" viewBox="0 0 14.11 194.98"><defs><style>.cls-1{fill:#573629;}.cls-2{fill:#663f30;}.cls-3{fill:#cca946;}.cls-4{fill:#a88b3a;}</style></defs><path class="cls-1" d="M12.36,4.16h0a3.59,3.59,0,0,0-1.55-3,6.48,6.48,0,0,0-7.5,0A3.69,3.69,0,0,0,1.78,3.81h0v50A3.58,3.58,0,0,0,3.3,57a6.51,6.51,0,0,0,7.51,0,3.76,3.76,0,0,0,1.51-2.41h0a3.08,3.08,0,0,0,0-.91Z"/><path class="cls-2" d="M12.05,108a11.09,11.09,0,0,1-10,0c-1.51-.88-2.19-2.06-2-3.2H0v-48l14.09.35,0,47.48a2.53,2.53,0,0,1,0,.91h0A3.82,3.82,0,0,1,12.05,108Z"/><path class="cls-3" d="M12.05,59.94c2.75-1.59,2.75-4.17,0-5.76a11,11,0,0,0-10,0c-2.76,1.6-2.76,4.18,0,5.76A11,11,0,0,0,12.05,59.94Z"/><path class="cls-4" d="M11.16,59.42a9,9,0,0,1-8.2,0C.7,58.12.69,56,3,54.69a9.1,9.1,0,0,1,8.21,0C13.41,56,13.42,58.11,11.16,59.42Zm-.54-.31c2-1.13,2-3,0-4.11A7.88,7.88,0,0,0,3.5,55c-2,1.13-2,3,0,4.11A7.9,7.9,0,0,0,10.62,59.11Z"/><path class="cls-4" d="M9.73,58.6a5.92,5.92,0,0,1-5.36,0c-1.47-.85-1.47-2.24,0-3.09a5.9,5.9,0,0,1,5.35,0C11.21,56.36,11.21,57.75,9.73,58.6Zm-.54-.31a1.3,1.3,0,0,0,0-2.47,4.68,4.68,0,0,0-4.28,0,1.31,1.31,0,0,0,0,2.47A4.69,4.69,0,0,0,9.19,58.29Z"/><path class="cls-4" d="M8.64,58a3.51,3.51,0,0,1-3.17,0,1,1,0,0,1,0-1.82,3.45,3.45,0,0,1,3.17,0A1,1,0,0,1,8.64,58Zm-.54-.32c.58-.32.58-.86,0-1.2a2.33,2.33,0,0,0-2.09,0c-.57.34-.58.88,0,1.2A2.24,2.24,0,0,0,8.1,57.65Z"/><path class="cls-1" d="M12.36,90.14h0a3.6,3.6,0,0,0-1.55-3,6.49,6.49,0,0,0-7.5,0A3.68,3.68,0,0,0,1.78,89.8h0v50A3.6,3.6,0,0,0,3.3,143a6.52,6.52,0,0,0,7.51,0,3.76,3.76,0,0,0,1.51-2.42h0a3.15,3.15,0,0,0,0-.92Z"/><path class="cls-2" d="M12.05,193.79a11.09,11.09,0,0,1-10,0c-1.51-.89-2.19-2.07-2-3.21H0v-48l14.09.35,0,47.48a2.53,2.53,0,0,1,0,.91h0A3.83,3.83,0,0,1,12.05,193.79Z"/><path class="cls-3" d="M12.05,145.77c2.75-1.59,2.75-4.17,0-5.76a11,11,0,0,0-10,0c-2.76,1.6-2.76,4.18,0,5.77A11,11,0,0,0,12.05,145.77Z"/><path class="cls-4" d="M11.16,145.26a9.08,9.08,0,0,1-8.2,0C.7,144,.69,141.82,3,140.52a9.13,9.13,0,0,1,8.21,0C13.41,141.84,13.42,144,11.16,145.26Zm-.54-.32c2-1.13,2-3,0-4.1a7.88,7.88,0,0,0-7.11,0c-2,1.13-2,3,0,4.1A7.84,7.84,0,0,0,10.62,144.94Z"/><path class="cls-4" d="M9.73,144.44a6,6,0,0,1-5.36,0c-1.47-.85-1.47-2.24,0-3.09a5.87,5.87,0,0,1,5.35,0C11.21,142.2,11.21,143.59,9.73,144.44Zm-.54-.31a1.3,1.3,0,0,0,0-2.47,4.71,4.71,0,0,0-4.28,0,1.31,1.31,0,0,0,0,2.48A4.76,4.76,0,0,0,9.19,144.13Z"/><path class="cls-4" d="M8.64,143.8a3.45,3.45,0,0,1-3.17,0,1,1,0,0,1,0-1.82,3.48,3.48,0,0,1,3.17,0A1,1,0,0,1,8.64,143.8Zm-.54-.31a.63.63,0,0,0,0-1.2,2.27,2.27,0,0,0-2.09,0,.63.63,0,0,0,0,1.2A2.27,2.27,0,0,0,8.1,143.49Z"/></svg>