<svg id="Layer_1" data-name="Layer 1" xmlns="http://www.w3.org/2000/svg" viewBox="0 0 177.96 145.67"><defs><style>.cls-1{fill:#592b06;}.cls-2{opacity:0.41;}.cls-3{fill:#728407;}.cls-4{fill:#748e09;}.cls-5{fill:#9bc90e;}.cls-6{fill:#80b708;}.cls-7{fill:#528402;}.cls-8{fill:#703f1e;}</style></defs><path class="cls-1" d="M168.24,87.08h.38a4.17,4.17,0,0,0-.37-.26C168.25,86.91,168.24,87,168.24,87.08Z"/><g class="cls-2"><path class="cls-3" d="M121.57,72.36A52.88,52.88,0,0,0,127,76.62a96.2,96.2,0,0,1,14.41-.14c4.35.3,13.4,1.13,15.25-3.5a21.29,21.29,0,0,0-5.28-4.39c-6.77-3.51-16-1.55-23.39-1.75a6,6,0,0,1-5.75-4.05,6.13,6.13,0,0,1-2.62,2.88c-2.18,1.3-3,1.15-1.42,3.23A21.92,21.92,0,0,0,121.57,72.36Z"/></g><path class="cls-4" d="M80.9,65c-6.23-.39-12.48,0-18.65-.92a9.25,9.25,0,0,0-1.75-.27l-1.59-.13c-1,.13-5,.83-5,2.38,0,.86,5.38,2.26,6.49,2.49a7.92,7.92,0,0,1,3.41,1.25,5.59,5.59,0,0,0,3.08.9,49.54,49.54,0,0,0,7.41,0c1.15-.06,2.22,0,3.32,0a11.9,11.9,0,0,0,3.58-1c2-.63,4.62,0,6.38-1.12.91-.58,1.42-1.42.53-2.42C86.64,64.58,82.8,65.14,80.9,65Z"/><path class="cls-5" d="M66.28,68.73c4.4.61,7.22-.43,10.91-2.69,4,4,11.56-.38,13.16-4.47,1.36-3.46,1.76-11.85-4-11.46,1.23-4.16-.87-7.18-5.15-9.06s-6.82.48-10.53,1.75c-3,1.05-6.83-.63-10.22,1.58-2.71,1.77-5.43,7.3-4,10.11l-.39,1.18c-3.67.55-3.9,7.21.33,6.74C55.27,67.42,62.75,68.23,66.28,68.73Z"/><path class="cls-6" d="M66.28,68.73c4.4.61,7.22-.43,10.91-2.69,4,4,11.56-.38,13.16-4.47,1.36-3.46,1.76-11.85-4-11.46,1.23-4.16-.87-7.18-5.15-9.06l-.1,0a11.34,11.34,0,0,1,.71,3.81v.39a11.89,11.89,0,0,1-10,11.6l-.06,0A11.25,11.25,0,0,1,64.93,59a10.85,10.85,0,0,1-8.69-3.85l-.18.56c-3.67.55-3.9,7.21.33,6.74C55.27,67.42,62.75,68.23,66.28,68.73Z"/><path class="cls-7" d="M66.28,68.73c4.4.61,7.22-.43,10.91-2.69,4,4,11.56-.38,13.16-4.47,1.36-3.46,1.76-11.85-4-11.46,1.13-3.81-.56-6.65-4.14-8.55.15.22.26.46.4.7,4.43,6.91,1.29,18.67-9.45,18.67-.18,0-.34,0-.51,0s-.38.31-.6.45a11.25,11.25,0,0,1-7.14,2.33,10.71,10.71,0,0,1-10.54-7.09c-1.89,1.94-1.43,6.2,2,5.82C55.27,67.42,62.75,68.23,66.28,68.73Z"/><path class="cls-4" d="M76.09,134.52c8.42,1.75,12.07,11,19.82,11.14s10.21-2.6,16.72-3.48,16.89-.89,19.68-4.77-23.78-4-30-3.72c-5.16.25-9.88.81-14.91,0-4.4-.71-3.69-3.26-8.27-3.24l.56-.62C77.05,131,71.92,133.65,76.09,134.52Z"/><path class="cls-5" d="M113.7,113.06c-1.23-2.48-4.67-2.61-7.31-2a7,7,0,0,0-3.82,2.36v.34c-2.06-.74-5.08-1.82-7.64-1.39-3.17.53-4,3.69-7,4.52s-5.7-.27-8.61,1.32a9.72,9.72,0,0,0-4.86,6.59c-.69,2.64-.78,5.94,1.65,7.71,2.21,1.62,5.37.47,7.57,1.83,2.73,1.7,2.81,5.23,5.29,7.21S95.49,144,98.73,144a23.35,23.35,0,0,0,12.52-3.75c3.44-2,5.11-1.66,9-1.46,6.8.34,14.36-1.92,11.19-10.15a12.76,12.76,0,0,0-5.3-6.53c-1-.66-1.8-1-2.69-1.73-2-1.5-2.11-1.9-4.76-2.42-1.06-.21-3.7-.12-4.46-1C113.14,115.74,114.35,114.37,113.7,113.06Z"/><path class="cls-6" d="M104.65,134.78a6.17,6.17,0,0,1-3.6-1.06,6.93,6.93,0,0,1-1.14.88,7.08,7.08,0,0,1-1.87.73,6.3,6.3,0,0,1-2.42.49A6.47,6.47,0,0,1,89.26,130a14.72,14.72,0,0,1-.79-2.13h0a6.86,6.86,0,0,1-6.81,0l-1.69.23a6.42,6.42,0,0,1-4.54-1.88,6.33,6.33,0,0,1-.94-1.24c-.65,2.61-.68,5.8,1.69,7.52,2.21,1.62,5.37.47,7.57,1.83,2.73,1.7,2.81,5.23,5.29,7.21S95.49,144,98.73,144a23.35,23.35,0,0,0,12.52-3.75c3.44-2,5.11-1.66,9-1.46,6.8.34,14.36-1.92,11.19-10.15a12.76,12.76,0,0,0-5.3-6.53c-.61-.42-1.17-.74-1.73-1.08v0a8.08,8.08,0,0,1-3,4.41,6.37,6.37,0,0,1-1.84,4.67,6.47,6.47,0,0,1-9,.08A5.88,5.88,0,0,1,104.65,134.78Z"/><path class="cls-7" d="M107.11,138.11l-.35.35a6.46,6.46,0,0,1-8.71.29A6.07,6.07,0,0,1,94.23,140h-.39c-4.29,0-6.35-3.45-6.19-6.78a6,6,0,0,1-1.4.18H85.9A6.49,6.49,0,0,1,80,129.55a6.49,6.49,0,0,1-5.67-4.12c-.54,2.52-.45,5.46,1.79,7.09s5.37.47,7.57,1.83c2.73,1.7,2.81,5.23,5.29,7.21S95.49,144,98.73,144a23.35,23.35,0,0,0,12.52-3.75c3.44-2,5.11-1.66,9-1.46,6.14.31,12.89-1.53,11.78-8a6.17,6.17,0,0,1-2.31,2.4,6.55,6.55,0,0,1-4.3.74,6.4,6.4,0,0,1-4.49,1.87h-.7a6.37,6.37,0,0,1-4.3-1.71,6.3,6.3,0,0,1-7.86,2.61A6.09,6.09,0,0,1,107.11,138.11Z"/><path class="cls-6" d="M113.7,113.06l-.1-.14c-1.72,4.41-5.81,6.07-10,5.71-2.62,2.86-6.7,4.27-11,4.49a14.59,14.59,0,0,0,4.16,2.82,11.46,11.46,0,0,0,4.62.93c2.28-.05,1.39.39,1.57-.57.73-3.73,4.67-5,7.9-4.48,2.88.42,4.4-1.37,3.56-3.91a7.35,7.35,0,0,1-.26-1.08C113.26,115.63,114.32,114.32,113.7,113.06Z"/><path class="cls-4" d="M166.33,110.37a2.45,2.45,0,0,0,1.32.39,21.23,21.23,0,0,0,3.19,0c.49,0,.95,0,1.43,0a4.91,4.91,0,0,0,1.53-.42c.87-.27,2,0,2.75-.48.39-.25.61-.61.23-1-.62-.7-2.27-.46-3.09-.51-2.68-.17-5.37,0-8-.4a3.88,3.88,0,0,0-.75-.11l-.69-.06c-.44.06-2.15.35-2.16,1,0,.37,2.31,1,2.79,1.07A3.65,3.65,0,0,1,166.33,110.37Z"/><path class="cls-5" d="M163.15,107.18c-.48,2.16,2.73,2.51,4.25,2.72a6.33,6.33,0,0,0,4.69-1.15c1.7,1.7,5-.17,5.67-1.93.58-1.48.75-5.1-1.71-4.92.52-1.8-.38-3.1-2.22-3.91s-2.94.21-4.53.76c-1.32.45-2.94-.27-4.4.68-1.17.76-2.33,3.14-1.73,4.35l-.17.51C161.43,104.52,161.33,107.39,163.15,107.18Z"/><path class="cls-6" d="M169.81,104.78h0a4.83,4.83,0,0,1-3,.92,4.66,4.66,0,0,1-3.73-1.65l-.09.24c-1.57.23-1.67,3.1.15,2.89-.48,2.16,2.73,2.51,4.25,2.72a6.33,6.33,0,0,0,4.69-1.15c1.7,1.7,5-.17,5.67-1.93.58-1.48.75-5.1-1.71-4.92.52-1.8-.38-3.1-2.22-3.91h0a5,5,0,0,1,.3,1.64v.17A5.12,5.12,0,0,1,169.81,104.78Z"/><path class="cls-7" d="M170.37,106.55h-.22l-.26.19a4.87,4.87,0,0,1-3.07,1,4.61,4.61,0,0,1-4.54-3c-.81.83-.61,2.67.87,2.5-.48,2.16,2.73,2.51,4.25,2.72a6.33,6.33,0,0,0,4.69-1.15c1.7,1.7,5-.17,5.67-1.93.58-1.48.75-5.1-1.71-4.92.48-1.64-.25-2.87-1.79-3.69l.17.31C176.34,101.49,175,106.55,170.37,106.55Z"/><path class="cls-8" d="M103.76,47.44s0,0,0,.06a4.62,4.62,0,0,1,0-.65l-.45.9C103.61,47.57,103.45,47.46,103.76,47.44Z"/><path class="cls-8" d="M121.47,55.15c-2.89-1-6.56-1.44-9.18-3-3-1.76-2.12-4.66-3.82-7-.85,2.24,1.36,4.66,1.54,6.82-3.11-.16-4.37-2.37-6.2-4.47.44,7.36,12.19,7.18,17.44,9.27,3,1.18,5,5.11,3.82,8.25-.48,1.23-3.48,2.87-5.37,4.39,4.32-2.08,9.28-2,14.24-1.57-.64-1.07-2.66-1.89-3.33-3.22a14.1,14.1,0,0,1-1.29-4.54c-.36-3.28-.23-7.14,2.19-9.47,2.26-2.19,5.75-3.34,8-5.72a5.6,5.6,0,0,0,1.28-3.28c2-2,6.1-5.64,3.87-8.18-.55,1.35-.4,2.76-1.13,4.08-.61,1.09-1.86,1.8-2.67,2.77,0-2.65-.39-5.54.81-7.4-2-.26-1.54,7.71-2.49,9.43-1.33,2.41-5.82,3.61-8.2,4.83-7.33,3.76-10.81-3.11-12.62-9.47a8,8,0,0,1,0-2c-2.87,1.47.42,7.11,1.6,8.89,1.6,2.39,4.83,4.24,6.12,6.67.53,1,.73,3.68-.28,4.54S122.81,55.62,121.47,55.15Z"/><path class="cls-5" d="M139.32,1.89c-5.52-2.42-8.71.62-13.44,2.25-3.91,1.34-8.74-.81-13.07,2-3.47,2.26-6.93,9.33-5.13,12.93l-.51,1.5c-4.68.7-5,9.22.43,8.62-1.43,6.39,8.12,7.44,12.63,8.07,5.63.78,9.23-.54,14-3.43,5,5.07,14.76-.5,16.82-5.72,1.73-4.42,2.25-15.15-5.08-14.64C147.48,8.16,144.81,4.3,139.32,1.89Z"/><path class="cls-6" d="M127.38,22l-.08,0a14.42,14.42,0,0,1-8.79,2.72,13.84,13.84,0,0,1-11.1-4.92l-.24.71c-4.68.7-5,9.22.43,8.62-1.43,6.39,8.12,7.44,12.63,8.07,5.63.78,9.23-.54,14-3.43,5,5.07,14.76-.5,16.82-5.72,1.73-4.42,2.25-15.15-5.08-14.64,1.56-5.32-1.11-9.18-6.6-11.59l-.11,0a14.63,14.63,0,0,1,.89,4.86v.51A15.19,15.19,0,0,1,127.38,22Z"/><path class="cls-7" d="M129.05,27.3c-.22,0-.43,0-.65,0-.27.18-.49.4-.77.56a14.28,14.28,0,0,1-9.12,3c-7.07,0-11.55-4-13.47-9.06-2.42,2.47-1.82,7.92,2.56,7.44-1.43,6.39,8.12,7.44,12.63,8.07,5.63.78,9.23-.54,14-3.43,5,5.07,14.76-.5,16.82-5.72,1.73-4.42,2.25-15.15-5.08-14.64,1.43-4.87-.72-8.51-5.3-10.93.19.28.34.59.51.89C146.8,12.27,142.78,27.3,129.05,27.3Z"/><path class="cls-5" d="M105.89,36.91c-1-1.49-5.52-1.14-7.34-.4-2.55,1-5,3.64-5.21,6.46-.48,5.3,3.39,6.52,8.08,7.17,4,.56,7.33.34,7.42-4.23,7.84.34,4.42-10.77-2.72-9Z"/><path class="cls-6" d="M100.29,44c-2.08.26-4.54-1.06-5.94-2.46-.17-.17-.31-.38-.46-.56a6.19,6.19,0,0,0-.55,2c-.48,5.3,3.39,6.52,8.08,7.17,4,.56,7.33.34,7.42-4.23,5.25.23,5.43-4.66,2.85-7.39a13.2,13.2,0,0,1-4.23,2.66,9.64,9.64,0,0,1-3.76,2.27A17,17,0,0,1,100.29,44Z"/><path class="cls-7" d="M101.18,46.66a7.64,7.64,0,0,1-7.52-5.09,5.68,5.68,0,0,0-.32,1.4c-.48,5.3,3.39,6.52,8.08,7.17,4,.56,7.33.34,7.42-4.23,3.29.15,4.58-1.73,4.46-3.83-.11.07-.2.15-.32.22a8.3,8.3,0,0,1-4.24,1.14c-.32,0-.64,0-1,0A7.69,7.69,0,0,1,101.18,46.66Z"/><path class="cls-8" d="M117.47,24.39c.1,0,.5,0,.61,0,.35-3.78,3.48-6.06,3.14-10.24a4.14,4.14,0,0,1-.61,0c-.18,1.25-.45,4.48-1.65,5.3-1.47,1-3.71-.77-5.08-1,.27,1.74,3.78,1.32,4.16,3,0,0,0-.09.07-.14v.45a1.55,1.55,0,0,0-.07-.31A4.52,4.52,0,0,0,117.47,24.39Z"/><path class="cls-5" d="M106,3.92c-9.49,1.09-8.62,16.16.77,12.2,2.19,5.51,6.29,4.28,11,1.77,5.41-2.92,9.57-6.15,6.58-12.4C122.72,2.18,118.61.11,115,0c-2.55-.07-8.19,1.55-8.76,3.82Z"/><path class="cls-6" d="M106.77,16.12c2.19,5.51,6.29,4.28,11,1.77,5.41-2.92,9.57-6.15,6.58-12.4a8.31,8.31,0,0,0-1.58-2.2c-.11.29-.18.6-.31.89-1.07,2.34-3.47,5.07-6.11,5.68a21.3,21.3,0,0,1-4.39.92,12.22,12.22,0,0,1-5.6-1,17.07,17.07,0,0,1-6.37-1.32C98,12.91,100.49,18.77,106.77,16.12Z"/><path class="cls-7" d="M100.09,13.59l-.48-.12c.8,2.61,3.22,4.31,7.16,2.65,2.19,5.51,6.29,4.28,11,1.77,5.41-2.92,9.57-6.15,6.58-12.4a8.64,8.64,0,0,0-1-1.55,9.94,9.94,0,0,1-6.85,9.61,9.94,9.94,0,0,1-9.51-1,10.61,10.61,0,0,1-1.15.51A10.79,10.79,0,0,1,100.09,13.59Z"/><path class="cls-5" d="M150.71,31.33c2.19,5.52,6.3,4.29,10.95,1.77,5.42-2.92,9.57-6.15,6.59-12.39-1.59-3.31-5.7-5.38-9.28-5.49-2.55-.08-8.19,1.54-8.75,3.82l-.28.1C140.46,20.23,141.33,35.3,150.71,31.33Z"/><path class="cls-6" d="M150.71,31.33c2.19,5.52,6.3,4.29,10.95,1.77,5.42-2.92,9.57-6.15,6.59-12.39a8.23,8.23,0,0,0-1.59-2.21,9.37,9.37,0,0,1-.31.89c-1.07,2.35-3.47,5.07-6.11,5.69a21.88,21.88,0,0,1-4.38.92A12.42,12.42,0,0,1,150.25,25a17,17,0,0,1-6.36-1.33C142,28.12,144.43,34,150.71,31.33Z"/><path class="cls-7" d="M150.71,31.33c2.19,5.52,6.3,4.29,10.95,1.77,5.42-2.92,9.57-6.15,6.59-12.39a7.6,7.6,0,0,0-1-1.55,9.93,9.93,0,0,1-6.85,9.6,10,10,0,0,1-9.51-1c-.37.18-.76.36-1.14.51a10.9,10.9,0,0,1-5.68.53c-.17,0-.32-.09-.49-.12C144.35,31.29,146.77,33,150.71,31.33Z"/><path class="cls-5" d="M155.36,39.71c6.71.29,3.77-9.21-2.33-7.7h-.19c-.87-1.28-4.73-1-6.28-.34a7.2,7.2,0,0,0-4.46,5.51c-.41,4.55,2.9,5.59,6.91,6.14C152.46,43.8,155.28,43.62,155.36,39.71Z"/><path class="cls-6" d="M155.36,39.71c4.49.19,4.65-4,2.44-6.33a11.29,11.29,0,0,1-3.62,2.28A8.26,8.26,0,0,1,151,37.6,14.41,14.41,0,0,1,148,38a6.83,6.83,0,0,1-5.08-2.1c-.14-.15-.26-.32-.39-.48a5.25,5.25,0,0,0-.47,1.72c-.41,4.55,2.9,5.59,6.91,6.14C152.46,43.8,155.28,43.62,155.36,39.71Z"/><path class="cls-7" d="M155.36,39.71c2.81.12,3.92-1.49,3.81-3.28a2.53,2.53,0,0,1-.27.18,7.11,7.11,0,0,1-3.63,1,7.52,7.52,0,0,1-.82-.05A7,7,0,0,1,142.37,36a5.32,5.32,0,0,0-.27,1.18c-.41,4.55,2.9,5.59,6.91,6.14C152.46,43.8,155.28,43.62,155.36,39.71Z"/><path class="cls-4" d="M37.69,110.89c-3.47-.22-6.95,0-10.39-.51a5.27,5.27,0,0,0-1-.15l-.88-.08c-.58.08-2.79.46-2.81,1.33,0,.48,3,1.26,3.62,1.39a4.29,4.29,0,0,1,1.9.7,3.19,3.19,0,0,0,1.72.5,28.47,28.47,0,0,0,4.13,0c.64,0,1.24,0,1.85,0a6.33,6.33,0,0,0,2-.54c1.13-.36,2.58,0,3.56-.63.51-.32.79-.79.3-1.35C40.89,110.65,38.75,111,37.69,110.89Z"/><path class="cls-5" d="M29.54,113a8.26,8.26,0,0,0,6.09-1.5c2.2,2.21,6.44-.22,7.33-2.49.76-1.93,1-6.61-2.21-6.39.68-2.32-.49-4-2.88-5s-3.8.27-5.87,1c-1.7.58-3.81-.36-5.69.87-1.52,1-3,4.07-2.24,5.64l-.22.66c-2.05.3-2.17,4,.18,3.76C23.41,112.23,27.57,112.68,29.54,113Z"/><path class="cls-6" d="M29.54,113a8.26,8.26,0,0,0,6.09-1.5c2.2,2.21,6.44-.22,7.33-2.49.76-1.93,1-6.61-2.21-6.39.68-2.32-.49-4-2.88-5l0,0a6.53,6.53,0,0,1,.39,2.12v.22a6.62,6.62,0,0,1-5.55,6.46l0,0a6.34,6.34,0,0,1-3.84,1.18A6,6,0,0,1,24,105.37l-.1.31c-2.05.3-2.17,4,.18,3.76C23.41,112.23,27.57,112.68,29.54,113Z"/><path class="cls-7" d="M29.54,113a8.26,8.26,0,0,0,6.09-1.5c2.2,2.21,6.44-.22,7.33-2.49.76-1.93,1-6.61-2.21-6.39.62-2.12-.32-3.71-2.32-4.77.09.13.15.26.23.39,2.47,3.85.72,10.41-5.27,10.41h-.28c-.12.07-.22.17-.34.24a6.25,6.25,0,0,1-4,1.3,6,6,0,0,1-5.87-4c-1.06,1.08-.8,3.46,1.11,3.25C23.41,112.23,27.57,112.68,29.54,113Z"/><path class="cls-8" d="M10,66.8l0,.06a6.26,6.26,0,0,1,0-.63l-.43.86C9.82,66.93,9.66,66.81,10,66.8Z"/><path class="cls-8" d="M44,64.37a5.25,5.25,0,0,0,1.22-3.12c1.92-1.9,5.82-5.38,3.69-7.79-.53,1.28-.38,2.62-1.08,3.88-.58,1-1.77,1.71-2.54,2.64,0-2.52-.37-5.28.77-7-1.93-.26-1.47,7.34-2.37,9-1.27,2.28-5.54,3.43-7.81,4.59-7,3.58-10.29-3-12-9a7.71,7.71,0,0,1,0-1.86c-2.73,1.41.4,6.78,1.53,8.47,1.52,2.27,4.6,4,5.82,6.36.51,1,.7,3.49-.26,4.32s-2.79-.2-4.06-.65c-2.76-1-6.25-1.36-8.74-2.83-2.84-1.67-2-4.43-3.65-6.69-.8,2.14,1.3,4.45,1.47,6.5C13,71,11.75,68.86,10,66.86c.43,7,11.62,6.83,16.61,8.82,2.83,1.13,4.81,4.86,3.64,7.85-.46,1.17-3.31,2.74-5.11,4.19,4.11-2,8.83-1.9,13.56-1.5-.61-1-2.54-1.8-3.17-3.07a13,13,0,0,1-1.23-4.32c-.34-3.13-.22-6.8,2.08-9S41.86,66.64,44,64.37Z"/><path class="cls-5" d="M25.64,57.11c5.36.75,8.79-.51,13.28-3.26,4.81,4.83,14.06-.48,16-5.45C56.59,44.19,57.08,34,50.1,34.46c1.5-5.06-1.06-8.74-6.28-11S35.53,24,31,25.56c-3.72,1.28-8.32-.77-12.44,1.92-3.3,2.16-6.6,8.88-4.89,12.31l-.48,1.44c-4.46.66-4.74,8.77.41,8.2C12.25,55.51,21.35,56.51,25.64,57.11Z"/><path class="cls-6" d="M25.64,57.11c5.36.75,8.79-.51,13.28-3.26,4.81,4.83,14.06-.48,16-5.45C56.59,44.19,57.08,34,50.1,34.46c1.5-5.06-1.06-8.74-6.28-11l-.11,0A13.82,13.82,0,0,1,44.56,28v.48A14.46,14.46,0,0,1,32.45,42.61l-.07,0A13.77,13.77,0,0,1,24,45.23a13.17,13.17,0,0,1-10.57-4.69l-.23.69c-4.46.66-4.74,8.77.41,8.2C12.25,55.51,21.35,56.51,25.64,57.11Z"/><path class="cls-7" d="M25.64,57.11c5.36.75,8.79-.51,13.28-3.26,4.81,4.83,14.06-.48,16-5.45C56.59,44.19,57.08,34,50.1,34.46c1.37-4.64-.68-8.1-5-10.41.18.27.32.57.48.85,5.4,8.41,1.58,22.72-11.5,22.72-.21,0-.41,0-.62,0-.25.17-.46.38-.73.54A13.67,13.67,0,0,1,24,51a13.06,13.06,0,0,1-12.84-8.63c-2.29,2.36-1.73,7.55,2.45,7.09C12.25,55.51,21.35,56.51,25.64,57.11Z"/><path class="cls-5" d="M12.21,56.77H12c-1-1.42-5.26-1.09-7-.38-2.43,1-4.72,3.47-5,6.15-.46,5.05,3.23,6.21,7.69,6.83,3.85.53,7,.32,7.07-4C22.27,65.67,19,55.09,12.21,56.77Z"/><path class="cls-6" d="M9.91,63a16.37,16.37,0,0,1-3.25.49c-2,.25-4.32-1-5.66-2.34-.16-.16-.29-.36-.44-.54A6,6,0,0,0,0,62.54c-.46,5.05,3.23,6.21,7.69,6.83,3.85.53,7,.32,7.07-4,5,.22,5.17-4.43,2.72-7a12.59,12.59,0,0,1-4,2.54A9.07,9.07,0,0,1,9.91,63Z"/><path class="cls-7" d="M13.79,62.94a7.31,7.31,0,0,1-6.28,3.11A7.28,7.28,0,0,1,.34,61.21,5.68,5.68,0,0,0,0,62.54c-.46,5.05,3.23,6.21,7.69,6.83,3.85.53,7,.32,7.07-4,3.13.14,4.36-1.65,4.24-3.64-.1.06-.19.14-.3.2a7.94,7.94,0,0,1-4,1.09C14.4,63,14.09,63,13.79,62.94Z"/><path class="cls-8" d="M23.63,41.9a.83.83,0,0,0-.07.13,2.46,2.46,0,0,1,.07.29Z"/><path class="cls-8" d="M23,44.85h.57c.34-3.6,3.32-5.77,3-9.75H26c-.18,1.19-.43,4.26-1.58,5-1.39,1-3.53-.73-4.83-1,.25,1.65,3.59,1.26,4,2.87a.83.83,0,0,1,.07-.13v.42a2.46,2.46,0,0,0-.07-.29A4.3,4.3,0,0,0,23,44.85Z"/><path class="cls-5" d="M20.69,21.63c-2.43-.07-7.8,1.47-8.34,3.64l-.25.09c-9,1-8.21,15.39.73,11.61,2.08,5.25,6,4.08,10.42,1.69,5.16-2.78,9.12-5.86,6.27-11.8C28,23.71,24.1,21.73,20.69,21.63Z"/><path class="cls-6" d="M27.72,25.6c-1,2.24-3.31,4.83-5.82,5.42a21.29,21.29,0,0,1-4.18.88,11.92,11.92,0,0,1-5.33-1,16,16,0,0,1-6.06-1.26c-1.81,4.29.52,9.87,6.5,7.34,2.08,5.25,6,4.08,10.42,1.69,5.16-2.78,9.12-5.86,6.27-11.8A7.78,7.78,0,0,0,28,24.75C27.91,25,27.84,25.33,27.72,25.6Z"/><path class="cls-7" d="M22,34.52a9.45,9.45,0,0,1-9-.94,11.64,11.64,0,0,1-1.09.48,10.4,10.4,0,0,1-5.41.51L6,34.46c.76,2.47,3.07,4.1,6.82,2.51,2.08,5.25,6,4.08,10.42,1.69,5.16-2.78,9.12-5.86,6.27-11.8a7.26,7.26,0,0,0-1-1.48A9.45,9.45,0,0,1,22,34.52Z"/><path class="cls-8" d="M94.23,81.7c.22-.11.16,0,.43,0L94,81.28a5.24,5.24,0,0,1,.23.48A.13.13,0,0,1,94.23,81.7Z"/><path class="cls-8" d="M94.22,81.76c-.49,2.21-.52,4.27-2.66,5.6-.72-1.6-.1-4.19-1.58-5.45-.28,2.35,1.45,4.08,0,6.49-1.26,2.12-3.7,3.84-5.36,5.7-.51.57-3.14,3.22-2.9,9A4.28,4.28,0,0,0,85,101.4a5.7,5.7,0,0,1,.4-6.23C88.35,91.63,96.77,87.16,94.22,81.76Z"/><path class="cls-5" d="M93.65,71.9c-1.58.18-4.92,1.69-5.06,3.15l-.16.09C82.67,76.67,84.57,85.91,90,82.6c1.85,3.21,4.27,2.08,6.92.1,3.08-2.29,5.36-4.67,2.94-8.26A6.85,6.85,0,0,0,93.65,71.9Z"/><path class="cls-6" d="M98.7,73.22a5.4,5.4,0,0,1-.11.58,6.47,6.47,0,0,1-3.26,4.07,13,13,0,0,1-2.63,1,7.77,7.77,0,0,1-3.55-.14,10.56,10.56,0,0,1-4.05-.24c-.77,3,1.28,6.35,4.92,4.14,1.85,3.21,4.27,2.08,6.92.1,3.08-2.29,5.36-4.67,2.94-8.26A5.45,5.45,0,0,0,98.7,73.22Z"/><path class="cls-7" d="M95.75,80.14a6.25,6.25,0,0,1-6,.25,7.39,7.39,0,0,1-.66.42,6.74,6.74,0,0,1-3.46.84l-.31,0c.73,1.54,2.38,2.37,4.67,1,1.85,3.21,4.27,2.08,6.92.1,3.08-2.29,5.36-4.67,2.94-8.26a4.48,4.48,0,0,0-.77-.86A6.21,6.21,0,0,1,95.75,80.14Z"/><path class="cls-4" d="M102.65,106.41c-.48.06-2.27.37-2.29,1.07,0,.39,2.44,1,3,1.13a3.65,3.65,0,0,1,1.54.57,2.54,2.54,0,0,0,1.4.41,22,22,0,0,0,3.35,0c.52,0,1,0,1.5,0a5.34,5.34,0,0,0,1.62-.44c.92-.29,2.1,0,2.89-.51.42-.26.65-.64.25-1.1-.66-.73-2.39-.48-3.26-.53-2.81-.18-5.65,0-8.44-.42a4.31,4.31,0,0,0-.79-.12Z"/><path class="cls-5" d="M112.75,96.15c-2-.86-3.09.22-4.77.79-1.38.48-3.1-.29-4.63.71-1.23.81-2.46,3.31-1.82,4.59l-.18.53c-1.66.25-1.77,3.27.15,3-.5,2.27,2.88,2.64,4.48,2.86a6.69,6.69,0,0,0,4.94-1.21c1.79,1.8,5.24-.18,6-2,.61-1.56.79-5.37-1.8-5.19C115.64,98.37,114.69,97,112.75,96.15Z"/><path class="cls-6" d="M108.52,103.29h0a5.13,5.13,0,0,1-3.12,1,4.89,4.89,0,0,1-3.93-1.74l-.09.25c-1.66.25-1.77,3.27.15,3-.5,2.27,2.88,2.64,4.48,2.86a6.69,6.69,0,0,0,4.94-1.21c1.79,1.8,5.24-.18,6-2,.61-1.56.79-5.37-1.8-5.19.55-1.88-.4-3.25-2.34-4.1l0,0a5.24,5.24,0,0,1,.31,1.72V98A5.38,5.38,0,0,1,108.52,103.29Z"/><path class="cls-7" d="M109.11,105.15h-.23c-.1.07-.18.14-.28.2a5.07,5.07,0,0,1-3.23,1.06,4.86,4.86,0,0,1-4.77-3.21c-.86.87-.65,2.8.9,2.63-.5,2.27,2.88,2.64,4.48,2.86a6.69,6.69,0,0,0,4.94-1.21c1.79,1.8,5.24-.18,6-2,.61-1.56.79-5.37-1.8-5.19.5-1.72-.26-3-1.88-3.87l.18.32C115.4,99.83,114,105.15,109.11,105.15Z"/><path class="cls-4" d="M78.93,105.71a2.34,2.34,0,0,0-.53-.08l-.48,0c-.32,0-1.53.25-1.54.73,0,.26,1.64.69,2,.76a2.36,2.36,0,0,1,1,.38,1.68,1.68,0,0,0,.94.28,15.5,15.5,0,0,0,2.26,0c.35,0,.68,0,1,0a3.94,3.94,0,0,0,1.09-.3c.61-.19,1.4,0,1.94-.34.28-.18.44-.44.17-.74-.44-.5-1.62-.33-2.2-.36C82.72,105.87,80.82,106,78.93,105.71Z"/><path class="cls-5" d="M80.16,107.12a4.48,4.48,0,0,0,3.33-.82c1.21,1.21,3.53-.12,4-1.37.41-1.05.54-3.61-1.21-3.49.37-1.27-.27-2.2-1.58-2.77s-2.08.15-3.21.54c-.93.32-2.09-.2-3.12.48-.83.54-1.65,2.23-1.23,3.08l-.11.36c-1.12.17-1.2,2.2.1,2.06C76.81,106.72,79.09,107,80.16,107.12Z"/><path class="cls-6" d="M80.16,107.12a4.48,4.48,0,0,0,3.33-.82c1.21,1.21,3.53-.12,4-1.37.41-1.05.54-3.61-1.21-3.49.37-1.27-.27-2.2-1.58-2.77h0a3.51,3.51,0,0,1,.22,1.16v.12a3.63,3.63,0,0,1-3,3.54h0a3.46,3.46,0,0,1-2.1.65A3.28,3.28,0,0,1,77.1,103l0,.17c-1.12.17-1.2,2.2.1,2.06C76.81,106.72,79.09,107,80.16,107.12Z"/><path class="cls-7" d="M80.16,107.12a4.48,4.48,0,0,0,3.33-.82c1.21,1.21,3.53-.12,4-1.37.41-1.05.54-3.61-1.21-3.49A2.1,2.1,0,0,0,85,98.83l.12.21c1.36,2.11.4,5.7-2.88,5.7h-.16c-.06,0-.11.09-.18.13a3.42,3.42,0,0,1-2.18.72,3.28,3.28,0,0,1-3.22-2.17c-.57.59-.43,1.9.62,1.78C76.81,106.72,79.09,107,80.16,107.12Z"/><path class="cls-4" d="M106.45,71.59c-.57.07-2.79.46-2.81,1.32,0,.48,3,1.26,3.62,1.39a4.29,4.29,0,0,1,1.9.7,3.14,3.14,0,0,0,1.72.5,28.6,28.6,0,0,0,4.14,0c.63,0,1.23,0,1.84,0a6.46,6.46,0,0,0,2-.54c1.12-.35,2.57,0,3.55-.62.52-.33.79-.8.3-1.35-.8-.91-2.94-.6-4-.67-3.48-.21-7,0-10.4-.51a5.29,5.29,0,0,0-1-.15Z"/><path class="cls-5" d="M118.89,59c-2.41-1.05-3.8.27-5.87,1-1.7.59-3.81-.36-5.7.88-1.51,1-3,4.06-2.24,5.64l-.22.65c-2,.31-2.17,4,.19,3.76-.63,2.79,3.54,3.24,5.51,3.52a8.25,8.25,0,0,0,6.08-1.5c2.2,2.22,6.44-.21,7.34-2.49.76-1.93,1-6.61-2.22-6.39C122.44,61.69,121.27,60,118.89,59Z"/><path class="cls-6" d="M113.68,67.75h0A6.24,6.24,0,0,1,109.81,69,6,6,0,0,1,105,66.8l-.11.31c-2,.31-2.17,4,.19,3.76-.63,2.79,3.54,3.24,5.51,3.52a8.25,8.25,0,0,0,6.08-1.5c2.2,2.22,6.44-.21,7.34-2.49.76-1.93,1-6.61-2.22-6.39.68-2.32-.49-4-2.87-5.05l-.06,0a6.28,6.28,0,0,1,.4,2.12v.22A6.65,6.65,0,0,1,113.68,67.75Z"/><path class="cls-7" d="M114.41,70h-.29c-.12.08-.21.17-.33.24a6.25,6.25,0,0,1-4,1.3,6,6,0,0,1-5.88-3.95c-1.05,1.08-.8,3.46,1.12,3.25-.63,2.79,3.54,3.24,5.51,3.52a8.25,8.25,0,0,0,6.08-1.5c2.2,2.22,6.44-.21,7.34-2.49.76-1.93,1-6.61-2.22-6.39.63-2.12-.31-3.71-2.31-4.77.08.13.15.27.22.39C122.15,63.49,120.39,70,114.41,70Z"/><path class="cls-4" d="M122.69,83.19a4.32,4.32,0,0,0,2.33.68,37.52,37.52,0,0,0,5.61,0c.86-.05,1.68,0,2.51,0a9,9,0,0,0,2.7-.73c1.53-.49,3.5,0,4.83-.85.69-.44,1.07-1.08.4-1.83-1.09-1.23-4-.81-5.43-.9-4.71-.29-9.44,0-14.1-.69a6.7,6.7,0,0,0-1.33-.21l-1.2-.1c-.78.1-3.79.62-3.81,1.8,0,.65,4.07,1.71,4.91,1.88A6,6,0,0,1,122.69,83.19Z"/><path class="cls-5" d="M117.1,77.59c-.84,3.78,4.81,4.4,7.48,4.77,3.33.47,5.46-.32,8.25-2,3,3,8.74-.29,10-3.38,1-2.62,1.33-9-3-8.67.93-3.14-.66-5.43-3.9-6.85s-5.16.36-8,1.33c-2.31.79-5.17-.48-7.73,1.19-2,1.33-4.1,5.52-3,7.65l-.3.89C114.08,72.9,113.9,77.94,117.1,77.59Z"/><path class="cls-6" d="M128.81,73.35l-.05,0a8.56,8.56,0,0,1-5.2,1.61A8.18,8.18,0,0,1,117,72.06l-.14.43c-2.77.41-2.95,5.45.25,5.1-.84,3.78,4.81,4.4,7.48,4.77,3.33.47,5.46-.32,8.25-2,3,3,8.74-.29,10-3.38,1-2.62,1.33-9-3-8.67.93-3.14-.66-5.43-3.9-6.85l-.07,0a8.65,8.65,0,0,1,.53,2.88v.3A9,9,0,0,1,128.81,73.35Z"/><path class="cls-7" d="M129.8,76.46h-.39c-.16.1-.29.23-.45.33a8.51,8.51,0,0,1-5.4,1.77,8.11,8.11,0,0,1-8-5.37c-1.43,1.47-1.08,4.69,1.51,4.41-.84,3.78,4.81,4.4,7.48,4.77,3.33.47,5.46-.32,8.25-2,3,3,8.74-.29,10-3.38,1-2.62,1.33-9-3-8.67.85-2.88-.43-5-3.13-6.46.11.16.19.35.3.52C140.3,67.57,137.93,76.46,129.8,76.46Z"/></svg>