<svg id="Layer_1" data-name="Layer 1" xmlns="http://www.w3.org/2000/svg" viewBox="0 0 218.91 89.75"><defs><style>.cls-1{fill:#a4d803;}.cls-2{fill:#ffd400;}.cls-3{fill:#7a5803;}.cls-4{fill:#34d0e0;}.cls-5{fill:#88f7ff;}</style></defs><path class="cls-1" d="M204.54,35.59a98.14,98.14,0,0,1-20.78-12.5A77.11,77.11,0,0,0,156.7,9.75c-4-1.05-6.95-2.17-10.83-2A35.21,35.21,0,0,1,134.78,7c-8.33-2-16.88-5.75-25.18-6.58C103-.28,94.74,1.45,90.45,3.61,87.13,5.3,84,8.39,80.68,10.18c-3.72,2-7.68,2.57-11.81,3a95.92,95.92,0,0,0-24.05,6.11c-1.18,1.37-3,1.93-4.39,3.16-1.16,1-1.63,2.61-2.63,3.56-2,1.94-4.87,3.21-7.34,4.57-6.45,3.56-15.2,4.81-21.1,9.59C5.36,43.42-.1,49.05,0,54.46.12,61.26,6.7,66,11.84,69.38c10.88,7.14,25.35,6.94,37,12.26C55.66,84.78,61,85.79,68.45,87c3.1.49,5.54,1.89,8.56,2.5s7,0,10.18,0c15.47,0,30.85-1.25,46.55-1.25,8.21,0,15.17.18,22.72-2.49,8.21-2.9,15.36-7.62,23.24-11.27A139.09,139.09,0,0,1,205,65.3c9-2.16,16-4.29,13.43-15C216.78,43.65,210.77,38.25,204.54,35.59Z"/><path class="cls-2" d="M199,35.28a91.65,91.65,0,0,1-19.57-11.51A73.45,73.45,0,0,0,154,11.5c-3.78-1-6.54-2-10.21-1.81a34.14,34.14,0,0,1-10.44-.77c-7.84-1.86-15.89-5.29-23.7-6-6.18-.61-14,1-18,3-3.14,1.55-6.06,4.4-9.21,6.05-3.5,1.82-7.22,2.36-11.12,2.77A92.15,92.15,0,0,0,48.64,20.3c-1.1,1.26-2.86,1.78-4.13,2.91-1.09,1-1.54,2.4-2.48,3.27-1.93,1.78-4.58,3-6.9,4.21C29.05,34,20.81,35.12,15.26,39.51c-3.77,3-8.91,8.16-8.82,13.14.12,6.26,6.31,10.63,11.14,13.74C27.84,73,41.46,72.78,52.39,77.67c6.46,2.9,11.45,3.82,18.5,4.91,2.92.44,5.21,1.73,8.06,2.29s6.59,0,9.58,0c14.58,0,29.05-1.14,43.83-1.14,7.73,0,14.29.17,21.39-2.3,7.73-2.67,14.46-7,21.88-10.38a132.76,132.76,0,0,1,23.77-8.42c8.44-2,15.07-4,12.64-13.81C210.54,42.71,204.87,37.73,199,35.28Z"/><path class="cls-3" d="M119.11,11.61c-16.81-2.74-37.49,3.63-46.26,6.58C52.58,24.63,26.52,38.52,23.93,48.9,18.09,72.3,69.21,72.1,81.28,75.17c6.08,1.55,11.88,4.52,18.13,4.8,5.48.25,12.09-1.7,18-2.6,11.7-1.78,22.72-2.47,33.82-5.69,10.76-3.14,59.13-17.63,35.95-35.74C171.62,23.82,144.23,15.69,119.11,11.61Z"/><path class="cls-4" d="M145.06,19.67C136.61,16.34,123.63,14,114.27,13c-9.91-1.08-25.45,1.41-34.22,4.36C59.78,23.78,26.52,40.82,23.93,51.2,18.09,74.61,69.21,74.39,81.28,77.47,87.36,79,93.16,82,99.41,82.27c5.48.25,12.09-1.7,18-2.59,11.7-1.79,22.72-2.47,33.82-5.7,10.76-3.14,59.13-17.63,35.95-35.74C171.62,26.13,155.53,23.78,145.06,19.67Z"/><path class="cls-5" d="M110.26,71.53c-2.14,0-11.65.74-14.46-.12a57.17,57.17,0,0,0-8.65-1.54c-3-.42-6-.66-9-.85.85.54,6.38,1.68,8,2,9.89,3.48,29,1.53,31.51,1.3s5.2-1.29,7.74-1.21a39.23,39.23,0,0,0-5.63.07C118.07,71.21,111.74,71.52,110.26,71.53Z"/><path class="cls-5" d="M60,59.55c-4.28.84-8.07-.64-12.36-.35a7.4,7.4,0,0,0-3.72.95c4.82-.22,9.56,2.28,14.28,1.68a27.61,27.61,0,0,0,3.58-1,13.15,13.15,0,0,1,3.6,0A57.07,57.07,0,0,0,72.85,60C68.28,60,64.42,58.67,60,59.55Z"/><path class="cls-5" d="M132.57,27.54c-1.33.39-2.65,1.72-4,1.76a9.27,9.27,0,0,0,3-.35c.93-.17,4.27-.82,5.06-.88,1.15-.11,6.15-1.4,7.73-.53a16.48,16.48,0,0,0,4.77,1.39,29.11,29.11,0,0,0,4.86.57c-.51-.58-3.57-1.65-4.47-1.88C143.89,24,133.91,27.15,132.57,27.54Z"/><path class="cls-5" d="M149.44,42a7.51,7.51,0,0,0-3.73,1c4.81-.22,9.56,2.27,14.28,1.68a27.32,27.32,0,0,0,3.59-1.05,13.08,13.08,0,0,1,3.59,0,58.64,58.64,0,0,0,7.51-.8c-4.57,0-8.42-1.33-12.89-.45C157.51,43.22,153.72,41.75,149.44,42Z"/><path class="cls-5" d="M48.38,44.07a21.63,21.63,0,0,1-6.45.47,18.24,18.24,0,0,0-6.35-.29l-1.15.46a28.5,28.5,0,0,0,13,.4c4.23-.9,9.26,1.09,13.24-.64-2.15-.21-4.12-.07-6.15-.4A20.32,20.32,0,0,0,48.38,44.07Z"/><path class="cls-5" d="M99.16,53.08c2,.13,4-.08,5.94.5,1.53.46,3.13,1.46,4.8,1.78,3.62.7,6.66-2.48,10.45-2-3.82-1.36-6.52,0-10.22-.18-3-.18-6.89-2.37-9.84-.74l.23-.23A4.47,4.47,0,0,0,99.16,53.08Z"/><path class="cls-5" d="M97.44,18.67c3.71-.23,6.39,1.18,10.22-.2-3.79.49-6.83-2.69-10.45-2-1.66.32-3.27,1.32-4.79,1.78-1.91.58-3.94.37-6,.5a4.35,4.35,0,0,0,1.36.87l-.24-.23C90.55,21,94.45,18.85,97.44,18.67Z"/><path class="cls-5" d="M148.56,60.13a39.82,39.82,0,0,1,7.45.35c2.12.33,5-.68,6.67-1.49-2.5,0-4.88.6-8.23-.19A6.9,6.9,0,0,0,148.56,60.13Z"/><path class="cls-5" d="M90,35.81a38.13,38.13,0,0,1,7.44.35c2.12.32,5-.68,6.66-1.49-2.49,0-4.87.59-8.22-.19A6.87,6.87,0,0,0,90,35.81Z"/></svg>