<svg id="Layer_1" data-name="Layer 1" xmlns="http://www.w3.org/2000/svg" viewBox="0 0 14.11 56.16"><defs><style>.cls-1{fill:#663f30;}.cls-2{fill:#cca946;}.cls-3{fill:#a88b3a;}</style></defs><path class="cls-1" d="M12.05,55a11.06,11.06,0,0,1-10,0c-1.51-.88-2.19-2.06-2-3.2H0v-48l14.09.35,0,47.48a2.53,2.53,0,0,1,0,.91h0A3.82,3.82,0,0,1,12.05,55Z"/><path class="cls-2" d="M12.05,7C14.8,5.37,14.8,2.79,12,1.2a11,11,0,0,0-10,0C-.69,2.79-.69,5.37,2.07,7A11,11,0,0,0,12.05,7Z"/><path class="cls-3" d="M11.16,6.44a9,9,0,0,1-8.2,0C.7,5.15.69,3,3,1.71a9.1,9.1,0,0,1,8.21,0C13.41,3,13.42,5.14,11.16,6.44Zm-.54-.31c2-1.13,2-3,0-4.11A7.88,7.88,0,0,0,3.5,2c-2,1.13-2,3,0,4.11A7.84,7.84,0,0,0,10.62,6.13Z"/><path class="cls-3" d="M9.73,5.63a6,6,0,0,1-5.36,0c-1.47-.86-1.47-2.24,0-3.1a5.9,5.9,0,0,1,5.35,0C11.21,3.39,11.21,4.77,9.73,5.63Zm-.54-.32a1.3,1.3,0,0,0,0-2.46,4.65,4.65,0,0,0-4.28,0,1.31,1.31,0,0,0,0,2.47A4.69,4.69,0,0,0,9.19,5.31Z"/><path class="cls-3" d="M8.64,5A3.51,3.51,0,0,1,5.47,5a1,1,0,0,1,0-1.82,3.48,3.48,0,0,1,3.17,0A1,1,0,0,1,8.64,5ZM8.1,4.68c.58-.33.58-.87,0-1.21A2.33,2.33,0,0,0,6,3.47c-.57.34-.58.88,0,1.21A2.3,2.3,0,0,0,8.1,4.68Z"/></svg>