<svg id="Layer_1" data-name="Layer 1" xmlns="http://www.w3.org/2000/svg" xmlns:xlink="http://www.w3.org/1999/xlink" viewBox="0 0 252.52 294.74"><defs><style>.cls-1{fill:#5c2c1b;}.cls-2{fill:#783b25;}.cls-3{fill:#572a1b;}.cls-4{fill:#452014;}.cls-5{fill:#a8804c;}.cls-6{fill:#87673d;}.cls-7{fill:#878787;}.cls-8{fill:#636363;}.cls-9{opacity:0.3;}.cls-10{fill:#4c8018;}.cls-11{fill:url(#radial-gradient);}.cls-12{fill:url(#radial-gradient-2);}.cls-13{fill:url(#radial-gradient-3);}.cls-14{fill:url(#radial-gradient-4);}.cls-15{fill:#4c631c;}.cls-16{fill:#709129;}.cls-17{fill:#90ad1a;}.cls-18{fill:#fb0;}.cls-19{fill:#d49c00;}.cls-20{fill:#ffd666;}.cls-21{fill:url(#radial-gradient-5);}.cls-22{fill:#fa9999;}.cls-23{fill:url(#radial-gradient-6);}.cls-24{fill:#593628;}.cls-25{fill:url(#radial-gradient-7);}.cls-26{fill:url(#radial-gradient-8);}.cls-27{fill:url(#radial-gradient-9);}.cls-28{fill:url(#radial-gradient-10);}.cls-29{fill:url(#radial-gradient-11);}.cls-30{fill:url(#radial-gradient-12);}.cls-31{fill:url(#radial-gradient-13);}.cls-32{fill:url(#radial-gradient-14);}.cls-33{fill:url(#radial-gradient-15);}.cls-34{fill:url(#radial-gradient-16);}.cls-35{fill:url(#radial-gradient-17);}.cls-36{fill:url(#radial-gradient-18);}.cls-37{fill:url(#radial-gradient-19);}.cls-38{fill:url(#radial-gradient-20);}.cls-39{fill:url(#radial-gradient-21);}.cls-40{fill:url(#radial-gradient-22);}.cls-41{fill:url(#radial-gradient-23);}.cls-42{fill:url(#radial-gradient-24);}.cls-43{fill:url(#radial-gradient-25);}.cls-44{fill:url(#radial-gradient-26);}.cls-45{fill:url(#radial-gradient-27);}.cls-46{fill:#593f34;}.cls-47{fill:#795547;}.cls-48{fill:#8c6352;}.cls-49{fill:#fa4b4b;}.cls-50{fill:#b3b3b3;}.cls-51{fill:#ad2d2d;}.cls-52{fill:#cc8a33;}.cls-53{fill:#f2f2f2;}.cls-54{fill:#ffb95c;}.cls-55{fill:#ffad40;}.cls-56{fill:#3b1c11;}.cls-57{fill:#1c0d08;}.cls-58{fill:#804d39;}.cls-59{fill:#663f30;}.cls-60{fill:#cca946;}.cls-61{fill:#a88b3a;}.cls-62{fill:#452a20;}.cls-63{fill:#573629;}.cls-64{fill:#5e5e5e;}.cls-65{fill:#4f4f4f;}.cls-66{fill:#401313;}.cls-67{fill:#ffc600;}.cls-68{fill:#ffb205;}.cls-69{fill:#ed9215;}.cls-70{fill:#ff6a00;}.cls-71{fill:#333;}.cls-72{fill:#474747;}.cls-73{fill:#1f1f1f;}.cls-74{fill:#0f0f0f;}.cls-75{fill:#919191;}.cls-76{fill:#3b3b3b;}.cls-77{fill:#787878;}.cls-78{fill:#965d47;}.cls-79{fill:#383838;}.cls-80{fill:#2e6a99;}.cls-81{fill:#369ff2;}.cls-82{fill:#fff;opacity:0.1;}.cls-83{fill:#e76e1b;}.cls-84{fill:#2b82c7;}.cls-85{fill:#ffd57a;}</style><radialGradient id="radial-gradient" cx="129.95" cy="107.99" r="6.24" gradientUnits="userSpaceOnUse"><stop offset="0" stop-color="#7cab20"/><stop offset="0.58" stop-color="#5c8019"/><stop offset="0.83" stop-color="#5d8219"/><stop offset="0.92" stop-color="#63891a"/><stop offset="0.98" stop-color="#6c941c"/><stop offset="1" stop-color="#6f991d"/></radialGradient><radialGradient id="radial-gradient-2" cx="145.31" cy="117.28" r="6.24" xlink:href="#radial-gradient"/><radialGradient id="radial-gradient-3" cx="113.22" cy="117.83" r="6.24" xlink:href="#radial-gradient"/><radialGradient id="radial-gradient-4" cx="128.58" cy="127.13" r="6.24" xlink:href="#radial-gradient"/><radialGradient id="radial-gradient-5" cx="-2416.51" cy="148.42" r="1.8" gradientTransform="matrix(-1, 0, 0, 1, -2176.08, 0)" gradientUnits="userSpaceOnUse"><stop offset="0" stop-color="#cf3636"/><stop offset="0.52" stop-color="#a11e1e"/><stop offset="0.65" stop-color="#a62020"/><stop offset="0.81" stop-color="#b32828"/><stop offset="0.97" stop-color="#ca3333"/><stop offset="1" stop-color="#cf3636"/></radialGradient><radialGradient id="radial-gradient-6" cx="-2387.68" cy="148.42" r="1.79" xlink:href="#radial-gradient-5"/><radialGradient id="radial-gradient-7" cx="217.18" cy="121.28" r="35.24" xlink:href="#radial-gradient"/><radialGradient id="radial-gradient-8" cx="-2416.51" cy="121.68" r="1.8" xlink:href="#radial-gradient-5"/><radialGradient id="radial-gradient-9" cx="-2405.3" cy="120.59" r="1.8" xlink:href="#radial-gradient-5"/><radialGradient id="radial-gradient-10" cx="-2390.97" cy="113.83" r="1.8" xlink:href="#radial-gradient-5"/><radialGradient id="radial-gradient-11" cx="-2400.35" cy="109.83" r="1.79" xlink:href="#radial-gradient-5"/><radialGradient id="radial-gradient-12" cx="-2415.23" cy="114.68" r="1.79" xlink:href="#radial-gradient-5"/><radialGradient id="radial-gradient-13" cx="-2422.07" cy="129.16" r="1.8" xlink:href="#radial-gradient-5"/><radialGradient id="radial-gradient-14" cx="-2409.67" cy="126.59" r="1.79" xlink:href="#radial-gradient-5"/><radialGradient id="radial-gradient-15" cx="-2398.35" cy="121.03" r="1.79" xlink:href="#radial-gradient-5"/><radialGradient id="radial-gradient-16" cx="-2384.32" cy="120.83" r="1.79" xlink:href="#radial-gradient-5"/><radialGradient id="radial-gradient-17" cx="-2393.54" cy="128.72" r="1.79" xlink:href="#radial-gradient-5"/><radialGradient id="radial-gradient-18" cx="-2382.52" cy="131.73" r="1.8" xlink:href="#radial-gradient-5"/><radialGradient id="radial-gradient-19" cx="-2388.4" cy="141.91" r="1.79" xlink:href="#radial-gradient-5"/><radialGradient id="radial-gradient-20" cx="-2402.85" cy="134.45" r="1.79" xlink:href="#radial-gradient-5"/><radialGradient id="radial-gradient-21" cx="-2404.78" cy="141.02" r="1.79" xlink:href="#radial-gradient-5"/><radialGradient id="radial-gradient-22" cx="-2414.71" cy="134.45" r="1.79" xlink:href="#radial-gradient-5"/><radialGradient id="radial-gradient-23" cx="-2420.78" cy="141.06" r="1.79" xlink:href="#radial-gradient-5"/><radialGradient id="radial-gradient-24" cx="-2411.36" cy="146.1" r="1.79" xlink:href="#radial-gradient-5"/><radialGradient id="radial-gradient-25" cx="-2397.63" cy="146.1" r="1.79" xlink:href="#radial-gradient-5"/><radialGradient id="radial-gradient-26" cx="-2380.31" cy="142.08" r="1.79" xlink:href="#radial-gradient-5"/><radialGradient id="radial-gradient-27" cx="-2407.1" cy="110.47" r="1.8" xlink:href="#radial-gradient-5"/></defs><polygon class="cls-1" points="87.55 145.24 131.89 170.84 131.89 155.54 128.1 146.64 95.83 127.37 87.55 129.94 87.55 145.24"/><path class="cls-2" d="M87.55,129.94l1.81-.46a11.58,11.58,0,0,1,8.6,1.19l26.37,15.23a11.55,11.55,0,0,1,4.06,3.95l3.5,5.69,44.33-25.6-3.5-5.69a11.55,11.55,0,0,0-4.06-4L142.3,105.08a11.53,11.53,0,0,0-8.54-1.2l-1.87.46Z"/><polygon class="cls-3" points="87.55 129.94 89.36 129.48 133.76 103.88 131.89 104.34 87.55 129.94"/><polygon class="cls-3" points="128.39 149.85 131.89 155.54 176.22 129.94 172.72 124.25 128.39 149.85"/><polygon class="cls-4" points="176.22 145.24 131.89 170.84 131.89 155.54 176.22 129.94 176.22 145.24"/><polygon class="cls-5" points="87.55 163.2 131.89 188.79 131.89 170.84 87.55 145.24 87.55 163.2"/><polygon class="cls-6" points="176.22 163.2 131.89 188.79 131.89 170.84 176.22 145.24 176.22 163.2"/><polygon class="cls-7" points="87.55 173.22 131.89 198.81 131.89 188.79 87.55 163.2 87.55 173.22"/><polygon class="cls-8" points="176.22 173.22 131.89 198.81 131.89 188.79 176.22 163.2 176.22 173.22"/><path class="cls-9" d="M134.53,116.6a7.27,7.27,0,0,1-6.55,0c-1.81-1-1.81-2.74,0-3.78a7.23,7.23,0,0,1,6.55,0C136.34,113.86,136.33,115.55,134.53,116.6Z"/><path class="cls-10" d="M131.67,110.8h-.14a.64.64,0,0,0-.54,0h-.14s-.27,4-.27,4.06a.33.33,0,0,0,.2.32,1.1,1.1,0,0,0,1,0,.32.32,0,0,0,.19-.33l-.27-3.88Z"/><path class="cls-11" d="M131.25,105.16a4.4,4.4,0,1,0,4.4,4.4A4.4,4.4,0,0,0,131.25,105.16Z"/><path class="cls-9" d="M149.89,125.89a7.29,7.29,0,0,1-6.56,0c-1.8-1-1.8-2.74,0-3.78a7.2,7.2,0,0,1,6.55,0C151.7,123.15,151.69,124.85,149.89,125.89Z"/><path class="cls-10" d="M147,120.09h-.14a.64.64,0,0,0-.54,0h-.14l-.27,4.06c0,.12.05.23.2.32a1.1,1.1,0,0,0,1,0c.15-.09.22-.21.19-.33l-.27-3.87Z"/><circle class="cls-12" cx="146.61" cy="118.85" r="4.4"/><path class="cls-9" d="M117.8,126.44a7.2,7.2,0,0,1-6.55,0c-1.81-1-1.81-2.73,0-3.78a7.27,7.27,0,0,1,6.55,0C119.61,123.71,119.61,125.4,117.8,126.44Z"/><path class="cls-10" d="M114.94,120.65h-.14a.57.57,0,0,0-.54,0h-.13l-.28,4.06a.33.33,0,0,0,.2.31,1,1,0,0,0,1,0c.16-.09.22-.21.19-.33l-.27-3.87Z"/><path class="cls-13" d="M114.52,115a4.4,4.4,0,1,0,4.4,4.4A4.4,4.4,0,0,0,114.52,115Z"/><path class="cls-9" d="M133.16,135.74a7.27,7.27,0,0,1-6.55,0c-1.81-1.05-1.81-2.74,0-3.78a7.2,7.2,0,0,1,6.55,0C135,133,135,134.69,133.16,135.74Z"/><path class="cls-10" d="M130.3,129.94h-.14a.64.64,0,0,0-.54,0h-.13l-.28,4.06a.35.35,0,0,0,.2.32,1.1,1.1,0,0,0,1,0,.3.3,0,0,0,.19-.33s-.27-3.88-.27-3.88Z"/><path class="cls-14" d="M129.88,124.3a4.4,4.4,0,1,0,4.4,4.4A4.4,4.4,0,0,0,129.88,124.3Z"/><polygon class="cls-1" points="131.89 170.84 176.22 196.44 176.22 184.45 131.89 158.85 131.89 170.84"/><polygon class="cls-4" points="220.55 170.84 176.22 196.44 176.22 184.45 220.55 158.85 220.55 170.84"/><polygon class="cls-15" points="220.55 158.85 176.22 184.45 176.22 181.13 220.55 155.54 220.55 158.85"/><polygon class="cls-16" points="131.89 158.85 176.22 184.45 176.22 181.13 131.89 155.54 131.89 158.85"/><polygon class="cls-5" points="131.89 188.79 176.22 214.39 176.22 196.44 131.89 170.84 131.89 188.79"/><polygon class="cls-6" points="220.55 188.79 176.22 214.39 176.22 196.44 220.55 170.84 220.55 188.79"/><polygon class="cls-7" points="131.89 198.81 176.22 224.41 176.22 214.39 131.89 188.79 131.89 198.81"/><polygon class="cls-8" points="220.55 198.81 176.22 224.41 176.22 214.39 220.55 188.79 220.55 198.81"/><polygon class="cls-17" points="131.89 155.54 176.22 181.13 220.55 155.54 176.22 129.94 131.89 155.54"/><polygon class="cls-1" points="87.55 196.44 131.89 222.03 131.89 210.05 87.55 184.45 87.55 196.44"/><polygon class="cls-4" points="176.22 196.44 131.89 222.03 131.89 210.05 176.22 184.45 176.22 196.44"/><polygon class="cls-15" points="176.22 184.45 131.89 210.05 131.89 206.73 176.22 181.13 176.22 184.45"/><polygon class="cls-16" points="87.55 184.45 131.89 210.05 131.89 206.73 87.55 181.13 87.55 184.45"/><polygon class="cls-5" points="87.55 214.39 131.89 239.99 131.89 222.03 87.55 196.44 87.55 214.39"/><polygon class="cls-6" points="176.22 214.39 131.89 239.99 131.89 222.03 176.22 196.44 176.22 214.39"/><polygon class="cls-7" points="87.55 224.41 131.89 250.01 131.89 239.99 87.55 214.39 87.55 224.41"/><polygon class="cls-8" points="176.22 224.41 131.89 250.01 131.89 239.99 176.22 214.39 176.22 224.41"/><polygon class="cls-17" points="87.55 181.13 131.89 206.73 176.22 181.13 131.89 155.54 87.55 181.13"/><polygon class="cls-9" points="178.9 131.51 1.58 233.88 0.07 233.01 177.39 130.63 178.9 131.51"/><polygon class="cls-18" points="175.88 131.51 177.39 132.38 177.39 111.52 175.88 110.65 175.88 131.51"/><polygon class="cls-19" points="177.39 132.38 178.9 131.51 178.9 110.65 177.39 111.52 177.39 132.38"/><polygon class="cls-20" points="175.88 110.65 177.39 111.52 178.9 110.65 177.39 109.77 175.88 110.65"/><polygon class="cls-19" points="149.41 134.66 177.1 118.67 177.1 116.75 149.41 132.74 149.41 134.66"/><polygon class="cls-20" points="148.57 132.25 149.41 132.74 177.1 116.75 176.27 116.27 148.57 132.25"/><polygon class="cls-18" points="148.57 134.18 149.41 134.66 149.41 132.74 148.57 132.25 148.57 134.18"/><polygon class="cls-19" points="149.41 143.38 177.1 127.39 177.1 125.46 149.41 141.45 149.41 143.38"/><polygon class="cls-20" points="148.57 140.97 149.41 141.45 177.1 125.46 176.27 124.98 148.57 140.97"/><polygon class="cls-18" points="148.57 142.9 149.41 143.38 149.41 141.45 148.57 140.97 148.57 142.9"/><polygon class="cls-18" points="146.6 148.41 148.12 149.28 148.12 128.42 146.6 127.55 146.6 148.41"/><polygon class="cls-19" points="148.12 149.28 149.63 148.41 149.63 127.55 148.12 128.42 148.12 149.28"/><polygon class="cls-20" points="146.6 127.55 148.12 128.42 149.63 127.55 148.12 126.67 146.6 127.55"/><polygon class="cls-19" points="120.07 151.58 147.77 135.59 147.77 133.67 120.07 149.66 120.07 151.58"/><polygon class="cls-20" points="119.24 149.18 120.07 149.66 147.77 133.67 146.94 133.19 119.24 149.18"/><polygon class="cls-18" points="119.24 151.1 120.07 151.58 120.07 149.66 119.24 149.18 119.24 151.1"/><polygon class="cls-19" points="120.07 160.3 147.77 144.31 147.77 142.39 120.07 158.38 120.07 160.3"/><polygon class="cls-20" points="119.24 157.9 120.07 158.38 147.77 142.39 146.94 141.91 119.24 157.9"/><polygon class="cls-18" points="119.24 159.82 120.07 160.3 120.07 158.38 119.24 157.9 119.24 159.82"/><polygon class="cls-18" points="117.28 165.34 118.79 166.21 118.79 145.35 117.28 144.48 117.28 165.34"/><polygon class="cls-19" points="118.79 166.21 120.31 165.34 120.31 144.48 118.79 145.35 118.79 166.21"/><polygon class="cls-20" points="117.28 144.48 118.79 145.35 120.31 144.48 118.79 143.6 117.28 144.48"/><polygon class="cls-19" points="90.81 168.49 118.51 152.5 118.51 150.58 90.81 166.57 90.81 168.49"/><polygon class="cls-20" points="89.98 166.09 90.81 166.57 118.51 150.58 117.67 150.1 89.98 166.09"/><polygon class="cls-18" points="89.98 168.01 90.81 168.49 90.81 166.57 89.98 166.09 89.98 168.01"/><polygon class="cls-19" points="90.81 177.21 118.51 161.22 118.51 159.29 90.81 175.28 90.81 177.21"/><polygon class="cls-20" points="89.98 174.81 90.81 175.28 118.51 159.29 117.67 158.81 89.98 174.81"/><polygon class="cls-18" points="89.98 176.72 90.81 177.21 90.81 175.28 89.98 174.81 89.98 176.72"/><polygon class="cls-18" points="88.01 182.24 89.52 183.11 89.52 162.25 88.01 161.38 88.01 182.24"/><polygon class="cls-19" points="89.52 183.11 91.03 182.24 91.03 161.38 89.52 162.25 89.52 183.11"/><polygon class="cls-20" points="88.01 161.38 89.52 162.25 91.03 161.38 89.52 160.5 88.01 161.38"/><polygon class="cls-19" points="61.47 185.41 89.17 169.42 89.17 167.5 61.47 183.49 61.47 185.41"/><polygon class="cls-20" points="60.64 183.01 61.47 183.49 89.17 167.5 88.34 167.02 60.64 183.01"/><polygon class="cls-18" points="60.64 184.93 61.47 185.41 61.47 183.49 60.64 183.01 60.64 184.93"/><polygon class="cls-19" points="61.47 194.13 89.17 178.14 89.17 176.22 61.47 192.21 61.47 194.13"/><polygon class="cls-20" points="60.64 191.73 61.47 192.21 89.17 176.22 88.34 175.74 60.64 191.73"/><polygon class="cls-18" points="60.64 193.65 61.47 194.13 61.47 192.21 60.64 191.73 60.64 193.65"/><polygon class="cls-18" points="58.68 199.17 60.2 200.04 60.2 179.18 58.68 178.31 58.68 199.17"/><polygon class="cls-19" points="60.2 200.04 61.71 199.17 61.71 178.31 60.2 179.18 60.2 200.04"/><polygon class="cls-20" points="58.68 178.31 60.2 179.18 61.71 178.31 60.2 177.43 58.68 178.31"/><polygon class="cls-19" points="32.2 202.33 59.89 186.34 59.89 184.42 32.2 200.41 32.2 202.33"/><polygon class="cls-20" points="31.37 199.93 32.2 200.41 59.89 184.42 59.06 183.94 31.37 199.93"/><polygon class="cls-18" points="31.37 201.85 32.2 202.33 32.2 200.41 31.37 199.93 31.37 201.85"/><polygon class="cls-19" points="32.2 211.04 59.89 195.06 59.89 193.13 32.2 209.12 32.2 211.04"/><polygon class="cls-20" points="31.37 208.64 32.2 209.12 59.89 193.13 59.06 192.65 31.37 208.64"/><polygon class="cls-18" points="31.37 210.57 32.2 211.04 32.2 209.12 31.37 208.64 31.37 210.57"/><polygon class="cls-18" points="29.39 216.08 30.91 216.95 30.91 196.09 29.39 195.22 29.39 216.08"/><polygon class="cls-19" points="30.91 216.95 32.42 216.08 32.42 195.22 30.91 196.09 30.91 216.95"/><polygon class="cls-20" points="29.39 195.22 30.91 196.09 32.42 195.22 30.91 194.34 29.39 195.22"/><polygon class="cls-19" points="2.86 219.25 30.55 203.26 30.55 201.34 2.86 217.33 2.86 219.25"/><polygon class="cls-20" points="2.03 216.85 2.86 217.33 30.55 201.34 29.73 200.86 2.03 216.85"/><polygon class="cls-18" points="2.03 218.77 2.86 219.25 2.86 217.33 2.03 216.85 2.03 218.77"/><polygon class="cls-19" points="2.86 227.97 30.55 211.98 30.55 210.06 2.86 226.04 2.86 227.97"/><polygon class="cls-20" points="2.03 225.57 2.86 226.04 30.55 210.06 29.73 209.58 2.03 225.57"/><polygon class="cls-18" points="2.03 227.49 2.86 227.97 2.86 226.04 2.03 225.57 2.03 227.49"/><polygon class="cls-18" points="0.07 233.01 1.58 233.88 1.58 213.02 0.07 212.15 0.07 233.01"/><polygon class="cls-19" points="1.58 233.88 3.1 233.01 3.1 212.15 1.58 213.02 1.58 233.88"/><polygon class="cls-20" points="0.07 212.15 1.58 213.02 3.1 212.15 1.58 211.27 0.07 212.15"/><path class="cls-9" d="M250.08,174.43a10.64,10.64,0,0,0-9.57,0,14.13,14.13,0,0,0-1.66-1.12c-7.29-4.21-19.11-4.21-26.4,0s-7.3,11,0,15.25,19.12,4.21,26.41,0c3.57-2.06,5.38-4.75,5.46-7.45a10.23,10.23,0,0,0,5.77-1.1C252.73,178.45,252.73,176,250.08,174.43Z"/><path class="cls-21" d="M240.06,147.41a1.29,1.29,0,1,1-1.28,1.28A1.28,1.28,0,0,1,240.06,147.41Z"/><path class="cls-22" d="M239.52,147.86c.06,0,0,.18-.08.28s-.23.14-.28.09,0-.18.08-.28S239.47,147.81,239.52,147.86Z"/><path class="cls-23" d="M211.23,147.41a1.29,1.29,0,1,1-1.28,1.28A1.28,1.28,0,0,1,211.23,147.41Z"/><path class="cls-22" d="M210.69,147.86c.05,0,0,.18-.08.28s-.23.14-.28.09,0-.18.08-.28S210.64,147.81,210.69,147.86Z"/><path class="cls-24" d="M230.51,180.28s-2.65-20.12-2.68-36.67a2.83,2.83,0,0,0-3.82.51c.45,17.22-3.25,36.22-3.25,36.22h0c-.37.94.07,2,1.34,2.69a7.84,7.84,0,0,0,7.09,0c1.29-.75,1.72-1.8,1.31-2.75Z"/><path class="cls-25" d="M225.57,106.65c-13.65,0-24.7,12.31-24.7,26s11,18.77,24.7,18.77,24.71-5.12,24.71-18.77S239.22,106.65,225.57,106.65Z"/><path class="cls-26" d="M240.06,120.67a1.29,1.29,0,1,1-1.28,1.29A1.29,1.29,0,0,1,240.06,120.67Z"/><path class="cls-22" d="M239.52,121.12c.06.06,0,.18-.08.28s-.23.14-.28.09,0-.17.08-.28S239.47,121.07,239.52,121.12Z"/><path class="cls-27" d="M228.85,119.58a1.29,1.29,0,1,1-1.29,1.29A1.28,1.28,0,0,1,228.85,119.58Z"/><path class="cls-22" d="M228.31,120c.05,0,0,.18-.09.28s-.22.14-.27.09,0-.18.08-.28S228.26,120,228.31,120Z"/><path class="cls-28" d="M214.52,112.82a1.29,1.29,0,1,1-1.29,1.29A1.28,1.28,0,0,1,214.52,112.82Z"/><path class="cls-22" d="M214,113.28c.05,0,0,.17-.08.27s-.23.15-.28.09,0-.17.09-.27S213.93,113.22,214,113.28Z"/><path class="cls-29" d="M223.9,108.82a1.29,1.29,0,1,1-1.28,1.29A1.28,1.28,0,0,1,223.9,108.82Z"/><path class="cls-22" d="M223.36,109.28c.06,0,0,.17-.09.28s-.22.14-.27.08,0-.17.09-.27S223.3,109.23,223.36,109.28Z"/><path class="cls-30" d="M238.78,113.68a1.28,1.28,0,1,1-1.29,1.28A1.28,1.28,0,0,1,238.78,113.68Z"/><path class="cls-22" d="M238.24,114.13c0,.05,0,.18-.09.28s-.22.14-.27.09,0-.18.08-.28S238.19,114.08,238.24,114.13Z"/><path class="cls-31" d="M245.61,128.15a1.29,1.29,0,1,1-1.28,1.28A1.28,1.28,0,0,1,245.61,128.15Z"/><path class="cls-22" d="M245.07,128.6c.06.06,0,.18-.08.28s-.22.14-.28.09,0-.18.09-.28S245,128.55,245.07,128.6Z"/><path class="cls-32" d="M233.22,125.58a1.29,1.29,0,0,1,0,2.57,1.29,1.29,0,1,1,0-2.57Z"/><path class="cls-22" d="M232.68,126s0,.17-.09.27-.22.14-.27.09,0-.17.09-.27S232.63,126,232.68,126Z"/><path class="cls-33" d="M221.89,120a1.29,1.29,0,1,1-1.28,1.29A1.29,1.29,0,0,1,221.89,120Z"/><path class="cls-22" d="M221.36,120.48s0,.18-.09.28-.22.14-.27.09,0-.18.08-.28S221.3,120.43,221.36,120.48Z"/><path class="cls-34" d="M207.86,119.82a1.29,1.29,0,1,1-1.28,1.28A1.28,1.28,0,0,1,207.86,119.82Z"/><path class="cls-22" d="M207.33,120.27c0,.06,0,.18-.09.28s-.22.14-.27.09,0-.18.08-.28S207.27,120.22,207.33,120.27Z"/><path class="cls-35" d="M217.09,127.71a1.29,1.29,0,0,1,0,2.57,1.29,1.29,0,1,1,0-2.57Z"/><path class="cls-22" d="M216.55,128.17c0,.05,0,.17-.08.27s-.23.15-.28.09,0-.17.08-.28S216.49,128.11,216.55,128.17Z"/><path class="cls-36" d="M206.06,130.72a1.29,1.29,0,1,1-1.28,1.28A1.28,1.28,0,0,1,206.06,130.72Z"/><path class="cls-22" d="M205.53,131.17c.05.05,0,.18-.09.28s-.22.14-.28.09,0-.17.09-.28S205.47,131.12,205.53,131.17Z"/><path class="cls-37" d="M212,140.9a1.29,1.29,0,1,1-1.28,1.29A1.28,1.28,0,0,1,212,140.9Z"/><path class="cls-22" d="M211.41,141.36c.05,0,0,.18-.09.28s-.22.14-.27.09,0-.18.08-.28S211.36,141.31,211.41,141.36Z"/><path class="cls-38" d="M226.39,133.44a1.29,1.29,0,1,1-1.28,1.29A1.29,1.29,0,0,1,226.39,133.44Z"/><path class="cls-22" d="M225.86,133.9s0,.17-.09.27-.22.15-.27.09,0-.17.08-.27S225.81,133.85,225.86,133.9Z"/><path class="cls-39" d="M228.33,140a1.29,1.29,0,1,1-1.28,1.28A1.28,1.28,0,0,1,228.33,140Z"/><path class="cls-22" d="M227.79,140.46c.06.06,0,.18-.08.28s-.22.14-.28.09,0-.18.09-.28S227.74,140.41,227.79,140.46Z"/><path class="cls-40" d="M238.26,133.44a1.29,1.29,0,1,1-1.28,1.29A1.28,1.28,0,0,1,238.26,133.44Z"/><path class="cls-22" d="M237.72,133.9c.05,0,0,.17-.08.27s-.22.15-.28.09,0-.17.09-.27S237.67,133.85,237.72,133.9Z"/><path class="cls-41" d="M244.33,140.06a1.28,1.28,0,1,1-1.29,1.28A1.28,1.28,0,0,1,244.33,140.06Z"/><path class="cls-22" d="M243.79,140.51c.05.05,0,.18-.08.28s-.23.14-.28.09,0-.18.08-.28S243.74,140.46,243.79,140.51Z"/><path class="cls-42" d="M234.91,145.09a1.29,1.29,0,1,1-1.28,1.29A1.28,1.28,0,0,1,234.91,145.09Z"/><path class="cls-22" d="M234.37,145.55c.06,0,0,.17-.08.28s-.23.14-.28.09,0-.18.09-.28S234.32,145.5,234.37,145.55Z"/><path class="cls-43" d="M221.18,145.09a1.29,1.29,0,1,1-1.29,1.29A1.29,1.29,0,0,1,221.18,145.09Z"/><path class="cls-22" d="M220.64,145.55c.05,0,0,.17-.09.28s-.22.14-.28.09,0-.18.09-.28S220.58,145.5,220.64,145.55Z"/><path class="cls-44" d="M203.86,141.07a1.29,1.29,0,1,1-1.29,1.28A1.29,1.29,0,0,1,203.86,141.07Z"/><path class="cls-22" d="M203.32,141.52c.05.06,0,.18-.09.28s-.22.14-.27.09,0-.17.08-.27S203.27,141.47,203.32,141.52Z"/><path class="cls-45" d="M230.65,109.46a1.29,1.29,0,1,1-1.29,1.29A1.28,1.28,0,0,1,230.65,109.46Z"/><path class="cls-22" d="M230.11,109.92s0,.17-.09.27-.22.15-.27.1,0-.18.09-.28S230.06,109.86,230.11,109.92Z"/><path class="cls-9" d="M131.51,250.06,62.09,210,147,160.85l69.42,40ZM75.63,210l55.87,32.2,71.34-41.36L147,168.68Z"/><polygon class="cls-46" points="131.5 246.15 209.61 200.87 209.61 195.3 131.5 240.59 131.5 246.15"/><polygon class="cls-47" points="131.5 246.15 131.5 240.59 68.86 204.47 68.86 210.04 131.5 246.15"/><polygon class="cls-48" points="131.5 240.59 209.61 195.3 146.96 159.2 68.86 204.47 131.5 240.59"/><polygon class="cls-49" points="79.32 204.03 132.37 234.67 143.75 109.62 90.69 78.99 79.32 204.03"/><polygon class="cls-50" points="88.14 85.51 143.05 117.22 142.64 121.81 87.72 90.1 88.14 85.51"/><polygon class="cls-51" points="132.37 234.67 201.02 195.03 189.65 83.12 166.7 73.48 143.75 109.62 132.37 234.67"/><polygon class="cls-52" points="166.7 65.4 206.26 82.61 202.28 88.94 166.7 73.48 131.12 130.02 127.14 128.29 166.7 65.4"/><polygon class="cls-53" points="143.05 117.22 163.62 105.34 152.47 96.09 154.25 93.25 165.45 102.55 165.45 75.47 166.7 73.48 167.94 74.04 167.94 101.11 179.14 78.88 180.93 79.66 169.78 101.79 190.34 89.92 190.76 94.02 142.64 121.81 143.05 117.22"/><polygon class="cls-54" points="74.08 97.66 127.14 128.29 166.7 65.4 113.64 34.76 74.08 97.66"/><polygon class="cls-55" points="166.7 65.4 206.26 82.61 153.2 51.98 113.64 34.76 166.7 65.4"/><polygon class="cls-53" points="148.65 188.06 186.65 166.12 186.65 203.41 148.65 225.36 148.65 188.06"/><polygon class="cls-24" points="151.79 191.36 182.85 173.43 182.85 205.63 151.79 223.57 151.79 191.36"/><polygon class="cls-56" points="153.47 222.6 182.85 175.17 182.85 173.43 181.18 174.4 151.79 221.84 151.79 223.57 153.47 222.6"/><polygon class="cls-56" points="182.85 203.7 153.29 190.49 151.79 191.36 151.79 193.3 181.35 206.5 182.85 205.63 182.85 203.7"/><polygon class="cls-57" points="167 182.59 167.65 182.21 167.65 214.42 167 214.8 167 182.59"/><polygon class="cls-58" points="217.06 35.95 209.42 46.83 207.3 44.72 214.94 33.83 217.06 35.95"/><polygon class="cls-58" points="221.08 39.96 213.44 50.84 211.33 48.73 218.96 37.85 221.08 39.96"/><polygon class="cls-58" points="210.06 55.64 202.43 66.53 200.31 64.42 207.95 53.54 210.06 55.64"/><polygon class="cls-58" points="206.04 51.63 198.4 62.51 196.28 60.4 203.92 49.52 206.04 51.63"/><polygon class="cls-58" points="199.05 71.33 194.14 78.32 192.03 76.22 196.94 69.22 199.05 71.33"/><polygon class="cls-58" points="188 72.2 192.91 65.2 195.03 67.32 190.12 74.31 188 72.2"/><polygon class="cls-58" points="228.07 20.26 220.43 31.14 218.31 29.03 225.95 18.15 228.07 20.26"/><polygon class="cls-58" points="189.63 115.55 193.24 119.13 190.35 123.25 187.56 120.47 189.86 117.18 189.05 116.38 189.63 115.55"/><polygon class="cls-58" points="233.35 17.36 238.28 10.34 240.4 12.44 235.46 19.47 233.35 17.36"/><polygon class="cls-58" points="236.38 8.43 231.44 15.46 229.32 13.35 234.25 6.32 236.38 8.43"/><polygon class="cls-58" points="232.09 24.27 224.45 35.15 222.34 33.05 229.98 22.17 232.09 24.27"/><polygon class="cls-58" points="189.03 80.48 189.62 79.65 193.24 83.26 189.87 81.31 189.03 80.48"/><polygon class="cls-58" points="149.16 137.46 151.28 139.58 146.37 146.57 144.25 144.46 149.16 137.46"/><polygon class="cls-58" points="98.88 199.33 103.81 192.31 105.92 194.41 101 201.44 98.88 199.33"/><polygon class="cls-58" points="116.94 178.73 109.3 189.61 107.19 187.5 114.83 176.62 116.94 178.73"/><polygon class="cls-58" points="120.97 182.75 113.33 193.63 111.21 191.51 118.85 180.63 120.97 182.75"/><polygon class="cls-58" points="149.28 101.03 145.9 99.08 108.46 61.76 121.03 43.86 124.41 45.81 111.84 63.71 149.28 101.03"/><polygon class="cls-58" points="109.96 198.43 105.03 205.46 102.9 203.34 107.83 196.31 109.96 198.43"/><polygon class="cls-58" points="131.98 167.06 124.34 177.94 122.22 175.83 129.86 164.95 131.98 167.06"/><polygon class="cls-58" points="147.25 135.56 142.34 142.55 140.23 140.45 145.14 133.46 147.25 135.56"/><polygon class="cls-58" points="143 151.37 135.36 162.26 133.23 160.14 140.87 149.26 143 151.37"/><path class="cls-58" d="M160.71,101.89l-7.07-7.06.58-.83,9.87,9.83c-1.75,3.41-2.17,7-1,9.21l-13.4,19.09-2.79-2.79,12.81-18.25C158.54,108.89,159,105.28,160.71,101.89Z"/><polygon class="cls-58" points="138.97 147.36 131.33 158.24 129.22 156.13 136.85 145.25 138.97 147.36"/><polygon class="cls-58" points="127.95 163.04 120.31 173.92 118.2 171.82 125.84 160.94 127.95 163.04"/><polygon class="cls-58" points="198.23 144.38 200.52 141.11 197.71 138.32 198.29 137.48 203.9 143.06 201.02 147.17 198.23 144.38"/><polygon class="cls-58" points="132.7 79.34 135 76.05 132.18 73.28 132.78 72.42 138.38 78 135.49 82.12 132.7 79.34"/><polygon class="cls-58" points="124.62 71.28 126.92 68 124.12 65.19 124.7 64.36 130.3 69.95 127.42 74.07 124.62 71.28"/><polygon class="cls-58" points="140.77 87.39 143.08 84.11 140.27 81.3 140.85 80.47 146.46 86.06 143.57 90.17 140.77 87.39"/><polygon class="cls-58" points="130.18 56.55 135.79 62.14 132.91 66.25 130.11 63.46 132.41 60.19 129.6 57.38 130.18 56.55"/><polygon class="cls-58" points="138.26 64.61 143.87 70.19 140.99 74.3 138.19 71.51 140.49 68.24 137.66 65.47 138.26 64.61"/><polygon class="cls-58" points="146.34 72.66 151.94 78.25 149.06 82.35 146.27 79.56 148.56 76.3 145.76 73.49 146.34 72.66"/><polygon class="cls-58" points="124.09 50.48 127.71 54.09 124.83 58.19 122.04 55.41 124.33 52.14 123.51 51.32 124.09 50.48"/><polygon class="cls-58" points="142.66 126.56 146.04 128.51 95 201.21 104.22 210.4 100.84 208.45 91.61 199.26 142.66 126.56"/><path class="cls-58" d="M187.65,77.69,174,97.1c-2-.79-4.81.33-7.24,2.9l-2.66-2.65c2.25-2.06,4.71-2.92,6.53-2.2l13.63-19.42-3.62-3.61,51-72.7,3.38,2L184,74.07Z"/><path class="cls-58" d="M171.71,112.39a9.59,9.59,0,0,0,.7-.72l10,9.94-4.94,7L214.87,166,211.49,164l-37.44-37.33,4.95-7Z"/><polygon class="cls-58" points="152.34 85.62 154.64 82.35 153.83 81.55 154.42 80.71 158.02 84.31 155.14 88.41 152.34 85.62"/><polygon class="cls-58" points="195.63 128.52 197.94 125.24 195.13 122.43 195.71 121.6 201.32 127.19 198.42 131.3 195.63 128.52"/><polygon class="cls-58" points="206.3 152.44 208.6 149.17 205.78 146.37 206.37 145.53 211.98 151.12 209.1 155.22 206.3 152.44"/><polygon class="cls-58" points="214.69 155.24 213.85 154.44 214.45 153.58 218.07 157.19 215.19 161.29 212.39 158.51 214.69 155.24"/><polygon class="cls-58" points="203.71 136.57 206.01 133.29 203.2 130.49 203.79 129.65 209.39 135.24 206.5 139.36 203.71 136.57"/><polygon class="cls-58" points="211.79 144.63 214.09 141.34 211.28 138.54 211.86 137.71 217.47 143.29 214.58 147.41 211.79 144.63"/><polygon class="cls-58" points="190.15 136.33 192.44 133.06 189.63 130.25 190.22 129.43 195.82 135.01 192.94 139.12 190.15 136.33"/><polygon class="cls-58" points="118.61 58.29 122.23 61.9 119.34 66.02 116.54 63.23 118.85 59.95 118.02 59.12 118.61 58.29"/><polygon class="cls-58" points="149.16 90.16 148.35 89.36 148.94 88.52 152.53 92.11 149.64 96.23 146.85 93.45 149.16 90.16"/><polygon class="cls-58" points="219.94 145.76 223.56 149.37 220.67 153.48 217.88 150.7 220.18 147.41 219.34 146.62 219.94 145.76"/><polygon class="cls-58" points="186.62 108.79 190 110.74 185.06 117.78 182.27 114.99 186.62 108.79"/><polygon class="cls-58" points="182.07 128.28 184.36 125.01 183.55 124.21 184.14 123.37 187.74 126.96 184.86 131.06 182.07 128.28"/><path class="cls-24" d="M111.84,63.71,149.28,101l4.94-7,11.16,11.13,2.69-3.83L156.91,90.17l4.94-7L124.41,45.81Zm39.7,21.11,2.88-4.11L158,84.3l-2.88,4.11Zm-8.08-8.06,2.88-4.1,5.6,5.59-2.88,4.1Zm-8.08-8.05,2.88-4.1,5.61,5.58L141,74.3Zm-8.08-8,2.88-4.11,5.61,5.59-2.88,4.11Zm-6.09-6.08,2.88-4.1,3.62,3.61-2.88,4.1ZM146,92.64l2.89-4.12,3.61,3.59-2.9,4.12Zm-8.07-8,2.88-4.12,5.61,5.59-2.89,4.11Zm-8.09-8,2.9-4.12,5.6,5.58-2.89,4.12Zm-8.07-8.06,2.89-4.12L130.3,70l-2.89,4.12Zm-6.09-6.07,2.89-4.12,3.62,3.61L119.34,66Z"/><path class="cls-24" d="M104.22,210.4l51-72.7-3.62-3.61,15.22-21.68-2-2-15.22,21.68L146,128.51l-51,72.7Zm38.12-67.85-2.11-2.1,4.91-7,2.11,2.1Zm-11,15.69-2.11-2.11,7.63-10.88,2.12,2.11Zm-11,15.68-2.11-2.1,7.64-10.88L128,163Zm-11,15.69-2.11-2.11,7.64-10.88,2.11,2.11ZM101,201.44l-2.12-2.11,4.93-7,2.11,2.1Zm45.37-54.87-2.12-2.11,4.91-7,2.12,2.12Zm-11,15.69-2.13-2.12,7.64-10.88,2.13,2.11Zm-11,15.68-2.12-2.11L129.86,165l2.12,2.11Zm-11,15.69-2.12-2.12,7.64-10.88,2.12,2.12ZM105,205.46l-2.12-2.12,4.93-7,2.13,2.12Z"/><path class="cls-24" d="M227.44,148.06,190,110.74l-4.94,7L173.9,106.65l-2.69,3.83,11.16,11.13-4.94,7L214.87,166ZM187.74,127l-2.88,4.1-3.6-3.59,2.88-4.1Zm8.08,8-2.88,4.11-5.6-5.59,2.88-4.1Zm8.08,8.05L201,147.17l-5.61-5.59,2.88-4.1Zm8.08,8.06-2.88,4.1-5.61-5.59,2.88-4.1Zm6.09,6.07-2.88,4.11-3.62-3.61,2.88-4.11Zm-24.83-38.06-2.89,4.12-3.61-3.59,2.9-4.11Zm8.08,8.06-2.9,4.11-5.6-5.58,2.89-4.12Zm8.07,8.05-2.89,4.12-5.6-5.59,2.89-4.12Zm8.08,8-2.89,4.12L209,141.82l2.89-4.11Zm6.09,6.08-2.89,4.11-3.62-3.6,2.89-4.12Z"/><path class="cls-24" d="M235.06,1.38,184,74.07l3.63,3.62L172.43,99.36l2,2,15.22-21.68,3.62,3.61,51-72.69ZM196.94,69.22l2.11,2.11-4.91,7L192,76.21Zm11-15.68,2.12,2.1-7.64,10.88-2.12-2.1Zm11-15.69L221.08,40l-7.64,10.88-2.11-2.11Zm11-15.68,2.11,2.1-7.64,10.88-2.11-2.1Zm8.31-11.83,2.11,2.1-4.94,7-2.11-2.11ZM192.91,65.2,195,67.32l-4.91,7L188,72.2Zm11-15.68L206,51.63,198.4,62.51l-2.12-2.11Zm11-15.69L217.06,36l-7.64,10.88-2.12-2.11Zm11-15.68,2.12,2.11-7.64,10.88L218.31,29Zm8.3-11.83,2.13,2.11-4.94,7-2.12-2.12Z"/><path class="cls-56" d="M163.79,114.06c2.3,2.3,6.72.53,9.86-4s3.82-10,1.52-12.26-6.73-.53-9.86,3.94S161.48,111.76,163.79,114.06Z"/><path class="cls-9" d="M62,226.2a8.71,8.71,0,0,1-7.89,0c-2.18-1.26-2.18-3.3,0-4.55a8.71,8.71,0,0,1,7.89,0C64.21,222.9,64.21,224.94,62,226.2Z"/><path class="cls-59" d="M53.49,215.63v7.94a.08.08,0,0,0,0,0h0v.28a2.38,2.38,0,0,0,1.33,1.71,6.51,6.51,0,0,0,2.91.77l.32-1.05.23,1.06a6.62,6.62,0,0,0,3.07-.78,2.66,2.66,0,0,0,1.28-1.41l0-.3v-8.26Z"/><path class="cls-60" d="M58.05,217.49l.23,1.06a6.61,6.61,0,0,0,3.07-.77,2.69,2.69,0,0,0,1.28-1.41L58.75,216l3.93-.39a2,2,0,0,0-.42-.88l-1.91.57,1.62-.86a4,4,0,0,0-.62-.46,7.22,7.22,0,0,0-6.53,0,2.37,2.37,0,0,0-1.34,1.78l2,.21-2,.07a2.37,2.37,0,0,0,1.33,1.72,6.64,6.64,0,0,0,2.91.77Z"/><path class="cls-61" d="M60.18,217.1a4.25,4.25,0,0,1-2.11.5l.08.36a5.26,5.26,0,0,0,2.48-.6,2.07,2.07,0,0,0,1-1.08l-.62-.06A1.64,1.64,0,0,1,60.18,217.1Z"/><path class="cls-61" d="M61.34,215l-.56.17a1.23,1.23,0,0,1,.26.6l.62-.06A1.37,1.37,0,0,0,61.34,215Z"/><path class="cls-61" d="M55.13,216a1.42,1.42,0,0,1,.86-1.27,4.62,4.62,0,0,1,4.19,0,2,2,0,0,1,.54.44l.49-.25a3.06,3.06,0,0,0-.58-.45,5.7,5.7,0,0,0-5.09,0,1.84,1.84,0,0,0-1,1.46Z"/><path class="cls-61" d="M58,217.6a4.18,4.18,0,0,1-2-.5,1.53,1.53,0,0,1-.85-1.1l-.64,0a1.89,1.89,0,0,0,1,1.33,5.2,5.2,0,0,0,2.37.6Z"/><path class="cls-61" d="M59.94,216.12a1.1,1.1,0,0,1-.51.55,3,3,0,0,1-2.69,0,.83.83,0,0,1,0-1.56,3,3,0,0,1,2.69,0,1,1,0,0,1,.56.78l.39,0a1.15,1.15,0,0,0-.66-.9,3.6,3.6,0,0,0-3.26,0,1,1,0,0,0,0,1.88,3.6,3.6,0,0,0,3.26,0,1.35,1.35,0,0,0,.62-.67Z"/><path class="cls-61" d="M59,216a.54.54,0,0,1-.25.25,1.49,1.49,0,0,1-1.39,0,.42.42,0,0,1,0-.8,1.49,1.49,0,0,1,1.39,0,.44.44,0,0,1,.28.5l.21,0c0-.21-.07-.41-.34-.57a1.86,1.86,0,0,0-1.69,0,.52.52,0,0,0,0,1,1.86,1.86,0,0,0,1.69,0,.68.68,0,0,0,.31-.32Z"/><polygon class="cls-62" points="57.73 218.55 58.05 217.49 58.28 218.55 58.28 226.38 58.05 225.32 57.73 226.38 57.73 218.55"/><polygon class="cls-62" points="62.68 215.63 58.75 216.01 62.63 216.37 62.63 224.19 62.68 223.89 62.68 215.63"/><polygon class="cls-62" points="55.45 215.99 53.48 215.78 53.48 216.06 55.45 215.99"/><polygon class="cls-62" points="60.35 215.32 61.97 214.46 61.97 214.84 60.35 215.32"/><path class="cls-59" d="M55.76,208.86v7h0V216a1.18,1.18,0,0,0,.65.84,3.25,3.25,0,0,0,1.42.37h.26a3.25,3.25,0,0,0,1.49-.37,1.29,1.29,0,0,0,.62-.69l0-.15v-7.17Z"/><path class="cls-63" d="M58.8,211.91c-.4,0-.72.9-.72,2s.32,2,.72,2,.71-.9.71-2S59.19,211.91,58.8,211.91Zm0,3.65c-.25,0-.46-.57-.46-1.28s.21-1.27.46-1.27.45.57.45,1.27S59.05,215.56,58.8,215.56Z"/><path class="cls-63" d="M59,214.46c0,.35-.1.63-.22.63s-.23-.28-.23-.63.1-.64.23-.64S59,214.1,59,214.46Z"/><path class="cls-60" d="M58.09,210.27a3.13,3.13,0,0,0,1.49-.37,1.29,1.29,0,0,0,.62-.69l0-.35a.89.89,0,0,0-.2-.43l-.14-.15a1.94,1.94,0,0,0-.3-.21,3.48,3.48,0,0,0-3.17,0,1.15,1.15,0,0,0-.65.86l1,.1-1,0a1.18,1.18,0,0,0,.65.84,3.25,3.25,0,0,0,1.42.37Z"/><path class="cls-61" d="M59,209.57a2.17,2.17,0,0,1-1,.24l0,.18a2.48,2.48,0,0,0,1.2-.3,1,1,0,0,0,.48-.52l-.3,0A.83.83,0,0,1,59,209.57Z"/><path class="cls-61" d="M59.58,208.56l-.28.08a.54.54,0,0,1,.13.29l.3,0A.73.73,0,0,0,59.58,208.56Z"/><path class="cls-61" d="M56.56,209a.7.7,0,0,1,.42-.62,2.29,2.29,0,0,1,2,0,1.16,1.16,0,0,1,.26.22l.23-.13a1.57,1.57,0,0,0-.28-.21,2.75,2.75,0,0,0-2.47,0,.85.85,0,0,0-.51.71Z"/><path class="cls-61" d="M58,209.81a2.06,2.06,0,0,1-1-.24.73.73,0,0,1-.41-.53h-.31a.91.91,0,0,0,.5.64,2.39,2.39,0,0,0,1.15.29Z"/><path class="cls-61" d="M58.9,209.1a.61.61,0,0,1-.25.26,1.44,1.44,0,0,1-1.31,0,.4.4,0,0,1,0-.76,1.51,1.51,0,0,1,1.31,0,.48.48,0,0,1,.27.38l.19,0a.58.58,0,0,0-.32-.44,1.78,1.78,0,0,0-1.59,0,.49.49,0,0,0,0,.92,1.78,1.78,0,0,0,1.59,0,.62.62,0,0,0,.3-.33Z"/><path class="cls-61" d="M58.46,209.05a.32.32,0,0,1-.13.13.72.72,0,0,1-.67,0c-.19-.11-.19-.29,0-.39a.72.72,0,0,1,.67,0,.21.21,0,0,1,.14.24h.1c0-.1,0-.2-.17-.28a.91.91,0,0,0-.82,0c-.22.14-.22.35,0,.48a.91.91,0,0,0,.82,0,.41.41,0,0,0,.16-.16Z"/><polygon class="cls-62" points="56.72 209.03 55.76 208.93 55.76 209.06 56.72 209.03"/><polygon class="cls-9" points="22.1 241.53 50.78 224.94 38.91 218.08 10.22 234.67 22.1 241.53"/><path class="cls-59" d="M37.1,219.41a3.85,3.85,0,0,1,1.73-3,1.18,1.18,0,0,1,1.32-.06h0l9.22,5.33-2.54,4.17-9.08-5.26a.63.63,0,0,1-.27-.16h0A1.28,1.28,0,0,1,37.1,219.41Z"/><path class="cls-60" d="M46.34,224.74c0,1.11.78,1.55,1.73,1a3.81,3.81,0,0,0,1.73-3c0-1.1-.77-1.54-1.73-1A3.83,3.83,0,0,0,46.34,224.74Z"/><path class="cls-61" d="M46.65,224.56a3.16,3.16,0,0,1,1.42-2.46c.79-.45,1.42-.08,1.42.82a3.15,3.15,0,0,1-1.42,2.47C47.29,225.84,46.65,225.47,46.65,224.56Zm.19-.11c0,.79.55,1.11,1.23.72A2.73,2.73,0,0,0,49.31,223c0-.78-.56-1.1-1.24-.71A2.72,2.72,0,0,0,46.84,224.45Z"/><path class="cls-61" d="M47.14,224.28a2.07,2.07,0,0,1,.93-1.61c.51-.29.93,0,.93.54a2.07,2.07,0,0,1-.93,1.61C47.56,225.11,47.14,224.87,47.14,224.28Zm.19-.11c0,.47.33.66.74.43a1.64,1.64,0,0,0,.74-1.28c0-.47-.33-.67-.74-.43A1.62,1.62,0,0,0,47.33,224.17Z"/><path class="cls-61" d="M47.52,224.06a1.21,1.21,0,0,1,.55-.95c.31-.18.55,0,.55.31a1.21,1.21,0,0,1-.55,1C47.77,224.55,47.52,224.41,47.52,224.06Zm.19-.11c0,.23.16.33.36.21a.78.78,0,0,0,.36-.63c0-.23-.16-.32-.36-.21A.81.81,0,0,0,47.71,224Z"/><path class="cls-63" d="M33.55,221.46a3.8,3.8,0,0,1,1.73-3,1.13,1.13,0,0,1,1.31-.06h0l9.23,5.32-2.55,4.17-9.07-5.25a.85.85,0,0,1-.28-.16h0A1.35,1.35,0,0,1,33.55,221.46Z"/><path class="cls-60" d="M42.79,226.8c0,1.1.77,1.55,1.72,1a3.81,3.81,0,0,0,1.74-3c0-1.1-.78-1.55-1.74-1A3.82,3.82,0,0,0,42.79,226.8Z"/><path class="cls-61" d="M43.09,226.62a3.14,3.14,0,0,1,1.42-2.46c.79-.46,1.43-.09,1.43.82a3.14,3.14,0,0,1-1.43,2.46C43.73,227.89,43.09,227.53,43.09,226.62Zm.19-.11c0,.79.55,1.11,1.23.71a2.73,2.73,0,0,0,1.24-2.14c0-.78-.56-1.1-1.24-.71A2.74,2.74,0,0,0,43.28,226.51Z"/><path class="cls-61" d="M43.59,226.33a2,2,0,0,1,.92-1.6c.52-.3.93-.06.93.53a2,2,0,0,1-.93,1.61C44,227.17,43.59,226.93,43.59,226.33Zm.18-.11c0,.48.34.67.74.43a1.62,1.62,0,0,0,.74-1.28c0-.47-.33-.66-.74-.43A1.67,1.67,0,0,0,43.77,226.22Z"/><path class="cls-61" d="M44,226.11a1.25,1.25,0,0,1,.55-1c.31-.17.55,0,.55.32a1.19,1.19,0,0,1-.55,1C44.21,226.61,44,226.46,44,226.11Zm.19-.1a.22.22,0,0,0,.36.21.82.82,0,0,0,.37-.63.23.23,0,0,0-.37-.21A.82.82,0,0,0,44.15,226Z"/><path class="cls-59" d="M30,223.52a3.81,3.81,0,0,1,1.74-3,1.13,1.13,0,0,1,1.31-.06h0l9.23,5.32L39.71,230l-9.07-5.25a.85.85,0,0,1-.28-.16h0A1.36,1.36,0,0,1,30,223.52Z"/><path class="cls-60" d="M39.22,228.86c0,1.1.78,1.55,1.73,1a3.8,3.8,0,0,0,1.73-3c0-1.11-.77-1.55-1.73-1A3.83,3.83,0,0,0,39.22,228.86Z"/><path class="cls-61" d="M39.53,228.68A3.17,3.17,0,0,1,41,226.21c.79-.45,1.42-.08,1.42.83A3.13,3.13,0,0,1,41,229.5C40.17,230,39.53,229.58,39.53,228.68Zm.19-.11c0,.78.55,1.1,1.23.71a2.73,2.73,0,0,0,1.24-2.14c0-.78-.56-1.1-1.24-.71A2.72,2.72,0,0,0,39.72,228.57Z"/><path class="cls-61" d="M40,228.39a2,2,0,0,1,.93-1.6c.52-.3.93-.06.93.53a2,2,0,0,1-.93,1.61C40.44,229.22,40,229,40,228.39Zm.19-.11c0,.48.33.67.74.43a1.64,1.64,0,0,0,.74-1.28c0-.47-.33-.67-.74-.43A1.64,1.64,0,0,0,40.21,228.28Z"/><path class="cls-61" d="M40.4,228.17a1.23,1.23,0,0,1,.55-.95c.31-.17.55,0,.55.32a1.19,1.19,0,0,1-.55,1C40.65,228.67,40.4,228.53,40.4,228.17Zm.19-.1c0,.23.16.32.36.2a.79.79,0,0,0,.37-.62.23.23,0,0,0-.37-.21A.78.78,0,0,0,40.59,228.07Z"/><path class="cls-63" d="M26.38,225.62a3.86,3.86,0,0,1,1.73-3,1.16,1.16,0,0,1,1.32-.05h0l9.23,5.32-2.55,4.17L27,226.81a1,1,0,0,1-.28-.16h0A1.28,1.28,0,0,1,26.38,225.62Z"/><path class="cls-60" d="M35.62,231c0,1.1.78,1.54,1.73,1a3.84,3.84,0,0,0,1.73-3c0-1.11-.77-1.55-1.73-1A3.83,3.83,0,0,0,35.62,231Z"/><path class="cls-61" d="M35.93,230.78a3.17,3.17,0,0,1,1.42-2.47c.79-.45,1.43-.08,1.43.83a3.15,3.15,0,0,1-1.43,2.46C36.57,232.05,35.93,231.68,35.93,230.78Zm.19-.11c0,.78.55,1.1,1.23.71a2.71,2.71,0,0,0,1.24-2.14c0-.78-.55-1.1-1.24-.71A2.72,2.72,0,0,0,36.12,230.67Z"/><path class="cls-61" d="M36.42,230.49a2.07,2.07,0,0,1,.93-1.61c.52-.29.93,0,.93.54a2,2,0,0,1-.93,1.61C36.84,231.32,36.42,231.08,36.42,230.49Zm.19-.11c0,.47.34.67.74.43a1.63,1.63,0,0,0,.75-1.28c0-.47-.34-.67-.75-.43A1.67,1.67,0,0,0,36.61,230.38Z"/><path class="cls-61" d="M36.8,230.27a1.23,1.23,0,0,1,.55-1c.31-.17.56,0,.56.32a1.21,1.21,0,0,1-.56,1C37.05,230.77,36.8,230.62,36.8,230.27Zm.19-.11c0,.24.16.33.36.22a.81.81,0,0,0,.36-.63c0-.24-.16-.33-.36-.21A.78.78,0,0,0,37,230.16Z"/><path class="cls-59" d="M22.71,227.72a3.82,3.82,0,0,1,1.73-3,1.18,1.18,0,0,1,1.32-.06h0L35,230l-2.54,4.17-9.08-5.26a.74.74,0,0,1-.27-.16h0A1.31,1.31,0,0,1,22.71,227.72Z"/><path class="cls-60" d="M32,233.05c0,1.11.77,1.55,1.73,1a3.8,3.8,0,0,0,1.73-3c0-1.11-.77-1.56-1.73-1A3.84,3.84,0,0,0,32,233.05Z"/><path class="cls-61" d="M32.26,232.87a3.13,3.13,0,0,1,1.42-2.46c.78-.45,1.42-.08,1.42.82a3.14,3.14,0,0,1-1.42,2.46C32.89,234.15,32.26,233.78,32.26,232.87Zm.19-.1c0,.78.55,1.1,1.23.71a2.74,2.74,0,0,0,1.23-2.14c0-.79-.55-1.1-1.23-.71A2.72,2.72,0,0,0,32.45,232.77Z"/><path class="cls-61" d="M32.75,232.59a2.07,2.07,0,0,1,.93-1.61c.51-.29.93,0,.93.54a2.07,2.07,0,0,1-.93,1.61C33.17,233.42,32.75,233.18,32.75,232.59Zm.19-.11c0,.47.33.66.74.43a1.64,1.64,0,0,0,.74-1.28c0-.48-.33-.67-.74-.43A1.62,1.62,0,0,0,32.94,232.48Z"/><path class="cls-61" d="M33.13,232.37a1.21,1.21,0,0,1,.55-1c.3-.18.55,0,.55.32a1.23,1.23,0,0,1-.55.95C33.38,232.86,33.13,232.72,33.13,232.37Zm.19-.11c0,.23.16.33.36.21a.8.8,0,0,0,.36-.63c0-.23-.16-.32-.36-.2A.78.78,0,0,0,33.32,232.26Z"/><path class="cls-63" d="M19.15,229.77a3.85,3.85,0,0,1,1.74-3,1.14,1.14,0,0,1,1.31-.05h0L31.42,232l-2.54,4.17L19.81,231a.85.85,0,0,1-.28-.16h0A1.28,1.28,0,0,1,19.15,229.77Z"/><path class="cls-60" d="M28.39,235.11c0,1.1.78,1.55,1.73,1a3.84,3.84,0,0,0,1.73-3c0-1.11-.77-1.55-1.73-1A3.83,3.83,0,0,0,28.39,235.11Z"/><path class="cls-61" d="M28.7,234.93a3.14,3.14,0,0,1,1.42-2.46c.79-.46,1.42-.09,1.42.82a3.13,3.13,0,0,1-1.42,2.46C29.34,236.2,28.7,235.83,28.7,234.93Zm.19-.11c0,.79.55,1.1,1.23.71a2.73,2.73,0,0,0,1.24-2.14c0-.78-.56-1.1-1.24-.71A2.74,2.74,0,0,0,28.89,234.82Z"/><path class="cls-61" d="M29.19,234.65a2.08,2.08,0,0,1,.93-1.62c.51-.29.93-.05.93.54a2.07,2.07,0,0,1-.93,1.61C29.61,235.47,29.19,235.23,29.19,234.65Zm.19-.12c0,.48.33.67.74.43a1.62,1.62,0,0,0,.74-1.28c0-.47-.33-.66-.74-.43A1.64,1.64,0,0,0,29.38,234.53Z"/><path class="cls-61" d="M29.57,234.42a1.23,1.23,0,0,1,.55-.95c.31-.17.55,0,.55.32a1.19,1.19,0,0,1-.55,1C29.82,234.92,29.57,234.78,29.57,234.42Zm.19-.1c0,.23.16.32.36.21a.82.82,0,0,0,.37-.63.23.23,0,0,0-.37-.21A.8.8,0,0,0,29.76,234.32Z"/><path class="cls-59" d="M15.59,231.83a3.82,3.82,0,0,1,1.73-3,1.16,1.16,0,0,1,1.32-.05h0l9.22,5.32-2.54,4.17L16.24,233a.72.72,0,0,1-.27-.15h0A1.28,1.28,0,0,1,15.59,231.83Z"/><path class="cls-60" d="M24.83,237.17c0,1.1.78,1.55,1.73,1a3.8,3.8,0,0,0,1.73-3c0-1.11-.77-1.55-1.73-1A3.83,3.83,0,0,0,24.83,237.17Z"/><path class="cls-61" d="M25.14,237a3.16,3.16,0,0,1,1.42-2.47c.79-.45,1.42-.08,1.42.82a3.15,3.15,0,0,1-1.42,2.47C25.78,238.26,25.14,237.89,25.14,237Zm.19-.11c0,.78.55,1.1,1.23.71a2.72,2.72,0,0,0,1.23-2.14c0-.78-.55-1.1-1.23-.71A2.72,2.72,0,0,0,25.33,236.88Z"/><path class="cls-61" d="M25.63,236.7a2.07,2.07,0,0,1,.93-1.61c.51-.29.93-.05.93.54a2.07,2.07,0,0,1-.93,1.61C26.05,237.53,25.63,237.29,25.63,236.7Zm.19-.11c0,.48.33.67.74.43a1.62,1.62,0,0,0,.74-1.28c0-.47-.33-.67-.74-.43A1.64,1.64,0,0,0,25.82,236.59Z"/><path class="cls-61" d="M26,236.48a1.23,1.23,0,0,1,.55-.95c.3-.18.55,0,.55.32a1.23,1.23,0,0,1-.55,1C26.26,237,26,236.83,26,236.48Zm.19-.11c0,.24.16.33.36.22a.81.81,0,0,0,.36-.63c0-.24-.16-.33-.36-.21A.78.78,0,0,0,26.2,236.37Z"/><path class="cls-63" d="M12,233.93a3.86,3.86,0,0,1,1.73-3,1.16,1.16,0,0,1,1.32-.05h0l9.22,5.32-2.54,4.17-9.08-5.26a.72.72,0,0,1-.27-.15h0A1.28,1.28,0,0,1,12,233.93Z"/><path class="cls-60" d="M21.23,239.26c0,1.11.78,1.55,1.73,1a3.8,3.8,0,0,0,1.73-3c0-1.11-.77-1.55-1.73-1A3.83,3.83,0,0,0,21.23,239.26Z"/><path class="cls-61" d="M21.54,239.09A3.17,3.17,0,0,1,23,236.62c.79-.45,1.42-.08,1.42.82A3.13,3.13,0,0,1,23,239.91C22.18,240.36,21.54,240,21.54,239.09Zm.19-.11c0,.78.55,1.1,1.23.71a2.72,2.72,0,0,0,1.23-2.14c0-.78-.55-1.1-1.23-.71A2.72,2.72,0,0,0,21.73,239Z"/><path class="cls-61" d="M22,238.8a2.07,2.07,0,0,1,.93-1.61c.51-.29.93-.05.93.54a2.07,2.07,0,0,1-.93,1.61C22.45,239.63,22,239.39,22,238.8Zm.19-.11c0,.47.33.67.74.43a1.62,1.62,0,0,0,.74-1.28c0-.47-.33-.67-.74-.43A1.64,1.64,0,0,0,22.22,238.69Z"/><path class="cls-61" d="M22.41,238.58a1.23,1.23,0,0,1,.55-1c.31-.18.55,0,.55.32a1.19,1.19,0,0,1-.55,1C22.66,239.08,22.41,238.93,22.41,238.58Zm.19-.1c0,.23.16.32.36.2a.78.78,0,0,0,.36-.62c0-.24-.16-.33-.36-.21A.78.78,0,0,0,22.6,238.48Z"/><path class="cls-59" d="M35.1,216.85a3.8,3.8,0,0,1,1.73-3,1.15,1.15,0,0,1,1.32-.06h0l9.22,5.32-2.55,4.17L35.75,218a.92.92,0,0,1-.27-.16h0A1.32,1.32,0,0,1,35.1,216.85Z"/><path class="cls-60" d="M44.34,222.19c0,1.1.78,1.55,1.73,1a3.84,3.84,0,0,0,1.73-3c0-1.1-.77-1.55-1.73-1A3.85,3.85,0,0,0,44.34,222.19Z"/><path class="cls-61" d="M44.65,222a3.14,3.14,0,0,1,1.42-2.46c.78-.46,1.42-.09,1.42.82a3.16,3.16,0,0,1-1.42,2.46C45.29,223.28,44.65,222.92,44.65,222Zm.18-.11c0,.79.56,1.1,1.24.71a2.72,2.72,0,0,0,1.23-2.13c0-.79-.55-1.11-1.23-.72A2.75,2.75,0,0,0,44.83,221.9Z"/><path class="cls-61" d="M45.14,221.73a2,2,0,0,1,.93-1.61c.51-.3.93-.06.93.53a2.07,2.07,0,0,1-.93,1.61C45.56,222.56,45.14,222.32,45.14,221.73Zm.19-.11c0,.47.33.66.74.42a1.62,1.62,0,0,0,.74-1.28c0-.47-.33-.66-.74-.43A1.66,1.66,0,0,0,45.33,221.62Z"/><path class="cls-61" d="M45.52,221.51a1.25,1.25,0,0,1,.55-1c.3-.17.55,0,.55.32a1.25,1.25,0,0,1-.55,1C45.77,222,45.52,221.86,45.52,221.51Zm.19-.11c0,.23.16.32.36.21a.81.81,0,0,0,.36-.63c0-.23-.16-.32-.36-.21A.81.81,0,0,0,45.71,221.4Z"/><path class="cls-63" d="M31.54,218.91a3.86,3.86,0,0,1,1.73-3,1.14,1.14,0,0,1,1.31,0h0l9.23,5.32-2.55,4.17-9.07-5.26a.72.72,0,0,1-.27-.15h0A1.28,1.28,0,0,1,31.54,218.91Z"/><path class="cls-60" d="M40.78,224.25c0,1.1.77,1.55,1.73,1a3.84,3.84,0,0,0,1.73-3c0-1.1-.77-1.55-1.73-1A3.81,3.81,0,0,0,40.78,224.25Z"/><path class="cls-61" d="M41.09,224.07a3.14,3.14,0,0,1,1.42-2.46c.78-.46,1.42-.09,1.42.82a3.16,3.16,0,0,1-1.42,2.46C41.73,225.34,41.09,225,41.09,224.07Zm.18-.11c0,.79.56,1.11,1.24.71a2.72,2.72,0,0,0,1.23-2.13c0-.79-.55-1.11-1.23-.72A2.73,2.73,0,0,0,41.27,224Z"/><path class="cls-61" d="M41.58,223.78a2,2,0,0,1,.93-1.6c.51-.3.93-.06.93.53a2.07,2.07,0,0,1-.93,1.61C42,224.62,41.58,224.37,41.58,223.78Zm.19-.1c0,.47.33.66.74.42a1.62,1.62,0,0,0,.74-1.28c0-.47-.33-.66-.74-.43A1.64,1.64,0,0,0,41.77,223.68Z"/><path class="cls-61" d="M42,223.57a1.25,1.25,0,0,1,.55-1c.3-.17.55,0,.55.32a1.21,1.21,0,0,1-.55.95C42.21,224.06,42,223.91,42,223.57Zm.19-.11c0,.23.16.32.36.21a.81.81,0,0,0,.36-.63c0-.23-.16-.33-.36-.21A.8.8,0,0,0,42.15,223.46Z"/><path class="cls-59" d="M27.94,221a3.84,3.84,0,0,1,1.73-3A1.16,1.16,0,0,1,31,218h0l9.22,5.32-2.55,4.17-9.07-5.25a.92.92,0,0,1-.27-.16h0A1.28,1.28,0,0,1,27.94,221Z"/><path class="cls-60" d="M37.18,226.34c0,1.11.77,1.56,1.73,1a3.8,3.8,0,0,0,1.73-3c0-1.11-.77-1.55-1.73-1A3.8,3.8,0,0,0,37.18,226.34Z"/><path class="cls-61" d="M37.49,226.17a3.14,3.14,0,0,1,1.42-2.46c.78-.46,1.42-.09,1.42.82A3.16,3.16,0,0,1,38.91,227C38.13,227.44,37.49,227.07,37.49,226.17Zm.19-.11c0,.78.55,1.11,1.23.71a2.72,2.72,0,0,0,1.23-2.13c0-.79-.55-1.11-1.23-.72A2.74,2.74,0,0,0,37.68,226.06Z"/><path class="cls-61" d="M38,225.88a2.07,2.07,0,0,1,.93-1.61c.51-.29.93-.05.93.54a2.06,2.06,0,0,1-.93,1.61C38.4,226.71,38,226.47,38,225.88Zm.19-.1c0,.47.33.66.74.42a1.62,1.62,0,0,0,.74-1.28c0-.47-.33-.66-.74-.43A1.64,1.64,0,0,0,38.17,225.78Z"/><path class="cls-61" d="M38.36,225.66a1.23,1.23,0,0,1,.55-.95c.3-.17.55,0,.55.32a1.21,1.21,0,0,1-.55.95C38.61,226.16,38.36,226,38.36,225.66Zm.19-.1c0,.23.16.32.36.21a.81.81,0,0,0,.36-.63c0-.23-.16-.33-.36-.21A.8.8,0,0,0,38.55,225.56Z"/><path class="cls-63" d="M24.27,223.11a3.84,3.84,0,0,1,1.73-3,1.17,1.17,0,0,1,1.31-.06h0l9.23,5.33L34,229.55l-9.07-5.26a.88.88,0,0,1-.28-.16h0A1.31,1.31,0,0,1,24.27,223.11Z"/><path class="cls-60" d="M33.51,228.44c0,1.11.77,1.55,1.73,1a3.83,3.83,0,0,0,1.73-3c0-1.11-.78-1.56-1.73-1A3.8,3.8,0,0,0,33.51,228.44Z"/><path class="cls-61" d="M33.81,228.27a3.16,3.16,0,0,1,1.43-2.47c.78-.45,1.42-.08,1.42.82a3.14,3.14,0,0,1-1.42,2.46C34.45,229.54,33.81,229.17,33.81,228.27Zm.19-.11c0,.78.55,1.1,1.24.71a2.72,2.72,0,0,0,1.23-2.14c0-.78-.55-1.1-1.23-.71A2.71,2.71,0,0,0,34,228.16Z"/><path class="cls-61" d="M34.31,228a2,2,0,0,1,.93-1.61c.51-.29.92-.05.92.54a2.06,2.06,0,0,1-.92,1.61C34.72,228.81,34.31,228.57,34.31,228Zm.18-.11c0,.47.34.66.75.43A1.65,1.65,0,0,0,36,227c0-.47-.34-.67-.74-.43A1.63,1.63,0,0,0,34.49,227.87Z"/><path class="cls-61" d="M34.69,227.76a1.19,1.19,0,0,1,.55-.95c.3-.18.55,0,.55.32a1.23,1.23,0,0,1-.55,1C34.93,228.26,34.69,228.11,34.69,227.76Zm.18-.11c0,.24.16.33.37.21a.78.78,0,0,0,.36-.62c0-.24-.16-.33-.36-.21A.76.76,0,0,0,34.87,227.65Z"/><path class="cls-59" d="M20.71,225.16a3.8,3.8,0,0,1,1.73-3,1.13,1.13,0,0,1,1.31-.06h0L33,227.43l-2.55,4.17-9.07-5.25a.92.92,0,0,1-.27-.16h0A1.35,1.35,0,0,1,20.71,225.16Z"/><path class="cls-60" d="M30,230.5c0,1.1.77,1.55,1.73,1a3.86,3.86,0,0,0,1.73-3c0-1.1-.78-1.55-1.73-1A3.81,3.81,0,0,0,30,230.5Z"/><path class="cls-61" d="M30.26,230.32a3.11,3.11,0,0,1,1.42-2.46c.78-.46,1.42-.09,1.42.82a3.16,3.16,0,0,1-1.42,2.46C30.89,231.59,30.26,231.22,30.26,230.32Zm.18-.11c0,.79.56,1.11,1.24.71a2.72,2.72,0,0,0,1.23-2.13c0-.79-.55-1.11-1.23-.72A2.76,2.76,0,0,0,30.44,230.21Z"/><path class="cls-61" d="M30.75,230a2,2,0,0,1,.93-1.6c.51-.3.93-.06.93.53a2.06,2.06,0,0,1-.93,1.61C31.17,230.87,30.75,230.63,30.75,230Zm.19-.1c0,.47.33.66.74.42a1.62,1.62,0,0,0,.74-1.28c0-.47-.33-.66-.74-.43A1.64,1.64,0,0,0,30.94,229.93Z"/><path class="cls-61" d="M31.13,229.82a1.22,1.22,0,0,1,.55-1c.3-.17.55,0,.55.32a1.25,1.25,0,0,1-.55,1C31.37,230.31,31.13,230.17,31.13,229.82Zm.19-.11c0,.23.16.32.36.21a.81.81,0,0,0,.36-.63c0-.23-.16-.33-.36-.21A.81.81,0,0,0,31.32,229.71Z"/><path class="cls-63" d="M17.15,227.22a3.8,3.8,0,0,1,1.73-3,1.13,1.13,0,0,1,1.31-.06h0l9.23,5.33-2.55,4.17L17.8,228.4a.72.72,0,0,1-.28-.16h0A1.31,1.31,0,0,1,17.15,227.22Z"/><path class="cls-60" d="M26.39,232.55c0,1.11.77,1.56,1.73,1a3.83,3.83,0,0,0,1.73-3c0-1.11-.78-1.55-1.73-1A3.8,3.8,0,0,0,26.39,232.55Z"/><path class="cls-61" d="M26.69,232.38a3.12,3.12,0,0,1,1.43-2.46c.78-.46,1.42-.09,1.42.81a3.17,3.17,0,0,1-1.42,2.47C27.33,233.65,26.69,233.28,26.69,232.38Zm.19-.11c0,.79.56,1.1,1.24.71a2.72,2.72,0,0,0,1.23-2.14c0-.78-.55-1.1-1.23-.71A2.75,2.75,0,0,0,26.88,232.27Z"/><path class="cls-61" d="M27.19,232.09a2,2,0,0,1,.93-1.61c.51-.29.92,0,.92.54a2.06,2.06,0,0,1-.92,1.61C27.6,232.92,27.19,232.68,27.19,232.09Zm.19-.1c0,.47.33.66.74.42a1.65,1.65,0,0,0,.74-1.28c0-.47-.34-.66-.74-.43A1.64,1.64,0,0,0,27.38,232Z"/><path class="cls-61" d="M27.57,231.87a1.2,1.2,0,0,1,.55-1c.3-.17.55,0,.55.32a1.21,1.21,0,0,1-.55.95C27.81,232.37,27.57,232.22,27.57,231.87Zm.19-.1c0,.23.16.32.36.21a.81.81,0,0,0,.36-.63c0-.23-.16-.33-.36-.21A.8.8,0,0,0,27.76,231.77Z"/><path class="cls-59" d="M33.3,214.13a3.84,3.84,0,0,1,1.73-3,1.14,1.14,0,0,1,1.31,0h0l9.23,5.32L43,220.57,34,215.31a.72.72,0,0,1-.27-.15h0A1.31,1.31,0,0,1,33.3,214.13Z"/><path class="cls-60" d="M42.54,219.47c0,1.1.77,1.55,1.73,1a3.86,3.86,0,0,0,1.73-3c0-1.11-.78-1.55-1.73-1A3.81,3.81,0,0,0,42.54,219.47Z"/><path class="cls-61" d="M42.85,219.29a3.15,3.15,0,0,1,1.42-2.47c.78-.45,1.42-.08,1.42.82a3.16,3.16,0,0,1-1.42,2.47C43.48,220.56,42.85,220.19,42.85,219.29Zm.18-.11c0,.78.56,1.1,1.24.71a2.72,2.72,0,0,0,1.23-2.14c0-.78-.55-1.1-1.23-.71A2.73,2.73,0,0,0,43,219.18Z"/><path class="cls-61" d="M43.34,219a2.07,2.07,0,0,1,.93-1.61c.51-.29.93,0,.93.54a2.07,2.07,0,0,1-.93,1.61C43.76,219.83,43.34,219.59,43.34,219Zm.19-.11c0,.47.33.67.74.43A1.62,1.62,0,0,0,45,218c0-.47-.33-.67-.74-.43A1.64,1.64,0,0,0,43.53,218.89Z"/><path class="cls-61" d="M43.72,218.78a1.2,1.2,0,0,1,.55-.95c.3-.18.55,0,.55.32a1.23,1.23,0,0,1-.55.95C44,219.28,43.72,219.13,43.72,218.78Zm.18-.11c0,.24.17.33.37.21a.78.78,0,0,0,.36-.62c0-.24-.16-.33-.36-.21A.79.79,0,0,0,43.9,218.67Z"/><path class="cls-63" d="M29.74,216.19a3.82,3.82,0,0,1,1.73-3,1.17,1.17,0,0,1,1.31-.06h0L42,218.46l-2.55,4.17-9.07-5.26a.78.78,0,0,1-.28-.16h0A1.31,1.31,0,0,1,29.74,216.19Z"/><path class="cls-60" d="M39,221.52c0,1.11.77,1.55,1.72,1a3.81,3.81,0,0,0,1.74-3c0-1.11-.78-1.55-1.74-1A3.82,3.82,0,0,0,39,221.52Z"/><path class="cls-61" d="M39.28,221.34a3.17,3.17,0,0,1,1.42-2.46c.79-.45,1.43-.08,1.43.82a3.12,3.12,0,0,1-1.43,2.46C39.92,222.62,39.28,222.25,39.28,221.34Zm.19-.1c0,.78.55,1.1,1.23.71a2.71,2.71,0,0,0,1.24-2.14c0-.78-.55-1.1-1.24-.71A2.72,2.72,0,0,0,39.47,221.24Z"/><path class="cls-61" d="M39.78,221.06a2.06,2.06,0,0,1,.92-1.61c.52-.29.94,0,.94.54a2.06,2.06,0,0,1-.94,1.61C40.19,221.89,39.78,221.65,39.78,221.06ZM40,221c0,.47.34.66.74.43a1.63,1.63,0,0,0,.75-1.28c0-.47-.34-.67-.75-.43A1.65,1.65,0,0,0,40,221Z"/><path class="cls-61" d="M40.16,220.84a1.2,1.2,0,0,1,.54-1c.31-.18.56,0,.56.32a1.21,1.21,0,0,1-.56.95C40.4,221.34,40.16,221.19,40.16,220.84Zm.18-.11c0,.23.17.33.36.21a.77.77,0,0,0,.37-.63c0-.23-.16-.32-.37-.2A.81.81,0,0,0,40.34,220.73Z"/><path class="cls-59" d="M26.14,218.29a3.82,3.82,0,0,1,1.73-3,1.17,1.17,0,0,1,1.31-.06h0l9.23,5.33-2.55,4.17-9.07-5.26a.78.78,0,0,1-.28-.16h0A1.31,1.31,0,0,1,26.14,218.29Z"/><path class="cls-60" d="M35.38,223.62c0,1.11.77,1.55,1.73,1a3.83,3.83,0,0,0,1.73-3c0-1.11-.78-1.56-1.73-1A3.8,3.8,0,0,0,35.38,223.62Z"/><path class="cls-61" d="M35.68,223.45A3.14,3.14,0,0,1,37.11,221c.78-.45,1.42-.08,1.42.82a3.17,3.17,0,0,1-1.42,2.47C36.32,224.72,35.68,224.35,35.68,223.45Zm.19-.11c0,.78.56,1.1,1.24.71a2.72,2.72,0,0,0,1.23-2.14c0-.79-.55-1.1-1.23-.71A2.73,2.73,0,0,0,35.87,223.34Z"/><path class="cls-61" d="M36.18,223.16a2,2,0,0,1,.93-1.61c.51-.3.93-.05.93.54a2.07,2.07,0,0,1-.93,1.61C36.59,224,36.18,223.75,36.18,223.16Zm.18-.11c0,.47.34.66.75.43a1.64,1.64,0,0,0,.74-1.28c0-.48-.33-.67-.74-.43A1.63,1.63,0,0,0,36.36,223.05Z"/><path class="cls-61" d="M36.56,222.94a1.19,1.19,0,0,1,.55-.95c.3-.18.55,0,.55.32a1.21,1.21,0,0,1-.55.95C36.8,223.43,36.56,223.29,36.56,222.94Zm.18-.11a.23.23,0,0,0,.37.21.8.8,0,0,0,.36-.63c0-.23-.16-.32-.36-.21A.82.82,0,0,0,36.74,222.83Z"/><path class="cls-63" d="M22.46,220.39a3.83,3.83,0,0,1,1.73-3,1.16,1.16,0,0,1,1.32-.06h0l9.22,5.33-2.54,4.16-9.08-5.25a.74.74,0,0,1-.27-.16h0A1.3,1.3,0,0,1,22.46,220.39Z"/><path class="cls-60" d="M31.7,225.72c0,1.1.78,1.55,1.73,1a3.81,3.81,0,0,0,1.73-3c0-1.1-.77-1.55-1.73-1A3.86,3.86,0,0,0,31.7,225.72Z"/><path class="cls-61" d="M32,225.54a3.16,3.16,0,0,1,1.42-2.46c.79-.45,1.42-.09,1.42.82a3.11,3.11,0,0,1-1.42,2.46C32.65,226.81,32,226.45,32,225.54Zm.19-.11c0,.79.55,1.11,1.23.72A2.75,2.75,0,0,0,34.67,224c0-.79-.56-1.11-1.24-.71A2.72,2.72,0,0,0,32.2,225.43Z"/><path class="cls-61" d="M32.5,225.26a2.06,2.06,0,0,1,.93-1.61c.51-.3.93-.06.93.54a2.06,2.06,0,0,1-.93,1.6C32.92,226.09,32.5,225.85,32.5,225.26Zm.19-.11c0,.47.33.66.74.43a1.64,1.64,0,0,0,.74-1.29c0-.47-.33-.66-.74-.42A1.62,1.62,0,0,0,32.69,225.15Z"/><path class="cls-61" d="M32.88,225a1.21,1.21,0,0,1,.55-.95c.31-.18.55,0,.55.31a1.22,1.22,0,0,1-.55,1C33.13,225.53,32.88,225.39,32.88,225Zm.19-.11c0,.23.16.32.36.21a.8.8,0,0,0,.36-.63c0-.23-.16-.32-.36-.21A.81.81,0,0,0,33.07,224.93Z"/><path class="cls-59" d="M18.91,222.44a3.84,3.84,0,0,1,1.72-3,1.16,1.16,0,0,1,1.32-.05h0l9.23,5.33-2.55,4.17-9.07-5.26a.66.66,0,0,1-.28-.16h0A1.33,1.33,0,0,1,18.91,222.44Z"/><path class="cls-60" d="M28.14,227.77c0,1.11.78,1.55,1.73,1a3.81,3.81,0,0,0,1.74-3c0-1.11-.78-1.56-1.74-1A3.83,3.83,0,0,0,28.14,227.77Z"/><path class="cls-61" d="M28.45,227.59a3.17,3.17,0,0,1,1.42-2.46c.79-.45,1.43-.08,1.43.82a3.16,3.16,0,0,1-1.43,2.47C29.09,228.87,28.45,228.5,28.45,227.59Zm.19-.1c0,.78.55,1.1,1.23.71a2.71,2.71,0,0,0,1.24-2.14c0-.78-.55-1.1-1.24-.71A2.72,2.72,0,0,0,28.64,227.49Z"/><path class="cls-61" d="M29,227.31a2.06,2.06,0,0,1,.92-1.61c.52-.29.93,0,.93.54a2,2,0,0,1-.93,1.61C29.36,228.14,29,227.9,29,227.31Zm.18-.11c0,.47.34.67.74.43a1.65,1.65,0,0,0,.75-1.28c0-.47-.34-.67-.75-.43A1.67,1.67,0,0,0,29.13,227.2Z"/><path class="cls-61" d="M29.32,227.09a1.23,1.23,0,0,1,.55-1c.31-.17.55,0,.55.32a1.2,1.2,0,0,1-.55.95C29.57,227.59,29.32,227.44,29.32,227.09Zm.19-.11c0,.24.16.33.36.21a.76.76,0,0,0,.37-.62c0-.24-.16-.33-.37-.21A.78.78,0,0,0,29.51,227Z"/><path class="cls-59" d="M31.52,211.51a3.84,3.84,0,0,1,1.73-3,1.14,1.14,0,0,1,1.31,0h0l9.23,5.32L41.24,218l-9.07-5.25a.92.92,0,0,1-.27-.16h0A1.31,1.31,0,0,1,31.52,211.51Z"/><path class="cls-60" d="M40.76,216.85c0,1.1.77,1.55,1.73,1a3.86,3.86,0,0,0,1.73-3c0-1.11-.78-1.55-1.73-1A3.81,3.81,0,0,0,40.76,216.85Z"/><path class="cls-61" d="M41.06,216.67a3.12,3.12,0,0,1,1.43-2.46c.78-.46,1.42-.09,1.42.82a3.16,3.16,0,0,1-1.42,2.46C41.7,217.94,41.06,217.57,41.06,216.67Zm.19-.11c0,.79.56,1.1,1.24.71a2.72,2.72,0,0,0,1.23-2.14c0-.78-.55-1.1-1.23-.71A2.73,2.73,0,0,0,41.25,216.56Z"/><path class="cls-61" d="M41.56,216.38a2,2,0,0,1,.93-1.6c.51-.3.93-.06.93.53a2.07,2.07,0,0,1-.93,1.61C42,217.21,41.56,217,41.56,216.38Zm.19-.1c0,.47.33.66.74.42a1.62,1.62,0,0,0,.74-1.28c0-.47-.33-.66-.74-.43A1.64,1.64,0,0,0,41.75,216.28Z"/><path class="cls-61" d="M41.94,216.17a1.21,1.21,0,0,1,.55-1c.3-.17.55,0,.55.32a1.21,1.21,0,0,1-.55.95C42.18,216.66,41.94,216.52,41.94,216.17Zm.18-.11c0,.23.17.32.37.2a.78.78,0,0,0,.36-.62c0-.23-.16-.33-.36-.21A.82.82,0,0,0,42.12,216.06Z"/><path class="cls-63" d="M28,213.57a3.84,3.84,0,0,1,1.73-3,1.14,1.14,0,0,1,1.31,0h0l9.23,5.32L37.68,220l-9.07-5.26a.76.76,0,0,1-.28-.15h0A1.31,1.31,0,0,1,28,213.57Z"/><path class="cls-60" d="M37.2,218.91c0,1.1.77,1.54,1.72,1a3.81,3.81,0,0,0,1.74-3c0-1.11-.78-1.55-1.74-1A3.82,3.82,0,0,0,37.2,218.91Z"/><path class="cls-61" d="M37.5,218.73a3.17,3.17,0,0,1,1.42-2.47c.79-.45,1.43-.08,1.43.82a3.16,3.16,0,0,1-1.43,2.47C38.14,220,37.5,219.63,37.5,218.73Zm.19-.11c0,.78.55,1.1,1.23.71a2.73,2.73,0,0,0,1.24-2.14c0-.78-.56-1.1-1.24-.71A2.72,2.72,0,0,0,37.69,218.62Z"/><path class="cls-61" d="M38,218.44a2.06,2.06,0,0,1,.92-1.61c.52-.29.94-.05.94.54a2.06,2.06,0,0,1-.94,1.61C38.41,219.27,38,219,38,218.44Zm.18-.11c0,.47.34.67.74.43a1.62,1.62,0,0,0,.74-1.28c0-.47-.33-.66-.74-.43A1.67,1.67,0,0,0,38.18,218.33Z"/><path class="cls-61" d="M38.37,218.22a1.23,1.23,0,0,1,.55-.95c.31-.18.55,0,.55.32a1.19,1.19,0,0,1-.55.95C38.62,218.72,38.37,218.57,38.37,218.22Zm.19-.11c0,.24.17.33.36.21a.76.76,0,0,0,.37-.62c0-.24-.16-.33-.37-.21A.81.81,0,0,0,38.56,218.11Z"/><path class="cls-59" d="M24.36,215.67a3.82,3.82,0,0,1,1.73-3,1.17,1.17,0,0,1,1.31-.06h0l9.23,5.33-2.55,4.17L25,216.85a.76.76,0,0,1-.28-.15h0A1.31,1.31,0,0,1,24.36,215.67Z"/><path class="cls-60" d="M33.6,221c0,1.11.77,1.55,1.73,1a3.83,3.83,0,0,0,1.73-3c0-1.11-.78-1.55-1.73-1A3.8,3.8,0,0,0,33.6,221Z"/><path class="cls-61" d="M33.9,220.83a3.16,3.16,0,0,1,1.43-2.47c.78-.45,1.42-.08,1.42.82a3.16,3.16,0,0,1-1.42,2.47C34.54,222.1,33.9,221.73,33.9,220.83Zm.19-.11c0,.78.56,1.1,1.24.71a2.72,2.72,0,0,0,1.23-2.14c0-.78-.55-1.1-1.23-.71A2.73,2.73,0,0,0,34.09,220.72Z"/><path class="cls-61" d="M34.4,220.54a2,2,0,0,1,.93-1.61c.51-.29.92-.05.92.54a2.06,2.06,0,0,1-.92,1.61C34.81,221.37,34.4,221.13,34.4,220.54Zm.18-.11c0,.48.34.67.75.43a1.62,1.62,0,0,0,.74-1.28c0-.47-.33-.66-.74-.43A1.65,1.65,0,0,0,34.58,220.43Z"/><path class="cls-61" d="M34.78,220.32a1.19,1.19,0,0,1,.55-.95c.3-.17.55,0,.55.32a1.21,1.21,0,0,1-.55.95C35,220.82,34.78,220.67,34.78,220.32Zm.18-.11a.23.23,0,0,0,.37.21.81.81,0,0,0,.36-.62c0-.23-.17-.33-.36-.21A.8.8,0,0,0,35,220.21Z"/><path class="cls-63" d="M20.68,217.77a3.83,3.83,0,0,1,1.73-3,1.18,1.18,0,0,1,1.32-.06h0L33,220l-2.54,4.17L21.33,219a.74.74,0,0,1-.27-.16h0A1.28,1.28,0,0,1,20.68,217.77Z"/><path class="cls-60" d="M29.92,223.1c0,1.1.78,1.55,1.73,1a3.81,3.81,0,0,0,1.73-3c0-1.1-.77-1.55-1.73-1A3.83,3.83,0,0,0,29.92,223.1Z"/><path class="cls-61" d="M30.23,222.92a3.16,3.16,0,0,1,1.42-2.46c.79-.45,1.42-.08,1.42.82a3.11,3.11,0,0,1-1.42,2.46C30.87,224.2,30.23,223.83,30.23,222.92Zm.19-.11c0,.79.55,1.11,1.23.72a2.75,2.75,0,0,0,1.24-2.14c0-.79-.56-1.1-1.24-.71A2.72,2.72,0,0,0,30.42,222.81Z"/><path class="cls-61" d="M30.72,222.64a2.07,2.07,0,0,1,.93-1.61c.51-.3.93-.05.93.54a2.07,2.07,0,0,1-.93,1.61C31.14,223.47,30.72,223.23,30.72,222.64Zm.19-.11c0,.47.33.66.74.43a1.64,1.64,0,0,0,.74-1.29c0-.47-.33-.66-.74-.42A1.62,1.62,0,0,0,30.91,222.53Z"/><path class="cls-61" d="M31.1,222.42a1.21,1.21,0,0,1,.55-.95c.31-.18.55,0,.55.31a1.21,1.21,0,0,1-.55,1C31.35,222.91,31.1,222.77,31.1,222.42Zm.19-.11c0,.23.16.33.36.21a.8.8,0,0,0,.36-.63c0-.23-.16-.32-.36-.2A.78.78,0,0,0,31.29,222.31Z"/><path class="cls-59" d="M29.74,209a3.84,3.84,0,0,1,1.73-3,1.16,1.16,0,0,1,1.32,0h0L42,211.25l-2.55,4.17-9.07-5.26a.72.72,0,0,1-.27-.15h0A1.28,1.28,0,0,1,29.74,209Z"/><path class="cls-60" d="M39,214.32c0,1.1.78,1.55,1.73,1a3.84,3.84,0,0,0,1.73-3c0-1.11-.77-1.55-1.73-1A3.83,3.83,0,0,0,39,214.32Z"/><path class="cls-61" d="M39.29,214.14a3.17,3.17,0,0,1,1.42-2.47c.78-.45,1.42-.08,1.42.82A3.16,3.16,0,0,1,40.71,215C39.93,215.41,39.29,215,39.29,214.14Zm.18-.11c0,.79.56,1.1,1.24.71a2.72,2.72,0,0,0,1.23-2.14c0-.78-.55-1.1-1.23-.71A2.73,2.73,0,0,0,39.47,214Z"/><path class="cls-61" d="M39.78,213.85a2.07,2.07,0,0,1,.93-1.61c.51-.29.93-.05.93.54a2.07,2.07,0,0,1-.93,1.61C40.2,214.68,39.78,214.44,39.78,213.85Zm.19-.11c0,.48.33.67.74.43a1.62,1.62,0,0,0,.74-1.28c0-.47-.33-.67-.74-.43A1.64,1.64,0,0,0,40,213.74Z"/><path class="cls-61" d="M40.16,213.63a1.23,1.23,0,0,1,.55-.95c.3-.17.55,0,.55.32a1.21,1.21,0,0,1-.55.95C40.41,214.13,40.16,214,40.16,213.63Zm.19-.11c0,.24.16.33.36.21a.78.78,0,0,0,.36-.62c0-.23-.16-.33-.36-.21A.79.79,0,0,0,40.35,213.52Z"/><path class="cls-63" d="M26.18,211a3.82,3.82,0,0,1,1.73-3,1.16,1.16,0,0,1,1.31-.06h0l9.23,5.33-2.55,4.17-9.07-5.26a.63.63,0,0,1-.27-.16h0A1.28,1.28,0,0,1,26.18,211Z"/><path class="cls-60" d="M35.42,216.37c0,1.11.77,1.55,1.73,1a3.8,3.8,0,0,0,1.73-3c0-1.11-.77-1.55-1.73-1A3.8,3.8,0,0,0,35.42,216.37Z"/><path class="cls-61" d="M35.73,216.19a3.17,3.17,0,0,1,1.42-2.46c.78-.45,1.42-.08,1.42.82A3.17,3.17,0,0,1,37.15,217C36.37,217.47,35.73,217.1,35.73,216.19Zm.18-.1c0,.78.56,1.1,1.24.71a2.72,2.72,0,0,0,1.23-2.14c0-.78-.55-1.1-1.23-.71A2.73,2.73,0,0,0,35.91,216.09Z"/><path class="cls-61" d="M36.22,215.91a2.07,2.07,0,0,1,.93-1.61c.51-.29.93-.05.93.54a2.07,2.07,0,0,1-.93,1.61C36.64,216.74,36.22,216.5,36.22,215.91Zm.19-.11c0,.47.33.67.74.43a1.62,1.62,0,0,0,.74-1.28c0-.47-.33-.67-.74-.43A1.64,1.64,0,0,0,36.41,215.8Z"/><path class="cls-61" d="M36.6,215.69a1.21,1.21,0,0,1,.55-.95c.3-.18.55,0,.55.32a1.23,1.23,0,0,1-.55.95C36.85,216.19,36.6,216,36.6,215.69Zm.19-.11c0,.23.16.33.36.21a.78.78,0,0,0,.36-.63c0-.23-.16-.32-.36-.2A.78.78,0,0,0,36.79,215.58Z"/><path class="cls-59" d="M22.58,213.14a3.82,3.82,0,0,1,1.73-3,1.16,1.16,0,0,1,1.31-.06h0l9.23,5.33-2.55,4.17-9.07-5.26a.74.74,0,0,1-.27-.16h0A1.28,1.28,0,0,1,22.58,213.14Z"/><path class="cls-60" d="M31.82,218.47c0,1.11.77,1.55,1.73,1a3.8,3.8,0,0,0,1.73-3c0-1.11-.77-1.56-1.73-1A3.8,3.8,0,0,0,31.82,218.47Z"/><path class="cls-61" d="M32.13,218.3a3.17,3.17,0,0,1,1.42-2.47c.78-.45,1.42-.08,1.42.82a3.17,3.17,0,0,1-1.42,2.47C32.77,219.57,32.13,219.2,32.13,218.3Zm.19-.11c0,.78.55,1.1,1.23.71a2.72,2.72,0,0,0,1.23-2.14c0-.78-.55-1.1-1.23-.71A2.72,2.72,0,0,0,32.32,218.19Z"/><path class="cls-61" d="M32.62,218a2.07,2.07,0,0,1,.93-1.61c.51-.29.93-.05.93.54a2.07,2.07,0,0,1-.93,1.61C33,218.84,32.62,218.6,32.62,218Zm.19-.11c0,.47.33.66.74.43a1.62,1.62,0,0,0,.74-1.28c0-.47-.33-.67-.74-.43A1.62,1.62,0,0,0,32.81,217.9Z"/><path class="cls-61" d="M33,217.79a1.21,1.21,0,0,1,.55-.95c.3-.18.55,0,.55.32a1.21,1.21,0,0,1-.55,1C33.25,218.29,33,218.14,33,217.79Zm.19-.11c0,.23.16.33.36.21a.78.78,0,0,0,.36-.63c0-.23-.16-.32-.36-.21A.81.81,0,0,0,33.19,217.68Z"/><path class="cls-63" d="M18.91,215.24a3.82,3.82,0,0,1,1.72-3,1.16,1.16,0,0,1,1.32-.06h0l9.23,5.33-2.55,4.16-9.07-5.25a.88.88,0,0,1-.28-.16h0A1.33,1.33,0,0,1,18.91,215.24Z"/><path class="cls-60" d="M28.15,220.57c0,1.1.77,1.55,1.72,1a3.82,3.82,0,0,0,1.74-3c0-1.1-.78-1.55-1.74-1A3.85,3.85,0,0,0,28.15,220.57Z"/><path class="cls-61" d="M28.45,220.39a3.16,3.16,0,0,1,1.42-2.46c.79-.45,1.43-.09,1.43.82a3.12,3.12,0,0,1-1.43,2.46C29.09,221.66,28.45,221.3,28.45,220.39Zm.19-.11c0,.79.55,1.11,1.23.72a2.72,2.72,0,0,0,1.24-2.14c0-.79-.55-1.11-1.24-.71A2.72,2.72,0,0,0,28.64,220.28Z"/><path class="cls-61" d="M29,220.11a2,2,0,0,1,.92-1.61c.52-.3.93-.06.93.54a2,2,0,0,1-.93,1.6C29.36,220.94,29,220.7,29,220.11Zm.18-.11c0,.47.34.66.74.43a1.65,1.65,0,0,0,.75-1.29c0-.47-.34-.66-.75-.42A1.65,1.65,0,0,0,29.13,220Z"/><path class="cls-61" d="M29.32,219.89a1.21,1.21,0,0,1,.55-.95c.31-.18.55,0,.55.31a1.22,1.22,0,0,1-.55,1C29.57,220.38,29.32,220.24,29.32,219.89Zm.19-.11c0,.23.16.33.36.21a.78.78,0,0,0,.37-.63c0-.23-.16-.32-.37-.21A.81.81,0,0,0,29.51,219.78Z"/><path class="cls-59" d="M17.13,219.82a3.82,3.82,0,0,1,1.72-3,1.15,1.15,0,0,1,1.32-.06h0l9.23,5.32-2.55,4.17L17.78,221a.76.76,0,0,1-.28-.15h0A1.31,1.31,0,0,1,17.13,219.82Z"/><path class="cls-60" d="M26.36,225.16c0,1.1.78,1.55,1.73,1a3.81,3.81,0,0,0,1.74-3c0-1.1-.78-1.55-1.74-1A3.83,3.83,0,0,0,26.36,225.16Z"/><path class="cls-61" d="M26.67,225a3.17,3.17,0,0,1,1.42-2.47c.79-.45,1.43-.08,1.43.83a3.14,3.14,0,0,1-1.43,2.46C27.31,226.25,26.67,225.88,26.67,225Zm.19-.11c0,.78.55,1.1,1.23.71a2.73,2.73,0,0,0,1.24-2.13c0-.79-.56-1.11-1.24-.72A2.74,2.74,0,0,0,26.86,224.87Z"/><path class="cls-61" d="M27.17,224.69a2,2,0,0,1,.92-1.6c.52-.3.93-.06.93.53a2,2,0,0,1-.93,1.61C27.58,225.52,27.17,225.29,27.17,224.69Zm.18-.11c0,.48.33.67.74.43a1.62,1.62,0,0,0,.74-1.28c0-.47-.33-.67-.74-.43A1.64,1.64,0,0,0,27.35,224.58Z"/><path class="cls-61" d="M27.54,224.47a1.25,1.25,0,0,1,.55-.95c.31-.17.55,0,.55.32a1.19,1.19,0,0,1-.55.95C27.79,225,27.54,224.82,27.54,224.47Zm.19-.1c0,.23.16.32.36.2a.79.79,0,0,0,.37-.62.23.23,0,0,0-.37-.21A.78.78,0,0,0,27.73,224.37Z"/><path class="cls-63" d="M15.34,224.5a3.83,3.83,0,0,1,1.73-3,1.18,1.18,0,0,1,1.32-.06h0l9.22,5.33-2.54,4.17L16,225.68a.71.71,0,0,1-.28-.16h0A1.33,1.33,0,0,1,15.34,224.5Z"/><path class="cls-60" d="M24.58,229.83c0,1.11.78,1.55,1.73,1a3.8,3.8,0,0,0,1.73-3c0-1.11-.77-1.56-1.73-1A3.83,3.83,0,0,0,24.58,229.83Z"/><path class="cls-61" d="M24.89,229.65a3.17,3.17,0,0,1,1.42-2.46c.79-.45,1.42-.08,1.42.82a3.11,3.11,0,0,1-1.42,2.46C25.53,230.93,24.89,230.56,24.89,229.65Zm.19-.1c0,.78.55,1.1,1.23.71a2.75,2.75,0,0,0,1.24-2.14c0-.79-.56-1.11-1.24-.71A2.72,2.72,0,0,0,25.08,229.55Z"/><path class="cls-61" d="M25.39,229.37a2.06,2.06,0,0,1,.92-1.61c.51-.29.93,0,.93.54a2.07,2.07,0,0,1-.93,1.61C25.8,230.2,25.39,230,25.39,229.37Zm.18-.11c0,.47.34.66.74.43a1.64,1.64,0,0,0,.74-1.28c0-.48-.33-.67-.74-.43A1.65,1.65,0,0,0,25.57,229.26Z"/><path class="cls-61" d="M25.76,229.15a1.21,1.21,0,0,1,.55-1c.31-.18.55,0,.55.32a1.19,1.19,0,0,1-.55.95C26,229.64,25.76,229.5,25.76,229.15ZM26,229c0,.23.16.33.36.21a.79.79,0,0,0,.37-.62c0-.24-.17-.33-.37-.22A.81.81,0,0,0,26,229Z"/><path class="cls-59" d="M13.55,229.32a3.8,3.8,0,0,1,1.73-3,1.13,1.13,0,0,1,1.31-.06h0l9.23,5.32-2.55,4.17-9.07-5.25a.81.81,0,0,1-.27-.16h0A1.35,1.35,0,0,1,13.55,229.32Z"/><path class="cls-60" d="M22.79,234.66c0,1.1.77,1.54,1.72,1a3.81,3.81,0,0,0,1.74-3c0-1.1-.78-1.55-1.74-1A3.82,3.82,0,0,0,22.79,234.66Z"/><path class="cls-61" d="M23.09,234.48A3.17,3.17,0,0,1,24.51,232c.79-.45,1.43-.08,1.43.83a3.15,3.15,0,0,1-1.43,2.46C23.73,235.75,23.09,235.38,23.09,234.48Zm.19-.11c0,.78.56,1.1,1.23.71a2.71,2.71,0,0,0,1.24-2.14c0-.78-.55-1.1-1.24-.71A2.77,2.77,0,0,0,23.28,234.37Z"/><path class="cls-61" d="M23.59,234.19a2.06,2.06,0,0,1,.92-1.61c.52-.29.94-.05.94.54a2.06,2.06,0,0,1-.94,1.61C24,235,23.59,234.78,23.59,234.19Zm.18-.11c0,.48.34.67.74.43a1.61,1.61,0,0,0,.75-1.28c0-.47-.33-.66-.75-.43A1.67,1.67,0,0,0,23.77,234.08Z"/><path class="cls-61" d="M24,234a1.22,1.22,0,0,1,.54-.95c.31-.17.56,0,.56.32a1.2,1.2,0,0,1-.56.95C24.21,234.47,24,234.33,24,234Zm.18-.1c0,.23.17.32.36.2a.76.76,0,0,0,.37-.62c0-.23-.16-.33-.37-.21A.82.82,0,0,0,24.15,233.87Z"/><polygon class="cls-9" points="140.85 294.09 115.1 279.22 177.33 243.38 203.08 258.24 140.85 294.09"/><polygon class="cls-64" points="192.04 247.37 176.12 256.56 163.43 249.23 179.36 240.04 192.04 247.37"/><polygon class="cls-65" points="181.09 241.05 165.16 250.25 164.28 249.74 180.21 240.54 181.09 241.05"/><polygon class="cls-65" points="182.69 241.97 166.76 251.16 165.88 250.65 181.8 241.46 182.69 241.97"/><polygon class="cls-65" points="184.29 242.9 168.36 252.09 167.48 251.58 183.41 242.38 184.29 242.9"/><polygon class="cls-65" points="185.88 243.81 169.95 253 169.07 252.49 185 243.29 185.88 243.81"/><polygon class="cls-65" points="187.64 244.83 171.71 254.03 170.83 253.51 186.76 244.32 187.64 244.83"/><polygon class="cls-65" points="189.24 245.74 173.3 254.94 172.43 254.43 188.35 245.23 189.24 245.74"/><polygon class="cls-65" points="190.9 246.71 174.97 255.91 174.09 255.39 190.02 246.2 190.9 246.71"/><polygon class="cls-66" points="195.07 257.71 191.2 255.51 192.12 253.11 196.2 254.77 195.07 257.71"/><polygon class="cls-66" points="155.17 280.75 151.3 278.55 152.22 276.15 156.29 277.81 155.17 280.75"/><polygon class="cls-67" points="128.86 249.25 132.51 251.37 133.16 250.99 129.5 248.88 128.86 249.25"/><polygon class="cls-68" points="132.51 254.28 133.16 253.92 133.16 250.99 132.51 251.37 132.51 254.28"/><polygon class="cls-69" points="128.86 252.17 132.51 254.28 132.51 251.37 128.86 249.25 128.86 252.17"/><path class="cls-69" d="M132.51,253.86a.74.74,0,0,1,.34-.58c.1-.06.19-.07.25,0l1,.55-.46.84-1-.57h0A.26.26,0,0,1,132.51,253.86Z"/><path class="cls-70" d="M133.5,254.43c0,.22.15.3.33.2a.75.75,0,0,0,.34-.59c0-.21-.15-.3-.34-.19A.74.74,0,0,0,133.5,254.43Z"/><path class="cls-71" d="M145.74,285.89c0,3,2.08,4.16,4.65,2.68a10.27,10.27,0,0,0,4.64-8c0-3-2.08-4.16-4.64-2.69A10.27,10.27,0,0,0,145.74,285.89Z"/><path class="cls-72" d="M141.51,283.44a10.24,10.24,0,0,1,4.64-8,3.3,3.3,0,0,1,3.22-.36h0l4.27,2.47a3.29,3.29,0,0,0-3.25.33,10.27,10.27,0,0,0-4.65,8.05,3.33,3.33,0,0,0,1.26,2.94h0l-4.23-2.45h0A3.31,3.31,0,0,1,141.51,283.44Z"/><path class="cls-73" d="M147.09,285.11c0,2.1,1.48,3,3.3,1.91a7.28,7.28,0,0,0,3.29-5.71c0-2.1-1.47-3-3.29-1.91A7.29,7.29,0,0,0,147.09,285.11Z"/><path class="cls-74" d="M153.27,281.55a6.38,6.38,0,0,1-2.88,5,1.89,1.89,0,0,1-2.27,0,2,2,0,0,0,2.07-.17,6.4,6.4,0,0,0,2.88-5,2.21,2.21,0,0,0-.61-1.69A2.05,2.05,0,0,1,153.27,281.55Z"/><path class="cls-75" d="M153.07,281.4a6.4,6.4,0,0,1-2.88,5,2,2,0,0,1-2.07.17h0a2.21,2.21,0,0,1-.61-1.69,6.35,6.35,0,0,1,2.88-5,2,2,0,0,1,2.06-.19h0A2.21,2.21,0,0,1,153.07,281.4Z"/><path class="cls-76" d="M152.24,282.12a4.06,4.06,0,0,1-1.86,3.22,1.16,1.16,0,0,1-1.53,0,1.49,1.49,0,0,0,1.13-.21,4.09,4.09,0,0,0,1.86-3.23,1.45,1.45,0,0,0-.31-1C152,281,152.24,281.44,152.24,282.12Z"/><path class="cls-77" d="M151.84,281.85a4.09,4.09,0,0,1-1.86,3.23,1.49,1.49,0,0,1-1.13.21,1.55,1.55,0,0,1-.32-1,4.12,4.12,0,0,1,1.85-3.21,1.36,1.36,0,0,1,1.15-.19A1.45,1.45,0,0,1,151.84,281.85Z"/><path class="cls-71" d="M185.62,262.87c0,2.95,2.08,4.16,4.65,2.68a10.29,10.29,0,0,0,4.64-8.05c0-3-2.08-4.16-4.64-2.68A10.27,10.27,0,0,0,185.62,262.87Z"/><path class="cls-72" d="M181.39,260.41a10.27,10.27,0,0,1,4.64-8,3.3,3.3,0,0,1,3.22-.36h0l4.27,2.47a3.27,3.27,0,0,0-3.25.34,10.27,10.27,0,0,0-4.65,8.05,3.33,3.33,0,0,0,1.26,2.94h0l-4.23-2.45h0A3.33,3.33,0,0,1,181.39,260.41Z"/><path class="cls-73" d="M187,262.09c0,2.1,1.48,3,3.3,1.9a7.28,7.28,0,0,0,3.29-5.7c0-2.11-1.47-3-3.29-1.91A7.28,7.28,0,0,0,187,262.09Z"/><path class="cls-74" d="M193.14,258.52a6.36,6.36,0,0,1-2.87,5,1.89,1.89,0,0,1-2.27,0,2,2,0,0,0,2.07-.18,6.37,6.37,0,0,0,2.88-5,2.23,2.23,0,0,0-.61-1.7A2,2,0,0,1,193.14,258.52Z"/><path class="cls-75" d="M193,258.38a6.37,6.37,0,0,1-2.88,5,2,2,0,0,1-2.07.18h0a2.22,2.22,0,0,1-.61-1.69,6.37,6.37,0,0,1,2.88-5,2,2,0,0,1,2.07-.18h0A2.23,2.23,0,0,1,193,258.38Z"/><path class="cls-76" d="M192.12,259.1a4.09,4.09,0,0,1-1.85,3.21c-.65.38-1.2.33-1.54-.05a1.45,1.45,0,0,0,1.13-.21,4.11,4.11,0,0,0,1.86-3.22,1.54,1.54,0,0,0-.31-1A1.22,1.22,0,0,1,192.12,259.1Z"/><path class="cls-77" d="M191.72,258.83a4.11,4.11,0,0,1-1.86,3.22,1.45,1.45,0,0,1-1.13.21,1.48,1.48,0,0,1-.32-1,4.14,4.14,0,0,1,1.86-3.22,1.42,1.42,0,0,1,1.14-.2A1.54,1.54,0,0,1,191.72,258.83Z"/><polygon class="cls-68" points="179.36 240.04 163.43 249.23 154.14 243.87 179.36 229.31 179.36 240.04"/><polygon class="cls-69" points="201.34 242 192.04 247.37 179.36 240.04 179.36 229.31 201.34 242"/><path class="cls-67" d="M152.4,243.94,176,257.56l27.08-15.63-23.6-13.63Zm11,5.29-9.29-5.36,25.22-14.56,22,12.69-9.3,5.37-16.28,9.1Z"/><polygon class="cls-24" points="176.64 230.84 175.89 230.41 175.89 228.75 176.64 229.18 176.64 230.84"/><polygon class="cls-24" points="156.39 242.53 155.64 242.1 155.64 240.44 156.39 240.87 156.39 242.53"/><polygon class="cls-59" points="154.21 240.56 154.21 242.13 156.39 240.87 156.39 242.53 157.23 242.05 157.23 240.39 176.64 229.18 176.64 230.84 177.48 230.36 177.48 228.7 179.62 227.46 179.62 225.9 154.21 240.56"/><polygon class="cls-24" points="154.21 242.13 153.46 241.69 153.46 240.13 154.21 240.56 154.21 242.13"/><polygon class="cls-78" points="154.21 240.56 153.46 240.13 178.86 225.46 179.62 225.9 154.21 240.56"/><polygon class="cls-79" points="175.12 242.49 176.47 243.85 162 252.3 160.01 251.21 175.12 242.49"/><polygon class="cls-68" points="176.21 243.84 162.14 251.97 164.62 246.44 173.73 241.19 176.21 243.84"/><polygon class="cls-67" points="164.62 246.44 161.57 244.68 170.68 239.43 173.73 241.19 164.62 246.44"/><polygon class="cls-67" points="162.14 251.97 159.09 250.2 161.57 244.68 164.62 246.44 162.14 251.97"/><path class="cls-68" d="M176,257.56v-9.29L159.14,258l-2.72,10.5-15.57,11.35V289l4.28-2.47c0-.11,0-.23,0-.35a11.1,11.1,0,0,1,5-8.72c2.78-1.6,5-.3,5,2.91,0,.12,0,.25,0,.37L185,263.51c0-.12,0-.24,0-.37a11.14,11.14,0,0,1,5-8.71c2.77-1.61,5-.31,5,2.91,0,.12,0,.25,0,.37l8-4.62V241.93Z"/><polygon class="cls-80" points="170.7 252.82 170.7 260.34 158.18 267.57 158.32 267.03 170.34 260.09 170.34 253.03 170.7 252.82"/><polygon class="cls-81" points="170.34 253.03 170.34 260.09 158.32 267.03 160.4 258.77 170.34 253.03"/><polygon class="cls-82" points="160.89 265.54 164.01 256.68 167.01 254.95 165.41 262.93 160.89 265.54"/><path class="cls-83" d="M157.05,279.24V268.06l2.58-9.81.07,0,12-6.93v19.5l-.1.06Zm.39-11.11v10.43l13.87-8V252L160,258.51Z"/><path class="cls-83" d="M170.26,262.5l-1.86,1.07c-.24.14-.44,0-.44-.26h0a1,1,0,0,1,.44-.77l1.86-1.07c.24-.14.44,0,.44.26h0A1,1,0,0,1,170.26,262.5Z"/><polygon class="cls-69" points="140.85 289.01 117.25 275.38 117.25 266.23 140.85 279.85 140.85 289.01"/><polygon class="cls-67" points="140.85 279.85 117.25 266.23 132.83 254.87 156.43 268.5 140.85 279.85"/><polygon class="cls-67" points="156.43 268.5 132.83 254.87 135.54 244.38 159.14 258 156.43 268.5"/><polygon class="cls-80" points="156.2 267.47 156.11 267.83 133.39 254.74 135.91 245 136.26 245.2 133.83 254.58 156.2 267.47"/><polygon class="cls-84" points="158.63 258.09 156.2 267.47 133.83 254.58 136.26 245.2 158.63 258.09"/><polygon class="cls-67" points="159.14 258 135.54 244.38 152.4 234.65 176 248.27 159.14 258"/><polygon class="cls-24" points="199.47 244.02 198.71 243.58 198.71 241.92 199.47 242.36 199.47 244.02"/><polygon class="cls-24" points="179.21 255.71 178.46 255.27 178.46 253.62 179.21 254.05 179.21 255.71"/><polygon class="cls-59" points="177.03 253.74 177.03 255.31 179.21 254.05 179.21 255.71 180.05 255.22 180.05 253.56 199.47 242.36 199.47 244.02 200.3 243.53 200.3 241.87 202.44 240.64 202.44 239.07 177.03 253.74"/><polygon class="cls-24" points="177.03 255.31 176.28 254.87 176.28 253.3 177.03 253.74 177.03 255.31"/><polygon class="cls-78" points="177.03 253.74 176.28 253.3 201.69 238.63 202.44 239.07 177.03 253.74"/><path class="cls-69" d="M157.58,268.35a.73.73,0,0,1,.34-.58.22.22,0,0,1,.24,0l1,.56-.46.83-1-.57h0A.25.25,0,0,1,157.58,268.35Z"/><path class="cls-70" d="M158.56,268.93c0,.21.15.3.34.2a.81.81,0,0,0,.34-.6c0-.21-.16-.29-.34-.19A.75.75,0,0,0,158.56,268.93Z"/><polygon class="cls-67" points="158.53 266.38 162.19 268.5 162.83 268.13 159.18 266.01 158.53 266.38"/><polygon class="cls-68" points="162.19 271.42 162.83 271.05 162.83 268.13 162.19 268.5 162.19 271.42"/><polygon class="cls-69" points="158.53 269.3 162.19 271.42 162.19 268.5 158.53 266.38 158.53 269.3"/><polygon class="cls-64" points="133.43 283.33 124.25 278.03 124.25 271.94 133.43 277.24 133.43 283.33"/><polygon class="cls-82" points="136.14 255.91 144.2 249.78 146.96 251.37 139.49 257.84 136.14 255.91"/><polygon class="cls-82" points="142.62 259.64 152.06 254.3 157.24 257.29 149.52 263.62 142.62 259.64"/><path class="cls-85" d="M139.27,283.49c0,1.19-.84,1.67-1.86,1.08a4.12,4.12,0,0,1-1.87-3.23c0-1.19.84-1.67,1.87-1.08A4.17,4.17,0,0,1,139.27,283.49Z"/><path class="cls-85" d="M122.42,273.77c0,1.19-.83,1.66-1.86,1.07a4.12,4.12,0,0,1-1.87-3.23c0-1.18.84-1.66,1.87-1.07A4.11,4.11,0,0,1,122.42,273.77Z"/></svg>