<svg id="Layer_1" data-name="Layer 1" xmlns="http://www.w3.org/2000/svg" xmlns:xlink="http://www.w3.org/1999/xlink" viewBox="0 0 436.61 295.91"><defs><style>.cls-1{fill:#783b25;}.cls-2{fill:#572a1b;}.cls-3{opacity:0.3;}.cls-4{fill:#4c8018;}.cls-5{fill:url(#radial-gradient);}.cls-6{fill:url(#radial-gradient-2);}.cls-7{fill:url(#radial-gradient-3);}.cls-8{fill:url(#radial-gradient-4);}.cls-9{fill:url(#radial-gradient-5);}.cls-10{fill:url(#radial-gradient-6);}.cls-11{fill:url(#radial-gradient-7);}.cls-12{fill:url(#radial-gradient-8);}.cls-13{fill:url(#radial-gradient-9);}.cls-14{fill:url(#radial-gradient-10);}.cls-15{fill:url(#radial-gradient-11);}.cls-16{fill:url(#radial-gradient-12);}.cls-17{fill:url(#radial-gradient-13);}.cls-18{fill:url(#radial-gradient-14);}.cls-19{fill:url(#radial-gradient-15);}.cls-20{fill:url(#radial-gradient-16);}.cls-21,.cls-31,.cls-32,.cls-33,.cls-34,.cls-35,.cls-36,.cls-37,.cls-38,.cls-39,.cls-40,.cls-41{opacity:0.7;}.cls-21{fill:url(#linear-gradient);}.cls-22{fill:#593f34;}.cls-23{fill:#804d39;}.cls-24{fill:#8c6352;}.cls-25{fill:#4a342b;}.cls-26{fill:#795547;}.cls-27{fill:#382d27;}.cls-28{fill:#62a62d;}.cls-29{fill:#548f27;}.cls-30{fill:#fff;opacity:0.1;}.cls-31{fill:url(#linear-gradient-2);}.cls-32{fill:url(#linear-gradient-3);}.cls-33{fill:url(#linear-gradient-4);}.cls-34{fill:url(#linear-gradient-5);}.cls-35{fill:url(#linear-gradient-6);}.cls-36{fill:url(#linear-gradient-7);}.cls-37{fill:url(#linear-gradient-8);}.cls-38{fill:url(#linear-gradient-9);}.cls-39{fill:url(#linear-gradient-10);}.cls-40{fill:url(#linear-gradient-11);}.cls-41{fill:url(#linear-gradient-12);}.cls-42{fill:#703f1e;}.cls-43{fill:#9bc90e;}.cls-44{fill:#80b708;}.cls-45{fill:#528402;}.cls-46{fill:#748e09;}</style><radialGradient id="radial-gradient" cx="64.89" cy="183.43" r="5.65" gradientTransform="translate(219.16) scale(1.2 1)" gradientUnits="userSpaceOnUse"><stop offset="0" stop-color="#7cab20"/><stop offset="0.58" stop-color="#5c8019"/><stop offset="0.83" stop-color="#5d8219"/><stop offset="0.92" stop-color="#63891a"/><stop offset="0.98" stop-color="#6c941c"/><stop offset="1" stop-color="#6f991d"/></radialGradient><radialGradient id="radial-gradient-2" cx="78.79" cy="191.84" r="5.65" xlink:href="#radial-gradient"/><radialGradient id="radial-gradient-3" cx="49.76" cy="192.34" r="5.65" xlink:href="#radial-gradient"/><radialGradient id="radial-gradient-4" cx="63.65" cy="200.75" r="5.65" xlink:href="#radial-gradient"/><radialGradient id="radial-gradient-5" cx="24.78" cy="206.59" r="5.65" xlink:href="#radial-gradient"/><radialGradient id="radial-gradient-6" cx="38.68" cy="214.99" r="5.65" xlink:href="#radial-gradient"/><radialGradient id="radial-gradient-7" cx="9.65" cy="215.49" r="5.65" xlink:href="#radial-gradient"/><radialGradient id="radial-gradient-8" cx="23.55" cy="223.9" r="5.65" xlink:href="#radial-gradient"/><radialGradient id="radial-gradient-9" cx="-15.32" cy="229.74" r="5.65" xlink:href="#radial-gradient"/><radialGradient id="radial-gradient-10" cx="-1.43" cy="238.15" r="5.65" xlink:href="#radial-gradient"/><radialGradient id="radial-gradient-11" cx="-30.45" cy="238.65" r="5.65" xlink:href="#radial-gradient"/><radialGradient id="radial-gradient-12" cx="-16.56" cy="247.06" r="5.65" xlink:href="#radial-gradient"/><radialGradient id="radial-gradient-13" cx="-55.43" cy="252.9" r="5.65" xlink:href="#radial-gradient"/><radialGradient id="radial-gradient-14" cx="-41.53" cy="261.3" r="5.65" xlink:href="#radial-gradient"/><radialGradient id="radial-gradient-15" cx="-70.56" cy="261.8" r="5.65" xlink:href="#radial-gradient"/><radialGradient id="radial-gradient-16" cx="-56.67" cy="270.21" r="5.65" xlink:href="#radial-gradient"/><linearGradient id="linear-gradient" x1="49.26" y1="154.45" x2="56.54" y2="154.45" gradientUnits="userSpaceOnUse"><stop offset="0" stop-color="#52b4ff"/><stop offset="1" stop-color="#175688"/></linearGradient><linearGradient id="linear-gradient-2" x1="22.75" y1="150.06" x2="109.73" y2="150.06" xlink:href="#linear-gradient"/><linearGradient id="linear-gradient-3" x1="22.75" y1="176.25" x2="41.89" y2="176.25" xlink:href="#linear-gradient"/><linearGradient id="linear-gradient-4" x1="90.69" y1="208.8" x2="109.73" y2="208.8" xlink:href="#linear-gradient"/><linearGradient id="linear-gradient-5" x1="118.45" y1="183.21" x2="160.96" y2="183.21" xlink:href="#linear-gradient"/><linearGradient id="linear-gradient-6" x1="169.68" y1="159.13" x2="210.1" y2="159.13" xlink:href="#linear-gradient"/><linearGradient id="linear-gradient-7" x1="123.48" y1="94.67" x2="208.93" y2="94.67" xlink:href="#linear-gradient"/><linearGradient id="linear-gradient-8" x1="72.26" y1="118.75" x2="159.79" y2="118.75" xlink:href="#linear-gradient"/><linearGradient id="linear-gradient-9" x1="218.82" y1="135.52" x2="259.24" y2="135.52" xlink:href="#linear-gradient"/><linearGradient id="linear-gradient-10" x1="172.62" y1="71.06" x2="258.07" y2="71.06" xlink:href="#linear-gradient"/><linearGradient id="linear-gradient-11" x1="267.97" y1="111.94" x2="308.39" y2="111.94" xlink:href="#linear-gradient"/><linearGradient id="linear-gradient-12" x1="221.78" y1="47.49" x2="307.22" y2="47.49" xlink:href="#linear-gradient"/></defs><path class="cls-1" d="M251.09,203.29l2-.41a14.78,14.78,0,0,1,9.36,1.08l28.71,13.77a11.8,11.8,0,0,1,4.42,3.58l3.8,5.14,48.27-23.16-3.81-5.15a11.83,11.83,0,0,0-4.42-3.56l-28.7-13.77a14.8,14.8,0,0,0-9.3-1.09l-2,.42Z"/><polygon class="cls-2" points="251.09 203.29 253.06 202.88 301.39 179.72 299.36 180.14 251.09 203.29"/><polygon class="cls-2" points="295.55 221.31 299.36 226.45 347.62 203.29 343.81 198.15 295.55 221.31"/><path class="cls-3" d="M302.23,191.22a9.28,9.28,0,0,1-7.13,0c-2-.94-2-2.47,0-3.42a9.37,9.37,0,0,1,7.13,0C304.2,188.75,304.2,190.28,302.23,191.22Z"/><path class="cls-4" d="M299.12,186H299a.86.86,0,0,0-.59,0h-.15s-.3,3.67-.29,3.68.05.21.21.29a1.36,1.36,0,0,0,1.05,0c.17-.09.24-.2.22-.3l-.3-3.5Z"/><path class="cls-5" d="M298.66,180.88c-2.64,0-4.79,1.78-4.79,4s2.15,4,4.79,4,4.79-1.78,4.79-4S301.31,180.88,298.66,180.88Z"/><path class="cls-3" d="M319,199.63a9.37,9.37,0,0,1-7.13,0c-2-.94-2-2.48,0-3.42a9.32,9.32,0,0,1,7.13,0C320.92,197.15,320.92,198.69,319,199.63Z"/><path class="cls-4" d="M315.84,194.38h-.15a.86.86,0,0,0-.59,0H315s-.3,3.67-.29,3.68,0,.21.21.28a1.36,1.36,0,0,0,1.05,0c.18-.08.24-.19.22-.29l-.3-3.51Z"/><path class="cls-6" d="M315.38,189.28c-2.64,0-4.79,1.79-4.79,4s2.15,4,4.79,4,4.79-1.78,4.79-4S318,189.28,315.38,189.28Z"/><path class="cls-3" d="M284,200.13a9.28,9.28,0,0,1-7.13,0c-2-.94-2-2.48,0-3.42a9.32,9.32,0,0,1,7.13,0C286,197.65,286,199.19,284,200.13Z"/><path class="cls-4" d="M280.91,194.88h-.15a.86.86,0,0,0-.59,0H280s-.3,3.67-.29,3.68,0,.21.21.29a1.46,1.46,0,0,0,1.05,0c.17-.09.24-.2.21-.3l-.29-3.51Z"/><path class="cls-7" d="M280.45,189.78c-2.64,0-4.79,1.79-4.79,4s2.15,4,4.79,4,4.79-1.78,4.79-4S283.1,189.78,280.45,189.78Z"/><path class="cls-3" d="M300.74,208.54a9.37,9.37,0,0,1-7.13,0c-2-.95-2-2.48,0-3.42a9.28,9.28,0,0,1,7.13,0C302.71,206.06,302.71,207.59,300.74,208.54Z"/><path class="cls-4" d="M297.63,203.29h-.15a.86.86,0,0,0-.59,0h-.15s-.3,3.67-.29,3.68.05.2.21.28a1.37,1.37,0,0,0,1,0c.17-.08.24-.19.22-.3l-.3-3.5Z"/><ellipse class="cls-8" cx="297.17" cy="202.17" rx="4.79" ry="3.98"/><path class="cls-1" d="M202.83,226.45l2-.42a14.85,14.85,0,0,1,9.36,1.08l28.71,13.78a11.76,11.76,0,0,1,4.42,3.57l3.8,5.14,48.26-23.15-3.81-5.15a11.82,11.82,0,0,0-4.41-3.57L262.43,204a14.8,14.8,0,0,0-9.3-1.09l-2,.42Z"/><polygon class="cls-2" points="202.83 226.45 204.8 226.03 253.13 202.87 251.09 203.29 202.83 226.45"/><polygon class="cls-2" points="247.29 244.46 251.09 249.6 299.36 226.45 295.54 221.3 247.29 244.46"/><path class="cls-3" d="M254,214.38a9.39,9.39,0,0,1-7.14,0c-2-.95-2-2.48,0-3.42a9.27,9.27,0,0,1,7.13,0C255.94,211.9,255.93,213.43,254,214.38Z"/><path class="cls-4" d="M250.85,209.13h-.14a.88.88,0,0,0-.6,0H250l-.3,3.68c0,.1.05.2.22.28a1.37,1.37,0,0,0,1.05,0c.17-.08.24-.19.21-.3l-.29-3.5Z"/><path class="cls-9" d="M250.4,204c-2.65,0-4.79,1.78-4.79,4s2.14,4,4.79,4,4.79-1.78,4.79-4S253.05,204,250.4,204Z"/><path class="cls-3" d="M270.69,222.79a9.37,9.37,0,0,1-7.13,0c-2-.95-2-2.48,0-3.43a9.37,9.37,0,0,1,7.13,0C272.66,220.31,272.65,221.84,270.69,222.79Z"/><path class="cls-4" d="M267.57,217.54h-.14a.85.85,0,0,0-.59,0h-.15l-.3,3.67c0,.11.05.21.22.29a1.36,1.36,0,0,0,1.05,0c.17-.08.24-.19.21-.3l-.29-3.5Z"/><path class="cls-10" d="M267.12,212.44c-2.65,0-4.79,1.78-4.79,4s2.14,4,4.79,4,4.79-1.78,4.79-4S269.77,212.44,267.12,212.44Z"/><path class="cls-3" d="M235.76,223.29a9.39,9.39,0,0,1-7.14,0c-2-.95-2-2.48,0-3.43a9.37,9.37,0,0,1,7.13,0C237.73,220.81,237.72,222.34,235.76,223.29Z"/><path class="cls-4" d="M232.64,218h-.14a.88.88,0,0,0-.6,0h-.14l-.3,3.67c0,.11,0,.21.21.29a1.39,1.39,0,0,0,1.06,0c.17-.08.24-.19.21-.3l-.29-3.5Z"/><path class="cls-11" d="M232.19,212.94c-2.65,0-4.79,1.78-4.79,4s2.14,4,4.79,4,4.79-1.78,4.79-4S234.84,212.94,232.19,212.94Z"/><path class="cls-3" d="M252.48,231.69a9.3,9.3,0,0,1-7.14,0c-2-.94-2-2.47,0-3.42a9.37,9.37,0,0,1,7.13,0C254.45,229.22,254.44,230.75,252.48,231.69Z"/><path class="cls-4" d="M249.36,226.45h-.14a.88.88,0,0,0-.6,0h-.14l-.3,3.67c0,.11,0,.21.21.29a1.39,1.39,0,0,0,1.06,0c.17-.08.24-.19.21-.3l-.29-3.5Z"/><path class="cls-12" d="M248.91,221.35c-2.65,0-4.79,1.78-4.79,4s2.14,4,4.79,4,4.79-1.78,4.79-4S251.56,221.35,248.91,221.35Z"/><path class="cls-1" d="M154.57,249.6l2-.41a14.74,14.74,0,0,1,9.35,1.08L194.61,264a11.84,11.84,0,0,1,4.41,3.58l3.81,5.14,48.26-23.16-3.81-5.15a11.8,11.8,0,0,0-4.41-3.56l-28.7-13.77a14.81,14.81,0,0,0-9.3-1.09l-2,.42Z"/><polygon class="cls-2" points="154.57 249.6 156.54 249.19 204.87 226.03 202.83 226.45 154.57 249.6"/><polygon class="cls-2" points="199.03 267.62 202.83 272.76 251.09 249.6 247.28 244.46 199.03 267.62"/><path class="cls-3" d="M205.7,237.53a9.28,9.28,0,0,1-7.13,0c-2-.94-2-2.47,0-3.42a9.37,9.37,0,0,1,7.13,0C207.67,235.06,207.67,236.59,205.7,237.53Z"/><path class="cls-4" d="M202.59,232.29h-.15a.76.76,0,0,0-.59,0h-.14s-.3,3.66-.3,3.67.05.21.21.29a1.39,1.39,0,0,0,1.06,0c.17-.08.24-.2.21-.3l-.29-3.5Z"/><ellipse class="cls-13" cx="202.14" cy="231.17" rx="4.79" ry="3.98"/><path class="cls-3" d="M222.42,245.94a9.37,9.37,0,0,1-7.13,0c-2-.94-2-2.48,0-3.42a9.32,9.32,0,0,1,7.13,0C224.39,243.46,224.39,245,222.42,245.94Z"/><path class="cls-4" d="M219.31,240.69h-.15a.85.85,0,0,0-.59,0h-.14l-.3,3.68c0,.1.05.21.21.28a1.39,1.39,0,0,0,1.06,0c.17-.08.24-.19.21-.29l-.29-3.51Z"/><path class="cls-14" d="M218.86,235.59c-2.65,0-4.79,1.79-4.79,4s2.14,4,4.79,4,4.79-1.78,4.79-4S221.5,235.59,218.86,235.59Z"/><path class="cls-3" d="M187.49,246.44a9.28,9.28,0,0,1-7.13,0c-2-.94-2-2.48,0-3.42a9.32,9.32,0,0,1,7.13,0C189.46,244,189.46,245.5,187.49,246.44Z"/><path class="cls-4" d="M184.38,241.19h-.15a.85.85,0,0,0-.59,0h-.14l-.3,3.68c0,.1.05.21.21.29a1.49,1.49,0,0,0,1.06,0c.17-.09.24-.2.21-.3l-.3-3.51Z"/><ellipse class="cls-15" cx="183.93" cy="240.08" rx="4.79" ry="3.98"/><path class="cls-3" d="M204.21,254.85a9.37,9.37,0,0,1-7.13,0c-2-.95-2-2.48,0-3.42a9.27,9.27,0,0,1,7.13,0C206.18,252.37,206.18,253.9,204.21,254.85Z"/><path class="cls-4" d="M201.1,249.6H201a.85.85,0,0,0-.59,0h-.14l-.3,3.68c0,.1.05.21.21.28a1.39,1.39,0,0,0,1.06,0c.17-.08.24-.19.21-.3l-.3-3.5Z"/><path class="cls-16" d="M200.65,244.5c-2.65,0-4.79,1.78-4.79,4s2.14,4,4.79,4,4.79-1.78,4.79-4S203.29,244.5,200.65,244.5Z"/><path class="cls-1" d="M106.3,272.76l2-.42a14.82,14.82,0,0,1,9.35,1.08l28.71,13.78a11.78,11.78,0,0,1,4.42,3.57l3.81,5.14,48.26-23.15L199,267.61A11.78,11.78,0,0,0,194.6,264l-28.69-13.77a14.84,14.84,0,0,0-9.31-1.09l-2,.42Z"/><polygon class="cls-2" points="106.3 272.76 108.28 272.35 156.6 249.18 154.57 249.6 106.3 272.76"/><polygon class="cls-2" points="150.76 290.77 154.57 295.92 202.83 272.76 199.02 267.61 150.76 290.77"/><path class="cls-3" d="M157.44,260.69a9.37,9.37,0,0,1-7.13,0c-2-.95-2-2.48,0-3.42a9.28,9.28,0,0,1,7.13,0C159.41,258.21,159.41,259.74,157.44,260.69Z"/><path class="cls-4" d="M154.33,255.44h-.15a.86.86,0,0,0-.59,0h-.15l-.29,3.68c0,.1,0,.2.21.28a1.39,1.39,0,0,0,1.06,0c.17-.08.23-.19.21-.3l-.3-3.5Z"/><path class="cls-17" d="M153.88,250.34c-2.65,0-4.8,1.78-4.8,4s2.15,4,4.8,4,4.79-1.78,4.79-4S156.52,250.34,153.88,250.34Z"/><path class="cls-3" d="M174.16,269.09a9.28,9.28,0,0,1-7.13,0c-2-.94-2-2.47,0-3.42a9.37,9.37,0,0,1,7.13,0C176.13,266.62,176.13,268.15,174.16,269.09Z"/><path class="cls-4" d="M171.05,263.85h-.15a.86.86,0,0,0-.59,0h-.15l-.29,3.67c0,.11,0,.21.21.29a1.39,1.39,0,0,0,1.06,0c.17-.08.23-.19.21-.3l-.3-3.5Z"/><path class="cls-18" d="M170.6,258.75c-2.65,0-4.79,1.78-4.79,4s2.14,4,4.79,4,4.79-1.78,4.79-4S173.24,258.75,170.6,258.75Z"/><path class="cls-3" d="M139.23,269.6a9.37,9.37,0,0,1-7.13,0c-2-1-2-2.48,0-3.43a9.37,9.37,0,0,1,7.13,0C141.2,267.12,141.2,268.65,139.23,269.6Z"/><path class="cls-4" d="M136.12,264.35H136a.86.86,0,0,0-.59,0h-.15l-.29,3.67c0,.11.05.21.21.29a1.39,1.39,0,0,0,1.06,0c.17-.08.23-.19.21-.3l-.3-3.5Z"/><path class="cls-19" d="M135.66,259.25c-2.64,0-4.79,1.78-4.79,4s2.15,4,4.79,4,4.8-1.78,4.8-4S138.31,259.25,135.66,259.25Z"/><path class="cls-3" d="M156,278a9.28,9.28,0,0,1-7.13,0c-2-.94-2-2.47,0-3.42a9.37,9.37,0,0,1,7.13,0C157.92,275.53,157.92,277.06,156,278Z"/><path class="cls-4" d="M152.84,272.76h-.15a.86.86,0,0,0-.59,0H152l-.29,3.67c0,.11.05.21.21.29a1.39,1.39,0,0,0,1.06,0c.17-.08.23-.19.21-.3l-.3-3.5Z"/><path class="cls-20" d="M152.39,267.66c-2.65,0-4.8,1.78-4.8,4s2.15,4,4.8,4,4.79-1.78,4.79-4S155,267.66,152.39,267.66Z"/><polygon class="cls-3" points="335.26 137.43 115.3 242.81 0.77 187.87 220.74 82.48 335.26 137.43"/><polygon class="cls-21" points="49.26 150.96 49.26 157.94 56.54 154.45 49.26 150.96"/><polygon class="cls-22" points="114.47 235.61 14.03 187.41 14.03 178.88 114.47 227.07 114.47 235.61"/><polygon class="cls-23" points="114.47 235.61 114.47 227.07 317.11 129.78 317.11 138.32 114.47 235.61"/><polygon class="cls-24" points="114.47 227.07 14.03 178.88 216.66 81.59 317.11 129.78 114.47 227.07"/><polygon class="cls-25" points="211.69 159.92 211.69 172.35 191.34 162.59 191.34 150.16 211.69 159.92"/><polygon class="cls-26" points="301.36 129.33 211.69 172.35 211.69 159.92 301.36 116.9 301.36 129.33"/><polygon class="cls-24" points="301.36 116.9 211.69 159.92 191.34 150.16 281.01 107.15 301.36 116.9"/><polygon class="cls-22" points="298.78 117 296.1 118.27 281 111.03 281 108.47 298.78 117"/><polygon class="cls-26" points="281 111.03 196.45 151.45 193.78 150.16 281 108.47 281 111.03"/><polygon class="cls-27" points="296.1 118.27 211.56 158.69 196.45 151.45 281 111.03 296.1 118.27"/><path class="cls-28" d="M290.73,115.57c0,3.45-3.37,6.26-7.52,6.26s-7.52-2.81-7.52-6.26,3.37-6.25,7.52-6.25S290.73,112.12,290.73,115.57Z"/><path class="cls-29" d="M279.48,120.79c0,3.64-3.55,6.59-7.94,6.59s-7.93-2.95-7.93-6.59,3.55-6.6,7.93-6.6S279.48,117.15,279.48,120.79Z"/><path class="cls-28" d="M267.41,126.74c0,3.46-3.37,6.26-7.53,6.26s-7.51-2.8-7.51-6.26,3.36-6.25,7.51-6.25S267.41,123.29,267.41,126.74Z"/><path class="cls-29" d="M257.18,131c0,4.05-4,7.34-8.83,7.34s-8.82-3.29-8.82-7.34,3.95-7.33,8.82-7.33S257.18,127,257.18,131Z"/><path class="cls-28" d="M246.28,136.87c0,3.45-3.37,6.25-7.53,6.25s-7.52-2.8-7.52-6.25,3.37-6.25,7.52-6.25S246.28,133.42,246.28,136.87Z"/><path class="cls-29" d="M234.85,142.36c0,3.46-3.37,6.26-7.52,6.26s-7.54-2.8-7.54-6.26,3.38-6.25,7.54-6.25S234.85,138.91,234.85,142.36Z"/><path class="cls-28" d="M222.31,147.31c0,4.47-4.36,8.1-9.75,8.1s-9.75-3.63-9.75-8.1,4.37-8.11,9.75-8.11S222.31,142.83,222.31,147.31Z"/><polygon class="cls-30" points="114.46 82.81 73.98 124.44 73.98 145 114.46 103.53 114.46 82.81"/><polygon class="cls-30" points="65.25 107.62 22.75 151.33 22.75 171.88 65.25 128.34 65.25 107.62"/><polygon class="cls-25" points="113.55 206.17 113.55 218.59 93.2 208.83 93.2 196.41 113.55 206.17"/><polygon class="cls-26" points="203.22 175.57 113.55 218.59 113.55 206.17 203.22 163.15 203.22 175.57"/><polygon class="cls-24" points="203.22 163.15 113.55 206.17 93.2 196.41 182.87 153.38 203.22 163.15"/><polygon class="cls-22" points="200.63 163.23 197.96 164.51 182.85 157.27 182.85 154.71 200.63 163.23"/><polygon class="cls-26" points="182.85 157.27 98.31 197.69 95.63 196.4 182.85 154.71 182.85 157.27"/><polygon class="cls-27" points="197.96 164.51 113.41 204.94 98.31 197.69 182.85 157.27 197.96 164.51"/><path class="cls-28" d="M192.58,161.81c0,3.46-3.36,6.25-7.52,6.25s-7.52-2.79-7.52-6.25,3.37-6.25,7.52-6.25S192.58,158.36,192.58,161.81Z"/><path class="cls-29" d="M181.34,167c0,3.64-3.55,6.59-7.94,6.59s-7.94-3-7.94-6.59,3.56-6.6,7.94-6.6S181.34,163.39,181.34,167Z"/><path class="cls-28" d="M169.26,173c0,3.45-3.37,6.25-7.52,6.25s-7.51-2.8-7.51-6.25,3.36-6.25,7.51-6.25S169.26,169.53,169.26,173Z"/><path class="cls-29" d="M159,177.25c0,4.05-3.95,7.33-8.82,7.33s-8.82-3.28-8.82-7.33,4-7.33,8.82-7.33S159,173.2,159,177.25Z"/><path class="cls-28" d="M148.13,183.12c0,3.44-3.37,6.24-7.52,6.24s-7.52-2.8-7.52-6.24,3.36-6.26,7.52-6.26S148.13,179.66,148.13,183.12Z"/><path class="cls-29" d="M136.71,188.6c0,3.46-3.37,6.26-7.53,6.26s-7.53-2.8-7.53-6.26,3.38-6.25,7.53-6.25S136.71,185.15,136.71,188.6Z"/><path class="cls-28" d="M124.16,193.55c0,4.48-4.36,8.1-9.74,8.1s-9.75-3.62-9.75-8.1,4.36-8.11,9.75-8.11S124.16,189.07,124.16,193.55Z"/><polygon class="cls-23" points="317.11 129.84 313.14 131.76 312.37 127.63 312.37 67.42 265.98 5.05 221.41 22.2 221.41 83.83 217.43 85.73 216.66 81.72 216.66 20.16 212.69 21.58 216.66 19.68 267.8 0 317.11 66.3 317.11 129.84"/><polygon class="cls-22" points="313.14 131.76 308.39 129.55 308.39 69.32 262 6.96 217.43 24.1 217.43 85.73 212.69 83.62 212.69 21.58 263.82 1.92 313.14 68.2 313.14 131.76"/><polygon class="cls-22" points="218 66.64 308.39 109.96 308.39 105.36 218 62.04 218 66.64"/><polygon class="cls-23" points="218 62.09 308.39 105.36 308.39 101.95 221.43 60.45 218 62.09"/><polygon class="cls-22" points="218 30.94 308.39 74.25 308.39 69.65 218 26.33 218 30.94"/><polygon class="cls-23" points="218 26.38 309.06 69.97 304.86 64.57 221.43 24.74 218 26.38"/><polygon class="cls-23" points="313.14 72.79 267.97 94.47 267.97 89.87 313.14 68.2 313.14 72.79"/><polygon class="cls-22" points="313.14 68.2 267.97 89.87 266.13 87.41 309.71 66.56 313.14 68.2"/><polygon class="cls-22" points="216.11 27.83 170.94 49.5 170.94 44.9 216.11 23.23 216.11 27.83"/><polygon class="cls-23" points="216.11 23.23 170.94 44.9 167.47 43.23 212.69 21.58 216.11 23.23"/><polygon class="cls-23" points="267.97 153.43 264 155.33 263.22 151.21 263.22 90.99 216.84 28.63 172.26 45.78 172.26 107.41 168.28 109.32 167.52 105.3 167.52 43.74 163.55 45.17 167.52 43.26 218.65 23.58 267.97 89.87 267.97 153.43"/><polygon class="cls-22" points="264 155.33 259.25 153.12 259.25 92.9 212.86 30.54 168.28 47.68 168.28 109.32 163.55 107.21 163.55 45.17 214.68 25.49 264 91.78 264 155.33"/><polygon class="cls-22" points="166.96 51.41 121.8 73.08 121.8 68.48 166.96 46.81 166.96 51.41"/><polygon class="cls-23" points="166.96 46.81 121.8 68.48 118.32 66.81 163.55 45.17 166.96 46.81"/><polygon class="cls-23" points="264 96.38 218.82 118.05 218.82 113.45 264 91.78 264 96.38"/><polygon class="cls-22" points="264 91.78 218.82 113.45 216.99 110.99 260.57 90.14 264 91.78"/><polygon class="cls-25" points="149.22 130.13 149.22 142.56 128.88 132.8 128.88 120.37 149.22 130.13"/><polygon class="cls-26" points="238.89 99.54 149.22 142.56 149.22 130.13 238.89 87.11 238.89 99.54"/><polygon class="cls-24" points="238.89 87.11 149.22 130.13 128.88 120.37 218.55 77.35 238.89 87.11"/><polygon class="cls-22" points="236.31 87.2 233.63 88.48 218.53 81.24 218.53 78.67 236.31 87.2"/><polygon class="cls-26" points="218.53 81.24 133.98 121.66 131.3 120.37 218.53 78.67 218.53 81.24"/><polygon class="cls-27" points="233.63 88.48 149.08 128.91 133.98 121.66 218.53 81.24 233.63 88.48"/><path class="cls-28" d="M228.26,85.78c0,3.45-3.37,6.25-7.52,6.25s-7.53-2.8-7.53-6.25,3.38-6.25,7.53-6.25S228.26,82.33,228.26,85.78Z"/><path class="cls-29" d="M217,91c0,3.65-3.55,6.6-7.93,6.6s-7.94-3-7.94-6.6,3.55-6.59,7.94-6.59S217,87.35,217,91Z"/><path class="cls-28" d="M204.94,97c0,3.45-3.37,6.25-7.53,6.25s-7.51-2.8-7.51-6.25,3.36-6.25,7.51-6.25S204.94,93.5,204.94,97Z"/><path class="cls-29" d="M194.72,101.22c0,4-4,7.34-8.83,7.34s-8.83-3.29-8.83-7.34,3.95-7.33,8.83-7.33S194.72,97.17,194.72,101.22Z"/><path class="cls-28" d="M183.81,107.08c0,3.46-3.38,6.25-7.53,6.25s-7.51-2.79-7.51-6.25,3.36-6.25,7.51-6.25S183.81,103.63,183.81,107.08Z"/><path class="cls-29" d="M172.38,112.57c0,3.46-3.37,6.26-7.53,6.26s-7.52-2.8-7.52-6.26,3.36-6.25,7.52-6.25S172.38,109.12,172.38,112.57Z"/><path class="cls-28" d="M159.84,117.52c0,4.47-4.36,8.1-9.75,8.1s-9.75-3.63-9.75-8.1,4.37-8.11,9.75-8.11S159.84,113,159.84,117.52Z"/><polygon class="cls-23" points="218.82 177 214.85 178.91 214.08 174.79 214.08 114.57 167.69 52.21 123.11 69.35 123.11 130.99 119.14 132.9 118.38 128.88 118.38 67.33 114.4 68.75 118.38 66.84 169.51 47.16 218.82 113.45 218.82 177"/><polygon class="cls-22" points="214.85 178.91 210.1 176.7 210.1 116.48 163.71 54.11 119.14 71.27 119.14 132.9 114.4 130.78 114.4 68.75 165.53 49.07 214.85 115.36 214.85 178.91"/><polygon class="cls-22" points="117.82 74.98 72.66 96.65 72.66 92.06 117.82 70.39 117.82 74.98"/><polygon class="cls-23" points="117.82 70.39 72.66 92.06 69.18 90.39 114.4 68.75 117.82 70.39"/><polygon class="cls-23" points="169.68 200.58 165.7 202.49 164.93 198.37 164.93 138.15 118.55 75.78 73.98 92.93 73.98 154.64 70 156.54 69.23 152.45 69.23 90.99 65.25 92.32 69.23 90.42 120.37 70.73 169.68 137.03 169.68 200.58"/><polygon class="cls-22" points="165.7 202.49 160.96 200.21 160.96 140.06 114.57 77.69 70 94.84 70 156.54 65.25 154.3 65.25 92.32 116.39 72.64 165.7 138.94 165.7 202.49"/><polygon class="cls-25" points="51.49 176.39 51.49 188.81 31.14 179.06 31.14 166.63 51.49 176.39"/><polygon class="cls-26" points="141.16 145.8 51.49 188.81 51.49 176.39 141.16 133.37 141.16 145.8"/><polygon class="cls-24" points="141.16 133.37 51.49 176.39 31.14 166.63 120.81 123.61 141.16 133.37"/><polygon class="cls-22" points="138.58 133.46 135.9 134.74 120.8 127.5 120.8 124.93 138.58 133.46"/><polygon class="cls-26" points="120.8 127.5 36.25 167.92 33.57 166.63 120.8 124.93 120.8 127.5"/><polygon class="cls-27" points="135.9 134.74 51.34 175.16 36.25 167.92 120.8 127.5 135.9 134.74"/><path class="cls-28" d="M130.53,132c0,3.45-3.37,6.25-7.53,6.25s-7.52-2.8-7.52-6.25,3.38-6.25,7.52-6.25S130.53,128.59,130.53,132Z"/><path class="cls-29" d="M119.28,137.26c0,3.63-3.56,6.59-7.94,6.59s-7.94-3-7.94-6.59,3.56-6.6,7.94-6.6S119.28,133.61,119.28,137.26Z"/><path class="cls-28" d="M107.21,143.21c0,3.45-3.37,6.25-7.52,6.25s-7.52-2.8-7.52-6.25S95.53,137,99.69,137,107.21,139.75,107.21,143.21Z"/><path class="cls-29" d="M97,147.48c0,4.05-4,7.34-8.83,7.34s-8.82-3.29-8.82-7.34,4-7.34,8.82-7.34S97,143.43,97,147.48Z"/><path class="cls-28" d="M86.07,153.34c0,3.45-3.37,6.25-7.52,6.25S71,156.79,71,153.34s3.37-6.25,7.52-6.25S86.07,149.88,86.07,153.34Z"/><path class="cls-29" d="M74.65,158.83c0,3.46-3.37,6.25-7.53,6.25s-7.52-2.79-7.52-6.25,3.36-6.25,7.52-6.25S74.65,155.37,74.65,158.83Z"/><path class="cls-28" d="M62.11,163.77c0,4.48-4.36,8.11-9.75,8.11s-9.75-3.63-9.75-8.11,4.36-8.1,9.75-8.1S62.11,159.3,62.11,163.77Z"/><polygon class="cls-22" points="68.72 98.58 21.46 121.25 21.46 116.65 68.72 93.98 68.72 98.58"/><polygon class="cls-23" points="68.72 93.98 21.46 116.65 18 115 65.29 92.34 68.72 93.98"/><polygon class="cls-23" points="118.45 225.16 114.47 227.07 113.7 222.95 113.7 162.73 67.31 100.36 22.75 117.52 22.75 179.21 18.76 181.12 18 177.03 18 115.67 14.03 116.9 18 115 69.14 95.32 118.45 161.61 118.45 225.16"/><polygon class="cls-22" points="114.47 227.07 109.73 224.79 109.73 164.64 63.34 102.27 18.76 119.42 18.76 181.12 14.03 178.88 14.03 116.9 65.16 97.22 114.47 163.52 114.47 227.07"/><polygon class="cls-23" points="165.7 143.53 118.45 166.21 118.45 161.61 165.7 138.94 165.7 143.53"/><polygon class="cls-22" points="165.7 138.94 118.45 161.61 116.61 159.14 162.28 137.3 165.7 138.94"/><polygon class="cls-22" points="18.76 162.21 41.89 173.26 41.89 168.67 18.76 157.61 18.76 162.21"/><polygon class="cls-23" points="18.76 157.66 41.89 168.67 45.45 166.97 22.18 156.03 18.76 157.66"/><polygon class="cls-23" points="214.85 119.96 169.68 141.63 169.68 137.03 214.85 115.36 214.85 119.96"/><polygon class="cls-22" points="214.85 115.36 169.68 137.03 167.85 134.57 211.43 113.72 214.85 115.36"/><polygon class="cls-23" points="69.14 95.32 116.39 72.64 119.14 76.34 72.26 99.51 69.14 95.32"/><polygon class="cls-23" points="120.37 70.73 165.53 49.07 168.28 52.77 123.48 74.93 120.37 70.73"/><polygon class="cls-23" points="169.51 47.16 214.68 25.49 217.43 29.19 172.63 51.35 169.51 47.16"/><polygon class="cls-23" points="218.65 23.58 263.82 1.92 266.57 5.61 221.78 27.77 218.65 23.58"/><polygon class="cls-23" points="45.51 140.36 41.89 142.19 45.51 190.35 45.65 193.98 49.26 192.15 49.26 147.4 86.27 165.15 86.27 209.9 87.07 213.86 90.69 212.03 90.69 162.04 45.51 140.36"/><polygon class="cls-22" points="41.89 142.19 41.89 192.18 45.65 193.98 45.65 149.22 82.67 166.98 82.67 211.74 87.07 213.86 87.07 163.87 41.89 142.19"/><polygon class="cls-22" points="87.03 194.89 109.73 205.89 109.73 201.28 87.03 190.28 87.03 194.89"/><polygon class="cls-23" points="87.03 190.28 109.73 201.28 109.73 197.85 90.45 188.64 87.03 190.28"/><polygon class="cls-31" points="90.69 162.04 90.69 188.75 109.73 197.85 109.73 164.64 63.34 102.27 22.75 117.89 22.75 156.29 41.89 165.08 41.89 142.19 45.51 140.36 90.69 162.04"/><polygon class="cls-30" points="22.75 129.87 72.66 114.8 88.89 136.61 51.42 143.21 45.51 140.36 41.89 142.19 41.89 146.43 22.75 149.46 22.75 129.87"/><polygon class="cls-32" points="22.75 164.12 22.75 179.21 41.89 188.38 41.89 173.26 22.75 164.12"/><polygon class="cls-33" points="90.69 196.65 90.69 211.8 109.73 220.94 109.73 205.89 90.69 196.65"/><polygon class="cls-34" points="118.45 166.21 160.96 145.81 160.96 200.21 118.45 220.61 118.45 166.21"/><polygon class="cls-35" points="169.68 141.63 210.1 122.23 210.1 176.7 169.68 196.03 169.68 141.63"/><polygon class="cls-36" points="123.48 74.93 164.21 54.78 208.93 114.91 167.85 134.57 123.48 74.93"/><polygon class="cls-30" points="169.41 61.76 149.17 109.5 163.54 128.81 183.88 81.22 169.41 61.76"/><polygon class="cls-37" points="72.26 99.51 115.06 78.36 159.79 138.49 116.61 159.14 72.26 99.51"/><polygon class="cls-30" points="118.38 82.81 96.98 132.75 111.34 152.06 132.85 102.27 118.38 82.81"/><polygon class="cls-30" points="123.48 218.19 136.36 157.61 152.23 150 138.58 210.95 123.48 218.19"/><polygon class="cls-30" points="175.52 192.92 188.39 132.66 204.16 125.09 190.62 185.69 175.52 192.92"/><polygon class="cls-38" points="218.82 118.02 259.24 98.62 259.24 153.09 218.82 172.42 218.82 118.02"/><polygon class="cls-39" points="172.62 51.32 213.35 31.17 258.07 91.3 216.99 110.95 172.62 51.32"/><polygon class="cls-30" points="218.55 38.15 198.31 85.89 212.67 105.2 233.03 57.61 218.55 38.15"/><polygon class="cls-30" points="224.66 169.32 237.53 109.04 253.29 101.48 239.75 162.07 224.66 169.32"/><polygon class="cls-40" points="267.97 94.44 308.39 75.04 308.39 129.5 267.97 148.84 267.97 94.44"/><polygon class="cls-41" points="221.78 27.74 262.49 7.6 307.22 67.72 266.13 87.37 221.78 27.74"/><polygon class="cls-30" points="267.7 14.57 247.46 62.31 261.83 81.62 282.17 34.02 267.7 14.57"/><polygon class="cls-30" points="273.81 145.74 286.68 85.47 302.45 77.9 288.91 138.49 273.81 145.74"/><path class="cls-42" d="M333,140.1l.08.07a7.69,7.69,0,0,1-.07-.85l-.71,1.17C332.77,140.26,332.51,140.11,333,140.1Z"/><path class="cls-42" d="M361,150.22c-4.58-1.35-10.38-1.88-14.52-3.91-4.7-2.31-3.36-6.12-6.05-9.23-1.34,2.94,2.16,6.13,2.43,9-4.91-.22-6.9-3.12-9.81-5.88.71,9.67,19.3,9.44,27.6,12.19,4.68,1.55,8,6.71,6,10.84-.76,1.61-5.5,3.78-8.49,5.78,6.83-2.74,14.67-2.62,22.52-2.07-1-1.4-4.2-2.49-5.26-4.24a15.83,15.83,0,0,1-2-6c-.57-4.32-.37-9.39,3.46-12.46,3.58-2.87,9.1-4.38,12.59-7.51a6.62,6.62,0,0,0,2-4.31c3.2-2.63,9.66-7.42,6.13-10.76-.87,1.78-.63,3.63-1.79,5.36-1,1.44-2.94,2.37-4.22,3.65.07-3.48-.62-7.28,1.28-9.73-3.21-.35-2.44,10.14-3.95,12.4-2.09,3.16-9.2,4.74-13,6.34-11.59,4.95-17.11-4.09-20-12.45a8.45,8.45,0,0,1-.05-2.56c-4.53,1.93.68,9.35,2.55,11.68,2.52,3.15,7.63,5.58,9.67,8.78.84,1.32,1.16,4.83-.44,6C365.94,152.42,363.14,150.84,361,150.22Z"/><path class="cls-43" d="M389.26,80.21c-8.72-3.18-13.77.82-21.26,3-6.19,1.77-13.83-1.06-20.67,2.65-5.49,3-11,12.26-8.12,17l-.8,2c-7.41.91-7.89,12.11.67,11.32-2.26,8.4,12.85,9.78,20,10.61,8.91,1,14.6-.71,22.07-4.51,8,6.67,23.36-.65,26.61-7.52,2.74-5.81,3.56-19.91-8-19.24C402.18,88.45,397.94,83.37,389.26,80.21Z"/><path class="cls-44" d="M370.38,106.7l-.13,0a26.11,26.11,0,0,1-13.9,3.58c-7.88,0-13.72-2.61-17.56-6.48l-.38,1c-7.41.91-7.89,12.11.67,11.32-2.26,8.4,12.85,9.78,20,10.61,8.91,1,14.6-.71,22.07-4.51,8,6.67,23.36-.65,26.61-7.52,2.74-5.81,3.56-19.91-8-19.24,2.48-7-1.76-12.08-10.44-15.24l-.18,0a16.26,16.26,0,0,1,1.42,6.39v.66C390.5,97,381.65,105.17,370.38,106.7Z"/><path class="cls-45" d="M373,113.62c-.36,0-.69,0-1-.05-.43.24-.78.53-1.22.74a25.68,25.68,0,0,1-14.42,3.93c-11.18,0-18.27-5.25-21.32-11.91-3.82,3.25-2.88,10.41,4.05,9.78-2.26,8.4,12.85,9.78,20,10.61,8.91,1,14.6-.71,22.07-4.51,8,6.67,23.36-.65,26.61-7.52,2.74-5.81,3.56-19.91-8-19.24,2.27-6.41-1.14-11.19-8.38-14.38.3.38.53.79.8,1.18C401.09,93.85,394.74,113.62,373,113.62Z"/><path class="cls-43" d="M336.39,126.25c-1.62-2-8.74-1.5-11.62-.53-4,1.37-7.85,4.79-8.25,8.49-.75,7,5.37,8.57,12.79,9.43,6.38.73,11.59.45,11.74-5.56,12.4.45,7-14.16-4.31-11.83Z"/><path class="cls-44" d="M327.52,135.52c-3.28.35-7.18-1.38-9.4-3.23a10.21,10.21,0,0,1-.73-.74,7.36,7.36,0,0,0-.87,2.66c-.75,7,5.37,8.57,12.79,9.43,6.38.73,11.59.45,11.74-5.56,8.3.3,8.59-6.12,4.51-9.72a21.66,21.66,0,0,1-6.7,3.5,16,16,0,0,1-5.94,3A31.51,31.51,0,0,1,327.52,135.52Z"/><path class="cls-45" d="M328.93,139.06c-6.25,0-10.21-2.94-11.9-6.68a6.76,6.76,0,0,0-.51,1.83c-.75,7,5.37,8.57,12.79,9.43,6.38.73,11.59.45,11.74-5.56,5.21.19,7.25-2.28,7.05-5-.17.09-.32.19-.5.28a15.41,15.41,0,0,1-6.71,1.51c-.5,0-1,0-1.53-.08C337.26,137.29,333.78,139.06,328.93,139.06Z"/><path class="cls-42" d="M354.7,109.79c.16,0,.8,0,1,0,.55-5,5.52-8,5-13.47a6,6,0,0,1-.95,0c-.29,1.66-.71,5.89-2.62,7-2.32,1.3-5.87-1-8-1.36.43,2.28,6,1.74,6.59,4a1.86,1.86,0,0,1,.11-.19v.59c0-.15-.08-.26-.11-.4A5.1,5.1,0,0,0,354.7,109.79Z"/><path class="cls-43" d="M336.55,82.88c-15,1.43-13.63,21.25,1.22,16,3.47,7.25,10,5.63,17.32,2.33,8.56-3.83,15.14-8.08,10.41-16.3-2.5-4.35-9-7.07-14.66-7.21-4-.1-13,2-13.85,5Z"/><path class="cls-44" d="M337.77,98.91c3.47,7.25,10,5.63,17.32,2.33,8.56-3.83,15.14-8.08,10.41-16.3a10.8,10.8,0,0,0-2.5-2.89c-.17.38-.28.79-.48,1.16-1.7,3.09-5.5,6.67-9.68,7.48a40.14,40.14,0,0,1-6.94,1.21A23,23,0,0,1,337,90.52,32,32,0,0,1,327,88.78C324,94.69,327.84,102.4,337.77,98.91Z"/><path class="cls-45" d="M327.2,95.59l-.76-.15c1.27,3.42,5.1,5.66,11.33,3.47,3.47,7.25,10,5.63,17.32,2.33,8.56-3.83,15.14-8.08,10.41-16.3a10.19,10.19,0,0,0-1.61-2c0,5.18-3.23,10.26-10.84,12.62-5.9,1.83-11.1,1-15-1.3-.6.24-1.21.48-1.82.67A20.36,20.36,0,0,1,327.2,95.59Z"/><path class="cls-43" d="M407.29,118.91c3.46,7.26,10,5.64,17.32,2.34,8.56-3.84,15.14-8.09,10.41-16.3-2.5-4.35-9-7.07-14.66-7.22-4-.1-13,2-13.85,5l-.44.13C391.06,104.32,392.44,124.13,407.29,118.91Z"/><path class="cls-44" d="M407.29,118.91c3.46,7.26,10,5.64,17.32,2.34,8.56-3.84,15.14-8.09,10.41-16.3a11,11,0,0,0-2.5-2.9c-.17.39-.28.79-.49,1.17-1.69,3.08-5.49,6.66-9.67,7.47a41.13,41.13,0,0,1-6.94,1.22,23.18,23.18,0,0,1-8.86-1.39,31.77,31.77,0,0,1-10.07-1.74C393.48,114.7,397.36,122.4,407.29,118.91Z"/><path class="cls-45" d="M407.29,118.91c3.46,7.26,10,5.64,17.32,2.34,8.56-3.84,15.14-8.09,10.41-16.3a10,10,0,0,0-1.61-2c0,5.19-3.23,10.27-10.85,12.63-5.89,1.82-11.09,1-15-1.31-.6.24-1.21.48-1.82.67a20.37,20.37,0,0,1-9,.69c-.26,0-.5-.1-.76-.15C397.23,118.86,401.05,121.1,407.29,118.91Z"/><path class="cls-43" d="M414.64,129.93c10.61.38,6-12.11-3.69-10.13h-.3c-1.38-1.67-7.48-1.28-9.94-.44-3.45,1.16-6.71,4.09-7,7.25-.64,6,4.59,7.34,10.94,8.07C410.05,135.3,414.51,135.06,414.64,129.93Z"/><path class="cls-44" d="M414.64,129.93c7.1.25,7.35-5.25,3.86-8.32a18.47,18.47,0,0,1-5.73,3,13.68,13.68,0,0,1-5.09,2.56,27.27,27.27,0,0,1-4.62.58c-2.8.29-6.13-1.19-8-2.77a7.36,7.36,0,0,1-.62-.63,6,6,0,0,0-.75,2.27c-.64,6,4.59,7.34,10.94,8.07C410.05,135.3,414.51,135.06,414.64,129.93Z"/><path class="cls-45" d="M414.64,129.93c4.45.16,6.19-2,6-4.31l-.43.24a13.26,13.26,0,0,1-5.74,1.29c-.43,0-.87,0-1.31-.07-1.8,2.17-4.76,3.68-8.91,3.68-5.35,0-8.74-2.52-10.18-5.71a5.52,5.52,0,0,0-.44,1.56c-.64,6,4.59,7.34,10.94,8.07C410.05,135.3,414.51,135.06,414.64,129.93Z"/><path class="cls-46" d="M337.27,171.83c-.91.1-4.41.61-4.44,1.75,0,.63,4.74,1.65,5.72,1.82a8,8,0,0,1,3,.92,5.75,5.75,0,0,0,2.72.66,52.85,52.85,0,0,0,6.54,0c1,0,1.95,0,2.92,0a12.1,12.1,0,0,0,3.15-.71c1.79-.47,4.07,0,5.63-.82.81-.43,1.25-1,.47-1.78-1.27-1.19-4.65-.78-6.33-.87-5.5-.28-11,0-16.44-.67a11.53,11.53,0,0,0-1.55-.2Z"/><path class="cls-43" d="M356.94,155.23c-3.81-1.38-6,.36-9.28,1.29-2.7.77-6-.47-9,1.15-2.39,1.3-4.78,5.35-3.54,7.42l-.35.86c-3.23.4-3.43,5.28.29,4.94-1,3.67,5.61,4.27,8.72,4.63,3.89.45,6.37-.31,9.63-2,3.48,2.91,10.18-.28,11.61-3.28,1.19-2.53,1.54-8.68-3.51-8.39C362.57,158.83,360.72,156.61,356.94,155.23Z"/><path class="cls-44" d="M348.7,166.78l-.06,0a11.32,11.32,0,0,1-6.06,1.56,10.43,10.43,0,0,1-7.66-2.82l-.17.41c-3.23.4-3.43,5.28.29,4.94-1,3.67,5.61,4.27,8.72,4.63,3.89.45,6.37-.31,9.63-2,3.48,2.91,10.18-.28,11.61-3.28,1.19-2.53,1.54-8.68-3.51-8.39,1.08-3-.77-5.27-4.55-6.65l-.09,0a7,7,0,0,1,.63,2.79v.29C357.48,162.53,353.62,166.12,348.7,166.78Z"/><path class="cls-45" d="M349.85,169.81l-.45,0c-.19.1-.34.23-.53.32a11.25,11.25,0,0,1-6.29,1.71c-4.88,0-8-2.29-9.3-5.2-1.66,1.42-1.26,4.55,1.76,4.27-1,3.67,5.61,4.27,8.72,4.63,3.89.45,6.37-.31,9.63-2,3.48,2.91,10.18-.28,11.61-3.28,1.19-2.53,1.54-8.68-3.51-8.39,1-2.79-.5-4.88-3.66-6.27.13.16.23.34.35.51C362.1,161.18,359.32,169.81,349.85,169.81Z"/><path class="cls-46" d="M363,187.09a7.8,7.8,0,0,0,3.69.89,71,71,0,0,0,8.87,0c1.36-.06,2.65,0,4,0a16,16,0,0,0,4.27-1c2.42-.64,5.53,0,7.64-1.12,1.09-.58,1.69-1.41.64-2.4-1.73-1.62-6.32-1.06-8.6-1.18-7.44-.39-14.93,0-22.31-.92a13.13,13.13,0,0,0-2.09-.27l-1.9-.13c-1.25.13-6,.82-6,2.37,0,.85,6.44,2.24,7.77,2.47A10.74,10.74,0,0,1,363,187.09Z"/><path class="cls-43" d="M354.12,179.72c-1.34,5,7.6,5.79,11.83,6.28,5.27.61,8.64-.42,13.05-2.67,4.73,3.95,13.83-.39,15.75-4.45,1.62-3.44,2.11-11.78-4.76-11.39,1.47-4.13-1-7.14-6.17-9s-8.16.48-12.59,1.75c-3.66,1-8.18-.64-12.23,1.56-3.25,1.76-6.49,7.26-4.81,10.06l-.47,1.17C349.34,173.56,349.06,180.19,354.12,179.72Z"/><path class="cls-44" d="M372.64,174.15l-.08,0a15.42,15.42,0,0,1-8.23,2.12c-4.65,0-8.11-1.54-10.39-3.83l-.22.56c-4.38.54-4.66,7.17.4,6.7-1.34,5,7.6,5.79,11.83,6.28,5.27.61,8.64-.42,13.05-2.67,4.73,3.95,13.83-.39,15.75-4.45,1.62-3.44,2.11-11.78-4.76-11.39,1.47-4.13-1-7.14-6.17-9l-.11,0a9.6,9.6,0,0,1,.84,3.78v.39C384.55,168.39,379.31,173.25,372.64,174.15Z"/><path class="cls-45" d="M374.21,178.25c-.21,0-.41,0-.62,0-.25.14-.45.31-.72.44a15.22,15.22,0,0,1-8.54,2.32c-6.61,0-10.81-3.1-12.61-7-2.26,1.93-1.7,6.17,2.4,5.79-1.34,5,7.6,5.79,11.83,6.28,5.27.61,8.64-.42,13.05-2.67,4.73,3.95,13.83-.39,15.75-4.45,1.62-3.44,2.11-11.78-4.76-11.39,1.35-3.78-.67-6.61-4.95-8.5.17.22.31.46.47.69C390.82,166.55,387.06,178.25,374.21,178.25Z"/></svg>