<svg id="Layer_1" data-name="Layer 1" xmlns="http://www.w3.org/2000/svg" viewBox="0 0 55.64 62.78"><defs><style>.cls-1{opacity:0.3;}.cls-2{fill:#feb51c;}.cls-3{fill:#f4a00b;}.cls-4{fill:#ffebcc;}.cls-5{fill:#f7dcb7;}.cls-6{fill:#fff;}.cls-7{fill:#ff6485;}.cls-8{fill:#824030;}.cls-9{fill:#ffd385;}.cls-10{fill:#ffe0b3;}.cls-11{fill:#f7c169;}</style></defs><path class="cls-1" d="M27.22,37.3c2.26,3.08,9.84,5.22,16.94,4.77s11-3.31,8.75-6.4S43.07,30.44,36,30.89,25,34.21,27.22,37.3Z"/><path class="cls-2" d="M36.63,35.67c.17-.76.58-1.54.7-2.42.08-.63,0-1.8,0-2.27,0-.65.07-.74-.53-.91L36.54,30a10.93,10.93,0,0,1-.44,2.39,4.83,4.83,0,0,1-2,2.52,11.26,11.26,0,0,0-1.85,2,3.48,3.48,0,0,0,1-.4,16.36,16.36,0,0,0,1.37-1.15c.38-.33.55-.18.46-.08l-.38.48a8.37,8.37,0,0,0-.51.75c-.7.84-1.35,1.73-2,2.59a4.73,4.73,0,0,0,.65-.31,11.15,11.15,0,0,0,2.51-2.4c.13-.22.36-.73.47-.86s.15.1.12.24-.14.9-.14.9a2.39,2.39,0,0,0,.37,1.52,6.22,6.22,0,0,0,.23-.79C36.42,37,36.49,36.25,36.63,35.67Z"/><path class="cls-3" d="M36.55,38.18a8.89,8.89,0,0,1,.34-2c.07-.2.45-1.47.55-1.65a1.67,1.67,0,0,1,.7-.62c.3-.13.6-.06.65-.3-.2-.6-1-.24-1-.67,0-.23.19-1.57.17-2,0-1.17.07-3.62,0-3.63l-1.36-.26c-.19,0,0,1.58,0,2.25,0,.23,0,.46,0,.68l.24.07c.6.17.54.26.53.91,0,.47.1,1.64,0,2.27-.12.88-.53,1.66-.7,2.42-.14.58-.21,1.32-.31,1.72a6.22,6.22,0,0,1-.23.79C36.29,38.48,36.49,38.5,36.55,38.18Z"/><path class="cls-3" d="M35.74,35.52c-.11.13-.34.64-.47.86a11.15,11.15,0,0,1-2.51,2.4,4.73,4.73,0,0,1-.65.31L32,39.2c-.07.09,0,.26.12.23a7.56,7.56,0,0,0,3.58-2.77s.09-.65.14-.9S35.88,35.37,35.74,35.52Z"/><path class="cls-3" d="M35,35.27c.09-.1-.08-.25-.46.08a16.36,16.36,0,0,1-1.37,1.15,3.48,3.48,0,0,1-1,.4h0c-.07.11,0,.3.14.27a4.38,4.38,0,0,0,1.76-.68,8.37,8.37,0,0,1,.51-.75Z"/><path class="cls-2" d="M40.72,38.05a22.56,22.56,0,0,0,.7-2.42c.08-.63,0-1.79,0-2.26,0-.66.07-.75-.53-.91l-.24-.07a11,11,0,0,1-.44,2.39,4.82,4.82,0,0,1-2,2.51,11,11,0,0,0-1.86,2,3.84,3.84,0,0,0,1-.41,16.17,16.17,0,0,0,1.38-1.15c.37-.33.54-.18.45-.08s-.16.22-.38.48a8.37,8.37,0,0,0-.51.75c-.7.84-1.35,1.73-2,2.59a4.82,4.82,0,0,0,.66-.31,10.88,10.88,0,0,0,2.5-2.4,9.17,9.17,0,0,1,.48-.86c.13-.15.14.11.11.24s-.14.91-.14.91a2.36,2.36,0,0,0,.37,1.51,4.56,4.56,0,0,0,.23-.79C40.51,39.37,40.58,38.64,40.72,38.05Z"/><path class="cls-3" d="M40.64,40.56a9.53,9.53,0,0,1,.34-2c.07-.2.45-1.46.55-1.64a1.62,1.62,0,0,1,.7-.63c.3-.13.6-.06.65-.3-.2-.6-1-.24-1-.67,0-.22.19-1.57.17-2,0-1.17.07-3.62,0-3.63l-1.36-.26c-.19,0,0,1.58,0,2.25a5.25,5.25,0,0,1,0,.69l.24.07c.6.16.54.25.53.91,0,.47.1,1.63,0,2.26a22.56,22.56,0,0,1-.7,2.42c-.14.59-.21,1.32-.31,1.72a4.56,4.56,0,0,1-.23.79C40.38,40.86,40.59,40.88,40.64,40.56Z"/><path class="cls-3" d="M39.84,37.9a9.17,9.17,0,0,0-.48.86,10.88,10.88,0,0,1-2.5,2.4,4.82,4.82,0,0,1-.66.31.76.76,0,0,0-.08.11c-.08.09,0,.26.11.23a7.57,7.57,0,0,0,3.58-2.76s.09-.66.14-.91S40,37.75,39.84,37.9Z"/><path class="cls-3" d="M39.1,37.65c.09-.1-.08-.25-.45.08a16.17,16.17,0,0,1-1.38,1.15,3.84,3.84,0,0,1-1,.41h0a.17.17,0,0,0,.14.27,4.4,4.4,0,0,0,1.75-.69,8.37,8.37,0,0,1,.51-.75C38.94,37.87,39,37.75,39.1,37.65Z"/><path class="cls-4" d="M55.47,7.65a2.15,2.15,0,0,0-.23-.74c-.46,3.61-1.69,5.93-2.74,7,1.07.84.11,2.26-.68,2.85a2,2,0,0,1,.82,1.16c0,.49-.43.5-.93.55a7.58,7.58,0,0,0-1.79.25c1.25,1.25.49,3.82-.73,4.84a7,7,0,0,1-4.61,1.31,5.52,5.52,0,0,1-4.21-1.78c-1.24-1.48-.53-3.93-.17-5-.18-.13-1,.44-1.17.65a5.3,5.3,0,0,1,.39-2.07c-2.2.31-2.83,2.61-2.85,4.52a9.42,9.42,0,0,0,.33,2.95,2.5,2.5,0,0,1-1.22-1.77c-.85.51-.65,2-.08,2.81a9.53,9.53,0,0,1-2.71-1.87c-.93-1.09-1.73-2.74-1.16-4.16-.92-.23-2,2.31-2,3.7-1-1.6-2.08-3.2-1.15-5.18-.86.11-1.32,1.07-1.53,2.09a3.18,3.18,0,0,0,.66,1.72,17.88,17.88,0,0,0,1,3A4.72,4.72,0,0,0,31.9,26a3.71,3.71,0,0,1-.26-.53,2,2,0,0,1-.14-1.23,3.94,3.94,0,0,0,3.65,1.93c.12.33.73.65,1.14.8a2.74,2.74,0,0,0,1.42.06c-.14-.17-.35-.54-.27-.67a4.21,4.21,0,0,0,3,1.14,2.59,2.59,0,0,1-.33-1.38,2.67,2.67,0,0,1-1.64-.92,3.64,3.64,0,0,1-.35-3.45c.46,1.18.72,3.35,2.53,3.8a9.29,9.29,0,0,1-.06-.94,3.86,3.86,0,0,0,1.74,2.16,3.46,3.46,0,0,0,2.79.16,1.26,1.26,0,0,1-.41-.57,10.26,10.26,0,0,0,4.59.52l.4-.18a6.63,6.63,0,0,0,3.85-4.8,7.63,7.63,0,0,0-.11-2.73A20.8,20.8,0,0,0,55.21,14,18.63,18.63,0,0,0,55.47,7.65Z"/><path class="cls-5" d="M44.71,26.37a1.26,1.26,0,0,0,.41.57,3.46,3.46,0,0,1-2.79-.16,3.86,3.86,0,0,1-1.74-2.16,9.29,9.29,0,0,0,.06.94c-1.81-.45-2.07-2.62-2.53-3.8a3.64,3.64,0,0,0,.35,3.45,2.67,2.67,0,0,0,1.64.92,2.59,2.59,0,0,0,.33,1.38,4.21,4.21,0,0,1-3-1.14c-.08.13.13.5.27.67A2.74,2.74,0,0,1,36.29,27c-.41-.15-1-.47-1.14-.8a3.94,3.94,0,0,1-3.65-1.93,2,2,0,0,0,.14,1.23,3.71,3.71,0,0,0,.26.53,4.72,4.72,0,0,1-3.13-1.54,11,11,0,0,0,2.53,3.37c1.09,1,3.11,1.15,4.44,1.24,1.63.12,2.51.91,4.14,1.07a9.58,9.58,0,0,0,7.57-2.29,4.29,4.29,0,0,0,.46-.49,9.5,9.5,0,0,0,1.39-.48A10.26,10.26,0,0,1,44.71,26.37Z"/><path class="cls-4" d="M50.61,11.7a14.29,14.29,0,0,0,3-5,2.08,2.08,0,0,0-.31-1l-.08-.07c-.26.73-.76,2.07-1.06,2.76C51.28,10.32,50.87,11,50.61,11.7Z"/><path class="cls-4" d="M48.48,8.4a11.71,11.71,0,0,0-1,1.23l2.68-2.36A4.82,4.82,0,0,0,51.42,5.8a1.63,1.63,0,0,0-.05-.86,10,10,0,0,1-.76,1.17C50,6.87,48.84,8,48.48,8.4Z"/><path class="cls-4" d="M28,13.1c.45.08,1-.37,1.21-.71a3.14,3.14,0,0,0,.53-1.66,2.35,2.35,0,0,0,.72-3.22.2.2,0,0,0-.08-.12l0-.06s0,0,0,0v0a.14.14,0,0,0-.13.06,22,22,0,0,1-3,2.84c-.05,1.08-.34,2.26-.41,2.88,0,.27-.05.55-.07.82A2.05,2.05,0,0,0,28,13.1Z"/><path class="cls-6" d="M52.5,13.91c1-1.07,2.28-3.39,2.74-7-.37-.66-1.05-.64-1.67-.19a14.29,14.29,0,0,1-3,5c.26-.68.67-1.38,1.51-3.3.3-.69.8-2,1.06-2.76-.47-.49-1.16-.28-1.76.16a4.82,4.82,0,0,1-1.23,1.47L47.51,9.63a11.71,11.71,0,0,1,1-1.23C48.84,8,50,6.87,50.61,6.11a10,10,0,0,0,.76-1.17.72.72,0,0,0-.16-.25c-.54-.52-2,.25-2.66.59C46.87,6.59,45.36,8.37,45.34,9a4.06,4.06,0,0,0-3.61.61A8.26,8.26,0,0,0,36,10.92c-.11-2.62-3.15-6.79-3.59-7.4a7.32,7.32,0,0,0-2-.79A8.33,8.33,0,0,0,27.1,3a3.34,3.34,0,0,0-1.53,1.37c-.7,1.25-.84,2.81-.06,3.46a.12.12,0,0,0,.13.11h.12a4.2,4.2,0,0,0,.79.22,2.35,2.35,0,0,1,.65,2.1,22,22,0,0,0,3-2.84.14.14,0,0,1,.13-.06v0s0,0,0,0l0,.06a.2.2,0,0,1,.08.12,2.35,2.35,0,0,1-.72,3.22,3.14,3.14,0,0,1-.53,1.66c-.23.34-.76.79-1.21.71a2.06,2.06,0,0,1-1.28.88,23.26,23.26,0,0,0,.2,4.49c.05.41.09.85.15,1.29.21-1,.67-2,1.53-2.09-.93,2,.14,3.58,1.15,5.18,0-1.39,1-3.93,2-3.7-.57,1.42.23,3.07,1.16,4.16a9.53,9.53,0,0,0,2.71,1.87c-.57-.78-.77-2.3.08-2.81a2.5,2.5,0,0,0,1.22,1.77,9.42,9.42,0,0,1-.33-2.95c0-1.91.65-4.21,2.85-4.52A5.3,5.3,0,0,0,39,18.74c.14-.21,1-.78,1.17-.65-.36,1.07-1.07,3.52.17,5a5.52,5.52,0,0,0,4.21,1.78,7,7,0,0,0,4.61-1.31c1.22-1,2-3.59.73-4.84a7.58,7.58,0,0,1,1.79-.25c.5,0,.95-.06.93-.55a2,2,0,0,0-.82-1.16C52.61,16.17,53.57,14.75,52.5,13.91Z"/><path class="cls-4" d="M41.73,9.63A4.06,4.06,0,0,1,45.34,9c0-.65,1.53-2.43,3.21-3.74l-.13.07a12,12,0,0,0-3.79,2.92,15.52,15.52,0,0,0-8,.85c-.23-.61-.46-1.23-.74-1.83a8.18,8.18,0,0,0-3-3.51l-.44-.26c.44.61,3.48,4.78,3.59,7.4A8.26,8.26,0,0,1,41.73,9.63Z"/><path class="cls-7" d="M31.49,3a.84.84,0,0,0,0-1.06.72.72,0,0,0-.61-.25c.26-.32.35-.68-.08-.89a1.61,1.61,0,0,0-1.44.08c.09-.3,0-.47-.18-.5s-.56.21-.76.36l-.16.14c.08-.19.3-.59.13-.74-.66-.59-2,.81-2.33,1.77-.18.46-.79,2.26-.25,2.68a2.29,2.29,0,0,0,2.11-.34c1.22-.68,2.18-1.34,3.65-1C31.72,3.35,31.77,3.18,31.49,3Z"/><path class="cls-7" d="M30.3,6.33a3,3,0,0,1-3.41,1.82,3.89,3.89,0,0,0-1.1-.71,10,10,0,0,1-1.37,2.5,1.8,1.8,0,0,0-.19,1.5c.19.5.67.36,1.06.38a1.38,1.38,0,0,0,2.21.57,3.38,3.38,0,0,0,1.18-2,3.14,3.14,0,0,0,1.39-1A2.9,2.9,0,0,0,30.3,6.33Z"/><path class="cls-7" d="M30.06,4.85a.4.4,0,0,0-.39-.07.31.31,0,0,0-.15-.38c-.5-.22-1.17.31-1.5.61a1.19,1.19,0,0,0-.48,1.18c.17.72,1.19.32,1.48.2a2.41,2.41,0,0,0,1-.76C30.17,5.42,30.31,5.06,30.06,4.85Z"/><path class="cls-8" d="M28.21,5.4a.49.49,0,0,0-.28.62.46.46,0,0,0,.14.22.49.49,0,1,0,.14-.84Z"/><path class="cls-2" d="M24.5,9.2a3.26,3.26,0,0,1,1-.66,12.35,12.35,0,0,0,1.93-.88,1,1,0,0,0-.37-.57c-.64-.5-1.36-.87-1.8-.61a3.31,3.31,0,0,0-.82,1.34,2.72,2.72,0,0,0-.11.38c0,.14,0,.28,0,.41A2.94,2.94,0,0,0,24.5,9.2Z"/><path class="cls-3" d="M24.42,9.81a11,11,0,0,1,2.09-1.1c.32-.13.71-.22.87-.55a.75.75,0,0,0,.07-.5,12.35,12.35,0,0,1-1.93.88,3.26,3.26,0,0,0-1,.66,2.94,2.94,0,0,1-.12-.59c0-.13,0-.27,0-.41A3.15,3.15,0,0,0,24.42,9.81Z"/><path class="cls-4" d="M46.63,19.83c-.47.07-1.29.46-1.54-.23,0-.07-.15-.09-.17,0a.55.55,0,0,0,0,.34.68.68,0,0,1-.56,0A1.08,1.08,0,0,1,44,19.5s0,0-.06,0c-.17.6.73,1,1.16.66h0c.44.31,1.34.26,1.54-.23C46.73,19.87,46.69,19.83,46.63,19.83Z"/><path class="cls-4" d="M34,21.83a.74.74,0,0,1-.5-.75,2.28,2.28,0,0,1,.23-.81.06.06,0,0,0-.08-.08.73.73,0,0,0-.47.57,1.43,1.43,0,0,1-.26-.45A2.16,2.16,0,0,1,33,19.4a0,0,0,0,0,0,0,1.06,1.06,0,0,0,.19,1.74c0,.54.29,1.1.83.95C34.07,22,34.11,21.87,34,21.83Z"/><path class="cls-4" d="M36.59,18.09c-.33-.19-.73-.17-1-.5a3.21,3.21,0,0,1-.35-1.15,0,0,0,0,0,0,0,1.11,1.11,0,0,0-.11.75,2.57,2.57,0,0,1-.49-.26,1.12,1.12,0,0,1-.28-.88c0-.11-.15-.11-.18,0a1.06,1.06,0,0,0,.2,1.11c.18.2.55.45.82.32a1.59,1.59,0,0,0,.18.37,1.19,1.19,0,0,0,1.22.42A.09.09,0,0,0,36.59,18.09Z"/><path class="cls-4" d="M43.18,21.48c-.32-.2-.72-.18-1-.51a3.22,3.22,0,0,1-.35-1.14s0,0,0,0a1.11,1.11,0,0,0-.11.75,1.93,1.93,0,0,1-.49-.26,1.11,1.11,0,0,1-.28-.87.09.09,0,0,0-.18,0,1.05,1.05,0,0,0,.2,1.11c.18.2.55.45.82.32a1.59,1.59,0,0,0,.18.37,1.17,1.17,0,0,0,1.21.43A.09.09,0,0,0,43.18,21.48Z"/><path class="cls-4" d="M46.59,22a1.44,1.44,0,0,1-.85.38.91.91,0,0,1-.78-.57.07.07,0,0,0-.12,0c-.13.44.39.75.76.82a1,1,0,0,0,1.11-.56A.08.08,0,0,0,46.59,22Z"/><path class="cls-4" d="M43.06,18.74a.6.6,0,0,1-.58-.14,2.44,2.44,0,0,1-.35-.55.09.09,0,0,0-.15,0,1,1,0,0,0,.45.85c.19.13.66.27.74-.06A.09.09,0,0,0,43.06,18.74Z"/><path class="cls-4" d="M33.2,18.08a1.39,1.39,0,0,1-.59-.36.93.93,0,0,1-.16-.76.09.09,0,0,0-.16,0c-.36.58.21,1.52.91,1.32C33.29,18.22,33.27,18.11,33.2,18.08Z"/><path class="cls-4" d="M30.32,18a2.21,2.21,0,0,1-.63-.5,1.35,1.35,0,0,1-.24-.91,0,0,0,0,0-.08,0,1.09,1.09,0,0,0,0,1c-.49.42.06,1.48.69,1.31a.08.08,0,0,0,0-.15c-.19-.13-.4-.2-.52-.41a.88.88,0,0,1-.07-.55.89.89,0,0,0,.78.36A.08.08,0,0,0,30.32,18Z"/><path class="cls-4" d="M31.48,16.1c-.07-.07-.13-.06-.22-.06A.91.91,0,0,1,30.9,16c-.22-.1-.31-.29-.48-.44h0c-.1.25.14.53.33.67s.67.3.79,0A.11.11,0,0,0,31.48,16.1Z"/><path class="cls-4" d="M28.33,16.66c-.14-.16-.33-.22-.41-.44s0-.4,0-.59a.05.05,0,0,0-.07,0c-.3.05-.3.55-.22.77s.36.55.66.49A.11.11,0,0,0,28.33,16.66Z"/><path class="cls-4" d="M51,16.89a4.9,4.9,0,0,0-3-1.32,6.43,6.43,0,0,0-6.21-.29c-.1.05,0,.19.08.17A12,12,0,0,1,45.14,15a8.61,8.61,0,0,1,2.16.5,5.34,5.34,0,0,0-1.28.15,0,0,0,0,0,0,.09A9.33,9.33,0,0,1,50.91,17,.05.05,0,0,0,51,16.89Z"/><path class="cls-4" d="M50.74,13.67a0,0,0,0,0-.06,0,2.53,2.53,0,0,0,0,.3.63.63,0,0,1-.19.36,5.5,5.5,0,0,1-.57.36.07.07,0,0,0,0,.11.81.81,0,0,0,.82-.37C50.88,14.27,51,13.81,50.74,13.67Z"/><path class="cls-4" d="M49.63,13.85a0,0,0,0,0-.06.05,2.29,2.29,0,0,1,0,.69.78.78,0,0,1-.32.52.08.08,0,0,0,0,.14C50,15.43,50.08,14.11,49.63,13.85Z"/><path class="cls-4" d="M43.66,10.79s-.11,0-.1.06c0,.26.14.47.08.75a1.49,1.49,0,0,1-.33.52,1.11,1.11,0,0,0-.45-.61,0,0,0,0,0,0,0c0,.29.22.53.28.8s-.16.43-.1.68a.11.11,0,0,0,.2,0,.93.93,0,0,0,.19-.69h0C44,12.25,44.23,11.06,43.66,10.79Z"/><path class="cls-4" d="M46.15,12.1a0,0,0,0,0-.08,0,1.58,1.58,0,0,1-.3.61.85.85,0,0,1-.3.19c-.09,0-.18,0-.26.12a.13.13,0,0,0,0,.2c.25.16.61-.14.76-.33A.77.77,0,0,0,46.15,12.1Z"/><path class="cls-4" d="M40.6,13.3a1.2,1.2,0,0,1-.36.6c-.17.14-.4.15-.56.29a.09.09,0,0,0,0,.15c.24.14.58-.1.75-.27a1,1,0,0,0,.28-.77C40.72,13.23,40.62,13.25,40.6,13.3Z"/><path class="cls-4" d="M32.45,12.78c-.25-.07-.48,0-.69-.22a1,1,0,0,1-.2-.73.07.07,0,0,0-.11-.05.7.7,0,0,0-.11.64.62.62,0,0,1-.38-.13c-.15-.13-.17-.31-.28-.46s0,0-.06,0c-.15.21.07.58.24.71a.77.77,0,0,0,.63.17l0,0c.2.24.68.49,1,.28A.13.13,0,0,0,32.45,12.78Z"/><path class="cls-4" d="M32.76,9.94a1.68,1.68,0,0,1-.55,0,1.16,1.16,0,0,1-.47-.32s-.07,0-.06,0c0,.49.79.81,1.12.44A.07.07,0,0,0,32.76,9.94Z"/><path class="cls-4" d="M36.74,12.34a2.52,2.52,0,0,1-.51.34.78.78,0,0,1-.68-.08,0,0,0,0,0-.06.06.64.64,0,0,0,.7.29.8.8,0,0,0,.65-.53C36.86,12.36,36.79,12.3,36.74,12.34Z"/><path class="cls-1" d="M.64,57.92C2.9,61,10.48,63.15,17.57,62.7s11-3.31,8.76-6.4-9.84-5.23-16.94-4.78S-1.62,54.84.64,57.92Z"/><path class="cls-2" d="M9.49,58.44A20.85,20.85,0,0,1,8.79,56a21.06,21.06,0,0,1,0-2.27c0-.66-.07-.74.53-.91l.23-.07A11.06,11.06,0,0,0,10,55.17a4.76,4.76,0,0,0,2,2.52,11,11,0,0,1,1.86,2,3.82,3.82,0,0,1-1-.4c-.4-.27-1-.82-1.38-1.15S11,57.94,11.1,58s.17.22.39.49.51.75.51.75c.7.83,1.34,1.73,2,2.58a4.7,4.7,0,0,1-.66-.3,11.37,11.37,0,0,1-2.51-2.4,9.56,9.56,0,0,0-.47-.87c-.13-.14-.14.11-.12.25s.15.9.15.9A2.45,2.45,0,0,1,10,61a4.87,4.87,0,0,1-.23-.79C9.7,59.77,9.62,59,9.49,58.44Z"/><path class="cls-3" d="M9.57,61a10.26,10.26,0,0,0-.34-2c-.07-.2-.45-1.47-.55-1.65a1.81,1.81,0,0,0-.7-.62c-.3-.14-.6-.07-.65-.3.2-.6,1-.24,1-.68,0-.22-.19-1.56-.17-2,0-1.17-.07-3.62,0-3.63l1.36-.26c.19,0,0,1.58,0,2.25,0,.23,0,.46,0,.68l-.23.07c-.6.17-.54.25-.53.91a21.06,21.06,0,0,0,0,2.27,20.85,20.85,0,0,0,.7,2.41c.13.59.21,1.33.31,1.73A4.87,4.87,0,0,0,10,61C9.82,61.26,9.62,61.28,9.57,61Z"/><path class="cls-3" d="M10.37,58.29a9.56,9.56,0,0,1,.47.87,11.37,11.37,0,0,0,2.51,2.4,4.7,4.7,0,0,0,.66.3,1,1,0,0,0,.08.11c.07.1,0,.27-.12.23a7.47,7.47,0,0,1-3.57-2.76s-.1-.65-.15-.9S10.24,58.15,10.37,58.29Z"/><path class="cls-3" d="M11.1,58c-.08-.1.09-.25.46.09s1,.88,1.38,1.15a3.82,3.82,0,0,0,1,.4h0c.08.11,0,.3-.14.27A4.33,4.33,0,0,1,12,59.28s-.3-.49-.51-.75S11.19,58.14,11.1,58Z"/><path class="cls-2" d="M13.54,56.2a22.56,22.56,0,0,1-.7-2.42c-.08-.63,0-1.79,0-2.26,0-.66-.07-.75.53-.91l.24-.07a11,11,0,0,0,.44,2.39,4.79,4.79,0,0,0,2,2.51,11.32,11.32,0,0,1,1.85,2A3.84,3.84,0,0,1,17,57a14.5,14.5,0,0,1-1.38-1.15c-.37-.33-.54-.18-.45-.08s.16.22.38.48a8.37,8.37,0,0,1,.51.75c.7.84,1.35,1.73,2,2.59a4.24,4.24,0,0,1-.65-.31,10.74,10.74,0,0,1-2.51-2.4,9.17,9.17,0,0,0-.48-.86c-.13-.15-.14.11-.11.24s.14.91.14.91a2.36,2.36,0,0,1-.37,1.51,4.66,4.66,0,0,1-.23-.78C13.75,57.52,13.68,56.79,13.54,56.2Z"/><path class="cls-3" d="M13.62,58.71a9.44,9.44,0,0,0-.34-1.94c-.07-.21-.45-1.47-.55-1.65a1.62,1.62,0,0,0-.7-.63c-.3-.13-.6-.06-.65-.3.2-.6,1-.24,1-.67,0-.22-.19-1.57-.17-2,0-1.16-.07-3.62,0-3.63l1.36-.26c.19,0,0,1.58,0,2.26a5.15,5.15,0,0,0,0,.68l-.24.07c-.6.16-.54.25-.53.91,0,.47-.1,1.63,0,2.26a22.56,22.56,0,0,0,.7,2.42c.14.59.21,1.32.31,1.73a4.66,4.66,0,0,0,.23.78C13.88,59,13.68,59,13.62,58.71Z"/><path class="cls-3" d="M14.42,56.05a9.17,9.17,0,0,1,.48.86,10.74,10.74,0,0,0,2.51,2.4,4.24,4.24,0,0,0,.65.31.76.76,0,0,1,.08.11c.08.09,0,.26-.11.23a7.57,7.57,0,0,1-3.58-2.76s-.09-.66-.14-.91S14.29,55.9,14.42,56.05Z"/><path class="cls-3" d="M15.16,55.8c-.09-.1.08-.25.45.08A14.5,14.5,0,0,0,17,57a3.84,3.84,0,0,0,1,.41h0a.17.17,0,0,1-.14.27A4.4,4.4,0,0,1,16.05,57a8.37,8.37,0,0,0-.51-.75C15.32,56,15.24,55.9,15.16,55.8Z"/><path class="cls-7" d="M28.08,57.54a2.18,2.18,0,0,1,.93.21l1.34.39a.16.16,0,0,1,.09.24.86.86,0,0,0-.13.79c0,.14-.1.22-.21.2a1.6,1.6,0,0,1-2.32-1C27.67,58.09,27.68,57.62,28.08,57.54Z"/><path class="cls-2" d="M32.19,59a8.43,8.43,0,0,1-.75,2,.12.12,0,0,1-.12.07l-.07-.16C30.91,60.21,30.76,59.2,32.19,59Z"/><path class="cls-3" d="M29.47,58.87a.16.16,0,0,1,.05-.21,9.11,9.11,0,0,1,2.72-.7,3.08,3.08,0,0,1-.05,1c-1.43.2-1.28,1.21-.94,1.92l.07.16a.14.14,0,0,1-.1,0A8.31,8.31,0,0,1,29.47,58.87Z"/><path class="cls-6" d="M4.2,33.32a2.64,2.64,0,0,1,.76,0,1.24,1.24,0,0,1,.23-.51c.59-.78,1.54-.55,2.27-.08A.84.84,0,0,1,8,31.81c.56-.25,1.28.11,1.78.34l.82.4a13.83,13.83,0,0,1,6.48,1c1.94,1.42,3.88,3.52,4.1,4.81a4.37,4.37,0,0,1,3.07,4.52,4.68,4.68,0,0,1,.71,4.45,1,1,0,0,1,1.2.9c.32.12.66.14,1,.28a3.89,3.89,0,0,1,2,2.2,5.25,5.25,0,0,1,3.49,2.61A10.76,10.76,0,0,1,33,54.61c.36,1.65,0,3.62-1.83,4.15a3,3,0,0,1-1.54,0h0a3.57,3.57,0,0,1-1.88-2.11,3.39,3.39,0,0,1-2.18.44c-.73-.27-1.6-1.61-1.63-1.68s-.25,0-.23.1,0,.12.05.18a3.07,3.07,0,0,1-3-.48s-1.72,1.18-2.84,1A3,3,0,0,1,15.7,54.3a1.54,1.54,0,0,0,1-.32s0,0,0,0a2.65,2.65,0,0,1-2.47-.59,4.06,4.06,0,0,1-.74-.88c1-.47,2.77-1.35,2.39-2.81a3.19,3.19,0,0,1-2.28,1.1,3.06,3.06,0,0,1-3-1.57,3.53,3.53,0,0,1-2.49-.48c-.77-.55-.69-2.08-.69-2.08A1.79,1.79,0,0,1,6,45.29a1.72,1.72,0,0,1,1.33-1.92,3.42,3.42,0,0,1,2.93,1c.13.13.3,0,.23-.18a3.36,3.36,0,0,0-3.6-1.89c-.44-.4-1.34-1.24-.62-3.86A4.83,4.83,0,0,1,4.2,33.32Z"/><path class="cls-4" d="M29.1,50.66a3.89,3.89,0,0,0-2-2.2c-.32-.14-.66-.16-1-.28a1,1,0,0,0-1.2-.9,4.68,4.68,0,0,0-.71-4.45,4.37,4.37,0,0,0-3.07-4.52C20.94,37,19,34.92,17.06,33.5c.32.12.63.26.94.39a8,8,0,0,1,3.92,3.31,8,8,0,0,1,3.84,5A14.82,14.82,0,0,1,26,44.84a20.3,20.3,0,0,1,.09,2.08,6.79,6.79,0,0,1,3.38,2.93,5,5,0,0,1,3.08,3.42A5.25,5.25,0,0,0,29.1,50.66Z"/><path class="cls-4" d="M21.59,56.83a2.66,2.66,0,0,1-2.69.63c-.84.67-3.31.07-3.63-1a4,4,0,0,1-1.78-.37c-.58-.3-1.47-1-1-1.69v0h0a1.66,1.66,0,0,1-1.61-1.72,1.78,1.78,0,0,0,1.29-.57A7.68,7.68,0,0,1,10.45,52,2.59,2.59,0,0,1,9,50.62a3.22,3.22,0,0,1-2.22-.77,3.2,3.2,0,0,1-1-2.42A2,2,0,0,1,5,45.71a2.9,2.9,0,0,1,.59-2,3.61,3.61,0,0,1-1.35-1.5C4.14,41,4.12,39.09,4,37.84,3,36,2.57,34.47,3.35,33.78a1.73,1.73,0,0,1,.85-.46A4.83,4.83,0,0,0,6.27,38.4c-.72,2.62.18,3.46.62,3.86a3.36,3.36,0,0,1,3.6,1.89c.07.14-.1.31-.23.18a3.42,3.42,0,0,0-2.93-1A1.72,1.72,0,0,0,6,45.29a1.79,1.79,0,0,0,1.39,1.34s-.08,1.53.69,2.08a3.53,3.53,0,0,0,2.49.48,3.06,3.06,0,0,0,3,1.57,3.19,3.19,0,0,0,2.28-1.1c.38,1.46-1.38,2.34-2.39,2.81a4.06,4.06,0,0,0,.74.88,2.65,2.65,0,0,0,2.47.59s0,0,0,0a1.54,1.54,0,0,1-1,.32,3,3,0,0,0,2.18,1.88c1.12.22,2.84-1,2.84-1a3.07,3.07,0,0,0,3,.48c0-.06,0-.12-.05-.18s.16-.23.23-.1.9,1.41,1.63,1.68a3.39,3.39,0,0,0,2.18-.44,3.57,3.57,0,0,0,1.88,2.11h0a3.64,3.64,0,0,1-1.71-.93c-1.45.89-3.47.52-5.2-.13h0A3,3,0,0,1,21.59,56.83Z"/><path class="cls-5" d="M9.75,53.54c-1.56,0-3.08-1.33-3.58-3.38-1.07-.9-2.24-4.3-2-8a3.61,3.61,0,0,0,1.35,1.5,2.9,2.9,0,0,0-.59,2,2,2,0,0,0,.84,1.72,3.2,3.2,0,0,0,1,2.42A3.22,3.22,0,0,0,9,50.62,2.59,2.59,0,0,0,10.45,52a7.68,7.68,0,0,0,1.73.14,1.78,1.78,0,0,1-1.29.57,1.66,1.66,0,0,0,1.61,1.72h0v0c-.47.74.42,1.39,1,1.69a4,4,0,0,0,1.78.37c.32,1.07,2.79,1.67,3.63,1a2.66,2.66,0,0,0,2.69-.63,3,3,0,0,0,1.08.9C19.55,59.44,12.54,58.72,9.75,53.54Z"/><path class="cls-7" d="M31.39,54.29c-.14-.22-.19-.54,0-.64,1-.41,1.07.7,1.51,1.13.28.27.6.24.75.71.21.68-.38,1.13-.35,1.77,0,.32.25.43,0,.8s-.85.45-1.32.42a.17.17,0,0,1-.16-.21A5.2,5.2,0,0,0,31.39,54.29Z"/><path class="cls-8" d="M30.15,57.47a.49.49,0,0,1,.28.62.4.4,0,0,1-.14.22.48.48,0,1,1-.14-.84Z"/><path class="cls-4" d="M6.4,42.6a5,5,0,0,1,6.6.46,3.35,3.35,0,0,1,3.43,2.16s0,.08-.07,0A5.36,5.36,0,0,0,15,43.86a4,4,0,0,0-1.68-.46,3.87,3.87,0,0,1,.21.34,0,0,0,0,1-.07.06,11.57,11.57,0,0,0-3-1.73,5.88,5.88,0,0,0-3.84.78C6.44,42.92,6.26,42.73,6.4,42.6Z"/><path class="cls-4" d="M16.86,52.13a.08.08,0,0,1,.13-.06c.18.18.28.4.52.53a1.44,1.44,0,0,0,.85.06s0,0,0,.05a.77.77,0,0,1-.54.21c.1.27.15.55.48.66a.67.67,0,0,0,.24,0c.06,0,.14,0,.19,0s.08,0,.07.06-.21.15-.32.16a.86.86,0,0,1-.49-.15.73.73,0,0,1-.32-.78C17.26,52.86,16.83,52.56,16.86,52.13Z"/><path class="cls-4" d="M12.72,48.05a1.67,1.67,0,0,0,1,.44.9.9,0,0,0,.46-.11.08.08,0,0,1,.09,0l.42-.27a0,0,0,0,1,0,0,.81.81,0,0,1-.22.37.77.77,0,0,0,.54.18,1.17,1.17,0,0,0,.71-.44,0,0,0,0,1,0,0,.79.79,0,0,1-.72.7,1,1,0,0,1-.82-.3,1.17,1.17,0,0,1-1.6-.52A.06.06,0,0,1,12.72,48.05Z"/><path class="cls-4" d="M9.09,47a.06.06,0,0,1,.1,0,.92.92,0,0,0,.34.67,1.35,1.35,0,0,0,.26.15.27.27,0,0,0,.36,0c.06-.05.14,0,.15.09a.27.27,0,0,1-.26.27.86.86,0,0,1-.55-.21C9.22,47.74,8.88,47.31,9.09,47Z"/><path class="cls-4" d="M8.76,44.75a.08.08,0,0,1,.13,0,.62.62,0,0,0,.39.57,1.23,1.23,0,0,0,.71,0s.07,0,.06.06a.54.54,0,0,1-.62.26.84.84,0,0,0,.35.32c.23.09.46,0,.68.11a.09.09,0,0,1,0,.14c-.22.26-.67.13-.9,0a1,1,0,0,1-.39-.56l-.12,0C8.78,45.46,8.48,45.05,8.76,44.75Z"/><path class="cls-4" d="M12.34,44.36s0,0,0,0a.51.51,0,0,0-.19.32,1,1,0,0,0,0,.35.68.68,0,0,0,.08.24c0,.07.11.11.13.19a.09.09,0,0,1-.06.11c-.3.09-.41-.42-.41-.63S12,44.22,12.34,44.36Z"/><path class="cls-4" d="M13.46,45.17c.06,0,.1,0,.09.1-.05.25-.19.45-.08.72s.35.32.56.46c0,0,.05.1,0,.12-.34.15-.71-.16-.83-.47S13.12,45.3,13.46,45.17Z"/><path class="cls-4" d="M19.77,50s.05,0,.05,0a1.26,1.26,0,0,1,0,.27.73.73,0,0,0,.08.38,1.16,1.16,0,0,0,.35.47h0a1.17,1.17,0,0,1,.3-.54s.06,0,0,0a4.78,4.78,0,0,0-.13.74,1,1,0,0,0,0,.34c.06.17.17.18.27.3a.07.07,0,0,1,0,.1l0,0a.14.14,0,0,1-.13,0c-.36-.09-.44-.45-.39-.81-.27,0-.5-.4-.57-.61S19.47,50.12,19.77,50Z"/><path class="cls-4" d="M17.46,46.27c0-.12.12-.28.25-.31a.11.11,0,0,1,.15.1,0,0,0,0,1,0,0c-.12,0-.17.44-.17.52s.09.33.05.5a.09.09,0,0,1-.12.05C17.3,47,17.36,46.51,17.46,46.27Z"/><path class="cls-4" d="M8.07,38.3s0,0,0,.05-.08.22-.09.3a1,1,0,0,0,0,.41c0,.2.22.36.24.56s-.08.13-.15.12C7.49,39.62,7.63,38.12,8.07,38.3Z"/><path class="cls-4" d="M7.21,35.37c.07-.09.23,0,.16.12a.54.54,0,0,0,0,.69c.11.13.25.21.37.33.16-.22.4-.5.64-.48,0,0,0,0,0,0,0,.21-.29.39-.41.57a1.21,1.21,0,0,0-.23.8.12.12,0,0,1-.21.08c-.21-.22-.11-.53,0-.78a1,1,0,0,1-.55-.56A.79.79,0,0,1,7.21,35.37Z"/><path class="cls-4" d="M11.39,38.66s.12,0,.11.09a1.52,1.52,0,0,0,0,.87,1,1,0,0,0,.18.39l.07.08a.66.66,0,0,1,.65-.33s0,0,0,.05a1.59,1.59,0,0,0-.43.5A1.78,1.78,0,0,0,12,41a.1.1,0,0,1-.17.07.66.66,0,0,1-.16-.72C11.13,40.19,11,38.91,11.39,38.66Z"/><path class="cls-4" d="M5,33.29A7.54,7.54,0,0,1,6.35,34a11.52,11.52,0,0,0,1,.63,4,4,0,0,0-1-1.53,1.74,1.74,0,0,0-1-.49A1.05,1.05,0,0,0,5,33.29Z"/><path class="cls-4" d="M7.46,32.7a4.93,4.93,0,0,1,.77.62,2.54,2.54,0,0,0,.53.46,1,1,0,0,0-.11-1.08c-.42-.53-.87-.8-1-.69A1.19,1.19,0,0,0,7.46,32.7Z"/><path class="cls-4" d="M10.22,35.61c.07-.2.31-.48.53-.33,0,0,0,.06,0,.08a1.3,1.3,0,0,0-.22.19.7.7,0,0,0-.06.32,2.38,2.38,0,0,0,.12.59.15.15,0,0,1-.27.11A1.28,1.28,0,0,1,10.22,35.61Z"/><path class="cls-4" d="M12.18,36.3a0,0,0,0,1,0,.05c-.12.14-.3.21-.43.35s-.14.36-.24.54a.15.15,0,0,1-.27,0C11.11,36.81,11.75,36.05,12.18,36.3Z"/><path class="cls-4" d="M16.63,40.94a0,0,0,0,1,.05.05c-.05.15-.12.29-.16.44a1.18,1.18,0,0,0,0,.53c0,.14-.19.26-.25.11C16.12,41.7,16.21,41.08,16.63,40.94Z"/><path class="cls-4" d="M17.3,42.33a1,1,0,0,1,.54-.4A.12.12,0,0,1,18,42v0h0a.12.12,0,0,1,0,.12,1.27,1.27,0,0,0-.39.41c-.07.14-.07.34-.18.44a.12.12,0,0,1-.19,0C17,42.79,17.19,42.49,17.3,42.33Z"/><path class="cls-4" d="M14.41,38.14a.85.85,0,0,1,.09-.22c-.2-.46.08-1.35.67-1.25a0,0,0,0,1,0,.07,1.34,1.34,0,0,0-.38.47.8.8,0,0,0,0,.43.91.91,0,0,1,.17-.09c.19-.09.52-.16.67,0a.08.08,0,0,1,0,.09c-.16.08-.36,0-.52.14a.86.86,0,0,0-.38.44C14.62,38.43,14.37,38.31,14.41,38.14Z"/><path class="cls-4" d="M21,46.09a.84.84,0,0,1,.73-.62.07.07,0,0,1,.05.12c-.2.19-.43.33-.5.62a.78.78,0,0,0,0,.4.63.63,0,0,1,.37-.14.09.09,0,0,1,.08.05l0,0c0,.12-.18.2-.26.26a.67.67,0,0,0-.22.5.16.16,0,0,1-.32,0,.91.91,0,0,1,.11-.42A1,1,0,0,1,21,46.09Z"/><path class="cls-4" d="M22.82,51.47a.9.9,0,0,1,.08-.94,0,0,0,0,1,.07,0,3.24,3.24,0,0,0,.05.62,1.19,1.19,0,0,0,.34.54.17.17,0,0,1,0,.2l-.06.06a.15.15,0,0,1-.19,0,1.2,1.2,0,0,1-.17-.21,1.61,1.61,0,0,0,0,.38c0,.2.17.38.15.57a.1.1,0,0,1-.12.1c-.21-.09-.27-.37-.3-.57A1.09,1.09,0,0,1,22.82,51.47Z"/><path class="cls-4" d="M24.33,52.54s.07,0,.06.05a2.6,2.6,0,0,1-.24.47,2.64,2.64,0,0,0-.15.6c0,.17-.27.12-.28,0C23.7,53.26,23.93,52.63,24.33,52.54Z"/><path class="cls-4" d="M26,54.41a.08.08,0,0,1,.13,0,1.9,1.9,0,0,0,.33.59,1,1,0,0,0,.31.21.7.7,0,0,1,.24.13.09.09,0,0,1,0,.14c-.24.12-.56-.11-.73-.28A.87.87,0,0,1,26,54.41Z"/><path class="cls-4" d="M22.7,48.1c.16-.15.46-.29.65-.14a0,0,0,0,1,0,.06c-.15.11-.34.11-.46.27a1.09,1.09,0,0,0-.13.53c0,.1-.16.1-.21,0A.65.65,0,0,1,22.7,48.1Z"/><path class="cls-4" d="M20,40.85a.55.55,0,0,1,.65-.09.07.07,0,0,1,0,.13.71.71,0,0,0-.55.32c-.09.12-.14.26-.3.28a.1.1,0,0,1-.07,0C19.55,41.24,19.8,41,20,40.85Z"/><path class="cls-4" d="M14,34.91s.08.07.06.11a1.24,1.24,0,0,0-.25.43c0,.15,0,.31,0,.47a.11.11,0,0,1-.15.06C13.25,35.7,13.55,35,14,34.91Z"/><path class="cls-1" d="M40.28,59.88c.95,1.3,4.36,2,7.62,1.67s5.12-1.74,4.16-3-4.36-2-7.62-1.67S39.32,58.57,40.28,59.88Z"/><path class="cls-2" d="M49.16,54.18A13.5,13.5,0,0,1,49.78,57c0,1-.1,1.71-.92,2s-1.5.3-1.79.77a6.52,6.52,0,0,0,1.41,0,3.34,3.34,0,0,0-1.13,1.61c1.13-.24,1.72-1.22,2-1.4.33.07-.09,1.08.44,1.45A5.12,5.12,0,0,0,50.43,59c-.08-1.3.4-3.91,0-4.52S49.16,54.18,49.16,54.18Z"/><path class="cls-2" d="M46.92,54.72a25.94,25.94,0,0,1-.48,3.19c-.22.54-.68.62-1,.81s-.94.49-1.06.62c.25.17,1.06,0,1.44,0a1.86,1.86,0,0,0,.73-.32c.24-.21,0,.5.08.67.4-.11.72-.79.84-1.1s.29-3.5.29-3.5Z"/><path class="cls-9" d="M48.66,53.59c1,.08,2.86-.19,2.87-1.92,0-1.19-.63-1.72-1.77-2a2.34,2.34,0,0,0,1-2.92,7.79,7.79,0,0,0-1.23,0,10.36,10.36,0,0,0-1.48.23,2.82,2.82,0,0,0-1.73,3.28,3,3,0,0,0-1,2.22,1.66,1.66,0,0,0-2,.77,3.2,3.2,0,0,0-.47.92,3.15,3.15,0,0,0-2.5.51,3.28,3.28,0,0,0-1.22,1.62,3.54,3.54,0,0,0,.66,2.34,3,3,0,0,0,1.8-.24,3.11,3.11,0,0,0,1.68-2.1A2.55,2.55,0,0,0,45.7,57a2.66,2.66,0,0,0,1.73-2,2.06,2.06,0,0,0,3.67-1A2.41,2.41,0,0,1,48.66,53.59Z"/><path class="cls-10" d="M40.34,54.72a3.15,3.15,0,0,1,2.5-.51,3.2,3.2,0,0,1,.47-.92,1.66,1.66,0,0,1,2-.77,3,3,0,0,1,1-2.22A2.82,2.82,0,0,1,48.06,47c-2.44.57-4.46,2.06-4.21,4.25a3.9,3.9,0,0,0-1.76,1.55,3.65,3.65,0,0,0-1,.53,3.6,3.6,0,0,0-2,3A3.28,3.28,0,0,1,40.34,54.72Z"/><path class="cls-11" d="M42.21,59.18a2.61,2.61,0,0,0,1.37-1.27,4.47,4.47,0,0,0,4.6-.07,3.74,3.74,0,0,0,1-.82,6,6,0,0,0,2.63-1.64,4.53,4.53,0,0,0,1.49-4.54,7.71,7.71,0,0,0-1.15-3.08c-.45-.7-.82-.95-1.34-1a2.34,2.34,0,0,1-1,2.92c1.14.28,1.78.81,1.77,2,0,1.73-1.85,2-2.87,1.92A2.41,2.41,0,0,0,51.1,54a2.06,2.06,0,0,1-3.67,1,2.66,2.66,0,0,1-1.73,2,2.55,2.55,0,0,1-2.44-.69,3.11,3.11,0,0,1-1.68,2.1,3,3,0,0,1-1.8.24h0A1.86,1.86,0,0,0,42.21,59.18Z"/><path class="cls-2" d="M39.61,58.41s.23,1,.45,1.7a1.56,1.56,0,0,0,.52.85,6.32,6.32,0,0,1,.83-1.05A2.29,2.29,0,0,0,42,59,2.63,2.63,0,0,1,40.89,59,4.63,4.63,0,0,1,39.61,58.41Z"/><path class="cls-8" d="M40.8,57.36a.28.28,0,0,0-.17.37.26.26,0,0,0,.08.13.3.3,0,0,0,.45-.15A.29.29,0,0,0,40.8,57.36Z"/></svg>