<svg id="Layer_1" data-name="Layer 1" xmlns="http://www.w3.org/2000/svg" viewBox="0 0 108.69 120.29"><defs><style>.cls-1{fill:#703f1e;}.cls-2{fill:#9bc90e;}.cls-3{fill:#80b708;}.cls-4{fill:#528402;}.cls-5{fill:#748e09;}</style></defs><path class="cls-1" d="M14.92,67.93,15,68a9.22,9.22,0,0,1-.07-.94l-.64,1.29C14.71,68.12,14.47,68,14.92,67.93Z"/><path class="cls-1" d="M40.29,79c-4.15-1.47-9.4-2-13.15-4.26-4.26-2.51-3-6.67-5.47-10-1.21,3.2,1.95,6.67,2.2,9.77C19.42,74.18,17.62,71,15,68c.64,10.53,17.46,10.28,25,13.27C44.21,83,47.19,88.6,45.43,93.1c-.69,1.76-5,4.11-7.68,6.29,6.19-3,13.28-2.85,20.38-2.25-.91-1.53-3.8-2.71-4.76-4.62A20.27,20.27,0,0,1,51.52,86c-.51-4.7-.33-10.23,3.13-13.57,3.25-3.12,8.25-4.77,11.4-8.18a7.86,7.86,0,0,0,1.83-4.7c2.9-2.86,8.75-8.08,5.55-11.71-.79,1.93-.57,3.94-1.62,5.83-.87,1.57-2.66,2.59-3.82,4,.06-3.8-.56-7.94,1.16-10.6-2.91-.38-2.21,11-3.57,13.51-1.9,3.44-8.34,5.16-11.74,6.9C43.35,72.88,38.36,63,35.77,53.93a11.32,11.32,0,0,1,0-2.79c-4.11,2.11.61,10.19,2.3,12.73,2.28,3.42,6.9,6.07,8.75,9.56.76,1.44,1.06,5.26-.4,6.5C44.73,81.35,42.2,79.64,40.29,79Z"/><path class="cls-2" d="M65.84,2.71c-7.9-3.46-12.47.89-19.25,3.21C41,7.85,34.07,4.76,27.88,8.8,22.92,12,18,22.16,20.53,27.32l-.72,2.15c-6.71,1-7.14,13.19.61,12.33C18.37,51,32.05,52.46,38.5,53.36c8.07,1.12,13.22-.77,20-4.91,7.23,7.26,21.14-.71,24.08-8.19,2.48-6.32,3.22-21.69-7.27-21C77.53,11.69,73.7,6.15,65.84,2.71Z"/><path class="cls-3" d="M48.75,31.56l-.12,0A20.64,20.64,0,0,1,36,35.5c-7.12,0-12.41-2.84-15.89-7l-.34,1c-6.71,1-7.14,13.19.61,12.33C18.37,51,32.05,52.46,38.5,53.36c8.07,1.12,13.22-.77,20-4.91,7.23,7.26,21.14-.71,24.08-8.19,2.48-6.32,3.22-21.69-7.27-21,2.24-7.61-1.59-13.15-9.45-16.59-.06,0-.11,0-.16-.06a21,21,0,0,1,1.28,7v.72A21.76,21.76,0,0,1,48.75,31.56Z"/><path class="cls-4" d="M51.14,39.09c-.32,0-.62,0-.94,0-.38.25-.7.57-1.1.8A20.46,20.46,0,0,1,36,44.13c-10.11,0-16.53-5.72-19.29-13C13.3,34.7,14.14,42.5,20.42,41.8,18.37,51,32.05,52.46,38.5,53.36c8.07,1.12,13.22-.77,20-4.91,7.23,7.26,21.14-.71,24.08-8.19,2.48-6.32,3.22-21.69-7.27-21,2-7-1-12.18-7.59-15.65.27.41.48.85.73,1.28C76.55,17.57,70.8,39.09,51.14,39.09Z"/><path class="cls-2" d="M18,52.85c-1.46-2.13-7.91-1.63-10.52-.57C3.81,53.77.36,57.49,0,61.52c-.68,7.6,4.86,9.34,11.57,10.27,5.78.8,10.49.49,10.63-6.05,11.23.49,6.32-15.42-3.9-12.89Z"/><path class="cls-3" d="M10,63c-3,.37-6.49-1.52-8.51-3.53a10.29,10.29,0,0,1-.65-.8A9,9,0,0,0,0,61.52c-.68,7.6,4.86,9.34,11.57,10.27,5.78.8,10.49.49,10.63-6.05,7.51.33,7.78-6.67,4.08-10.59A18.73,18.73,0,0,1,20.22,59a13.74,13.74,0,0,1-5.38,3.25A25.23,25.23,0,0,1,10,63Z"/><path class="cls-4" d="M11.23,66.81A11,11,0,0,1,.46,59.53a8.58,8.58,0,0,0-.46,2c-.68,7.6,4.86,9.34,11.57,10.27,5.78.8,10.49.49,10.63-6.05,4.71.21,6.56-2.49,6.38-5.48-.15.1-.29.21-.45.3a11.9,11.9,0,0,1-6.07,1.64,13.1,13.1,0,0,1-1.39-.08A11,11,0,0,1,11.23,66.81Z"/><path class="cls-1" d="M34.56,34.93a6.17,6.17,0,0,1,.86,0c.5-5.42,5-8.69,4.5-14.67a6.31,6.31,0,0,1-.87,0c-.26,1.8-.64,6.41-2.37,7.58-2.1,1.42-5.31-1.09-7.27-1.47.39,2.48,5.41,1.89,5.95,4.32l.11-.21v.65a1.58,1.58,0,0,0-.11-.44A6.5,6.5,0,0,0,34.56,34.93Z"/><path class="cls-2" d="M18.13,5.62C4.54,7.18,5.79,28.76,19.23,23.08c3.14,7.9,9,6.13,15.68,2.54,7.75-4.18,13.7-8.81,9.42-17.76C42.07,3.13,36.19.16,31.06,0,27.4-.11,19.33,2.21,18.52,5.47Z"/><path class="cls-3" d="M19.23,23.08c3.14,7.9,9,6.13,15.68,2.54,7.75-4.18,13.7-8.81,9.42-17.76a11.61,11.61,0,0,0-2.26-3.15c-.16.42-.26.86-.44,1.27-1.54,3.36-5,7.26-8.76,8.15-2,.47-4.16,1.27-6.28,1.31a17.75,17.75,0,0,1-8-1.51A24.48,24.48,0,0,1,9.46,12C6.74,18.48,10.24,26.87,19.23,23.08Z"/><path class="cls-4" d="M9.67,19.46c-.24,0-.46-.11-.69-.17,1.14,3.73,4.61,6.17,10.25,3.79,3.14,7.9,9,6.13,15.68,2.54,7.75-4.18,13.7-8.81,9.42-17.76a11,11,0,0,0-1.46-2.21c0,5.64-2.92,11.18-9.81,13.75A14.26,14.26,0,0,1,19.45,18a17.16,17.16,0,0,1-1.65.72A15.53,15.53,0,0,1,9.67,19.46Z"/><path class="cls-2" d="M82.15,44.86c3.14,7.9,9,6.14,15.68,2.54,7.75-4.18,13.71-8.81,9.43-17.75C105,24.91,99.11,22,94,21.79c-3.65-.11-11.73,2.21-12.53,5.47l-.4.14C67.47,29,68.71,50.54,82.15,44.86Z"/><path class="cls-3" d="M82.15,44.86c3.14,7.9,9,6.14,15.68,2.54,7.75-4.18,13.71-8.81,9.43-17.75A11.69,11.69,0,0,0,105,26.49c-.15.42-.25.86-.44,1.27-1.54,3.37-5,7.27-8.75,8.15a31.47,31.47,0,0,1-6.28,1.32,17.69,17.69,0,0,1-8-1.51,24.3,24.3,0,0,1-9.12-1.9C69.66,40.27,73.16,48.66,82.15,44.86Z"/><path class="cls-4" d="M82.15,44.86c3.14,7.9,9,6.14,15.68,2.54,7.75-4.18,13.71-8.81,9.43-17.75a11.1,11.1,0,0,0-1.47-2.22c0,5.65-2.92,11.18-9.81,13.75-5.34,2-10,1.08-13.61-1.42-.54.26-1.09.52-1.64.73a15.58,15.58,0,0,1-8.14.76c-.23,0-.46-.12-.69-.17C73.05,44.81,76.51,47.25,82.15,44.86Z"/><path class="cls-2" d="M88.81,56.86c9.6.41,5.4-13.19-3.34-11H85.2c-1.25-1.82-6.77-1.4-9-.49-3.12,1.28-6.07,4.46-6.38,7.9-.58,6.51,4.15,8,9.9,8.79C84.66,62.71,88.69,62.45,88.81,56.86Z"/><path class="cls-3" d="M88.81,56.86c6.42.27,6.65-5.71,3.49-9.07a16,16,0,0,1-5.19,3.27,11.77,11.77,0,0,1-4.6,2.78,20.4,20.4,0,0,1-4.18.63c-2.54.32-5.55-1.29-7.27-3-.21-.21-.38-.46-.57-.69a7.76,7.76,0,0,0-.67,2.47c-.58,6.51,4.15,8,9.9,8.79C84.66,62.71,88.69,62.45,88.81,56.86Z"/><path class="cls-4" d="M88.81,56.86c4,.17,5.6-2.13,5.45-4.7l-.38.27a10.22,10.22,0,0,1-5.2,1.4c-.39,0-.78,0-1.18-.07a10,10,0,0,1-17.29-2.22,7.22,7.22,0,0,0-.39,1.7c-.58,6.51,4.15,8,9.9,8.79C84.66,62.71,88.69,62.45,88.81,56.86Z"/><path class="cls-5" d="M18.78,102.5c-.83.11-4,.66-4,1.9,0,.69,4.29,1.81,5.18,2a6.38,6.38,0,0,1,2.72,1,4.48,4.48,0,0,0,2.46.71,37.74,37.74,0,0,0,5.92,0c.91,0,1.77,0,2.64,0a9,9,0,0,0,2.86-.77c1.61-.5,3.68,0,5.09-.89.73-.47,1.13-1.14.43-1.93-1.15-1.3-4.21-.86-5.74-1-5-.31-9.95,0-14.88-.74a8.19,8.19,0,0,0-1.39-.21Z"/><path class="cls-2" d="M36.58,84.42c-3.45-1.51-5.44.39-8.4,1.4-2.44.84-5.46-.51-8.16,1.26-2.16,1.41-4.33,5.83-3.2,8.08l-.32.94c-2.93.43-3.11,5.75.26,5.38-.89,4,5.08,4.64,7.89,5,3.52.5,5.77-.33,8.72-2.13,3.15,3.16,9.22-.32,10.5-3.58C45,98,45.27,91.34,40.7,91.66,41.68,88.34,40,85.92,36.58,84.42Z"/><path class="cls-3" d="M29.12,97l-.05,0a8.93,8.93,0,0,1-5.49,1.7,8.66,8.66,0,0,1-6.93-3.07l-.15.45c-2.93.43-3.11,5.75.26,5.38-.89,4,5.08,4.64,7.89,5,3.52.5,5.77-.33,8.72-2.13,3.15,3.16,9.22-.32,10.5-3.58C45,98,45.27,91.34,40.7,91.66c1-3.32-.7-5.74-4.12-7.24l-.08,0a9.05,9.05,0,0,1,.57,3v.32A9.49,9.49,0,0,1,29.12,97Z"/><path class="cls-4" d="M30.17,100.29l-.41,0c-.17.11-.31.25-.48.35a8.92,8.92,0,0,1-5.7,1.87,8.55,8.55,0,0,1-8.41-5.66c-1.51,1.55-1.14,5,1.59,4.65-.89,4,5.08,4.64,7.89,5,3.52.5,5.77-.33,8.72-2.13,3.15,3.16,9.22-.32,10.5-3.58C45,98,45.27,91.34,40.7,91.66c.9-3-.45-5.31-3.31-6.83.11.18.21.38.32.56C41.25,90.9,38.74,100.29,30.17,100.29Z"/><path class="cls-5" d="M42,119.12a6.14,6.14,0,0,0,3.34,1,53.81,53.81,0,0,0,8,0c1.23-.07,2.4,0,3.59,0a12.38,12.38,0,0,0,3.87-1c2.19-.69,5,0,6.91-1.21,1-.63,1.53-1.55.58-2.62-1.57-1.77-5.72-1.16-7.78-1.29-6.74-.42-13.51,0-20.19-1a10.16,10.16,0,0,0-1.9-.3l-1.72-.14c-1.12.14-5.42.89-5.45,2.57,0,.93,5.82,2.45,7,2.7A8.48,8.48,0,0,1,42,119.12Z"/><path class="cls-2" d="M34,111.09c-1.21,5.42,6.88,6.31,10.7,6.84,4.77.67,7.82-.45,11.82-2.91,4.28,4.3,12.52-.42,14.26-4.84,1.46-3.75,1.9-12.83-4.31-12.41,1.33-4.5-.94-7.78-5.59-9.82s-7.38.53-11.39,1.91c-3.31,1.13-7.41-.69-11.07,1.7-2.94,1.92-5.88,7.91-4.36,11l-.42,1.27C29.7,104.39,29.45,111.6,34,111.09Z"/><path class="cls-3" d="M50.79,105l-.07,0a12.18,12.18,0,0,1-7.45,2.31,11.74,11.74,0,0,1-9.4-4.17l-.2.6c-4,.6-4.22,7.81.36,7.3-1.21,5.42,6.88,6.31,10.7,6.84,4.77.67,7.82-.45,11.82-2.91,4.28,4.3,12.52-.42,14.26-4.84,1.46-3.75,1.9-12.83-4.31-12.41,1.33-4.5-.94-7.78-5.59-9.82l-.1,0A12.33,12.33,0,0,1,61.57,92v.43A12.87,12.87,0,0,1,50.79,105Z"/><path class="cls-4" d="M52.21,109.49c-.19,0-.37,0-.55,0-.23.15-.42.34-.66.48a12.12,12.12,0,0,1-7.73,2.53,11.62,11.62,0,0,1-11.41-7.68c-2.05,2.1-1.54,6.71,2.17,6.3-1.21,5.42,6.88,6.31,10.7,6.84,4.77.67,7.82-.45,11.82-2.91,4.28,4.3,12.52-.42,14.26-4.84,1.46-3.75,1.9-12.83-4.31-12.41,1.22-4.12-.61-7.2-4.49-9.26.16.24.29.51.43.76C67.24,96.75,63.84,109.49,52.21,109.49Z"/></svg>