<svg id="Layer_1" data-name="Layer 1" xmlns="http://www.w3.org/2000/svg" viewBox="0 0 82.6 82.65"><defs><style>.cls-1{opacity:0.3;}.cls-2{fill:#4d443d;}.cls-3{fill:#f5b400;}.cls-4{fill:#27231f;}.cls-5{fill:#fff;}</style></defs><path class="cls-1" d="M1.86,50.25C6,52.63,16,50.7,24.24,45.94S35.82,35.4,31.7,33s-14.14-.45-22.38,4.31S-2.26,47.87,1.86,50.25Z"/><path class="cls-2" d="M30.76,15.53c-.11-.34-.31-.71-.71-.68a4,4,0,0,0-1.94,1.26c-.58.74-.6,1.18-.46,1.58s1.31.82,1.44,1.25a4.86,4.86,0,0,1,0,1.79c.62.08.75-.81.75-.81a.86.86,0,0,0,.46.17,1.24,1.24,0,0,0,.93-1,1.85,1.85,0,0,0,.46-1.75A17.34,17.34,0,0,1,30.76,15.53Z"/><path class="cls-3" d="M28.8,16.66a.68.68,0,0,0-.35.51c0,.18.16.23.35.12a.69.69,0,0,0,.34-.52C29.14,16.6,29,16.54,28.8,16.66Z"/><path d="M28.5,17.15s.13,0,.31-.12a.94.94,0,0,0,.31-.24s-.14,0-.31.12S28.5,17.11,28.5,17.15Z"/><path class="cls-4" d="M17.76,37.57a4,4,0,0,1-.36-1.83c0-1.31.41-2.69-.37-3.36,0,0-2,.35-2,.71.19.83.87,1.66.95,2.35a4.35,4.35,0,0,1-.26,2.33s-.23.72,0,.9h0l.35.2a.76.76,0,0,0,.11.24h0a.83.83,0,0,0,.79.45l0,0a1.56,1.56,0,0,0,1.54-.88C18.55,37.81,18,37.75,17.76,37.57Z"/><path class="cls-4" d="M6.25,45.1c-.18-.18-1.44-1.35-1.1-4.25a3.7,3.7,0,0,0-.82.42c0-.27,0-.56,0-.87-.28.08-1,.72-1.08,1.09-.23,2.72.66,3.84.66,3.84s-.13.64.14.81l.38.22s0,.11,0,.12a1.06,1.06,0,0,0,1,.61,1.59,1.59,0,0,0,1.54-.88C7,45.34,6.45,45.28,6.25,45.1Z"/><path class="cls-2" d="M21.32,13c-.65-.33-1.18-1.07-1.39-1-1,1.27,1.1,2.64,1.3,3.06.13,0,.44-.1.86-.38s.72-1,.57-1.15S21.89,13.3,21.32,13Z"/><path class="cls-4" d="M10.19,47.37C10,47.19,8.75,46,9.09,43.12a3.43,3.43,0,0,0-.82.43,6.63,6.63,0,0,1,.05-.87c-.29.07-1.06.72-1.09,1.08C7,46.49,7.9,47.6,7.9,47.6s-.14.64.14.81l.38.22a.65.65,0,0,1,0,.13,1.11,1.11,0,0,0,1,.61A1.6,1.6,0,0,0,11,48.48C11,47.61,10.38,47.55,10.19,47.37Z"/><path class="cls-4" d="M22.46,40.28a3.91,3.91,0,0,1-.35-1.83c0-1.3.39-2.69-.38-3.35,0,0-2,.34-2,.7.18.84.87,1.66.95,2.35a4.35,4.35,0,0,1-.26,2.33s-.22.72,0,.91h0l.34.19a.72.72,0,0,0,.11.25h0a.82.82,0,0,0,.79.45h0a1.54,1.54,0,0,0,1.54-.89C23.25,40.53,22.66,40.46,22.46,40.28Z"/><path class="cls-5" d="M30.39,15c-.33-1.93-3.11-3.16-5.4-2.74a8.86,8.86,0,0,0-4.7,2.67c-.94,1.12-2.05,2.82-2.73,3.44S2.09,23,.43,32.4C-.13,39,2.7,41.91,3,42.06l.06,0v0c.84.74,1.13,0,2.13.56s1.16,1.88,2.57,2.16h0c1.88,0,2.33-1.67,4.35-3.4,2.79-2.39,5.83-4.53,5.83-4.53a2.84,2.84,0,0,0,2.85,0c1.22-.78.82-1.23,1.36-1.78,4-3.94,5.19-12.51,6.87-14,.84.14,1.61-1.26,1.7-2C31,17,29.36,17.37,30.39,15Z"/><path class="cls-2" d="M27.71,16c-.22-.05-.82.34-.83,1,0,.81.27.95.42,1,.56-.17,3.24.67,3.41-1.11-.1-.26-.89-.16-1.66-.31A4.62,4.62,0,0,1,27.71,16Z"/><path class="cls-1" d="M49.91,39.09c4.12,2.37,14.14.45,22.38-4.31s11.59-10.54,7.46-12.92-14.14-.45-22.38,4.31S45.79,36.71,49.91,39.09Z"/><path class="cls-2" d="M51.74,6.06c-1.12,1.86.27,3.62.48,4.48.36,1,2.23-.19,1.63-1.3C52.67,8.36,52.15,6.11,51.74,6.06Z"/><path class="cls-4" d="M73.7,15.65c0-.23,0-.47.08-.72s-.93.38-1.24.66a7.79,7.79,0,0,1-1.62,6.2,2.53,2.53,0,0,0-.86,2c0,.35.76.55.86.49a2.68,2.68,0,0,0,1.65-.95c.26-.15.37-1.07.37-1.07s0,.09.15,0a1.49,1.49,0,0,0,.34-1.32,16.18,16.18,0,0,0,1.2-5.49C74.61,15.22,74.14,15.4,73.7,15.65Z"/><path class="cls-4" d="M60.79,22.71c0-.17-.34-.09-.67.06,0-.14.06-.27.08-.4,0-.36-1.38.37-1.48.52-.84,1.68-.39,2.67-.4,4.09a8.22,8.22,0,0,1-.39,2.43,5,5,0,0,0-.87,2.2c0,.29.59.34.59.34A1.72,1.72,0,0,0,59.34,31a9.17,9.17,0,0,0,.34-1.08s0,.09.14,0A1.17,1.17,0,0,0,60,28.63a6.93,6.93,0,0,1,0-2.48C60.1,25.29,60.58,23.84,60.79,22.71Z"/><path class="cls-4" d="M78.77,18.58c0-.23.06-.47.08-.72s-.93.38-1.24.66A7.79,7.79,0,0,1,76,24.72a2.6,2.6,0,0,0-.86,2c0,.35.76.55.86.49a2.71,2.71,0,0,0,1.66-.95c.25-.15.37-1.07.37-1.07s0,.09.14,0a1.49,1.49,0,0,0,.34-1.32,16,16,0,0,0,1.21-5.49C79.68,18.14,79.22,18.33,78.77,18.58Z"/><path class="cls-4" d="M65.86,25.64c0-.17-.33-.09-.67.05,0-.13.06-.26.08-.39,0-.36-1.37.37-1.47.52-.84,1.68-.4,2.66-.41,4.09A8.22,8.22,0,0,1,63,32.34a5.07,5.07,0,0,0-.87,2.2c0,.29.6.34.6.34a1.71,1.71,0,0,0,1.68-.94,9.14,9.14,0,0,0,.34-1.09s0,.1.14,0a1.17,1.17,0,0,0,.22-1.27,6.93,6.93,0,0,1,0-2.48C65.17,28.22,65.66,26.77,65.86,25.64Z"/><path class="cls-5" d="M81.86,4.28A7.18,7.18,0,0,0,74.44.07h0c-5.12-.2-15.12,8.52-15.7,8.66-.74.18-1.93-.29-3-.31a4.26,4.26,0,0,0-4.74,4.41s-1.13,4.45-.68,4.64,2.11,3.88,4.93,5.59a24.65,24.65,0,0,0,6.13,3.44,4.79,4.79,0,0,0,2.51.25,5.18,5.18,0,0,0,2.6-1.05,7.47,7.47,0,0,0,1.95-2.33A58.48,58.48,0,0,1,74.8,21c2.31-.69,4.37-1,4.79-1.91.28-.49,4.06-7.54,2.73-13.59A4.29,4.29,0,0,0,81.86,4.28Z"/><path class="cls-2" d="M58.85,11.22A4.29,4.29,0,0,1,57,12c-1.25.15-.53,2.43.51,2.13.48-.69,2.73-2.19,2.81-4.27C60.19,9.72,59.52,10.58,58.85,11.22Z"/><path class="cls-4" d="M57.8,13.32c-.41.42-.45.86-.32.78.48-.69,2.73-2.19,2.81-4.27A9.56,9.56,0,0,1,59.06,12,8.72,8.72,0,0,1,57.8,13.32Z"/><path class="cls-2" d="M52.92,10.9A2.84,2.84,0,0,0,51.42,12a13.17,13.17,0,0,0-.93,1.9,29.79,29.79,0,0,0-1.76,4.49s-.33,1.16.49,1.32a.45.45,0,0,0,.16.21l2.08,1.2c.26.16.68-.15.85-.33A5,5,0,0,0,52.8,20a6.27,6.27,0,0,0,1.53-1.36,5.4,5.4,0,0,1,0-2c.14-.63,1.37-2.41,1.56-3.15a1.51,1.51,0,0,0-.15-1.67A3.57,3.57,0,0,0,52.92,10.9Z"/><path class="cls-3" d="M54.39,13.84a.77.77,0,0,0-.38.56c0,.19.17.25.38.13a.74.74,0,0,0,.37-.56C54.76,13.78,54.6,13.73,54.39,13.84Z"/><path d="M54,14.39s.15,0,.34-.13a1,1,0,0,0,.34-.26s-.15,0-.34.12S54,14.35,54,14.39Z"/><path class="cls-1" d="M73.41,78.44c-3.81,2.21-13.08.42-20.71-4S42,64.7,45.8,62.5s13.08-.41,20.71,4S77.22,76.24,73.41,78.44Z"/><path class="cls-2" d="M70.85,51.36c-.56,1,1.18,2.17,1.52,1.22s1.5-2.46.45-4.19C72.44,48.43,72,50.54,70.85,51.36Z"/><path class="cls-4" d="M53.36,57.3c-.29-.27-1.13-.95-1.16-.61s0,.45.07.66c-.42-.23-.85-.4-.87-.2a15,15,0,0,0,1.12,5.14,1.36,1.36,0,0,0,.33,1.23c.12.11.13,0,.13,0s.11.86.34,1a2.53,2.53,0,0,0,1.56.89c.09.06.78-.13.79-.46a2.37,2.37,0,0,0-.79-1.88A7.24,7.24,0,0,1,53.36,57.3Z"/><path class="cls-4" d="M66.67,68c0-1.34.4-2.26-.38-3.83-.1-.14-1.36-.82-1.38-.49,0,.12,0,.25.07.37-.31-.13-.61-.21-.63-.05.19,1.06.65,2.42.73,3.22a6.35,6.35,0,0,1,0,2.32,1.09,1.09,0,0,0,.21,1.19c.12.11.13,0,.13,0a10.46,10.46,0,0,0,.31,1,1.62,1.62,0,0,0,1.59.88s.55,0,.55-.32A4.76,4.76,0,0,0,67,70.23,7.21,7.21,0,0,1,66.67,68Z"/><path class="cls-4" d="M48.61,60c-.29-.26-1.13-.95-1.16-.61s0,.45.07.66c-.41-.23-.85-.4-.87-.2A15.34,15.34,0,0,0,47.77,65a1.42,1.42,0,0,0,.33,1.24c.12.1.13,0,.13,0s.11.86.35,1a2.46,2.46,0,0,0,1.55.89c.09.06.78-.13.8-.46a2.4,2.4,0,0,0-.8-1.88A7.24,7.24,0,0,1,48.61,60Z"/><path class="cls-4" d="M61.91,70.7c0-1.33.41-2.26-.37-3.83-.1-.14-1.35-.82-1.38-.49,0,.12.05.25.07.37-.31-.13-.61-.21-.63,0,.19,1.07.65,2.42.73,3.22a6.58,6.58,0,0,1,0,2.32,1.1,1.1,0,0,0,.2,1.19c.12.11.13,0,.13,0a8.82,8.82,0,0,0,.32,1,1.61,1.61,0,0,0,1.58.88s.55,0,.55-.32A4.64,4.64,0,0,0,62.28,73,8.14,8.14,0,0,1,61.91,70.7Z"/><path class="cls-5" d="M69,50.58c-1,0-2.07.47-2.76.3-.54-.13-9.9-8.29-14.69-8.11h0a6.71,6.71,0,0,0-6.94,3.94,3.75,3.75,0,0,0-.43,1.13C43,53.5,46.5,60.1,46.76,60.55c.39.9,2.32,1.15,4.48,1.8a54.22,54.22,0,0,1,5.9,2.23A7,7,0,0,0,59,66.76a4.74,4.74,0,0,0,2.43,1,4.5,4.5,0,0,0,2.35-.23,23.19,23.19,0,0,0,5.74-3.22c2.63-1.6,4.31-5.1,4.62-5.23s-.64-4.35-.64-4.35A4,4,0,0,0,69,50.58Z"/><path class="cls-2" d="M67.92,53.91a3.9,3.9,0,0,1-1.75-.7c-.63-.6-1.26-1.41-1.35-1.3.07,1.94,2.18,3.35,2.63,4C68.42,56.18,69.09,54.05,67.92,53.91Z"/><path class="cls-4" d="M66,53.9a8.7,8.7,0,0,1-1.15-2c.07,1.94,2.18,3.35,2.63,4,.12.07.08-.34-.3-.74A7.41,7.41,0,0,1,66,53.9Z"/><path class="cls-2" d="M74,55.7a12,12,0,0,0-.87-1.78,2.75,2.75,0,0,0-1.4-1,3.38,3.38,0,0,0-2.67.9,1.41,1.41,0,0,0-.14,1.57c.18.7,1.32,2.36,1.46,2.95a5.27,5.27,0,0,1,0,1.85,5.67,5.67,0,0,0,1.43,1.26,4.23,4.23,0,0,0,.46.7c.16.17.55.46.79.32l2-1.13a.36.36,0,0,0,.15-.2c.77-.15.46-1.23.46-1.23A28.87,28.87,0,0,0,74,55.7Z"/><path class="cls-3" d="M70.34,55.66c-.19-.11-.35,0-.35.12a.7.7,0,0,0,.35.52c.19.12.35.07.35-.11A.74.74,0,0,0,70.34,55.66Z"/><path d="M70.35,55.93c-.17-.1-.32-.16-.32-.12a1,1,0,0,0,.32.24c.17.1.31.16.31.12A.94.94,0,0,0,70.35,55.93Z"/><path class="cls-1" d="M47.76,82.15c-2,1.16-6.86.22-10.87-2.09s-5.62-5.12-3.62-6.27,6.87-.22,10.87,2.09S49.76,81,47.76,82.15Z"/><path class="cls-2" d="M46.42,67.94c-.3.54.62,1.14.8.64s.78-1.29.23-2.2C47.25,66.4,47,67.51,46.42,67.94Z"/><path class="cls-4" d="M37.24,71.05c-.15-.13-.59-.49-.61-.32a3.39,3.39,0,0,0,0,.35c-.22-.12-.45-.21-.46-.1a8,8,0,0,0,.59,2.69.73.73,0,0,0,.17.65c.06.06.07,0,.07,0s.06.45.18.52a1.29,1.29,0,0,0,.81.47s.41-.07.42-.24a1.23,1.23,0,0,0-.42-1A3.84,3.84,0,0,1,37.24,71.05Z"/><path class="cls-4" d="M44.22,76.65a3.59,3.59,0,0,0-.2-2c-.05-.07-.71-.43-.72-.25a1.29,1.29,0,0,0,0,.19c-.17-.07-.32-.11-.33,0,.1.56.34,1.27.38,1.69a3.31,3.31,0,0,1,0,1.22.56.56,0,0,0,.1.62c.07.06.07,0,.07,0a5.49,5.49,0,0,0,.17.53.84.84,0,0,0,.83.46s.29,0,.29-.17a2.5,2.5,0,0,0-.43-1.08A4.31,4.31,0,0,1,44.22,76.65Z"/><path class="cls-4" d="M34.75,72.49c-.16-.13-.6-.49-.61-.32l0,.35c-.21-.12-.44-.21-.45-.1a7.7,7.7,0,0,0,.59,2.69.73.73,0,0,0,.17.65c.06.06.07,0,.07,0s.06.45.18.52a1.34,1.34,0,0,0,.81.47c.05,0,.41-.07.42-.24a1.25,1.25,0,0,0-.42-1A3.85,3.85,0,0,1,34.75,72.49Z"/><path class="cls-4" d="M41.73,78.09a3.58,3.58,0,0,0-.2-2c-.05-.07-.71-.43-.72-.26a1.42,1.42,0,0,0,0,.2c-.17-.07-.33-.11-.33,0,.1.56.34,1.27.38,1.69a3.4,3.4,0,0,1,0,1.22.57.57,0,0,0,.11.62c.07.06.07,0,.07,0a3.58,3.58,0,0,0,.17.54.85.85,0,0,0,.83.46s.29,0,.29-.17a2.5,2.5,0,0,0-.43-1.08A3.94,3.94,0,0,1,41.73,78.09Z"/><path class="cls-5" d="M45.46,67.53a8.3,8.3,0,0,1-1.45.16c-.28-.07-5.19-4.35-7.71-4.26h0a3.54,3.54,0,0,0-3.64,2.07,2.14,2.14,0,0,0-.23.59c-.65,3,1.21,6.43,1.35,6.67.2.47,1.21.6,2.35.94a30.43,30.43,0,0,1,3.1,1.18,3.64,3.64,0,0,0,1,1.14,2.6,2.6,0,0,0,1.28.52,2.31,2.31,0,0,0,1.23-.13,11.91,11.91,0,0,0,3-1.69A10,10,0,0,0,48.13,72c.22-.1-.34-2.28-.34-2.28A2.1,2.1,0,0,0,45.46,67.53Z"/><path class="cls-2" d="M44.88,69.28a2.25,2.25,0,0,1-.92-.37c-.33-.31-.66-.74-.71-.68,0,1,1.15,1.75,1.38,2.09C45.15,70.47,45.5,69.35,44.88,69.28Z"/><path class="cls-4" d="M43.85,69.27a5.19,5.19,0,0,1-.6-1c0,1,1.15,1.75,1.38,2.09.07,0,0-.17-.15-.38A4.3,4.3,0,0,1,43.85,69.27Z"/><path class="cls-2" d="M48.07,70.22a7.3,7.3,0,0,0-.46-.94,1.41,1.41,0,0,0-.74-.53,1.78,1.78,0,0,0-1.4.48.76.76,0,0,0-.07.82c.09.36.69,1.24.76,1.55a2.56,2.56,0,0,1,0,1,3.17,3.17,0,0,0,.75.66,2.53,2.53,0,0,0,.24.37c.09.09.29.24.42.16l1-.59a.17.17,0,0,0,.08-.1c.4-.08.24-.65.24-.65A14.1,14.1,0,0,0,48.07,70.22Z"/><path class="cls-3" d="M46.15,70.2c-.1-.06-.18,0-.18.06a.35.35,0,0,0,.18.27c.1.06.19,0,.19-.06A.38.38,0,0,0,46.15,70.2Z"/><path d="M46.16,70.34c-.1-.06-.17-.08-.17-.07s.07.08.17.13.16.08.16.06A.53.53,0,0,0,46.16,70.34Z"/></svg>