<svg id="Layer_1" data-name="Layer 1" xmlns="http://www.w3.org/2000/svg" viewBox="0 0 98.15 111.18"><defs><style>.cls-1{fill:#703f1e;}.cls-2{fill:#5b3114;}.cls-3{fill:#9bc90e;}.cls-4{fill:#80b708;}.cls-5{fill:#72a307;}.cls-6{fill:#5b9303;}</style></defs><path class="cls-1" d="M54.53,110.31C49.84,98,51.72,80.7,49.71,73.24c-1.64-.45-2.52,1.25-3.83,2.21-.06,9,.58,21.9-2.88,34.25C46.86,112.44,51.19,110.78,54.53,110.31Z"/><path class="cls-2" d="M54.53,110.31c-3.41-9-3.29-18.87-3.79-28.31-.11-1.92-.22-3.84-.47-5.74-.19-1.5-.22-4.16-2.35-2.64-.74.54-1.3,1.29-2,1.83,0,1.46,0,2.92,0,4.38,0,3,0,6-.1,9,.15-5,.8,1.27,0,0,4,6.35,4.35,15.14,3.34,22.35C51,111,52.71,110.56,54.53,110.31Z"/><path class="cls-2" d="M45.78,88.83c.8,1.27.15-5,0,0Z"/><path class="cls-3" d="M.27,74.33C5.87,82.88,21.34,87,30.2,82c8-4.52,14.38-22.34,12.74-32.31l-.95-1C30,59.65,16.84,71.72.27,74.33Z"/><path class="cls-4" d="M35.67,54.44A19.74,19.74,0,0,1,30.8,67.88c-5.94,6.83-14,10.22-22.88,7.21a8.5,8.5,0,0,1-3.08-1.76,45.81,45.81,0,0,1-4.57,1C5.87,82.88,21.34,87,30.2,82c8-4.52,14.38-22.34,12.74-32.31l-.95-1C39.93,50.63,37.82,52.54,35.67,54.44Z"/><path class="cls-5" d="M38,52.34C37,59,34.4,65.71,30.81,70.2,23.57,79.31,11.5,83.49,3.13,73.77c-.94.22-1.89.41-2.86.56C5.87,82.88,21.34,87,30.2,82c8-4.52,14.38-22.34,12.74-32.31l-.95-1Q40,50.54,38,52.34Z"/><path class="cls-6" d="M3.16,76.23a9.16,9.16,0,0,1-2-2.07l-.87.17C5.87,82.88,21.34,87,30.2,82c8-4.52,14.38-22.34,12.74-32.31l-.95-1-1.43,1.3c2.26,8.74-1.56,19.29-7.28,25.59C25.7,84,11.57,82.59,3.16,76.23Z"/><path class="cls-3" d="M68.26,82.88c8.88,5,24.33.75,29.89-7.82-16.58-2.55-29.78-14.58-41.8-25.43l-1,1C53.79,60.59,60.23,78.39,68.26,82.88Z"/><path class="cls-4" d="M67.61,68.72A19.77,19.77,0,0,1,62.69,55.3c-2.15-1.89-4.26-3.8-6.34-5.67l-1,1c-1.61,10,4.83,27.77,12.86,32.26,8.88,5,24.33.75,29.89-7.82a41.07,41.07,0,0,1-4.56-1,8.8,8.8,0,0,1-3.07,1.77C81.61,78.9,73.57,75.53,67.61,68.72Z"/><path class="cls-5" d="M67.6,71.05C64,66.56,61.41,59.88,60.33,53.2c-1.34-1.19-2.68-2.39-4-3.57l-1,1c-1.61,10,4.83,27.77,12.86,32.26,8.88,5,24.33.75,29.89-7.82-1-.14-1.9-.33-2.85-.54C87,84.26,74.88,80.13,67.6,71.05Z"/><path class="cls-6" d="M56.35,49.63l-1,1c-1.61,10,4.83,27.77,12.86,32.26,8.88,5,24.33.75,29.89-7.82-.29,0-.57-.11-.87-.16a8.85,8.85,0,0,1-2,2.07c-8.38,6.4-22.51,7.86-30.13-.47-5.73-6.29-9.59-16.82-7.36-25.57Z"/><path class="cls-3" d="M53.29,43.63c-6.76,7.5-11,25.94-6.73,34.07,4.76,9,20,13.86,29.34,9.69C63.37,76.23,58.83,59,54.62,43.32Z"/><path class="cls-4" d="M54.62,43.32l-1.33.31c-6.76,7.5-11,25.94-6.73,34.07,4.76,9,20,13.86,29.34,9.69a44.79,44.79,0,0,1-3.3-3.31,8.82,8.82,0,0,1-3.54-.18C59.94,81.61,55,74.41,53.7,65.46a19.73,19.73,0,0,1,3.17-13.94C56.09,48.76,55.35,46,54.62,43.32Z"/><path class="cls-5" d="M54.62,43.32l-1.33.31c-6.76,7.5-11,25.94-6.73,34.07,4.76,9,20,13.86,29.34,9.69-.73-.65-1.42-1.32-2.1-2C61.5,89,53.61,79,52.43,67.41c-.58-5.72.87-12.74,3.59-18.93C55.54,46.75,55.08,45,54.62,43.32Z"/><path class="cls-6" d="M54.62,43.32l-1.33.31c-6.76,7.5-11,25.94-6.73,34.07,4.76,9,20,13.86,29.34,9.69l-.64-.61a9.27,9.27,0,0,1-2.81.65c-10.51.81-23.16-5.64-25-16.78C46,62.26,48.5,51.32,55.13,45.19Z"/><path class="cls-3" d="M20.9,90.14c9.26,4.31,24.59-.32,29.49-9.24,4.42-8.06.43-26.57-6.22-34.17l-1.32-.33C38.41,62,33.6,79.18,20.9,90.14Z"/><path class="cls-4" d="M27.79,86.75a8.58,8.58,0,0,1-3.54.13,43,43,0,0,1-3.35,3.26c9.26,4.31,24.59-.32,29.49-9.24,4.42-8.06.43-26.57-6.22-34.17l-1.32-.33c-.77,2.69-1.55,5.42-2.37,8.17a19.68,19.68,0,0,1,3,14C42,77.49,37,84.61,27.79,86.75Z"/><path class="cls-5" d="M23,88.16c-.69.68-1.39,1.34-2.13,2,9.26,4.31,24.59-.32,29.49-9.24,4.42-8.06.43-26.57-6.22-34.17l-1.32-.33c-.49,1.69-1,3.41-1.48,5.14,2.63,6.23,4,13.27,3.31,19C43.31,82.09,35.27,92,23,88.16Z"/><path class="cls-6" d="M24.35,90.23a8.92,8.92,0,0,1-2.8-.7l-.65.61c9.26,4.31,24.59-.32,29.49-9.24,4.42-8.06.43-26.57-6.22-34.17l-1.32-.33c-.18.61-.36,1.24-.53,1.86,6.52,6.23,8.84,17.21,7.31,25.58C47.6,85,34.85,91.21,24.35,90.23Z"/><path class="cls-3" d="M12.23,55.86c7,5.38,20.82,4.35,26.62-2.25,5.25-6,5.37-22.33,1.19-30L39,23.08C32.3,35.39,25,49,12.23,55.86Z"/><path class="cls-4" d="M18.68,54.3a7.5,7.5,0,0,1-3-.57,38.58,38.58,0,0,1-3.43,2.13c7,5.38,20.82,4.35,26.62-2.25,5.25-6,5.37-22.33,1.19-30L39,23.08c-1.15,2.12-2.32,4.28-3.53,6.44a17,17,0,0,1-.15,12.36C32.4,49.15,26.82,54.21,18.68,54.3Z"/><path class="cls-5" d="M14.39,54.59c-.7.44-1.42.87-2.16,1.27,7,5.38,20.82,4.35,26.62-2.25,5.25-6,5.37-22.33,1.19-30L39,23.08l-2.21,4.06c1,5.75.84,11.94-.79,16.64C32.66,53.28,24,60.13,14.39,54.59Z"/><path class="cls-6" d="M15.12,56.59a7.9,7.9,0,0,1-2.23-1.12l-.66.39c7,5.38,20.82,4.35,26.62-2.25,5.25-6,5.37-22.33,1.19-30L39,23.08l-.8,1.47c4.34,6.49,4.23,16.19,1.36,23C35.74,56.5,23.8,59.38,15.12,56.59Z"/><path class="cls-3" d="M52.79,23.61c-4.17,7.67-4.06,24,1.19,30,5.81,6.6,19.63,7.63,26.62,2.25C67.82,49,60.53,35.39,53.85,23.08Z"/><path class="cls-4" d="M53.85,23.08l-1.06.53c-4.17,7.67-4.06,24,1.19,30,5.81,6.6,19.63,7.63,26.62,2.25a38.58,38.58,0,0,1-3.43-2.13,7.46,7.46,0,0,1-3,.57C66,54.21,60.43,49.15,57.54,41.88a17,17,0,0,1-.15-12.36C56.17,27.36,55,25.2,53.85,23.08Z"/><path class="cls-5" d="M53.85,23.08l-1.06.53c-4.17,7.67-4.06,24,1.19,30,5.81,6.6,19.63,7.63,26.62,2.25-.74-.4-1.46-.83-2.16-1.27-9.61,5.54-18.27-1.31-21.59-10.81-1.63-4.7-1.83-10.89-.79-16.64Q55,25.09,53.85,23.08Z"/><path class="cls-6" d="M53.85,23.08l-1.06.53c-4.17,7.67-4.06,24,1.19,30,5.81,6.6,19.63,7.63,26.62,2.25l-.66-.39a7.9,7.9,0,0,1-2.23,1.12C69,59.38,57.1,56.5,53.29,47.51c-2.87-6.77-3-16.47,1.37-23Z"/><path class="cls-3" d="M38.17,46.65C41.09,55,53.53,61.06,62,58.68c-9.29-11.14-11-26.48-12.56-40.4l-1.18.09C41.54,23.93,35.54,39.15,38.17,46.65Z"/><path class="cls-4" d="M49.47,18.28l-1.18.09c-6.75,5.56-12.75,20.78-10.12,28.28C41.09,55,53.53,61.06,62,58.68a35.69,35.69,0,0,1-2.39-3.25,7.56,7.56,0,0,1-3-.61c-7.51-3.11-10.8-9.89-10.78-17.72a17.1,17.1,0,0,1,4.49-11.52C50,23.12,49.74,20.68,49.47,18.28Z"/><path class="cls-5" d="M50,22.87c-.19-1.54-.36-3.08-.53-4.59l-1.18.09c-6.75,5.56-12.75,20.78-10.12,28.28C41.09,55,53.53,61.06,62,58.68c-.54-.65-1-1.31-1.54-2-11,1.54-16.45-8-16-18.1C44.75,33.64,46.89,27.82,50,22.87Z"/><path class="cls-6" d="M49.66,19.94c-.06-.55-.14-1.11-.19-1.66l-1.18.09c-6.75,5.56-12.75,20.78-10.12,28.28C41.09,55,53.53,61.06,62,58.68l-.46-.6a8.34,8.34,0,0,1-2.49.2C50,57.63,40,50.5,39.82,40.74,39.69,33.38,43.2,24.34,49.66,19.94Z"/><path class="cls-3" d="M24.45,30.45C30.22,34.88,41.6,34,46.39,28.6c4.32-4.92,4.42-18.41,1-24.72l-.87-.44C41,13.59,35,24.8,24.45,30.45Z"/><path class="cls-4" d="M29.77,29.17a6.16,6.16,0,0,1-2.48-.47,31.3,31.3,0,0,1-2.84,1.75C30.22,34.88,41.6,34,46.39,28.6c4.32-4.92,4.42-18.41,1-24.72l-.87-.44c-1,1.75-1.91,3.53-2.91,5.31a14,14,0,0,1-.12,10.18C41.07,24.92,36.47,29.09,29.77,29.17Z"/><path class="cls-5" d="M26.24,29.4c-.59.37-1.17.72-1.79,1.05C30.22,34.88,41.6,34,46.39,28.6c4.32-4.92,4.42-18.41,1-24.72l-.87-.44c-.6,1.1-1.2,2.22-1.81,3.35A28.42,28.42,0,0,1,44,20.5C41.28,28.32,34.16,34,26.24,29.4Z"/><path class="cls-6" d="M26.83,31.05A6.6,6.6,0,0,1,25,30.13c-.18.11-.35.22-.54.32C30.22,34.88,41.6,34,46.39,28.6c4.32-4.92,4.42-18.41,1-24.72l-.87-.44c-.21.4-.44.81-.65,1.22C49.41,10,49.32,18,47,23.57,43.82,31,34,33.36,26.83,31.05Z"/><path class="cls-3" d="M46.6.63c-3.44,7.22-3.35,22.63,1,28.25,4.79,6.21,16.17,7.17,21.94,2.11C59,24.53,53,11.73,47.47.14Z"/><path class="cls-4" d="M47.47.14,46.6.63c-3.44,7.22-3.35,22.63,1,28.25,4.79,6.21,16.17,7.17,21.94,2.11a29.5,29.5,0,0,1-2.84-2,5.42,5.42,0,0,1-2.48.52c-6.7-.08-11.3-4.84-13.7-11.68a18.3,18.3,0,0,1-.11-11.63C49.39,4.17,48.42,2.14,47.47.14Z"/><path class="cls-5" d="M47.47.14,46.6.63c-3.44,7.22-3.35,22.63,1,28.25,4.79,6.21,16.17,7.17,21.94,2.11-.62-.37-1.21-.77-1.79-1.19C59.81,35,51.9,29.43,49.17,20.49,47.82,16.07,46.86,10,49.29,4,48.68,2.68,48.08,1.4,47.47.14Z"/><path class="cls-6" d="M47.47.14,46.6.63c-3.44,7.22-3.35,22.63,1,28.25,4.79,6.21,16.17,7.17,21.94,2.11-.19-.11-.36-.24-.55-.36a6.23,6.23,0,0,1-1.84,1.05c-7.15,2.63-17-.09-20.12-8.55-2.36-6.37-2.45-15.5,1.12-21.61C47.92,1.06,47.69.6,47.47.14Z"/></svg>