<svg id="Layer_1" data-name="Layer 1" xmlns="http://www.w3.org/2000/svg" viewBox="0 0 206.23 88.93"><defs><style>.cls-1{fill:#fb0;}.cls-2{fill:#d49c00;}.cls-3{fill:#ffd666;}</style></defs><polygon class="cls-1" points="3.44 21.91 0 27.86 94.03 27.86 97.47 21.91 3.44 21.91"/><polygon class="cls-2" points="0 27.85 3.44 33.81 97.47 33.81 94.03 27.86 0 27.85"/><polygon class="cls-3" points="97.47 21.91 94.03 27.86 97.47 33.81 100.9 27.86 97.47 21.91"/><polygon class="cls-1" points="3.44 53.34 0 59.29 94.03 59.29 97.47 53.34 3.44 53.34"/><polygon class="cls-2" points="0 59.28 3.44 65.24 97.47 65.24 94.03 59.29 0 59.28"/><polygon class="cls-3" points="97.47 53.34 94.03 59.29 97.47 65.24 100.9 59.29 97.47 53.34"/><polygon class="cls-1" points="104.25 21.91 100.81 27.86 194.84 27.86 198.28 21.91 104.25 21.91"/><polygon class="cls-2" points="100.81 27.85 104.25 33.81 198.28 33.81 194.84 27.86 100.81 27.85"/><polygon class="cls-3" points="198.28 21.91 194.84 27.86 198.28 33.81 201.71 27.86 198.28 21.91"/><polygon class="cls-1" points="104.25 53.34 100.81 59.29 194.84 59.29 198.28 53.34 104.25 53.34"/><polygon class="cls-2" points="100.81 59.28 104.25 65.24 198.28 65.24 194.84 59.29 100.81 59.28"/><polygon class="cls-3" points="198.28 53.34 194.84 59.29 198.28 65.24 201.71 59.29 198.28 53.34"/><polygon class="cls-1" points="94.25 85.48 100.2 88.93 100.2 6.88 94.25 3.44 94.25 85.48"/><polygon class="cls-2" points="100.2 88.93 106.16 85.48 106.16 3.44 100.2 6.88 100.2 88.93"/><polygon class="cls-3" points="94.25 3.44 100.2 6.88 106.16 3.44 100.2 0 94.25 3.44"/><polygon class="cls-2" points="206.23 3.44 200.27 6.87 194.32 3.44 194.32 85.48 200.27 88.92 200.27 88.93 200.27 88.93 200.27 88.93 200.27 88.92 206.23 85.48 206.23 3.44"/><polygon class="cls-3" points="194.32 3.44 200.27 6.88 206.23 3.44 200.27 0 194.32 3.44"/></svg>