<?xml version="1.0" encoding="utf-8"?>
<!-- Generator: Adobe Illustrator 24.0.0, SVG Export Plug-In . SVG Version: 6.00 Build 0)  -->
<svg version="1.1" id="Layer_1" xmlns="http://www.w3.org/2000/svg" xmlns:xlink="http://www.w3.org/1999/xlink" x="0px" y="0px"
	 viewBox="0 0 3000 3000" style="enable-background:new 0 0 3000 3000;" xml:space="preserve">
<style type="text/css">
	.st0{fill:#8FA50F;}
	.st1{fill:#6F7A03;}
	.st2{fill:#2B2722;}
	.st3{fill:#432618;}
	.st4{opacity:0.17;fill:#CB8346;}
	.st5{opacity:0.17;}
	.st6{opacity:0.29;fill:#CB8346;}
	.st7{fill:#7C4939;}
	.st8{opacity:0.29;fill:#DF965B;}
	.st9{fill:#A3DB67;}
	.st10{fill:#415916;}
	.st11{fill:#587421;}
	.st12{fill:#6D3A11;}
	.st13{fill:#6DA531;}
	.st14{fill:#92AB48;}
	.st15{opacity:0.37;fill:#92AB48;}
	.st16{fill:#709C28;}
	.st17{fill:#D9E248;}
	.st18{opacity:0.51;fill:#D9E248;}
	.st19{fill:#E8E839;}
	.st20{fill:#D39728;}
	.st21{fill:#5F6D20;}
	.st22{fill:#DCAE2A;}
	.st23{fill:#E8CB33;}
	.st24{fill:#F8E741;}
	.st25{opacity:0.66;fill:#FFFFFF;}
	.st26{opacity:0.38;fill:#A6801E;}
	.st27{fill:#4F4911;}
	.st28{fill:#605915;}
	.st29{opacity:0.29;fill:#D9E248;}
	.st30{fill:#D18021;}
	.st31{opacity:0.6;fill:#E6C388;}
	.st32{fill:#E6C388;}
	.st33{opacity:0.49;fill:#D18021;}
	.st34{fill:#88781D;}
</style>
<g>
	<path class="st0" d="M1932.09,1210.21c-16.26,12.55-29.77,30.26-40.23,47.26c5.21-54.85,17.62-131.67,47.22-164.46
		c48.46-53.7-37.71-35.85-79.45-3.71c-41.71,32.13-65.49,98.54-65.49,98.54l-43.26-149.07l-20.95,133.26
		c0,0-21.33-55.36-26.35-86.99c-5.04-31.62-43.53,64.89-50.24,86.44c-6.74,21.54-28.43-95.07-25.84-132.75
		c2.59-37.69-27.65,27.39-35.55,56.33c-7.84,28.95-43.12-64.98-51.28-76.85c-8.12-11.87-1.41,93.98-16.28,103.66
		c-8.33,5.41,28.58,30.65,83.21,59.15c-1.18,26.66-3.14,56.79-10.73,61.74c-14.84,9.68,113.81,82.16,230.58,124.14
		c116.79,42.01,133.16,72.39,133.16,72.39s2.49-171.71,50.94-225.39C2059.98,1160.23,1973.81,1178.07,1932.09,1210.21z
		 M1664.44,1215.98c-3.61,13.26-12.98,0.69-22.82-17.9c8.04,3.87,16.28,7.74,24.71,11.58
		C1665.61,1211.89,1664.96,1214.03,1664.44,1215.98z M1725.78,1292.38c-4.09,13.14-13.75-25.14-20.09-65.56
		c13.2,5.48,26.52,10.78,39.73,15.66C1736.55,1262.43,1728.53,1283.6,1725.78,1292.38z M1802.38,1292.94c0,0-5.65-14.68-11.8-33.24
		c5.67,2.32,10.96,4.59,15.96,6.82L1802.38,1292.94z M1866.61,1308.77l-3.59-12.34c2.44,1.61,4.63,3.15,6.63,4.62
		C1867.68,1305.84,1866.61,1308.77,1866.61,1308.77z"/>
	<path class="st1" d="M2844.14,1974.39c-68.4-51.02-153.9-62.78-194.92-137.33c-41.05-74.57-106.03-164.82-263.31-239.38
		c-157.31-74.57-201.75-62.79-270.15-102.05c-68.38-39.22-287.23-223.66-430.86-270.76c-95.84-31.43-129.94-129.49-225.68-51.02
		c-95.73,78.49-201.73,141.29-304.32,125.57c-102.57-15.68-177.84,23.55-218.86,82.43c-41.03,58.86-61.54,66.71-126.52,58.86
		c-64.96-7.86-78.63,19.62-143.59,62.78c-64.98,43.17-99.19,7.86-170.99,39.25c-71.83,31.38-119.68,62.77-133.37,129.5
		c-13.67,66.7-10.26,31.38-102.59,70.63c-92.3,39.23-136.77,51.01-147.03,105.95c-10.25,54.93-38.14,130.85-48.39,142.62
		c-10.27,11.79,3.54,61.03,37.72,88.49c34.21,27.49,204.44,20.03,210.14,51.43c5.69,31.38,104.88,33.96,135.64,64.08
		c30.78,30.11,37.63,69.34,88.92,88.95c51.29,19.64,123.12,7.86,177.81,90.27c54.7,82.4,297.49,239.37,386.39,337.46
		c88.92,98.12,287.25,253.12,372.74,211.92c85.47-41.22,265.16-141.29,368.52-137.36c103.38,3.91,168.32-31.38,216.22-102.03
		c47.85-70.63,177.79-239.36,276.96-235.44c99.17,3.92,239.36-31.4,280.38-102.04c41.03-70.62,82.08-58.84,150.46-105.95
		c68.4-47.1,157.3-125.58,170.98-153.05C2950.14,2060.73,2912.52,2025.41,2844.14,1974.39z"/>
	<path class="st2" d="M2867.71,1970.72c-65.62-48.95-214.94-54.03-254.31-125.6c-39.36-71.54-101.74-158.16-252.7-229.71
		c-150.94-71.56-193.61-60.27-259.25-97.93c-65.62-37.67-275.65-214.66-413.49-259.85c-92-30.14-124.68-124.27-216.57-48.96
		c-91.9,75.33-193.61,135.59-292.08,120.52c-98.47-15.07-170.65,22.6-210.03,79.08c-39.39,56.49-59.06,64.03-121.42,56.49
		c-62.35-7.53-75.48,18.84-137.82,60.26c-62.37,41.42-95.2,7.53-164.1,37.66c-68.91,30.13-114.85,60.25-127.99,124.29
		c-13.13,64-9.83,30.12-98.43,67.78c-88.61,37.67-131.28,48.96-141.13,101.67c-9.84,52.75-74.63-21.26-84.49-9.97
		c-9.85,11.29-4.1,164.39,28.69,190.75c32.85,26.37,241.74,60.24,247.22,90.38c5.47,30.12,100.63,32.6,130.2,61.49
		c29.52,28.91,36.07,66.57,85.28,85.38c49.24,18.82,118.16,7.54,170.66,86.63c52.51,79.08,285.51,229.72,370.83,323.87
		c85.34,94.15,275.68,242.91,357.72,203.36c82.03-39.54,254.45-135.58,353.65-131.81c99.21,3.78,161.56-30.12,207.5-97.93
		c45.94-67.77,170.65-229.72,265.82-225.95c95.16,3.78,229.71-30.13,269.1-97.92c39.36-67.78,78.77-56.49,144.38-101.67
		c65.64-45.19,150.96-120.51,164.09-146.89C2902.19,2059.79,2933.37,2019.69,2867.71,1970.72z"/>
	<path class="st3" d="M2800.47,1899.16c-65.64-48.95-147.7-60.25-187.08-131.81c-39.36-71.56-101.74-158.18-252.7-229.73
		c-150.94-71.54-193.61-60.24-259.25-97.89c-65.62-37.68-275.65-214.67-413.49-259.87c-92-30.16-124.68-124.28-216.57-48.96
		c-91.9,75.33-193.61,135.58-292.08,120.53c-98.47-15.08-170.65,22.59-210.03,79.07c-39.39,56.5-59.06,64.02-121.42,56.5
		c-62.35-7.54-75.48,18.82-137.82,60.25c-62.37,41.44-95.2,7.53-164.1,37.66c-68.91,30.13-114.85,60.26-127.99,124.26
		c-13.13,64.02-9.83,30.14-98.43,67.81c-88.61,37.65-131.28,48.94-141.13,101.67c-9.84,52.72-68.9,41.41-78.76,52.72
		c-9.83,11.3-9.83,101.68,22.96,128.05c32.85,26.37,241.74,60.26,247.22,90.37c5.47,30.13,100.63,32.62,130.2,61.52
		c29.52,28.88,36.07,66.54,85.28,85.35c49.24,18.85,118.16,7.54,170.66,86.64c52.51,79.1,285.51,229.72,370.83,323.87
		c85.34,94.17,275.68,242.91,357.72,203.36c82.03-39.54,254.45-135.58,353.65-131.8c99.21,3.77,161.56-30.14,207.5-97.93
		c45.94-67.78,170.65-229.72,265.82-225.95c95.16,3.76,229.71-30.14,269.1-97.91c39.36-67.79,78.77-56.5,144.38-101.69
		c65.64-45.2,150.96-120.5,164.09-146.87C2902.19,1982.01,2866.09,1948.12,2800.47,1899.16z"/>
	<path class="st0" d="M1737.18,2774.65c-14.86-9.69-8.14-115.54-16.3-103.64c-8.12,11.85-43.39,105.77-51.27,76.81
		c-7.88-28.91-38.12-94.02-35.53-56.32c2.57,37.69-19.12,154.28-25.84,132.73c-6.71-21.55-45.22-118.04-50.24-86.41
		c-5.05,31.61-26.35,86.97-26.35,86.97l-20.93-133.27l-43.27,149.09c0,0-23.78-66.43-65.51-98.55
		c-41.72-32.14-127.89-49.98-79.44,3.71c48.44,53.67,72.6,122.56,72.6,122.56s-5.31,72.43,111.48,30.43
		C1623.37,2856.8,1752.04,2784.32,1737.18,2774.65z"/>
	<g>
		<path class="st4" d="M2728.26,1910.47c-101.74-22.58-180.48,11.3-282.22,124.29c-101.73,112.96-108.31,124.27-259.25,112.96
			c-150.95-11.29-190.34,0-272.38,120.52c-82.03,120.51-124.68,180.77-295.34,199.59c-170.67,18.82-185.15-3.77-233.01,105.46
			c-47.83,109.21,3.96,207.23,95.52,183.78c91.54-23.45,244.35-202.63,380.32-146.12c59.35,24.65,180.49-143.12,301.93-218.44
			c121.42-75.32,187.04-86.61,305.19-154.39c118.15-67.81,215.56-101.26,295.34-203.36
			C2794.16,1996.59,2829.99,1933.06,2728.26,1910.47z"/>
		<path class="st2" d="M2367.27,1995.74c-88.58,85.26-164.06,42.77-285.5,42.77c-121.45,0-164.07,109.2-229.71,190.81
			c-65.64,81.6-334.73,136.83-459.43,189.55c-124.71,52.74-75.48,214.69-72.2,146.88c3.27-67.78,196.9-199.6,364.26-203.35
			c167.37-3.78,239.57-203.38,318.34-251.08c78.75-47.73,210.02-27.61,285.51-23.85c75.48,3.77,219.87-210.9,219.87-210.9
			C2541.67,1830.26,2455.88,1910.47,2367.27,1995.74z"/>
	</g>
	<g>
		<path class="st4" d="M2350.86,1639.2c-101.73-22.59-180.48,11.3-282.2,124.27c-101.74,112.99-108.32,124.28-259.27,112.99
			c-150.96-11.32-190.33,0-272.38,120.51c-82.04,120.49-124.69,180.77-295.35,199.59c-170.64,18.83-185.15-3.77-232.99,105.46
			c-47.85,109.2,3.97,207.2,95.52,183.78c91.54-23.43,244.35-202.6,380.33-146.14c59.33,24.65,180.48-143.1,301.9-218.42
			c121.42-75.31,187.06-86.6,305.19-154.39c118.15-67.79,215.6-101.25,295.37-203.38C2416.78,1725.32,2452.59,1661.8,2350.86,1639.2
			z"/>
		<path class="st2" d="M1989.87,1724.46c-88.59,85.27-164.07,42.78-285.49,42.78c-121.42,0-164.09,109.23-229.73,190.81
			c-65.64,81.62-334.73,136.84-459.43,189.56c-124.69,52.72-75.46,214.66-72.2,146.88c3.29-67.8,196.9-199.61,364.28-203.37
			c167.35-3.76,239.57-203.36,318.32-251.09c78.77-47.72,210.03-27.59,285.51-23.84c75.48,3.77,219.87-210.88,219.87-210.88
			C2164.27,1559,2078.5,1639.2,1989.87,1724.46z"/>
	</g>
	<g>
		<path class="st4" d="M1931.17,1365.89c-101.72-22.6-180.48,11.29-282.22,124.28c-101.71,112.99-108.29,124.27-259.25,112.99
			c-150.95-11.32-190.32,0-272.38,120.5c-82.03,120.51-124.7,180.78-295.34,199.61c-170.66,18.83-185.15-3.79-232.99,105.45
			c-47.89,109.2,3.96,207.21,95.52,183.8c91.52-23.45,244.33-202.63,380.31-146.15c59.35,24.65,180.51-143.1,301.93-218.43
			c121.4-75.32,187.06-86.61,305.19-154.4c118.14-67.79,215.56-101.26,295.34-203.36
			C1997.07,1452.02,2032.9,1388.49,1931.17,1365.89z"/>
		<path class="st2" d="M1570.19,1451.15c-88.6,85.26-164.08,42.77-285.52,42.77c-121.42,0-164.07,109.24-229.71,190.82
			c-65.64,81.61-334.73,136.82-459.41,189.56c-124.73,52.71-75.5,214.66-72.21,146.87c3.29-67.79,196.9-199.61,364.26-203.37
			c167.37-3.78,239.57-203.36,318.34-251.08c78.76-47.72,210.02-27.61,285.51-23.84c75.48,3.77,219.87-210.9,219.87-210.9
			C1744.58,1285.69,1658.79,1365.89,1570.19,1451.15z"/>
	</g>
	<g class="st5">
		<path class="st6" d="M1602.63,1153.49c-101.72-22.59-73.82-35.76-175.53,77.22c-101.76,112.98-301.85,5.06-418.07,116.17
			C904,1447.25,708.4,1428.45,626.38,1548.96c-82.05,120.51-105.04-28.26-185.09,118.02c-91.18,166.59-203.3,45.77-251.15,154.99
			c-47.87,109.21,22.14,157.67,113.65,134.24c91.56-23.41,244.37-202.62,380.34-146.15c59.35,24.67,258.89-65.09,344.21-189.59
			c86.47-126.15,144.75-115.43,262.88-183.22c118.14-67.79,160.84,27.46,268.75-31.43
			C1704.39,1327.07,1704.39,1176.1,1602.63,1153.49z"/>
	</g>
	<g>
		<path class="st7" d="M760.37,1910.12c-37.21-19.07-83.68,15.07-136.19,33.9c-52.51,18.83-36.09,118.64,32.83,139.34
			C725.93,2104.06,867.02,1964.71,760.37,1910.12z"/>
		<path class="st2" d="M657.01,2036.69c-31.91-9.59-52.36-36.12-60.16-63.73c-12.73,37.1,9.41,95.15,60.16,110.4
			c57.5,17.25,165.09-76.79,137.34-140.16C775.39,1997.15,701.33,2050.01,657.01,2036.69z"/>
		<path class="st8" d="M721.01,1930.83c-38.91-26.27-46.84,39.33-82.03,33.89c-35.23-5.43-37.55,52.74,8.29,56.49
			C693.11,2024.96,776.79,1968.5,721.01,1930.83z"/>
	</g>
	<g>
		<path class="st7" d="M2313.12,1712.13c-37.23-12.54-83.68,9.92-136.19,22.32c-52.51,12.4-36.11,78.12,32.81,91.78
			C2278.64,1839.86,2419.76,1748.08,2313.12,1712.13z"/>
		<path class="st2" d="M2209.74,1795.49c-31.9-6.32-52.38-23.79-60.16-41.97c-12.74,24.44,9.42,62.65,60.16,72.71
			c57.48,11.38,165.08-50.58,137.32-92.3C2328.11,1769.44,2254.05,1804.26,2209.74,1795.49z"/>
		<path class="st8" d="M2273.71,1725.76c-38.89-17.29-46.82,25.9-82.01,22.32c-35.23-3.58-37.55,34.74,8.31,37.2
			C2245.83,1787.78,2329.52,1750.58,2273.71,1725.76z"/>
	</g>
	<g>
		<path class="st7" d="M1660,1194.61c-37.21-12.55-83.68,9.91-136.19,22.32c-52.51,12.39-36.1,78.11,32.83,91.75
			C1625.52,1322.32,1766.65,1230.56,1660,1194.61z"/>
		<path class="st2" d="M1556.64,1277.98c-31.92-6.32-52.4-23.82-60.19-41.97c-12.71,24.41,9.41,62.65,60.19,72.69
			c57.48,11.38,165.06-50.57,137.32-92.31C1674.99,1251.93,1600.93,1286.74,1556.64,1277.98z"/>
		<path class="st8" d="M1620.61,1208.26c-38.93-17.32-46.82,25.9-82.05,22.3c-35.22-3.58-37.53,34.74,8.33,37.19
			C1592.71,1270.25,1676.39,1233.03,1620.61,1208.26z"/>
	</g>
	<g>
		<path class="st7" d="M2483.32,2090.74c-46.5-37.19-55.78-14.59-103.36,17.2c-47.6,31.76-91.9,37.43-113.22,24.22
			c-21.32-13.17-54.13,128.05,108.3,118.64C2537.48,2241.4,2537.48,2134.04,2483.32,2090.74z"/>
		<path class="st2" d="M2375.04,2218.79c-86.44,5.01-117.61-32.62-124.61-66.96c-7.74,35.9,8.81,105.68,124.61,98.97
			c115.92-6.71,149.08-63.29,138.91-110.89C2505.56,2177.92,2465.49,2213.56,2375.04,2218.79z"/>
		<path class="st8" d="M2361.91,2141.59c-50.87,11.3-50.87,47.06,31.16,32c82.05-15.06,49.24-50.84,49.24-50.84
			C2417.7,2094.5,2412.76,2130.29,2361.91,2141.59z"/>
	</g>
	<g>
		<path class="st7" d="M1519.22,2074.07c-46.5-37.18-55.8-14.57-103.38,17.2c-47.58,31.77-91.88,37.42-113.22,24.23
			c-21.33-13.17-54.14,128.06,108.29,118.63C1573.33,2224.71,1573.33,2117.4,1519.22,2074.07z"/>
		<path class="st2" d="M1410.9,2202.13c-86.41,5.01-117.58-32.62-124.57-66.96c-7.78,35.88,8.78,105.68,124.57,98.97
			c115.92-6.71,149.09-63.27,138.94-110.9C1541.43,2161.26,1501.39,2196.89,1410.9,2202.13z"/>
		<path class="st8" d="M1397.78,2124.93c-50.87,11.3-50.87,47.08,31.19,31.99c82.03-15.04,49.22-50.82,49.22-50.82
			C1453.58,2077.84,1448.67,2113.63,1397.78,2124.93z"/>
	</g>
	<g>
		<path class="st7" d="M2763.26,1924.34c-46.5-37.19-55.81-14.6-103.38,17.19c-47.6,31.8-91.9,37.43-113.24,24.26
			c-21.32-13.2-54.13,128.03,108.32,118.62C2817.38,2075,2817.38,1967.67,2763.26,1924.34z"/>
		<path class="st2" d="M2654.95,2052.41c-86.44,5-117.59-32.63-124.62-66.96c-7.74,35.89,8.82,105.67,124.62,98.97
			c115.89-6.72,149.06-63.3,138.91-110.91C2785.45,2011.52,2745.41,2047.16,2654.95,2052.41z"/>
		<path class="st8" d="M2641.82,1975.21c-50.9,11.29-50.9,47.07,31.16,32.01c82.03-15.07,49.24-50.85,49.24-50.85
			C2697.6,1928.12,2692.69,1963.9,2641.82,1975.21z"/>
	</g>
	<g>
		<path class="st7" d="M339.98,1792.38c-46.48-37.17-55.78-14.58-103.36,17.18c-47.58,31.77-91.88,37.44-113.23,24.23
			c-21.32-13.17-54.13,128.06,108.3,118.65C394.14,1943.02,394.14,1835.69,339.98,1792.38z"/>
		<path class="st2" d="M231.7,1920.43c-86.42,5.01-117.59-32.64-124.57-66.96c-7.78,35.88,8.81,105.68,124.57,98.97
			c115.92-6.73,149.08-63.3,138.93-110.91C362.22,1879.57,322.17,1915.19,231.7,1920.43z"/>
		<path class="st8" d="M218.57,1843.22c-50.85,11.32-50.85,47.08,31.18,32.03c82.03-15.08,49.22-50.85,49.22-50.85
			C274.36,1796.16,269.45,1831.92,218.57,1843.22z"/>
	</g>
	<g>
		<path class="st9" d="M1328.63,2732.09c-12.04-4.39,21.87,26.35,48.69,55.86c26.8,29.48,36.07,81.6,36.07,81.6
			c15.32,32.64,23.54,17.57,10.96-35.78C1411.76,2780.41,1340.68,2736.46,1328.63,2732.09z"/>
		<path class="st9" d="M1474.13,2860.75c0,0,40.46-63.37,32.81-147.49L1474.13,2860.75z"/>
		<path class="st9" d="M1529.92,2840.67c-14.24,26.98,39.35,20.08,33.37-99.16C1563.29,2741.51,1544.13,2813.67,1529.92,2840.67z"/>
	</g>
</g>
</svg>
