<svg id="Layer_1" data-name="Layer 1" xmlns="http://www.w3.org/2000/svg" viewBox="0 0 3000 3000"><defs><style>.cls-1{fill:#8fa50f;}.cls-2{fill:#6f7a03;}.cls-3{fill:#2b2722;}.cls-4{fill:#432618;}.cls-5,.cls-7{fill:#cb8346;}.cls-5,.cls-6{opacity:0.17;}.cls-7,.cls-9{opacity:0.29;}.cls-8{fill:#7c4939;}.cls-9{fill:#df965b;}.cls-10{fill:#a3db67;}.cls-11{fill:#668522;}.cls-12{fill:#536f1c;}.cls-13{fill:#79a72c;}.cls-14{fill:#709c28;}.cls-15,.cls-16{fill:#95cc36;}.cls-16{opacity:0.56;}.cls-17{fill:#8bbf32;}.cls-18{fill:#b3eb45;}.cls-19{fill:#415916;}</style></defs><title>Cabbage</title><path class="cls-1" d="M1952,1124.15c-15.84,12.23-29,29.55-39.21,46.13,5.08-53.55,17.18-128.57,46-160.56,47.24-52.4-36.75-35-77.45-3.6s-63.88,96.2-63.88,96.2l-42.14-145.54-20.45,130.09s-20.77-54-25.67-84.92-42.47,63.36-49,84.37-27.71-92.78-25.19-129.56-27,26.73-34.64,55-42.06-63.43-50-75-1.38,91.75-15.86,101.19c-8.13,5.32,27.81,29.95,81.09,57.76-1.15,26-3,55.43-10.44,60.28-14.49,9.45,110.94,80.2,224.81,121.18s129.81,70.66,129.81,70.66,2.43-167.64,49.67-220S1992.75,1092.77,1952,1124.15Zm-261,5.63c-3.53,12.92-12.64.67-22.23-17.52,7.82,3.82,15.84,7.59,24.07,11.37C1692.25,1125.79,1691.57,1127.88,1691.08,1129.78Zm59.81,74.6c-4,12.79-13.41-24.57-19.59-64,12.87,5.36,25.84,10.52,38.75,15.3C1761.39,1175.12,1753.57,1195.8,1750.89,1204.38Zm74.7.52s-5.53-14.34-11.51-32.45c5.49,2.27,10.66,4.49,15.56,6.66Zm62.62,15.46-3.52-12.06c2.35,1.57,4.53,3.08,6.46,4.52C1889.25,1217.48,1888.21,1220.36,1888.21,1220.36Z"/><path class="cls-2" d="M2841.27,1870.14c-66.68-49.8-150-61.29-190-134.05s-103.35-160.92-256.74-233.71-196.69-61.27-263.37-99.61-280-218.37-420.06-264.33c-93.49-30.67-126.71-126.39-220.06-49.79s-196.68,137.93-296.73,122.61-173.37,23-213.33,80.42-60,65.13-123.39,57.48-76.68,19.13-140,61.28-96.71,7.66-166.71,38.32-116.7,61.28-130,126.41-10,30.66-100,68.95-133.39,49.81-143.35,103.44-37.22,127.74-47.22,139.24,3.47,59.59,36.81,86.38,199.31,19.55,204.86,50.2,102.26,33.16,132.26,62.56,36.67,67.69,86.69,86.83,120,7.69,173.36,88.13,290,233.69,376.75,329.44,280,247.09,363.41,206.86,258.49-137.9,359.3-134.07,164.11-30.63,210.78-99.6,173.36-233.67,270.06-229.84,233.37-30.67,273.38-99.63,80-57.44,146.72-103.42,153.33-122.59,166.68-149.41S2907.92,1919.94,2841.27,1870.14Z"/><path class="cls-3" d="M2864.29,1866.58c-64-47.8-209.62-52.77-248-122.63s-99.23-154.4-246.39-224.25-188.77-58.83-252.76-95.6S1848.42,1214.56,1714,1170.42c-89.69-29.43-121.58-121.31-211.16-47.77s-188.8,132.34-284.79,117.63-166.38,22.06-204.78,77.22-57.58,62.51-118.38,55.14-73.58,18.39-134.4,58.81-92.76,7.37-160,36.78-112,58.81-124.79,121.32-9.6,29.41-96,66.18-128,47.78-137.58,99.25-72.78-20.76-82.37-9.74-4,160.47,27.95,186.21,235.69,58.83,241,88.23,98.11,31.83,126.92,60,35.19,65,83.19,83.35,115.21,7.34,166.37,84.54,278.38,224.29,361.55,316.19,268.77,237.13,348.77,198.53,248.1-132.36,344.8-128.68,157.52-29.42,202.31-95.58,166.38-224.26,259.18-220.59,224-29.41,262.38-95.59,76.78-55.16,140.77-99.27,147.16-117.63,160-143.37S2928.27,1914.36,2864.29,1866.58Z"/><path class="cls-4" d="M2798.67,1796.72c-64-47.78-144-58.82-182.34-128.68s-99.23-154.41-246.39-224.26-188.77-58.83-252.76-95.59S1848.42,1138.63,1714,1094.51c-89.69-29.43-121.58-121.28-211.16-47.78s-188.8,132.36-284.79,117.63-166.38,22.07-204.78,77.21-57.58,62.51-118.38,55.15-73.58,18.39-134.4,58.82-92.76,7.38-160,36.78-112,58.82-124.79,121.31-9.6,29.43-96,66.16-128,47.81-137.58,99.29-67.2,40.42-76.81,51.45-9.6,99.27,22.39,125,235.69,58.81,241,88.22,98.11,31.82,126.92,60,35.19,65,83.19,83.34,115.21,7.36,166.37,84.58,278.38,224.25,361.55,316.17,268.77,237.12,348.77,198.53,248.1-132.35,344.8-128.7,157.52-29.39,202.31-95.56,166.38-224.28,259.18-220.59,224-29.42,262.38-95.6,76.78-55.13,140.77-99.25,147.16-117.65,160-143.39S2862.67,1844.5,2798.67,1796.72Z"/><path class="cls-1" d="M1859.18,2696.85c-19.69-12.83-10.77-153.32-21.56-137.57s-57.53,140.44-68,102-50.52-124.81-47.06-74.79-25.34,204.76-34.24,176.2-60-156.68-66.62-114.72-34.94,115.45-34.94,115.45L1559,2586.57l-57.35,197.86s-31.53-88.16-86.82-130.78-169.51-66.35-105.32,4.86,96.29,162.7,96.29,162.7-7.06,96.13,147.71,40.42S1878.9,2709.68,1859.18,2696.85Z"/><path class="cls-5" d="M2728.31,1807.76c-99.2-22.07-176,11-275.19,121.31s-105.56,121.31-252.78,110.28-185.58,0-265.57,117.65-121.55,176.47-288,194.84-180.48-3.66-227.15,102.95,3.87,202.3,93.13,179.44,238.22-197.81,370.79-142.66c57.87,24.07,176-139.73,294.38-213.24s182.37-84.55,297.53-150.72,210.23-98.86,288-198.54C2792.52,1891.83,2827.46,1829.8,2728.31,1807.76Z"/><path class="cls-3" d="M2376.32,1891c-86.38,83.24-160,41.78-278.33,41.78s-160,106.6-224,186.28-326.33,133.57-447.92,185-73.61,209.59-70.41,143.4,192-194.85,355.17-198.53,233.57-198.54,310.33-245.12,204.79-26.93,278.38-23.24,214.37-205.89,214.37-205.89C2546.37,1729.46,2462.72,1807.76,2376.32,1891Z"/><path class="cls-5" d="M2360.34,1543c-99.18-22.08-176,11-275.15,121.31s-105.63,121.33-252.78,110.3-185.59,0-265.59,117.63S1445.27,2068.66,1278.9,2087s-180.5-3.68-227.19,102.94,3.89,202.29,93.13,179.44,238.22-197.82,370.82-142.68c57.88,24.07,176-139.7,294.37-213.21s182.35-84.57,297.53-150.74,210.21-98.86,288-198.53C2424.58,1627,2459.53,1565,2360.34,1543Z"/><path class="cls-3" d="M2008.39,1626.16c-86.4,83.25-160,41.77-278.36,41.77s-160,106.63-224,186.26-326.37,133.59-448,185-73.59,209.56-70.39,143.38,192-194.84,355.15-198.52,233.59-198.51,310.37-245.11,204.77-27,278.34-23.27S2146,1509.83,2146,1509.83C2178.4,1464.63,2094.78,1543,2008.39,1626.16Z"/><path class="cls-5" d="M1951.13,1276.11c-99.17-22.06-176,11-275.16,121.33s-105.58,121.32-252.75,110.29-185.57,0-265.58,117.65-121.54,176.49-288,194.86-180.52-3.69-227.17,102.94,3.87,202.29,93.11,179.41,238.24-197.8,370.81-142.68c57.87,24.1,176-139.67,294.38-213.22s182.37-84.54,297.57-150.72,210.17-98.86,287.95-198.53C2015.39,1360.21,2050.34,1298.18,1951.13,1276.11Z"/><path class="cls-3" d="M1599.19,1359.36c-86.39,83.22-160,41.75-278.36,41.75s-160,106.62-224,186.28S770.52,1721,648.93,1772.45s-73.6,209.55-70.39,143.38,192-194.87,355.14-198.54,233.54-198.53,310.38-245.11,204.75-27,278.34-23.28S1736.77,1243,1736.77,1243C1769.21,1197.83,1685.57,1276.11,1599.19,1359.36Z"/><g class="cls-6"><path class="cls-7" d="M1630.85,1068.77c-99.21-22-72-34.91-171.19,75.38s-294.26,4.93-407.6,113.4c-102.37,98-293.11,79.65-373.1,197.29s-102.39-27.6-180.4,115.2c-88.89,162.64-198.25,44.7-244.9,151.32s21.58,153.93,110.83,131,238.25-197.79,370.81-142.65c57.88,24.07,252.41-63.55,335.6-185.1,84.33-123.14,141.13-112.7,256.35-178.86s156.77,26.78,262-30.68C1730,1238.23,1730,1090.84,1630.85,1068.77Z"/></g><path class="cls-8" d="M809.65,1807.41c-36.28-18.6-81.59,14.7-132.78,33.07s-35.17,115.81,32,136S913.63,1860.7,809.65,1807.41Z"/><path class="cls-3" d="M708.86,1931c-31.11-9.36-51.07-35.27-58.62-62.21-12.45,36.22,9.14,92.88,58.62,107.77,56.06,16.84,161-75,133.9-136.84C824.27,1892.37,752.06,1943.94,708.86,1931Z"/><path class="cls-9" d="M771.27,1827.63c-37.95-25.67-45.67,38.4-80,33.07s-36.59,51.48,8.08,55.15S825.66,1864.38,771.27,1827.63Z"/><path class="cls-8" d="M2323.53,1614.13c-36.32-12.23-81.6,9.68-132.8,21.79s-35.17,76.27,32.05,89.58S2427.49,1649.23,2323.53,1614.13Z"/><path class="cls-3" d="M2222.78,1695.51c-31.15-6.16-51.1-23.23-58.69-41-12.41,23.85,9.18,61.19,58.69,71,56,11.12,160.91-49.37,133.86-90.11C2338.17,1670.09,2266,1704.06,2222.78,1695.51Z"/><path class="cls-9" d="M2285.13,1627.44c-37.92-16.9-45.63,25.31-80,21.79s-36.59,33.91,8.1,36.31S2339.53,1651.66,2285.13,1627.44Z"/><path class="cls-8" d="M1686.75,1108.91c-36.3-12.24-81.59,9.67-132.78,21.8s-35.2,76.25,32,89.57S1790.75,1144,1686.75,1108.91Z"/><path class="cls-3" d="M1586,1190.27c-31.12-6.15-51.06-23.21-58.66-41-12.41,23.84,9.19,61.14,58.66,71,56,11.11,160.94-49.37,133.87-90.12C1701.37,1164.86,1629.16,1198.83,1586,1190.27Z"/><path class="cls-9" d="M1648.37,1122.22c-37.94-16.89-45.67,25.3-80,21.8s-36.59,33.91,8.08,36.31S1702.75,1146.44,1648.37,1122.22Z"/><path class="cls-8" d="M2180.12,2101.37c-45.3-36.31-54.4-14.26-100.77,16.76s-89.58,36.53-110.39,23.68-52.78,125,105.6,115.8S2232.93,2143.65,2180.12,2101.37Z"/><path class="cls-3" d="M2074.56,2226.36c-84.28,4.9-114.64-31.85-121.48-65.38-7.57,35.05,8.6,103.17,121.48,96.63s145.34-61.78,135.45-108.25C2201.8,2186.48,2162.74,2221.25,2074.56,2226.36Z"/><path class="cls-9" d="M2061.76,2151c-49.62,11-49.62,46,30.39,31.27s48-49.64,48-49.64C2116.14,2105,2111.34,2140,2061.76,2151Z"/><path class="cls-8" d="M1549.51,1967.46c-45.36-36.29-54.41-14.24-100.81,16.76s-89.58,36.56-110.37,23.7-52.79,125,105.58,115.82S1602.29,2009.75,1549.51,1967.46Z"/><path class="cls-3" d="M1443.91,2092.47c-84.28,4.9-114.66-31.84-121.48-65.37-7.58,35.05,8.61,103.16,121.48,96.64s145.36-61.8,135.44-108.27C1571.15,2052.59,1532.11,2087.36,1443.91,2092.47Z"/><path class="cls-9" d="M1431.12,2017.11c-49.59,11-49.59,46,30.4,31.22s48-49.62,48-49.62C1485.49,1971.14,1480.71,2006.08,1431.12,2017.11Z"/><path class="cls-8" d="M2180.12,1802.08c-45.32-36.32-54.4-14.23-100.77,16.75s-89.58,36.54-110.39,23.69-52.78,125,105.6,115.8S2232.93,1844.35,2180.12,1802.08Z"/><path class="cls-3" d="M2074.56,1927.07c-84.28,4.9-114.64-31.83-121.5-65.36-7.57,35,8.59,103.16,121.5,96.61s145.34-61.77,135.42-108.25C2201.78,1887.2,2162.74,1922,2074.56,1927.07Z"/><path class="cls-9" d="M2061.76,1851.71c-49.62,11-49.62,46,30.39,31.24s48-49.63,48-49.63C2116.14,1805.75,2111.34,1840.69,2061.76,1851.71Z"/><path class="cls-10" d="M1317.68,2640.4c-15.93-5.83,29,35,64.52,74.12s47.83,108.3,47.83,108.3c20.31,43.32,31.18,23.32,14.5-47.49S1333.6,2646.19,1317.68,2640.4Z"/><path class="cls-10" d="M1510.51,2811.15s53.65-84.13,43.51-195.76Z"/><path class="cls-10" d="M1584.46,2784.48c-18.84,35.81,52.21,26.67,44.23-131.62C1628.69,2652.86,1603.3,2748.64,1584.46,2784.48Z"/><path class="cls-11" d="M1877.5,1336.29l169.56,7s63.89,63.53,35.62,148.25-138.32,105.88-159.45,134.1-135,157.44-263.19,111.54-137.61-63.54-162.18-112.94-64.81-15.54-95.68,24-114.41,111.54-218.84,77.65-102-87.52-152.37-87.52-69.16-11.31-75.76-62.12-64.3,0-85.18-94.59,2.46-121.4,33.18-129.87S1716.55,1198,1877.5,1336.29Z"/><path class="cls-12" d="M1818.68,1041.23s37.93-53.48,127.61-26.74,100.77,39.46,114.28,36.64-51.61,55-13.51,110.09,66.34,131.32,30.71,184.94-221.16-12.71-221.16-12.71Z"/><path class="cls-12" d="M1028.52,969.22s-2.45-40.91-62.67,0,32,129.9-38.08,200.49S808.59,1288.3,843,1343.34s149.36,66.38,217.19,33.89S984.3,1131.59,1028.52,969.22Z"/><path class="cls-12" d="M1757.11,1113.24s97.05-224.46,0-304.92S1524,770.17,1483.26,723.58s-98.81-33.88-158.21,8.49S1075.21,784.31,1048.18,910s-93.37,309.6,19.65,365.85S1732.52,1224.76,1757.11,1113.24Z"/><path class="cls-13" d="M1818.68,1310c0,212.85-139.14,307.92-324.37,307.92S1147.84,1522.8,1147.84,1310,1298,924.53,1483.26,924.53,1818.68,1097.09,1818.68,1310Z"/><path class="cls-14" d="M1375.42,924.53s-54.6,58.35-9.28,92.24,121.78,43.29,117.12,92.22,11.74,90.36,64.16,96,68.44-24.47,95.64,30.11,38.7,105.42,76.37,129.88,76.13,107.28,19.23,163.79-215.35,128-399.06,64S797.55,1000.3,1375.42,924.53Z"/><path class="cls-15" d="M1707.09,1022.9s125.68,126.67,29.12,211.53-197.81,93.38-228.52,120.22-48.47,96-48.47,96,111.13-70.58,225.38-26.81,210.09,48,219.93-36.72-22.12-87.51,7.36-165.17S1926.15,974.91,1707.09,1022.9Z"/><path class="cls-15" d="M1408.37,997.71c-20.22,23.8,93.21,5.56,102,69.16s19.4,82.54,61.15,93.7,105.83,82.57,137.88,61.36,58.45-99.2-18.12-183S1489.93,901.77,1408.37,997.71Z"/><path class="cls-16" d="M1350.13,939.68s-31.09,80.36,7.75,108.23,112.61,35.7,109.72,74.74,21.34,98.65,53.39,111.78,83.4,29.27,76.62,56.81S1520,1305,1449.15,1276.85s-298.07-46.45-325.26-103.69S1108.37,1013.32,1350.13,939.68Z"/><path class="cls-12" d="M1154,1405.55s84.53-60.11,232,0,207.55,181.16,209.56,188.58-43.54,63.52-214.41,16.69S1082.17,1401.09,1154,1405.55Z"/><path class="cls-17" d="M1048.18,910s-57.74,272.45,89.7,310.57,265.37,69.19,353.82,186.34,105.91,196.26,105.91,196.26-56.76-151.09-215.25-199.08-202.71,46.58-314.53-9.86S962.17,1044.06,1048.18,910Z"/><path class="cls-15" d="M1015.16,1102.57s2.91,90.34,57.28,118.24,234,64.72,278.65,101.52-102.9-22.3-157.29,6.7-136.88,17.85-162.12-62.46S1015.16,1102.57,1015.16,1102.57Z"/><path class="cls-16" d="M895,1411.85c-4.74-10.27-19.65,93.71,10.93,108.77s77.68,12.54,77.8,41.83,13.21,62.75,34.34,62.75,59.7.84,88.09,36.83,120,72.78,184.48,46,68.72-36.82,68.72-36.82-45.66-27.77-122.11-41.94-145.65-49.25-161.67-89.42,24-22.58-29.83-46.86S912.44,1449.52,895,1411.85Z"/><path class="cls-14" d="M2055,1395.31c22.57,20.61,18.94,99.36-37.87,132.83s-110.67,75.13-123.77,101.14-107.12,111.33-202.1,87.92-180.91-70.24-141.6-58.53,221.37,23.42,234.47-18.41,71.36-122.82,106.32-128.33,58.25,27.93,72.81-44S2021.94,1365.12,2055,1395.31Z"/><path class="cls-14" d="M1113.62,992.63s238-160.61,406.88-108.72,212.63,60.24,212.63,5-101.94-85.34-177.66-92-83-41.84-120.89-60.24-103.38,13.4-163.1,38.5S1024.22,902.24,1113.62,992.63Z"/><path class="cls-14" d="M1948.67,1052.91c48,0,52.42-.46,67,70.06s69.9,142.23,40.78,168.27-122.88,10.43-100-14.39,38.87-66.64,25.76-118.51S1948.67,1052.91,1948.67,1052.91Z"/><path class="cls-11" d="M963.48,1073s-7.28,135.49-35,161.43-79.39,48.57-56.09,85.39,141.27,41,141.27,41-79.36-38.67-63.34-89.62S982.62,1129.76,963.48,1073Z"/><path class="cls-15" d="M1315.17,973.17C1285.62,1009.53,1352,1086,1406,1093.65s39.31,36.44,50,85.16S1237.49,1241.5,1227.8,1123,1342.35,939.7,1315.17,973.17Z"/><path class="cls-18" d="M1463.7,976.51c55-4.17,111.69-36.72,168,38s-12.63,184-51.46,113.74,1-104.78-48.53-113.74S1404.47,981,1463.7,976.51Z"/><path class="cls-19" d="M1402.18,924.53c-1.9,6.53-49.89,70.94,0,97.72s127.79,27.6,115.54,84.64-12.78,91.17,25.84,97.54,66.75-4.15,61,0S1496.74,1218,1488,1187.06s10-103.39-45.61-130.36-94.14-18.81-94.2-73.47S1412.5,889.27,1402.18,924.53Z"/><path class="cls-11" d="M1215.26,1726.93l169.56,7s63.89,63.53,35.63,148.25S1282.12,1988.11,1261,2016.34s-135,157.43-263.18,111.53-137.62-63.54-162.18-112.94-64.82-15.54-95.68,24-114.42,111.53-218.85,77.64S419.13,2029,368.73,2029s-69.16-11.3-75.75-62.1-64.3,0-85.18-94.59,2.44-121.41,33.18-129.88S1054.31,1588.59,1215.26,1726.93Z"/><path class="cls-12" d="M1156.43,1431.87s38-53.48,127.63-26.74,100.76,39.46,114.27,36.65-51.6,55-13.51,110.1,66.35,131.3,30.71,184.93-221.15-12.71-221.15-12.71Z"/><path class="cls-12" d="M366.28,1359.87s-2.46-40.92-62.66,0,31.95,129.89-38.08,200.48S146.35,1679,180.76,1734s149.35,66.38,217.18,33.89S322.06,1522.23,366.28,1359.87Z"/><path class="cls-12" d="M1094.87,1503.88s97.06-224.46,0-304.93S861.73,1160.81,821,1114.22s-98.79-33.89-158.2,8.49S413,1175,385.94,1300.6s-93.38,309.61,19.65,365.85S1070.28,1615.41,1094.87,1503.88Z"/><path class="cls-13" d="M1156.43,1700.6c0,212.85-139.12,307.91-324.36,307.91S485.6,1913.45,485.6,1700.6,635.78,1315.17,821,1315.17,1156.43,1487.73,1156.43,1700.6Z"/><path class="cls-14" d="M713.18,1315.17s-54.59,58.35-9.27,92.24,121.78,43.29,117.1,92.21,11.76,90.38,64.17,96,68.44-24.47,95.65,30.13,38.68,105.4,76.36,129.86,76.13,107.29,19.23,163.79-215.35,128-399.07,64S135.3,1390.93,713.18,1315.17Z"/><path class="cls-15" d="M1044.84,1413.54s125.69,126.67,29.13,211.54-197.8,93.36-228.53,120.22-48.45,96-48.45,96,111.13-70.56,225.38-26.81,210.09,48,219.93-36.71-22.13-87.52,7.36-165.17S1263.91,1365.56,1044.84,1413.54Z"/><path class="cls-15" d="M746.14,1388.35c-20.23,23.82,93.21,5.57,101.94,69.16s19.41,82.55,61.16,93.71,105.82,82.56,137.88,61.36,58.45-99.2-18.12-183S827.7,1292.41,746.14,1388.35Z"/><path class="cls-16" d="M687.89,1330.33s-31.08,80.35,7.76,108.22,112.61,35.7,109.71,74.73,21.35,98.66,53.4,111.8,83.4,29.25,76.62,56.81-77.58,13.77-148.46-14.39S488.85,1621,461.66,1563.82,446.14,1404,687.89,1330.33Z"/><path class="cls-12" d="M491.77,1796.19s84.53-60.11,232,0,207.57,181.16,209.56,188.58-43.53,63.52-214.39,16.69S419.94,1791.73,491.77,1796.19Z"/><path class="cls-17" d="M385.94,1300.6s-57.74,272.45,89.71,310.57S741,1680.36,829.47,1797.51s105.91,196.27,105.91,196.27-56.76-151.09-215.25-199.09-202.72,46.58-314.54-9.87S299.94,1434.7,385.94,1300.6Z"/><path class="cls-15" d="M352.93,1493.21s2.9,90.35,57.27,118.25,234,64.72,278.66,101.52-102.91-22.31-157.29,6.7-136.89,17.84-162.13-62.46S352.93,1493.21,352.93,1493.21Z"/><path class="cls-16" d="M232.79,1802.5c-4.75-10.28-19.66,93.7,10.91,108.75s77.7,12.56,77.82,41.85,13.21,62.74,34.34,62.74,59.7.85,88.09,36.84,120,72.77,184.49,46,68.7-36.83,68.7-36.83-45.66-27.78-122.1-41.94-145.66-49.25-161.67-89.41,24-22.58-29.84-46.86S250.21,1840.16,232.79,1802.5Z"/><path class="cls-14" d="M1392.73,1786c22.58,20.6,19,99.35-37.86,132.82s-110.67,75.13-123.78,101.14S1124,2131.26,1029,2107.85s-180.92-70.24-141.6-58.53,221.36,23.42,234.47-18.41,71.36-122.82,106.32-128.34,58.24,27.94,72.81-44S1359.7,1755.78,1392.73,1786Z"/><path class="cls-14" d="M451.39,1383.27s238-160.61,406.88-108.72,212.63,60.24,212.63,5-101.94-85.33-177.67-92-83-41.83-120.88-60.24-103.39,13.4-163.1,38.5S362,1292.89,451.39,1383.27Z"/><path class="cls-14" d="M1286.43,1443.56c48,0,52.43-.47,67,70s69.91,142.23,40.78,168.28-122.87,10.44-100-14.39,38.86-66.65,25.75-118.52S1286.43,1443.56,1286.43,1443.56Z"/><path class="cls-11" d="M301.24,1463.64S294,1599.13,266.3,1625.08s-79.39,48.56-56.09,85.38,141.27,41,141.27,41-79.36-38.67-63.35-89.62S320.38,1520.4,301.24,1463.64Z"/><path class="cls-15" d="M652.94,1363.81c-29.55,36.36,36.82,112.86,90.78,120.47s39.31,36.45,50,85.17-218.46,62.7-228.16-55.84S680.12,1330.35,652.94,1363.81Z"/><path class="cls-18" d="M801.47,1367.15c55-4.16,111.67-36.73,168,38s-12.62,184-51.45,113.74,1-104.78-48.53-113.74S742.24,1371.64,801.47,1367.15Z"/><path class="cls-19" d="M740,1315.17c-1.91,6.53-49.89,70.94,0,97.72s127.79,27.62,115.54,84.65-12.78,91.16,25.84,97.53,66.74-4.14,60.95,0-107.78,13.58-116.54-17.37,10-103.39-45.6-130.36S686,1428.54,686,1373.87,750.25,1279.91,740,1315.17Z"/><path class="cls-11" d="M2581.68,1764.5l169.56,7s63.89,63.53,35.63,148.24-138.33,105.87-159.45,134.11-135,157.44-263.19,111.53-137.62-63.55-162.18-112.95-64.83-15.54-95.68,24S1992,2188,1887.51,2154.12s-102-87.52-152.36-87.52-69.17-11.29-75.75-62.1-64.3,0-85.18-94.6,2.45-121.41,33.17-129.88S2420.72,1626.14,2581.68,1764.5Z"/><path class="cls-12" d="M2522.86,1469.42s37.94-53.48,127.62-26.73,100.76,39.46,114.28,36.64-51.61,55-13.52,110.1,66.35,131.31,30.72,184.94-221.16-12.72-221.16-12.72Z"/><path class="cls-12" d="M1732.7,1397.42s-2.45-40.92-62.66,0,32,129.89-38.09,200.5-119.17,118.58-84.77,173.63,149.34,66.36,217.18,33.88S1688.49,1559.8,1732.7,1397.42Z"/><path class="cls-12" d="M2461.29,1541.43s97-224.45,0-304.92-233.15-38.15-273.85-84.73-98.81-33.89-158.21,8.48-249.83,52.26-276.87,177.89S1659,1647.77,1772,1704,2436.7,1653,2461.29,1541.43Z"/><path class="cls-13" d="M2522.86,1738.15c0,212.85-139.13,307.91-324.37,307.91S1852,1951,1852,1738.15s150.17-385.42,335.41-385.42S2522.86,1525.3,2522.86,1738.15Z"/><path class="cls-14" d="M2079.59,1352.73s-54.59,58.34-9.26,92.23,121.78,43.29,117.11,92.22,11.75,90.37,64.16,96,68.44-24.46,95.64,30.14,38.69,105.39,76.37,129.86,76.12,107.28,19.23,163.78-215.34,128-399.07,64S1501.72,1428.49,2079.59,1352.73Z"/><path class="cls-15" d="M2411.26,1451.1s125.69,126.68,29.12,211.54-197.81,93.37-228.52,120.2-48.45,96-48.45,96,111.12-70.58,225.36-26.82,210.1,48,219.95-36.7-22.13-87.53,7.36-165.18S2630.34,1403.11,2411.26,1451.1Z"/><path class="cls-15" d="M2112.56,1425.91c-20.23,23.8,93.21,5.57,102,69.16s19.4,82.54,61.15,93.7,105.82,82.56,137.88,61.36,58.45-99.2-18.13-183S2194.1,1330,2112.56,1425.91Z"/><path class="cls-16" d="M2054.32,1367.88s-31.11,80.36,7.75,108.22,112.61,35.7,109.7,74.74,21.36,98.66,53.41,111.8,83.4,29.26,76.62,56.8-77.59,13.78-148.48-14.38-298.06-46.47-325.23-103.7S1812.56,1441.51,2054.32,1367.88Z"/><path class="cls-12" d="M1858.19,1833.75s84.53-60.12,232,0,207.57,181.15,209.57,188.57-43.54,63.53-214.41,16.7S1786.34,1829.29,1858.19,1833.75Z"/><path class="cls-17" d="M1752.36,1338.15s-57.74,272.46,89.71,310.58,265.36,69.19,353.82,186.35,105.91,196.24,105.91,196.24-56.76-151.08-215.25-199.08-202.72,46.59-314.53-9.86S1666.36,1472.25,1752.36,1338.15Z"/><path class="cls-15" d="M1719.35,1530.77s2.9,90.33,57.26,118.24,234,64.72,278.67,101.53-102.91-22.31-157.29,6.69-136.9,17.84-162.14-62.46S1719.35,1530.77,1719.35,1530.77Z"/><path class="cls-16" d="M1599.21,1840.05c-4.75-10.27-19.66,93.7,10.92,108.77s77.67,12.53,77.79,41.82,13.23,62.76,34.36,62.76,59.7.85,88.09,36.83,120,72.77,184.48,46,68.7-36.82,68.7-36.82-45.64-27.78-122.09-41.93-145.66-49.26-161.67-89.44,24-22.58-29.84-46.85S1616.63,1877.73,1599.21,1840.05Z"/><path class="cls-14" d="M2759.15,1823.51c22.58,20.6,18.93,99.36-37.86,132.83s-110.67,75.13-123.78,101.15-107.12,111.32-202.1,87.92-180.9-70.26-141.59-58.54,221.35,23.42,234.46-18.41,71.37-122.82,106.32-128.34,58.26,27.93,72.82-44S2726.11,1793.33,2759.15,1823.51Z"/><path class="cls-14" d="M1817.81,1420.83s238-160.6,406.88-108.71,212.63,60.22,212.63,5-101.94-85.33-177.68-92-83-41.84-120.88-60.23-103.39,13.4-163.09,38.5S1728.4,1330.45,1817.81,1420.83Z"/><path class="cls-14" d="M2652.86,1481.11c48,0,52.42-.47,67,70.06s69.91,142.23,40.78,168.27-122.89,10.44-100-14.38,38.86-66.65,25.76-118.52S2652.86,1481.11,2652.86,1481.11Z"/><path class="cls-11" d="M1667.66,1501.21s-7.28,135.48-35,161.43-79.37,48.56-56.07,85.37,141.26,41,141.26,41-79.35-38.65-63.34-89.6S1686.8,1558,1667.66,1501.21Z"/><path class="cls-15" d="M2019.36,1401.36c-29.55,36.36,36.81,112.86,90.79,120.48s39.3,36.45,50,85.16-218.46,62.72-228.17-55.83S2046.54,1367.91,2019.36,1401.36Z"/><path class="cls-18" d="M2167.88,1404.7c55-4.14,111.68-36.72,168,38s-12.62,184-51.45,113.75,1-104.8-48.53-113.75S2108.66,1409.2,2167.88,1404.7Z"/><path class="cls-19" d="M2106.37,1352.73c-1.91,6.52-49.89,71,0,97.71s127.79,27.61,115.54,84.66-12.8,91.16,25.82,97.52,66.76-4.13,60.95,0-107.76,13.6-116.52-17.37,10-103.37-45.6-130.35-94.15-18.81-94.2-73.48S2116.68,1317.46,2106.37,1352.73Z"/><path class="cls-11" d="M1919.45,2155.14l169.55,7s63.89,63.53,35.62,148.26-138.32,105.87-159.44,134.1S1830.2,2602,1702,2556.06s-137.62-63.54-162.18-112.94-64.82-15.54-95.69,24-114.41,111.53-218.84,77.65-102-87.52-152.36-87.52-69.17-11.31-75.75-62.12-64.31,0-85.19-94.59,2.45-121.41,33.17-129.88S1758.49,2016.78,1919.45,2155.14Z"/><path class="cls-12" d="M1860.62,1860.07s37.94-53.49,127.62-26.74S2089,1872.78,2102.52,1870s-51.61,55-13.52,110.11,66.36,131.29,30.72,184.93-221.16-12.72-221.16-12.72Z"/><path class="cls-12" d="M1070.47,1788.06s-2.45-40.91-62.66,0,31.94,129.89-38.09,200.51S850.53,2107.14,885,2162.18s149.34,66.37,217.18,33.89S1026.26,1950.45,1070.47,1788.06Z"/><path class="cls-12" d="M1799.06,1932.08s97-224.46,0-304.93S1565.9,1589,1525.2,1542.43s-98.8-33.89-158.2,8.48-249.83,52.25-276.87,177.88-93.38,309.61,19.66,365.85S1774.46,2043.6,1799.06,1932.08Z"/><path class="cls-13" d="M1860.62,2128.79c0,212.86-139.12,307.91-324.37,307.91s-346.46-95-346.46-307.91S1340,1743.36,1525.2,1743.36,1860.62,1915.93,1860.62,2128.79Z"/><path class="cls-14" d="M1417.36,1743.36s-54.59,58.35-9.27,92.24,121.79,43.29,117.11,92.23,11.75,90.37,64.17,96,68.44-24.46,95.63,30.13,38.7,105.41,76.38,129.87,76.12,107.28,19.23,163.78-215.36,128-399.07,64S839.49,1819.14,1417.36,1743.36Z"/><path class="cls-15" d="M1749,1841.74s125.69,126.68,29.12,211.55-197.81,93.36-228.52,120.2-48.45,96-48.45,96,111.11-70.57,225.36-26.82,210.1,48,219.93-36.7-22.12-87.53,7.38-165.17S1968.1,1793.75,1749,1841.74Z"/><path class="cls-15" d="M1450.32,1816.55c-20.22,23.81,93.21,5.57,102,69.16s19.41,82.54,61.15,93.71,105.82,82.55,137.87,61.36,58.47-99.19-18.12-183S1531.87,1720.62,1450.32,1816.55Z"/><path class="cls-16" d="M1392.08,1758.53s-31.1,80.34,7.75,108.21,112.62,35.7,109.71,74.74,21.36,98.66,53.41,111.81,83.4,29.25,76.62,56.8-77.59,13.77-148.48-14.39S1193,2049.23,1165.84,1992,1150.31,1832.15,1392.08,1758.53Z"/><path class="cls-12" d="M1196,2224.38s84.54-60.1,232,0,207.57,181.16,209.56,188.58-43.53,63.53-214.41,16.7S1124.11,2219.93,1196,2224.38Z"/><path class="cls-17" d="M1090.13,1728.79s-57.74,272.45,89.71,310.58,265.36,69.19,353.81,186.34S1639.57,2422,1639.57,2422s-56.77-151.08-215.26-199.07-202.71,46.57-314.52-9.88S1004.11,1862.9,1090.13,1728.79Z"/><path class="cls-15" d="M1057.12,1921.42s2.9,90.33,57.26,118.23,234,64.72,278.67,101.53-102.91-22.31-157.29,6.7-136.9,17.83-162.14-62.47S1057.12,1921.42,1057.12,1921.42Z"/><path class="cls-16" d="M937,2230.69c-4.75-10.27-19.65,93.7,10.92,108.77s77.68,12.55,77.8,41.83,13.22,62.74,34.36,62.74,59.69.86,88.09,36.84,120,72.78,184.48,46,68.7-36.84,68.7-36.84-45.65-27.77-122.11-41.92-145.64-49.26-161.65-89.42,24-22.58-29.84-46.87S954.39,2268.38,937,2230.69Z"/><path class="cls-14" d="M2096.92,2214.15c22.58,20.61,18.93,99.36-37.86,132.83s-110.67,75.12-123.78,101.15-107.12,111.33-202.11,87.92-180.9-70.25-141.59-58.54,221.37,23.43,234.47-18.41,71.37-122.82,106.31-128.34,58.27,27.95,72.82-44S2063.88,2184,2096.92,2214.15Z"/><path class="cls-14" d="M1155.58,1811.47s238-160.61,406.87-108.71,212.62,60.23,212.62,5-101.92-85.34-177.66-92-83-41.83-120.89-60.24-103.38,13.39-163.08,38.5S1066.17,1721.09,1155.58,1811.47Z"/><path class="cls-14" d="M1990.63,1871.76c48,0,52.41-.48,67,70s69.91,142.24,40.79,168.29-122.89,10.43-100-14.39,38.87-66.66,25.76-118.52S1990.63,1871.76,1990.63,1871.76Z"/><path class="cls-11" d="M1005.43,1891.85s-7.29,135.49-35,161.44-79.37,48.55-56.08,85.37,141.27,41,141.27,41S976.31,2141,992.32,2090,1024.57,1948.61,1005.43,1891.85Z"/><path class="cls-15" d="M1357.12,1792c-29.55,36.36,36.81,112.85,90.79,120.47s39.31,36.46,50,85.17-218.46,62.71-228.16-55.85S1384.3,1758.55,1357.12,1792Z"/><path class="cls-18" d="M1505.64,1795.34c55-4.14,111.69-36.72,168,38s-12.63,184-51.45,113.74,1-104.79-48.54-113.74S1446.41,1799.84,1505.64,1795.34Z"/><path class="cls-19" d="M1444.12,1743.36c-1.9,6.54-49.88,71,0,97.72s127.8,27.62,115.54,84.65-12.78,91.17,25.84,97.53,66.76-4.12,61,0-107.76,13.6-116.52-17.36,10-103.39-45.6-130.37-94.16-18.8-94.2-73.47S1454.44,1708.11,1444.12,1743.36Z"/></svg>