<svg id="Layer_1" data-name="Layer 1" xmlns="http://www.w3.org/2000/svg" viewBox="0 0 3000 3000"><defs><style>.cls-1{fill:#8fa50f;}.cls-2{fill:#6f7a03;}.cls-3{fill:#2b2722;}.cls-4{fill:#432618;}.cls-5,.cls-7{fill:#cb8346;}.cls-5,.cls-6{opacity:0.17;}.cls-7,.cls-9{opacity:0.29;}.cls-8{fill:#7c4939;}.cls-9{fill:#df965b;}.cls-10{fill:#a3db67;}</style></defs><title>Cabbage</title><path class="cls-1" d="M1882.47,1294.22c-15.25,12.17-27.92,29.36-37.73,45.86,4.89-53.23,16.52-127.78,44.29-159.6,45.45-52.12-35.36-34.79-74.51-3.6s-61.41,95.63-61.41,95.63l-40.57-144.67-19.65,129.32s-20-53.72-24.72-84.41-40.82,63-47.11,83.89-26.67-92.26-24.24-128.83-25.93,26.58-33.33,54.67-40.45-63.06-48.1-74.58-1.32,91.2-15.27,100.6c-7.81,5.25,26.81,29.74,78,57.4-1.11,25.87-3,55.11-10.07,59.92-13.92,9.39,106.73,79.73,216.24,120.46s124.89,70.25,124.89,70.25,2.33-166.64,47.77-218.72S1921.6,1263,1882.47,1294.22Zm-251,5.59c-3.39,12.87-12.18.67-21.4-17.37q11.31,5.64,23.17,11.24C1632.55,1295.84,1632,1297.92,1631.46,1299.81ZM1689,1374c-3.84,12.75-12.9-24.4-18.84-63.62,12.37,5.32,24.87,10.46,37.25,15.2C1699.09,1344.89,1691.57,1365.44,1689,1374Zm71.83.54s-5.29-14.24-11.07-32.25c5.32,2.25,10.28,4.45,15,6.62Zm60.24,15.37-3.37-12c2.28,1.56,4.34,3.06,6.22,4.48C1822.06,1387,1821.06,1389.86,1821.06,1389.86Z"/><path class="cls-2" d="M2737.82,2035.8c-64.15-49.51-144.33-60.92-182.8-133.27s-99.44-160-246.94-232.31-189.21-60.94-253.35-99-269.37-217-404.07-262.76c-89.88-30.49-121.86-125.66-211.65-49.51s-189.19,137.12-285.4,121.86-166.79,22.85-205.26,80-57.71,64.74-118.65,57.12-73.74,19-134.66,60.92-93,7.63-160.36,38.09-112.24,60.92-125.08,125.68S400,1773,313.39,1811.12s-128.27,49.5-137.89,102.82-35.76,127-45.38,138.4,3.31,59.23,35.37,85.88,191.73,19.44,197.07,49.91,98.36,33,127.21,62.19,35.3,67.29,83.39,86.32,115.47,7.62,166.76,87.6,279,232.29,362.37,327.49,269.39,245.64,349.56,205.66,248.68-137.12,345.61-133.3,157.85-30.45,202.78-99S2167,2492.79,2260,2496.6s224.48-30.47,262.95-99,77-57.1,141.11-102.81,147.52-121.87,160.34-148.53S2801.94,2085.31,2737.82,2035.8Z"/><path class="cls-3" d="M2759.92,2032.24c-61.54-47.5-201.58-52.43-238.5-121.89s-95.42-153.48-237-222.92-181.57-58.49-243.13-95-258.51-208.32-387.78-252.18c-86.28-29.25-116.92-120.6-203.1-47.51s-181.58,131.58-273.92,117-160,21.93-197,76.75-55.39,62.13-113.87,54.82-70.79,18.28-129.25,58.47-89.28,7.31-153.9,36.55-107.71,58.47-120,120.61-9.21,29.23-92.31,65.78-123.12,47.51-132.35,98.66-70-20.63-79.23-9.67-3.85,159.52,26.9,185.11,226.71,58.46,231.86,87.71,94.37,31.64,122.1,59.67,33.83,64.6,80,82.85,110.82,7.32,160.05,84.08,267.75,222.92,347.77,314.29,258.54,235.72,335.48,197.35,238.63-131.57,331.66-127.92,151.51-29.22,194.6-95,160-222.92,249.29-219.26,215.43-29.24,252.37-95,73.87-54.82,135.4-98.67,141.58-117,153.89-142.55S2821.5,2079.76,2759.92,2032.24Z"/><path class="cls-4" d="M2696.86,1962.8c-61.56-47.5-138.52-58.46-175.44-127.91s-95.42-153.5-237-222.94-181.57-58.46-243.13-95-258.51-208.33-387.78-252.19c-86.28-29.27-116.92-120.61-203.1-47.51s-181.58,131.57-273.92,117-160,21.92-197,76.73-55.39,62.13-113.87,54.83-70.79,18.26-129.25,58.47-89.28,7.3-153.9,36.55-107.71,58.48-120,120.59-9.21,29.24-92.31,65.8-123.12,47.49-132.35,98.66S173.2,1886,164,1897s-9.22,98.67,21.53,124.26,226.71,58.48,231.86,87.7,94.37,31.66,122.1,59.7,33.83,64.58,80,82.83,110.82,7.32,160.05,84.08,267.75,222.93,347.77,314.29,258.54,235.73,335.48,197.36,238.63-131.58,331.66-127.91,151.51-29.25,194.6-95,160-222.93,249.29-219.27,215.43-29.25,252.37-95,73.87-54.83,135.4-98.69,141.58-116.94,153.89-142.53S2758.4,2010.31,2696.86,1962.8Z"/><path class="cls-1" d="M1699.68,2812.41c-13.94-9.4-7.64-112.13-15.29-100.57s-40.69,102.64-48.08,74.54-35.75-91.24-33.32-54.65-17.93,149.71-24.23,128.8-42.41-114.55-47.12-83.86-24.72,84.41-24.72,84.41l-19.62-129.33-40.58,144.68s-22.31-64.46-61.44-95.64-119.94-48.5-74.5,3.61,68.08,118.93,68.08,118.93-5,70.29,104.55,29.53S1713.61,2821.79,1699.68,2812.41Z"/><path class="cls-5" d="M2629.14,1973.77c-95.42-21.91-169.26,11-264.68,120.61S2262.89,2215,2121.33,2204s-178.5,0-255.44,117-116.93,175.42-277,193.69S1415.27,2511,1370.38,2617s3.72,201.1,89.58,178.35,229.16-196.64,356.68-141.8c55.66,23.93,169.27-138.89,283.15-212s175.41-84.05,286.22-149.83,202.16-98.27,277-197.36C2690.94,2057.34,2724.54,1995.69,2629.14,1973.77Z"/><path class="cls-3" d="M2290.59,2056.53c-83.08,82.74-153.86,41.5-267.75,41.5S1869,2204,1807.41,2283.19,1493.5,2416,1376.55,2467.14s-70.79,208.34-67.71,142.54,184.66-193.7,341.61-197.34S1875.12,2215,1949,2168.68s197-26.79,267.76-23.14,206.19-204.67,206.19-204.67C2454.15,1895.94,2373.69,1973.77,2290.59,2056.53Z"/><path class="cls-5" d="M2275.2,1710.52c-95.41-21.93-169.26,11-264.65,120.6S1909,1951.73,1767.4,1940.77s-178.49,0-255.44,116.95S1395,2233.15,1235,2251.41s-173.64-3.65-218.51,102.34,3.73,201.08,89.58,178.35,229.16-196.61,356.69-141.82c55.64,23.92,169.26-138.87,283.12-212s175.43-84,286.22-149.83,202.19-98.25,277-197.36C2337,1794.1,2370.61,1732.45,2275.2,1710.52Z"/><path class="cls-3" d="M1936.66,1793.26c-83.09,82.75-153.87,41.52-267.74,41.52s-153.88,106-215.44,185.16-313.92,132.8-430.87,184-70.77,208.31-67.71,142.54,184.66-193.7,341.63-197.36,224.67-197.35,298.52-243.66,197-26.78,267.76-23.14S2069,1677.63,2069,1677.63C2100.21,1632.69,2019.77,1710.52,1936.66,1793.26Z"/><path class="cls-5" d="M1881.6,1445.29c-95.39-21.94-169.26,11-264.67,120.61s-101.56,120.6-243.13,109.64-178.49,0-255.45,116.94-116.94,175.43-277,193.71-173.63-3.68-218.5,102.33,3.71,201.09,89.58,178.37,229.13-196.64,356.66-141.83c55.65,23.92,169.28-138.87,283.15-212s175.42-84,286.21-149.83,202.16-98.27,277-197.35C1943.41,1528.87,1977,1467.22,1881.6,1445.29Z"/><path class="cls-3" d="M1543.07,1528c-83.09,82.75-153.88,41.5-267.76,41.5s-153.87,106-215.43,185.19S746,1887.49,629,1938.67s-70.8,208.32-67.72,142.54S746,1887.49,902.91,1883.85s224.68-197.35,298.55-243.66,197-26.79,267.75-23.14,206.2-204.66,206.2-204.66C1706.62,1367.46,1626.16,1445.29,1543.07,1528Z"/><g class="cls-6"><path class="cls-7" d="M1573.5,1239.17c-95.4-21.92-69.23-34.7-164.62,74.93S1125.8,1319,1016.8,1426.84C918.3,1524.25,734.86,1506,657.94,1623s-98.52-27.43-173.58,114.53c-85.51,161.67-190.66,44.42-235.54,150.41s20.77,153,106.59,130.27,229.18-196.63,356.7-141.82c55.66,23.93,242.79-63.17,322.81-184,81.09-122.42,135.75-112,246.54-177.81s150.84,26.65,252-30.5C1668.92,1407.62,1668.92,1261.11,1573.5,1239.17Z"/></g><path class="cls-8" d="M783.6,1973.43c-34.89-18.5-78.47,14.62-127.72,32.9S622,2121.46,686.67,2141.55,883.62,2026.41,783.6,1973.43Z"/><path class="cls-3" d="M686.67,2096.26c-29.92-9.31-49.1-35.05-56.42-61.85-11.93,36,8.83,92.34,56.42,107.14,53.93,16.74,154.83-74.52,128.8-136C797.69,2057.89,728.23,2109.18,686.67,2096.26Z"/><path class="cls-9" d="M746.69,1993.53c-36.49-25.5-43.93,38.16-76.93,32.88s-35.22,51.18,7.77,54.82S799,2030.08,746.69,1993.53Z"/><path class="cls-8" d="M2239.81,1781.29c-34.92-12.16-78.48,9.64-127.72,21.66s-33.87,75.81,30.77,89.07S2339.82,1816.19,2239.81,1781.29Z"/><path class="cls-3" d="M2142.86,1862.19c-29.92-6.13-49.12-23.09-56.42-40.73-12,23.71,8.83,60.8,56.42,70.56,53.9,11,154.82-49.09,128.78-89.58C2253.87,1836.91,2184.41,1870.7,2142.86,1862.19Z"/><path class="cls-9" d="M2202.85,1794.53c-36.47-16.79-43.91,25.13-76.91,21.66s-35.22,33.71,7.79,36.1S2255.19,1818.6,2202.85,1794.53Z"/><path class="cls-8" d="M1627.29,1279.08c-34.89-12.18-78.47,9.62-127.72,21.66s-33.86,75.8,30.79,89S1727.31,1314,1627.29,1279.08Z"/><path class="cls-3" d="M1530.36,1360c-29.94-6.14-49.14-23.12-56.44-40.74-11.92,23.7,8.82,60.8,56.44,70.54,53.91,11,154.79-49.08,128.78-89.58C1641.36,1334.7,1571.9,1368.48,1530.36,1360Z"/><path class="cls-9" d="M1590.36,1292.32c-36.51-16.81-43.91,25.13-76.95,21.64s-35.2,33.72,7.81,36.09S1642.67,1316.36,1590.36,1292.32Z"/><path class="cls-8" d="M2399.43,2148.72c-43.61-36.09-52.31-14.16-96.93,16.68s-86.18,36.33-106.19,23.51-50.76,124.27,101.57,115.13S2450.22,2190.74,2399.43,2148.72Z"/><path class="cls-3" d="M2297.88,2273c-81.07,4.86-110.3-31.66-116.86-65-7.27,34.84,8.26,102.56,116.86,96.05s139.81-61.41,130.27-107.61C2420.28,2233.32,2382.71,2267.91,2297.88,2273Z"/><path class="cls-9" d="M2285.57,2198.06c-47.71,11-47.71,45.68,29.22,31.06s46.18-49.33,46.18-49.33C2337.89,2152.37,2333.25,2187.09,2285.57,2198.06Z"/><path class="cls-8" d="M1495.27,2132.54c-43.61-36.08-52.33-14.14-97,16.69s-86.17,36.31-106.19,23.52-50.77,124.27,101.56,115.12S1546,2174.58,1495.27,2132.54Z"/><path class="cls-3" d="M1393.69,2256.81c-81,4.86-110.27-31.66-116.83-65-7.29,34.82,8.24,102.56,116.83,96s139.82-61.41,130.3-107.62C1516.1,2217.15,1478.55,2251.72,1393.69,2256.81Z"/><path class="cls-9" d="M1381.38,2181.89c-47.71,11-47.71,45.69,29.25,31.05s46.16-49.33,46.16-49.33C1433.71,2136.19,1429.11,2170.92,1381.38,2181.89Z"/><path class="cls-8" d="M2662,1987.24c-43.61-36.09-52.34-14.17-96.95,16.68s-86.18,36.33-106.2,23.54-50.76,124.25,101.58,115.12S2712.72,2029.28,2662,1987.24Z"/><path class="cls-3" d="M2560.39,2111.51c-81.07,4.86-110.28-31.66-116.87-65-7.26,34.83,8.27,102.55,116.87,96s139.8-61.43,130.27-107.63C2682.78,2071.84,2645.22,2106.42,2560.39,2111.51Z"/><path class="cls-9" d="M2548.08,2036.6c-47.73,11-47.73,45.68,29.22,31.06s46.18-49.35,46.18-49.35C2600.39,1990.9,2595.78,2025.63,2548.08,2036.6Z"/><path class="cls-8" d="M389.35,1859.17c-43.59-36.07-52.31-14.14-96.93,16.68s-86.17,36.33-106.19,23.51-50.76,124.28,101.57,115.15S440.14,1901.2,389.35,1859.17Z"/><path class="cls-3" d="M287.8,1983.44c-81.05,4.87-110.28-31.67-116.83-65-7.3,34.82,8.27,102.56,116.83,96s139.81-61.43,130.29-107.63C410.2,1943.79,372.65,1978.35,287.8,1983.44Z"/><path class="cls-9" d="M275.48,1908.51c-47.68,11-47.68,45.68,29.25,31.08s46.16-49.34,46.16-49.34C327.81,1862.84,323.21,1897.54,275.48,1908.51Z"/><path class="cls-10" d="M1316.53,2771.11c-11.29-4.26,20.51,25.57,45.67,54.21S1396,2904.5,1396,2904.5c14.36,31.67,22.07,17.05,10.27-34.72S1327.83,2775.35,1316.53,2771.11Z"/><path class="cls-10" d="M1453,2896s37.94-61.5,30.77-143.14Z"/><path class="cls-10" d="M1505.31,2876.48c-13.36,26.18,36.9,19.49,31.29-96.23C1536.6,2780.25,1518.63,2850.27,1505.31,2876.48Z"/></svg>