<svg id="Layer_1" data-name="Layer 1" xmlns="http://www.w3.org/2000/svg" viewBox="0 0 3000 3000"><defs><style>.cls-1{fill:#8fa50f;}.cls-2{fill:#6f7a03;}.cls-3{fill:#2b2722;}.cls-4{fill:#432618;}.cls-5,.cls-7{fill:#cb8346;}.cls-5,.cls-6{opacity:0.17;}.cls-7,.cls-9{opacity:0.29;}.cls-8{fill:#7c4939;}.cls-9{fill:#df965b;}.cls-10{fill:#a3db67;}.cls-11{fill:#415916;}.cls-12{fill:#536f1c;}.cls-13{fill:#79a72c;}.cls-14{fill:#709c28;}.cls-15,.cls-16{fill:#95cc36;}.cls-16{opacity:0.56;}.cls-17{fill:#8bbf32;}.cls-18{fill:#b3eb45;}.cls-19{fill:#6d3a11;}</style></defs><title>Cabbage</title><path class="cls-1" d="M1877.47,1281.35c-14.69,11.8-26.88,28.45-36.34,44.43,4.69-51.57,15.91-123.79,42.64-154.62,43.78-50.48-34-33.7-71.74-3.47s-59.15,92.64-59.15,92.64l-39.06-140.16-18.92,125.29s-19.25-52-23.79-81.78-39.34,61-45.39,81.27-25.67-89.38-23.33-124.8-25,25.75-32.1,52.95-39-61.09-46.3-72.25-1.29,88.36-14.69,97.46c-7.54,5.09,25.77,28.82,75.11,55.61-1.06,25.06-2.83,53.39-9.69,58-13.42,9.1,102.78,77.25,208.23,116.71s120.26,68,120.26,68,2.25-161.43,46-211.9S1915.16,1251.13,1877.47,1281.35Zm-241.73,5.43c-3.27,12.46-11.71.65-20.61-16.83q10.9,5.44,22.32,10.88C1636.81,1282.93,1636.21,1285,1635.74,1286.78Zm55.41,71.82C1687.44,1371,1678.72,1335,1673,1297c11.92,5.16,23.94,10.14,35.87,14.73C1700.86,1330.45,1693.61,1350.35,1691.15,1358.6Zm69.17.52s-5.08-13.8-10.65-31.24c5.09,2.18,9.87,4.31,14.43,6.41Zm58,14.89-3.23-11.6c2.2,1.51,4.18,3,6,4.34C1819.29,1371.26,1818.31,1374,1818.31,1374Z"/><path class="cls-2" d="M2701.11,1999.79c-61.76-48-139-59-176-129.12s-95.72-155-237.76-225.05-182.22-59-244-95.94-259.4-210.27-389.09-254.55c-86.57-29.55-117.36-121.73-203.82-48s-182.2,132.84-274.86,118.06S1015,1387.36,978,1442.71s-55.6,62.71-114.27,55.33-71,18.45-129.7,59-89.56,7.39-154.41,36.9-108.07,59-120.43,121.75-9.25,29.5-92.64,66.4-123.52,48-132.78,99.61-34.47,123-43.74,134.08,3.22,57.38,34.1,83.19,184.6,18.84,189.76,48.36,94.71,31.93,122.5,60.24,34,65.2,80.28,83.63,111.17,7.38,160.59,84.87,268.67,225,348.94,317.27,259.41,238,336.64,199.22,239.45-132.82,332.78-129.13,152-29.51,195.27-95.92,160.57-225,250.14-221.34,216.16-29.53,253.21-95.94,74.12-55.32,135.9-99.61,142-118.06,154.39-143.88S2762.85,2047.75,2701.11,1999.79Z"/><path class="cls-3" d="M2722.43,1996.34c-59.28-46-194.14-50.8-229.68-118.09s-91.9-148.68-228.21-216-174.85-56.66-234.14-92.06-248.92-201.82-373.41-244.3c-83.06-28.34-112.6-116.83-195.58-46s-174.87,127.47-263.79,113.3-154.09,21.25-189.66,74.36-53.32,60.19-109.64,53.11-68.17,17.7-124.49,56.64-85.93,7.08-148.18,35.41-103.73,56.64-115.58,116.85-8.89,28.31-88.91,63.72-118.52,46-127.43,95.58-67.41-20-76.3-9.38-3.72,154.56,25.94,179.34,218.29,56.63,223.22,85,90.91,30.65,117.56,57.8,32.63,62.59,77.08,80.28,106.69,7.09,154.11,81.45,257.82,216,334.89,304.47,248.92,228.37,323,191.19,229.81-127.46,319.39-123.92,145.9-28.32,187.38-92.07,154.11-216,240.07-212.42,207.44-28.32,243-92,71.13-53.11,130.38-95.59,136.36-113.3,148.2-138.1S2781.7,2042.37,2722.43,1996.34Z"/><path class="cls-4" d="M2661.66,1929.07c-59.27-46-133.37-56.65-168.91-123.93s-91.9-148.7-228.21-216-174.85-56.63-234.14-92S1781.48,1295.31,1657,1252.82c-83.06-28.35-112.6-116.84-195.58-46s-174.87,127.46-263.79,113.31-154.09,21.24-189.66,74.35-53.32,60.19-109.64,53.11-68.17,17.69-124.49,56.64-85.93,7.08-148.18,35.41-103.73,56.66-115.58,116.83-8.89,28.33-88.91,63.75-118.52,46-127.43,95.58-62.24,38.93-71.12,49.57-8.9,95.59,20.76,120.38,218.29,56.65,223.22,85,90.91,30.67,117.56,57.84,32.63,62.56,77.08,80.24,106.69,7.09,154.11,81.45,257.82,216,334.89,304.48,248.92,228.37,323,191.19,229.81-127.46,319.39-123.91,145.9-28.34,187.38-92.06,154.11-216,240.07-212.43,207.44-28.33,243-92.05,71.13-53.11,130.38-95.6,136.36-113.29,148.2-138.09S2720.92,1975.09,2661.66,1929.07Z"/><path class="cls-1" d="M1701.42,2752.15c-13.42-9.12-7.35-108.62-14.68-97.44s-39.21,99.44-46.33,72.23-34.41-88.4-32.07-53S1591.07,2819,1585,2798.76s-40.85-111-45.38-81.24-23.81,81.77-23.81,81.77L1496.9,2674l-39.06,140.17s-21.48-62.47-59.15-92.67-115.52-47-71.74,3.49,65.55,115.22,65.55,115.22-4.78,68.1,100.69,28.62S1714.84,2761.23,1701.42,2752.15Z"/><path class="cls-5" d="M2596.47,1939.7c-91.88-21.23-163,10.62-254.88,116.84s-97.78,116.83-234.12,106.19-171.9,0-246,113.31S1748.87,2446,1594.76,2463.7s-167.2-3.54-210.42,99.13,3.59,194.83,86.27,172.8,220.66-190.51,343.45-137.39c53.6,23.18,163-134.54,272.66-205.36s168.94-81.42,275.6-145.15,194.72-95.2,266.74-191.19C2656,2020.65,2688.35,1960.93,2596.47,1939.7Z"/><path class="cls-3" d="M2270.47,2019.86c-80,80.16-148.18,40.21-257.84,40.21s-148.18,102.66-207.45,179.39-302.3,128.63-414.89,178.2-68.2,201.83-65.22,138.09,177.81-187.66,329-191.18,216.34-191.2,287.47-236.05,189.67-26,257.84-22.43,198.56-198.27,198.56-198.27C2428,1864.28,2350.5,1939.7,2270.47,2019.86Z"/><path class="cls-5" d="M2255.66,1684.66c-91.88-21.24-163,10.62-254.89,116.83s-97.79,116.84-234.12,106.23-171.89,0-246,113.3S1408.06,2191,1253.94,2208.66s-167.18-3.54-210.41,99.15,3.6,194.81,86.27,172.77,220.64-190.47,343.46-137.39c53.58,23.18,163-134.53,272.64-205.34s168.94-81.42,275.63-145.16,194.67-95.19,266.71-191.2C2315.14,1765.63,2347.53,1705.9,2255.66,1684.66Z"/><path class="cls-3" d="M1929.64,1764.82c-80,80.16-148.16,40.22-257.82,40.22s-148.18,102.68-207.46,179.38-302.27,128.65-414.91,178.22-68.15,201.8-65.2,138.08,177.84-187.65,329-191.19,216.36-191.2,287.48-236.06,189.67-25.93,257.83-22.41,198.57-198.26,198.57-198.26C2087.13,1609.27,2009.67,1684.66,1929.64,1764.82Z"/><path class="cls-5" d="M1876.64,1427.71c-91.87-21.25-163,10.61-254.88,116.84s-97.79,116.83-234.14,106.22-171.88,0-246,113.29S1029,1934,874.92,1951.72s-167.2-3.57-210.42,99.14,3.59,194.81,86.27,172.79,220.64-190.5,343.46-137.39c53.59,23.17,163-134.54,272.65-205.36s168.93-81.43,275.62-145.16,194.68-95.2,266.73-191.19C1936.13,1508.69,1968.5,1449,1876.64,1427.71Z"/><path class="cls-3" d="M1550.62,1507.87c-80,80.16-148.18,40.21-257.83,40.21s-148.18,102.69-207.45,179.4-302.29,128.63-414.89,178.21-68.17,201.81-65.22,138.08,177.82-187.66,329-191.19,216.36-191.2,287.48-236,189.67-26,257.83-22.42,198.56-198.28,198.56-198.28C1708.11,1352.31,1630.66,1427.71,1550.62,1507.87Z"/><g class="cls-6"><path class="cls-7" d="M1579.93,1228c-91.87-21.23-66.67-33.61-158.53,72.6s-272.58,4.76-377.54,109.22c-94.86,94.36-271.5,76.69-345.58,190s-94.85-26.57-167.13,111c-82.35,156.62-183.62,43-226.83,145.72s20,148.23,102.64,126.2,220.68-190.49,343.49-137.4c53.59,23.19,233.8-61.2,310.86-178.24,78.08-118.6,130.72-108.53,237.4-172.26s145.24,25.81,242.7-29.55C1671.82,1391.21,1671.82,1249.28,1579.93,1228Z"/></g><path class="cls-8" d="M819.3,1939.36c-33.6-17.93-75.57,14.17-123,31.87s-32.59,111.54,29.64,131S915.63,1990.69,819.3,1939.36Z"/><path class="cls-3" d="M726,2058.35c-28.81-9-47.3-33.95-54.32-59.91-11.51,34.88,8.49,89.45,54.32,103.79C777.87,2118.45,875,2030,850,1970.46,832.88,2021.18,766,2070.87,726,2058.35Z"/><path class="cls-9" d="M783.74,1958.83c-35.14-24.69-42.29,37-74.09,31.86s-33.87,49.58,7.52,53.11S834.12,1994.24,783.74,1958.83Z"/><path class="cls-8" d="M2221.55,1753.22c-33.61-11.79-75.57,9.33-123,21s-32.62,73.44,29.63,86.29S2317.87,1787,2221.55,1753.22Z"/><path class="cls-3" d="M2128.2,1831.59c-28.81-5.93-47.31-22.36-54.32-39.46-11.51,23,8.5,58.91,54.32,68.37,51.91,10.69,149.08-47.56,124-86.78C2235.11,1807.11,2168.22,1839.84,2128.2,1831.59Z"/><path class="cls-9" d="M2186,1766c-35.15-16.25-42.28,24.35-74.09,21s-33.91,32.65,7.51,35S2236.37,1789.37,2186,1766Z"/><path class="cls-8" d="M1631.73,1266.69c-33.6-11.8-75.58,9.32-123,21s-32.6,73.44,29.64,86.26S1728.05,1300.48,1631.73,1266.69Z"/><path class="cls-3" d="M1538.38,1345.06c-28.82-5.94-47.33-22.39-54.34-39.46-11.49,23,8.52,58.9,54.34,68.33,51.93,10.7,149.08-47.54,124-86.78C1645.28,1320.57,1578.39,1353.3,1538.38,1345.06Z"/><path class="cls-9" d="M1596.16,1279.51c-35.13-16.28-42.28,24.35-74.08,21s-33.9,32.67,7.49,35S1646.55,1302.81,1596.16,1279.51Z"/><path class="cls-8" d="M2088.74,2222.46c-42-35-50.38-13.73-93.35,16.14s-83,35.18-102.24,22.81-48.92,120.37,97.78,111.52S2137.64,2263.17,2088.74,2222.46Z"/><path class="cls-3" d="M1990.93,2342.82c-78,4.73-106.18-30.67-112.51-62.94-7,33.74,7.94,99.36,112.51,93s134.64-59.52,125.45-104.25C2108.79,2304.43,2072.65,2337.9,1990.93,2342.82Z"/><path class="cls-9" d="M1979.09,2270.26c-45.94,10.61-45.94,44.26,28.16,30.08s44.46-47.79,44.46-47.79C2029.48,2226,2025,2259.63,1979.09,2270.26Z"/><path class="cls-8" d="M1504.59,2093.51c-42-35-50.38-13.71-93.35,16.17s-83,35.17-102.25,22.78-48.89,120.38,97.8,111.53S1553.51,2134.23,1504.59,2093.51Z"/><path class="cls-3" d="M1406.79,2213.89c-78,4.71-106.18-30.67-112.53-63-7,33.74,8,99.36,112.53,93.06,104.7-6.31,134.64-59.5,125.45-104.27C1524.66,2175.47,1488.49,2209,1406.79,2213.89Z"/><path class="cls-9" d="M1394.93,2141.31c-45.93,10.63-45.93,44.26,28.16,30.08s44.45-47.79,44.45-47.79C1445.33,2097.05,1440.89,2130.69,1394.93,2141.31Z"/><path class="cls-8" d="M2088.72,1934.24c-42-35-50.38-13.72-93.35,16.13s-83,35.18-102.25,22.8-48.89,120.39,97.81,111.53S2137.62,1974.94,2088.72,1934.24Z"/><path class="cls-3" d="M1990.93,2054.61c-78,4.71-106.18-30.68-112.52-63-7,33.75,7.95,99.36,112.52,93s134.64-59.49,125.45-104.25C2108.79,2016.19,2072.61,2049.67,1990.93,2054.61Z"/><path class="cls-9" d="M1979.08,1982c-45.95,10.62-45.95,44.25,28.15,30.11s44.45-47.81,44.45-47.81C2029.45,1937.77,2025,1971.41,1979.08,1982Z"/><path class="cls-8" d="M439.66,1828.68c-42-35-50.38-13.72-93.35,16.15s-83,35.19-102.25,22.78-48.9,120.39,97.8,111.55S488.56,1869.39,439.66,1828.68Z"/><path class="cls-3" d="M341.86,1949.06c-78.05,4.71-106.17-30.68-112.51-63-7,33.73,8,99.35,112.51,93.05s134.64-59.51,125.45-104.27C459.73,1910.64,423.57,1944.13,341.86,1949.06Z"/><path class="cls-9" d="M330,1876.46c-45.93,10.65-45.93,44.26,28.16,30.12s44.46-47.81,44.46-47.81C380.4,1832.23,376,1865.84,330,1876.46Z"/><path class="cls-10" d="M1332.49,2712.13c-10.86-4.13,19.75,24.78,44,52.53s32.58,76.7,32.58,76.7c13.84,30.68,21.25,16.52,9.89-33.63S1343.33,2716.25,1332.49,2712.13Z"/><path class="cls-10" d="M1463.88,2833.09s36.53-59.58,29.64-138.66Z"/><path class="cls-10" d="M1514.26,2814.21c-12.85,25.36,35.55,18.88,30.13-93.21C1544.39,2721,1527.11,2788.82,1514.26,2814.21Z"/><path class="cls-11" d="M1553.49,2406.84c-2.23,46.56-3.44,55.76-3.63,87.63s-55.78-1.53-86.67,10.06-65.45,8.55-64.06-18.72S1397.65,2364,1388,2334.23,1561.45,2239.78,1553.49,2406.84Z"/><path class="cls-12" d="M1637.11,2170.5s53.94-129.7,0-176.19-129.56-22-152.18-49-54.91-19.57-87.91,4.9-138.86,30.18-153.88,102.79-51.91,178.89,10.91,211.39S1623.46,2234.94,1637.11,2170.5Z"/><path class="cls-13" d="M1671.34,2284.17c0,123-77.32,177.91-180.27,177.91s-192.54-54.92-192.54-177.91,83.44-222.71,186.4-222.71S1671.34,2161.18,1671.34,2284.17Z"/><path class="cls-14" d="M1425,2061.46s-30.33,33.72-5.16,53.3,67.7,25,65.1,53.27,6.52,52.22,35.66,55.49,38-14.13,53.14,17.4,21.52,60.9,42.44,75,42.33,62,10.7,94.63-119.68,74-221.79,37S1103.85,2105.23,1425,2061.46Z"/><path class="cls-15" d="M1609.3,2118.29s69.88,73.2,16.2,122.24-109.93,54-127,69.46-26.93,55.46-26.93,55.46,61.76-40.76,125.25-15.49a323.16,323.16,0,0,0,32.34,11.05c48.43,13.51,85.38,8.07,89.9-32.25,5.45-49-12.3-50.59,4.1-95.45S1731.06,2090.56,1609.3,2118.29Z"/><path class="cls-15" d="M1443.31,2103.74c-11.24,13.76,51.8,3.22,56.65,40s10.8,47.69,34,54.14,58.83,47.71,76.64,35.46,32.48-57.33-10.07-105.71S1488.63,2048.31,1443.31,2103.74Z"/><path class="cls-16" d="M1411,2070.22s-17.27,46.42,4.3,62.54,62.58,20.61,61,43.18,11.87,57,29.68,64.59,46.34,16.91,42.58,32.82-43.12,8-82.52-8.3-165.65-26.85-180.76-59.92S1276.59,2112.77,1411,2070.22Z"/><path class="cls-12" d="M1301.94,2339.42s47-34.74,129,0,115.35,104.65,116.45,108.95-24.19,36.72-119.15,9.64S1262,2336.83,1301.94,2339.42Z"/><path class="cls-17" d="M1243.14,2053S1211,2210.48,1293,2232.5s147.45,40,196.6,107.66,58.88,113.42,58.88,113.42-31.56-87.32-119.63-115-112.67,26.91-174.81-5.71S1195.32,2130.52,1243.14,2053Z"/><path class="cls-15" d="M1224.8,2164.33s1.59,52.22,31.83,68.33,130,37.39,154.85,58.66-57.19-12.88-87.4,3.87-76.1,10.3-90.11-36.09S1224.8,2164.33,1224.8,2164.33Z"/><path class="cls-14" d="M1279.51,2100.82S1411.76,2008,1505.64,2038s118.16,34.81,118.16,2.9-56.66-49.32-98.74-53.19-46.13-24.17-67.18-34.81-57.46,7.74-90.65,22.25S1229.82,2048.58,1279.51,2100.82Z"/><path class="cls-15" d="M1391.51,2089.57c-16.42,21,20.47,65.2,50.47,69.6s21.83,21.07,27.77,49.22-121.4,36.24-126.79-32.27S1406.63,2070.22,1391.51,2089.57Z"/><path class="cls-18" d="M1474.05,2091.49c30.57-2.4,62.07-21.23,93.37,22s-7,106.34-28.59,65.73.53-60.56-27-65.73S1441.15,2094.09,1474.05,2091.49Z"/><path class="cls-12" d="M1439.86,2061.46c-1,3.78-27.72,41,0,56.47s71,16,64.23,48.91-7.11,52.66,14.35,56.36,37.11-2.4,33.88,0-59.9,7.85-64.76-10,5.57-59.73-25.34-75.32-52.33-10.86-52.36-42.45S1445.6,2041.09,1439.86,2061.46Z"/><path class="cls-8" d="M1573.88,2459c-1.8-6.2-38.93,35.72-57.52,34.77s-49.74-9.15-57.61,1.22-29.42,11.83-48.14,0-28.14-33.52-38.16-26.75,29.48,62.21,67.7,66.08S1594.21,2529.52,1573.88,2459Z"/><path class="cls-19" d="M1399.38,2458.4s3.58,21.59,31.47,29.1,26.82-10.09,39.82-3.71,37.47,1,54.94-.91,28.13-24.48,28.13-24.48,7,41.14-27.53,43.32-50.46-9.78-60.4,2S1378.9,2507.72,1399.38,2458.4Z"/><path class="cls-11" d="M2249.56,1997.59c-2.21,46.56-3.41,55.76-3.63,87.64s-55.77-1.54-86.65,10.05-65.46,8.55-64.07-18.73-1.45-121.78-11.14-151.57S2257.52,1830.54,2249.56,1997.59Z"/><path class="cls-12" d="M2333.18,1761.25s54-129.71,0-176.19-129.53-22-152.15-49-54.94-19.58-87.94,4.88-138.83,30.2-153.87,102.8-51.89,178.9,10.93,211.39S2319.55,1825.69,2333.18,1761.25Z"/><path class="cls-13" d="M2367.41,1874.92c0,123-77.3,177.92-180.25,177.92s-192.55-54.93-192.55-177.92,83.45-222.71,186.42-222.71S2367.41,1751.93,2367.41,1874.92Z"/><path class="cls-14" d="M2121.09,1652.21s-30.35,33.72-5.16,53.3,67.68,25,65.1,53.28,6.52,52.21,35.64,55.48,38-14.13,53.15,17.4,21.51,60.9,42.45,75,42.29,62,10.69,94.63-119.7,74-221.78,37S1799.93,1696,2121.09,1652.21Z"/><path class="cls-15" d="M2305.4,1709s69.85,73.19,16.19,122.24-109.93,54-127,69.47-27,55.45-27,55.45,61.77-40.77,125.28-15.49a324.46,324.46,0,0,0,32.31,11c48.43,13.51,85.4,8.08,89.92-32.25,5.46-49-12.31-50.59,4.08-95.45S2427.16,1681.31,2305.4,1709Z"/><path class="cls-15" d="M2139.38,1694.49c-11.22,13.76,51.82,3.21,56.67,40s10.78,47.68,34,54.14,58.84,47.7,76.65,35.46,32.46-57.32-10.09-105.71S2184.72,1639.06,2139.38,1694.49Z"/><path class="cls-16" d="M2107,1661s-17.29,46.43,4.32,62.54,62.57,20.62,61,43.19,11.87,57,29.68,64.59,46.36,16.91,42.58,32.82-43.11,8-82.51-8.3-165.65-26.85-180.74-59.91S1972.66,1703.52,2107,1661Z"/><path class="cls-12" d="M1998,1930.17s47-34.75,129,0,115.34,104.65,116.46,108.95-24.19,36.71-119.15,9.65S1958.12,1927.59,1998,1930.17Z"/><path class="cls-17" d="M1939.22,1643.79s-32.1,157.44,49.86,179.45,147.46,40,196.63,107.67,58.85,113.42,58.85,113.42S2213,1957,2125,1929.28s-112.66,26.92-174.8-5.7S1891.42,1721.27,1939.22,1643.79Z"/><path class="cls-15" d="M1920.87,1755.08s1.62,52.21,31.83,68.33,130,37.39,154.85,58.66-57.17-12.88-87.4,3.87-76.08,10.3-90.12-36.1S1920.87,1755.08,1920.87,1755.08Z"/><path class="cls-14" d="M1975.59,1691.57s132.24-92.82,226.12-62.83,118.18,34.81,118.18,2.9-56.65-49.32-98.74-53.19-46.15-24.18-67.18-34.81-57.48,7.74-90.65,22.25S1925.92,1639.33,1975.59,1691.57Z"/><path class="cls-15" d="M2087.59,1680.32c-16.4,21,20.47,65.2,50.47,69.6s21.84,21.07,27.77,49.22-121.39,36.24-126.77-32.27S2102.7,1661,2087.59,1680.32Z"/><path class="cls-18" d="M2170.15,1682.24c30.56-2.39,62.07-21.23,93.37,22s-7.06,106.33-28.61,65.72.52-60.56-27-65.72S2137.23,1684.85,2170.15,1682.24Z"/><path class="cls-12" d="M2136,1652.21c-1.06,3.78-27.71,41,0,56.47s71,16,64.22,48.91-7.09,52.66,14.35,56.36,37.1-2.4,33.87,0-59.89,7.85-64.75-10.06,5.58-59.72-25.36-75.32-52.32-10.86-52.33-42.44S2141.7,1631.84,2136,1652.21Z"/><path class="cls-8" d="M2270,2049.78c-1.77-6.2-38.9,35.71-57.52,34.76s-49.73-9.14-57.58,1.23-29.42,11.83-48.17,0-28.1-33.52-38.16-26.75,29.48,62.22,67.72,66.08S2290.3,2120.26,2270,2049.78Z"/><path class="cls-19" d="M2095.47,2049.15s3.56,21.59,31.47,29.1,26.82-10.09,39.82-3.7,37.45,1,54.93-.91,28.14-24.49,28.14-24.49,7,41.15-27.54,43.32-50.47-9.78-60.4,2S2075,2098.47,2095.47,2049.15Z"/><path class="cls-11" d="M905.71,1929.83c-2.22,46.55-3.43,55.76-3.62,87.63s-55.77-1.53-86.67,10.06-65.46,8.55-64.08-18.73S749.89,1887,740.2,1857.22,913.67,1762.77,905.71,1929.83Z"/><path class="cls-12" d="M989.35,1693.5s53.91-129.72,0-176.21-129.59-22-152.2-49-54.9-19.57-87.91,4.89S610.38,1503.42,595.34,1576s-51.87,178.9,10.95,211.4S975.68,1757.93,989.35,1693.5Z"/><path class="cls-13" d="M1023.57,1807.16c0,123-77.34,177.91-180.28,177.91s-192.54-54.93-192.54-177.91,83.45-222.71,186.4-222.71S1023.57,1684.16,1023.57,1807.16Z"/><path class="cls-14" d="M777.2,1584.45s-30.32,33.72-5.14,53.3,67.68,25,65.09,53.28,6.52,52.21,35.65,55.47,38-14.12,53.16,17.4,21.52,60.91,42.44,75,42.32,62,10.69,94.64-119.68,74-221.77,37S456.08,1628.22,777.2,1584.45Z"/><path class="cls-15" d="M961.54,1641.28s69.85,73.2,16.18,122.24-109.92,54-127,69.46-26.91,55.45-26.91,55.45,61.75-40.76,125.24-15.48a324.12,324.12,0,0,0,32.35,11c48.41,13.51,85.36,8.07,89.87-32.26,5.47-49-12.3-50.58,4.09-95.44S1083.29,1613.55,961.54,1641.28Z"/><path class="cls-15" d="M795.54,1626.72c-11.25,13.77,51.8,3.22,56.66,40s10.8,47.68,34,54.13,58.81,47.71,76.61,35.47,32.5-57.33-10.06-105.72S840.86,1571.3,795.54,1626.72Z"/><path class="cls-16" d="M763.17,1593.2s-17.27,46.43,4.3,62.54,62.59,20.62,61,43.18,11.88,57,29.71,64.6,46.34,16.91,42.57,32.82-43.12,8-82.5-8.31-165.66-26.84-180.78-59.91S628.82,1635.76,763.17,1593.2Z"/><path class="cls-12" d="M654.18,1862.4s47-34.74,128.94,0,115.37,104.66,116.47,109-24.21,36.71-119.16,9.64S614.25,1859.82,654.18,1862.4Z"/><path class="cls-17" d="M595.34,1576s-32.05,157.44,49.87,179.46,147.48,40,196.63,107.67,58.87,113.42,58.87,113.42-31.54-87.33-119.63-115-112.66,26.91-174.79-5.7S547.55,1653.5,595.34,1576Z"/><path class="cls-15" d="M577,1687.31s1.61,52.22,31.82,68.34S738.9,1793,763.7,1814.31s-57.2-12.88-87.41,3.86-76.06,10.31-90.11-36.09S577,1687.31,577,1687.31Z"/><path class="cls-14" d="M631.73,1623.81S764,1531,857.86,1561s118.15,34.8,118.15,2.9-56.64-49.32-98.74-53.19-46.11-24.18-67.18-34.81-57.44,7.74-90.63,22.25S582,1571.57,631.73,1623.81Z"/><path class="cls-15" d="M743.75,1612.56c-16.44,21,20.46,65.2,50.45,69.6S816,1703.22,822,1731.38s-121.41,36.24-126.82-32.27S758.85,1593.2,743.75,1612.56Z"/><path class="cls-18" d="M826.28,1614.48c30.58-2.4,62.06-21.23,93.35,22s-7,106.34-28.58,65.73.53-60.56-27-65.73S793.37,1617.08,826.28,1614.48Z"/><path class="cls-12" d="M792.1,1584.45c-1.06,3.78-27.74,41,0,56.47s71,15.95,64.22,48.91-7.11,52.67,14.35,56.35,37.11-2.4,33.88,0-59.9,7.86-64.76-10,5.56-59.73-25.35-75.32-52.32-10.86-52.35-42.43S797.83,1564.08,792.1,1584.45Z"/><path class="cls-8" d="M926.09,1982c-1.8-6.21-38.92,35.71-57.51,34.76s-49.73-9.14-57.61,1.23-29.42,11.83-48.15,0-28.13-33.52-38.13-26.76,29.48,62.22,67.66,66.09S946.43,2052.5,926.09,1982Z"/><path class="cls-19" d="M751.6,1981.38s3.6,21.6,31.48,29.11,26.82-10.09,39.82-3.71,37.45,1,54.93-.91S906,1981.38,906,1981.38s7,41.15-27.52,43.32-50.47-9.77-60.4,2S731.13,2030.7,751.6,1981.38Z"/><path class="cls-11" d="M1601.8,1520.58c-2.24,46.55-3.45,55.77-3.64,87.63s-55.76-1.54-86.65,10-65.47,8.56-64.07-18.72S1446,1477.75,1436.3,1448,1609.77,1353.52,1601.8,1520.58Z"/><path class="cls-12" d="M1685.43,1284.25s53.93-129.72,0-176.2-129.56-22-152.19-49-54.92-19.58-87.92,4.89-138.85,30.19-153.87,102.8-51.91,178.89,10.91,211.39S1671.77,1348.68,1685.43,1284.25Z"/><path class="cls-13" d="M1719.64,1397.91c0,123-77.31,177.91-180.26,177.91s-192.54-54.92-192.54-177.91,83.44-222.72,186.4-222.72S1719.64,1274.91,1719.64,1397.91Z"/><path class="cls-14" d="M1473.3,1175.19s-30.33,33.73-5.15,53.31,67.69,25,65.09,53.28,6.51,52.21,35.66,55.47,38-14.13,53.13,17.4,21.53,60.91,42.46,75.06,42.31,62,10.68,94.62-119.67,74-221.78,37S1152.17,1219,1473.3,1175.19Z"/><path class="cls-15" d="M1657.62,1232s69.86,73.2,16.2,122.24-109.94,54-127,69.46-26.92,55.45-26.92,55.45,61.76-40.76,125.24-15.48a320.49,320.49,0,0,0,32.34,11c48.42,13.52,85.39,8.08,89.89-32.25,5.45-49-12.29-50.58,4.1-95.44S1779.38,1204.3,1657.62,1232Z"/><path class="cls-15" d="M1491.62,1217.47c-11.23,13.76,51.79,3.22,56.65,40s10.8,47.69,34,54.14,58.82,47.72,76.63,35.47,32.5-57.33-10.05-105.72S1536.93,1162.05,1491.62,1217.47Z"/><path class="cls-16" d="M1459.26,1184s-17.28,46.42,4.3,62.53,62.57,20.62,61,43.18,11.87,57,29.68,64.6,46.34,16.91,42.59,32.82-43.12,8-82.52-8.31-165.65-26.84-180.75-59.91S1324.9,1226.51,1459.26,1184Z"/><path class="cls-12" d="M1350.24,1453.15s47-34.74,129,0,115.34,104.66,116.45,109-24.2,36.71-119.15,9.64S1310.33,1450.57,1350.24,1453.15Z"/><path class="cls-17" d="M1291.45,1166.78s-32.09,157.43,49.86,179.45,147.47,40,196.61,107.67,58.88,113.41,58.88,113.41-31.56-87.31-119.62-115-112.69,26.91-174.82-5.71S1243.63,1244.25,1291.45,1166.78Z"/><path class="cls-15" d="M1273.11,1278.06s1.59,52.22,31.82,68.33,130,37.39,154.86,58.67-57.2-12.88-87.4,3.87-76.09,10.29-90.11-36.1S1273.11,1278.06,1273.11,1278.06Z"/><path class="cls-14" d="M1327.83,1214.55s132.23-92.81,226.13-62.82,118.15,34.81,118.15,2.9-56.67-49.32-98.74-53.19-46.13-24.17-67.18-34.81-57.46,7.74-90.65,22.25S1278.13,1162.32,1327.83,1214.55Z"/><path class="cls-15" d="M1439.82,1203.31c-16.42,21,20.47,65.2,50.48,69.6s21.81,21.06,27.77,49.22-121.4,36.24-126.8-32.28S1454.94,1184,1439.82,1203.31Z"/><path class="cls-18" d="M1522.37,1205.23c30.56-2.4,62.06-21.23,93.35,22s-7,106.34-28.58,65.73.53-60.56-27-65.73S1489.46,1207.83,1522.37,1205.23Z"/><path class="cls-12" d="M1488.18,1175.19c-1.07,3.79-27.72,41,0,56.47s71,16,64.22,48.92-7.11,52.67,14.35,56.36,37.1-2.4,33.87,0-59.89,7.85-64.75-10.06,5.58-59.73-25.34-75.32-52.33-10.86-52.37-42.43S1493.91,1154.82,1488.18,1175.19Z"/><path class="cls-8" d="M1622.19,1572.77c-1.8-6.2-38.94,35.71-57.51,34.76s-49.76-9.14-57.62,1.23-29.41,11.83-48.14,0-28.14-33.52-38.15-26.76,29.48,62.22,67.69,66.09S1642.52,1643.25,1622.19,1572.77Z"/><path class="cls-19" d="M1447.69,1572.14s3.58,21.59,31.46,29.1,26.84-10.09,39.83-3.71,37.47,1,54.94-.91,28.13-24.48,28.13-24.48,7,41.14-27.52,43.31-50.48-9.77-60.41,2S1427.2,1621.45,1447.69,1572.14Z"/></svg>