<svg xmlns="http://www.w3.org/2000/svg" xmlns:xlink="http://www.w3.org/1999/xlink" viewBox="0 0 210.47 51.64"><defs><style>.cls-1{isolation:isolate;}.cls-10,.cls-11,.cls-12,.cls-13,.cls-14,.cls-15,.cls-16,.cls-17,.cls-18,.cls-19,.cls-2,.cls-20,.cls-21,.cls-22,.cls-23,.cls-24,.cls-25,.cls-26,.cls-27,.cls-28,.cls-29,.cls-3,.cls-30,.cls-31,.cls-32,.cls-33,.cls-34,.cls-35,.cls-36,.cls-37,.cls-38,.cls-39,.cls-4,.cls-40,.cls-41,.cls-42,.cls-43,.cls-44,.cls-45,.cls-46,.cls-47,.cls-48,.cls-49,.cls-5,.cls-50,.cls-51,.cls-52,.cls-53,.cls-54,.cls-55,.cls-56,.cls-57,.cls-58,.cls-59,.cls-6,.cls-60,.cls-61,.cls-62,.cls-63,.cls-64,.cls-65,.cls-66,.cls-67,.cls-68,.cls-69,.cls-7,.cls-70,.cls-71,.cls-72,.cls-73,.cls-74,.cls-75,.cls-76,.cls-77,.cls-78,.cls-79,.cls-8,.cls-80,.cls-81,.cls-82,.cls-83,.cls-84,.cls-85,.cls-86,.cls-87,.cls-88,.cls-89,.cls-9,.cls-90{fill-rule:evenodd;}.cls-2{fill:url(#radial-gradient);}.cls-3{fill:url(#radial-gradient-2);}.cls-4{fill:url(#radial-gradient-3);}.cls-5{fill:url(#radial-gradient-4);}.cls-6{fill:url(#radial-gradient-5);}.cls-7{fill:url(#radial-gradient-6);}.cls-8{fill:url(#radial-gradient-7);}.cls-9{fill:url(#radial-gradient-8);}.cls-10{fill:url(#radial-gradient-9);}.cls-11{fill:url(#radial-gradient-10);}.cls-12{fill:url(#radial-gradient-11);}.cls-13{fill:url(#radial-gradient-12);}.cls-14{fill:url(#radial-gradient-13);}.cls-15{fill:url(#radial-gradient-14);}.cls-16{fill:url(#radial-gradient-15);}.cls-17{fill:url(#radial-gradient-16);}.cls-18{fill:url(#radial-gradient-17);}.cls-19{fill:url(#radial-gradient-18);}.cls-20,.cls-21,.cls-22,.cls-23,.cls-24,.cls-25,.cls-26,.cls-27,.cls-28,.cls-29,.cls-30,.cls-31,.cls-32,.cls-33,.cls-34,.cls-35,.cls-56,.cls-58,.cls-59,.cls-60,.cls-61,.cls-62,.cls-63,.cls-64,.cls-65,.cls-68,.cls-69,.cls-70,.cls-71,.cls-77,.cls-78,.cls-79,.cls-80,.cls-81,.cls-82,.cls-84,.cls-85,.cls-86,.cls-87,.cls-88,.cls-89{mix-blend-mode:screen;}.cls-20{fill:url(#New_Gradient_Swatch_1);}.cls-21{fill:url(#radial-gradient-19);}.cls-22{fill:url(#radial-gradient-20);}.cls-23{fill:url(#radial-gradient-21);}.cls-24{fill:url(#New_Gradient_Swatch_1-2);}.cls-25{fill:url(#New_Gradient_Swatch_1-3);}.cls-26{fill:url(#New_Gradient_Swatch_1-4);}.cls-27{fill:url(#New_Gradient_Swatch_1-5);}.cls-28{fill:url(#New_Gradient_Swatch_1-6);}.cls-29{fill:url(#New_Gradient_Swatch_1-7);}.cls-30{fill:url(#New_Gradient_Swatch_1-8);}.cls-31{fill:url(#New_Gradient_Swatch_1-9);}.cls-32,.cls-36,.cls-57{opacity:0.5;}.cls-32{fill:url(#New_Gradient_Swatch_2);}.cls-33{fill:url(#New_Gradient_Swatch_2-2);}.cls-34{fill:url(#New_Gradient_Swatch_1-10);}.cls-35{fill:#8cf4f9;}.cls-36,.cls-57,.cls-72,.cls-73,.cls-74,.cls-75,.cls-76,.cls-83,.cls-90{mix-blend-mode:multiply;}.cls-36{fill:url(#radial-gradient-22);}.cls-37,.cls-91,.cls-92{fill:#fff;}.cls-38{fill:url(#radial-gradient-23);}.cls-39{fill:url(#radial-gradient-24);}.cls-40{fill:url(#radial-gradient-25);}.cls-41{fill:url(#radial-gradient-26);}.cls-42{fill:url(#radial-gradient-27);}.cls-43{fill:url(#radial-gradient-28);}.cls-44{fill:url(#radial-gradient-29);}.cls-45{fill:url(#radial-gradient-30);}.cls-46{fill:url(#radial-gradient-31);}.cls-47{fill:url(#radial-gradient-32);}.cls-48{fill:url(#radial-gradient-33);}.cls-49{fill:url(#radial-gradient-34);}.cls-50{fill:url(#radial-gradient-35);}.cls-51{fill:url(#radial-gradient-36);}.cls-52{fill:url(#radial-gradient-37);}.cls-53{fill:url(#radial-gradient-38);}.cls-54{fill:url(#radial-gradient-39);}.cls-55{fill:url(#radial-gradient-40);}.cls-56{fill:url(#New_Gradient_Swatch_1-11);}.cls-57{fill:url(#radial-gradient-41);}.cls-58{fill:url(#New_Gradient_Swatch_1-12);}.cls-59{fill:url(#New_Gradient_Swatch_1-13);}.cls-60{fill:url(#New_Gradient_Swatch_1-14);}.cls-61{fill:url(#New_Gradient_Swatch_1-15);}.cls-62{fill:url(#New_Gradient_Swatch_2-3);}.cls-63{fill:url(#New_Gradient_Swatch_2-4);}.cls-64{fill:url(#New_Gradient_Swatch_2-5);}.cls-65{fill:url(#New_Gradient_Swatch_2-6);}.cls-66{fill:url(#linear-gradient);}.cls-67{fill:url(#radial-gradient-42);}.cls-68{fill:url(#radial-gradient-43);}.cls-69{fill:url(#radial-gradient-44);}.cls-70{fill:url(#radial-gradient-45);}.cls-71{fill:url(#radial-gradient-46);}.cls-72{fill:url(#radial-gradient-47);}.cls-73{fill:url(#radial-gradient-48);}.cls-74{fill:url(#radial-gradient-49);}.cls-75{fill:url(#radial-gradient-50);}.cls-76{fill:url(#radial-gradient-51);}.cls-77{fill:url(#radial-gradient-52);}.cls-78{fill:url(#radial-gradient-53);}.cls-79{fill:url(#radial-gradient-54);}.cls-80{fill:url(#radial-gradient-55);}.cls-81{fill:url(#radial-gradient-56);}.cls-82{fill:url(#radial-gradient-57);}.cls-83{fill:#cb390b;opacity:0.15;}.cls-84{fill:url(#radial-gradient-58);}.cls-85{fill:url(#radial-gradient-59);}.cls-86{fill:url(#radial-gradient-60);}.cls-87{fill:url(#radial-gradient-61);}.cls-88{fill:url(#radial-gradient-62);}.cls-89{fill:url(#radial-gradient-63);}.cls-90{fill:#630c00;}.cls-92{font-size:31.32px;font-family:BebasNeue-Regular, Bebas Neue;letter-spacing:0.03em;}</style><radialGradient id="radial-gradient" cx="1.78" cy="0.65" r="66.13" gradientUnits="userSpaceOnUse"><stop offset="0" stop-color="#24baff"/><stop offset="1" stop-color="#3378ff"/></radialGradient><radialGradient id="radial-gradient-2" cx="20.41" cy="20.84" r="33.86" gradientUnits="userSpaceOnUse"><stop offset="0" stop-color="#0061ba"/><stop offset="1" stop-color="#00266b"/></radialGradient><radialGradient id="radial-gradient-3" cx="4.36" cy="0.08" r="17.75" gradientUnits="userSpaceOnUse"><stop offset="0" stop-color="#93f7ff"/><stop offset="1" stop-color="#2e74ff"/></radialGradient><radialGradient id="radial-gradient-4" cx="7.01" cy="7.33" r="4.96" gradientUnits="userSpaceOnUse"><stop offset="0" stop-color="#0269f4"/><stop offset="1" stop-color="#0049c1"/></radialGradient><radialGradient id="radial-gradient-5" cx="55.39" cy="-3.03" r="17.19" gradientUnits="userSpaceOnUse"><stop offset="0" stop-color="#78d4ff"/><stop offset="1" stop-color="#2e74ff"/></radialGradient><radialGradient id="radial-gradient-6" cx="53.55" cy="4.47" r="13.62" xlink:href="#radial-gradient-4"/><radialGradient id="radial-gradient-7" cx="0.57" cy="46.28" r="16.54" xlink:href="#radial-gradient-4"/><radialGradient id="radial-gradient-8" cx="7.98" cy="44.73" r="8.69" xlink:href="#radial-gradient-4"/><radialGradient id="radial-gradient-9" cx="56.44" cy="56.55" r="13.06" xlink:href="#radial-gradient-4"/><radialGradient id="radial-gradient-10" cx="47.95" cy="45.94" r="11.3" xlink:href="#radial-gradient-3"/><radialGradient id="radial-gradient-11" cx="11.88" cy="-3.67" r="43.81" xlink:href="#radial-gradient-5"/><radialGradient id="radial-gradient-12" cx="37.03" cy="-2.02" r="50.03" gradientUnits="userSpaceOnUse"><stop offset="0" stop-color="#3684f4"/><stop offset="1" stop-color="#0049c1"/></radialGradient><radialGradient id="radial-gradient-13" cx="-1.8" cy="15.26" r="60.67" xlink:href="#radial-gradient-5"/><radialGradient id="radial-gradient-14" cx="48.82" cy="29.88" r="54.23" gradientUnits="userSpaceOnUse"><stop offset="0" stop-color="#4fcaff"/><stop offset="1" stop-color="#175fff"/></radialGradient><radialGradient id="radial-gradient-15" cx="48.63" cy="9.9" r="54.65" xlink:href="#radial-gradient-5"/><radialGradient id="radial-gradient-16" cx="81.06" cy="22.74" r="43.19" gradientUnits="userSpaceOnUse"><stop offset="0" stop-color="#4fcaff"/><stop offset="1" stop-color="#004cef"/></radialGradient><radialGradient id="radial-gradient-17" cx="34.92" cy="46.2" r="51.44" xlink:href="#radial-gradient-5"/><radialGradient id="radial-gradient-18" cx="34.21" cy="60.17" r="30.5" xlink:href="#radial-gradient-4"/><radialGradient id="New_Gradient_Swatch_1" cx="26.51" cy="25.86" r="70.36" gradientUnits="userSpaceOnUse"><stop offset="0" stop-color="#1476ff"/><stop offset="1"/></radialGradient><radialGradient id="radial-gradient-19" cx="31.63" cy="27.97" r="51.56" gradientUnits="userSpaceOnUse"><stop offset="0" stop-color="#4f95ff"/><stop offset="1"/></radialGradient><radialGradient id="radial-gradient-20" cx="31.87" cy="38.45" r="44.76" xlink:href="#radial-gradient-19"/><radialGradient id="radial-gradient-21" cx="50.31" cy="49.99" r="38.75" xlink:href="#radial-gradient-19"/><radialGradient id="New_Gradient_Swatch_1-2" cx="27.16" cy="41.9" r="35.59" xlink:href="#New_Gradient_Swatch_1"/><radialGradient id="New_Gradient_Swatch_1-3" cx="29.23" cy="27.65" r="51.21" xlink:href="#New_Gradient_Swatch_1"/><radialGradient id="New_Gradient_Swatch_1-4" cx="24.97" cy="27.77" r="33.55" xlink:href="#New_Gradient_Swatch_1"/><radialGradient id="New_Gradient_Swatch_1-5" cx="41.42" cy="30.98" r="35.42" xlink:href="#New_Gradient_Swatch_1"/><radialGradient id="New_Gradient_Swatch_1-6" cx="39.18" cy="38.49" r="34.55" xlink:href="#New_Gradient_Swatch_1"/><radialGradient id="New_Gradient_Swatch_1-7" cx="16.08" cy="2.8" r="38.76" xlink:href="#New_Gradient_Swatch_1"/><radialGradient id="New_Gradient_Swatch_1-8" cx="36.02" cy="41.42" r="37.78" xlink:href="#New_Gradient_Swatch_1"/><radialGradient id="New_Gradient_Swatch_1-9" cx="34.92" cy="18.31" r="38.07" xlink:href="#New_Gradient_Swatch_1"/><radialGradient id="New_Gradient_Swatch_2" cx="21.61" cy="-5.9" r="58.21" gradientUnits="userSpaceOnUse"><stop offset="0" stop-color="#5497ff"/><stop offset="1"/></radialGradient><radialGradient id="New_Gradient_Swatch_2-2" cx="64.58" cy="27.11" r="49.95" xlink:href="#New_Gradient_Swatch_2"/><radialGradient id="New_Gradient_Swatch_1-10" cx="36.79" cy="58.4" r="37.57" xlink:href="#New_Gradient_Swatch_1"/><radialGradient id="radial-gradient-22" cx="14.32" cy="13.59" r="33.33" gradientUnits="userSpaceOnUse"><stop offset="0" stop-color="#fff"/><stop offset="1" stop-color="#0094d8"/></radialGradient><radialGradient id="radial-gradient-23" cx="61.85" cy="0.65" r="147.92" xlink:href="#radial-gradient"/><radialGradient id="radial-gradient-24" cx="117.06" cy="20.84" r="82.34" xlink:href="#radial-gradient-2"/><radialGradient id="radial-gradient-25" cx="63.38" cy="0.08" r="17.75" xlink:href="#radial-gradient-3"/><radialGradient id="radial-gradient-26" cx="66.03" cy="7.33" r="4.96" xlink:href="#radial-gradient-4"/><radialGradient id="radial-gradient-27" cx="214.22" cy="-3.03" r="17.19" xlink:href="#radial-gradient-5"/><radialGradient id="radial-gradient-28" cx="212.38" cy="4.47" r="13.62" xlink:href="#radial-gradient-4"/><radialGradient id="radial-gradient-29" cx="59.59" cy="46.28" r="16.54" xlink:href="#radial-gradient-4"/><radialGradient id="radial-gradient-30" cx="67" cy="44.73" r="8.69" xlink:href="#radial-gradient-4"/><radialGradient id="radial-gradient-31" cx="215.27" cy="56.55" r="13.06" xlink:href="#radial-gradient-4"/><radialGradient id="radial-gradient-32" cx="206.78" cy="45.94" r="11.3" xlink:href="#radial-gradient-3"/><radialGradient id="radial-gradient-33" cx="88" cy="-3.67" r="145.56" xlink:href="#radial-gradient-5"/><radialGradient id="radial-gradient-34" cx="173.69" cy="-2.02" r="148.23" xlink:href="#radial-gradient-12"/><radialGradient id="radial-gradient-35" cx="57.22" cy="15.26" r="60.67" xlink:href="#radial-gradient-5"/><radialGradient id="radial-gradient-36" cx="107.85" cy="29.88" r="54.23" xlink:href="#radial-gradient-14"/><radialGradient id="radial-gradient-37" cx="207.46" cy="9.9" r="54.65" xlink:href="#radial-gradient-5"/><radialGradient id="radial-gradient-38" cx="239.89" cy="22.74" r="43.19" xlink:href="#radial-gradient-16"/><radialGradient id="radial-gradient-39" cx="166.36" cy="46.2" r="173.37" xlink:href="#radial-gradient-5"/><radialGradient id="radial-gradient-40" cx="162.88" cy="60.17" r="86.81" xlink:href="#radial-gradient-4"/><radialGradient id="New_Gradient_Swatch_1-11" cx="171.5" cy="58.4" r="107.18" xlink:href="#New_Gradient_Swatch_1"/><radialGradient id="radial-gradient-41" cx="96.21" cy="13.59" r="105.21" xlink:href="#radial-gradient-22"/><radialGradient id="New_Gradient_Swatch_1-12" cx="139.79" cy="32.61" r="96.45" xlink:href="#New_Gradient_Swatch_1"/><radialGradient id="New_Gradient_Swatch_1-13" cx="168.93" cy="23.59" r="122.7" xlink:href="#New_Gradient_Swatch_1"/><radialGradient id="New_Gradient_Swatch_1-14" cx="216.46" cy="52.14" r="97.41" xlink:href="#New_Gradient_Swatch_1"/><radialGradient id="New_Gradient_Swatch_1-15" cx="137.52" cy="62.86" r="100.17" xlink:href="#New_Gradient_Swatch_1"/><radialGradient id="New_Gradient_Swatch_2-3" cx="66.74" cy="-30.2" r="72.16" xlink:href="#New_Gradient_Swatch_2"/><radialGradient id="New_Gradient_Swatch_2-4" cx="90.16" cy="-56.52" r="105.9" xlink:href="#New_Gradient_Swatch_2"/><radialGradient id="New_Gradient_Swatch_2-5" cx="143.55" cy="-42.94" r="91.69" xlink:href="#New_Gradient_Swatch_2"/><radialGradient id="New_Gradient_Swatch_2-6" cx="159.32" cy="-41.24" r="84.63" xlink:href="#New_Gradient_Swatch_2"/><linearGradient id="linear-gradient" x1="135.07" y1="46.9" x2="135.07" y2="3.81" gradientUnits="userSpaceOnUse"><stop offset="0" stop-color="#003075"/><stop offset="1" stop-color="#0e1645"/></linearGradient><radialGradient id="radial-gradient-42" cx="171.47" cy="11.31" r="36.09" gradientUnits="userSpaceOnUse"><stop offset="0" stop-color="#ff89b1"/><stop offset="1" stop-color="#e01470"/></radialGradient><radialGradient id="radial-gradient-43" cx="139.18" cy="14.5" r="50.86" gradientUnits="userSpaceOnUse"><stop offset="0" stop-color="#ff5d5d"/><stop offset="1"/></radialGradient><radialGradient id="radial-gradient-44" cx="171.58" cy="9.71" r="15.32" xlink:href="#radial-gradient-43"/><radialGradient id="radial-gradient-45" cx="170.85" cy="9.9" r="33.89" xlink:href="#radial-gradient-43"/><radialGradient id="radial-gradient-46" cx="198.04" cy="13.46" r="12.65" xlink:href="#radial-gradient-43"/><radialGradient id="radial-gradient-47" cx="211.51" cy="47.19" r="55.17" gradientUnits="userSpaceOnUse"><stop offset="0" stop-color="#a02323"/><stop offset="1" stop-color="#d8e5d8"/></radialGradient><radialGradient id="radial-gradient-48" cx="201.65" cy="42.94" r="19" xlink:href="#radial-gradient-47"/><radialGradient id="radial-gradient-49" cx="199.11" cy="52.23" r="54.05" xlink:href="#radial-gradient-47"/><radialGradient id="radial-gradient-50" cx="167.53" cy="48.71" r="13.56" xlink:href="#radial-gradient-47"/><radialGradient id="radial-gradient-51" cx="205.48" cy="52.93" r="57.98" xlink:href="#radial-gradient-47"/><radialGradient id="radial-gradient-52" cx="174.86" cy="3.88" r="28.93" xlink:href="#radial-gradient-43"/><radialGradient id="radial-gradient-53" cx="186.19" cy="14.58" r="39.03" xlink:href="#radial-gradient-43"/><radialGradient id="radial-gradient-54" cx="174.42" cy="50.67" r="40.66" xlink:href="#radial-gradient-43"/><radialGradient id="radial-gradient-55" cx="208.41" cy="27.35" r="50.08" xlink:href="#radial-gradient-43"/><radialGradient id="radial-gradient-56" cx="229.05" cy="27.32" r="45.74" xlink:href="#radial-gradient-43"/><radialGradient id="radial-gradient-57" cx="196" cy="53" r="34.94" xlink:href="#radial-gradient-43"/><radialGradient id="radial-gradient-58" cx="192.7" cy="24.75" r="18.8" xlink:href="#radial-gradient-43"/><radialGradient id="radial-gradient-59" cx="198.22" cy="28.07" r="27.02" xlink:href="#radial-gradient-43"/><radialGradient id="radial-gradient-60" cx="190.35" cy="35.43" r="17.57" xlink:href="#radial-gradient-43"/><radialGradient id="radial-gradient-61" cx="190.17" cy="38.72" r="16.39" xlink:href="#radial-gradient-43"/><radialGradient id="radial-gradient-62" cx="200.86" cy="5.15" r="52.53" xlink:href="#radial-gradient-43"/><radialGradient id="radial-gradient-63" cx="216.6" cy="13.66" r="53.12" xlink:href="#radial-gradient-43"/></defs><g class="cls-1"><g id="Layer_1" data-name="Layer 1"><path class="cls-2" d="M5.13,1.27,1.27,5.13V46.51l3.86,3.86H46.51l3.86-3.86V5.13L46.51,1.27Zm.53,1.27L2.54,5.66V46l3.12,3.13H46L49.1,46V5.66L46,2.54Z"/><polygon class="cls-3" points="6.19 3.81 3.81 6.19 3.81 45.46 6.19 47.84 45.46 47.84 47.84 45.46 47.84 6.19 45.46 3.81 6.19 3.81 6.19 3.81"/><polygon class="cls-4" points="1.27 5.13 5.13 1.27 4.61 0 0 4.61 1.27 5.13 1.27 5.13"/><polygon class="cls-5" points="5.66 2.54 2.54 5.66 3.81 6.19 6.19 3.81 5.66 2.54 5.66 2.54"/><polygon class="cls-6" points="50.37 5.13 46.51 1.27 47.04 0 51.64 4.61 50.37 5.13 50.37 5.13"/><polygon class="cls-7" points="45.98 2.54 49.1 5.66 47.84 6.19 45.46 3.81 45.98 2.54 45.98 2.54"/><polygon class="cls-8" points="1.27 46.51 5.13 50.38 4.61 51.64 0 47.04 1.27 46.51 1.27 46.51"/><polygon class="cls-9" points="5.66 49.1 2.54 45.98 3.81 45.46 6.19 47.84 5.66 49.1 5.66 49.1"/><polygon class="cls-10" points="50.37 46.51 46.51 50.38 47.04 51.64 51.64 47.04 50.37 46.51 50.37 46.51"/><polygon class="cls-11" points="45.98 49.1 49.1 45.98 47.84 45.46 45.46 47.84 45.98 49.1 45.98 49.1"/><polygon class="cls-12" points="5.13 1.27 46.51 1.27 47.04 0 4.61 0 5.13 1.27 5.13 1.27"/><polygon class="cls-13" points="45.98 2.54 5.66 2.54 6.19 3.81 45.46 3.81 45.98 2.54 45.98 2.54"/><polygon class="cls-14" points="1.27 46.51 1.27 5.13 0 4.61 0 47.04 1.27 46.51 1.27 46.51"/><polygon class="cls-15" points="2.54 5.66 2.54 45.98 3.81 45.46 3.81 6.19 2.54 5.66 2.54 5.66"/><polygon class="cls-16" points="47.84 6.19 47.84 45.46 49.1 45.98 49.1 5.66 47.84 6.19 47.84 6.19"/><polygon class="cls-17" points="50.37 5.13 50.37 46.51 51.64 47.04 51.64 4.61 50.37 5.13 50.37 5.13"/><polygon class="cls-18" points="45.46 47.84 6.19 47.84 5.66 49.1 45.98 49.1 45.46 47.84 45.46 47.84"/><polygon class="cls-19" points="46.51 50.38 5.13 50.38 4.61 51.64 47.04 51.64 46.51 50.38 46.51 50.38"/><polygon class="cls-20" points="3.81 6.19 25.82 25.82 6.19 3.81 3.81 6.19 3.81 6.19"/><polygon class="cls-21" points="47.84 6.19 25.82 25.82 45.46 3.81 47.84 6.19 47.84 6.19"/><polygon class="cls-22" points="3.81 45.46 25.82 25.82 6.19 47.84 3.81 45.46 3.81 45.46"/><polygon class="cls-23" points="47.84 45.46 25.82 25.82 45.46 47.84 47.84 45.46 47.84 45.46"/><polygon class="cls-24" points="3.81 45.46 25.82 25.82 3.81 6.19 3.81 45.46 3.81 45.46"/><polygon class="cls-25" points="6.19 3.81 25.82 25.82 45.46 3.81 6.19 3.81 6.19 3.81"/><polygon class="cls-26" points="47.84 6.19 25.82 25.82 47.84 45.46 47.84 6.19 47.84 6.19"/><polygon class="cls-27" points="45.46 47.84 25.82 25.82 6.19 47.84 45.46 47.84 45.46 47.84"/><polygon class="cls-28" points="11.61 13.14 11.61 38.5 25.82 25.82 11.61 13.14 11.61 13.14"/><polygon class="cls-29" points="13.14 11.61 25.82 25.82 38.5 11.61 13.14 11.61 13.14 11.61"/><polygon class="cls-30" points="40.04 13.14 25.82 25.82 40.04 38.5 40.04 13.14 40.04 13.14"/><polygon class="cls-31" points="38.5 40.04 25.82 25.82 13.14 40.04 38.5 40.04 38.5 40.04"/><polygon class="cls-32" points="3.81 43.31 43.31 3.81 18.73 3.81 3.81 18.73 3.81 43.31 3.81 43.31"/><polygon class="cls-33" points="47.84 19.81 19.81 47.84 30.14 47.84 47.84 30.14 47.84 19.81 47.84 19.81"/><path class="cls-34" d="M46.51,50.37c-4.69,1.27-36.59,1.27-41.38,0l-.52,1.27H47l-.53-1.27Z"/><path class="cls-35" d="M50.37,9.61l.4,36.84.76.54-.92-.19a27,27,0,0,0-3.85,3.79l.23.95-.53-.83-35.08-.34H46.51l3.86-3.86V9.61Z"/><path class="cls-36" d="M5.13,1.27H46.51L47,0C46.51,1.27,5.13,1.27,4.61,0l.52,1.27Z"/><path class="cls-37" d="M1.27,42,.8,5.22.11,4.65,1,4.8A27,27,0,0,0,4.82,1L4.65.11,5.2.87l35.07.4H5.13L1.27,5.13V42Z"/><path class="cls-38" d="M64.16,1.27,60.29,5.13V46.51l3.87,3.86H205.33l3.87-3.86V5.13l-3.87-3.86Zm.52,1.27L61.56,5.66V46l3.12,3.13H204.81L207.93,46V5.66l-3.12-3.12Z"/><polygon class="cls-39" points="65.21 3.81 62.83 6.19 62.83 45.46 65.21 47.84 204.28 47.84 206.66 45.46 206.66 6.19 204.28 3.81 65.21 3.81 65.21 3.81"/><polygon class="cls-40" points="60.29 5.13 64.16 1.27 63.63 0 59.02 4.61 60.29 5.13 60.29 5.13"/><polygon class="cls-41" points="64.68 2.54 61.56 5.66 62.83 6.19 65.21 3.81 64.68 2.54 64.68 2.54"/><polygon class="cls-42" points="209.2 5.13 205.34 1.27 205.86 0 210.47 4.61 209.2 5.13 209.2 5.13"/><polygon class="cls-43" points="204.81 2.54 207.93 5.66 206.66 6.19 204.28 3.81 204.81 2.54 204.81 2.54"/><polygon class="cls-44" points="60.29 46.51 64.16 50.38 63.63 51.64 59.02 47.04 60.29 46.51 60.29 46.51"/><polygon class="cls-45" points="64.68 49.1 61.56 45.98 62.83 45.46 65.21 47.84 64.68 49.1 64.68 49.1"/><polygon class="cls-46" points="209.2 46.51 205.34 50.38 205.86 51.64 210.47 47.04 209.2 46.51 209.2 46.51"/><polygon class="cls-47" points="204.81 49.1 207.93 45.98 206.66 45.46 204.28 47.84 204.81 49.1 204.81 49.1"/><polygon class="cls-48" points="64.16 1.27 205.34 1.27 205.86 0 63.63 0 64.16 1.27 64.16 1.27"/><polygon class="cls-49" points="204.81 2.54 64.68 2.54 65.21 3.81 204.28 3.81 204.81 2.54 204.81 2.54"/><polygon class="cls-50" points="60.29 46.51 60.29 5.13 59.02 4.61 59.02 47.04 60.29 46.51 60.29 46.51"/><polygon class="cls-51" points="61.56 5.66 61.56 45.98 62.83 45.46 62.83 6.19 61.56 5.66 61.56 5.66"/><polygon class="cls-52" points="206.66 6.19 206.66 45.46 207.93 45.98 207.93 5.66 206.66 6.19 206.66 6.19"/><polygon class="cls-53" points="209.2 5.13 209.2 46.51 210.47 47.04 210.47 4.61 209.2 5.13 209.2 5.13"/><polygon class="cls-54" points="204.28 47.84 65.21 47.84 64.68 49.1 204.81 49.1 204.28 47.84 204.28 47.84"/><polygon class="cls-55" points="205.34 50.38 64.16 50.38 63.63 51.64 205.86 51.64 205.34 50.38 205.34 50.38"/><path class="cls-56" d="M205.33,50.37c-4.69,1.27-136.38,1.27-141.17,0l-.53,1.27H205.86l-.53-1.27Z"/><path class="cls-35" d="M209.2,9.61l.4,36.84.76.54-.92-.19a26,26,0,0,0-3.85,3.79l.23.95-.53-.83L70.4,50.37H205.33l3.87-3.86V9.61Z"/><path class="cls-57" d="M64.16,1.27H205.33L205.86,0c-.53,1.27-141.7,1.27-142.23,0l.53,1.27Z"/><path class="cls-37" d="M60.29,42,59.83,5.22l-.7-.57L60,4.8A26.51,26.51,0,0,0,63.84,1L63.68.11l.55.76,35.06.4H64.16L60.29,5.13V42Z"/><polygon class="cls-58" points="134.69 25.82 64.02 5 62.83 6.19 62.83 45.46 64.02 46.65 134.69 25.82 134.69 25.82"/><polygon class="cls-59" points="64.02 5 134.69 25.82 205.36 5 204.17 3.81 65.21 3.81 64.02 5 64.02 5"/><polygon class="cls-60" points="205.36 5 134.69 25.82 205.36 46.65 206.55 45.46 206.55 6.19 205.36 5 205.36 5"/><polygon class="cls-61" points="205.36 46.65 134.69 25.82 64.02 46.65 65.21 47.84 204.17 47.84 205.36 46.65 205.36 46.65"/><polygon class="cls-62" points="62.83 43.31 102.33 3.81 77.75 3.81 62.83 18.73 62.83 43.31 62.83 43.31"/><polygon class="cls-63" points="122.86 3.81 78.83 47.84 89.16 47.84 133.19 3.81 122.86 3.81 122.86 3.81"/><polygon class="cls-64" points="137.22 47.84 181.25 3.81 156.67 3.81 112.65 47.84 137.22 47.84 137.22 47.84"/><polygon class="cls-65" points="188.05 3.81 144.02 47.84 154.35 47.84 198.38 3.81 188.05 3.81 188.05 3.81"/><polygon class="cls-66" points="65.67 3.81 63.39 6.14 63.39 44.57 65.67 46.9 204.48 46.9 206.76 44.57 206.76 6.14 204.48 3.81 65.67 3.81 65.67 3.81"/><path class="cls-67" d="M166.87,5.74l-2.42,2.42c-.2,3.57-.34,10.14-.34,17.66s.14,14.1.34,17.67l2.42,2.42c3.57.2,10.14.34,17.67.34s14.09-.14,17.66-.34l2.42-2.42c.21-3.57.34-10.15.34-17.67s-.13-14.09-.34-17.66L202.2,5.74c-3.57-.21-10.14-.34-17.66-.34s-14.1.13-17.67.34Z"/><path class="cls-68" d="M169,25.82c0-4.67,0-9.44.18-14.14l-4.68-3.52c-.2,3.57-.34,10.14-.34,17.66s.14,14.1.34,17.67L169.13,40c-.17-4.7-.18-9.47-.18-14.14Z"/><polygon class="cls-69" points="164.45 8.16 169.13 11.68 170.39 10.42 166.87 5.74 164.45 8.16 164.45 8.16"/><path class="cls-70" d="M166.87,5.74l3.52,4.68c4.71-.18,9.48-.18,14.15-.18s9.44,0,14.14.18l3.52-4.68c-3.57-.21-10.14-.34-17.66-.34s-14.1.13-17.67.34Z"/><polygon class="cls-71" points="202.2 5.74 198.68 10.42 199.94 11.68 204.62 8.16 202.2 5.74 202.2 5.74"/><path class="cls-72" d="M204.62,8.16l-4.68,3.52c.18,4.7.18,9.47.18,14.14s0,9.44-.18,14.14l4.68,3.53c.21-3.57.34-10.15.34-17.67s-.13-14.09-.34-17.66Z"/><polygon class="cls-73" points="204.62 43.48 199.94 39.97 198.68 41.23 202.2 45.91 204.62 43.48 204.62 43.48"/><path class="cls-74" d="M202.2,45.91l-3.52-4.69c-4.7.18-9.47.19-14.14.19s-9.44,0-14.15-.19l-3.52,4.69c3.57.2,10.14.34,17.67.34s14.09-.14,17.66-.34Z"/><polygon class="cls-75" points="166.87 45.91 170.39 41.23 169.13 39.97 164.45 43.48 166.87 45.91 166.87 45.91"/><path class="cls-76" d="M198.68,41.22c0,2.19-6.33,4-14.14,4s-14.15-1.77-14.15-4l-3.52,4.69c3.57.2,10.14.34,17.67.34s14.09-.14,17.66-.34l-3.52-4.69Z"/><path class="cls-77" d="M202.2,5.74c-3.57-.21-10.14-.34-17.66-.34s-14.1.13-17.67.34c.43.29,8.17.5,17.67.5s17.24-.21,17.64-.48Z"/><path class="cls-78" d="M184.54,9.83c-11.49,0-15.91-1.75-17.67-4.09l3.52,4.68c4.71-.18,9.48-.18,14.15-.18s9.44,0,14.14.18l3.52-4.68c-1.76,2.34-6.18,4.09-17.66,4.09Z"/><path class="cls-79" d="M169.13,40l15.41-14.15L169.13,11.68c-.17,4.7-.18,9.47-.18,14.14s0,9.44.18,14.15Z"/><path class="cls-80" d="M170.39,10.42l14.15,15.4,14.14-15.4c-4.7-.18-9.47-.18-14.14-.18s-9.44,0-14.15.18Z"/><path class="cls-81" d="M199.94,11.68l-15.4,14.14L199.94,40c.18-4.7.18-9.47.18-14.14s0-9.44-.18-14.14Z"/><path class="cls-82" d="M198.68,41.22l-14.14-15.4-14.15,15.4c4.71.18,9.48.19,14.15.19s9.44,0,14.14-.19Z"/><polygon class="cls-83" points="169.13 11.68 184.54 25.82 170.39 10.42 169.13 11.68 169.13 11.68"/><polygon class="cls-83" points="198.68 10.42 184.54 25.82 199.94 11.68 198.68 10.42 198.68 10.42"/><polygon class="cls-83" points="199.94 39.97 184.54 25.82 198.68 41.23 199.94 39.97 199.94 39.97"/><polygon class="cls-83" points="170.39 41.23 184.54 25.82 169.13 39.97 170.39 41.23 170.39 41.23"/><path class="cls-37" d="M169.13,11.68l1.26-1.26c4.71-.18,9.48-.18,14.15-.18,2.13,0,4.29,0,6.45,0-6.64-.29-13.42-.4-20.07-.19l-.6-.27-2.94-3.39c.23.48,3,3.67,2.18,4.47s-4.07-2.05-4.76-2.42l3.72,3.28.25.61a210.88,210.88,0,0,0-.06,27.19l-.26.6-3.62,3.06c1.89-1.2,4.27-3,4.82-2.49s0,1.33-1.19,3.08l2-2,.62-.26,6.41-.11c-2.37,0-4.75-.07-7.11-.16L169.13,40c-.17-4.7-.18-9.47-.18-14.14s0-9.44.18-14.14Z"/><path class="cls-84" d="M176.25,18.21c0,2.54,0,5.08,0,7.61s0,5.08,0,7.61l8.29-7.61-8.29-7.61Z"/><path class="cls-85" d="M176.92,17.53l7.62,8.29,7.61-8.29c-2.54,0-5.08,0-7.61,0s-5.08,0-7.62,0Z"/><path class="cls-86" d="M192.83,18.21l-8.29,7.61,8.29,7.61c0-2.53,0-5.07,0-7.61s0-5.07,0-7.61Z"/><path class="cls-87" d="M192.15,34.11l-7.61-8.29-7.62,8.29c2.54,0,5.08,0,7.62,0s5.07,0,7.61,0Z"/><path class="cls-88" d="M169,36.92l26.6-26.59c-3.71-.09-7.44-.09-11.1-.09-2.69,0-5.4,0-8.12,0L169,17.71c0,2.71,0,5.43,0,8.11,0,3.67,0,7.4.09,11.1Z"/><path class="cls-89" d="M200.12,21.94,180.66,41.4h8.1L200.11,30c0-1.41,0-2.82,0-4.22V21.94Z"/><polygon class="cls-90" points="181.51 14.89 187.56 14.89 187.56 22.25 194.92 22.25 194.92 28.29 187.56 28.29 187.56 35.65 181.51 35.65 181.51 28.29 174.16 28.29 174.16 22.25 181.51 22.25 181.51 14.89 181.51 14.89"/><polygon class="cls-37" points="181.51 15.44 187.56 15.44 187.56 22.8 194.92 22.8 194.92 28.84 187.56 28.84 187.56 36.2 181.51 36.2 181.51 28.84 174.16 28.84 174.16 22.8 181.51 22.8 181.51 15.44 181.51 15.44"/><path class="cls-91" d="M21.79,28.18a.39.39,0,0,1-.35-.41,46.43,46.43,0,0,0-.71-7.14A33,33,0,0,0,18.81,14a.38.38,0,0,1,.17-.5.37.37,0,0,1,.47.23,32.82,32.82,0,0,1,2,6.75,48.13,48.13,0,0,1,.73,7.25A.39.39,0,0,1,21.79,28.18Z"/><path class="cls-91" d="M23.85,20.38a.41.41,0,0,1-.43-.36c-.2-.94-.37-1.89-.64-2.8-.13-.46-.23-.93-.38-1.38L22,14.49c-.14-.45-.33-.89-.51-1.32l-.54-1.31-.63-1.25L20,10c-.11-.21-.24-.4-.35-.61a.38.38,0,0,1,.08-.53.4.4,0,0,1,.52.19c.12.2.25.41.36.62l.32.64.64,1.29.56,1.33c.18.44.37.89.51,1.35l.46,1.38c.16.46.26.93.39,1.4.28.93.45,1.9.65,2.85A.38.38,0,0,1,23.85,20.38Z"/><path class="cls-91" d="M33.08,28c.19,0,.34-.23.34-.52a59.18,59.18,0,0,0-.91-9,44.86,44.86,0,0,0-2.62-9c-.12-.28-.35-.44-.53-.37a.48.48,0,0,0-.11.63,43.63,43.63,0,0,1,2.57,8.84,59,59,0,0,1,.9,8.92C32.73,27.77,32.88,28,33.08,28Z"/><path class="cls-91" d="M29.53,19.37c.19,0,.3-.27.24-.54-.22-1.1-.43-2.19-.74-3.27-.15-.54-.28-1.08-.45-1.62L28,12.34c-.17-.54-.39-1.06-.6-1.58l-.66-1.57L26,7.66l-.39-.76c-.13-.26-.29-.5-.43-.74s-.39-.36-.56-.26-.18.37,0,.6.29.48.42.73l.38.75.74,1.49L26.79,11c.21.51.43,1,.59,1.55l.53,1.58c.18.52.3,1.06.45,1.59.3,1.06.51,2.14.73,3.21C29.14,19.22,29.34,19.41,29.53,19.37Z"/><path class="cls-91" d="M26.69,19.88a.43.43,0,0,1-.44-.39A37,37,0,0,0,24,11.77l-.38-.93c-.13-.31-.29-.61-.44-.91L22.71,9l-.22-.45c-.08-.15-.17-.29-.26-.43l-1-1.73L20,4.78a.44.44,0,0,1,0-.59h0a.4.4,0,0,1,.54.17L21.78,6l1.06,1.77c.08.14.18.29.26.44l.23.46.45.92c.15.31.32.61.45.92l.39.95a37.93,37.93,0,0,1,2.32,7.86A.42.42,0,0,1,26.69,19.88Z"/><path class="cls-91" d="M27.8,32.77c0-.56.06-1.12.07-1.68s0-1.12,0-1.69A9.78,9.78,0,0,1,28.49,26a7.51,7.51,0,0,1,.71-1.45,5.5,5.5,0,0,1,.93-1.2c.82-.82,1.67-1.67,2.44-2.57S34.15,19,34.88,18c.18.92.29,1.84.44,2.76s.2,1.84.3,2.76a8.9,8.9,0,0,1-.09,2.32,8.8,8.8,0,0,1-.22,1.07,9.47,9.47,0,0,1-.37,1,6.59,6.59,0,0,1-1,1.61,4.56,4.56,0,0,1-1.36,1.06C31,31.36,29.42,32.09,27.8,32.77Z"/><path class="cls-91" d="M31.76,25.38a12.23,12.23,0,0,0-3.16,4.74A13.62,13.62,0,0,0,28,32a7.79,7.79,0,0,0-.19.77c1.62-.68,3.18-1.41,4.77-2.2a4.56,4.56,0,0,0,1.36-1.06,6.59,6.59,0,0,0,1-1.61,9.47,9.47,0,0,0,.37-1,8.8,8.8,0,0,0,.22-1.07,8.9,8.9,0,0,0,.09-2.32c-.1-.92-.16-1.83-.3-2.76s-.26-1.84-.44-2.76v.19c0,.13,0,.32,0,.55a11,11,0,0,1-.29,1.87A9.09,9.09,0,0,1,33.65,23a8.53,8.53,0,0,1-.8,1.22A8.25,8.25,0,0,1,31.76,25.38Z"/><path class="cls-91" d="M26.89,32.72c0-.55.06-1.11.07-1.66S27,30,27,29.4a7.15,7.15,0,0,0-.76-3.26,6,6,0,0,0-.85-1.27A5.18,5.18,0,0,0,24.25,24c-1-.56-1.92-1.1-2.93-1.57s-1.95-.93-3-1.31c.12.63.19,1.28.3,1.92s.14,1.32.21,2a8.06,8.06,0,0,0,.35,1.69,6.71,6.71,0,0,0,.32.78,6,6,0,0,0,1.43,2,5.22,5.22,0,0,0,1.32.92C23.83,31.08,25.39,31.88,26.89,32.72Z"/><path class="cls-91" d="M22.92,25.9a7.91,7.91,0,0,1,3.36,4.19A12.22,12.22,0,0,1,26.79,32c.08.48.1.77.1.77-1.5-.84-3.06-1.64-4.6-2.37A5.22,5.22,0,0,1,21,29.43a6,6,0,0,1-1.43-2,6.71,6.71,0,0,1-.32-.78A8.06,8.06,0,0,1,18.87,25c-.07-.65-.11-1.33-.21-2s-.18-1.29-.3-1.92l.05.12.17.35a7.45,7.45,0,0,0,.75,1.18,12.41,12.41,0,0,0,1.4,1.57,10.79,10.79,0,0,0,1,.82A12.47,12.47,0,0,0,22.92,25.9Z"/><path class="cls-91" d="M26.54,43l.3-1.65.25-1.67a8.22,8.22,0,0,1,3.13-5.56c.94-.66,1.91-1.34,2.85-2.05s1.85-1.47,2.78-2.24l-.07,2.68-.17,2.65c-.25,3.1-2,5.63-4.05,6.31C29.9,42,28.21,42.51,26.54,43Z"/><path class="cls-91" d="M31.51,36.3a10.12,10.12,0,0,0-2.3,2,11.58,11.58,0,0,0-.84,1.11q-.39.55-.69,1.08c-.38.7-.67,1.32-.86,1.77s-.28.74-.28.74c1.67-.47,3.36-1,5-1.53,2.09-.68,3.8-3.21,4.05-6.31l.17-2.65.07-2.68a10.35,10.35,0,0,1-.77,2.41A9.42,9.42,0,0,1,31.51,36.3Z"/><path class="cls-91" d="M25.65,42.81l.29-1.63.25-1.65a6.49,6.49,0,0,0-1.86-5.85c-.87-.73-1.73-1.44-2.61-2.11s-1.78-1.32-2.67-1.93L19,31.71l-.13,2.09a6.6,6.6,0,0,0,2.54,6C22.85,40.79,24.24,41.78,25.65,42.81Z"/><path class="cls-91" d="M22.69,35.43a7,7,0,0,1,1.82,2.26,9.48,9.48,0,0,1,.55,1.23c.14.41.24.81.33,1.19A10.18,10.18,0,0,1,25.64,42c0,.48,0,.77,0,.77-1.41-1-2.8-2-4.25-3a6.6,6.6,0,0,1-2.54-6L19,31.71l.06-2.07a7,7,0,0,0,.65,1.91A11,11,0,0,0,22.69,35.43Z"/><path class="cls-91" d="M29.27,16.15a12,12,0,0,0-.75-1.92,11.44,11.44,0,0,0-1.1-1.64,6.49,6.49,0,0,0-1.34-1.28,7.47,7.47,0,0,0-1.48-.86c-.31-.13-.65-.24-1-.36-.12.32-.21.63-.35.95a12,12,0,0,0-.44,6.72l.12.56.09.57L23.24,20a3.8,3.8,0,0,0,.4,1.16,2.66,2.66,0,0,0,.77.86l.73.51.7.54c.47.36.93.73,1.4,1.11.39-.45.77-.92,1.16-1.4L29,22.1l.54-.74A2.86,2.86,0,0,0,30,20.19a3.42,3.42,0,0,0,0-1.42l-.32-1.31-.16-.66C29.41,16.58,29.34,16.37,29.27,16.15Z"/><path class="cls-91" d="M29.27,16.15a11.38,11.38,0,0,0-.78-2,10.66,10.66,0,0,0-1.14-1.67c.18.39.36.8.51,1.22l.23.63.19.64.38,1.28a3.75,3.75,0,0,1,.16,1.39,3.09,3.09,0,0,1-.27,1.16c-.47,1-1.05,2-1.59,2.88-.8-.74-1.55-1.45-2.4-2.11a2.55,2.55,0,0,1-.69-.85,5.91,5.91,0,0,1-.43-1.16l-.27-1.14L23,15.88l-.17-.56a11.46,11.46,0,0,1-.28-1.12,9.41,9.41,0,0,0,0,1.76,10.1,10.1,0,0,0,.24,1.8l.12.56.09.57L23.24,20a3.8,3.8,0,0,0,.4,1.16,2.66,2.66,0,0,0,.77.86l.73.51.7.54c.47.36.93.73,1.4,1.11.39-.45.77-.92,1.16-1.4L29,22.1l.54-.74A2.86,2.86,0,0,0,30,20.19a3.42,3.42,0,0,0,0-1.42l-.32-1.31-.16-.66C29.41,16.58,29.34,16.37,29.27,16.15Z"/><text class="cls-92" transform="translate(72.53 37.83)">999999</text></g></g></svg>