<svg xmlns="http://www.w3.org/2000/svg" xmlns:xlink="http://www.w3.org/1999/xlink" viewBox="0 0 224.08 54.36"><defs><style>.cls-1{isolation:isolate;}.cls-10,.cls-100,.cls-101,.cls-102,.cls-103,.cls-104,.cls-11,.cls-112,.cls-113,.cls-114,.cls-115,.cls-116,.cls-117,.cls-118,.cls-119,.cls-12,.cls-120,.cls-121,.cls-122,.cls-123,.cls-124,.cls-125,.cls-126,.cls-127,.cls-128,.cls-129,.cls-13,.cls-130,.cls-131,.cls-132,.cls-133,.cls-134,.cls-135,.cls-14,.cls-15,.cls-16,.cls-17,.cls-18,.cls-19,.cls-2,.cls-20,.cls-21,.cls-22,.cls-23,.cls-24,.cls-25,.cls-26,.cls-27,.cls-28,.cls-29,.cls-3,.cls-30,.cls-31,.cls-32,.cls-33,.cls-34,.cls-35,.cls-36,.cls-37,.cls-38,.cls-39,.cls-4,.cls-40,.cls-41,.cls-42,.cls-43,.cls-44,.cls-45,.cls-46,.cls-47,.cls-48,.cls-49,.cls-5,.cls-50,.cls-51,.cls-52,.cls-53,.cls-54,.cls-55,.cls-56,.cls-57,.cls-58,.cls-6,.cls-60,.cls-61,.cls-62,.cls-63,.cls-64,.cls-65,.cls-66,.cls-67,.cls-68,.cls-69,.cls-7,.cls-70,.cls-71,.cls-72,.cls-73,.cls-74,.cls-75,.cls-76,.cls-77,.cls-78,.cls-79,.cls-8,.cls-80,.cls-81,.cls-82,.cls-83,.cls-84,.cls-85,.cls-86,.cls-87,.cls-88,.cls-89,.cls-9,.cls-90,.cls-91,.cls-92,.cls-93,.cls-94,.cls-95,.cls-96,.cls-97,.cls-98,.cls-99{fill-rule:evenodd;}.cls-2{fill:url(#radial-gradient);}.cls-3{fill:url(#linear-gradient);}.cls-4{fill:url(#linear-gradient-2);}.cls-5{fill:url(#linear-gradient-3);}.cls-6{fill:url(#linear-gradient-4);}.cls-7{fill:url(#linear-gradient-5);}.cls-8{fill:url(#linear-gradient-6);}.cls-9{fill:url(#linear-gradient-7);}.cls-10{fill:url(#linear-gradient-8);}.cls-11{fill:url(#linear-gradient-9);}.cls-12{fill:url(#linear-gradient-10);}.cls-13{fill:url(#linear-gradient-11);}.cls-14{fill:url(#linear-gradient-12);}.cls-15{fill:url(#linear-gradient-13);}.cls-16{fill:url(#linear-gradient-14);}.cls-17{fill:url(#linear-gradient-15);}.cls-18{fill:url(#linear-gradient-16);}.cls-19{fill:url(#linear-gradient-17);}.cls-113,.cls-114,.cls-115,.cls-116,.cls-122,.cls-123,.cls-124,.cls-125,.cls-126,.cls-127,.cls-129,.cls-130,.cls-131,.cls-132,.cls-133,.cls-134,.cls-20,.cls-21,.cls-50,.cls-51,.cls-52,.cls-53,.cls-54,.cls-55,.cls-56,.cls-57,.cls-59{mix-blend-mode:screen;}.cls-20{fill:url(#New_Gradient_Swatch_1);}.cls-21{fill:#8cf4f9;}.cls-117,.cls-118,.cls-119,.cls-120,.cls-121,.cls-128,.cls-135,.cls-22{mix-blend-mode:multiply;}.cls-22{fill:url(#radial-gradient-2);}.cls-136,.cls-137,.cls-23{fill:#fff;}.cls-24{fill:url(#radial-gradient-3);}.cls-25{fill:url(#radial-gradient-4);}.cls-26{fill:url(#radial-gradient-5);}.cls-27{fill:url(#radial-gradient-6);}.cls-28{fill:url(#radial-gradient-7);}.cls-29{fill:url(#radial-gradient-8);}.cls-30{fill:url(#radial-gradient-9);}.cls-31{fill:url(#radial-gradient-10);}.cls-32{fill:url(#radial-gradient-11);}.cls-33{fill:url(#radial-gradient-12);}.cls-34{fill:url(#radial-gradient-13);}.cls-35{fill:url(#radial-gradient-14);}.cls-36{fill:url(#radial-gradient-15);}.cls-37{fill:url(#radial-gradient-16);}.cls-38{fill:url(#radial-gradient-17);}.cls-39{fill:url(#radial-gradient-18);}.cls-40{fill:url(#radial-gradient-19);}.cls-41{fill:url(#radial-gradient-20);}.cls-42{fill:url(#radial-gradient-21);}.cls-43{fill:url(#radial-gradient-22);}.cls-44{fill:url(#radial-gradient-23);}.cls-45{fill:url(#radial-gradient-24);}.cls-46{fill:url(#radial-gradient-25);}.cls-47{fill:url(#radial-gradient-26);}.cls-48{fill:url(#radial-gradient-27);}.cls-49{fill:url(#radial-gradient-28);}.cls-50{fill:url(#New_Gradient_Swatch_1-2);}.cls-51{fill:url(#New_Gradient_Swatch_1-3);}.cls-52{fill:url(#New_Gradient_Swatch_1-4);}.cls-53{fill:url(#New_Gradient_Swatch_1-5);}.cls-54{fill:url(#New_Gradient_Swatch_1-6);}.cls-55{fill:url(#New_Gradient_Swatch_1-7);}.cls-56{opacity:0.5;fill:url(#New_Gradient_Swatch_2);}.cls-57{fill:url(#New_Gradient_Swatch_2-2);}.cls-111,.cls-58{fill:#f4f4ff;}.cls-60{fill:#00acff;opacity:0;}.cls-61{fill:#05adff;opacity:0.02;}.cls-62{fill:#0aafff;opacity:0.04;}.cls-63{fill:#0eb0ff;opacity:0.06;}.cls-64{fill:#13b2ff;opacity:0.08;}.cls-65{fill:#18b3ff;opacity:0.1;}.cls-66{fill:#1db4ff;opacity:0.12;}.cls-67{fill:#21b6ff;opacity:0.14;}.cls-68{fill:#26b7ff;opacity:0.16;}.cls-69{fill:#2bb9ff;opacity:0.18;}.cls-70{fill:#30baff;opacity:0.2;}.cls-71{fill:#35bcff;opacity:0.22;}.cls-72{fill:#39bdff;opacity:0.24;}.cls-73{fill:#3ebeff;opacity:0.25;}.cls-74{fill:#43c0ff;opacity:0.27;}.cls-75{fill:#48c1ff;opacity:0.29;}.cls-76{fill:#4dc3ff;opacity:0.31;}.cls-77{fill:#51c4ff;opacity:0.33;}.cls-78{fill:#56c5ff;opacity:0.35;}.cls-79{fill:#5bc7ff;opacity:0.37;}.cls-80{fill:#60c8ff;opacity:0.39;}.cls-81{fill:#64caff;opacity:0.41;}.cls-82{fill:#69cbff;opacity:0.43;}.cls-83{fill:#6eccff;opacity:0.45;}.cls-84{fill:#73ceff;opacity:0.47;}.cls-85{fill:#78cfff;opacity:0.49;}.cls-86{fill:#7cd1ff;opacity:0.51;}.cls-87{fill:#81d2ff;opacity:0.53;}.cls-88{fill:#86d4ff;opacity:0.55;}.cls-89{fill:#8bd5ff;opacity:0.57;}.cls-90{fill:#90d6ff;opacity:0.59;}.cls-91{fill:#94d8ff;opacity:0.61;}.cls-92{fill:#99d9ff;opacity:0.63;}.cls-93{fill:#9edbff;opacity:0.65;}.cls-94{fill:#a3dcff;opacity:0.67;}.cls-95{fill:#a7ddff;opacity:0.69;}.cls-96{fill:#acdfff;opacity:0.71;}.cls-97{fill:#b1e0ff;opacity:0.73;}.cls-98{fill:#b6e2ff;opacity:0.75;}.cls-99{fill:#bbe3ff;opacity:0.76;}.cls-100{fill:#bfe4ff;opacity:0.78;}.cls-101{fill:#c4e6ff;opacity:0.8;}.cls-102{fill:#c9e7ff;opacity:0.82;}.cls-103{fill:#cee9ff;opacity:0.84;}.cls-104{fill:#d3eaff;opacity:0.86;}.cls-105{fill:#d7ecff;opacity:0.88;}.cls-106{fill:#dcedff;opacity:0.9;}.cls-107{fill:#e1eeff;opacity:0.92;}.cls-108{fill:#e6f0ff;opacity:0.94;}.cls-109{fill:#eaf1ff;opacity:0.96;}.cls-110{fill:#eff3ff;opacity:0.98;}.cls-112{fill:url(#New_Gradient_Swatch_5);}.cls-113{fill:url(#radial-gradient-29);}.cls-114{fill:url(#radial-gradient-30);}.cls-115{fill:url(#radial-gradient-31);}.cls-116{fill:url(#radial-gradient-32);}.cls-117{fill:url(#radial-gradient-33);}.cls-118{fill:url(#radial-gradient-34);}.cls-119{fill:url(#radial-gradient-35);}.cls-120{fill:url(#radial-gradient-36);}.cls-121{fill:url(#radial-gradient-37);}.cls-122{fill:url(#radial-gradient-38);}.cls-123{fill:url(#radial-gradient-39);}.cls-124{fill:url(#radial-gradient-40);}.cls-125{fill:url(#radial-gradient-41);}.cls-126{fill:url(#radial-gradient-42);}.cls-127{fill:url(#radial-gradient-43);}.cls-128{fill:#bc8537;opacity:0.15;}.cls-129{fill:url(#radial-gradient-44);}.cls-130{fill:url(#radial-gradient-45);}.cls-131{fill:url(#radial-gradient-46);}.cls-132{fill:url(#radial-gradient-47);}.cls-133{fill:url(#radial-gradient-48);}.cls-134{fill:url(#radial-gradient-49);}.cls-135{fill:#7a4b00;}.cls-137{font-size:31.32px;font-family:BebasNeue-Regular, Bebas Neue;letter-spacing:0.03em;}</style><radialGradient id="radial-gradient" cx="61.26" cy="-1.81" r="171.61" gradientUnits="userSpaceOnUse"><stop offset="0" stop-color="#24baff"/><stop offset="1" stop-color="#3378ff"/></radialGradient><linearGradient id="linear-gradient" x1="141.44" y1="50.29" x2="141.44" y2="4.13" gradientUnits="userSpaceOnUse"><stop offset="0" stop-color="#003075"/><stop offset="1" stop-color="#0e1645"/></linearGradient><linearGradient id="linear-gradient-2" x1="58.8" y1="2.83" x2="64.18" y2="2.83" gradientUnits="userSpaceOnUse"><stop offset="0" stop-color="#2e74ff"/><stop offset="1" stop-color="#78d4ff"/></linearGradient><linearGradient id="linear-gradient-3" x1="61.46" y1="4.71" x2="65.28" y2="4.71" gradientUnits="userSpaceOnUse"><stop offset="0" stop-color="#0a8aff"/><stop offset="1" stop-color="#05f"/></linearGradient><linearGradient id="linear-gradient-4" x1="218.7" y1="2.83" x2="224.08" y2="2.83" xlink:href="#linear-gradient-3"/><linearGradient id="linear-gradient-5" x1="217.6" y1="4.71" x2="221.42" y2="4.71" xlink:href="#linear-gradient-2"/><linearGradient id="linear-gradient-6" x1="58.8" y1="51.59" x2="64.18" y2="51.59" xlink:href="#radial-gradient"/><linearGradient id="linear-gradient-7" x1="61.46" y1="49.71" x2="65.28" y2="49.71" xlink:href="#radial-gradient"/><linearGradient id="linear-gradient-8" x1="218.7" y1="51.59" x2="224.08" y2="51.59" xlink:href="#linear-gradient-3"/><linearGradient id="linear-gradient-9" x1="217.6" y1="49.71" x2="221.42" y2="49.71" xlink:href="#linear-gradient-2"/><linearGradient id="linear-gradient-10" x1="141.44" y1="1.47" x2="141.44" y2="0.14" gradientUnits="userSpaceOnUse"><stop offset="0" stop-color="#78d4ff"/><stop offset="1" stop-color="#2e74ff"/></linearGradient><linearGradient id="linear-gradient-11" x1="141.44" y1="4.13" x2="141.44" y2="2.8" gradientUnits="userSpaceOnUse"><stop offset="0" stop-color="#0049c1"/><stop offset="1" stop-color="#0061ff"/></linearGradient><linearGradient id="linear-gradient-12" x1="58.8" y1="27.21" x2="60.13" y2="27.21" xlink:href="#linear-gradient-2"/><linearGradient id="linear-gradient-13" x1="61.46" y1="27.21" x2="62.79" y2="27.21" gradientUnits="userSpaceOnUse"><stop offset="0" stop-color="#0061ff"/><stop offset="1" stop-color="#0049c1"/></linearGradient><linearGradient id="linear-gradient-14" x1="220.09" y1="27.21" x2="221.42" y2="27.21" xlink:href="#linear-gradient-2"/><linearGradient id="linear-gradient-15" x1="222.75" y1="27.21" x2="224.08" y2="27.21" xlink:href="#linear-gradient-13"/><linearGradient id="linear-gradient-16" x1="141.44" y1="51.62" x2="141.44" y2="50.29" gradientUnits="userSpaceOnUse"><stop offset="0" stop-color="#78d4ff"/><stop offset="1" stop-color="#45a8ff"/></linearGradient><linearGradient id="linear-gradient-17" x1="141.44" y1="54.28" x2="141.44" y2="52.95" xlink:href="#linear-gradient-11"/><radialGradient id="New_Gradient_Swatch_1" cx="141.44" cy="53.62" r="94.42" gradientUnits="userSpaceOnUse"><stop offset="0" stop-color="#1476ff"/><stop offset="1"/></radialGradient><radialGradient id="radial-gradient-2" cx="128.52" cy="-76.67" r="128.65" gradientUnits="userSpaceOnUse"><stop offset="0" stop-color="#fff"/><stop offset="1" stop-color="#0094d8"/></radialGradient><radialGradient id="radial-gradient-3" cx="-4026.1" cy="-4526.58" r="22.89" gradientTransform="translate(-4001.61 -4524.83) rotate(180)" gradientUnits="userSpaceOnUse"><stop offset="0" stop-color="#4791ff"/><stop offset="1" stop-color="#0049c1"/></radialGradient><radialGradient id="radial-gradient-4" cx="-4065.19" cy="-4510.92" r="31.95" gradientTransform="translate(-4001.61 -4524.83) rotate(180)" gradientUnits="userSpaceOnUse"><stop offset="0" stop-color="#4fa7ff"/><stop offset="1" stop-color="#0049c1"/></radialGradient><radialGradient id="radial-gradient-5" cx="-4071.79" cy="-4531.89" r="32.08" gradientTransform="translate(-4001.61 -4524.83) rotate(180)" gradientUnits="userSpaceOnUse"><stop offset="0" stop-color="#4fcaff"/><stop offset="1" stop-color="#004cef"/></radialGradient><radialGradient id="radial-gradient-6" cx="-4066.39" cy="-4558.82" r="29.16" xlink:href="#radial-gradient-5"/><radialGradient id="radial-gradient-7" cx="-4050.96" cy="-4582.83" r="32.59" xlink:href="#radial-gradient-5"/><radialGradient id="radial-gradient-8" cx="-4049.05" cy="-4587.35" r="36.35" xlink:href="#radial-gradient-5"/><radialGradient id="radial-gradient-9" cx="16.87" cy="7.04" r="72.06" xlink:href="#radial-gradient"/><radialGradient id="radial-gradient-10" cx="15.56" cy="7.66" r="45.74" gradientUnits="userSpaceOnUse"><stop offset="0" stop-color="#0061ba"/><stop offset="1" stop-color="#00266b"/></radialGradient><radialGradient id="radial-gradient-11" cx="25.05" cy="31.2" r="22.89" gradientUnits="userSpaceOnUse"><stop offset="0" stop-color="#0269f4"/><stop offset="1" stop-color="#0049c1"/></radialGradient><radialGradient id="radial-gradient-12" cx="-10.23" cy="69.16" r="31.96" gradientTransform="matrix(1, 0, 0, 1, 0, 0)" xlink:href="#radial-gradient-4"/><radialGradient id="radial-gradient-13" cx="-16.83" cy="48.19" r="32.08" gradientTransform="matrix(1, 0, 0, 1, 0, 0)" xlink:href="#radial-gradient-5"/><radialGradient id="radial-gradient-14" cx="-11.43" cy="21.26" r="29.16" gradientTransform="matrix(1, 0, 0, 1, 0, 0)" xlink:href="#radial-gradient-5"/><radialGradient id="radial-gradient-15" cx="9.38" cy="4.87" r="32.58" gradientTransform="matrix(1, 0, 0, 1, 0, 0)" xlink:href="#radial-gradient-5"/><radialGradient id="radial-gradient-16" cx="15.99" cy="1.92" r="36.35" xlink:href="#linear-gradient-10"/><radialGradient id="radial-gradient-17" cx="25.91" cy="39.31" r="16.77" xlink:href="#linear-gradient-10"/><radialGradient id="radial-gradient-18" cx="21.68" cy="32.61" r="19" xlink:href="#linear-gradient-10"/><radialGradient id="radial-gradient-19" cx="22.03" cy="28.56" r="21.25" gradientUnits="userSpaceOnUse"><stop offset="0" stop-color="#78d4ff"/><stop offset="1" stop-color="#1158e3"/></radialGradient><radialGradient id="radial-gradient-20" cx="14.44" cy="27.32" r="21.24" gradientUnits="userSpaceOnUse"><stop offset="0" stop-color="#1c8fff"/><stop offset="1" stop-color="#0049c1"/></radialGradient><radialGradient id="radial-gradient-21" cx="17.4" cy="18.15" r="16.27" gradientTransform="matrix(1, 0, 0, 1, 0, 0)" xlink:href="#radial-gradient-4"/><radialGradient id="radial-gradient-22" cx="23.8" cy="17.86" r="17.61" gradientTransform="matrix(1, 0, 0, 1, 0, 0)" xlink:href="#radial-gradient-4"/><radialGradient id="radial-gradient-23" cx="-4040.45" cy="43.02" r="16.77" gradientTransform="matrix(-1, 0, 0, 1, -4011.48, 0)" xlink:href="#linear-gradient-10"/><radialGradient id="radial-gradient-24" cx="-4050.65" cy="39.3" r="19" gradientTransform="matrix(-1, 0, 0, 1, -4011.48, 0)" xlink:href="#linear-gradient-10"/><radialGradient id="radial-gradient-25" cx="-4056.03" cy="38.4" r="21.25" gradientTransform="matrix(-1, 0, 0, 1, -4011.48, 0)" xlink:href="#linear-gradient-10"/><radialGradient id="radial-gradient-26" cx="-4050.39" cy="27.32" r="21.24" gradientTransform="matrix(-1, 0, 0, 1, -4011.48, 0)" xlink:href="#radial-gradient-4"/><radialGradient id="radial-gradient-27" cx="-4047.43" cy="18.15" r="16.27" gradientTransform="matrix(-1, 0, 0, 1, -4011.48, 0)" xlink:href="#radial-gradient-4"/><radialGradient id="radial-gradient-28" cx="-4041.03" cy="17.86" r="17.61" gradientTransform="matrix(-1, 0, 0, 1, -4011.48, 0)" xlink:href="#radial-gradient-4"/><radialGradient id="New_Gradient_Swatch_1-2" cx="35.99" cy="37.71" r="38.32" xlink:href="#New_Gradient_Swatch_1"/><radialGradient id="New_Gradient_Swatch_1-3" cx="5.48" cy="-7.21" r="59.24" xlink:href="#New_Gradient_Swatch_1"/><radialGradient id="New_Gradient_Swatch_1-4" cx="56.11" cy="4.78" r="49.4" xlink:href="#New_Gradient_Swatch_1"/><radialGradient id="New_Gradient_Swatch_1-5" cx="29.25" cy="19.7" r="57.34" xlink:href="#New_Gradient_Swatch_1"/><radialGradient id="New_Gradient_Swatch_1-6" cx="44.48" cy="38.84" r="46.26" xlink:href="#New_Gradient_Swatch_1"/><radialGradient id="New_Gradient_Swatch_1-7" cx="26.11" cy="58.8" r="47.88" xlink:href="#New_Gradient_Swatch_1"/><radialGradient id="New_Gradient_Swatch_2" cx="9.31" cy="-5.28" r="54.15" gradientUnits="userSpaceOnUse"><stop offset="0" stop-color="#5497ff"/><stop offset="1"/></radialGradient><radialGradient id="New_Gradient_Swatch_2-2" cx="36.15" cy="0.67" r="50.82" xlink:href="#New_Gradient_Swatch_2"/><radialGradient id="New_Gradient_Swatch_5" cx="183.69" cy="12.62" r="37.01" gradientUnits="userSpaceOnUse"><stop offset="0" stop-color="#ffff1c"/><stop offset="1" stop-color="#f4870c"/></radialGradient><radialGradient id="radial-gradient-29" cx="150.56" cy="15.9" r="52.16" gradientUnits="userSpaceOnUse"><stop offset="0" stop-color="#fff18e"/><stop offset="1"/></radialGradient><radialGradient id="radial-gradient-30" cx="183.8" cy="10.98" r="15.71" xlink:href="#radial-gradient-29"/><radialGradient id="radial-gradient-31" cx="183.06" cy="11.18" r="34.76" xlink:href="#radial-gradient-29"/><radialGradient id="radial-gradient-32" cx="210.94" cy="14.82" r="12.98" xlink:href="#radial-gradient-29"/><radialGradient id="radial-gradient-33" cx="224.75" cy="49.42" r="56.58" gradientUnits="userSpaceOnUse"><stop offset="0" stop-color="#e3a84e"/><stop offset="1" stop-color="#fff"/></radialGradient><radialGradient id="radial-gradient-34" cx="214.64" cy="45.06" r="19.49" xlink:href="#radial-gradient-33"/><radialGradient id="radial-gradient-35" cx="212.03" cy="54.59" r="55.44" xlink:href="#radial-gradient-33"/><radialGradient id="radial-gradient-36" cx="179.64" cy="50.99" r="13.91" xlink:href="#radial-gradient-33"/><radialGradient id="radial-gradient-37" cx="218.56" cy="55.31" r="59.47" xlink:href="#radial-gradient-33"/><radialGradient id="radial-gradient-38" cx="187.16" cy="5.01" r="29.67" xlink:href="#radial-gradient-29"/><radialGradient id="radial-gradient-39" cx="198.78" cy="15.98" r="40.03" xlink:href="#radial-gradient-29"/><radialGradient id="radial-gradient-40" cx="186.72" cy="52.99" r="41.7" xlink:href="#radial-gradient-29"/><radialGradient id="radial-gradient-41" cx="221.57" cy="29.07" r="51.37" xlink:href="#radial-gradient-29"/><radialGradient id="radial-gradient-42" cx="242.74" cy="29.05" r="46.91" xlink:href="#radial-gradient-29"/><radialGradient id="radial-gradient-43" cx="208.85" cy="55.38" r="35.83" xlink:href="#radial-gradient-29"/><radialGradient id="radial-gradient-44" cx="205.46" cy="26.41" r="19.29" gradientUnits="userSpaceOnUse"><stop offset="0" stop-color="#96ff73"/><stop offset="1"/></radialGradient><radialGradient id="radial-gradient-45" cx="211.12" cy="29.81" r="27.71" xlink:href="#radial-gradient-44"/><radialGradient id="radial-gradient-46" cx="203.05" cy="37.36" r="18.02" xlink:href="#radial-gradient-44"/><radialGradient id="radial-gradient-47" cx="202.86" cy="40.73" r="16.81" xlink:href="#radial-gradient-44"/><radialGradient id="radial-gradient-48" cx="213.83" cy="6.31" r="53.87" xlink:href="#radial-gradient-29"/><radialGradient id="radial-gradient-49" cx="229.97" cy="15.03" r="54.48" xlink:href="#radial-gradient-29"/></defs><g class="cls-1"><g id="Layer_1" data-name="Layer 1"><path class="cls-2" d="M64.18,1.47,60.13,5.52V48.9L64.18,53H218.7l4.05-4.05V5.52l-4.05-4Zm.55,1.33L61.46,6.07V48.35l3.27,3.27H218.15l3.27-3.27V6.07L218.15,2.8Z"/><polygon class="cls-3" points="65.28 4.13 62.79 6.63 62.79 47.8 65.28 50.29 217.6 50.29 220.09 47.8 220.09 6.63 217.6 4.13 65.28 4.13 65.28 4.13"/><polygon class="cls-4" points="60.13 5.52 64.18 1.47 63.63 0.14 58.8 4.97 60.13 5.52 60.13 5.52"/><polygon class="cls-5" points="64.73 2.8 61.46 6.07 62.79 6.63 65.28 4.13 64.73 2.8 64.73 2.8"/><polygon class="cls-6" points="222.75 5.52 218.7 1.47 219.25 0.14 224.08 4.97 222.75 5.52 222.75 5.52"/><polygon class="cls-7" points="218.15 2.8 221.42 6.07 220.09 6.63 217.6 4.13 218.15 2.8 218.15 2.8"/><polygon class="cls-8" points="60.13 48.9 64.18 52.95 63.63 54.28 58.8 49.45 60.13 48.9 60.13 48.9"/><polygon class="cls-9" points="64.73 51.62 61.46 48.35 62.79 47.8 65.28 50.29 64.73 51.62 64.73 51.62"/><polygon class="cls-10" points="222.75 48.9 218.7 52.95 219.25 54.28 224.08 49.45 222.75 48.9 222.75 48.9"/><polygon class="cls-11" points="218.15 51.62 221.42 48.35 220.09 47.8 217.6 50.29 218.15 51.62 218.15 51.62"/><polygon class="cls-12" points="64.18 1.47 218.7 1.47 219.25 0.14 63.63 0.14 64.18 1.47 64.18 1.47"/><polygon class="cls-13" points="218.15 2.8 64.73 2.8 65.28 4.13 217.6 4.13 218.15 2.8 218.15 2.8"/><polygon class="cls-14" points="60.13 48.9 60.13 5.52 58.8 4.97 58.8 49.45 60.13 48.9 60.13 48.9"/><polygon class="cls-15" points="61.46 6.07 61.46 48.35 62.79 47.8 62.79 6.63 61.46 6.07 61.46 6.07"/><polygon class="cls-16" points="220.09 6.63 220.09 47.8 221.42 48.35 221.42 6.07 220.09 6.63 220.09 6.63"/><polygon class="cls-17" points="222.75 5.52 222.75 48.9 224.08 49.45 224.08 4.97 222.75 5.52 222.75 5.52"/><polygon class="cls-18" points="217.6 50.29 65.28 50.29 64.73 51.62 218.15 51.62 217.6 50.29 217.6 50.29"/><polygon class="cls-19" points="218.7 52.95 64.18 52.95 63.63 54.28 219.25 54.28 218.7 52.95 218.7 52.95"/><path class="cls-20" d="M218.7,53c-4.92,1.33-149.5,1.33-154.52,0l-.55,1.33H219.25L218.7,53Z"/><path class="cls-21" d="M222.75,10.22l.42,38.61.8.57-1-.2a28.1,28.1,0,0,0-4,4l.25,1-.56-.87L70.72,53h148l4.05-4.05V10.22Z"/><path class="cls-22" d="M64.18,1.47H218.7l.55-1.33C218.7,1.47,64.18,1.47,63.63.14l.55,1.33Z"/><path class="cls-23" d="M60.13,44.21,59.71,5.59,58.91,5l1,.2a27.53,27.53,0,0,0,4-4l-.24-1,.56.87,147.93.35h-148L60.13,5.52V44.21Z"/><path class="cls-24" d="M26.68,2.15c2.15.45,4.29,1,6.42,1.52s4.22,1.21,6.31,1.9L40,4.52A110.25,110.25,0,0,0,26.68,1v1.2Z"/><path class="cls-25" d="M40,4.52l-.61,1.05c1.64,1.46,3.25,3,4.81,4.51s3.05,3.17,4.52,4.81l1-.6A109.75,109.75,0,0,0,40,4.52Z"/><path class="cls-26" d="M48.74,14.89c.68,2.09,1.33,4.19,1.9,6.31s1.06,4.27,1.51,6.42h1.2a109.6,109.6,0,0,0-3.57-13.33l-1,.6Z"/><path class="cls-27" d="M52.15,27.62c-.45,2.16-.94,4.3-1.51,6.42s-1.22,4.23-1.9,6.32l1,.6a109.27,109.27,0,0,0,3.57-13.34Z"/><path class="cls-28" d="M48.74,40.36c-1.47,1.64-3,3.25-4.52,4.8s-3.17,3.06-4.81,4.52l.61,1A109.75,109.75,0,0,0,49.78,41l-1-.6Z"/><path class="cls-29" d="M39.41,49.68c-2.09.69-4.19,1.33-6.31,1.9s-4.27,1.07-6.42,1.51V54.3A110.25,110.25,0,0,0,40,50.73l-.61-1Z"/><path class="cls-30" d="M14.55,6.61C13,8,11.45,9.44,10,10.92s-2.91,3-4.31,4.57c-.65,2-1.26,4-1.8,6s-1,4.06-1.45,6.11q.64,3.07,1.45,6.12c.54,2,1.15,4,1.8,6,1.4,1.56,2.83,3.09,4.31,4.57s3,2.91,4.58,4.31c2,.65,4,1.26,6,1.8s4.07,1,6.12,1.45q3.08-.64,6.11-1.45c2-.54,4-1.15,6-1.8,1.56-1.4,3.09-2.83,4.57-4.31s2.91-3,4.31-4.57c.65-2,1.26-4,1.8-6s1-4.07,1.45-6.12c-.43-2.05-.9-4.09-1.45-6.11s-1.15-4-1.8-6c-1.4-1.56-2.83-3.09-4.31-4.57s-3-2.91-4.57-4.31c-2-.65-4-1.26-6-1.8s-4.06-1-6.11-1.45c-2.05.43-4.09.9-6.12,1.45s-4,1.15-6,1.8ZM26.68,2.15c-2.16.45-4.3,1-6.42,1.52S16,4.88,13.94,5.57c-1.64,1.46-3.25,3-4.8,4.51s-3.05,3.17-4.52,4.81C3.93,17,3.29,19.08,2.72,21.2s-1.06,4.27-1.51,6.42c.45,2.16.94,4.3,1.51,6.42s1.21,4.23,1.9,6.32c1.47,1.64,3,3.25,4.52,4.8s3.16,3.06,4.8,4.52c2.09.69,4.19,1.33,6.32,1.9s4.26,1.07,6.42,1.51q3.22-.66,6.42-1.51c2.12-.57,4.22-1.21,6.31-1.9,1.64-1.46,3.25-3,4.81-4.52s3.05-3.16,4.52-4.8c.68-2.09,1.33-4.19,1.9-6.32s1.06-4.26,1.51-6.42c-.45-2.15-.94-4.29-1.51-6.42s-1.22-4.22-1.9-6.31c-1.47-1.64-3-3.25-4.52-4.81s-3.17-3-4.81-4.51c-2.09-.69-4.19-1.34-6.31-1.9S28.83,2.6,26.68,2.15Z"/><path class="cls-31" d="M15.15,7.66c-1.48,1.33-2.93,2.69-4.34,4.1S8,14.62,6.71,16.1C6.09,18,5.52,19.89,5,21.82s-1,3.86-1.38,5.8Q4.24,30.55,5,33.43t1.71,5.72c1.33,1.48,2.69,2.93,4.1,4.34s2.86,2.77,4.34,4.1q2.83.93,5.72,1.71c1.92.52,3.86,1,5.81,1.38,1.94-.41,3.88-.86,5.8-1.38s3.83-1.09,5.72-1.71c1.48-1.33,2.94-2.69,4.35-4.1s2.76-2.86,4.09-4.34c.62-1.89,1.2-3.8,1.71-5.72s1-3.86,1.38-5.81c-.41-1.94-.86-3.88-1.38-5.8S47.26,18,46.64,16.1c-1.33-1.48-2.69-2.94-4.09-4.34S39.68,9,38.2,7.66C36.31,7,34.41,6.46,32.48,6s-3.86-1-5.8-1.38C24.73,5,22.79,5.43,20.87,6S17,7,15.15,7.66Z"/><path class="cls-32" d="M26.68,53.09q-3.24-.66-6.42-1.51c-2.13-.57-4.23-1.21-6.32-1.9l-.6,1A109.27,109.27,0,0,0,26.68,54.3V53.09Z"/><path class="cls-33" d="M13.34,50.73l.6-1c-1.64-1.46-3.25-3-4.8-4.52S6.09,42,4.62,40.36L3.57,41a109.86,109.86,0,0,0,9.77,9.77Z"/><path class="cls-34" d="M4.62,40.36c-.69-2.09-1.33-4.19-1.9-6.32s-1.06-4.26-1.51-6.42H0A111.11,111.11,0,0,0,3.57,41l1.05-.6Z"/><path class="cls-35" d="M1.21,27.62c.45-2.15.94-4.29,1.51-6.42S3.93,17,4.62,14.89l-1.05-.6A111.46,111.46,0,0,0,0,27.62Z"/><path class="cls-36" d="M4.62,14.89c1.47-1.64,3-3.25,4.52-4.81s3.16-3,4.8-4.51l-.6-1.05a109.86,109.86,0,0,0-9.77,9.77l1.05.6Z"/><path class="cls-37" d="M13.94,5.57c2.09-.69,4.19-1.34,6.32-1.9s4.26-1.07,6.42-1.52V1A109.27,109.27,0,0,0,13.34,4.52l.6,1.05Z"/><path class="cls-38" d="M20.56,50.44q3,.81,6.12,1.45V50.68c-1.95-.41-3.89-.86-5.81-1.38S17,48.21,15.15,47.59l-.6,1c2,.65,4,1.26,6,1.8Z"/><path class="cls-39" d="M10,44.33c1.48,1.48,3,2.91,4.58,4.31l.6-1c-1.48-1.33-2.93-2.69-4.34-4.1S8,40.63,6.71,39.15l-1,.61c1.4,1.56,2.83,3.09,4.31,4.57Z"/><path class="cls-40" d="M3.86,33.74c.54,2,1.15,4,1.8,6l1-.61Q5.78,36.32,5,33.43T3.62,27.62H2.41q.64,3.07,1.45,6.12Z"/><path class="cls-41" d="M3.86,21.51q-.81,3-1.45,6.11H3.62c.41-1.94.87-3.88,1.38-5.8S6.09,18,6.71,16.1l-1-.61c-.65,2-1.26,4-1.8,6Z"/><path class="cls-42" d="M10,10.92c-1.48,1.48-2.91,3-4.31,4.57l1,.61c1.33-1.48,2.69-2.94,4.1-4.34S13.67,9,15.15,7.66l-.6-1C13,8,11.45,9.44,10,10.92Z"/><path class="cls-43" d="M20.56,4.81c-2,.54-4,1.15-6,1.8l.6,1C17,7,19,6.46,20.87,6s3.86-1,5.81-1.38V3.36c-2.05.43-4.09.9-6.12,1.45Z"/><path class="cls-44" d="M32.79,50.44q-3,.81-6.11,1.45V50.68c1.94-.41,3.88-.86,5.8-1.38s3.83-1.09,5.72-1.71l.61,1c-2,.65-4,1.26-6,1.8Z"/><path class="cls-45" d="M43.38,44.33c-1.48,1.48-3,2.91-4.57,4.31l-.61-1c1.48-1.33,2.94-2.69,4.35-4.1s2.76-2.86,4.09-4.34l1,.61c-1.4,1.56-2.83,3.09-4.31,4.57Z"/><path class="cls-46" d="M49.49,33.74c-.54,2-1.15,4-1.8,6l-1-.61c.62-1.89,1.2-3.8,1.71-5.72s1-3.86,1.38-5.81h1.21c-.43,2.05-.9,4.09-1.45,6.12Z"/><path class="cls-47" d="M49.49,21.51c.55,2,1,4.06,1.45,6.11H49.73c-.41-1.94-.86-3.88-1.38-5.8S47.26,18,46.64,16.1l1-.61c.65,2,1.26,4,1.8,6Z"/><path class="cls-48" d="M43.38,10.92c1.48,1.48,2.91,3,4.31,4.57l-1,.61c-1.33-1.48-2.69-2.94-4.09-4.34S39.68,9,38.2,7.66l.61-1c1.56,1.4,3.09,2.83,4.57,4.31Z"/><path class="cls-49" d="M32.79,4.81c2,.54,4,1.15,6,1.8l-.61,1C36.31,7,34.41,6.46,32.48,6s-3.86-1-5.8-1.38V3.36c2.05.43,4.09.9,6.11,1.45Z"/><path class="cls-50" d="M6.71,16.1l20,11.52v-23C24.73,5,22.79,5.43,20.87,6S17,7,15.15,7.66c-1.48,1.33-2.93,2.69-4.34,4.1S8,14.62,6.71,16.1Z"/><path class="cls-51" d="M26.68,4.57V27.62l20-11.52c-1.33-1.48-2.69-2.94-4.09-4.34S39.68,9,38.2,7.66C36.31,7,34.41,6.46,32.48,6s-3.86-1-5.8-1.38Z"/><path class="cls-52" d="M46.64,16.1l-20,11.52,20,11.53c.62-1.89,1.2-3.8,1.71-5.72s1-3.86,1.38-5.81c-.41-1.94-.86-3.88-1.38-5.8S47.26,18,46.64,16.1Z"/><path class="cls-53" d="M46.64,39.15l-20-11.53V50.68c1.94-.41,3.88-.86,5.8-1.38s3.83-1.09,5.72-1.71c1.48-1.33,2.94-2.69,4.35-4.1s2.76-2.86,4.09-4.34Z"/><path class="cls-54" d="M26.68,50.68V27.62l-20,11.53c1.33,1.48,2.69,2.93,4.1,4.34s2.86,2.77,4.34,4.1q2.83.93,5.72,1.71c1.92.52,3.86,1,5.81,1.38Z"/><path class="cls-55" d="M6.71,39.15l20-11.53L6.71,16.1C6.09,18,5.52,19.89,5,21.82s-1,3.86-1.38,5.8Q4.24,30.55,5,33.43t1.71,5.72Z"/><path class="cls-56" d="M9.43,42.09,41.14,10.38c-1-.93-1.94-1.83-2.94-2.72C36.31,7,34.41,6.46,32.48,6s-3.86-1-5.8-1.38c-1.34.28-2.67.58-4,.91L4.54,23.63c-.33,1.32-.63,2.66-.92,4Q4.24,30.55,5,33.43t1.71,5.72c.89,1,1.8,2,2.72,2.94Z"/><path class="cls-57" d="M48.53,22.49l-27,27c1.7.44,3.41.83,5.13,1.2,1.51-.32,3-.67,4.52-1L48.69,32.15c.38-1.5.72-3,1-4.53-.36-1.71-.76-3.43-1.2-5.13Z"/><path class="cls-58" d="M9.14,10.08c1.55-1.55,3.16-3,4.8-4.51,2.09-.69,4.19-1.34,6.32-1.9s4.26-1.07,6.42-1.52Q20.35,3.43,14.2,5.06l-.76-.37c0,.3-.07.61-.1.91a77.63,77.63,0,0,0-8.78,8.91l-.85-.15.51.71A104.41,104.41,0,0,0,.91,27.41l-.73.21.67.21A109.59,109.59,0,0,0,4.21,39.08c-.54-1.67-1-3.34-1.49-5-.57-2.12-1.06-4.26-1.51-6.42.45-2.15.94-4.29,1.51-6.42S3.93,17,4.62,14.89c1.46-1.64,3-3.25,4.52-4.81Z"/><path class="cls-21" d="M44.22,45.16c-1.56,1.56-3.17,3.06-4.81,4.52-2.09.69-4.19,1.33-6.31,1.9s-4.27,1.07-6.42,1.51q6.33-1.28,12.48-2.9l.76.37.09-.92a76,76,0,0,0,8.78-8.9l.86.14-.51-.71a106.22,106.22,0,0,0,3.31-12.33l.72-.22-.67-.2a112.25,112.25,0,0,0-3.35-11.26q.8,2.5,1.49,5c.57,2.13,1.06,4.27,1.51,6.42-.45,2.16-.94,4.3-1.51,6.42s-1.22,4.23-1.9,6.32c-1.47,1.64-3,3.25-4.52,4.8Z"/><g class="cls-59"><path class="cls-60" d="M15.94,5.51a2.16,2.16,0,1,1-2.16-2.15A2.16,2.16,0,0,1,15.94,5.51Z"/><path class="cls-61" d="M15.9,5.51a2.12,2.12,0,1,1-2.12-2.12A2.11,2.11,0,0,1,15.9,5.51Z"/><path class="cls-62" d="M15.86,5.51a2.08,2.08,0,1,1-2.08-2.08A2.08,2.08,0,0,1,15.86,5.51Z"/><path class="cls-63" d="M15.82,5.51a2,2,0,1,1-2-2A2,2,0,0,1,15.82,5.51Z"/><path class="cls-64" d="M15.79,5.51a2,2,0,1,1-2-2A2,2,0,0,1,15.79,5.51Z"/><path class="cls-65" d="M15.75,5.51a2,2,0,1,1-2-2A2,2,0,0,1,15.75,5.51Z"/><path class="cls-66" d="M15.71,5.51a1.93,1.93,0,1,1-1.93-1.93A1.92,1.92,0,0,1,15.71,5.51Z"/><path class="cls-67" d="M15.67,5.51a1.89,1.89,0,1,1-1.89-1.89A1.89,1.89,0,0,1,15.67,5.51Z"/><path class="cls-68" d="M15.63,5.51a1.85,1.85,0,1,1-1.85-1.85A1.85,1.85,0,0,1,15.63,5.51Z"/><path class="cls-69" d="M15.6,5.51A1.82,1.82,0,1,1,13.78,3.7,1.82,1.82,0,0,1,15.6,5.51Z"/><path class="cls-70" d="M15.56,5.51a1.78,1.78,0,1,1-1.78-1.77A1.78,1.78,0,0,1,15.56,5.51Z"/><path class="cls-71" d="M15.52,5.51a1.74,1.74,0,1,1-1.74-1.74A1.73,1.73,0,0,1,15.52,5.51Z"/><path class="cls-72" d="M15.48,5.51a1.7,1.7,0,1,1-1.7-1.7A1.7,1.7,0,0,1,15.48,5.51Z"/><path class="cls-73" d="M15.44,5.51a1.66,1.66,0,1,1-1.66-1.66A1.66,1.66,0,0,1,15.44,5.51Z"/><path class="cls-74" d="M15.41,5.51a1.63,1.63,0,1,1-1.63-1.62A1.63,1.63,0,0,1,15.41,5.51Z"/><path class="cls-75" d="M15.37,5.51a1.59,1.59,0,1,1-1.59-1.58A1.59,1.59,0,0,1,15.37,5.51Z"/><path class="cls-76" d="M15.33,5.51A1.55,1.55,0,1,1,13.78,4,1.54,1.54,0,0,1,15.33,5.51Z"/><path class="cls-77" d="M15.29,5.51A1.51,1.51,0,1,1,13.78,4,1.51,1.51,0,0,1,15.29,5.51Z"/><path class="cls-78" d="M15.25,5.51A1.47,1.47,0,1,1,13.78,4,1.47,1.47,0,0,1,15.25,5.51Z"/><path class="cls-79" d="M15.22,5.51a1.44,1.44,0,1,1-1.44-1.43A1.44,1.44,0,0,1,15.22,5.51Z"/><path class="cls-80" d="M15.18,5.51a1.4,1.4,0,1,1-1.4-1.39A1.4,1.4,0,0,1,15.18,5.51Z"/><path class="cls-81" d="M15.14,5.51a1.36,1.36,0,1,1-1.36-1.36A1.35,1.35,0,0,1,15.14,5.51Z"/><path class="cls-82" d="M15.1,5.51a1.32,1.32,0,1,1-1.32-1.32A1.32,1.32,0,0,1,15.1,5.51Z"/><path class="cls-83" d="M15.06,5.51a1.28,1.28,0,1,1-1.28-1.28A1.28,1.28,0,0,1,15.06,5.51Z"/><path class="cls-84" d="M15,5.51a1.25,1.25,0,1,1-1.25-1.24A1.25,1.25,0,0,1,15,5.51Z"/><path class="cls-85" d="M15,5.51a1.21,1.21,0,1,1-1.21-1.2A1.21,1.21,0,0,1,15,5.51Z"/><path class="cls-86" d="M15,5.51a1.17,1.17,0,1,1-1.17-1.17A1.16,1.16,0,0,1,15,5.51Z"/><path class="cls-87" d="M14.91,5.51a1.13,1.13,0,1,1-1.13-1.13A1.13,1.13,0,0,1,14.91,5.51Z"/><path class="cls-88" d="M14.87,5.51a1.09,1.09,0,1,1-1.09-1.09A1.09,1.09,0,0,1,14.87,5.51Z"/><path class="cls-89" d="M14.84,5.51a1.06,1.06,0,1,1-1.06-1A1.06,1.06,0,0,1,14.84,5.51Z"/><path class="cls-90" d="M14.8,5.51a1,1,0,1,1-1-1A1,1,0,0,1,14.8,5.51Z"/><path class="cls-91" d="M14.76,5.51a1,1,0,1,1-1-1A1,1,0,0,1,14.76,5.51Z"/><path class="cls-92" d="M14.72,5.51a.94.94,0,1,1-.94-.94A.94.94,0,0,1,14.72,5.51Z"/><path class="cls-93" d="M14.68,5.51a.9.9,0,1,1-.9-.9A.9.9,0,0,1,14.68,5.51Z"/><path class="cls-94" d="M14.65,5.51a.87.87,0,1,1-.87-.86A.87.87,0,0,1,14.65,5.51Z"/><path class="cls-95" d="M14.61,5.51a.83.83,0,0,1-1.65,0,.83.83,0,0,1,1.65,0Z"/><path class="cls-96" d="M14.57,5.51a.79.79,0,1,1-.79-.79A.79.79,0,0,1,14.57,5.51Z"/><path class="cls-97" d="M14.53,5.51a.75.75,0,1,1-.75-.75A.75.75,0,0,1,14.53,5.51Z"/><path class="cls-98" d="M14.49,5.51a.71.71,0,1,1-.71-.71A.71.71,0,0,1,14.49,5.51Z"/><path class="cls-99" d="M14.46,5.51a.68.68,0,0,1-.68.67.67.67,0,0,1,0-1.34A.68.68,0,0,1,14.46,5.51Z"/><path class="cls-100" d="M14.42,5.51a.64.64,0,0,1-.64.63.63.63,0,1,1,0-1.26A.64.64,0,0,1,14.42,5.51Z"/><path class="cls-101" d="M14.38,5.51a.6.6,0,0,1-1.19,0,.6.6,0,1,1,1.19,0Z"/><path class="cls-102" d="M14.34,5.51A.56.56,0,1,1,13.78,5,.56.56,0,0,1,14.34,5.51Z"/><path class="cls-103" d="M14.3,5.51a.52.52,0,0,1-.52.52.52.52,0,1,1,0-1A.52.52,0,0,1,14.3,5.51Z"/><path class="cls-104" d="M14.27,5.51a.49.49,0,0,1-1,0,.49.49,0,0,1,1,0Z"/><circle class="cls-105" cx="13.78" cy="5.51" r="0.44"/><circle class="cls-106" cx="13.78" cy="5.51" r="0.41"/><circle class="cls-107" cx="13.78" cy="5.51" r="0.37"/><circle class="cls-108" cx="13.78" cy="5.51" r="0.33"/><circle class="cls-109" cx="13.78" cy="5.51" r="0.29"/><circle class="cls-110" cx="13.78" cy="5.51" r="0.25"/><circle class="cls-111" cx="13.78" cy="5.51" r="0.22"/></g><g class="cls-59"><path class="cls-60" d="M5.78,14.76a1.44,1.44,0,1,1-1.43-1.44A1.44,1.44,0,0,1,5.78,14.76Z"/></g><path class="cls-112" d="M179,6.91l-2.48,2.48c-.21,3.66-.35,10.4-.35,18.12s.14,14.46.35,18.11L179,48.11c3.66.21,10.4.35,18.12.35s14.46-.14,18.11-.35l2.49-2.49c.21-3.65.35-10.4.35-18.11s-.14-14.46-.35-18.12L215.2,6.91c-3.65-.21-10.4-.35-18.11-.35s-14.46.14-18.12.35Z"/><path class="cls-113" d="M181.11,27.51c0-4.79,0-9.68.18-14.51l-4.8-3.61c-.21,3.66-.35,10.4-.35,18.12s.14,14.46.35,18.11l4.8-3.61c-.18-4.82-.18-9.71-.18-14.5Z"/><polygon class="cls-114" points="176.49 9.39 181.29 13 182.58 11.71 178.97 6.91 176.49 9.39 176.49 9.39"/><path class="cls-115" d="M179,6.91l3.61,4.8c4.83-.18,9.72-.18,14.51-.18s9.68,0,14.5.18l3.61-4.8c-3.65-.21-10.4-.35-18.11-.35s-14.46.14-18.12.35Z"/><polygon class="cls-116" points="215.2 6.91 211.59 11.71 212.88 13 217.69 9.39 215.2 6.91 215.2 6.91"/><path class="cls-117" d="M217.69,9.39,212.89,13c.18,4.83.18,9.72.18,14.51s0,9.68-.18,14.5l4.8,3.61c.21-3.65.35-10.4.35-18.11s-.14-14.46-.35-18.12Z"/><polygon class="cls-118" points="217.69 45.62 212.88 42.01 211.59 43.3 215.2 48.11 217.69 45.62 217.69 45.62"/><path class="cls-119" d="M215.2,48.11l-3.61-4.8c-4.82.18-9.71.18-14.5.18s-9.68,0-14.51-.18L179,48.11c3.66.21,10.4.35,18.12.35s14.46-.14,18.11-.35Z"/><polygon class="cls-120" points="178.97 48.11 182.58 43.3 181.29 42.01 176.49 45.62 178.97 48.11 178.97 48.11"/><path class="cls-121" d="M211.59,43.31c0,2.24-6.49,4.06-14.5,4.06s-14.51-1.82-14.51-4.06L179,48.11c3.66.21,10.4.35,18.12.35s14.46-.14,18.11-.35l-3.61-4.8Z"/><path class="cls-122" d="M215.2,6.91c-3.65-.21-10.4-.35-18.11-.35s-14.46.14-18.12.35c.43.3,8.38.52,18.12.52s17.68-.22,18.1-.5Z"/><path class="cls-123" d="M197.09,11.1c-11.79,0-16.31-1.79-18.12-4.19l3.61,4.8c4.83-.18,9.72-.18,14.51-.18s9.68,0,14.5.18l3.61-4.8c-1.8,2.4-6.33,4.19-18.11,4.19Z"/><path class="cls-124" d="M181.29,42l15.8-14.5L181.29,13c-.18,4.83-.18,9.72-.18,14.51s0,9.68.18,14.5Z"/><path class="cls-125" d="M182.58,11.71l14.51,15.8,14.5-15.8c-4.82-.18-9.71-.18-14.5-.18s-9.68,0-14.51.18Z"/><path class="cls-126" d="M212.89,13l-15.8,14.51L212.89,42c.18-4.82.18-9.71.18-14.5s0-9.68-.18-14.51Z"/><path class="cls-127" d="M211.59,43.31l-14.5-15.8-14.51,15.8c4.83.18,9.72.18,14.51.18s9.68,0,14.5-.18Z"/><polygon class="cls-128" points="181.29 13 197.09 27.51 182.58 11.71 181.29 13 181.29 13"/><polygon class="cls-128" points="211.59 11.71 197.09 27.51 212.88 13 211.59 11.71 211.59 11.71"/><polygon class="cls-128" points="212.88 42.01 197.09 27.51 211.59 43.3 212.88 42.01 212.88 42.01"/><polygon class="cls-128" points="182.58 43.3 197.09 27.51 181.29 42.01 182.58 43.3 182.58 43.3"/><path class="cls-23" d="M181.29,13l1.29-1.29c4.83-.18,9.72-.18,14.51-.18h6.62c-6.82-.29-13.77-.4-20.59-.19l-.61-.27-3-3.48c.24.49,3,3.76,2.23,4.58s-4.17-2.1-4.88-2.48l3.82,3.37.26.62a214.55,214.55,0,0,0-.06,27.89l-.27.61-3.72,3.15c1.94-1.24,4.39-3.12,4.95-2.56s.05,1.36-1.22,3.16l2.06-2.09.63-.27,6.58-.11c-2.43,0-4.87-.07-7.29-.16L181.29,42c-.18-4.82-.18-9.71-.18-14.5s0-9.68.18-14.51Z"/><path class="cls-129" d="M188.59,19.7c0,2.6,0,5.21,0,7.81s0,5.2,0,7.81l8.5-7.81-8.5-7.81Z"/><path class="cls-130" d="M189.28,19l7.81,8.5,7.8-8.5c-2.6,0-5.2,0-7.8,0s-5.21,0-7.81,0Z"/><path class="cls-131" d="M205.59,19.7l-8.5,7.81,8.5,7.81c0-2.61,0-5.21,0-7.81s0-5.21,0-7.81Z"/><path class="cls-132" d="M204.89,36l-7.8-8.5L189.28,36c2.6,0,5.21,0,7.81,0s5.2,0,7.8,0Z"/><path class="cls-133" d="M181.2,38.89l27.27-27.27c-3.8-.09-7.62-.09-11.38-.09-2.75,0-5.54,0-8.33,0l-7.62,7.62c0,2.79,0,5.58,0,8.33,0,3.76,0,7.58.09,11.38Z"/><path class="cls-134" d="M213.07,23.53l-20,20h8.31l11.64-11.65c0-1.45,0-2.9,0-4.33v-4Z"/><polygon class="cls-135" points="193.99 16.3 200.19 16.3 200.19 23.84 207.74 23.84 207.74 30.04 200.19 30.04 200.19 37.59 193.99 37.59 193.99 30.04 186.44 30.04 186.44 23.84 193.99 23.84 193.99 16.3 193.99 16.3"/><polygon class="cls-23" points="193.99 16.86 200.19 16.86 200.19 24.41 207.74 24.41 207.74 30.61 200.19 30.61 200.19 38.16 193.99 38.16 193.99 30.61 186.44 30.61 186.44 24.41 193.99 24.41 193.99 16.86 193.99 16.86"/><path class="cls-136" d="M26.78,10.18,12.56,18.46V35.13l14.22,8.23,14.44-8.23V18.46Zm11.86,23.5-11.77,6.9-11.73-7V20.06l11.73-6.8,11.77,6.87Z"/><polygon class="cls-136" points="17.76 21.59 26.23 16.77 26.23 36.91 21.52 34.21 21.52 21.62 17.76 21.59"/><polygon class="cls-136" points="36.02 32.08 27.55 36.91 27.55 16.77 32.26 19.47 32.26 32.05 36.02 32.08"/><text class="cls-137" transform="translate(80 39.16)">999999</text></g></g></svg>