<svg xmlns="http://www.w3.org/2000/svg" xmlns:xlink="http://www.w3.org/1999/xlink" viewBox="0 0 225.12 53.86"><defs><style>.cls-1{isolation:isolate;}.cls-10,.cls-11,.cls-12,.cls-13,.cls-14,.cls-15,.cls-16,.cls-17,.cls-18,.cls-19,.cls-2,.cls-20,.cls-21,.cls-22,.cls-23,.cls-24,.cls-25,.cls-26,.cls-27,.cls-28,.cls-29,.cls-3,.cls-30,.cls-31,.cls-32,.cls-33,.cls-34,.cls-35,.cls-36,.cls-37,.cls-38,.cls-39,.cls-4,.cls-40,.cls-41,.cls-42,.cls-43,.cls-44,.cls-45,.cls-46,.cls-47,.cls-48,.cls-49,.cls-5,.cls-50,.cls-51,.cls-52,.cls-53,.cls-54,.cls-55,.cls-56,.cls-57,.cls-58,.cls-59,.cls-6,.cls-60,.cls-61,.cls-62,.cls-63,.cls-64,.cls-65,.cls-66,.cls-67,.cls-68,.cls-69,.cls-7,.cls-70,.cls-71,.cls-72,.cls-73,.cls-74,.cls-75,.cls-76,.cls-77,.cls-78,.cls-79,.cls-8,.cls-80,.cls-81,.cls-9{fill-rule:evenodd;}.cls-2{fill:url(#radial-gradient);}.cls-3{fill:url(#linear-gradient);}.cls-4{fill:url(#linear-gradient-2);}.cls-5{fill:url(#linear-gradient-3);}.cls-6{fill:url(#linear-gradient-4);}.cls-7{fill:url(#linear-gradient-5);}.cls-8{fill:url(#linear-gradient-6);}.cls-9{fill:url(#linear-gradient-7);}.cls-10{fill:url(#linear-gradient-8);}.cls-11{fill:url(#linear-gradient-9);}.cls-12{fill:url(#linear-gradient-10);}.cls-13{fill:url(#linear-gradient-11);}.cls-14{fill:url(#linear-gradient-12);}.cls-15{fill:url(#linear-gradient-13);}.cls-16{fill:url(#linear-gradient-14);}.cls-17{fill:url(#linear-gradient-15);}.cls-18{fill:url(#linear-gradient-16);}.cls-19{fill:url(#linear-gradient-17);}.cls-20,.cls-21,.cls-42,.cls-43,.cls-44,.cls-45,.cls-46,.cls-47,.cls-48,.cls-49,.cls-50,.cls-51,.cls-52,.cls-53,.cls-54,.cls-55,.cls-56,.cls-59,.cls-60,.cls-61,.cls-62,.cls-68,.cls-69,.cls-70,.cls-71,.cls-72,.cls-73,.cls-75,.cls-76,.cls-77,.cls-78,.cls-79,.cls-80{mix-blend-mode:screen;}.cls-20{fill:url(#New_Gradient_Swatch_1);}.cls-21{fill:#8cf4f9;}.cls-22,.cls-57,.cls-63,.cls-64,.cls-65,.cls-66,.cls-67,.cls-74,.cls-81{mix-blend-mode:multiply;}.cls-22{fill:url(#radial-gradient-2);}.cls-23,.cls-82,.cls-83{fill:#fff;}.cls-24{fill:url(#radial-gradient-3);}.cls-25{fill:url(#radial-gradient-4);}.cls-26{fill:url(#radial-gradient-5);}.cls-27{fill:url(#radial-gradient-6);}.cls-28{fill:url(#radial-gradient-7);}.cls-29{fill:url(#radial-gradient-8);}.cls-30{fill:url(#radial-gradient-9);}.cls-31{fill:url(#radial-gradient-10);}.cls-32{fill:url(#radial-gradient-11);}.cls-33{fill:url(#radial-gradient-12);}.cls-34{fill:url(#radial-gradient-13);}.cls-35{fill:url(#radial-gradient-14);}.cls-36{fill:url(#radial-gradient-15);}.cls-37{fill:url(#radial-gradient-16);}.cls-38{fill:url(#radial-gradient-17);}.cls-39{fill:url(#radial-gradient-18);}.cls-40{fill:url(#radial-gradient-19);}.cls-41{fill:url(#radial-gradient-20);}.cls-42{fill:url(#New_Gradient_Swatch_1-2);}.cls-43{fill:url(#radial-gradient-21);}.cls-44{fill:url(#radial-gradient-22);}.cls-45{fill:url(#radial-gradient-23);}.cls-46{fill:url(#New_Gradient_Swatch_1-3);}.cls-47{fill:url(#New_Gradient_Swatch_1-4);}.cls-48{fill:url(#New_Gradient_Swatch_1-5);}.cls-49{fill:url(#New_Gradient_Swatch_1-6);}.cls-50{fill:url(#New_Gradient_Swatch_1-7);}.cls-51{fill:url(#New_Gradient_Swatch_1-8);}.cls-52{fill:url(#New_Gradient_Swatch_1-9);}.cls-53{fill:url(#New_Gradient_Swatch_1-10);}.cls-54,.cls-57{opacity:0.5;}.cls-54{fill:url(#New_Gradient_Swatch_2);}.cls-55{fill:url(#New_Gradient_Swatch_2-2);}.cls-56{fill:url(#New_Gradient_Swatch_1-11);}.cls-57{fill:url(#radial-gradient-24);}.cls-58{fill:url(#radial-gradient-25);}.cls-59{fill:url(#radial-gradient-26);}.cls-60{fill:url(#radial-gradient-27);}.cls-61{fill:url(#radial-gradient-28);}.cls-62{fill:url(#radial-gradient-29);}.cls-63{fill:url(#radial-gradient-30);}.cls-64{fill:url(#radial-gradient-31);}.cls-65{fill:url(#radial-gradient-32);}.cls-66{fill:url(#radial-gradient-33);}.cls-67{fill:url(#radial-gradient-34);}.cls-68{fill:url(#radial-gradient-35);}.cls-69{fill:url(#radial-gradient-36);}.cls-70{fill:url(#radial-gradient-37);}.cls-71{fill:url(#radial-gradient-38);}.cls-72{fill:url(#radial-gradient-39);}.cls-73{fill:url(#radial-gradient-40);}.cls-74{fill:#59a2ff;opacity:0.15;}.cls-75{fill:url(#radial-gradient-41);}.cls-76{fill:url(#radial-gradient-42);}.cls-77{fill:url(#radial-gradient-43);}.cls-78{fill:url(#radial-gradient-44);}.cls-79{fill:url(#radial-gradient-45);}.cls-80{fill:url(#radial-gradient-46);}.cls-81{fill:#3660ce;}.cls-83{font-size:31.32px;font-family:BebasNeue-Regular, Bebas Neue;letter-spacing:0.03em;}</style><radialGradient id="radial-gradient" cx="63.87" cy="-1.94" r="170" gradientUnits="userSpaceOnUse"><stop offset="0" stop-color="#24baff"/><stop offset="1" stop-color="#3378ff"/></radialGradient><linearGradient id="linear-gradient" x1="143.27" y1="49.84" x2="143.27" y2="3.97" gradientUnits="userSpaceOnUse"><stop offset="0" stop-color="#003075"/><stop offset="1" stop-color="#0e1645"/></linearGradient><linearGradient id="linear-gradient-2" x1="61.43" y1="2.67" x2="66.78" y2="2.67" gradientUnits="userSpaceOnUse"><stop offset="0" stop-color="#2e74ff"/><stop offset="1" stop-color="#78d4ff"/></linearGradient><linearGradient id="linear-gradient-3" x1="64.08" y1="4.55" x2="67.88" y2="4.55" gradientUnits="userSpaceOnUse"><stop offset="0" stop-color="#0a8aff"/><stop offset="1" stop-color="#05f"/></linearGradient><linearGradient id="linear-gradient-4" x1="219.77" y1="2.67" x2="225.12" y2="2.67" xlink:href="#linear-gradient-3"/><linearGradient id="linear-gradient-5" x1="218.67" y1="4.55" x2="222.47" y2="4.55" xlink:href="#linear-gradient-2"/><linearGradient id="linear-gradient-6" x1="61.43" y1="51.13" x2="66.78" y2="51.13" xlink:href="#radial-gradient"/><linearGradient id="linear-gradient-7" x1="64.08" y1="49.26" x2="67.88" y2="49.26" xlink:href="#radial-gradient"/><linearGradient id="linear-gradient-8" x1="219.77" y1="51.13" x2="225.12" y2="51.13" xlink:href="#linear-gradient-3"/><linearGradient id="linear-gradient-9" x1="218.67" y1="49.26" x2="222.47" y2="49.26" xlink:href="#linear-gradient-2"/><linearGradient id="linear-gradient-10" x1="143.27" y1="1.32" x2="143.27" gradientUnits="userSpaceOnUse"><stop offset="0" stop-color="#78d4ff"/><stop offset="1" stop-color="#2e74ff"/></linearGradient><linearGradient id="linear-gradient-11" x1="143.27" y1="3.97" x2="143.27" y2="2.65" gradientUnits="userSpaceOnUse"><stop offset="0" stop-color="#0049c1"/><stop offset="1" stop-color="#0061ff"/></linearGradient><linearGradient id="linear-gradient-12" x1="61.43" y1="26.9" x2="62.75" y2="26.9" xlink:href="#linear-gradient-2"/><linearGradient id="linear-gradient-13" x1="64.08" y1="26.9" x2="65.4" y2="26.9" gradientUnits="userSpaceOnUse"><stop offset="0" stop-color="#0061ff"/><stop offset="1" stop-color="#0049c1"/></linearGradient><linearGradient id="linear-gradient-14" x1="221.15" y1="26.9" x2="222.47" y2="26.9" xlink:href="#linear-gradient-2"/><linearGradient id="linear-gradient-15" x1="223.8" y1="26.9" x2="225.12" y2="26.9" xlink:href="#linear-gradient-13"/><linearGradient id="linear-gradient-16" x1="143.27" y1="51.16" x2="143.27" y2="49.84" gradientUnits="userSpaceOnUse"><stop offset="0" stop-color="#78d4ff"/><stop offset="1" stop-color="#45a8ff"/></linearGradient><linearGradient id="linear-gradient-17" x1="143.27" y1="53.81" x2="143.27" y2="52.49" xlink:href="#linear-gradient-11"/><radialGradient id="New_Gradient_Swatch_1" cx="143.27" cy="53.15" r="93.49" gradientUnits="userSpaceOnUse"><stop offset="0" stop-color="#1476ff"/><stop offset="1"/></radialGradient><radialGradient id="radial-gradient-2" cx="130.48" cy="-76.34" r="127.58" gradientUnits="userSpaceOnUse"><stop offset="0" stop-color="#fff"/><stop offset="1" stop-color="#0094d8"/></radialGradient><radialGradient id="radial-gradient-3" cx="1.86" cy="0.7" r="68.83" xlink:href="#radial-gradient"/><radialGradient id="radial-gradient-4" cx="21.24" cy="21.72" r="35.24" gradientUnits="userSpaceOnUse"><stop offset="0" stop-color="#0061ba"/><stop offset="1" stop-color="#00266b"/></radialGradient><radialGradient id="radial-gradient-5" cx="4.54" cy="0.11" r="18.48" gradientUnits="userSpaceOnUse"><stop offset="0" stop-color="#93f7ff"/><stop offset="1" stop-color="#2e74ff"/></radialGradient><radialGradient id="radial-gradient-6" cx="7.29" cy="7.66" r="5.17" gradientUnits="userSpaceOnUse"><stop offset="0" stop-color="#0269f4"/><stop offset="1" stop-color="#0049c1"/></radialGradient><radialGradient id="radial-gradient-7" cx="57.65" cy="-3.12" r="17.89" xlink:href="#linear-gradient-10"/><radialGradient id="radial-gradient-8" cx="55.74" cy="4.68" r="14.18" xlink:href="#radial-gradient-6"/><radialGradient id="radial-gradient-9" cx="0.59" cy="48.19" r="17.21" xlink:href="#radial-gradient-6"/><radialGradient id="radial-gradient-10" cx="8.3" cy="46.58" r="9.04" xlink:href="#radial-gradient-6"/><radialGradient id="radial-gradient-11" cx="58.74" cy="58.88" r="13.6" xlink:href="#radial-gradient-6"/><radialGradient id="radial-gradient-12" cx="49.91" cy="47.84" r="11.77" xlink:href="#radial-gradient-5"/><radialGradient id="radial-gradient-13" cx="12.36" cy="-3.79" r="45.6" xlink:href="#linear-gradient-10"/><radialGradient id="radial-gradient-14" cx="38.54" cy="-2.08" r="52.08" gradientUnits="userSpaceOnUse"><stop offset="0" stop-color="#3684f4"/><stop offset="1" stop-color="#0049c1"/></radialGradient><radialGradient id="radial-gradient-15" cx="-1.88" cy="15.92" r="63.14" xlink:href="#linear-gradient-10"/><radialGradient id="radial-gradient-16" cx="50.81" cy="31.13" r="56.44" gradientUnits="userSpaceOnUse"><stop offset="0" stop-color="#4fcaff"/><stop offset="1" stop-color="#175fff"/></radialGradient><radialGradient id="radial-gradient-17" cx="50.61" cy="10.34" r="56.88" xlink:href="#linear-gradient-10"/><radialGradient id="radial-gradient-18" cx="84.37" cy="23.69" r="44.95" gradientUnits="userSpaceOnUse"><stop offset="0" stop-color="#4fcaff"/><stop offset="1" stop-color="#004cef"/></radialGradient><radialGradient id="radial-gradient-19" cx="36.34" cy="48.11" r="53.54" xlink:href="#linear-gradient-10"/><radialGradient id="radial-gradient-20" cx="35.61" cy="62.65" r="31.75" xlink:href="#radial-gradient-6"/><radialGradient id="New_Gradient_Swatch_1-2" cx="27.59" cy="26.94" r="73.23" xlink:href="#New_Gradient_Swatch_1"/><radialGradient id="radial-gradient-21" cx="32.92" cy="29.14" r="53.67" gradientUnits="userSpaceOnUse"><stop offset="0" stop-color="#4f95ff"/><stop offset="1"/></radialGradient><radialGradient id="radial-gradient-22" cx="33.17" cy="40.05" r="46.58" xlink:href="#radial-gradient-21"/><radialGradient id="radial-gradient-23" cx="52.36" cy="52.05" r="40.33" xlink:href="#radial-gradient-21"/><radialGradient id="New_Gradient_Swatch_1-3" cx="28.27" cy="43.64" r="37.04" xlink:href="#New_Gradient_Swatch_1"/><radialGradient id="New_Gradient_Swatch_1-4" cx="30.42" cy="28.8" r="53.3" xlink:href="#New_Gradient_Swatch_1"/><radialGradient id="New_Gradient_Swatch_1-5" cx="25.99" cy="28.93" r="34.92" xlink:href="#New_Gradient_Swatch_1"/><radialGradient id="New_Gradient_Swatch_1-6" cx="43.1" cy="32.27" r="36.86" xlink:href="#New_Gradient_Swatch_1"/><radialGradient id="New_Gradient_Swatch_1-7" cx="40.78" cy="40.09" r="35.96" xlink:href="#New_Gradient_Swatch_1"/><radialGradient id="New_Gradient_Swatch_1-8" cx="16.73" cy="2.94" r="40.34" xlink:href="#New_Gradient_Swatch_1"/><radialGradient id="New_Gradient_Swatch_1-9" cx="37.48" cy="43.13" r="39.32" xlink:href="#New_Gradient_Swatch_1"/><radialGradient id="New_Gradient_Swatch_1-10" cx="36.34" cy="19.09" r="39.62" xlink:href="#New_Gradient_Swatch_1"/><radialGradient id="New_Gradient_Swatch_2" cx="22.49" cy="-6.11" r="60.58" gradientUnits="userSpaceOnUse"><stop offset="0" stop-color="#5497ff"/><stop offset="1"/></radialGradient><radialGradient id="New_Gradient_Swatch_2-2" cx="67.21" cy="28.24" r="51.98" xlink:href="#New_Gradient_Swatch_2"/><radialGradient id="New_Gradient_Swatch_1-11" cx="38.29" cy="60.81" r="39.11" xlink:href="#New_Gradient_Swatch_1"/><radialGradient id="radial-gradient-24" cx="14.91" cy="14.16" r="34.68" xlink:href="#radial-gradient-2"/><radialGradient id="radial-gradient-25" cx="184.96" cy="12.29" r="36.33" gradientUnits="userSpaceOnUse"><stop offset="0" stop-color="#86d8ff"/><stop offset="1" stop-color="#4789ce"/></radialGradient><radialGradient id="radial-gradient-26" cx="152.44" cy="15.51" r="51.2" gradientUnits="userSpaceOnUse"><stop offset="0" stop-color="#89e0ff"/><stop offset="1"/></radialGradient><radialGradient id="radial-gradient-27" cx="185.07" cy="10.68" r="15.42" xlink:href="#radial-gradient-26"/><radialGradient id="radial-gradient-28" cx="184.34" cy="10.87" r="34.12" xlink:href="#radial-gradient-26"/><radialGradient id="radial-gradient-29" cx="211.7" cy="14.45" r="12.74" xlink:href="#radial-gradient-26"/><radialGradient id="radial-gradient-30" cx="225.26" cy="48.41" r="55.54" gradientUnits="userSpaceOnUse"><stop offset="0" stop-color="#45a3f7"/><stop offset="1" stop-color="#efe0ff"/></radialGradient><radialGradient id="radial-gradient-31" cx="215.34" cy="44.13" r="19.13" xlink:href="#radial-gradient-30"/><radialGradient id="radial-gradient-32" cx="212.78" cy="53.49" r="54.42" xlink:href="#radial-gradient-30"/><radialGradient id="radial-gradient-33" cx="180.98" cy="49.95" r="13.65" xlink:href="#radial-gradient-30"/><radialGradient id="radial-gradient-34" cx="219.19" cy="54.2" r="58.38" xlink:href="#radial-gradient-30"/><radialGradient id="radial-gradient-35" cx="188.37" cy="4.82" r="29.13" xlink:href="#radial-gradient-26"/><radialGradient id="radial-gradient-36" cx="199.77" cy="15.59" r="39.29" xlink:href="#radial-gradient-26"/><radialGradient id="radial-gradient-37" cx="187.93" cy="51.92" r="40.93" xlink:href="#radial-gradient-26"/><radialGradient id="radial-gradient-38" cx="222.15" cy="28.44" r="50.42" xlink:href="#radial-gradient-26"/><radialGradient id="radial-gradient-39" cx="242.93" cy="28.42" r="46.05" xlink:href="#radial-gradient-26"/><radialGradient id="radial-gradient-40" cx="209.66" cy="54.26" r="35.17" xlink:href="#radial-gradient-26"/><radialGradient id="radial-gradient-41" cx="206.33" cy="25.83" r="18.93" xlink:href="#radial-gradient-26"/><radialGradient id="radial-gradient-42" cx="211.89" cy="29.17" r="27.2" xlink:href="#radial-gradient-26"/><radialGradient id="radial-gradient-43" cx="203.96" cy="36.58" r="17.69" xlink:href="#radial-gradient-26"/><radialGradient id="radial-gradient-44" cx="203.78" cy="39.89" r="16.5" xlink:href="#radial-gradient-26"/><radialGradient id="radial-gradient-45" cx="214.55" cy="6.09" r="52.88" xlink:href="#radial-gradient-26"/><radialGradient id="radial-gradient-46" cx="230.39" cy="14.65" r="53.48" xlink:href="#radial-gradient-26"/></defs><g class="cls-1"><g id="Layer_1" data-name="Layer 1"><path class="cls-2" d="M66.78,1.32l-4,4V48.46l4,4h153l4-4V5.35l-4-4Zm.55,1.33L64.08,5.9v42l3.25,3.25H219.22l3.25-3.25V5.9l-3.25-3.25Z"/><polygon class="cls-3" points="67.88 3.97 65.4 6.45 65.4 47.36 67.88 49.84 218.68 49.84 221.15 47.36 221.15 6.45 218.68 3.97 67.88 3.97 67.88 3.97"/><polygon class="cls-4" points="62.75 5.35 66.78 1.32 66.23 0 61.43 4.8 62.75 5.35 62.75 5.35"/><polygon class="cls-5" points="67.33 2.65 64.08 5.9 65.4 6.45 67.88 3.97 67.33 2.65 67.33 2.65"/><polygon class="cls-6" points="223.8 5.35 219.77 1.32 220.32 0 225.12 4.8 223.8 5.35 223.8 5.35"/><polygon class="cls-7" points="219.22 2.65 222.47 5.9 221.15 6.45 218.68 3.97 219.22 2.65 219.22 2.65"/><polygon class="cls-8" points="62.75 48.46 66.78 52.48 66.23 53.81 61.43 49.01 62.75 48.46 62.75 48.46"/><polygon class="cls-9" points="67.33 51.16 64.08 47.91 65.4 47.36 67.88 49.84 67.33 51.16 67.33 51.16"/><polygon class="cls-10" points="223.8 48.46 219.77 52.48 220.32 53.81 225.12 49.01 223.8 48.46 223.8 48.46"/><polygon class="cls-11" points="219.22 51.16 222.47 47.91 221.15 47.36 218.68 49.84 219.22 51.16 219.22 51.16"/><polygon class="cls-12" points="66.78 1.32 219.77 1.32 220.32 0 66.23 0 66.78 1.32 66.78 1.32"/><polygon class="cls-13" points="219.22 2.65 67.33 2.65 67.88 3.97 218.68 3.97 219.22 2.65 219.22 2.65"/><polygon class="cls-14" points="62.75 48.46 62.75 5.35 61.43 4.8 61.43 49.01 62.75 48.46 62.75 48.46"/><polygon class="cls-15" points="64.08 5.9 64.08 47.91 65.4 47.36 65.4 6.45 64.08 5.9 64.08 5.9"/><polygon class="cls-16" points="221.15 6.45 221.15 47.36 222.47 47.91 222.47 5.9 221.15 6.45 221.15 6.45"/><polygon class="cls-17" points="223.8 5.35 223.8 48.46 225.12 49.01 225.12 4.8 223.8 5.35 223.8 5.35"/><polygon class="cls-18" points="218.68 49.84 67.88 49.84 67.33 51.16 219.22 51.16 218.68 49.84 218.68 49.84"/><polygon class="cls-19" points="219.77 52.48 66.78 52.48 66.23 53.81 220.32 53.81 219.77 52.48 219.77 52.48"/><path class="cls-20" d="M219.77,52.49c-4.89,1.32-148,1.32-153,0l-.55,1.32H220.32l-.55-1.32Z"/><path class="cls-21" d="M223.8,10l.41,38.38L225,49l-.95-.2a27.75,27.75,0,0,0-4,4l.24,1-.55-.85L73.28,52.49H219.77l4-4V10Z"/><path class="cls-22" d="M66.78,1.32h153L220.32,0C219.77,1.32,66.78,1.32,66.23,0l.55,1.32Z"/><path class="cls-23" d="M62.75,43.79,62.34,5.42l-.8-.57,1,.2a27.32,27.32,0,0,0,4-4l-.24-1,.55.86,146.44.35H66.78l-4,4V43.79Z"/><path class="cls-24" d="M5.34,1.35l-4,4V48.44l4,4H48.41l4-4V5.37l-4-4Zm.55,1.32L2.64,5.92v42l3.25,3.25h42l3.25-3.25v-42L47.86,2.67Z"/><polygon class="cls-25" points="6.44 3.99 3.96 6.47 3.96 47.34 6.44 49.81 47.31 49.81 49.78 47.34 49.78 6.47 47.31 3.99 6.44 3.99 6.44 3.99"/><polygon class="cls-26" points="1.32 5.37 5.34 1.35 4.8 0.03 0 4.83 1.32 5.37 1.32 5.37"/><polygon class="cls-27" points="5.89 2.67 2.64 5.92 3.96 6.47 6.44 3.99 5.89 2.67 5.89 2.67"/><polygon class="cls-28" points="52.43 5.37 48.41 1.35 48.95 0.03 53.75 4.83 52.43 5.37 52.43 5.37"/><polygon class="cls-29" points="47.86 2.67 51.11 5.92 49.78 6.47 47.31 3.99 47.86 2.67 47.86 2.67"/><polygon class="cls-30" points="1.32 48.44 5.34 52.46 4.8 53.78 0 48.98 1.32 48.44 1.32 48.44"/><polygon class="cls-31" points="5.89 51.13 2.64 47.89 3.96 47.34 6.44 49.81 5.89 51.13 5.89 51.13"/><polygon class="cls-32" points="52.43 48.44 48.41 52.46 48.95 53.78 53.75 48.98 52.43 48.44 52.43 48.44"/><polygon class="cls-33" points="47.86 51.13 51.11 47.89 49.78 47.34 47.31 49.81 47.86 51.13 47.86 51.13"/><polygon class="cls-34" points="5.34 1.35 48.41 1.35 48.95 0.03 4.8 0.03 5.34 1.35 5.34 1.35"/><polygon class="cls-35" points="47.86 2.67 5.89 2.67 6.44 3.99 47.31 3.99 47.86 2.67 47.86 2.67"/><polygon class="cls-36" points="1.32 48.44 1.32 5.37 0 4.83 0 48.98 1.32 48.44 1.32 48.44"/><polygon class="cls-37" points="2.64 5.92 2.64 47.89 3.96 47.34 3.96 6.47 2.64 5.92 2.64 5.92"/><polygon class="cls-38" points="49.78 6.47 49.78 47.34 51.11 47.89 51.11 5.92 49.78 6.47 49.78 6.47"/><polygon class="cls-39" points="52.43 5.37 52.43 48.44 53.75 48.98 53.75 4.83 52.43 5.37 52.43 5.37"/><polygon class="cls-40" points="47.31 49.81 6.44 49.81 5.89 51.13 47.86 51.13 47.31 49.81 47.31 49.81"/><polygon class="cls-41" points="48.41 52.46 5.34 52.46 4.8 53.78 48.95 53.78 48.41 52.46 48.41 52.46"/><polygon class="cls-42" points="3.96 6.47 26.88 26.9 6.44 3.99 3.96 6.47 3.96 6.47"/><polygon class="cls-43" points="49.78 6.47 26.88 26.9 47.31 3.99 49.78 6.47 49.78 6.47"/><polygon class="cls-44" points="3.96 47.34 26.88 26.9 6.44 49.81 3.96 47.34 3.96 47.34"/><polygon class="cls-45" points="49.78 47.34 26.88 26.9 47.31 49.81 49.78 47.34 49.78 47.34"/><polygon class="cls-46" points="3.96 47.34 26.88 26.9 3.96 6.47 3.96 47.34 3.96 47.34"/><polygon class="cls-47" points="6.44 3.99 26.88 26.9 47.31 3.99 6.44 3.99 6.44 3.99"/><polygon class="cls-48" points="49.78 6.47 26.88 26.9 49.78 47.34 49.78 6.47 49.78 6.47"/><polygon class="cls-49" points="47.31 49.81 26.88 26.9 6.44 49.81 47.31 49.81 47.31 49.81"/><polygon class="cls-50" points="12.08 13.71 12.08 40.1 26.88 26.9 12.08 13.71 12.08 13.71"/><polygon class="cls-51" points="13.68 12.11 26.88 26.9 40.07 12.11 13.68 12.11 13.68 12.11"/><polygon class="cls-52" points="41.67 13.71 26.88 26.9 41.67 40.1 41.67 13.71 41.67 13.71"/><polygon class="cls-53" points="40.07 41.7 26.88 26.9 13.68 41.7 40.07 41.7 40.07 41.7"/><polygon class="cls-54" points="3.96 45.1 45.07 3.99 19.49 3.99 3.96 19.52 3.96 45.1 3.96 45.1"/><polygon class="cls-55" points="49.78 20.64 20.61 49.81 31.36 49.81 49.78 31.39 49.78 20.64 49.78 20.64"/><path class="cls-56" d="M48.41,52.46c-4.89,1.32-38.08,1.32-43.07,0L4.8,53.78H49l-.54-1.32Z"/><path class="cls-21" d="M52.43,10l.41,38.34.8.57-1-.2a26.7,26.7,0,0,0-4,3.95l.24,1-.55-.86-36.52-.35H48.41l4-4V10Z"/><path class="cls-57" d="M5.34,1.35H48.41L49,0C48.41,1.35,5.34,1.35,4.8,0l.54,1.32Z"/><path class="cls-23" d="M1.32,43.78.84,5.46.11,4.87,1,5a26.67,26.67,0,0,0,4-4L4.84.14l.58.79,36.49.42H5.34l-4,4V43.78Z"/><path class="cls-58" d="M180.33,6.68l-2.44,2.44c-.21,3.59-.34,10.21-.34,17.78s.13,14.2.34,17.79l2.44,2.43c3.59.21,10.21.35,17.78.35s14.19-.14,17.78-.35l2.44-2.43c.21-3.59.34-10.21.34-17.79s-.13-14.19-.34-17.78l-2.44-2.44c-3.59-.2-10.21-.34-17.78-.34s-14.19.14-17.78.34Z"/><path class="cls-59" d="M182.42,26.9c0-4.7,0-9.5.18-14.24l-4.71-3.54c-.21,3.59-.34,10.21-.34,17.78s.13,14.2.34,17.79l4.71-3.55c-.18-4.73-.18-9.53-.18-14.24Z"/><polygon class="cls-60" points="177.89 9.12 182.6 12.66 183.87 11.4 180.33 6.68 177.89 9.12 177.89 9.12"/><path class="cls-61" d="M180.33,6.68l3.54,4.72c4.74-.18,9.54-.18,14.24-.18s9.5,0,14.24.18l3.54-4.72c-3.59-.2-10.21-.34-17.78-.34s-14.19.14-17.78.34Z"/><polygon class="cls-62" points="215.89 6.68 212.35 11.4 213.62 12.66 218.33 9.12 215.89 6.68 215.89 6.68"/><path class="cls-63" d="M218.33,9.12l-4.71,3.54c.18,4.74.18,9.54.18,14.24s0,9.51-.18,14.24l4.71,3.55c.21-3.59.34-10.21.34-17.79s-.13-14.19-.34-17.78Z"/><polygon class="cls-64" points="218.33 44.69 213.62 41.14 212.35 42.41 215.89 47.12 218.33 44.69 218.33 44.69"/><path class="cls-65" d="M215.89,47.12l-3.54-4.71c-4.74.18-9.54.18-14.24.18s-9.5,0-14.24-.18l-3.54,4.71c3.59.21,10.21.35,17.78.35s14.19-.14,17.78-.35Z"/><polygon class="cls-66" points="180.33 47.12 183.87 42.41 182.6 41.14 177.89 44.69 180.33 47.12 180.33 47.12"/><path class="cls-67" d="M212.35,42.41c0,2.2-6.38,4-14.24,4s-14.24-1.79-14.24-4l-3.54,4.71c3.59.21,10.21.35,17.78.35s14.19-.14,17.78-.35l-3.54-4.71Z"/><path class="cls-68" d="M215.89,6.68c-3.59-.2-10.21-.34-17.78-.34s-14.19.14-17.78.34c.42.3,8.22.51,17.78.51s17.36-.21,17.77-.48Z"/><path class="cls-69" d="M198.11,10.8c-11.57,0-16-1.76-17.78-4.12l3.54,4.72c4.74-.18,9.54-.18,14.24-.18s9.5,0,14.24.18l3.54-4.72c-1.77,2.36-6.21,4.12-17.78,4.12Z"/><path class="cls-70" d="M182.6,41.14,198.11,26.9,182.6,12.66c-.18,4.74-.18,9.54-.18,14.24s0,9.51.18,14.24Z"/><path class="cls-71" d="M183.87,11.4l14.24,15.5,14.24-15.5c-4.74-.18-9.54-.18-14.24-.18s-9.5,0-14.24.18Z"/><path class="cls-72" d="M213.62,12.66,198.11,26.9l15.51,14.24c.18-4.73.18-9.53.18-14.24s0-9.5-.18-14.24Z"/><path class="cls-73" d="M212.35,42.41,198.11,26.9,183.87,42.41c4.74.18,9.54.18,14.24.18s9.5,0,14.24-.18Z"/><polygon class="cls-74" points="182.6 12.66 198.11 26.9 183.87 11.4 182.6 12.66 182.6 12.66"/><polygon class="cls-74" points="212.35 11.4 198.11 26.9 213.62 12.66 212.35 11.4 212.35 11.4"/><polygon class="cls-74" points="213.62 41.14 198.11 26.9 212.35 42.41 213.62 41.14 213.62 41.14"/><polygon class="cls-74" points="183.87 42.41 198.11 26.9 182.6 41.14 183.87 42.41 183.87 42.41"/><path class="cls-23" d="M182.6,12.66l1.27-1.26c4.74-.18,9.54-.18,14.24-.18h6.5c-6.69-.28-13.51-.4-20.21-.18l-.6-.28c-1-1.14-2-2.27-3-3.41.23.48,3,3.69,2.19,4.5s-4.1-2.06-4.79-2.43l3.74,3.3.26.61a210.25,210.25,0,0,0-.06,27.38l-.27.6-3.64,3.08c1.9-1.21,4.3-3.06,4.86-2.5s0,1.33-1.2,3.1l2-2.06.62-.26,6.46-.11q-3.59,0-7.16-.16l-1.27-1.27c-.18-4.73-.18-9.53-.18-14.24s0-9.5.18-14.24Z"/><path class="cls-75" d="M189.76,19.24c0,2.55,0,5.11,0,7.66s0,5.11,0,7.67l8.35-7.67-8.35-7.66Z"/><path class="cls-76" d="M190.45,18.56l7.66,8.34,7.66-8.34c-2.55,0-5.11,0-7.66,0s-5.11,0-7.66,0Z"/><path class="cls-77" d="M206.46,19.24l-8.35,7.66,8.35,7.67c0-2.56,0-5.11,0-7.67s0-5.11,0-7.66Z"/><path class="cls-78" d="M205.77,35.25l-7.66-8.35-7.66,8.35c2.55,0,5.11,0,7.66,0s5.11,0,7.66,0Z"/><path class="cls-79" d="M182.51,38.08,209.29,11.3c-3.74-.08-7.49-.08-11.18-.08-2.7,0-5.44,0-8.17,0l-7.48,7.48c0,2.74,0,5.47,0,8.17,0,3.69,0,7.45.09,11.18Z"/><path class="cls-80" d="M213.79,23,194.21,42.59h8.15l11.43-11.44c0-1.42,0-2.84,0-4.25s0-2.59,0-3.9Z"/><polygon class="cls-81" points="195.07 15.9 201.15 15.9 201.15 23.31 208.56 23.31 208.56 29.39 201.15 29.39 201.15 36.8 195.07 36.8 195.07 29.39 187.66 29.39 187.66 23.31 195.07 23.31 195.07 15.9 195.07 15.9"/><polygon class="cls-23" points="195.07 16.45 201.15 16.45 201.15 23.86 208.56 23.86 208.56 29.95 201.15 29.95 201.15 37.35 195.07 37.35 195.07 29.95 187.66 29.95 187.66 23.86 195.07 23.86 195.07 16.45 195.07 16.45"/><path class="cls-82" d="M22.6,11.82C30.38,11.82,36,16.91,36,24.9S30.38,38,22.6,38,9.17,32.88,9.17,24.9,14.83,11.82,22.6,11.82Zm0,21.1c4.68,0,7.74-3.38,7.74-8s-3.06-8-7.74-8-7.73,3.37-7.73,8S17.93,32.92,22.6,32.92Z"/><path class="cls-82" d="M36,39.44l4.75-4.27a2.52,2.52,0,0,0,1.09-1.71,1.39,1.39,0,0,0-1.5-1.34,1.56,1.56,0,0,0-1.59,1.56l-2.6-.19c.16-2.52,1.92-3.75,4.33-3.75,2.23,0,4,1.23,4,3.68a4,4,0,0,1-1.61,3.29l-3.72,3.2h5.43v2.28H36Z"/><text class="cls-83" transform="translate(80.14 38.95)">999999</text></g></g></svg>