<svg xmlns="http://www.w3.org/2000/svg" xmlns:xlink="http://www.w3.org/1999/xlink" viewBox="0 0 227.1 54.15"><defs><style>.cls-1{isolation:isolate;}.cls-10,.cls-11,.cls-12,.cls-13,.cls-14,.cls-15,.cls-16,.cls-17,.cls-18,.cls-19,.cls-2,.cls-20,.cls-21,.cls-22,.cls-23,.cls-24,.cls-25,.cls-26,.cls-27,.cls-28,.cls-29,.cls-3,.cls-30,.cls-31,.cls-32,.cls-33,.cls-34,.cls-35,.cls-36,.cls-37,.cls-38,.cls-39,.cls-4,.cls-40,.cls-41,.cls-42,.cls-43,.cls-44,.cls-45,.cls-46,.cls-47,.cls-48,.cls-49,.cls-5,.cls-50,.cls-51,.cls-52,.cls-53,.cls-54,.cls-55,.cls-56,.cls-57,.cls-58,.cls-59,.cls-6,.cls-60,.cls-61,.cls-62,.cls-63,.cls-64,.cls-65,.cls-66,.cls-67,.cls-68,.cls-69,.cls-7,.cls-70,.cls-71,.cls-72,.cls-73,.cls-74,.cls-75,.cls-76,.cls-77,.cls-78,.cls-79,.cls-8,.cls-80,.cls-81,.cls-9{fill-rule:evenodd;}.cls-2{fill:url(#radial-gradient);}.cls-3{fill:url(#linear-gradient);}.cls-4{fill:url(#linear-gradient-2);}.cls-5{fill:url(#linear-gradient-3);}.cls-6{fill:url(#linear-gradient-4);}.cls-7{fill:url(#linear-gradient-5);}.cls-8{fill:url(#linear-gradient-6);}.cls-9{fill:url(#linear-gradient-7);}.cls-10{fill:url(#linear-gradient-8);}.cls-11{fill:url(#linear-gradient-9);}.cls-12{fill:url(#linear-gradient-10);}.cls-13{fill:url(#linear-gradient-11);}.cls-14{fill:url(#linear-gradient-12);}.cls-15{fill:url(#linear-gradient-13);}.cls-16{fill:url(#linear-gradient-14);}.cls-17{fill:url(#linear-gradient-15);}.cls-18{fill:url(#linear-gradient-16);}.cls-19{fill:url(#linear-gradient-17);}.cls-20,.cls-21,.cls-42,.cls-43,.cls-44,.cls-45,.cls-46,.cls-47,.cls-48,.cls-49,.cls-50,.cls-51,.cls-52,.cls-53,.cls-54,.cls-55,.cls-56,.cls-59,.cls-60,.cls-61,.cls-62,.cls-68,.cls-69,.cls-70,.cls-71,.cls-72,.cls-73,.cls-75,.cls-76,.cls-77,.cls-78,.cls-79,.cls-80{mix-blend-mode:screen;}.cls-20{fill:url(#New_Gradient_Swatch_1);}.cls-21{fill:#8cf4f9;}.cls-22,.cls-57,.cls-63,.cls-64,.cls-65,.cls-66,.cls-67,.cls-74,.cls-81{mix-blend-mode:multiply;}.cls-22{fill:url(#radial-gradient-2);}.cls-23,.cls-82,.cls-83{fill:#fff;}.cls-24{fill:url(#radial-gradient-3);}.cls-25{fill:url(#radial-gradient-4);}.cls-26{fill:url(#radial-gradient-5);}.cls-27{fill:url(#radial-gradient-6);}.cls-28{fill:url(#radial-gradient-7);}.cls-29{fill:url(#radial-gradient-8);}.cls-30{fill:url(#radial-gradient-9);}.cls-31{fill:url(#radial-gradient-10);}.cls-32{fill:url(#radial-gradient-11);}.cls-33{fill:url(#radial-gradient-12);}.cls-34{fill:url(#radial-gradient-13);}.cls-35{fill:url(#radial-gradient-14);}.cls-36{fill:url(#radial-gradient-15);}.cls-37{fill:url(#radial-gradient-16);}.cls-38{fill:url(#radial-gradient-17);}.cls-39{fill:url(#radial-gradient-18);}.cls-40{fill:url(#radial-gradient-19);}.cls-41{fill:url(#radial-gradient-20);}.cls-42{fill:url(#New_Gradient_Swatch_1-2);}.cls-43{fill:url(#radial-gradient-21);}.cls-44{fill:url(#radial-gradient-22);}.cls-45{fill:url(#radial-gradient-23);}.cls-46{fill:url(#New_Gradient_Swatch_1-3);}.cls-47{fill:url(#New_Gradient_Swatch_1-4);}.cls-48{fill:url(#New_Gradient_Swatch_1-5);}.cls-49{fill:url(#New_Gradient_Swatch_1-6);}.cls-50{fill:url(#New_Gradient_Swatch_1-7);}.cls-51{fill:url(#New_Gradient_Swatch_1-8);}.cls-52{fill:url(#New_Gradient_Swatch_1-9);}.cls-53{fill:url(#New_Gradient_Swatch_1-10);}.cls-54,.cls-57{opacity:0.5;}.cls-54{fill:url(#New_Gradient_Swatch_2);}.cls-55{fill:url(#New_Gradient_Swatch_2-2);}.cls-56{fill:url(#New_Gradient_Swatch_1-11);}.cls-57{fill:url(#radial-gradient-24);}.cls-58{fill:url(#radial-gradient-25);}.cls-59{fill:url(#radial-gradient-26);}.cls-60{fill:url(#radial-gradient-27);}.cls-61{fill:url(#radial-gradient-28);}.cls-62{fill:url(#radial-gradient-29);}.cls-63{fill:url(#radial-gradient-30);}.cls-64{fill:url(#radial-gradient-31);}.cls-65{fill:url(#radial-gradient-32);}.cls-66{fill:url(#radial-gradient-33);}.cls-67{fill:url(#radial-gradient-34);}.cls-68{fill:url(#radial-gradient-35);}.cls-69{fill:url(#radial-gradient-36);}.cls-70{fill:url(#radial-gradient-37);}.cls-71{fill:url(#radial-gradient-38);}.cls-72{fill:url(#radial-gradient-39);}.cls-73{fill:url(#radial-gradient-40);}.cls-74{fill:#66be36;opacity:0.15;}.cls-75{fill:url(#radial-gradient-41);}.cls-76{fill:url(#radial-gradient-42);}.cls-77{fill:url(#radial-gradient-43);}.cls-78{fill:url(#radial-gradient-44);}.cls-79{fill:url(#radial-gradient-45);}.cls-80{fill:url(#radial-gradient-46);}.cls-81{fill:#437c00;}.cls-83{font-size:31.32px;font-family:BebasNeue-Regular, Bebas Neue;letter-spacing:0.03em;}</style><radialGradient id="radial-gradient" cx="64.27" cy="-1.94" r="171.61" gradientUnits="userSpaceOnUse"><stop offset="0" stop-color="#24baff"/><stop offset="1" stop-color="#3378ff"/></radialGradient><linearGradient id="linear-gradient" x1="144.45" y1="50.16" x2="144.45" y2="4" gradientUnits="userSpaceOnUse"><stop offset="0" stop-color="#003075"/><stop offset="1" stop-color="#0e1645"/></linearGradient><linearGradient id="linear-gradient-2" x1="61.81" y1="2.7" x2="67.19" y2="2.7" gradientUnits="userSpaceOnUse"><stop offset="0" stop-color="#2e74ff"/><stop offset="1" stop-color="#78d4ff"/></linearGradient><linearGradient id="linear-gradient-3" x1="64.47" y1="4.58" x2="68.3" y2="4.58" gradientUnits="userSpaceOnUse"><stop offset="0" stop-color="#0a8aff"/><stop offset="1" stop-color="#05f"/></linearGradient><linearGradient id="linear-gradient-4" x1="221.71" y1="2.7" x2="227.1" y2="2.7" xlink:href="#linear-gradient-3"/><linearGradient id="linear-gradient-5" x1="220.61" y1="4.58" x2="224.43" y2="4.58" xlink:href="#linear-gradient-2"/><linearGradient id="linear-gradient-6" x1="61.81" y1="51.46" x2="67.19" y2="51.46" xlink:href="#radial-gradient"/><linearGradient id="linear-gradient-7" x1="64.47" y1="49.58" x2="68.3" y2="49.58" xlink:href="#radial-gradient"/><linearGradient id="linear-gradient-8" x1="221.71" y1="51.46" x2="227.1" y2="51.46" xlink:href="#linear-gradient-3"/><linearGradient id="linear-gradient-9" x1="220.61" y1="49.58" x2="224.43" y2="49.58" xlink:href="#linear-gradient-2"/><linearGradient id="linear-gradient-10" x1="144.45" y1="1.34" x2="144.45" y2="0.01" gradientUnits="userSpaceOnUse"><stop offset="0" stop-color="#78d4ff"/><stop offset="1" stop-color="#2e74ff"/></linearGradient><linearGradient id="linear-gradient-11" x1="144.45" y1="4" x2="144.45" y2="2.67" gradientUnits="userSpaceOnUse"><stop offset="0" stop-color="#0049c1"/><stop offset="1" stop-color="#0061ff"/></linearGradient><linearGradient id="linear-gradient-12" x1="61.81" y1="27.08" x2="63.14" y2="27.08" xlink:href="#linear-gradient-2"/><linearGradient id="linear-gradient-13" x1="64.47" y1="27.08" x2="65.8" y2="27.08" gradientUnits="userSpaceOnUse"><stop offset="0" stop-color="#0061ff"/><stop offset="1" stop-color="#0049c1"/></linearGradient><linearGradient id="linear-gradient-14" x1="223.1" y1="27.08" x2="224.43" y2="27.08" xlink:href="#linear-gradient-2"/><linearGradient id="linear-gradient-15" x1="225.77" y1="27.08" x2="227.1" y2="27.08" xlink:href="#linear-gradient-13"/><linearGradient id="linear-gradient-16" x1="144.45" y1="51.49" x2="144.45" y2="50.16" gradientUnits="userSpaceOnUse"><stop offset="0" stop-color="#78d4ff"/><stop offset="1" stop-color="#45a8ff"/></linearGradient><linearGradient id="linear-gradient-17" x1="144.45" y1="54.15" x2="144.45" y2="52.82" xlink:href="#linear-gradient-11"/><radialGradient id="New_Gradient_Swatch_1" cx="144.45" cy="53.49" r="94.42" gradientUnits="userSpaceOnUse"><stop offset="0" stop-color="#1476ff"/><stop offset="1"/></radialGradient><radialGradient id="radial-gradient-2" cx="131.53" cy="-76.8" r="128.65" gradientUnits="userSpaceOnUse"><stop offset="0" stop-color="#fff"/><stop offset="1" stop-color="#0094d8"/></radialGradient><radialGradient id="radial-gradient-3" cx="1.87" cy="0.72" r="69.25" xlink:href="#radial-gradient"/><radialGradient id="radial-gradient-4" cx="21.37" cy="21.86" r="35.46" gradientUnits="userSpaceOnUse"><stop offset="0" stop-color="#0061ba"/><stop offset="1" stop-color="#00266b"/></radialGradient><radialGradient id="radial-gradient-5" cx="4.57" cy="0.12" r="18.59" gradientUnits="userSpaceOnUse"><stop offset="0" stop-color="#93f7ff"/><stop offset="1" stop-color="#2e74ff"/></radialGradient><radialGradient id="radial-gradient-6" cx="7.34" cy="7.72" r="5.2" gradientUnits="userSpaceOnUse"><stop offset="0" stop-color="#0269f4"/><stop offset="1" stop-color="#0049c1"/></radialGradient><radialGradient id="radial-gradient-7" cx="58.01" cy="-3.13" r="18" xlink:href="#linear-gradient-10"/><radialGradient id="radial-gradient-8" cx="56.08" cy="4.72" r="14.26" xlink:href="#radial-gradient-6"/><radialGradient id="radial-gradient-9" cx="0.59" cy="48.5" r="17.32" xlink:href="#radial-gradient-6"/><radialGradient id="radial-gradient-10" cx="8.35" cy="46.88" r="9.1" xlink:href="#radial-gradient-6"/><radialGradient id="radial-gradient-11" cx="59.11" cy="59.26" r="13.68" xlink:href="#radial-gradient-6"/><radialGradient id="radial-gradient-12" cx="50.22" cy="48.14" r="11.84" xlink:href="#radial-gradient-5"/><radialGradient id="radial-gradient-13" cx="12.44" cy="-3.81" r="45.88" xlink:href="#linear-gradient-10"/><radialGradient id="radial-gradient-14" cx="38.78" cy="-2.08" r="52.4" gradientUnits="userSpaceOnUse"><stop offset="0" stop-color="#3684f4"/><stop offset="1" stop-color="#0049c1"/></radialGradient><radialGradient id="radial-gradient-15" cx="-1.89" cy="16.02" r="63.53" xlink:href="#linear-gradient-10"/><radialGradient id="radial-gradient-16" cx="51.13" cy="31.33" r="56.79" gradientUnits="userSpaceOnUse"><stop offset="0" stop-color="#4fcaff"/><stop offset="1" stop-color="#175fff"/></radialGradient><radialGradient id="radial-gradient-17" cx="50.93" cy="10.41" r="57.23" xlink:href="#linear-gradient-10"/><radialGradient id="radial-gradient-18" cx="84.89" cy="23.85" r="45.23" gradientUnits="userSpaceOnUse"><stop offset="0" stop-color="#4fcaff"/><stop offset="1" stop-color="#004cef"/></radialGradient><radialGradient id="radial-gradient-19" cx="36.57" cy="48.42" r="53.87" xlink:href="#linear-gradient-10"/><radialGradient id="radial-gradient-20" cx="35.83" cy="63.05" r="31.94" xlink:href="#radial-gradient-6"/><radialGradient id="New_Gradient_Swatch_1-2" cx="27.76" cy="27.12" r="73.68" xlink:href="#New_Gradient_Swatch_1"/><radialGradient id="radial-gradient-21" cx="33.12" cy="29.33" r="54" gradientUnits="userSpaceOnUse"><stop offset="0" stop-color="#4f95ff"/><stop offset="1"/></radialGradient><radialGradient id="radial-gradient-22" cx="33.38" cy="40.31" r="46.87" xlink:href="#radial-gradient-21"/><radialGradient id="radial-gradient-23" cx="52.69" cy="52.39" r="40.58" xlink:href="#radial-gradient-21"/><radialGradient id="New_Gradient_Swatch_1-3" cx="28.44" cy="43.92" r="37.27" xlink:href="#New_Gradient_Swatch_1"/><radialGradient id="New_Gradient_Swatch_1-4" cx="30.61" cy="28.99" r="53.63" xlink:href="#New_Gradient_Swatch_1"/><radialGradient id="New_Gradient_Swatch_1-5" cx="26.15" cy="29.12" r="35.13" xlink:href="#New_Gradient_Swatch_1"/><radialGradient id="New_Gradient_Swatch_1-6" cx="43.37" cy="32.48" r="37.09" xlink:href="#New_Gradient_Swatch_1"/><radialGradient id="New_Gradient_Swatch_1-7" cx="41.03" cy="40.35" r="36.18" xlink:href="#New_Gradient_Swatch_1"/><radialGradient id="New_Gradient_Swatch_1-8" cx="16.84" cy="2.97" r="40.59" xlink:href="#New_Gradient_Swatch_1"/><radialGradient id="New_Gradient_Swatch_1-9" cx="37.72" cy="43.41" r="39.57" xlink:href="#New_Gradient_Swatch_1"/><radialGradient id="New_Gradient_Swatch_1-10" cx="36.57" cy="19.21" r="39.87" xlink:href="#New_Gradient_Swatch_1"/><radialGradient id="New_Gradient_Swatch_2" cx="22.63" cy="-6.13" r="60.96" gradientUnits="userSpaceOnUse"><stop offset="0" stop-color="#5497ff"/><stop offset="1"/></radialGradient><radialGradient id="New_Gradient_Swatch_2-2" cx="67.62" cy="28.43" r="52.3" xlink:href="#New_Gradient_Swatch_2"/><radialGradient id="New_Gradient_Swatch_1-11" cx="38.52" cy="61.2" r="39.35" xlink:href="#New_Gradient_Swatch_1"/><radialGradient id="radial-gradient-24" cx="15" cy="14.27" r="34.9" xlink:href="#radial-gradient-2"/><radialGradient id="radial-gradient-25" cx="187" cy="11.87" r="36.43" gradientUnits="userSpaceOnUse"><stop offset="0" stop-color="#93f459"/><stop offset="1" stop-color="#54a500"/></radialGradient><radialGradient id="radial-gradient-26" cx="154.39" cy="15.1" r="51.35" gradientUnits="userSpaceOnUse"><stop offset="0" stop-color="#96ff73"/><stop offset="1"/></radialGradient><radialGradient id="radial-gradient-27" cx="187.12" cy="10.26" r="15.47" xlink:href="#radial-gradient-26"/><radialGradient id="radial-gradient-28" cx="186.38" cy="10.45" r="34.22" xlink:href="#radial-gradient-26"/><radialGradient id="radial-gradient-29" cx="213.83" cy="14.04" r="12.78" xlink:href="#radial-gradient-26"/><radialGradient id="radial-gradient-30" cx="227.42" cy="48.1" r="55.7" gradientUnits="userSpaceOnUse"><stop offset="0" stop-color="#52bf29"/><stop offset="1" stop-color="#fff"/></radialGradient><radialGradient id="radial-gradient-31" cx="217.47" cy="43.8" r="19.19" xlink:href="#radial-gradient-30"/><radialGradient id="radial-gradient-32" cx="214.91" cy="53.18" r="54.57" xlink:href="#radial-gradient-30"/><radialGradient id="radial-gradient-33" cx="183.02" cy="49.64" r="13.69" xlink:href="#radial-gradient-30"/><radialGradient id="radial-gradient-34" cx="221.34" cy="53.9" r="58.54" xlink:href="#radial-gradient-30"/><radialGradient id="radial-gradient-35" cx="190.42" cy="4.38" r="29.21" xlink:href="#radial-gradient-26"/><radialGradient id="radial-gradient-36" cx="201.86" cy="15.18" r="39.41" xlink:href="#radial-gradient-26"/><radialGradient id="radial-gradient-37" cx="189.98" cy="51.61" r="41.05" xlink:href="#radial-gradient-26"/><radialGradient id="radial-gradient-38" cx="224.3" cy="28.07" r="50.57" xlink:href="#radial-gradient-26"/><radialGradient id="radial-gradient-39" cx="245.14" cy="28.04" r="46.18" xlink:href="#radial-gradient-26"/><radialGradient id="radial-gradient-40" cx="211.77" cy="53.97" r="35.28" xlink:href="#radial-gradient-26"/><radialGradient id="radial-gradient-41" cx="208.44" cy="25.45" r="18.99" xlink:href="#radial-gradient-26"/><radialGradient id="radial-gradient-42" cx="214.01" cy="28.79" r="27.28" xlink:href="#radial-gradient-26"/><radialGradient id="radial-gradient-43" cx="206.06" cy="36.23" r="17.74" xlink:href="#radial-gradient-26"/><radialGradient id="radial-gradient-44" cx="205.88" cy="39.55" r="16.55" xlink:href="#radial-gradient-26"/><radialGradient id="radial-gradient-45" cx="216.68" cy="5.66" r="53.03" xlink:href="#radial-gradient-26"/><radialGradient id="radial-gradient-46" cx="232.57" cy="14.24" r="53.63" xlink:href="#radial-gradient-26"/></defs><g class="cls-1"><g id="Layer_1" data-name="Layer 1"><path class="cls-2" d="M67.19,1.34l-4,4.05V48.77l4,4H221.71l4.06-4V5.39l-4.06-4Zm.55,1.33L64.47,5.94V48.22l3.27,3.27H221.16l3.27-3.27V5.94l-3.27-3.27Z"/><polygon class="cls-3" points="68.3 4 65.8 6.5 65.8 47.67 68.3 50.16 220.61 50.16 223.1 47.67 223.1 6.5 220.61 4 68.3 4 68.3 4"/><polygon class="cls-4" points="63.14 5.39 67.19 1.34 66.64 0.01 61.81 4.84 63.14 5.39 63.14 5.39"/><polygon class="cls-5" points="67.75 2.67 64.47 5.94 65.8 6.5 68.3 4 67.75 2.67 67.75 2.67"/><polygon class="cls-6" points="225.76 5.39 221.72 1.34 222.27 0.01 227.1 4.84 225.76 5.39 225.76 5.39"/><polygon class="cls-7" points="221.16 2.67 224.43 5.94 223.1 6.5 220.61 4 221.16 2.67 221.16 2.67"/><polygon class="cls-8" points="63.14 48.77 67.19 52.82 66.64 54.15 61.81 49.32 63.14 48.77 63.14 48.77"/><polygon class="cls-9" points="67.75 51.49 64.47 48.22 65.8 47.67 68.3 50.16 67.75 51.49 67.75 51.49"/><polygon class="cls-10" points="225.76 48.77 221.72 52.82 222.27 54.15 227.1 49.32 225.76 48.77 225.76 48.77"/><polygon class="cls-11" points="221.16 51.49 224.43 48.22 223.1 47.67 220.61 50.16 221.16 51.49 221.16 51.49"/><polygon class="cls-12" points="67.19 1.34 221.72 1.34 222.27 0.01 66.64 0.01 67.19 1.34 67.19 1.34"/><polygon class="cls-13" points="221.16 2.67 67.75 2.67 68.3 4 220.61 4 221.16 2.67 221.16 2.67"/><polygon class="cls-14" points="63.14 48.77 63.14 5.39 61.81 4.84 61.81 49.32 63.14 48.77 63.14 48.77"/><polygon class="cls-15" points="64.47 5.94 64.47 48.22 65.8 47.67 65.8 6.5 64.47 5.94 64.47 5.94"/><polygon class="cls-16" points="223.1 6.5 223.1 47.67 224.43 48.22 224.43 5.94 223.1 6.5 223.1 6.5"/><polygon class="cls-17" points="225.76 5.39 225.76 48.77 227.1 49.32 227.1 4.84 225.76 5.39 225.76 5.39"/><polygon class="cls-18" points="220.61 50.16 68.3 50.16 67.75 51.49 221.16 51.49 220.61 50.16 220.61 50.16"/><polygon class="cls-19" points="221.72 52.82 67.19 52.82 66.64 54.15 222.27 54.15 221.72 52.82 221.72 52.82"/><path class="cls-20" d="M221.71,52.82c-4.92,1.33-149.5,1.33-154.52,0l-.55,1.33H222.27l-.56-1.33Z"/><path class="cls-21" d="M225.77,10.09l.41,38.61.8.57-1-.2a27.11,27.11,0,0,0-4,4l.24,1-.55-.87L73.74,52.82h148l4.06-4V10.09Z"/><path class="cls-22" d="M67.19,1.34H221.71L222.27,0C221.71,1.34,67.19,1.34,66.64,0l.55,1.33Z"/><path class="cls-23" d="M63.14,44.08,62.72,5.46l-.79-.57,1,.2a27.11,27.11,0,0,0,4-4l-.24-1,.55.87,147.93.35h-148l-4,4.05V44.08Z"/><path class="cls-24" d="M5.38,1.37l-4,4.05V48.75l4.05,4H48.71l4-4V5.42l-4-4ZM5.93,2.7,2.66,6V48.19l3.27,3.27H48.16l3.26-3.27V6L48.16,2.7Z"/><polygon class="cls-25" points="6.48 4.03 3.99 6.52 3.99 47.64 6.48 50.13 47.6 50.13 50.09 47.64 50.09 6.52 47.6 4.03 6.48 4.03 6.48 4.03"/><polygon class="cls-26" points="1.33 5.42 5.38 1.37 4.83 0.04 0 4.87 1.33 5.42 1.33 5.42"/><polygon class="cls-27" points="5.93 2.7 2.66 5.97 3.99 6.52 6.48 4.03 5.93 2.7 5.93 2.7"/><polygon class="cls-28" points="52.75 5.42 48.71 1.37 49.26 0.04 54.08 4.87 52.75 5.42 52.75 5.42"/><polygon class="cls-29" points="48.16 2.7 51.42 5.97 50.09 6.52 47.6 4.03 48.16 2.7 48.16 2.7"/><polygon class="cls-30" points="1.33 48.75 5.38 52.79 4.83 54.12 0 49.3 1.33 48.75 1.33 48.75"/><polygon class="cls-31" points="5.93 51.46 2.66 48.2 3.99 47.64 6.48 50.13 5.93 51.46 5.93 51.46"/><polygon class="cls-32" points="52.75 48.75 48.71 52.79 49.26 54.12 54.08 49.3 52.75 48.75 52.75 48.75"/><polygon class="cls-33" points="48.16 51.46 51.42 48.2 50.09 47.64 47.6 50.13 48.16 51.46 48.16 51.46"/><polygon class="cls-34" points="5.38 1.37 48.71 1.37 49.26 0.04 4.83 0.04 5.38 1.37 5.38 1.37"/><polygon class="cls-35" points="48.16 2.7 5.93 2.7 6.48 4.03 47.6 4.03 48.16 2.7 48.16 2.7"/><polygon class="cls-36" points="1.33 48.75 1.33 5.42 0 4.87 0 49.3 1.33 48.75 1.33 48.75"/><polygon class="cls-37" points="2.66 5.97 2.66 48.2 3.99 47.64 3.99 6.52 2.66 5.97 2.66 5.97"/><polygon class="cls-38" points="50.09 6.52 50.09 47.64 51.42 48.2 51.42 5.97 50.09 6.52 50.09 6.52"/><polygon class="cls-39" points="52.75 5.42 52.75 48.75 54.08 49.3 54.08 4.87 52.75 5.42 52.75 5.42"/><polygon class="cls-40" points="47.6 50.13 6.48 50.13 5.93 51.46 48.16 51.46 47.6 50.13 47.6 50.13"/><polygon class="cls-41" points="48.71 52.79 5.38 52.79 4.83 54.12 49.26 54.12 48.71 52.79 48.71 52.79"/><polygon class="cls-42" points="3.99 6.52 27.04 27.08 6.48 4.03 3.99 6.52 3.99 6.52"/><polygon class="cls-43" points="50.09 6.52 27.04 27.08 47.6 4.03 50.09 6.52 50.09 6.52"/><polygon class="cls-44" points="3.99 47.64 27.04 27.08 6.48 50.13 3.99 47.64 3.99 47.64"/><polygon class="cls-45" points="50.09 47.64 27.04 27.08 47.6 50.13 50.09 47.64 50.09 47.64"/><polygon class="cls-46" points="3.99 47.64 27.04 27.08 3.99 6.52 3.99 47.64 3.99 47.64"/><polygon class="cls-47" points="6.48 4.03 27.04 27.08 47.6 4.03 6.48 4.03 6.48 4.03"/><polygon class="cls-48" points="50.09 6.52 27.04 27.08 50.09 47.64 50.09 6.52 50.09 6.52"/><polygon class="cls-49" points="47.6 50.13 27.04 27.08 6.48 50.13 47.6 50.13 47.6 50.13"/><polygon class="cls-50" points="12.16 13.8 12.16 40.36 27.04 27.08 12.16 13.8 12.16 13.8"/><polygon class="cls-51" points="13.76 12.2 27.04 27.08 40.32 12.2 13.76 12.2 13.76 12.2"/><polygon class="cls-52" points="41.93 13.8 27.04 27.08 41.93 40.36 41.93 13.8 41.93 13.8"/><polygon class="cls-53" points="40.32 41.97 27.04 27.08 13.76 41.97 40.32 41.97 40.32 41.97"/><polygon class="cls-54" points="3.99 45.39 45.35 4.03 19.61 4.03 3.99 19.66 3.99 45.39 3.99 45.39"/><polygon class="cls-55" points="50.09 20.78 20.74 50.13 31.56 50.13 50.09 31.6 50.09 20.78 50.09 20.78"/><path class="cls-56" d="M48.71,52.79c-4.92,1.33-38.32,1.33-43.33,0l-.55,1.33H49.26l-.55-1.33Z"/><path class="cls-21" d="M52.75,10.1l.42,38.58.8.57-1-.2a27.46,27.46,0,0,0-4,4l.24,1-.55-.86-36.75-.36h36.8l4-4V10.1Z"/><path class="cls-57" d="M5.38,1.37H48.71L49.26,0C48.71,1.37,5.38,1.37,4.83,0l.55,1.33Z"/><path class="cls-23" d="M1.33,44.06.84,5.5.11,4.91,1,5.06a27,27,0,0,0,4-4L4.87.15l.58.8,36.72.42H5.38l-4,4.05V44.06Z"/><path class="cls-58" d="M182.36,6.25l-2.44,2.44c-.21,3.6-.35,10.24-.35,17.84s.14,14.23.35,17.83l2.44,2.44c3.6.21,10.24.35,17.83.35S214.43,47,218,46.8l2.44-2.44c.21-3.6.35-10.24.35-17.83s-.14-14.24-.35-17.84L218,6.25c-3.6-.21-10.24-.35-17.84-.35S186,6,182.36,6.25Z"/><path class="cls-59" d="M184.46,26.53c0-4.72,0-9.54.18-14.28l-4.72-3.56c-.21,3.6-.35,10.24-.35,17.84s.14,14.23.35,17.83l4.72-3.55c-.18-4.75-.18-9.57-.18-14.28Z"/><polygon class="cls-60" points="179.92 8.69 184.64 12.25 185.91 10.97 182.36 6.25 179.92 8.69 179.92 8.69"/><path class="cls-61" d="M182.36,6.25,185.91,11c4.75-.17,9.57-.18,14.28-.18s9.54,0,14.28.18L218,6.25c-3.6-.21-10.24-.35-17.84-.35S186,6,182.36,6.25Z"/><polygon class="cls-62" points="218.03 6.25 214.47 10.97 215.75 12.25 220.47 8.69 218.03 6.25 218.03 6.25"/><path class="cls-63" d="M220.47,8.69l-4.72,3.56c.17,4.74.18,9.56.18,14.28s0,9.53-.18,14.28l4.72,3.55c.21-3.6.35-10.24.35-17.83s-.14-14.24-.35-17.84Z"/><polygon class="cls-64" points="220.47 44.36 215.75 40.8 214.47 42.08 218.03 46.8 220.47 44.36 220.47 44.36"/><path class="cls-65" d="M218,46.8l-3.56-4.72c-4.74.18-9.56.18-14.28.18s-9.53,0-14.28-.18l-3.55,4.72c3.6.21,10.24.35,17.83.35S214.43,47,218,46.8Z"/><polygon class="cls-66" points="182.36 46.8 185.91 42.08 184.64 40.8 179.92 44.36 182.36 46.8 182.36 46.8"/><path class="cls-67" d="M214.47,42.08c0,2.21-6.39,4-14.28,4s-14.28-1.78-14.28-4l-3.55,4.72c3.6.21,10.24.35,17.83.35S214.43,47,218,46.8l-3.56-4.72Z"/><path class="cls-68" d="M218,6.25c-3.6-.21-10.24-.35-17.84-.35S186,6,182.36,6.25c.43.29,8.25.51,17.83.51S217.6,6.54,218,6.27Z"/><path class="cls-69" d="M200.19,10.38c-11.59,0-16.05-1.77-17.83-4.13L185.91,11c4.75-.17,9.57-.18,14.28-.18s9.54,0,14.28.18L218,6.25c-1.78,2.36-6.24,4.13-17.84,4.13Z"/><path class="cls-70" d="M184.64,40.81l15.55-14.28L184.64,12.25c-.18,4.74-.18,9.56-.18,14.28s0,9.53.18,14.28Z"/><path class="cls-71" d="M185.91,11l14.28,15.56L214.47,11c-4.74-.17-9.56-.18-14.28-.18s-9.53,0-14.28.18Z"/><path class="cls-72" d="M215.75,12.25,200.19,26.53l15.56,14.28c.17-4.75.18-9.57.18-14.28s0-9.54-.18-14.28Z"/><path class="cls-73" d="M214.47,42.08,200.19,26.53,185.91,42.08c4.75.18,9.57.18,14.28.18s9.54,0,14.28-.18Z"/><polygon class="cls-74" points="184.64 12.25 200.19 26.53 185.91 10.97 184.64 12.25 184.64 12.25"/><polygon class="cls-74" points="214.47 10.97 200.19 26.53 215.75 12.25 214.47 10.97 214.47 10.97"/><polygon class="cls-74" points="215.75 40.8 200.19 26.53 214.47 42.08 215.75 40.8 215.75 40.8"/><polygon class="cls-74" points="185.91 42.08 200.19 26.53 184.64 40.8 185.91 42.08 185.91 42.08"/><path class="cls-23" d="M184.64,12.25,185.91,11c4.75-.17,9.57-.18,14.28-.18,2.16,0,4.34,0,6.52,0-6.71-.29-13.55-.4-20.26-.19l-.61-.27-3-3.42c.23.48,3,3.7,2.2,4.5S181,9.37,180.26,9L184,12.31l.26.61a211.48,211.48,0,0,0-.06,27.46L184,41l-3.66,3.1c1.91-1.22,4.32-3.07,4.88-2.52s.05,1.34-1.21,3.11c.68-.68,1.36-1.37,2-2.06l.63-.27,6.47-.1c-2.39,0-4.79-.07-7.18-.16l-1.27-1.27c-.18-4.75-.18-9.57-.18-14.28s0-9.54.18-14.28Z"/><path class="cls-75" d="M191.82,18.84q0,3.84,0,7.69t0,7.68l8.37-7.68-8.37-7.69Z"/><path class="cls-76" d="M192.51,18.16l7.68,8.37,7.69-8.37c-2.56,0-5.12,0-7.69,0s-5.12,0-7.68,0Z"/><path class="cls-77" d="M208.56,18.84l-8.37,7.69,8.37,7.68c0-2.56,0-5.12,0-7.68s0-5.13,0-7.69Z"/><path class="cls-78" d="M207.88,34.9l-7.69-8.37-7.68,8.37c2.56,0,5.12,0,7.68,0s5.13,0,7.69,0Z"/><path class="cls-79" d="M184.55,37.73,211.4,10.88c-3.74-.09-7.5-.09-11.21-.09-2.7,0-5.45,0-8.19,0l-7.5,7.5c0,2.74,0,5.49,0,8.2,0,3.7,0,7.46.09,11.2Z"/><path class="cls-80" d="M215.92,22.61,196.28,42.26h8.18l11.46-11.46c0-1.43,0-2.85,0-4.26s0-2.61,0-3.92Z"/><polygon class="cls-81" points="197.14 15.49 203.25 15.49 203.25 22.92 210.68 22.92 210.68 29.02 203.25 29.02 203.25 36.45 197.14 36.45 197.14 29.02 189.71 29.02 189.71 22.92 197.14 22.92 197.14 15.49 197.14 15.49"/><polygon class="cls-23" points="197.14 16.05 203.25 16.05 203.25 23.48 210.68 23.48 210.68 29.58 203.25 29.58 203.25 37.01 197.14 37.01 197.14 29.58 189.71 29.58 189.71 23.48 197.14 23.48 197.14 16.05 197.14 16.05"/><polygon class="cls-23" points="14.9 10.81 18.76 10.81 18.76 15.51 23.46 15.51 23.46 19.36 18.76 19.36 18.76 24.06 14.9 24.06 14.9 19.36 10.21 19.36 10.21 15.51 14.9 15.51 14.9 10.81 14.9 10.81"/><path class="cls-82" d="M34.76,19.64S22.5,17.75,21.21,32.13l-3.15,3.15a.5.5,0,0,0,0,.71l.43.43a.51.51,0,0,0,.71,0l3.1-3.11C25.64,33.19,34.76,31.74,34.76,19.64Z"/><path class="cls-82" d="M27,10.09a19.15,19.15,0,0,0-5.55.81v2.73a16.43,16.43,0,0,1,5.55-1c8.86,0,16.08,6.91,16.08,15.4S35.9,43.46,27,43.46,11,36.55,11,28.06a14.8,14.8,0,0,1,1.26-6H9.47a17.23,17.23,0,0,0-1.08,6C8.39,38,16.76,46,27,46s18.65-8.07,18.65-18S37.33,10.09,27,10.09Z"/><text class="cls-83" transform="translate(83.61 39.03)">999999</text></g></g></svg>