<svg id="Layer_1" data-name="Layer 1" xmlns="http://www.w3.org/2000/svg" viewBox="0 0 72.87 76.53"><defs><style>.cls-1{fill:#e59248;}.cls-2{fill:#f6aa59;}.cls-3{fill:#9e2038;}.cls-4{fill:#492c2a;}.cls-5{fill:#c63955;}.cls-6{fill:#5b0619;opacity:0.5;}.cls-7{fill:#a5a225;}.cls-8{fill:#898315;}</style></defs><path class="cls-1" d="M36.43,20.51H72.87l-2.57,37C70.3,68,55.14,76.53,36.43,76.53S2.56,68,2.56,57.47L0,20.51Z"/><path class="cls-2" d="M36.43,0C56.55,0,72.87,9.18,72.87,20.51S56.55,41,36.43,41,0,31.83,0,20.51,16.31,0,36.43,0Z"/><path class="cls-1" d="M57.64,15.67C57,13.29,54.68,11,52,11.33c-1.12-3.17-6.42-4.76-8.76-3.26C41.64,6,35.4,5.74,33.87,7.78c-2-1.94-7.87-.92-9.13,1.65-2.46-1.82-7.58.32-8.35,2.84A13.41,13.41,0,0,0,6.09,24.59,10.61,10.61,0,0,1,5,20.07C5,10.3,19.08,2.38,36.43,2.38S67.86,10.3,67.86,20.07a10.33,10.33,0,0,1-.79,3.87C66.86,18.44,61.2,15.2,57.64,15.67Z"/><path class="cls-3" d="M36.43,37.75c-14.57,0-26.79-5.59-30.34-13.16a13.41,13.41,0,0,1,10.3-12.32c.77-2.52,5.89-4.66,8.35-2.84C26,6.86,31.87,5.84,33.87,7.78c1.53-2,7.77-1.76,9.35.29,2.34-1.5,7.64.09,8.76,3.26,2.7-.37,5,2,5.66,4.34,3.56-.47,9.22,2.77,9.43,8.27C63.93,31.84,51.42,37.75,36.43,37.75Z"/><path class="cls-4" d="M36.45,48.63c17.45,0,32.55-8.37,35.63-17.69,0,1.06-.19,1.95-.19,2.77,0,11-15.94,19.77-35.43,19.77S1,44.37,1,33.4a20.78,20.78,0,0,0-.17-2.46C4.42,41.1,19,48.63,36.45,48.63Z"/><path class="cls-4" d="M36.46,64c17,0,31.63-8.13,34.63-17.18,0,1-.19,1.89-.19,2.68,0,10.67-15.49,19.22-34.43,19.22S2,59.89,2,49.23a17.74,17.74,0,0,0-.17-2.39C5.34,56.71,19.51,64,36.46,64Z"/><path class="cls-5" d="M61.38,21c-1-.29-2.77,1-2,2.2s2.87,0,2.75-1.26A1,1,0,0,0,61.38,21Z"/><path class="cls-5" d="M28,19.06c-1-.3-2.77,1-2,2.2s2.87,0,2.75-1.27A1,1,0,0,0,28,19.06Z"/><path class="cls-6" d="M24,12.9a2.93,2.93,0,0,0-.3,1.68c.19,1,1.42,1.14,2.25.11C27.21,13.15,25.4,11.3,24,12.9Z"/><path class="cls-6" d="M29.69,24.18a2.91,2.91,0,0,0-.3,1.68c.18,1,1.42,1.14,2.25.1C32.88,24.43,31.07,22.58,29.69,24.18Z"/><path class="cls-6" d="M23.62,31a2.79,2.79,0,0,0-1.07,1.32c-.31.94.68,1.68,1.92,1.18C26.29,32.73,25.6,30.23,23.62,31Z"/><path class="cls-6" d="M36.08,28.3a2.91,2.91,0,0,1,1.39.93c1.37-1.53,3.14.3,1.91,1.82-.83,1-2.07.86-2.25-.1a2.18,2.18,0,0,1,0-.27A1.77,1.77,0,0,1,36,31C34,30.76,34,28.17,36.08,28.3Z"/><path class="cls-6" d="M54.08,16a2.9,2.9,0,0,1,.3,1.68c-.19,1-1.42,1.14-2.25.1C50.88,16.26,52.7,14.4,54.08,16Z"/><path class="cls-7" d="M35.72,12.55a5.73,5.73,0,0,1,2.88.33,9.47,9.47,0,0,0-3-6.14A13.5,13.5,0,0,0,29.94,4a10.78,10.78,0,0,0-.34,2.77c-3-.84-4.71-1.15-4.71-1.15s.92,2.91,1.77,3.64a6.46,6.46,0,0,0-3.39,2.12A8.72,8.72,0,0,0,27.39,15a3.61,3.61,0,0,1,2.35-1.37,4.77,4.77,0,0,1,2.46.29A6.53,6.53,0,0,1,35.72,12.55Z"/><path class="cls-8" d="M27.14,7.16s1.4,1.25,3.21,2.79a29.82,29.82,0,0,1,3.16,3.15l.77-.27S30.93,8.47,27.14,7.16Z"/><path class="cls-8" d="M29.94,4A40.53,40.53,0,0,1,32.85,7,23.58,23.58,0,0,1,36.2,12.5a9.71,9.71,0,0,1,2.4.38,6.84,6.84,0,0,0-2.17-5.72C34.6,5.28,29.94,4,29.94,4Z"/><path class="cls-8" d="M24.71,11.2a7.57,7.57,0,0,1,3.39.41,7.52,7.52,0,0,1,2.39,1.27s-2-.34-2.89-.62S24.71,11.2,24.71,11.2Z"/><path class="cls-7" d="M49.63,25.09a5.73,5.73,0,0,0-2.88.33,9.47,9.47,0,0,1,3-6.14,13.5,13.5,0,0,1,5.62-2.72,10.86,10.86,0,0,1,.34,2.77c3-.84,4.71-1.15,4.71-1.15s-.92,2.91-1.77,3.64a6.46,6.46,0,0,1,3.39,2.12S60.46,26.73,58,27.51a3.55,3.55,0,0,0-2.34-1.36,4.66,4.66,0,0,0-2.46.28A6.61,6.61,0,0,0,49.63,25.09Z"/><path class="cls-8" d="M58.21,19.7S56.81,21,55,22.49a30.27,30.27,0,0,0-3.15,3.15l-.78-.27S54.42,21,58.21,19.7Z"/><path class="cls-8" d="M55.41,16.56A38.05,38.05,0,0,0,52.5,19.5a23.56,23.56,0,0,0-3.35,5.55,9.51,9.51,0,0,0-2.4.37,6.84,6.84,0,0,1,2.17-5.72C50.75,17.83,55.41,16.56,55.41,16.56Z"/><path class="cls-8" d="M60.64,23.74a8.36,8.36,0,0,0-5.78,1.68s2-.34,2.89-.62S60.64,23.74,60.64,23.74Z"/><path class="cls-7" d="M25.78,17.61a7.2,7.2,0,0,0-1.64,2.09,5,5,0,0,0-.22,1.63,4.06,4.06,0,0,0-1.66-1.19,8.63,8.63,0,0,0-2.37-.44,5.75,5.75,0,0,0,.8,2.37,19,19,0,0,0,2.14,1.81A11,11,0,0,1,24.71,23a1.5,1.5,0,0,1,.7,0,21.82,21.82,0,0,0,.6-2.43A17.82,17.82,0,0,0,25.78,17.61Z"/><path class="cls-8" d="M27.14,20.24c0-1.12-1.36-2.63-1.36-2.63a17.82,17.82,0,0,1,.23,2.9,21.82,21.82,0,0,1-.6,2.43,3.65,3.65,0,0,1,.87.26A10.69,10.69,0,0,0,27.14,20.24Z"/><path class="cls-7" d="M46.88,10.29a7.05,7.05,0,0,1,1.63,2.09A5.22,5.22,0,0,1,48.74,14a4,4,0,0,1,1.66-1.2,9,9,0,0,1,2.36-.44,5.6,5.6,0,0,1-.8,2.37,19,19,0,0,1-2.14,1.81A11.15,11.15,0,0,0,48,15.65a1.65,1.65,0,0,0-.7,0,21.82,21.82,0,0,1-.6-2.43A17.93,17.93,0,0,1,46.88,10.29Z"/><path class="cls-8" d="M45.51,12.92c0-1.12,1.37-2.63,1.37-2.63a17.93,17.93,0,0,0-.23,2.9,21.82,21.82,0,0,0,.6,2.43,3.65,3.65,0,0,0-.87.26A10.94,10.94,0,0,1,45.51,12.92Z"/><path class="cls-7" d="M40,28.07a7.2,7.2,0,0,1,1.64,2.09,5.05,5.05,0,0,1,.22,1.64,4,4,0,0,1,1.66-1.19,8.85,8.85,0,0,1,2.37-.45,5.83,5.83,0,0,1-.8,2.38A18.36,18.36,0,0,1,43,34.34a11.57,11.57,0,0,0-1.87-.91,1.5,1.5,0,0,0-.7,0,21.94,21.94,0,0,1-.6-2.44A17.93,17.93,0,0,1,40,28.07Z"/><path class="cls-8" d="M38.68,30.71c0-1.13,1.36-2.64,1.36-2.64a17.93,17.93,0,0,0-.23,2.9,21.94,21.94,0,0,0,.6,2.44,3.92,3.92,0,0,0-.87.25A10.7,10.7,0,0,1,38.68,30.71Z"/><path class="cls-6" d="M13.1,19.31A2.91,2.91,0,0,0,12.8,21c.18,1,1.42,1.14,2.25.11C16.29,19.56,14.48,17.71,13.1,19.31Z"/><path class="cls-6" d="M21.46,27a2.93,2.93,0,0,1,.3,1.68c-.19,1-1.42,1.14-2.25.11C18.26,27.22,20.08,25.37,21.46,27Z"/><path class="cls-6" d="M14.24,26.7a2.9,2.9,0,0,1,.81,1.51c.12,1-1,1.52-2.11.8C11.28,27.93,12.43,25.61,14.24,26.7Z"/><path class="cls-6" d="M44.62,20.63a3,3,0,0,1,.3,1.69c-.19,1-1.42,1.13-2.25.1C41.42,20.89,43.24,19,44.62,20.63Z"/><path class="cls-6" d="M34,16.57a2.84,2.84,0,0,0-1.39.93c-1.37-1.53-3.15.3-1.92,1.82.84,1,2.07.86,2.26-.11A2.09,2.09,0,0,0,33,19a1.7,1.7,0,0,0,1.12.26C36.07,19,36.13,16.43,34,16.57Z"/><path class="cls-6" d="M53.42,29.49a2.73,2.73,0,0,0-1.39.93c-1.37-1.53-3.15.29-1.92,1.81.84,1,2.07.86,2.25-.1a1.1,1.1,0,0,0,0-.27,1.7,1.7,0,0,0,1.12.27C55.46,32,55.52,29.35,53.42,29.49Z"/><path class="cls-5" d="M25.67,24.6c-1-.3-2.77,1-2,2.2s2.86,0,2.74-1.26A1,1,0,0,0,25.67,24.6Z"/><path class="cls-5" d="M53.92,25.35c-1-.3-2.78,1-2,2.2s2.87,0,2.75-1.27A1,1,0,0,0,53.92,25.35Z"/><path class="cls-5" d="M37.18,12.06c-1-.29-2.78,1-2,2.2s2.87,0,2.75-1.26A1,1,0,0,0,37.18,12.06Z"/><path class="cls-5" d="M22.24,13.88c-1-.3-2.77,1-2,2.2s2.86,0,2.74-1.26A1,1,0,0,0,22.24,13.88Z"/><path class="cls-5" d="M42.3,9.19c1-.29,2.77,1,2,2.2s-2.86,0-2.74-1.26A1,1,0,0,1,42.3,9.19Z"/><path class="cls-5" d="M29.44,33.22c1-.3,2.77,1,2,2.2s-2.87,0-2.74-1.27A1,1,0,0,1,29.44,33.22Z"/><path class="cls-5" d="M17.64,22.48c-1.26-1.14-2.13.31-2,1.59a1.54,1.54,0,0,0,1.57,1.22A1.69,1.69,0,0,0,17.64,22.48Z"/><path class="cls-5" d="M43.57,16.15c-1.26-1.14-2.13.31-2,1.59A1.54,1.54,0,0,0,43.17,19,1.69,1.69,0,0,0,43.57,16.15Z"/><path class="cls-5" d="M34.4,31.07c-1.26-1.14-2.13.31-2,1.59A1.54,1.54,0,0,0,34,33.88,1.69,1.69,0,0,0,34.4,31.07Z"/><path class="cls-5" d="M20,14.92c-1.26-1.14-2.13.31-2,1.59a1.52,1.52,0,0,0,1.56,1.22A1.69,1.69,0,0,0,20,14.92Z"/><path class="cls-5" d="M47.34,24.73c-1.26-1.14-2.13.31-2,1.59a1.53,1.53,0,0,0,1.57,1.22A1.69,1.69,0,0,0,47.34,24.73Z"/></svg>