<svg id="Layer_1" data-name="Layer 1" xmlns="http://www.w3.org/2000/svg" viewBox="0 0 69.41 73.06"><defs><style>.cls-1{opacity:0.3;}.cls-2{fill:#4d443d;}.cls-3{fill:#f5b400;}.cls-4{fill:#27231f;}.cls-5{fill:#fff;}</style></defs><path class="cls-1" d="M32.29,72c-4.21,2.43-14.45.46-22.86-4.4S-2.41,56.85,1.8,54.42s14.45-.46,22.87,4.4S36.5,69.59,32.29,72Z"/><path class="cls-2" d="M3.61,34.78c-.43,0-.64.37-.76.73a19.31,19.31,0,0,1-1,2,2,2,0,0,0,.49,1.88,1.33,1.33,0,0,0,1,1,.82.82,0,0,0,.48-.18s.15,1,.82.87a5.16,5.16,0,0,1,0-1.93c.14-.47,1.37-.83,1.56-1.35s.13-.91-.5-1.7A4.27,4.27,0,0,0,3.61,34.78Z"/><path class="cls-3" d="M5,36.74c-.21-.13-.38-.07-.38.12a.75.75,0,0,0,.38.56c.2.12.38.06.38-.13A.75.75,0,0,0,5,36.74Z"/><path d="M5,37c-.19-.1-.33-.16-.33-.12a1,1,0,0,0,.33.26c.19.1.34.16.34.12A1,1,0,0,0,5,37Z"/><path class="cls-4" d="M19.88,54.49c0-.4-2.17-.77-2.2-.77-.84.72-.38,2.22-.4,3.64a4.27,4.27,0,0,1-.39,2c-.21.19-.84.26-.87,1.2a1.69,1.69,0,0,0,1.66,1h.05a.89.89,0,0,0,.85-.49h0a1,1,0,0,0,.12-.26l.37-.21h0c.29-.19,0-1,0-1A4.74,4.74,0,0,1,18.85,57C18.94,56.28,19.68,55.39,19.88,54.49Z"/><path class="cls-4" d="M32.52,63.56c0-.39-.86-1.09-1.17-1.17,0,.34,0,.65.06.94a4.2,4.2,0,0,0-.9-.46c.38,3.13-1,4.4-1.18,4.59s-.85.26-.87,1.2a1.7,1.7,0,0,0,1.65,1A1.17,1.17,0,0,0,31.19,69s0-.11,0-.13l.41-.24c.3-.18.15-.88.15-.88S32.76,66.51,32.52,63.56Z"/><path class="cls-2" d="M13.05,32.8c-.61.31-1.38.52-1.45.58s.17.95.62,1.25.78.44.93.4c.21-.45,2.47-1.93,1.4-3.31C14.32,31.65,13.75,32.45,13.05,32.8Z"/><path class="cls-4" d="M28.27,66c0-.39-.87-1.09-1.18-1.17a6.17,6.17,0,0,1,.06.94,3.74,3.74,0,0,0-.88-.46c.36,3.13-1,4.39-1.2,4.59s-.84.26-.86,1.2a1.72,1.72,0,0,0,1.65,1,1.2,1.2,0,0,0,1.08-.66,1.21,1.21,0,0,1,0-.14l.41-.23c.3-.19.15-.89.15-.89S28.51,69,28.27,66Z"/><path class="cls-4" d="M14.8,57.42c0-.39-2.16-.77-2.2-.76-.83.71-.39,2.21-.4,3.63a4.19,4.19,0,0,1-.39,2c-.2.19-.84.27-.86,1.2a1.64,1.64,0,0,0,1.65,1h.05a.89.89,0,0,0,.85-.49h0a1.07,1.07,0,0,0,.11-.26l.37-.21h0c.28-.19,0-1,0-1A4.76,4.76,0,0,1,13.77,60C13.86,59.21,14.6,58.32,14.8,57.42Z"/><path class="cls-5" d="M17.11,38.56c-.73-.68-1.93-2.52-2.95-3.72A9.56,9.56,0,0,0,9.08,32c-2.47-.45-5.47.87-5.83,3,1.11,2.6-.64,2.19-.35,4.59.1.77.94,2.28,1.84,2.13,1.81,1.58,3.07,10.84,7.42,15.1.58.59.15,1.08,1.47,1.93a3.08,3.08,0,0,0,3.08,0S20,60.92,23,63.5c2.18,1.87,2.66,3.68,4.7,3.67h0c1.52-.3,1.75-1.64,2.78-2.33s1.39.2,2.31-.6v0a.18.18,0,0,0,.07,0c.28-.16,3.33-3.36,2.73-10.44C33.83,43.62,17.85,39.23,17.11,38.56Z"/><path class="cls-2" d="M6.14,36a4.26,4.26,0,0,1-1.44.64c-.84.16-1.68.06-1.8.33.19,1.93,3.09,1,3.69,1.21.16-.1.46-.25.45-1.12A1.09,1.09,0,0,0,6.14,36Z"/><path class="cls-1" d="M22.56,26.36c2.83,1.62,9.69.3,15.33-2.95s7.93-7.22,5.11-8.85-9.68-.31-15.33,3S19.74,24.73,22.56,26.36Z"/><path class="cls-2" d="M42.35,2.58c-.07-.23-.21-.48-.48-.47A2.76,2.76,0,0,0,40.54,3c-.4.5-.41.81-.31,1.08s.89.56,1,.85a3.21,3.21,0,0,1,0,1.23c.42.05.51-.55.51-.55a.55.55,0,0,0,.31.11A.84.84,0,0,0,42.7,5,1.28,1.28,0,0,0,43,3.84,13.93,13.93,0,0,1,42.35,2.58Z"/><path class="cls-3" d="M41,3.35a.5.5,0,0,0-.24.36c0,.11.11.15.24.08a.47.47,0,0,0,.24-.36C41.25,3.31,41.15,3.27,41,3.35Z"/><path d="M40.81,3.69s.09,0,.21-.08a.72.72,0,0,0,.21-.17s-.1,0-.21.08S40.81,3.66,40.81,3.69Z"/><path class="cls-4" d="M33.46,17.67a2.52,2.52,0,0,1-.25-1.25c0-.89.27-1.84-.26-2.3,0,0-1.37.24-1.39.48.13.58.6,1.14.65,1.62A3.07,3.07,0,0,1,32,17.81s-.16.5,0,.62h0l.24.13a.87.87,0,0,0,.07.17h0a.58.58,0,0,0,.54.31h0A1.06,1.06,0,0,0,34,18.43C34,17.84,33.59,17.79,33.46,17.67Z"/><path class="cls-4" d="M25.57,22.83a3.21,3.21,0,0,1-.75-2.91,2.31,2.31,0,0,0-.57.29c0-.19,0-.38,0-.6-.19.05-.72.5-.74.75A3.88,3.88,0,0,0,24,23s-.09.43.1.55l.26.15a.47.47,0,0,1,0,.09.77.77,0,0,0,.68.42,1.11,1.11,0,0,0,1.05-.61C26.11,23,25.71,23,25.57,22.83Z"/><path class="cls-2" d="M35.89.86c-.44-.22-.8-.73-1-.68-.68.87.75,1.81.89,2.09.09,0,.3-.07.59-.25s.49-.72.39-.8S36.28,1.05,35.89.86Z"/><path class="cls-4" d="M28.27,24.38a3.22,3.22,0,0,1-.76-2.91,3.25,3.25,0,0,0-.56.3,4.22,4.22,0,0,1,0-.6c-.2,0-.72.49-.75.74a3.89,3.89,0,0,0,.46,2.63s-.09.44.09.56l.27.15a.24.24,0,0,0,0,.09.75.75,0,0,0,.68.41,1.08,1.08,0,0,0,1.05-.61C28.81,24.55,28.4,24.51,28.27,24.38Z"/><path class="cls-4" d="M36.67,19.53a2.71,2.71,0,0,1-.24-1.25c0-.9.27-1.85-.26-2.3,0,0-1.37.23-1.39.48.13.58.59,1.14.65,1.61a3,3,0,0,1-.18,1.6s-.15.49,0,.62h0l.24.13a.87.87,0,0,0,.07.17h0a.58.58,0,0,0,.54.31h0a1,1,0,0,0,1-.61C37.21,19.7,36.8,19.65,36.67,19.53Z"/><path class="cls-5" d="M42.1,2.2C41.87.87,40,0,38.41.32a6.09,6.09,0,0,0-3.23,1.83c-.64.76-1.4,1.93-1.87,2.36S22.72,7.72,21.58,14.13c-.38,4.49,1.56,6.51,1.74,6.62l0,0h0c.58.51.78,0,1.46.38s.8,1.29,1.76,1.48h0c1.29,0,1.6-1.14,3-2.32,1.92-1.64,4-3.11,4-3.11a1.94,1.94,0,0,0,2,0c.84-.54.56-.85.93-1.22,2.76-2.71,3.56-8.58,4.71-9.57.57.09,1.1-.87,1.16-1.35C42.51,3.59,41.4,3.84,42.1,2.2Z"/><path class="cls-2" d="M40.27,2.91a.67.67,0,0,0-.57.66c0,.56.18.66.29.72.38-.12,2.21.46,2.33-.77-.07-.18-.61-.11-1.14-.21A2.85,2.85,0,0,1,40.27,2.91Z"/><path class="cls-1" d="M37.8,45.16c4.12,2.37,14.14.44,22.38-4.31s11.58-10.54,7.46-12.92-14.14-.45-22.38,4.3S33.68,42.78,37.8,45.16Z"/><path class="cls-2" d="M66.7,10.43c-.12-.33-.31-.7-.71-.67A4,4,0,0,0,64.05,11c-.58.73-.6,1.18-.46,1.57s1.31.82,1.44,1.25a4.86,4.86,0,0,1,0,1.79c.62.08.75-.81.75-.81a.84.84,0,0,0,.46.18,1.26,1.26,0,0,0,.93-1,1.84,1.84,0,0,0,.46-1.74A16.74,16.74,0,0,1,66.7,10.43Z"/><path class="cls-3" d="M64.74,11.56a.72.72,0,0,0-.35.52c0,.17.16.22.35.12a.74.74,0,0,0,.35-.52C65.09,11.5,64.93,11.45,64.74,11.56Z"/><path d="M64.44,12.05s.13,0,.31-.12.31-.2.31-.24-.14,0-.31.12A.83.83,0,0,0,64.44,12.05Z"/><path class="cls-4" d="M53.7,32.47a4,4,0,0,1-.36-1.82c0-1.31.41-2.7-.37-3.36,0,0-2,.34-2,.7.19.84.87,1.66,1,2.36a4.32,4.32,0,0,1-.26,2.32s-.23.73,0,.91h0l.35.2a.76.76,0,0,0,.11.24h0a.84.84,0,0,0,.79.46l0,0a1.54,1.54,0,0,0,1.54-.89C54.49,32.72,53.9,32.65,53.7,32.47Z"/><path class="cls-4" d="M42.19,40c-.18-.18-1.44-1.35-1.1-4.25a3.86,3.86,0,0,0-.82.43c0-.27,0-.56,0-.87-.28.07-1,.72-1.08,1.08-.23,2.73.66,3.84.66,3.84s-.13.64.14.81l.38.23,0,.12a1.1,1.1,0,0,0,1,.61A1.6,1.6,0,0,0,43,41.11C43,40.24,42.39,40.18,42.19,40Z"/><path class="cls-2" d="M57.26,7.92c-.65-.32-1.18-1.07-1.39-1-1,1.27,1.1,2.64,1.3,3.05.13,0,.44-.09.86-.37s.72-1,.57-1.15S57.83,8.2,57.26,7.92Z"/><path class="cls-4" d="M46.13,42.27c-.19-.18-1.44-1.35-1.11-4.25a4.77,4.77,0,0,0-.81.43,6.72,6.72,0,0,1,0-.87c-.29.07-1.06.72-1.09,1.08-.22,2.73.67,3.84.67,3.84s-.14.65.14.82l.38.22,0,.12a1.1,1.1,0,0,0,1,.61,1.58,1.58,0,0,0,1.53-.89C46.91,42.52,46.32,42.45,46.13,42.27Z"/><path class="cls-4" d="M58.4,35.19A4,4,0,0,1,58,33.36c0-1.31.4-2.69-.37-3.36,0,0-2,.34-2,.71.18.83.87,1.65,1,2.35a4.35,4.35,0,0,1-.26,2.33s-.22.72,0,.9h0l.34.2a.76.76,0,0,0,.11.24h0a.84.84,0,0,0,.79.46h0l0,0a1.54,1.54,0,0,0,1.54-.88C59.19,35.43,58.59,35.37,58.4,35.19Z"/><path class="cls-5" d="M66.33,9.88c-.33-1.94-3.11-3.16-5.4-2.75a8.88,8.88,0,0,0-4.7,2.68c-.94,1.11-2,2.81-2.73,3.44S38,17.93,36.37,27.3c-.56,6.56,2.27,9.51,2.53,9.66A.15.15,0,0,0,39,37s0,0,0,0c.84.74,1.13,0,2.13.55s1.16,1.88,2.57,2.16h0c1.88,0,2.33-1.67,4.34-3.4,2.8-2.39,5.84-4.52,5.84-4.52a2.84,2.84,0,0,0,2.85,0c1.22-.79.82-1.24,1.36-1.78,4-3.95,5.19-12.52,6.87-14,.83.14,1.61-1.26,1.7-2C66.92,11.91,65.3,12.28,66.33,9.88Z"/><path class="cls-2" d="M63.65,10.91a1,1,0,0,0-.83,1c0,.81.27.95.42,1,.55-.17,3.24.67,3.41-1.12-.1-.26-.89-.16-1.66-.31A4.1,4.1,0,0,1,63.65,10.91Z"/></svg>