<svg id="Layer_1" data-name="Layer 1" xmlns="http://www.w3.org/2000/svg" viewBox="0 0 250.95 157.32"><defs><style>.cls-1{opacity:0.3;}.cls-2{fill:#663f30;}.cls-3{fill:#cca946;}.cls-4{fill:#a88b3a;}.cls-5{fill:#939598;}.cls-6{opacity:0.5;}.cls-7{fill:#535359;}.cls-8{fill:#bcbec0;}.cls-9{fill:#2bade6;}.cls-10{fill:#573629;}.cls-11{fill:#121212;}.cls-12{fill:#204a6b;}.cls-13{fill:#1b3f5c;}.cls-14{fill:#636363;}.cls-15{fill:#787878;}.cls-16{fill:#575757;}.cls-17{fill:#2b82c7;}.cls-18{fill:#4fb1ff;}.cls-19{fill:#369ff2;}.cls-20,.cls-41{fill:#fff;}.cls-21{fill:#265880;}.cls-22{fill:#73c2ff;}.cls-23{fill:#4a4a4a;}.cls-24{fill:#2b2b2b;}.cls-25{fill:#1c1c1c;}.cls-26{fill:#333;}.cls-27{fill:#3b3b3b;}.cls-28{fill:#b3b3b3;}.cls-29{fill:#2d6896;}.cls-30{fill:#285d87;}.cls-31{fill:#2e6b9c;}.cls-32{fill:#bfbfbf;}.cls-33{fill:#a3a3a3;}.cls-34{fill:#8f8f8f;}.cls-35{fill:#3780b8;}.cls-36{fill:#1c4b94;}.cls-37{fill:#591717;}.cls-38{fill:#b52a2a;}.cls-39{fill:#6e1c1c;}.cls-40{fill:#295f8a;}.cls-41{opacity:0.1;}.cls-42{fill:#912222;}.cls-43{fill:#292929;}.cls-44{fill:#d63a3a;}.cls-45{fill:#fa3c3c;}.cls-46{fill:#262626;}.cls-47{fill:#0d0d0d;}.cls-48{fill:#1f1f1f;}.cls-49{fill:#383838;}.cls-50{fill:#707070;}.cls-51{fill:#525252;}.cls-52{fill:gray;}.cls-53{fill:#b53232;}.cls-54{fill:#fa4b4b;}.cls-55{fill:#ffd57a;}</style></defs><path class="cls-1" d="M247.26,135a6,6,0,0,0-1.66-.63,11.11,11.11,0,0,0,3.48-7.83c0-4.24-2.65-8.11-7.48-10.9a32.73,32.73,0,0,0-16.08-3.88,34.3,34.3,0,0,0-13.72,2.7l-.22-.16a7.69,7.69,0,0,0-7,0,2.55,2.55,0,0,0,0,4.76l.37.17a10.89,10.89,0,0,0-3,7.31c0,4.24,2.66,8.11,7.48,10.9a32.63,32.63,0,0,0,16.09,3.89A34.35,34.35,0,0,0,239,138.71a3.69,3.69,0,0,0,1.2,1.06,7.67,7.67,0,0,0,7,0,2.55,2.55,0,0,0,0-4.76Z"/><path class="cls-2" d="M210.55,117.91a5.53,5.53,0,0,1-5,0,1.66,1.66,0,0,1-1-1.6h0v-53l7,.17,0,52.74a1.36,1.36,0,0,1,0,.45h0A1.88,1.88,0,0,1,210.55,117.91Z"/><path class="cls-3" d="M210.55,64.91c1.37-.79,1.37-2.08,0-2.87a5.51,5.51,0,0,0-5,0c-1.38.79-1.38,2.08,0,2.87A5.45,5.45,0,0,0,210.55,64.91Z"/><path class="cls-4" d="M210.11,64.66a4.53,4.53,0,0,1-4.09,0,1.25,1.25,0,0,1,0-2.36,4.53,4.53,0,0,1,4.09,0A1.25,1.25,0,0,1,210.11,64.66Zm-.27-.16a1.08,1.08,0,0,0,0-2,3.94,3.94,0,0,0-3.54,0,1.08,1.08,0,0,0,0,2A3.9,3.9,0,0,0,209.84,64.5Z"/><path class="cls-4" d="M209.39,64.25a3,3,0,0,1-2.66,0c-.74-.43-.74-1.12,0-1.54a2.92,2.92,0,0,1,2.67,0C210.13,63.13,210.13,63.82,209.39,64.25Zm-.26-.15a.66.66,0,0,0,0-1.24,2.35,2.35,0,0,0-2.13,0,.65.65,0,0,0,0,1.23A2.38,2.38,0,0,0,209.13,64.1Z"/><path class="cls-4" d="M208.85,63.94a1.76,1.76,0,0,1-1.58,0,.49.49,0,0,1,0-.92,1.76,1.76,0,0,1,1.58,0C209.29,63.27,209.29,63.68,208.85,63.94Zm-.27-.16c.29-.17.29-.44,0-.6a1.12,1.12,0,0,0-1,0c-.29.16-.29.43,0,.6A1.15,1.15,0,0,0,208.58,63.78Z"/><path class="cls-5" d="M246.29,107.31H204.74v19.36h0c.05,3,2.07,6,6.08,8.36,8.11,4.69,21.26,4.69,29.38,0,4-2.31,6-5.33,6.08-8.36h0Z"/><g class="cls-6"><path class="cls-7" d="M205.68,116.93v-4.24a7.52,7.52,0,0,1-.94-3.56h0v4.36h0A7.52,7.52,0,0,0,205.68,116.93Z"/><path class="cls-7" d="M210.83,121.85c.21.12.45.22.67.34V118c-.22-.12-.46-.22-.67-.34a15.38,15.38,0,0,1-3.74-2.94v4.24A15.38,15.38,0,0,0,210.83,121.85Z"/><path class="cls-7" d="M220.18,120.7a29.11,29.11,0,0,1-6.76-1.84v4.24a29.11,29.11,0,0,0,6.76,1.84Z"/><path class="cls-7" d="M226.64,121.07a36.13,36.13,0,0,1-4.54-.14v4.24a36.13,36.13,0,0,0,4.54.15Z"/><path class="cls-7" d="M235.55,119.62a32.4,32.4,0,0,1-7,1.34v4.24a31.81,31.81,0,0,0,7-1.34Z"/><path class="cls-7" d="M241.51,121v-4.24c-.41.29-.84.57-1.3.84a23.85,23.85,0,0,1-2.74,1.31v4.25a23.9,23.9,0,0,0,2.74-1.32C240.67,121.58,241.1,121.3,241.51,121Z"/><path class="cls-7" d="M246.29,109.13a8.83,8.83,0,0,1-3.37,6.54v4.24a8.88,8.88,0,0,0,3.37-6.42h0v-4.36Z"/><path class="cls-7" d="M208.55,126V121.8c-2.53-2.07-3.81-4.48-3.81-6.9h0v4.36h0C204.79,121.64,206.06,124,208.55,126Z"/><path class="cls-7" d="M210.46,123.15v4.24c.13.08.24.16.37.23a24.33,24.33,0,0,0,5.65,2.3v-4.25a23.88,23.88,0,0,1-5.65-2.29C210.7,123.3,210.59,123.22,210.46,123.15Z"/><path class="cls-7" d="M230.13,126.58a35.49,35.49,0,0,1-11.73-.44v4.25a36,36,0,0,0,11.73.44Z"/><path class="cls-7" d="M232.05,130.52a27.1,27.1,0,0,0,7.12-2.37v-4.24a27.09,27.09,0,0,1-7.12,2.36Z"/><path class="cls-7" d="M245.59,118a12,12,0,0,1-4.5,4.84v4.25a12,12,0,0,0,4.5-4.86Z"/><path class="cls-7" d="M204.74,120.51v4.36h0a7.18,7.18,0,0,0,.46,2.39V123a7.28,7.28,0,0,1-.47-2.5Z"/><path class="cls-7" d="M206.62,125.46v4.25a14.52,14.52,0,0,0,4.21,3.52c.21.12.45.21.67.33v-4.25c-.22-.11-.46-.2-.67-.32A14.38,14.38,0,0,1,206.62,125.46Z"/><path class="cls-7" d="M212.91,134.24a30.13,30.13,0,0,0,10,2.39v-4.24a30.13,30.13,0,0,1-10-2.39Z"/><path class="cls-7" d="M228.8,136.55a31.41,31.41,0,0,0,7.5-1.56v-4.24a31.9,31.9,0,0,1-7.5,1.55Z"/><path class="cls-7" d="M224.27,136.71q1.56.06,3.12,0v-4.24q-1.56.08-3.12,0Z"/><path class="cls-7" d="M237.71,130.2v4.24a24.08,24.08,0,0,0,2.5-1.21,15.72,15.72,0,0,0,3.48-2.68V126.3a15.75,15.75,0,0,1-3.48,2.69A24.08,24.08,0,0,1,237.71,130.2Z"/><path class="cls-7" d="M245.1,124.48v4.24a7.83,7.83,0,0,0,1.19-3.85h0v-4.36h0A7.63,7.63,0,0,1,245.1,124.48Z"/></g><path class="cls-8" d="M240.21,115.79c-8.12,4.69-21.27,4.69-29.38,0s-8.12-12.27,0-17,21.26-4.68,29.38,0S248.32,111.11,240.21,115.79Z"/><path class="cls-7" d="M236.3,113.31a2,2,0,0,0-.18-.13c-5.87-3.37-15.34-3.37-21.2,0l-.19.13c-5.66-3.37-5.6-8.76.19-12.11s15.33-3.37,21.2,0S242,109.94,236.3,113.31Z"/><path class="cls-9" d="M236.3,113.31l-.18.11c-5.87,3.39-15.34,3.39-21.2,0l-.19-.11.19-.13c5.86-3.37,15.33-3.37,21.2,0A2,2,0,0,1,236.3,113.31Z"/><path class="cls-2" d="M246.24,138.52a5.53,5.53,0,0,1-5,0,1.67,1.67,0,0,1-1-1.6h0V84l7,.17,0,52.74a1.37,1.37,0,0,1,0,.45h0A1.89,1.89,0,0,1,246.24,138.52Z"/><path class="cls-3" d="M246.24,85.52c1.37-.79,1.37-2.08,0-2.87a5.48,5.48,0,0,0-5,0c-1.38.8-1.38,2.09,0,2.88A5.51,5.51,0,0,0,246.24,85.52Z"/><path class="cls-4" d="M245.8,85.26a4.5,4.5,0,0,1-4.09,0,1.25,1.25,0,0,1,0-2.36,4.56,4.56,0,0,1,4.09,0A1.25,1.25,0,0,1,245.8,85.26Zm-.27-.15a1.08,1.08,0,0,0,0-2,3.94,3.94,0,0,0-3.54,0,1.08,1.08,0,0,0,0,2A4,4,0,0,0,245.53,85.11Z"/><path class="cls-4" d="M245.08,84.85a2.9,2.9,0,0,1-2.66,0c-.74-.42-.74-1.11,0-1.54a3,3,0,0,1,2.67,0A.81.81,0,0,1,245.08,84.85Zm-.26-.15a.65.65,0,0,0,0-1.23,2.31,2.31,0,0,0-2.14,0,.65.65,0,0,0,0,1.23A2.35,2.35,0,0,0,244.82,84.7Z"/><path class="cls-4" d="M244.54,84.54a1.76,1.76,0,0,1-1.58,0,.48.48,0,0,1,0-.91,1.7,1.7,0,0,1,1.58,0A.48.48,0,0,1,244.54,84.54Zm-.27-.16c.29-.16.29-.43,0-.6a1.12,1.12,0,0,0-1,0c-.29.17-.29.44,0,.6A1.12,1.12,0,0,0,244.27,84.38Z"/><polygon class="cls-3" points="229.02 115.72 228.09 115.83 228.09 76.18 229.02 76.18 229.02 115.72"/><path class="cls-10" d="M202.57,56.44a5.5,5.5,0,0,0-2.49,4.3,1.68,1.68,0,0,0,.87,1.68h0l45.88,26.49,3.36-6.17L204.51,56.39a1.16,1.16,0,0,0-.39-.22h0A1.85,1.85,0,0,0,202.57,56.44Z"/><path class="cls-3" d="M248.46,82.93c1.38-.79,2.49-.15,2.49,1.44a5.46,5.46,0,0,1-2.48,4.3c-1.38.8-2.49.15-2.49-1.43A5.49,5.49,0,0,1,248.46,82.93Z"/><path class="cls-4" d="M250.51,84.63a4.56,4.56,0,0,1-2,3.54c-1.13.65-2.05.11-2.05-1.19a4.52,4.52,0,0,1,2.05-3.54C249.59,82.79,250.51,83.32,250.51,84.63Zm-3.82,2.2c0,1.13.8,1.59,1.78,1a3.93,3.93,0,0,0,1.77-3.07c0-1.13-.79-1.59-1.77-1A4,4,0,0,0,246.69,86.83Z"/><path class="cls-4" d="M249.8,85a2.93,2.93,0,0,1-1.33,2.31c-.74.43-1.34.08-1.34-.76a2.94,2.94,0,0,1,1.33-2.31C249.2,83.84,249.8,84.18,249.8,85Zm-2.4,1.39c0,.68.48,1,1.07.62a2.38,2.38,0,0,0,1.06-1.85c0-.68-.48-1-1.06-.62A2.36,2.36,0,0,0,247.4,86.42Z"/><path class="cls-4" d="M249.26,85.35a1.77,1.77,0,0,1-.8,1.37c-.43.25-.78,0-.78-.46a1.74,1.74,0,0,1,.79-1.37C248.9,84.64,249.26,84.84,249.26,85.35Zm-1.32.75c0,.34.24.47.52.31a1.18,1.18,0,0,0,.53-.9c0-.34-.24-.47-.52-.31A1.16,1.16,0,0,0,247.94,86.1Z"/><path class="cls-3" d="M220.87,73.36a6.61,6.61,0,0,1,3-5.24c.9-.51,1.78-.29,2,.57h0c-.38-.23-.91-.11-1.51.24a5.74,5.74,0,0,0-2.55,4.43,1.78,1.78,0,0,0,.9,1.6S221,75.47,220.87,73.36Z"/><path class="cls-4" d="M221.52,73.74a6.61,6.61,0,0,1,3-5.24c.9-.51,1.78-.29,2,.57h0a1.57,1.57,0,0,0-1.51.24,5.76,5.76,0,0,0-2.55,4.43,1.76,1.76,0,0,0,.9,1.6S221.64,75.85,221.52,73.74Z"/><path class="cls-3" d="M222.23,74.14a6.56,6.56,0,0,1,3-5.23c.91-.52,1.79-.29,2,.56h0a1.57,1.57,0,0,0-1.51.24,5.76,5.76,0,0,0-2.55,4.43,1.76,1.76,0,0,0,.9,1.6S222.35,76.25,222.23,74.14Z"/><path class="cls-4" d="M222.88,74.53a6.61,6.61,0,0,1,3-5.24c.9-.51,1.78-.29,2,.56h0a1.55,1.55,0,0,0-1.51.25,5.74,5.74,0,0,0-2.55,4.43,1.78,1.78,0,0,0,.9,1.6S223,76.64,222.88,74.53Z"/><path class="cls-3" d="M223.56,74.93a6.62,6.62,0,0,1,3-5.23c.9-.52,1.79-.29,2,.56h0a1.57,1.57,0,0,0-1.51.24,5.8,5.8,0,0,0-2.56,4.43,1.76,1.76,0,0,0,.9,1.6S223.69,77,223.56,74.93Z"/><path class="cls-4" d="M224.22,75.32a6.6,6.6,0,0,1,3-5.24c.9-.51,1.79-.29,2,.57h0a1.52,1.52,0,0,0-1.51.24,5.76,5.76,0,0,0-2.55,4.43,1.79,1.79,0,0,0,.89,1.6S224.34,77.43,224.22,75.32Z"/><path class="cls-3" d="M224.92,75.72a6.61,6.61,0,0,1,3-5.24c.9-.51,1.78-.29,2,.57h0a1.54,1.54,0,0,0-1.52.24,5.76,5.76,0,0,0-2.55,4.43,1.78,1.78,0,0,0,.9,1.6S225,77.83,224.92,75.72Z"/><path class="cls-4" d="M225.57,76.1a6.57,6.57,0,0,1,3-5.23c.9-.52,1.78-.29,2,.56h0a1.57,1.57,0,0,0-1.51.24,5.74,5.74,0,0,0-2.56,4.43,1.76,1.76,0,0,0,.9,1.6S225.69,78.21,225.57,76.1Z"/><path class="cls-1" d="M154.18,43.48,93.6,78.21l11.89,6.86-13,11.8,3.87,2.25-5.48,3.16,5.48,3.16,5.49-3.16,3.62,2.09,20.45-7.51L138.31,104l60.58-34.72ZM105.94,101.4l-8.31-4.79,10.67-9.92,14.82,8.55Z"/><path class="cls-11" d="M176.07,75.24a1.53,1.53,0,0,1-.77-.2L150.14,60.51a1.53,1.53,0,0,1-.56-2.11,1.55,1.55,0,0,1,2.11-.57l25.16,14.53a1.55,1.55,0,0,1,.56,2.11A1.52,1.52,0,0,1,176.07,75.24Z"/><path class="cls-11" d="M163.23,82.66a1.54,1.54,0,0,1-.77-.21L137.3,67.92a1.55,1.55,0,0,1,1.54-2.68L164,79.77a1.55,1.55,0,0,1,.56,2.11A1.53,1.53,0,0,1,163.23,82.66Z"/><polygon class="cls-12" points="128.14 90.76 191.11 54.7 191.11 49.85 128.14 85.91 128.14 90.76"/><polygon class="cls-13" points="128.14 90.76 103.58 76.56 103.58 71.71 128.14 85.91 128.14 90.76"/><polygon class="cls-14" points="105.94 93.42 97.63 88.63 108.36 78.66 108.36 75.91 97.63 85.89 92.49 86.15 92.49 88.89 96.36 91.14 96.36 91.14 90.88 91.56 90.88 94.3 96.36 97.47 101.85 94.3 105.47 96.39 105.47 96.39 126.01 88.85 126.01 86.11 105.94 93.42"/><polygon class="cls-15" points="123.21 84.49 105.94 90.68 97.63 85.89 108.36 75.91 105.55 74.29 92.49 86.15 96.36 88.39 96.36 88.39 90.88 91.56 96.36 94.72 101.85 91.56 105.47 93.65 105.47 93.65 126.01 86.11 123.21 84.49"/><path class="cls-16" d="M98.05,92.53a3.71,3.71,0,0,1-3.37,0,1,1,0,0,1,0-1.94,3.71,3.71,0,0,1,3.37,0A1,1,0,0,1,98.05,92.53Z"/><polygon class="cls-17" points="129.78 56.31 102.13 40.34 93.6 45.91 93.6 56.29 102.13 71.7 129.78 87.66 138.31 82.1 138.31 71.71 129.78 56.31"/><polygon class="cls-18" points="198.89 36.99 138.31 71.71 129.78 56.31 190.36 21.58 198.89 36.99"/><polygon class="cls-19" points="198.89 47.37 138.31 82.1 138.31 71.71 198.89 36.99 198.89 47.37"/><polygon class="cls-20" points="165.62 60.37 138.31 76.03 138.31 78.44 165.62 62.79 165.62 60.37"/><polygon class="cls-20" points="177.66 53.47 177.66 55.88 198.89 43.72 198.89 41.3 177.66 53.47"/><path class="cls-20" d="M174.24,56.83a5.54,5.54,0,0,1-2.51,4.35c-1.38.8-2.5.15-2.5-1.45a5.54,5.54,0,0,1,2.5-4.34C173.12,54.59,174.24,55.24,174.24,56.83Z"/><polygon class="cls-21" points="129.78 87.66 138.31 82.1 198.89 47.37 190.36 52.93 129.78 87.66"/><polygon class="cls-22" points="129.78 56.31 102.13 40.34 162.71 5.62 190.36 21.58 129.78 56.31"/><polygon class="cls-23" points="181.73 67.77 181.97 67.52 181.14 67.09 181.73 67.77"/><polygon class="cls-23" points="182.44 70.05 182.68 69.8 181.85 69.37 182.44 70.05"/><polygon class="cls-23" points="182.21 73.01 182.45 72.75 181.62 72.33 182.21 73.01"/><polygon class="cls-23" points="178.21 80.06 178.45 79.81 177.54 79.68 178.21 80.06"/><polygon class="cls-23" points="175.78 81.71 176.17 81.24 175.11 81.33 175.78 81.71"/><polygon class="cls-23" points="173.44 82.22 173.82 81.75 172.15 81.49 173.44 82.22"/><path class="cls-24" d="M178,68.65l.75-1.35-.32-.14c0-.39.42-.2.32-.52l1.68-.09-2.79-1.68-.6.25a3.2,3.2,0,0,0-.58-.68l.18-.32-.92-.54-.18.32a3.06,3.06,0,0,0-.87-.18l.11-.33-1.21.12-.1.33a5.85,5.85,0,0,0-1,.36v-.3l-1.31.75V65a10.91,10.91,0,0,0-1,.83l-.1-.23-1.21,1.27.11.22a12.48,12.48,0,0,0-.87,1.19l-.21-.11-.92,1.59.21.12a13.92,13.92,0,0,0-.58,1.32l-.27,0-.5,1.68.28,0a10,10,0,0,0-.21,1.3l-.3.18v1.51l.31-.18a5.48,5.48,0,0,0,.2,1l-.3.31.5,1.1.3-.31a2.83,2.83,0,0,0,.57.66l-.23.4.92.54L168,79a3.29,3.29,0,0,0,.85.17l.47,1,2.74,1.22-.85-1.88c.33-.07-.49-.66-.14-.81l.24.42,1.05-.8v-.37a10.73,10.73,0,0,0,1-.8l.12.27,1.21-1.27-.12-.26c.31-.37.59-.76.87-1.17l.22.13.92-1.59-.21-.13a13.76,13.76,0,0,0,.58-1.31l.27,0,.51-1.68-.27,0a12.11,12.11,0,0,0,.22-1.32Z"/><polygon class="cls-25" points="175.52 63.9 180.23 66.55 180.41 66.23 175.7 63.59 175.52 63.9"/><polygon class="cls-25" points="166.86 78.84 171.57 81.49 171.8 81.1 167.09 78.44 166.86 78.84"/><path class="cls-26" d="M182.68,71.3V69.8l-.27.15a5.7,5.7,0,0,0-.19-1.06l.25-.27-.5-1.1-.24.25a3.24,3.24,0,0,0-.59-.68l.19-.32-.92-.54-.18.32a3.54,3.54,0,0,0-.87-.18l.1-.33-1.21.12-.09.33a6.23,6.23,0,0,0-1,.36v-.3l-1.3.75v.3a11.22,11.22,0,0,0-1,.83l-.1-.23-1.21,1.27.1.23c-.3.37-.59.77-.87,1.18l-.2-.11-.92,1.6.2.11c-.21.43-.4.88-.57,1.32l-.27,0-.5,1.68.28,0a10.32,10.32,0,0,0-.21,1.3l-.31.18v1.51l.3-.18a5.47,5.47,0,0,0,.21,1l-.3.31.5,1.11.29-.32a3.15,3.15,0,0,0,.58.67l-.23.39.92.53.23-.39a3.39,3.39,0,0,0,.84.17l-.12.42,1.2-.12.13-.41a6.76,6.76,0,0,0,1-.35v.37l1.31-.75V80.6a10.44,10.44,0,0,0,1-.81l.12.27,1.21-1.27-.12-.26c.3-.37.6-.76.87-1.16l.22.12.92-1.59-.21-.13a11.54,11.54,0,0,0,.57-1.31l.28,0,.5-1.68-.26,0a10.19,10.19,0,0,0,.21-1.31Z"/><path class="cls-25" d="M180.36,71.84a8.61,8.61,0,0,1-3.89,6.74c-1.35.78-2.53.67-3.22-.12a2.81,2.81,0,0,0,2.6-.34,8.61,8.61,0,0,0,3.89-6.74,3.1,3.1,0,0,0-.67-2.13A2.65,2.65,0,0,1,180.36,71.84Z"/><path class="cls-16" d="M179.74,71.38a8.61,8.61,0,0,1-3.89,6.74,2.81,2.81,0,0,1-2.6.34h0a3.15,3.15,0,0,1-.67-2.13,8.62,8.62,0,0,1,3.9-6.74,2.84,2.84,0,0,1,2.6-.34h0A3.1,3.1,0,0,1,179.74,71.38Z"/><path class="cls-27" d="M178.27,73a4,4,0,0,1-1.8,3.14,1.15,1.15,0,0,1-1.5-.05,1.51,1.51,0,0,0,.95-.24,4,4,0,0,0,1.81-3.13,1.46,1.46,0,0,0-.32-1C177.93,71.83,178.27,72.28,178.27,73Z"/><path class="cls-28" d="M177.73,72.76a4,4,0,0,1-1.81,3.13,1.51,1.51,0,0,1-.95.24,1.46,1.46,0,0,1-.32-1A4,4,0,0,1,176.47,72a1.55,1.55,0,0,1,.94-.24A1.46,1.46,0,0,1,177.73,72.76Z"/><polygon class="cls-23" points="165.74 72.86 170.45 75.51 170.95 73.83 166.24 71.18 165.74 72.86"/><polygon class="cls-23" points="165.51 75.82 170.22 78.47 170.21 76.96 165.51 74.31 165.51 75.82"/><polygon class="cls-23" points="166.22 78.09 170.93 80.75 170.43 79.64 165.72 76.99 166.22 78.09"/><polygon class="cls-23" points="166.88 69.72 171.59 72.37 172.51 70.77 167.8 68.12 166.88 69.72"/><polygon class="cls-23" points="168.77 66.82 173.48 69.47 174.69 68.2 169.98 65.55 168.77 66.82"/><polygon class="cls-23" points="171.1 64.65 175.81 67.3 177.12 66.55 172.41 63.9 171.1 64.65"/><polygon class="cls-23" points="173.55 63.51 178.25 66.16 179.46 66.04 174.75 63.39 173.55 63.51"/><polygon class="cls-25" points="168.88 67.04 173.59 69.7 173.48 69.47 168.77 66.82 168.88 67.04"/><polygon class="cls-25" points="166.51 71.15 171.22 73.8 170.95 73.83 166.24 71.18 166.51 71.15"/><polygon class="cls-25" points="165.51 74.31 170.21 76.96 170.52 76.78 165.81 74.13 165.51 74.31"/><polygon class="cls-25" points="165.72 76.99 170.43 79.64 170.73 79.33 166.02 76.68 165.72 76.99"/><polygon class="cls-25" points="171.1 64.95 175.81 67.6 175.81 67.3 171.1 64.65 171.1 64.95"/><polygon class="cls-25" points="173.45 63.84 178.16 66.49 178.25 66.16 173.55 63.51 173.45 63.84"/><polygon class="cls-23" points="168.89 75.19 169.13 74.93 168.3 74.51 168.89 75.19"/><polygon class="cls-23" points="169.6 77.46 169.84 77.21 169.02 76.78 169.6 77.46"/><polygon class="cls-23" points="169.37 80.42 169.61 80.17 168.78 79.74 169.37 80.42"/><polygon class="cls-23" points="165.37 87.48 165.61 87.22 164.69 87.09 165.37 87.48"/><polygon class="cls-23" points="162.95 89.13 163.33 88.66 162.26 88.74 162.95 89.13"/><polygon class="cls-23" points="160.59 89.63 160.98 89.16 159.31 88.91 160.59 89.63"/><path class="cls-24" d="M165.13,76.07l.76-1.36-.32-.14c0-.38.42-.19.32-.52l1.68-.09-2.8-1.68-.59.26a3.25,3.25,0,0,0-.58-.68l.18-.33-.92-.53-.18.31a3.45,3.45,0,0,0-.86-.17l.09-.34-1.2.12-.1.33a5.85,5.85,0,0,0-1,.36v-.3l-1.31.75v.31a9.64,9.64,0,0,0-1,.82l-.1-.23-1.21,1.27.11.23c-.31.38-.6.77-.88,1.18l-.2-.11-.92,1.6.2.11c-.21.44-.4.88-.57,1.33l-.27,0-.5,1.68.27,0a11.87,11.87,0,0,0-.2,1.29l-.3.18v1.51l.31-.18a6.22,6.22,0,0,0,.19,1l-.29.31.5,1.11.29-.31a3.35,3.35,0,0,0,.58.66l-.23.4.92.53.23-.4a3,3,0,0,0,.85.17l.47,1,2.74,1.21-.85-1.87c.33-.08-.49-.66-.15-.82l.26.42,1-.8v-.36a10.62,10.62,0,0,0,1-.8l.12.27,1.21-1.27-.12-.26a12.67,12.67,0,0,0,.87-1.17l.22.13.92-1.6-.21-.12a11,11,0,0,0,.57-1.32l.28,0,.5-1.67-.26,0a10.19,10.19,0,0,0,.21-1.31Z"/><polygon class="cls-25" points="162.68 71.31 167.38 73.96 167.57 73.65 162.86 71 162.68 71.31"/><polygon class="cls-25" points="154.02 86.26 158.73 88.91 158.95 88.51 154.25 85.86 154.02 86.26"/><path class="cls-26" d="M169.84,78.71v-1.5l-.26.16a6.25,6.25,0,0,0-.2-1.06l.25-.27-.5-1.11-.24.26a2.78,2.78,0,0,0-.59-.68l.19-.33-.92-.53-.19.31a3.28,3.28,0,0,0-.86-.17l.1-.33-1.21.11-.09.34a4.9,4.9,0,0,0-1,.35V74l-1.31.75V75a10.77,10.77,0,0,0-1,.82l-.1-.23-1.21,1.27.11.23a13.06,13.06,0,0,0-.88,1.19l-.2-.12-.92,1.6.2.12a12.81,12.81,0,0,0-.57,1.32l-.27,0-.5,1.68.27,0a11.68,11.68,0,0,0-.2,1.3l-.31.17v1.51l.31-.18a5.32,5.32,0,0,0,.21,1l-.3.31.5,1.11.29-.31a3.66,3.66,0,0,0,.57.66l-.22.4.92.53.23-.4a2.92,2.92,0,0,0,.84.17l-.13.42,1.21-.11.13-.42a5.88,5.88,0,0,0,1-.35v.38l1.29-.75V88a9.43,9.43,0,0,0,1-.81l.12.28,1.2-1.27-.12-.26c.31-.37.6-.76.88-1.17l.21.13.93-1.6-.21-.12a12.81,12.81,0,0,0,.57-1.32l.28,0,.5-1.68-.26,0a10.19,10.19,0,0,0,.21-1.31Z"/><path class="cls-25" d="M167.51,79.26A8.58,8.58,0,0,1,163.62,86c-1.34.78-2.52.68-3.21-.11a2.85,2.85,0,0,0,2.6-.35,8.6,8.6,0,0,0,3.89-6.74,3.17,3.17,0,0,0-.66-2.13A2.67,2.67,0,0,1,167.51,79.26Z"/><path class="cls-16" d="M166.9,78.79A8.6,8.6,0,0,1,163,85.53a2.85,2.85,0,0,1-2.6.35h0a3.17,3.17,0,0,1-.66-2.13A8.6,8.6,0,0,1,163.62,77a2.83,2.83,0,0,1,2.6-.35h0A3.17,3.17,0,0,1,166.9,78.79Z"/><path class="cls-27" d="M165.43,80.46a4,4,0,0,1-1.81,3.13,1.14,1.14,0,0,1-1.49,0,1.5,1.5,0,0,0,1-.23,4,4,0,0,0,1.81-3.14,1.41,1.41,0,0,0-.33-1C165.09,79.24,165.43,79.7,165.43,80.46Z"/><path class="cls-28" d="M164.89,80.17a4,4,0,0,1-1.81,3.14,1.5,1.5,0,0,1-1,.23,1.46,1.46,0,0,1-.31-1,4,4,0,0,1,1.8-3.13,1.64,1.64,0,0,1,.94-.24A1.41,1.41,0,0,1,164.89,80.17Z"/><polygon class="cls-23" points="152.9 80.27 157.61 82.92 158.11 81.24 153.4 78.59 152.9 80.27"/><polygon class="cls-23" points="152.67 83.23 157.37 85.88 157.37 84.37 152.67 81.72 152.67 83.23"/><polygon class="cls-23" points="153.38 85.51 158.09 88.16 157.59 87.05 152.88 84.4 153.38 85.51"/><polygon class="cls-23" points="154.04 77.13 158.75 79.78 159.67 78.18 154.96 75.53 154.04 77.13"/><polygon class="cls-23" points="155.93 74.23 160.64 76.88 161.85 75.61 157.14 72.96 155.93 74.23"/><polygon class="cls-23" points="158.26 72.06 162.97 74.71 164.28 73.96 159.57 71.31 158.26 72.06"/><polygon class="cls-23" points="160.71 70.92 165.41 73.57 166.62 73.45 161.91 70.8 160.71 70.92"/><polygon class="cls-25" points="156.04 74.46 160.75 77.11 160.64 76.88 155.93 74.23 156.04 74.46"/><polygon class="cls-25" points="153.67 78.57 158.38 81.22 158.11 81.24 153.4 78.59 153.67 78.57"/><polygon class="cls-25" points="152.67 81.72 157.37 84.37 157.68 84.2 152.97 81.55 152.67 81.72"/><polygon class="cls-25" points="152.88 84.4 157.59 87.05 157.89 86.74 153.18 84.09 152.88 84.4"/><polygon class="cls-25" points="158.26 72.37 162.97 75.02 162.97 74.71 158.26 72.06 158.26 72.37"/><polygon class="cls-25" points="160.61 71.25 165.32 73.91 165.41 73.57 160.71 70.92 160.61 71.25"/><polygon class="cls-19" points="162.27 27.42 162.27 25.38 172.15 19.67 172.15 21.71 162.27 27.42"/><polygon class="cls-17" points="162.27 27.42 152.39 21.71 152.39 19.67 162.27 25.38 162.27 27.42"/><polygon class="cls-18" points="162.27 25.38 152.39 19.67 162.27 13.97 172.15 19.67 162.27 25.38"/><polygon class="cls-11" points="162.27 24.43 161.13 23.77 162.27 23.11 163.41 23.77 162.27 24.43"/><polygon class="cls-17" points="162.27 23.11 162.27 14.92 170.51 19.67 163.41 23.77 162.27 23.11"/><polygon class="cls-19" points="162.27 23.11 162.27 14.92 154.04 19.67 161.13 23.77 162.27 23.11"/><path class="cls-19" d="M137.25,17.94,167.89.34a2.5,2.5,0,0,1,3.75,2.16v8.27l-5-2.87V6.83l-26.81,15.4Z"/><path class="cls-17" d="M140.29,21.79a5.41,5.41,0,0,0-2.44-4.24,1.71,1.71,0,0,0-1.76-.15h0l-12,7,3.51,5.95,12.16-7.13A1.81,1.81,0,0,0,140.29,21.79Z"/><path class="cls-29" d="M128.23,28.83c0,1.56-1.1,2.19-2.45,1.41A5.43,5.43,0,0,1,123.34,26c0-1.56,1.1-2.2,2.44-1.42A5.42,5.42,0,0,1,128.23,28.83Z"/><path class="cls-19" d="M127.33,28.59a3.9,3.9,0,0,0-1.76-3.06,1.16,1.16,0,0,0-1.33-.05L99.39,39.63a2.51,2.51,0,0,0-1.26,2.17V67.64a2.51,2.51,0,0,0,1.26,2.17l8.37,4.83a2.5,2.5,0,1,0,2.51-4.33l-7.13-4.12V43.25l23.67-13.5h0A1.23,1.23,0,0,0,127.33,28.59Z"/><polygon class="cls-30" points="110.91 81.28 110.91 73.75 118 69.68 118 77.21 110.91 81.28"/><polygon class="cls-12" points="110.91 81.28 103.47 77.01 103.47 69.48 110.91 73.75 110.91 81.28"/><polygon class="cls-31" points="110.91 73.75 103.47 69.48 110.56 65.41 118 69.68 110.91 73.75"/><polygon class="cls-32" points="121.25 52.92 111.38 47.23 116.98 44 126.84 49.69 121.25 52.92"/><polygon class="cls-33" points="121.25 60.17 121.25 52.92 126.84 49.69 126.84 56.95 121.25 60.17"/><polygon class="cls-34" points="121.25 60.17 111.38 54.48 111.38 47.23 121.25 52.92 121.25 60.17"/><path class="cls-34" d="M115.76,47.3v1.19a1.68,1.68,0,0,0,1,1.37,5.27,5.27,0,0,0,4.74,0,1.68,1.68,0,0,0,1-1.37V47.3Z"/><path class="cls-33" d="M116.74,48.67a5.27,5.27,0,0,0,4.74,0c1.31-.76,1.31-2,0-2.74a5.21,5.21,0,0,0-4.74,0C115.43,46.69,115.43,47.91,116.74,48.67Z"/><path class="cls-35" d="M139.22,39.43v2.73a1.66,1.66,0,0,0,1,1.37,5.27,5.27,0,0,0,4.74,0,1.66,1.66,0,0,0,1-1.37V39.43Z"/><path class="cls-18" d="M140.2,40.79a5.21,5.21,0,0,0,4.74,0c1.31-.76,1.31-2,0-2.74a5.27,5.27,0,0,0-4.74,0C138.89,38.81,138.89,40,140.2,40.79Z"/><path class="cls-19" d="M143.9,27.56a2.48,2.48,0,0,0-2.5,0L117.87,41a2.51,2.51,0,0,0-1.25,2.17v3.88a1.19,1.19,0,0,0,.73,1.15,3.94,3.94,0,0,0,3.57,0,1.16,1.16,0,0,0,.71-1.21V44.59l18.52-10.53v5a1.16,1.16,0,0,0,.72,1.18,3.9,3.9,0,0,0,3.55,0,1.21,1.21,0,0,0,.73-1.1V29.72A2.5,2.5,0,0,0,143.9,27.56Z"/><path class="cls-19" d="M116.62,57.51V74l-.2-.12a2.5,2.5,0,0,0-2.5,4.34l4,2.28a2.62,2.62,0,0,0,1.26.34,2.55,2.55,0,0,0,1.25-.34,2.51,2.51,0,0,0,1.25-2.17V60l-.38.22Z"/><path class="cls-36" d="M199.93,141.73c-.38,0-.79,0-1.2-.06-15.51-1.33-24.68-5.24-28-11.94-4.63-9.26,3-21.56,9.75-32.41,4.41-7.1,8.57-13.8,8.57-18.26l.24-18.91C189.25,35,183,24.83,177.7,20.7c-3.52-2.76-7.16-3.14-9.39-2.59a5.21,5.21,0,0,0-4.23,5.28l-1.81,1-1.92-1.11a8.9,8.9,0,0,1,7.07-8.82c1.5-.37,6.83-1.23,12.58,3.27,5.92,4.64,13,15.76,13,42.41l-.23,18.9c0,5.5-4.44,12.64-9.14,20.21-6.23,10-13.28,21.38-9.58,28.77,2.69,5.37,11.11,8.7,25,9.91,1.87.15,3.17-.15,4-.93,1.9-1.82,1.68-6.6,1.47-11.23-.3-6.67-.65-14.25,4.94-17.6a9,9,0,0,1,8.32-.55c2.89,1.3,4.89,4.38,5.59,8.21a12.65,12.65,0,0,1-3.92-.65,6.1,6.1,0,0,0-3.2-4.17,5.33,5.33,0,0,0-4.88.35c-3.68,2.21-3.4,8.33-3.13,14.25.26,5.7.5,11.08-2.61,14.07A7.88,7.88,0,0,1,199.93,141.73Z"/><polygon class="cls-1" points="71.16 90.51 -0.14 131.79 43.6 157.05 114.9 115.89 71.16 90.51"/><path class="cls-37" d="M25.87,109.78l4.31,6.69,4.55,2.6s1.79-2.58-1.32-6.83A6.48,6.48,0,0,0,25.87,109.78Z"/><polygon class="cls-23" points="31.88 113.77 32.27 113.36 30.95 112.68 31.88 113.77"/><polygon class="cls-23" points="33.02 117.4 33.41 117 32.09 116.31 33.02 117.4"/><polygon class="cls-23" points="32.65 122.13 33.04 121.72 31.71 121.04 32.65 122.13"/><polygon class="cls-23" points="26.26 133.4 26.65 132.99 25.18 132.78 26.26 133.4"/><polygon class="cls-23" points="22.39 136.03 23.01 135.28 21.31 135.41 22.39 136.03"/><polygon class="cls-23" points="18.64 136.84 19.26 136.08 16.59 135.68 18.64 136.84"/><path class="cls-24" d="M24.37,109.53a5.24,5.24,0,0,0-.94-1.09l.3-.51-1.47-.85-.3.5a5.12,5.12,0,0,0-1.38-.28l.16-.53-1.92.18-.16.54a8.61,8.61,0,0,0-1.66.57v-.49l-2.08,1.21v.48a16.69,16.69,0,0,0-1.63,1.31l-.17-.36-1.92,2,.16.37A21.89,21.89,0,0,0,10,114.5l-.32-.18-1.47,2.55.32.18c-.34.69-.65,1.4-.92,2.11l-.43,0-.8,2.69.44,0a17.2,17.2,0,0,0-.32,2.08L6,124.2v2.41l.49-.28A9.22,9.22,0,0,0,6.79,128l-.47.49.8,1.76.47-.49a4.71,4.71,0,0,0,.92,1.06l-.37.64,1.47.85.37-.64a4.9,4.9,0,0,0,1.35.27l.75,1.62,4.38,1.94-1.36-3c.52-.13-.79-1.06-.23-1.3l.4.67L17,130.59V130a17.25,17.25,0,0,0,1.6-1.28l.2.43,1.92-2-.19-.42a20,20,0,0,0,1.39-1.86l.35.2,1.47-2.55-.33-.19c.34-.69.65-1.39.92-2.1l.44,0,.8-2.69-.42,0a17.15,17.15,0,0,0,.34-2.09l.45-.26L27.1,113l-.51-.23c-.06-.61.66-.3.51-.83l2.67-.14-4.46-2.68Z"/><polygon class="cls-25" points="21.96 107.58 29.48 111.81 29.77 111.31 22.26 107.08 21.96 107.58"/><polygon class="cls-25" points="8.14 131.45 15.66 135.68 16.03 135.04 8.51 130.81 8.14 131.45"/><path class="cls-26" d="M32.66,115.55l.4-.43-.79-1.76-.39.4a4.86,4.86,0,0,0-.93-1.08l.3-.52-1.48-.85-.29.5a5.12,5.12,0,0,0-1.38-.27l.16-.54-1.92.19-.16.53a8.39,8.39,0,0,0-1.66.57v-.48L22.44,113v.48a16.8,16.8,0,0,0-1.63,1.32l-.17-.37-1.92,2,.16.37c-.49.6-1,1.23-1.4,1.89l-.31-.18-1.48,2.55.33.19a18.71,18.71,0,0,0-.92,2.11l-.43,0-.8,2.68.44,0a17,17,0,0,0-.33,2.08l-.48.28v2.4l.49-.29a9,9,0,0,0,.32,1.67l-.47.5.79,1.75.47-.49A5,5,0,0,0,16,135l-.37.64,1.47.84.37-.63a4.91,4.91,0,0,0,1.34.27l-.2.68,1.93-.19.19-.67a8.7,8.7,0,0,0,1.63-.55v.6l2.08-1.2v-.59a15.74,15.74,0,0,0,1.6-1.28l.19.44,1.93-2L28,131c.49-.59.95-1.22,1.39-1.86l.35.2,1.47-2.55-.33-.2c.34-.69.65-1.39.92-2.1l.44,0,.8-2.68-.42,0a17.63,17.63,0,0,0,.34-2.1l.45-.26V117l-.43.24A9.39,9.39,0,0,0,32.66,115.55Z"/><path class="cls-25" d="M27.64,116.12a5,5,0,0,1,1.07,3.4,13.75,13.75,0,0,1-6.21,10.77,4.57,4.57,0,0,1-4.16.55c1.11,1.26,3,1.42,5.14.19a13.78,13.78,0,0,0,6.21-10.77C29.69,118.16,28.9,116.71,27.64,116.12Z"/><path class="cls-16" d="M27.64,116.12a4.54,4.54,0,0,0-4.16.56,13.72,13.72,0,0,0-6.21,10.76,5,5,0,0,0,1.06,3.4h0a4.57,4.57,0,0,0,4.16-.55,13.75,13.75,0,0,0,6.21-10.77,5,5,0,0,0-1.07-3.4Z"/><path class="cls-27" d="M25,120.13a2.28,2.28,0,0,1,.52,1.6,6.4,6.4,0,0,1-2.89,5,2.45,2.45,0,0,1-1.52.38,1.83,1.83,0,0,0,2.39.08,6.41,6.41,0,0,0,2.89-5C26.37,121,25.81,120.24,25,120.13Z"/><path class="cls-28" d="M23.48,120.52a6.34,6.34,0,0,0-2.89,5,2.34,2.34,0,0,0,.5,1.6,2.45,2.45,0,0,0,1.52-.38,6.4,6.4,0,0,0,2.89-5,2.28,2.28,0,0,0-.52-1.6A2.46,2.46,0,0,0,23.48,120.52Z"/><polygon class="cls-23" points="6.35 121.89 13.87 126.12 14.67 123.44 7.15 119.2 6.35 121.89"/><polygon class="cls-23" points="5.98 124.2 5.98 126.61 13.5 130.84 13.5 128.44 5.98 124.2"/><polygon class="cls-23" points="6.32 128.48 7.12 130.24 14.63 134.47 13.84 132.72 6.32 128.48"/><polygon class="cls-23" points="8.18 116.86 15.69 121.1 17.16 118.55 9.65 114.31 8.18 116.86"/><polygon class="cls-23" points="11.2 112.24 18.72 116.47 20.64 114.44 13.12 110.21 11.2 112.24"/><polygon class="cls-23" points="14.92 108.78 22.43 113.01 24.52 111.81 17 107.58 14.92 108.78"/><polygon class="cls-23" points="18.82 106.95 26.34 111.19 28.26 111 20.74 106.77 18.82 106.95"/><polygon class="cls-25" points="11.2 112.24 11.36 112.61 18.88 116.84 18.72 116.47 11.2 112.24"/><polygon class="cls-25" points="7.15 119.2 14.67 123.44 15.1 123.39 7.58 119.16 7.15 119.2"/><polygon class="cls-25" points="5.98 124.2 13.5 128.44 13.98 128.16 6.46 123.92 5.98 124.2"/><polygon class="cls-25" points="6.32 128.48 13.84 132.72 14.31 132.22 6.79 127.99 6.32 128.48"/><polygon class="cls-25" points="14.92 109.26 22.43 113.49 22.43 113.01 14.92 108.78 14.92 109.26"/><polygon class="cls-25" points="18.66 107.48 26.18 111.72 26.34 111.19 18.82 106.95 18.66 107.48"/><path class="cls-38" d="M24,105.16l-.09,0h0c-2.41-1.37-5.73-1.16-9.39.95a1.08,1.08,0,0,0-.48.84.34.34,0,0,0,.15.32h0l7.77,4.49,4.28-2,5.39-.1L24,105.18Z"/><path class="cls-39" d="M22.28,110.56a1.05,1.05,0,0,0-.48.84c0,.31.21.44.48.28,6.82-3.94,12.37-.73,12.37,7.15,0,.31.22.43.49.28a1.08,1.08,0,0,0,.49-.84C35.63,109.77,29.64,106.31,22.28,110.56Z"/><polygon points="43.31 128.93 58.86 121.79 58.86 110.97 43.16 119.47 43.31 128.93"/><polygon class="cls-16" points="39.42 88.82 60.05 100.74 65.5 77.84 44.86 65.9 39.42 88.82"/><polygon class="cls-40" points="46.18 67.98 45.53 67.6 40.56 88.48 59.38 99.37 59.61 98.44 41.44 87.94 46.18 67.98"/><polygon class="cls-17" points="41.44 87.94 59.61 98.44 64.35 78.47 46.18 67.98 41.44 87.94"/><polygon class="cls-41" points="42.4 88.5 44.86 89.92 55.65 73.45 52.9 71.86 42.4 88.5"/><polygon class="cls-41" points="47.26 91.31 50.83 93.37 63.99 80 64.35 78.47 59.61 75.73 47.26 91.31"/><polygon class="cls-27" points="15.74 131.2 30 139.45 30 135.1 15.74 126.85 15.74 131.2"/><polygon class="cls-16" points="30 135.1 30 139.45 58.67 125.47 58.48 121.12 30 135.1"/><polygon class="cls-27" points="58.48 121.12 58.67 125.47 60.22 126.38 60.05 122.02 58.48 121.12"/><polygon class="cls-16" points="60.22 126.38 94.65 106.4 94.65 101.81 60.05 122.02 60.22 126.38"/><polygon class="cls-42" points="60.05 100.74 60.05 122.02 94.65 101.81 94.65 85.99 90.88 82.94 60.05 100.74"/><polygon class="cls-43" points="61.19 118.99 75.74 110.77 77.22 96.5 77.22 90.83 61.19 100.08 61.19 118.99"/><polygon class="cls-27" points="88.34 64.73 65.5 77.84 60.05 100.74 90.88 82.94 90.88 82.19 88.34 66.22 88.34 64.73"/><polygon class="cls-40" points="74.83 90.56 62.48 97.68 62.26 98.69 75.73 90.93 75.73 73.45 74.83 73.96 74.83 90.56"/><polygon class="cls-19" points="62.48 97.68 74.83 90.56 74.83 73.96 66.57 78.72 62.48 97.68"/><polygon class="cls-41" points="63.92 96.85 67.9 94.55 73 75.02 68.66 77.52 63.92 96.85"/><polygon class="cls-40" points="86.61 67.22 88.9 82.44 77.55 89 77.55 89.88 89.8 82.82 87.37 66.77 86.61 67.22"/><polygon class="cls-19" points="77.55 72.41 77.55 89 88.9 82.44 86.61 67.22 77.55 72.41"/><polygon class="cls-41" points="78.41 88.5 82.23 86.29 84.46 68.45 80.29 70.84 78.41 88.5"/><path class="cls-38" d="M70.87,98.3v0l2.75-1.58a3.05,3.05,0,0,0,1.51-2.63v0l-2.74,1.59A3,3,0,0,0,70.87,98.3Z"/><polygon class="cls-15" points="44.86 65.9 65.5 77.84 88.34 64.73 67.7 52.8 44.86 65.9"/><polygon class="cls-23" points="110.14 95.52 110.64 95 108.95 94.13 110.14 95.52"/><polygon class="cls-23" points="111.59 100.14 112.08 99.62 110.4 98.75 111.59 100.14"/><polygon class="cls-23" points="111.12 106.14 111.61 105.62 109.93 104.75 111.12 106.14"/><polygon class="cls-23" points="103 120.46 103.49 119.94 101.63 119.67 103 120.46"/><polygon class="cls-23" points="98.08 123.81 98.86 122.84 96.7 123.02 98.08 123.81"/><polygon class="cls-23" points="93.32 124.83 94.1 123.87 90.71 123.36 93.32 124.83"/><path class="cls-24" d="M100.59,90.14a6.19,6.19,0,0,0-1.19-1.39l.38-.66L97.91,87l-.37.64a6.71,6.71,0,0,0-1.75-.35l.2-.68-2.45.24-.2.67a11.53,11.53,0,0,0-2.11.73v-.61l-2.65,1.52v.62a18.82,18.82,0,0,0-2.06,1.67L86.3,91l-2.44,2.57.21.47a28.83,28.83,0,0,0-1.78,2.41l-.4-.24L80,99.45l.41.24a27.52,27.52,0,0,0-1.17,2.68l-.55.06-1,3.4.56,0a20.67,20.67,0,0,0-.42,2.64l-.61.36v3l.62-.36a12,12,0,0,0,.41,2.11l-.6.63,1,2.24.6-.62a6.33,6.33,0,0,0,1.17,1.34L80,118l1.87,1.08.47-.81a6.42,6.42,0,0,0,1.71.35l1,2.05,5.57,2.47-1.74-3.81c.67-.15-1-1.33-.29-1.65l.51.86,2.14-1.62v-.74a20.53,20.53,0,0,0,2-1.64l.25.56,2.45-2.58-.24-.53a28,28,0,0,0,1.76-2.37l.45.26,1.87-3.24-.43-.25a27.35,27.35,0,0,0,1.17-2.67l.56,0,1-3.41-.54.05a19.12,19.12,0,0,0,.43-2.66l.58-.34,1.54-2.74-.66-.28c-.07-.78.85-.4.66-1.06l3.39-.18-5.67-3.41Z"/><polygon class="cls-25" points="97.54 87.65 107.09 93.03 107.46 92.39 97.91 87.01 97.54 87.65"/><polygon class="cls-25" points="79.97 117.98 89.53 123.36 90 122.55 80.44 117.17 79.97 117.98"/><path class="cls-26" d="M111.13,97.78l.51-.54-1-2.24-.49.52A6.19,6.19,0,0,0,109,94.13l.38-.66-1.87-1.08-.37.64a6.18,6.18,0,0,0-1.75-.35l.2-.68-2.44.24-.2.67a11.61,11.61,0,0,0-2.12.73V93l-2.64,1.52v.62a21.31,21.31,0,0,0-2.07,1.67l-.21-.46L93.41,99l.21.47a25.33,25.33,0,0,0-1.77,2.41l-.41-.24-1.87,3.24.41.24a27.52,27.52,0,0,0-1.17,2.68l-.54,0-1,3.41.56,0a20.35,20.35,0,0,0-.41,2.64l-.62.36v3l.63-.36a11.13,11.13,0,0,0,.4,2.11l-.6.63,1,2.24.6-.62A6.37,6.37,0,0,0,90,122.55l-.47.81,1.87,1.08.46-.8a6.83,6.83,0,0,0,1.71.34l-.25.85,2.44-.23.26-.85a11.74,11.74,0,0,0,2.06-.71v.77l2.64-1.53v-.74a19.43,19.43,0,0,0,2-1.64l.25.56,2.45-2.58-.24-.53A28,28,0,0,0,107,115l.45.26,1.87-3.24-.43-.25a28.55,28.55,0,0,0,1.18-2.67l.55,0,1-3.41-.53,0a23.33,23.33,0,0,0,.43-2.66l.57-.34v-3l-.55.31A11.72,11.72,0,0,0,111.13,97.78Z"/><path class="cls-25" d="M104.76,98.51a6.36,6.36,0,0,1,1.35,4.32c0,5-3.54,11.15-7.89,13.68-2,1.16-3.89,1.35-5.29.7,1.41,1.6,3.81,1.81,6.53.24a17.47,17.47,0,0,0,7.89-13.68C107.35,101.09,106.35,99.26,104.76,98.51Z"/><path class="cls-16" d="M104.75,98.51c-1.4-.66-3.25-.47-5.29.7a17.48,17.48,0,0,0-7.89,13.68,6.41,6.41,0,0,0,1.35,4.32h0c1.4.65,3.25.46,5.29-.7,4.35-2.53,7.89-8.64,7.89-13.68a6.36,6.36,0,0,0-1.35-4.32Z"/><path class="cls-27" d="M101.37,103.61a2.85,2.85,0,0,1,.66,2A8.11,8.11,0,0,1,98.35,112a3,3,0,0,1-1.92.48c.66.74,1.77.83,3,.09a8.08,8.08,0,0,0,3.67-6.35C103.13,104.67,102.43,103.74,101.37,103.61Z"/><path class="cls-28" d="M99.46,104.09a8.11,8.11,0,0,0-3.67,6.35,3,3,0,0,0,.64,2,3,3,0,0,0,1.92-.48,8.11,8.11,0,0,0,3.68-6.36,2.85,2.85,0,0,0-.66-2A3.07,3.07,0,0,0,99.46,104.09Z"/><polygon class="cls-23" points="77.7 105.83 87.25 111.21 88.27 107.8 78.71 102.43 77.7 105.83"/><polygon class="cls-23" points="77.22 108.78 77.22 111.83 86.78 117.21 86.78 114.16 77.22 108.78"/><polygon class="cls-23" points="77.66 114.21 78.67 116.45 88.22 121.83 87.22 119.59 77.66 114.21"/><polygon class="cls-23" points="80.02 99.45 89.57 104.83 91.44 101.59 81.89 96.21 80.02 99.45"/><polygon class="cls-23" points="83.86 93.58 93.41 98.95 95.86 96.38 86.3 91 83.86 93.58"/><polygon class="cls-23" points="88.58 89.17 98.14 94.55 100.78 93.03 91.23 87.65 88.58 89.17"/><polygon class="cls-23" points="93.54 86.86 103.1 92.24 105.54 92 95.99 86.62 93.54 86.86"/><polygon class="cls-25" points="83.86 93.58 84.07 94.04 93.62 99.42 93.41 98.95 83.86 93.58"/><polygon class="cls-25" points="78.71 102.43 88.27 107.8 88.81 107.75 79.26 102.37 78.71 102.43"/><polygon class="cls-25" points="77.22 108.78 86.78 114.16 87.4 113.8 77.84 108.42 77.22 108.78"/><polygon class="cls-25" points="77.66 114.21 87.22 119.59 87.81 118.96 78.26 113.58 77.66 114.21"/><polygon class="cls-25" points="88.58 89.79 98.14 95.17 98.14 94.55 88.58 89.17 88.58 89.79"/><polygon class="cls-25" points="93.34 87.53 102.9 92.91 103.1 92.24 93.54 86.86 93.34 87.53"/><path class="cls-44" d="M94.9,82.7,84.12,88.93a9,9,0,0,0-3.29,3.62l-2.24,4.23c-.26.49-.24,1,.06,1.13S87.54,103,87.54,103l4-7.09,12.24-7.41,2.15.14,1.23-1L98.1,82.45A3.09,3.09,0,0,0,94.9,82.7Z"/><path class="cls-42" d="M107,87.58a3.06,3.06,0,0,0-3.2.25L93,94.06a9.13,9.13,0,0,0-3.3,3.62l-2.24,4.22c-.26.5-.23,1,.07,1.14s.75-.17,1-.66l2.24-4.23A6.16,6.16,0,0,1,93,95.71l10.77-6.22a2.07,2.07,0,0,1,2.16-.17l4.72,3.06a.48.48,0,0,0,.52,0,1.42,1.42,0,0,0,.49-.51c.29-.48.3-1,0-1.18Z"/><polygon class="cls-45" points="39.42 110.08 40.99 110.97 40.99 89.71 39.42 88.82 39.42 110.08"/><polygon class="cls-26" points="54.85 122.55 58.21 120.61 58.21 117.34 54.85 119.28 54.85 122.55"/><polygon class="cls-46" points="51.32 120.52 54.85 122.55 54.85 119.28 51.32 117.25 51.32 120.52"/><polygon class="cls-16" points="51.32 117.25 54.85 119.28 58.21 117.34 54.68 115.31 51.32 117.25"/><polygon class="cls-26" points="51.2 124.36 54.11 122.68 54.11 119.84 51.2 121.53 51.2 124.36"/><polygon class="cls-46" points="45.06 120.8 51.2 124.36 51.2 121.53 45.06 117.97 45.06 120.8"/><polygon class="cls-16" points="45.06 117.97 51.2 121.53 54.11 119.84 47.97 116.29 45.06 117.97"/><path class="cls-26" d="M57.37,110.3a1.68,1.68,0,0,0-1.76-.15h0l-6.76,3.9L52.34,120,59,116.11l.19-.1.08-.05h0a1.84,1.84,0,0,0,.55-1.45A5.34,5.34,0,0,0,57.37,110.3Z"/><path class="cls-25" d="M50.57,114.22c-1.34-.77-2.43-.14-2.43,1.4a5.37,5.37,0,0,0,2.43,4.21c1.34.78,2.43.15,2.43-1.4A5.39,5.39,0,0,0,50.57,114.22Z"/><path class="cls-47" d="M51,118.79a4,4,0,0,1-1.83-3.16,1.68,1.68,0,0,1,.16-.76,1.28,1.28,0,0,0-.56,1.19,4,4,0,0,0,1.83,3.17c.75.43,1.39.29,1.68-.3A1.3,1.3,0,0,1,51,118.79Z"/><path class="cls-26" d="M50.57,115a1.3,1.3,0,0,0-1.27-.13,1.68,1.68,0,0,0-.16.76A4,4,0,0,0,51,118.79a1.3,1.3,0,0,0,1.28.14,1.69,1.69,0,0,0,.15-.76A4.05,4.05,0,0,0,50.57,115Z"/><path class="cls-48" d="M44.48,118.28a1.33,1.33,0,0,0-1.36.11,4.2,4.2,0,0,0-1.89,3.28,1.39,1.39,0,0,0,.43,1.12h0l.07,0,.14.08,5.17,3,2.71-4.61-5.26-3Z"/><path class="cls-26" d="M48.4,121.45a4.19,4.19,0,0,0-1.89,3.27c0,1.2.85,1.7,1.89,1.09a4.15,4.15,0,0,0,1.9-3.27C50.3,121.33,49.45,120.85,48.4,121.45Z"/><path class="cls-47" d="M49.52,122.54A3.12,3.12,0,0,1,48.09,125a1,1,0,0,1-1,.11c.22.45.72.57,1.31.23a3.16,3.16,0,0,0,1.42-2.46,1,1,0,0,0-.43-.93A1.44,1.44,0,0,1,49.52,122.54Z"/><path class="cls-48" d="M48.41,122.06A3.12,3.12,0,0,0,47,124.52a1.29,1.29,0,0,0,.12.59,1,1,0,0,0,1-.11,3.12,3.12,0,0,0,1.43-2.46,1.44,1.44,0,0,0-.12-.59A1,1,0,0,0,48.41,122.06Z"/><path class="cls-11" d="M40.38,120.31a1.29,1.29,0,0,0-1.36.11,4.19,4.19,0,0,0-1.89,3.27,1.44,1.44,0,0,0,.43,1.13h0l.06,0a.39.39,0,0,0,.14.08l5.17,3,2.71-4.6-5.26-3Z"/><path class="cls-26" d="M44.31,123.47a4.17,4.17,0,0,0-1.89,3.27c0,1.21.84,1.7,1.89,1.1a4.19,4.19,0,0,0,1.89-3.27C46.2,123.36,45.35,122.87,44.31,123.47Z"/><path class="cls-47" d="M45.42,124.57A3.14,3.14,0,0,1,44,127a1,1,0,0,1-1,.1c.22.46.72.57,1.31.24a3.17,3.17,0,0,0,1.42-2.46,1,1,0,0,0-.43-.93A1.29,1.29,0,0,1,45.42,124.57Z"/><path class="cls-48" d="M44.31,124.08a3.14,3.14,0,0,0-1.43,2.46,1.26,1.26,0,0,0,.12.59,1,1,0,0,0,1-.1,3.14,3.14,0,0,0,1.42-2.46,1.29,1.29,0,0,0-.12-.59A1,1,0,0,0,44.31,124.08Z"/><polygon class="cls-26" points="44.38 122.95 47.47 121.16 47.47 118.16 44.38 119.94 44.38 122.95"/><polygon class="cls-25" points="37.87 119.17 44.38 122.95 44.38 119.94 37.87 116.17 37.87 119.17"/><polygon class="cls-49" points="37.87 116.17 44.38 119.94 47.47 118.16 40.96 114.39 37.87 116.17"/><polygon class="cls-44" points="16.33 108.15 30 116.05 58.48 99.86 40.9 89.67 16.33 108.15"/><polygon class="cls-50" points="14.6 109.15 28.27 117.04 30 116.05 16.33 108.15 14.6 109.15"/><polygon class="cls-42" points="30 135.1 43.52 128.47 43.48 119.77 58.48 111.73 58.48 99.86 30 116.05 30 135.1"/><polygon class="cls-51" points="28.27 136.1 30 135.1 30 116.05 28.27 117.04 28.27 136.1"/><polygon class="cls-52" points="14.6 128.21 28.27 136.1 28.27 117.04 14.6 109.15 14.6 128.21"/><path class="cls-53" d="M38.85,94.41a3.14,3.14,0,0,0-2.89,0c-.8.45-.8,1.2,0,1.67a3.26,3.26,0,0,0,2.89,0C39.65,95.61,39.65,94.86,38.85,94.41Z"/><path class="cls-27" d="M36,95.12a.71.71,0,0,0,.41.58,2.2,2.2,0,0,0,2,0,.69.69,0,0,0,.41-.58V75.19H36Z"/><path d="M38.4,74.62a2.2,2.2,0,0,0-2,0,.61.61,0,0,0,0,1.15,2.2,2.2,0,0,0,2,0A.61.61,0,0,0,38.4,74.62Z"/><polygon class="cls-53" points="58.48 99.86 58.48 121.12 60.05 122.02 60.05 100.74 58.48 99.86"/><path class="cls-37" d="M53.16,125.51l4.31,6.7,4.55,2.6s1.78-2.59-1.32-6.83A6.49,6.49,0,0,0,53.16,125.51Z"/><polygon class="cls-23" points="59.17 129.51 59.56 129.1 58.24 128.42 59.17 129.51"/><polygon class="cls-23" points="60.31 133.14 60.7 132.73 59.38 132.06 60.31 133.14"/><polygon class="cls-23" points="59.94 137.86 60.33 137.46 59 136.78 59.94 137.86"/><polygon class="cls-23" points="53.55 149.13 53.94 148.72 52.47 148.51 53.55 149.13"/><polygon class="cls-23" points="49.67 151.77 50.3 151.02 48.6 151.15 49.67 151.77"/><polygon class="cls-23" points="45.93 152.58 46.55 151.82 43.88 151.42 45.93 152.58"/><path class="cls-24" d="M51.66,125.27a5.24,5.24,0,0,0-.94-1.09l.3-.51-1.47-.85-.3.5a4.77,4.77,0,0,0-1.38-.28l.16-.54-1.92.19-.16.53a9.42,9.42,0,0,0-1.66.58v-.49l-2.08,1.2V125a14.27,14.27,0,0,0-1.63,1.32l-.17-.37-1.92,2,.16.36c-.49.61-1,1.24-1.4,1.9l-.31-.18-1.47,2.55.32.18a22.85,22.85,0,0,0-.92,2.11l-.43,0-.8,2.68.44,0a19.5,19.5,0,0,0-.33,2.08l-.48.28v2.41l.49-.29a9.33,9.33,0,0,0,.32,1.67l-.47.49.8,1.76.46-.49a5,5,0,0,0,.93,1.06l-.37.64,1.47.84.37-.63a4.9,4.9,0,0,0,1.35.27l.75,1.62,4.38,1.94-1.36-3c.52-.12-.79-1-.23-1.29l.4.66,1.68-1.27v-.58a14.58,14.58,0,0,0,1.6-1.29l.19.44,1.93-2-.19-.41a21.57,21.57,0,0,0,1.39-1.87l.35.21L51,138.25l-.33-.2a21.57,21.57,0,0,0,.92-2.1l.44,0,.8-2.68-.42.05a17.63,17.63,0,0,0,.34-2.1l.45-.26,1.21-2.16-.52-.23c0-.61.67-.3.52-.83l2.67-.14-4.46-2.68Z"/><polygon class="cls-25" points="49.25 123.32 56.77 127.55 57.06 127.05 49.55 122.82 49.25 123.32"/><polygon class="cls-25" points="35.43 147.19 42.95 151.42 43.32 150.78 35.8 146.55 35.43 147.19"/><path class="cls-26" d="M60,131.29l.4-.42-.79-1.77-.39.41a5,5,0,0,0-.93-1.09l.29-.52-1.47-.85-.29.5a4.76,4.76,0,0,0-1.38-.27l.16-.54-1.92.19-.16.53a9.08,9.08,0,0,0-1.66.57v-.48l-2.09,1.2v.48a17.78,17.78,0,0,0-1.63,1.32l-.16-.37-1.92,2,.16.36c-.5.61-1,1.24-1.4,1.9l-.32-.18L43,136.84l.33.18a20.43,20.43,0,0,0-.92,2.11l-.43.05-.8,2.68.44,0a17.1,17.1,0,0,0-.33,2.07l-.49.29v2.4l.5-.29A9.16,9.16,0,0,0,41.6,148l-.47.49.79,1.77.47-.5a4.78,4.78,0,0,0,.93,1.06l-.37.64,1.47.85.37-.64a4.56,4.56,0,0,0,1.34.27l-.2.68,1.93-.19.19-.66a9.56,9.56,0,0,0,1.63-.56v.6l2.08-1.2V150a17.25,17.25,0,0,0,1.6-1.28l.19.43,1.93-2-.19-.42c.49-.59,1-1.22,1.39-1.86l.35.2,1.47-2.55-.33-.2c.34-.68.65-1.39.92-2.1l.44,0,.79-2.68-.41,0a17.63,17.63,0,0,0,.34-2.1l.45-.26v-2.41l-.43.26A9.34,9.34,0,0,0,60,131.29Z"/><path class="cls-25" d="M54.93,131.86A5,5,0,0,1,56,135.27,13.71,13.71,0,0,1,49.79,146a4.51,4.51,0,0,1-4.16.56c1.11,1.26,3,1.42,5.14.19A13.78,13.78,0,0,0,57,136C57,133.89,56.19,132.46,54.93,131.86Z"/><path class="cls-16" d="M54.93,131.86a4.51,4.51,0,0,0-4.16.55,13.75,13.75,0,0,0-6.21,10.76,5.07,5.07,0,0,0,1.06,3.41h0a4.51,4.51,0,0,0,4.16-.56A13.71,13.71,0,0,0,56,135.27a5,5,0,0,0-1.07-3.41Z"/><path class="cls-27" d="M52.27,135.87a2.27,2.27,0,0,1,.51,1.6,6.42,6.42,0,0,1-2.88,5,2.44,2.44,0,0,1-1.52.37,1.82,1.82,0,0,0,2.39.07,6.38,6.38,0,0,0,2.89-5C53.66,136.72,53.1,136,52.27,135.87Z"/><path class="cls-28" d="M50.77,136.26a6.35,6.35,0,0,0-2.89,5,2.34,2.34,0,0,0,.5,1.6,2.44,2.44,0,0,0,1.52-.37,6.42,6.42,0,0,0,2.88-5,2.27,2.27,0,0,0-.51-1.6A2.4,2.4,0,0,0,50.77,136.26Z"/><polygon class="cls-23" points="33.64 137.62 41.16 141.85 41.96 139.18 34.44 134.94 33.64 137.62"/><polygon class="cls-23" points="33.27 139.94 33.27 142.35 40.78 146.57 40.78 144.18 33.27 139.94"/><polygon class="cls-23" points="33.61 144.22 34.41 145.98 41.92 150.22 41.13 148.46 33.61 144.22"/><polygon class="cls-23" points="35.47 132.61 42.98 136.84 44.45 134.29 36.94 130.06 35.47 132.61"/><polygon class="cls-23" points="38.49 127.98 46.01 132.21 47.93 130.18 40.41 125.95 38.49 127.98"/><polygon class="cls-23" points="42.21 124.51 49.72 128.75 51.81 127.55 44.29 123.31 42.21 124.51"/><polygon class="cls-23" points="46.11 122.69 53.63 126.93 55.55 126.74 48.03 122.5 46.11 122.69"/><polygon class="cls-25" points="38.49 127.98 38.65 128.34 46.17 132.57 46.01 132.21 38.49 127.98"/><polygon class="cls-25" points="34.44 134.94 41.96 139.18 42.39 139.13 34.87 134.9 34.44 134.94"/><polygon class="cls-25" points="33.27 139.94 40.78 144.18 41.27 143.89 33.75 139.66 33.27 139.94"/><polygon class="cls-25" points="33.61 144.22 41.13 148.46 41.6 147.96 34.08 143.73 33.61 144.22"/><polygon class="cls-25" points="42.21 125 49.72 129.23 49.72 128.75 42.21 124.51 42.21 125"/><polygon class="cls-25" points="45.95 123.22 53.47 127.46 53.63 126.93 46.11 122.69 45.95 123.22"/><path class="cls-45" d="M51.26,120.9l-.09-.05h0c-2.41-1.37-5.73-1.16-9.39.94a1.09,1.09,0,0,0-.48.85.34.34,0,0,0,.15.32h0l7.77,4.49,4.28-2,5.39-.1-7.61-4.39Z"/><path class="cls-38" d="M49.57,126.3a1.06,1.06,0,0,0-.49.84c0,.31.22.43.49.28,6.82-3.94,12.37-.73,12.37,7.15,0,.3.22.43.49.28a1.1,1.1,0,0,0,.49-.85C62.92,125.5,56.93,122.05,49.57,126.3Z"/><polygon class="cls-40" points="74.55 107.68 62.53 114.43 62.53 114.94 75.14 107.86 76.17 97.04 75.55 97.41 74.55 107.68"/><polygon class="cls-19" points="62.53 114.43 74.55 107.68 75.55 97.41 62.53 104.78 62.53 114.43"/><polygon class="cls-41" points="63.12 114.1 68.13 111.29 74.83 97.81 72.09 99.37 63.12 114.1"/><path class="cls-53" d="M29.84,112.71A3.15,3.15,0,1,0,33,115.86,3.15,3.15,0,0,0,29.84,112.71Z"/><path class="cls-42" d="M27.82,114.26c-1.4-.81-2.54-.16-2.54,1.46a5.62,5.62,0,0,0,2.54,4.4c1.4.8,2.53.15,2.53-1.47A5.59,5.59,0,0,0,27.82,114.26Z"/><path class="cls-54" d="M28.81,113.69a1.75,1.75,0,0,0-1.79-.18h0l-.92.53a1.84,1.84,0,0,1,1.72.22,5.59,5.59,0,0,1,2.53,4.39,1.81,1.81,0,0,1-.73,1.64l.91-.53h0a1.73,1.73,0,0,0,.81-1.68A5.59,5.59,0,0,0,28.81,113.69Z"/><path class="cls-54" d="M28,119.4a4.47,4.47,0,0,1-2-3.51,1.5,1.5,0,0,1,.47-1.21,1.36,1.36,0,0,0-.66,1.33,4.46,4.46,0,0,0,2,3.51,1.32,1.32,0,0,0,1.56,0A1.43,1.43,0,0,1,28,119.4Z"/><path class="cls-55" d="M27.82,114.85a1.43,1.43,0,0,0-1.37-.17,1.5,1.5,0,0,0-.47,1.21,4.47,4.47,0,0,0,2,3.51,1.43,1.43,0,0,0,1.37.17,1.49,1.49,0,0,0,.46-1.21A4.48,4.48,0,0,0,27.82,114.85Z"/><path class="cls-53" d="M14.83,104A3.15,3.15,0,1,0,18,107.14,3.15,3.15,0,0,0,14.83,104Z"/><path class="cls-42" d="M12.81,105.54c-1.4-.81-2.53-.16-2.53,1.46a5.61,5.61,0,0,0,2.53,4.39c1.4.81,2.54.16,2.54-1.46A5.59,5.59,0,0,0,12.81,105.54Z"/><path class="cls-54" d="M13.8,105a1.77,1.77,0,0,0-1.79-.17h0l-.91.53a1.8,1.8,0,0,1,1.71.22,5.59,5.59,0,0,1,2.54,4.39,1.8,1.8,0,0,1-.74,1.64l.91-.53h0a1.75,1.75,0,0,0,.82-1.68A5.62,5.62,0,0,0,13.8,105Z"/><path class="cls-54" d="M13,110.68a4.51,4.51,0,0,1-2-3.51,1.53,1.53,0,0,1,.46-1.22,1.4,1.4,0,0,0-.65,1.35,4.45,4.45,0,0,0,2,3.5,1.33,1.33,0,0,0,1.56,0A1.46,1.46,0,0,1,13,110.68Z"/><path class="cls-55" d="M12.81,106.13a1.47,1.47,0,0,0-1.37-.18,1.53,1.53,0,0,0-.46,1.22,4.51,4.51,0,0,0,2,3.51,1.46,1.46,0,0,0,1.37.17,1.52,1.52,0,0,0,.46-1.22A4.46,4.46,0,0,0,12.81,106.13Z"/></svg>