<svg id="Layer_1" data-name="Layer 1" xmlns="http://www.w3.org/2000/svg" viewBox="0 0 11.91 221.81"><defs><style>.cls-1{fill:#fb0;}.cls-2{fill:#d49c00;}.cls-3{fill:#ffd666;}</style></defs><rect class="cls-1" width="11.91" height="70.5"/><polygon class="cls-2" points="11.91 55.42 5.95 58.86 0 55.42 0 137.47 5.95 140.91 5.95 140.91 5.95 140.91 5.95 140.91 5.95 140.91 11.91 137.47 11.91 55.42"/><polygon class="cls-3" points="0 55.42 5.95 58.86 11.91 55.42 5.95 51.98 0 55.42"/><rect class="cls-1" y="81.17" width="11.91" height="70.5"/><polygon class="cls-2" points="11.91 137.25 5.95 140.69 0 137.25 0 219.3 5.95 222.74 5.95 222.74 5.95 222.74 5.95 222.74 5.95 222.74 11.91 219.3 11.91 137.25"/><polygon class="cls-3" points="0 137.25 5.95 140.69 11.91 137.25 5.95 133.82 0 137.25"/></svg>