<svg id="Layer_1" data-name="Layer 1" xmlns="http://www.w3.org/2000/svg" viewBox="0 0 165.92 56.16"><defs><style>.cls-1{fill:#573629;}.cls-2{fill:#cca946;}.cls-3{fill:#a88b3a;}.cls-4{fill:#663f30;}</style></defs><path class="cls-1" d="M1.19,26.25a6.52,6.52,0,0,1,0-7.51,3.61,3.61,0,0,1,3.2-1.54H161.52l-.35,10.6-156.65,0a2.78,2.78,0,0,1-.91,0h0A3.8,3.8,0,0,1,1.19,26.25Z"/><path class="cls-2" d="M158.37,26.25a3.45,3.45,0,0,0,5.76,0,6.48,6.48,0,0,0,0-7.5,3.45,3.45,0,0,0-5.76,0A6.51,6.51,0,0,0,158.37,26.25Z"/><path class="cls-3" d="M158.89,25.58a5.32,5.32,0,0,1,0-6.17,2.83,2.83,0,0,1,4.73,0,5.37,5.37,0,0,1,0,6.18A2.84,2.84,0,0,1,158.89,25.58Zm.31-.41a2.45,2.45,0,0,0,4.11,0,4.63,4.63,0,0,0,0-5.34,2.46,2.46,0,0,0-4.11,0A4.61,4.61,0,0,0,159.2,25.17Z"/><path class="cls-3" d="M159.7,24.5a3.52,3.52,0,0,1,0-4,1.86,1.86,0,0,1,3.1,0,3.49,3.49,0,0,1,0,4A1.86,1.86,0,0,1,159.7,24.5Zm.32-.4a1.47,1.47,0,0,0,2.46,0,2.75,2.75,0,0,0,0-3.22,1.48,1.48,0,0,0-2.47,0A2.76,2.76,0,0,0,160,24.1Z"/><path class="cls-3" d="M160.34,23.68a2.06,2.06,0,0,1,0-2.38,1.08,1.08,0,0,1,1.82,0,2,2,0,0,1,0,2.38A1.08,1.08,0,0,1,160.34,23.68Zm.31-.4a.73.73,0,0,0,1.21,0,1.38,1.38,0,0,0,0-1.58.73.73,0,0,0-1.21,0A1.37,1.37,0,0,0,160.65,23.28Z"/><path class="cls-1" d="M1.19,44.92a6.52,6.52,0,0,1,0-7.51,3.63,3.63,0,0,1,3.2-1.53H161.52l-.35,10.6-156.65,0a2.78,2.78,0,0,1-.91,0h0A3.78,3.78,0,0,1,1.19,44.92Z"/><path class="cls-2" d="M158.37,44.92a3.44,3.44,0,0,0,5.76,0,6.48,6.48,0,0,0,0-7.5,3.45,3.45,0,0,0-5.76,0A6.49,6.49,0,0,0,158.37,44.92Z"/><path class="cls-3" d="M158.89,44.26a5.32,5.32,0,0,1,0-6.17,2.83,2.83,0,0,1,4.73,0,5.37,5.37,0,0,1,0,6.18A2.84,2.84,0,0,1,158.89,44.26Zm.31-.41a2.45,2.45,0,0,0,4.11,0,4.63,4.63,0,0,0,0-5.34,2.46,2.46,0,0,0-4.11,0A4.61,4.61,0,0,0,159.2,43.85Z"/><path class="cls-3" d="M159.7,43.18a3.52,3.52,0,0,1,0-4,1.86,1.86,0,0,1,3.1,0,3.49,3.49,0,0,1,0,4A1.86,1.86,0,0,1,159.7,43.18Zm.32-.4a1.47,1.47,0,0,0,2.46,0,2.75,2.75,0,0,0,0-3.22,1.49,1.49,0,0,0-2.47,0A2.78,2.78,0,0,0,160,42.78Z"/><path class="cls-3" d="M160.34,42.36a2.06,2.06,0,0,1,0-2.38,1.08,1.08,0,0,1,1.82,0,2,2,0,0,1,0,2.38A1.08,1.08,0,0,1,160.34,42.36Zm.31-.4a.73.73,0,0,0,1.21,0,1.38,1.38,0,0,0,0-1.58.73.73,0,0,0-1.21,0A1.37,1.37,0,0,0,160.65,42Z"/><path class="cls-4" d="M86.17,55a11,11,0,0,1-10,0c-1.51-.88-2.19-2.06-2-3.2h0v-48l14.1.35,0,47.48a2.15,2.15,0,0,1,0,.91h0A3.76,3.76,0,0,1,86.17,55Z"/><path class="cls-2" d="M86.17,7c2.76-1.59,2.75-4.17,0-5.76a11,11,0,0,0-10,0c-2.75,1.6-2.75,4.18,0,5.76A11,11,0,0,0,86.17,7Z"/><path class="cls-3" d="M85.28,6.44a9,9,0,0,1-8.2,0c-2.26-1.29-2.26-3.43,0-4.73a9.08,9.08,0,0,1,8.2,0C87.54,3,87.55,5.14,85.28,6.44Zm-.54-.31c2-1.13,2-3,0-4.11a7.88,7.88,0,0,0-7.11,0c-2,1.13-2,3,0,4.11A7.84,7.84,0,0,0,84.74,6.13Z"/><path class="cls-3" d="M83.85,5.63a6,6,0,0,1-5.35,0c-1.47-.86-1.47-2.24,0-3.1a5.9,5.9,0,0,1,5.35,0C85.33,3.39,85.33,4.77,83.85,5.63Zm-.53-.32a1.3,1.3,0,0,0,0-2.46,4.65,4.65,0,0,0-4.28,0,1.3,1.3,0,0,0,0,2.47A4.69,4.69,0,0,0,83.32,5.31Z"/><path class="cls-3" d="M82.77,5A3.51,3.51,0,0,1,79.6,5a1,1,0,0,1,0-1.82,3.5,3.5,0,0,1,3.18,0A1,1,0,0,1,82.77,5Zm-.54-.31a.64.64,0,0,0,0-1.21,2.35,2.35,0,0,0-2.1,0,.64.64,0,0,0,0,1.21A2.32,2.32,0,0,0,82.23,4.68Z"/><path class="cls-4" d="M163.85,55a11,11,0,0,1-10,0c-1.51-.88-2.19-2.06-2-3.2h0v-48l14.09.35,0,47.48a2.32,2.32,0,0,1,0,.91h0A3.81,3.81,0,0,1,163.85,55Z"/><path class="cls-2" d="M163.85,7c2.76-1.59,2.75-4.17,0-5.76a11,11,0,0,0-10,0c-2.76,1.6-2.76,4.18,0,5.76A11,11,0,0,0,163.85,7Z"/><path class="cls-3" d="M163,6.44a9,9,0,0,1-8.19,0c-2.26-1.29-2.27-3.43,0-4.73a9.08,9.08,0,0,1,8.2,0C165.22,3,165.23,5.14,163,6.44Zm-.54-.31c2-1.13,2-3,0-4.11a7.88,7.88,0,0,0-7.11,0c-2,1.13-2,3,0,4.11A7.82,7.82,0,0,0,162.42,6.13Z"/><path class="cls-3" d="M161.53,5.63a6,6,0,0,1-5.35,0c-1.47-.86-1.47-2.24,0-3.1a5.9,5.9,0,0,1,5.35,0C163,3.39,163,4.77,161.53,5.63ZM161,5.31a1.3,1.3,0,0,0,0-2.46,4.65,4.65,0,0,0-4.28,0,1.31,1.31,0,0,0,0,2.47A4.69,4.69,0,0,0,161,5.31Z"/><path class="cls-3" d="M160.45,5a3.51,3.51,0,0,1-3.17,0,1,1,0,0,1,0-1.82,3.48,3.48,0,0,1,3.17,0A1,1,0,0,1,160.45,5Zm-.54-.31a.64.64,0,0,0,0-1.21,2.35,2.35,0,0,0-2.1,0,.64.64,0,0,0,0,1.21A2.32,2.32,0,0,0,159.91,4.68Z"/></svg>