<svg id="Layer_1" data-name="Layer 1" xmlns="http://www.w3.org/2000/svg" viewBox="0 0 269.27 197.74"><defs><style>.cls-1{fill:#748e09;}.cls-2{fill:#5d3113;}.cls-3{fill:#4c260c;}.cls-4{fill:#80a709;}.cls-5{fill:#699805;}.cls-6{fill:#5e8704;}.cls-7{fill:#4c7a02;}.cls-8{fill:#703f1e;}.cls-9{fill:#5b3114;}.cls-10{fill:#9bc90e;}.cls-11{fill:#80b708;}.cls-12{fill:#72a307;}.cls-13{fill:#5b9303;}.cls-14{fill:#528402;}</style></defs><path class="cls-1" d="M121.06,123.38c0,1.49-5.17,2.7-11.54,2.7S98,124.87,98,123.38s5.18-2.69,11.55-2.69S121.06,121.9,121.06,123.38Z"/><path class="cls-1" d="M209.66,180.72c0,1.49-5.17,2.69-11.54,2.69s-11.55-1.2-11.55-2.69,5.17-2.7,11.55-2.7S209.66,179.23,209.66,180.72Z"/><path class="cls-1" d="M79.93,122.65c0,1.21-4.19,2.19-9.36,2.19s-9.36-1-9.36-2.19,4.19-2.18,9.36-2.18S79.93,121.45,79.93,122.65Z"/><path class="cls-1" d="M153.18,154.61c0,1.2-4.19,2.18-9.36,2.18s-9.36-1-9.36-2.18,4.19-2.19,9.36-2.19S153.18,153.4,153.18,154.61Z"/><path class="cls-1" d="M188.76,133.94c0,1.21-4.19,2.19-9.36,2.19s-9.36-1-9.36-2.19,4.19-2.18,9.36-2.18S188.76,132.74,188.76,133.94Z"/><path class="cls-1" d="M244.45,138.37c0,1.2-4.19,2.18-9.35,2.18s-9.37-1-9.37-2.18,4.2-2.19,9.37-2.19S244.45,137.16,244.45,138.37Z"/><path class="cls-1" d="M172.77,77.39c0,1.21-4.19,2.19-9.36,2.19s-9.36-1-9.36-2.19,4.19-2.18,9.36-2.18S172.77,76.19,172.77,77.39Z"/><path class="cls-1" d="M94.44,183.6c0,1.2-4.19,2.18-9.36,2.18s-9.36-1-9.36-2.18,4.19-2.19,9.36-2.19S94.44,182.39,94.44,183.6Z"/><path class="cls-1" d="M212.51,98.32c0,.93-3.21,1.68-7.17,1.68s-7.17-.75-7.17-1.68,3.21-1.67,7.17-1.67S212.51,97.4,212.51,98.32Z"/><path class="cls-2" d="M231,137.75c3.31-8.7,2-20.87,3.4-26.13,1.15-.32,1.77.88,2.7,1.56,0,6.31-.41,15.43,2,24.14C236.44,139.26,233.39,138.08,231,137.75Z"/><path class="cls-3" d="M237.19,122.61c-.56.89-.1-3.49,0,0Z"/><path class="cls-3" d="M231,137.75c2.4-6.32,2.32-13.3,2.67-20,.07-1.35.16-2.7.33-4,.14-1.06.16-2.93,1.66-1.86.52.37.92.9,1.44,1.29v3.08c0,2.12,0,4.23.06,6.35-.1-3.49-.56.89,0,0-2.83,4.47-3.06,10.67-2.35,15.76C233.55,138.27,232.31,137.93,231,137.75Z"/><path class="cls-4" d="M269.27,112.39c-3.94,6-14.85,9-21.09,5.43-5.65-3.19-10.14-15.75-9-22.77l.67-.7C248.31,102,257.59,110.54,269.27,112.39Z"/><path class="cls-5" d="M244.32,98.36a13.86,13.86,0,0,0,3.44,9.48c4.18,4.81,9.84,7.2,16.12,5.08a5.86,5.86,0,0,0,2.17-1.24,31.85,31.85,0,0,0,3.22.71c-3.94,6-14.85,9-21.09,5.43-5.65-3.19-10.14-15.75-9-22.77l.67-.7C241.32,95.68,242.81,97,244.32,98.36Z"/><path class="cls-6" d="M242.66,96.88a27.9,27.9,0,0,0,5.09,12.6c5.1,6.42,13.61,9.36,19.51,2.51.66.16,1.33.29,2,.4-3.94,6-14.85,9-21.09,5.43-5.65-3.19-10.14-15.75-9-22.77l.67-.7Z"/><path class="cls-7" d="M267.24,113.72a6.26,6.26,0,0,0,1.42-1.45c.21,0,.4.09.61.12-3.94,6-14.85,9-21.09,5.43-5.65-3.19-10.14-15.75-9-22.77l.67-.7,1,.92c-1.6,6.16,1.1,13.6,5.13,18C251.35,119.21,261.31,118.21,267.24,113.72Z"/><path class="cls-4" d="M221.35,118.41c-6.26,3.5-17.16.53-21.07-5.5,11.68-1.81,21-10.28,29.47-17.93l.66.69C231.54,102.7,227,115.25,221.35,118.41Z"/><path class="cls-5" d="M221.81,108.43A13.93,13.93,0,0,0,225.28,99c1.51-1.33,3-2.67,4.47-4l.66.69c1.13,7-3.41,19.58-9.06,22.74-6.26,3.5-17.16.53-21.07-5.5a31,31,0,0,0,3.21-.7,6,6,0,0,0,2.17,1.25C211.93,115.61,217.6,113.23,221.81,108.43Z"/><path class="cls-6" d="M221.82,110.07a28,28,0,0,0,5.12-12.57L229.75,95l.66.69c1.13,7-3.41,19.58-9.06,22.74-6.26,3.5-17.16.53-21.07-5.5q1-.16,2-.39C208.17,119.39,216.68,116.47,221.82,110.07Z"/><path class="cls-7" d="M229.75,95l.66.69c1.13,7-3.41,19.58-9.06,22.74-6.26,3.5-17.16.53-21.07-5.5l.61-.12a6.25,6.25,0,0,0,1.41,1.46c5.91,4.51,15.87,5.54,21.24-.34,4.05-4.43,6.76-11.85,5.19-18Z"/><path class="cls-4" d="M231.9,90.74c4.77,5.29,7.78,18.29,4.75,24-3.36,6.34-14.12,9.77-20.68,6.83,8.83-7.87,12-20,15-31.06Z"/><path class="cls-5" d="M231,90.53l.94.21c4.77,5.29,7.78,18.29,4.75,24-3.36,6.34-14.12,9.77-20.68,6.83.82-.74,1.58-1.52,2.32-2.33a6.11,6.11,0,0,0,2.49-.13c6.44-1.61,9.91-6.68,10.83-13a13.87,13.87,0,0,0-2.24-9.82C229.93,94.37,230.45,92.43,231,90.53Z"/><path class="cls-6" d="M231,90.53l.94.21c4.77,5.29,7.78,18.29,4.75,24-3.36,6.34-14.12,9.77-20.68,6.83.51-.46,1-.93,1.47-1.42,8.67,2.57,14.23-4.5,15.06-12.66A28,28,0,0,0,230,94.16C230.31,92.94,230.64,91.73,231,90.53Z"/><path class="cls-7" d="M231,90.53l.94.21c4.77,5.29,7.78,18.29,4.75,24-3.36,6.34-14.12,9.77-20.68,6.83.15-.14.29-.29.45-.43a6.54,6.54,0,0,0,2,.46c7.41.57,16.33-4,17.64-11.82,1-5.92-.75-13.63-5.42-18C230.72,91.41,230.85,91,231,90.53Z"/><path class="cls-4" d="M254.73,123.53c-6.52,3-17.34-.23-20.78-6.51-3.12-5.69-.31-18.73,4.38-24.09l.93-.23C242.39,103.68,245.78,115.8,254.73,123.53Z"/><path class="cls-5" d="M249.87,121.15a6.49,6.49,0,0,0,2.5.09c.75.79,1.52,1.56,2.36,2.29-6.52,3-17.34-.23-20.78-6.51-3.12-5.69-.31-18.73,4.38-24.09l.93-.23c.54,1.89,1.09,3.82,1.67,5.76a13.86,13.86,0,0,0-2.08,9.85C239.87,114.61,243.42,119.63,249.87,121.15Z"/><path class="cls-6" d="M253.23,122.14c.48.47,1,.94,1.5,1.39-6.52,3-17.34-.23-20.78-6.51-3.12-5.69-.31-18.73,4.38-24.09l.93-.23,1,3.62A28,28,0,0,0,238,109.7C238.93,117.85,244.6,124.84,253.23,122.14Z"/><path class="cls-7" d="M252.3,123.6a6.69,6.69,0,0,0,2-.49l.45.42c-6.52,3-17.34-.23-20.78-6.51-3.12-5.69-.31-18.73,4.38-24.09l.93-.23c.12.43.25.88.38,1.31-4.61,4.39-6.24,12.13-5.16,18C235.92,119.87,244.9,124.28,252.3,123.6Z"/><path class="cls-4" d="M260.84,99.37c-4.93,3.79-14.67,3.07-18.76-1.59-3.7-4.21-3.78-15.74-.84-21.15l.75-.37C246.69,84.94,251.83,94.53,260.84,99.37Z"/><path class="cls-5" d="M256.29,98.26a5.23,5.23,0,0,0,2.13-.39c.78.53,1.58,1,2.42,1.5-4.93,3.79-14.67,3.07-18.76-1.59-3.7-4.21-3.78-15.74-.84-21.15l.75-.37c.81,1.5,1.64,3,2.49,4.54a12,12,0,0,0,.1,8.71C246.63,94.64,250.56,98.21,256.29,98.26Z"/><path class="cls-6" d="M259.31,98.47c.51.31,1,.61,1.53.9-4.93,3.79-14.67,3.07-18.76-1.59-3.7-4.21-3.78-15.74-.84-21.15l.75-.37,1.55,2.86a24.35,24.35,0,0,0,.56,11.73C246.44,97.55,252.54,102.38,259.31,98.47Z"/><path class="cls-7" d="M258.8,99.88a5.57,5.57,0,0,0,1.58-.79l.46.28c-4.93,3.79-14.67,3.07-18.76-1.59-3.7-4.21-3.78-15.74-.84-21.15l.75-.37c.19.34.37.69.56,1-3.06,4.57-3,11.41-1,16.18C244.28,99.82,252.69,101.85,258.8,99.88Z"/><path class="cls-4" d="M232.25,76.63c2.94,5.41,2.86,16.94-.84,21.15-4.09,4.66-13.83,5.38-18.76,1.59,9-4.84,14.15-14.43,18.86-23.11Z"/><path class="cls-5" d="M231.51,76.26l.74.37c2.94,5.41,2.86,16.94-.84,21.15-4.09,4.66-13.83,5.38-18.76,1.59.84-.46,1.64-1,2.42-1.5a5.23,5.23,0,0,0,2.13.39c5.73-.05,9.67-3.62,11.71-8.75a12,12,0,0,0,.1-8.71C229.87,79.28,230.69,77.76,231.51,76.26Z"/><path class="cls-6" d="M231.51,76.26l.74.37c2.94,5.41,2.86,16.94-.84,21.15-4.09,4.66-13.83,5.38-18.76,1.59.52-.29,1-.59,1.52-.9,6.78,3.91,12.88-.92,15.22-7.62a24.23,24.23,0,0,0,.55-11.73Z"/><path class="cls-7" d="M231.51,76.26l.74.37c2.94,5.41,2.86,16.94-.84,21.15-4.09,4.66-13.83,5.38-18.76,1.59l.46-.28a5.57,5.57,0,0,0,1.58.79c6.11,2,14.53-.06,17.21-6.4,2-4.77,2.1-11.61-1-16.18Z"/><path class="cls-4" d="M242.55,92.88c-2.05,5.84-10.82,10.15-16.81,8.47,6.55-7.85,7.73-18.66,8.86-28.48l.83.07C240.18,76.86,244.41,87.59,242.55,92.88Z"/><path class="cls-5" d="M234.6,72.87l.83.07c4.75,3.92,9,14.65,7.12,19.94-2.05,5.84-10.82,10.15-16.81,8.47a25,25,0,0,0,1.69-2.29,5.15,5.15,0,0,0,2.12-.43c5.29-2.19,7.61-7,7.59-12.49A12,12,0,0,0,234,78C234.21,76.29,234.4,74.57,234.6,72.87Z"/><path class="cls-6" d="M234.22,76.11c.13-1.08.25-2.17.38-3.24l.83.07c4.75,3.92,9,14.65,7.12,19.94-2.05,5.84-10.82,10.15-16.81,8.47.38-.45.74-.92,1.08-1.39,7.75,1.09,11.6-5.67,11.27-12.76A24.27,24.27,0,0,0,234.22,76.11Z"/><path class="cls-7" d="M234.46,74.05c0-.39.09-.79.14-1.18l.83.07c4.75,3.92,9,14.65,7.12,19.94-2.05,5.84-10.82,10.15-16.81,8.47l.33-.42a5.51,5.51,0,0,0,1.75.14c6.41-.46,13.46-5.49,13.58-12.36C241.49,83.52,239,77.15,234.46,74.05Z"/><path class="cls-4" d="M252.23,81.45c-4.07,3.13-12.09,2.54-15.46-1.3-3.05-3.47-3.12-13-.69-17.43l.61-.3C240.57,69.57,244.81,77.47,252.23,81.45Z"/><path class="cls-5" d="M248.48,80.55a4.17,4.17,0,0,0,1.75-.33,20.2,20.2,0,0,0,2,1.23c-4.07,3.13-12.09,2.54-15.46-1.3-3.05-3.47-3.12-13-.69-17.43l.61-.3c.67,1.23,1.35,2.49,2.06,3.74a9.89,9.89,0,0,0,.08,7.18C240.51,77.56,243.75,80.5,248.48,80.55Z"/><path class="cls-6" d="M251,80.72c.41.25.83.5,1.26.73-4.07,3.13-12.09,2.54-15.46-1.3-3.05-3.47-3.12-13-.69-17.43l.61-.3c.43.78.85,1.56,1.28,2.36a20,20,0,0,0,.46,9.66C240.36,80,245.39,83.93,251,80.72Z"/><path class="cls-7" d="M250.55,81.88a4.34,4.34,0,0,0,1.29-.65l.39.22c-4.07,3.13-12.09,2.54-15.46-1.3-3.05-3.47-3.12-13-.69-17.43l.61-.3.47.85c-2.52,3.77-2.46,9.4-.8,13.34C238.58,81.83,245.51,83.5,250.55,81.88Z"/><path class="cls-4" d="M236.62,60.44c2.42,5.09,2.35,16-.69,19.91-3.38,4.38-11.4,5.05-15.47,1.49,7.43-4.56,11.66-13.58,15.54-21.75Z"/><path class="cls-5" d="M236,60.09l.62.35c2.42,5.09,2.35,16-.69,19.91-3.38,4.38-11.4,5.05-15.47,1.49a21.76,21.76,0,0,0,2-1.41,3.92,3.92,0,0,0,1.75.37c4.72-.06,8-3.41,9.65-8.24a12.7,12.7,0,0,0,.08-8.19C234.65,62.93,235.33,61.5,236,60.09Z"/><path class="cls-6" d="M236,60.09l.62.35c2.42,5.09,2.35,16-.69,19.91-3.38,4.38-11.4,5.05-15.47,1.49.44-.27.86-.55,1.26-.85,5.58,3.68,11.16-.25,13.09-6.56a17.36,17.36,0,0,0-.1-11.65C235.15,61.88,235.58,61,236,60.09Z"/><path class="cls-7" d="M236,60.09l.62.35c2.42,5.09,2.35,16-.69,19.91-3.38,4.38-11.4,5.05-15.47,1.49.14-.08.26-.18.39-.26a4.33,4.33,0,0,0,1.3.74c5,1.85,12-.06,14.17-6,1.67-4.5,1.74-10.93-.79-15.23Z"/><path class="cls-2" d="M158.3,77.59c3.4-8.65,2.22-20.84,3.7-26.08,1.16-.3,1.76.9,2.68,1.58,0,6.33-.59,15.44,1.75,24.17C163.69,79.16,160.65,78,158.3,77.59Z"/><path class="cls-3" d="M164.64,62.52c-.58.89-.07-3.48,0,0Z"/><path class="cls-3" d="M158.3,77.59c2.47-6.29,2.47-13.27,2.9-19.92.09-1.35.19-2.7.38-4,.14-1.05.19-2.93,1.67-1.84.52.38.91.92,1.43,1.3,0,1,0,2.06,0,3.1,0,2.11,0,4.22,0,6.33-.07-3.48-.58.89,0,0-2.9,4.45-3.19,10.64-2.54,15.74C160.82,78.14,159.57,77.79,158.3,77.59Z"/><path class="cls-4" d="M196.83,52.68c-4,6-15,8.78-21.15,5.19C170.07,54.62,165.72,42,167,35l.67-.68C176,42.09,185.17,50.7,196.83,52.68Z"/><path class="cls-5" d="M172.05,38.37a13.87,13.87,0,0,0,3.32,9.51c4.13,4.87,9.76,7.32,16.07,5.27a6.16,6.16,0,0,0,2.18-1.21,28.75,28.75,0,0,0,3.21.74c-4,6-15,8.78-21.15,5.19C170.07,54.62,165.72,42,167,35l.67-.68C169.08,35.65,170.54,37,172.05,38.37Z"/><path class="cls-6" d="M170.4,36.87a28,28,0,0,0,4.94,12.65c5,6.48,13.5,9.52,19.49,2.74.66.16,1.33.31,2,.42-4,6-15,8.78-21.15,5.19C170.07,54.62,165.72,42,167,35l.67-.68C168.55,35.15,169.47,36,170.4,36.87Z"/><path class="cls-7" d="M194.79,54a6.49,6.49,0,0,0,1.43-1.44l.61.12c-4,6-15,8.78-21.15,5.19C170.07,54.62,165.72,42,167,35l.67-.68,1,.92c-1.67,6.15.94,13.62,4.91,18.1C178.83,59.29,188.8,58.41,194.79,54Z"/><path class="cls-4" d="M148.84,58.15c-6.29,3.42-17.16.33-21-5.75,11.71-1.67,21.11-10,29.68-17.59l.66.7C159.22,42.56,154.53,55.05,148.84,58.15Z"/><path class="cls-5" d="M149.41,48.17A13.86,13.86,0,0,0,153,38.76c1.54-1.32,3-2.64,4.52-3.95l.66.7c1.05,7.05-3.64,19.54-9.33,22.64-6.29,3.42-17.16.33-21-5.75a31.31,31.31,0,0,0,3.23-.66A6.19,6.19,0,0,0,133.21,53C139.46,55.23,145.16,52.93,149.41,48.17Z"/><path class="cls-6" d="M149.4,49.81a28,28,0,0,0,5.28-12.51l2.83-2.49.66.7c1.05,7.05-3.64,19.54-9.33,22.64-6.29,3.42-17.16.33-21-5.75.68-.1,1.35-.23,2-.36C135.65,59,144.2,56.16,149.4,49.81Z"/><path class="cls-7" d="M157.51,34.81l.66.7c1.05,7.05-3.64,19.54-9.33,22.64-6.29,3.42-17.16.33-21-5.75l.62-.11a7.1,7.1,0,0,0,1.39,1.48c5.86,4.57,15.81,5.71,21.24-.09,4.1-4.39,6.91-11.78,5.41-18Z"/><path class="cls-4" d="M159.71,30.6c4.71,5.35,7.56,18.38,4.47,24.08-3.43,6.29-14.22,9.6-20.76,6.59,8.92-7.77,12.27-19.9,15.36-30.9Z"/><path class="cls-5" d="M158.78,30.37l.93.23c4.71,5.35,7.56,18.38,4.47,24.08-3.43,6.29-14.22,9.6-20.76,6.59A32.08,32.08,0,0,0,145.77,59a6.12,6.12,0,0,0,2.5-.1c6.45-1.53,10-6.57,11-12.87a13.91,13.91,0,0,0-2.12-9.85C157.7,34.2,158.24,32.27,158.78,30.37Z"/><path class="cls-6" d="M158.78,30.37l.93.23c4.71,5.35,7.56,18.38,4.47,24.08-3.43,6.29-14.22,9.6-20.76,6.59.52-.46,1-.92,1.49-1.41,8.64,2.67,14.29-4.33,15.21-12.49A28.05,28.05,0,0,0,157.75,34C158.1,32.78,158.44,31.57,158.78,30.37Z"/><path class="cls-7" d="M158.78,30.37l.93.23c4.71,5.35,7.56,18.38,4.47,24.08-3.43,6.29-14.22,9.6-20.76,6.59l.46-.43a6.26,6.26,0,0,0,2,.48c7.4.66,16.38-3.79,17.78-11.62,1.06-5.9-.6-13.63-5.23-18C158.53,31.25,158.65,30.81,158.78,30.37Z"/><path class="cls-4" d="M182.16,63.65c-6.56,3-17.33-.42-20.71-6.75-3-5.72-.08-18.73,4.66-24l.94-.22C170.05,43.66,173.3,55.82,182.16,63.65Z"/><path class="cls-5" d="M177.33,61.21a6.33,6.33,0,0,0,2.5.12,31.88,31.88,0,0,0,2.33,2.32c-6.56,3-17.33-.42-20.71-6.75-3-5.72-.08-18.73,4.66-24l.94-.22c.52,1.91,1,3.84,1.61,5.78a13.83,13.83,0,0,0-2.2,9.83C167.41,54.56,170.89,59.62,177.33,61.21Z"/><path class="cls-6" d="M180.68,62.24c.48.49,1,1,1.48,1.41-6.56,3-17.33-.42-20.71-6.75-3-5.72-.08-18.73,4.66-24l.94-.22c.33,1.2.66,2.42,1,3.64a28.07,28.07,0,0,0-2.48,13.35C166.43,57.79,172,64.84,180.68,62.24Z"/><path class="cls-7" d="M179.73,63.69a6.39,6.39,0,0,0,2-.47l.45.43c-6.56,3-17.33-.42-20.71-6.75-3-5.72-.08-18.73,4.66-24l.94-.22.36,1.32c-4.65,4.34-6.38,12.06-5.36,18C163.39,59.77,172.32,64.29,179.73,63.69Z"/><path class="cls-4" d="M188.56,39.56c-5,3.74-14.71,2.91-18.75-1.8-3.65-4.25-3.6-15.79-.59-21.16l.75-.37C174.58,25,179.6,34.62,188.56,39.56Z"/><path class="cls-5" d="M184,38.41a5.23,5.23,0,0,0,2.13-.37,25.79,25.79,0,0,0,2.41,1.52c-5,3.74-14.71,2.91-18.75-1.8-3.65-4.25-3.6-15.79-.59-21.16l.75-.37c.79,1.51,1.6,3.05,2.44,4.58a12,12,0,0,0,0,8.71C174.39,34.67,178.29,38.28,184,38.41Z"/><path class="cls-6" d="M187,38.65c.49.32,1,.62,1.52.91-5,3.74-14.71,2.91-18.75-1.8-3.65-4.25-3.6-15.79-.59-21.16l.75-.37c.5,1,1,1.92,1.53,2.89a24.19,24.19,0,0,0,.41,11.73C174.18,37.58,180.22,42.48,187,38.65Z"/><path class="cls-7" d="M186.51,40.05a5.41,5.41,0,0,0,1.58-.77l.47.28c-5,3.74-14.71,2.91-18.75-1.8-3.65-4.25-3.6-15.79-.59-21.16l.75-.37.55,1.05c-3.11,4.54-3.11,11.38-1.15,16.18C172,39.82,180.37,42,186.51,40.05Z"/><path class="cls-4" d="M160.23,16.5c2.88,5.44,2.66,17-1.09,21.14C155,42.25,145.25,42.85,140.36,39c9.06-4.73,14.32-14.26,19.13-22.88Z"/><path class="cls-5" d="M159.49,16.12l.74.38c2.88,5.44,2.66,17-1.09,21.14C155,42.25,145.25,42.85,140.36,39a23.91,23.91,0,0,0,2.44-1.47,5.2,5.2,0,0,0,2.12.42c5.74,0,9.72-3.51,11.82-8.61a12.08,12.08,0,0,0,.2-8.71C157.82,19.12,158.66,17.6,159.49,16.12Z"/><path class="cls-6" d="M159.49,16.12l.74.38c2.88,5.44,2.66,17-1.09,21.14C155,42.25,145.25,42.85,140.36,39c.53-.28,1-.57,1.54-.87,6.73,4,12.89-.78,15.3-7.45A24.1,24.1,0,0,0,157.89,19Z"/><path class="cls-7" d="M159.49,16.12l.74.38c2.88,5.44,2.66,17-1.09,21.14C155,42.25,145.25,42.85,140.36,39c.16-.08.31-.18.47-.27a5.48,5.48,0,0,0,1.56.81c6.1,2,14.54.11,17.29-6.2,2.08-4.75,2.24-11.58-.77-16.19C159.1,16.8,159.3,16.45,159.49,16.12Z"/><path class="cls-4" d="M170.35,32.86c-2.14,5.82-10.95,10-16.92,8.28,6.64-7.77,7.95-18.57,9.19-28.37l.83.08C168.15,16.82,172.26,27.59,170.35,32.86Z"/><path class="cls-5" d="M162.62,12.77l.83.08c4.7,4,8.81,14.74,6.9,20-2.14,5.82-10.95,10-16.92,8.28a23.24,23.24,0,0,0,1.71-2.27,5.27,5.27,0,0,0,2.13-.4c5.32-2.14,7.69-6.89,7.74-12.41a12,12,0,0,0-3.07-8.15C162.19,16.18,162.4,14.46,162.62,12.77Z"/><path class="cls-6" d="M162.62,12.77l.83.08c4.7,4,8.81,14.74,6.9,20-2.14,5.82-10.95,10-16.92,8.28.38-.45.75-.91,1.1-1.38,7.73,1.18,11.66-5.53,11.41-12.63A24.12,24.12,0,0,0,162.2,16C162.35,14.92,162.48,13.84,162.62,12.77Z"/><path class="cls-7" d="M162.47,13.94l.15-1.17.83.08c4.7,4,8.81,14.74,6.9,20-2.14,5.82-10.95,10-16.92,8.28.12-.14.22-.28.33-.42a5.56,5.56,0,0,0,1.76.16c6.41-.38,13.52-5.33,13.72-12.2C169.38,23.49,167,17.09,162.47,13.94Z"/><path class="cls-4" d="M180.15,21.55c-4.1,3.08-12.12,2.39-15.45-1.48-3-3.51-3-13-.48-17.44l.61-.29C168.63,9.53,172.77,17.48,180.15,21.55Z"/><path class="cls-5" d="M176.41,20.6a4.49,4.49,0,0,0,1.75-.3c.64.44,1.3.87,2,1.25-4.1,3.08-12.12,2.39-15.45-1.48-3-3.51-3-13-.48-17.44l.61-.29c.66,1.24,1.33,2.5,2,3.76a9.88,9.88,0,0,0,0,7.18C168.48,17.52,171.69,20.5,176.41,20.6Z"/><path class="cls-6" d="M178.9,20.8c.41.26.82.51,1.25.75-4.1,3.08-12.12,2.39-15.45-1.48-3-3.51-3-13-.48-17.44l.61-.29,1.26,2.37a19.84,19.84,0,0,0,.35,9.66C168.3,19.91,173.28,24,178.9,20.8Z"/><path class="cls-7" d="M178.47,22a4.25,4.25,0,0,0,1.3-.63l.38.23c-4.1,3.08-12.12,2.39-15.45-1.48-3-3.51-3-13-.48-17.44l.61-.29.46.86c-2.56,3.73-2.57,9.37-.94,13.32C166.49,21.76,173.41,23.52,178.47,22Z"/><path class="cls-4" d="M164.78.36c2.37,5.11,2.17,16-.92,19.9-3.42,4.33-11.46,4.92-15.48,1.3C155.86,17.1,160.2,8.12,164.17,0Z"/><path class="cls-5" d="M164.17,0l.61.36c2.37,5.11,2.17,16-.92,19.9-3.42,4.33-11.46,4.92-15.48,1.3a21.08,21.08,0,0,0,2-1.37,4,4,0,0,0,1.74.38c4.72,0,8-3.32,9.75-8.12a12.88,12.88,0,0,0,.18-8.2C162.79,2.83,163.48,1.4,164.17,0Z"/><path class="cls-6" d="M164.17,0l.61.36c2.37,5.11,2.17,16-.92,19.9-3.42,4.33-11.46,4.92-15.48,1.3.44-.26.86-.53,1.27-.82,5.54,3.74,11.16-.13,13.16-6.41a17.4,17.4,0,0,0,0-11.65C163.3,1.78,163.74.88,164.17,0Z"/><path class="cls-7" d="M164.17,0l.61.36c2.37,5.11,2.17,16-.92,19.9-3.42,4.33-11.46,4.92-15.48,1.3a3.22,3.22,0,0,0,.39-.25,4.31,4.31,0,0,0,1.29.76c5,1.91,12,.08,14.25-5.86C166,11.74,166.17,5.3,163.69,1Z"/><path class="cls-2" d="M66,122.6c3.78-9.59,2.46-23.08,4.11-28.89,1.28-.33,2,1,3,1.76,0,7-.65,17.09,1.94,26.76C72,124.33,68.63,123,66,122.6Z"/><path class="cls-3" d="M73.05,105.91c-.64,1-.08-3.86,0,0Z"/><path class="cls-3" d="M66,122.6c2.75-7,2.75-14.7,3.22-22.07.09-1.49.21-3,.42-4.47.16-1.16.21-3.24,1.85-2,.58.42,1,1,1.58,1.44,0,1.14,0,2.28,0,3.42,0,2.34,0,4.68,0,7-.08-3.86-.64,1,0,0-3.21,4.92-3.53,11.78-2.81,17.42C68.81,123.21,67.43,122.82,66,122.6Z"/><path class="cls-4" d="M108.69,95c-4.43,6.62-16.55,9.72-23.42,5.75-6.21-3.61-11-17.57-9.66-25.33l.75-.76C85.62,83.28,95.78,92.82,108.69,95Z"/><path class="cls-5" d="M81.25,79.16A15.38,15.38,0,0,0,84.93,89.7c4.57,5.38,10.8,8.1,17.79,5.83a6.69,6.69,0,0,0,2.42-1.34,32.11,32.11,0,0,0,3.55.82c-4.43,6.62-16.55,9.72-23.42,5.75-6.21-3.61-11-17.57-9.66-25.33l.75-.76C78,76.15,79.59,77.67,81.25,79.16Z"/><path class="cls-6" d="M79.42,77.5c.77,5.22,2.72,10.47,5.47,14,5.58,7.18,15,10.54,21.58,3,.73.18,1.48.33,2.22.46-4.43,6.62-16.55,9.72-23.42,5.75-6.21-3.61-11-17.57-9.66-25.33l.75-.76Z"/><path class="cls-7" d="M106.43,96.47a7.08,7.08,0,0,0,1.59-1.6l.67.14c-4.43,6.62-16.55,9.72-23.42,5.75-6.21-3.61-11-17.57-9.66-25.33l.75-.76,1.12,1c-1.85,6.81,1,15.07,5.44,20C88.76,102.33,99.8,101.36,106.43,96.47Z"/><path class="cls-4" d="M55.56,101.06c-7,3.8-19,.37-23.27-6.36,13-1.85,23.38-11.11,32.87-19.47l.73.77C67.05,83.8,61.86,97.64,55.56,101.06Z"/><path class="cls-5" d="M56.19,90a15.4,15.4,0,0,0,4-10.43c1.7-1.45,3.37-2.92,5-4.36l.73.77c1.16,7.8-4,21.64-10.33,25.06-7,3.8-19,.37-23.27-6.36,1.22-.18,2.4-.44,3.57-.73a6.73,6.73,0,0,0,2.39,1.41C45.17,97.84,51.48,95.28,56.19,90Z"/><path class="cls-6" d="M56.18,91.84C59,88.37,61.12,83.18,62,78c1.06-.92,2.1-1.85,3.14-2.75l.73.77c1.16,7.8-4,21.64-10.33,25.06-7,3.8-19,.37-23.27-6.36.76-.11,1.5-.25,2.23-.4C41,102,50.41,98.86,56.18,91.84Z"/><path class="cls-7" d="M65.16,75.23l.73.77c1.16,7.8-4,21.64-10.33,25.06-7,3.8-19,.37-23.27-6.36l.68-.13a7.22,7.22,0,0,0,1.55,1.64C41,101.28,52,102.54,58,96.11c4.54-4.85,7.65-13,6-19.89Z"/><path class="cls-4" d="M67.59,70.57c5.21,5.91,8.37,20.34,5,26.65-3.8,7-15.75,10.63-23,7.3,9.88-8.6,13.59-22,17-34.21Z"/><path class="cls-5" d="M66.56,70.31l1,.26c5.21,5.91,8.37,20.34,5,26.65-3.8,7-15.75,10.63-23,7.3a33.1,33.1,0,0,0,2.6-2.56,6.74,6.74,0,0,0,2.77-.11c7.14-1.7,11-7.27,12.16-14.25a15.43,15.43,0,0,0-2.35-10.91C65.37,74.55,66,72.41,66.56,70.31Z"/><path class="cls-6" d="M66.56,70.31l1,.26c5.21,5.91,8.37,20.34,5,26.65-3.8,7-15.75,10.63-23,7.3.57-.5,1.12-1,1.65-1.55,9.57,3,15.82-4.81,16.84-13.84.51-4.45-.56-9.95-2.62-14.8Q66,72.31,66.56,70.31Z"/><path class="cls-7" d="M66.56,70.31l1,.26c5.21,5.91,8.37,20.34,5,26.65-3.8,7-15.75,10.63-23,7.3l.51-.48a7.18,7.18,0,0,0,2.19.54c8.19.73,18.12-4.19,19.67-12.87,1.18-6.53-.66-15.09-5.78-19.94Z"/><path class="cls-4" d="M92.45,107.16c-7.26,3.28-19.2-.47-22.93-7.48-3.38-6.33-.1-20.73,5.16-26.61l1-.25C79,85,82.64,98.49,92.45,107.16Z"/><path class="cls-5" d="M87.1,104.45a6.79,6.79,0,0,0,2.77.14,34.77,34.77,0,0,0,2.58,2.57c-7.26,3.28-19.2-.47-22.93-7.48-3.38-6.33-.1-20.73,5.16-26.61l1-.25c.57,2.11,1.16,4.25,1.78,6.4a15.34,15.34,0,0,0-2.43,10.89C76.11,97.1,80,102.7,87.1,104.45Z"/><path class="cls-6" d="M90.81,105.6c.53.53,1.07,1.05,1.64,1.56-7.26,3.28-19.2-.47-22.93-7.48-3.38-6.33-.1-20.73,5.16-26.61l1-.25c.36,1.33.73,2.68,1.1,4-2.1,4.84-3.21,10.32-2.75,14.79C75,100.67,81.22,108.48,90.81,105.6Z"/><path class="cls-7" d="M89.76,107.2a6.77,6.77,0,0,0,2.19-.52c.17.16.33.33.5.48-7.26,3.28-19.2-.47-22.93-7.48-3.38-6.33-.1-20.73,5.16-26.61l1-.25.4,1.46c-5.16,4.81-7.06,13.35-5.94,19.9C71.66,102.86,81.56,107.87,89.76,107.2Z"/><path class="cls-4" d="M99.53,80.49c-5.52,4.13-16.28,3.21-20.76-2-4-4.71-4-17.48-.66-23.43l.84-.4C84.05,64.33,89.62,75,99.53,80.49Z"/><path class="cls-5" d="M94.51,79.21a5.82,5.82,0,0,0,2.36-.41,30,30,0,0,0,2.66,1.69c-5.52,4.13-16.28,3.21-20.76-2-4-4.71-4-17.48-.66-23.43l.84-.4c.88,1.66,1.77,3.36,2.7,5.06a13.33,13.33,0,0,0,0,9.65C83.85,75.06,88.16,79.07,94.51,79.21Z"/><path class="cls-6" d="M97.85,79.48c.54.35,1.1.68,1.68,1-5.52,4.13-16.28,3.21-20.76-2-4-4.71-4-17.48-.66-23.43l.84-.4c.55,1.05,1.12,2.11,1.69,3.19a26.84,26.84,0,0,0,.46,13C83.61,78.29,90.3,83.71,97.85,79.48Z"/><path class="cls-7" d="M97.27,81A6.35,6.35,0,0,0,99,80.17l.51.32c-5.52,4.13-16.28,3.21-20.76-2-4-4.71-4-17.48-.66-23.43l.84-.4.61,1.16c-3.45,5-3.45,12.59-1.27,17.9C81.18,80.77,90.47,83.13,97.27,81Z"/><path class="cls-4" d="M68.16,54.94c3.19,6,3,18.8-1.2,23.41-4.59,5.11-15.38,5.78-20.79,1.51C56.2,74.62,62,64.07,67.34,54.53Z"/><path class="cls-5" d="M67.34,54.53l.82.41c3.19,6,3,18.8-1.2,23.41-4.59,5.11-15.38,5.78-20.79,1.51a29.22,29.22,0,0,0,2.7-1.62,5.86,5.86,0,0,0,2.35.46c6.34,0,10.75-3.89,13.08-9.53a13.3,13.3,0,0,0,.22-9.65C65.49,57.85,66.43,56.17,67.34,54.53Z"/><path class="cls-6" d="M67.34,54.53l.82.41c3.19,6,3,18.8-1.2,23.41-4.59,5.11-15.38,5.78-20.79,1.51.58-.3,1.14-.63,1.7-1,7.45,4.4,14.27-.86,16.94-8.25a26.73,26.73,0,0,0,.77-13C66.18,56.61,66.76,55.56,67.34,54.53Z"/><path class="cls-7" d="M67.34,54.53l.82.41c3.19,6,3,18.8-1.2,23.41-4.59,5.11-15.38,5.78-20.79,1.51l.51-.29a6.41,6.41,0,0,0,1.73.89c6.75,2.26,16.1.12,19.15-6.86,2.3-5.26,2.48-12.83-.86-17.93C66.91,55.28,67.13,54.9,67.34,54.53Z"/><path class="cls-4" d="M79.37,73.06C77,79.51,67.25,84.17,60.64,82.23c7.35-8.61,8.8-20.56,10.17-31.41l.92.08C76.94,55.3,81.49,67.23,79.37,73.06Z"/><path class="cls-5" d="M70.81,50.82l.92.08c5.21,4.4,9.76,16.33,7.64,22.16C77,79.51,67.25,84.17,60.64,82.23a26.57,26.57,0,0,0,1.89-2.51,5.76,5.76,0,0,0,2.36-.45c5.89-2.36,8.52-7.62,8.57-13.73a13.26,13.26,0,0,0-3.4-9C70.33,54.59,70.57,52.69,70.81,50.82Z"/><path class="cls-6" d="M70.81,50.82l.92.08c5.21,4.4,9.76,16.33,7.64,22.16C77,79.51,67.25,84.17,60.64,82.23c.42-.49.83-1,1.21-1.53,8.56,1.31,12.92-6.12,12.64-14A26.79,26.79,0,0,0,70.35,54.4C70.51,53.2,70.66,52,70.81,50.82Z"/><path class="cls-7" d="M70.65,52.12c0-.44.11-.87.16-1.3l.92.08c5.21,4.4,9.76,16.33,7.64,22.16C77,79.51,67.25,84.17,60.64,82.23c.13-.15.24-.31.36-.46A6.44,6.44,0,0,0,63,82c7.1-.42,15-5.9,15.19-13.52C78.3,62.69,75.64,55.61,70.65,52.12Z"/><path class="cls-4" d="M90.22,60.54C85.68,64,76.8,63.19,73.12,58.9c-3.33-3.88-3.28-14.4-.54-19.3l.68-.34C77.46,47.23,82.05,56,90.22,60.54Z"/><path class="cls-5" d="M86.08,59.49A4.87,4.87,0,0,0,88,59.15a22.66,22.66,0,0,0,2.2,1.39C85.68,64,76.8,63.19,73.12,58.9c-3.33-3.88-3.28-14.4-.54-19.3l.68-.34c.72,1.38,1.47,2.78,2.23,4.17a10.91,10.91,0,0,0,0,8C77.29,56.08,80.85,59.37,86.08,59.49Z"/><path class="cls-6" d="M88.84,59.71c.45.29.91.57,1.38.83C85.68,64,76.8,63.19,73.12,58.9c-3.33-3.88-3.28-14.4-.54-19.3l.68-.34,1.39,2.63A22.13,22.13,0,0,0,75,52.6C77.1,58.73,82.62,63.2,88.84,59.71Z"/><path class="cls-7" d="M88.36,61a5.08,5.08,0,0,0,1.44-.7l.42.25C85.68,64,76.8,63.19,73.12,58.9c-3.33-3.88-3.28-14.4-.54-19.3l.68-.34c.17.32.34.64.5,1-2.83,4.14-2.84,10.37-1,14.75C75.1,60.78,82.75,62.72,88.36,61Z"/><path class="cls-4" d="M73.2,37.08c2.62,5.66,2.41,17.68-1,22-3.79,4.8-12.68,5.45-17.13,1.45,8.27-5,13.08-14.89,17.47-23.88Z"/><path class="cls-5" d="M72.52,36.68l.68.4c2.62,5.66,2.41,17.68-1,22-3.79,4.8-12.68,5.45-17.13,1.45A25.88,25.88,0,0,0,57.28,59a4.32,4.32,0,0,0,1.93.43c5.23,0,8.87-3.68,10.79-9a14.21,14.21,0,0,0,.2-9.08C71,39.81,71.77,38.23,72.52,36.68Z"/><path class="cls-6" d="M72.52,36.68l.68.4c2.62,5.66,2.41,17.68-1,22-3.79,4.8-12.68,5.45-17.13,1.45.48-.29.94-.6,1.4-.92,6.13,4.14,12.36-.14,14.57-7.1,1.1-3.43,1.9-8.18,0-12.9C71.56,38.65,72.05,37.66,72.52,36.68Z"/><path class="cls-7" d="M72.52,36.68l.68.4c2.62,5.66,2.41,17.68-1,22-3.79,4.8-12.68,5.45-17.13,1.45l.43-.28a5.08,5.08,0,0,0,1.42.84c5.56,2.11,13.25.09,15.78-6.49,1.9-5,2.06-12.08-.68-16.88C72.17,37.39,72.35,37,72.52,36.68Z"/><path class="cls-8" d="M103.75,123.21c4.69-12.34,2.81-29.61,4.82-37.07,1.64-.45,2.52,1.25,3.83,2.21.06,9-.58,21.89,2.88,34.24C111.42,125.34,107.09,123.67,103.75,123.21Z"/><path class="cls-9" d="M103.75,123.21c3.41-9,3.29-18.88,3.79-28.32.11-1.91.22-3.83.47-5.74.19-1.49.22-4.15,2.35-2.64.74.54,1.3,1.29,2,1.84,0,1.45,0,2.92,0,4.38,0,3,0,6,.1,9-.15-4.94-.8,1.27,0,0-4,6.35-4.35,15.15-3.34,22.36C107.33,123.94,105.57,123.46,103.75,123.21Z"/><path class="cls-9" d="M112.5,101.72c-.8,1.27-.15-4.94,0,0Z"/><path class="cls-10" d="M158,87.22c-5.6,8.55-21.07,12.71-29.93,7.71-8-4.51-14.38-22.34-12.74-32.3l1-1C128.28,72.54,141.44,84.61,158,87.22Z"/><path class="cls-11" d="M122.61,67.33a19.72,19.72,0,0,0,4.87,13.44c5.94,6.83,14,10.22,22.88,7.22a8.67,8.67,0,0,0,3.08-1.77,40.81,40.81,0,0,0,4.57,1c-5.6,8.55-21.07,12.71-29.93,7.71-8-4.51-14.38-22.34-12.74-32.3l1-1C118.35,63.53,120.46,65.44,122.61,67.33Z"/><path class="cls-12" d="M120.25,65.23c1,6.68,3.63,13.37,7.22,17.87,7.24,9.1,19.31,13.28,27.68,3.57.94.21,1.89.41,2.86.55-5.6,8.55-21.07,12.71-29.93,7.71-8-4.51-14.38-22.34-12.74-32.3l1-1Q118.24,63.43,120.25,65.23Z"/><path class="cls-13" d="M155.12,89.13a9.16,9.16,0,0,0,2-2.07c.29,0,.58.12.87.16-5.6,8.55-21.07,12.71-29.93,7.71-8-4.51-14.38-22.34-12.74-32.3l1-1L117.72,63c-2.26,8.74,1.56,19.29,7.28,25.59C132.58,96.9,146.71,95.49,155.12,89.13Z"/><path class="cls-10" d="M90,95.77c-8.88,5-24.33.75-29.89-7.81,16.58-2.55,29.78-14.58,41.8-25.43l.95,1C104.49,73.48,98.05,91.28,90,95.77Z"/><path class="cls-11" d="M90.67,81.62a19.77,19.77,0,0,0,4.92-13.43c2.15-1.88,4.26-3.79,6.34-5.66l.95,1c1.61,10-4.83,27.77-12.86,32.26-8.88,5-24.33.75-29.89-7.81a43.5,43.5,0,0,0,4.56-1,8.66,8.66,0,0,0,3.07,1.78C76.67,91.79,84.71,88.42,90.67,81.62Z"/><path class="cls-12" d="M90.68,83.94c3.6-4.49,6.19-11.17,7.27-17.84,1.34-1.19,2.68-2.39,4-3.57l.95,1c1.61,10-4.83,27.77-12.86,32.26-8.88,5-24.33.75-29.89-7.81.95-.15,1.9-.34,2.85-.55C71.32,97.16,83.4,93,90.68,83.94Z"/><path class="cls-13" d="M101.93,62.53l.95,1c1.61,10-4.83,27.77-12.86,32.26-8.88,5-24.33.75-29.89-7.81L61,87.8a8.85,8.85,0,0,0,2,2.07c8.38,6.39,22.51,7.85,30.13-.48,5.73-6.28,9.59-16.82,7.36-25.57Z"/><path class="cls-10" d="M105,56.52c6.76,7.51,11,25.94,6.73,34.07-4.76,9-20,13.86-29.34,9.69,12.53-11.15,17.07-28.42,21.28-44.07Z"/><path class="cls-11" d="M103.66,56.21l1.33.31c6.76,7.51,11,25.94,6.73,34.07-4.76,9-20,13.86-29.34,9.69A41.22,41.22,0,0,0,85.68,97a8.65,8.65,0,0,0,3.54-.18c9.13-2.28,14-9.48,15.36-18.44a19.7,19.7,0,0,0-3.17-13.93C102.19,61.66,102.93,58.91,103.66,56.21Z"/><path class="cls-12" d="M103.66,56.21l1.33.31c6.76,7.51,11,25.94,6.73,34.07-4.76,9-20,13.86-29.34,9.69.73-.65,1.42-1.32,2.1-2,12.3,3.65,20.19-6.38,21.37-18,.58-5.72-.87-12.74-3.59-18.93C102.74,59.64,103.2,57.92,103.66,56.21Z"/><path class="cls-13" d="M103.66,56.21l1.33.31c6.76,7.51,11,25.94,6.73,34.07-4.76,9-20,13.86-29.34,9.69l.64-.61a9,9,0,0,0,2.81.65c10.51.82,23.16-5.64,25-16.77,1.4-8.4-1.08-19.34-7.71-25.46Z"/><path class="cls-10" d="M137.38,103c-9.26,4.31-24.59-.32-29.49-9.23-4.42-8.07-.43-26.57,6.22-34.18l1.32-.33C119.87,74.87,124.68,92.07,137.38,103Z"/><path class="cls-11" d="M130.49,99.65a8.75,8.75,0,0,0,3.54.13,42.93,42.93,0,0,0,3.35,3.25c-9.26,4.31-24.59-.32-29.49-9.23-4.42-8.07-.43-26.57,6.22-34.18l1.32-.33c.77,2.69,1.55,5.42,2.37,8.17a19.69,19.69,0,0,0-3,14C116.29,90.38,121.33,97.5,130.49,99.65Z"/><path class="cls-12" d="M135.25,101.06c.69.67,1.39,1.34,2.13,2-9.26,4.31-24.59-.32-29.49-9.23-4.42-8.07-.43-26.57,6.22-34.18l1.32-.33c.49,1.7,1,3.42,1.48,5.14-2.63,6.23-4,13.28-3.31,19C115,95,123,104.89,135.25,101.06Z"/><path class="cls-13" d="M133.93,103.13a9.2,9.2,0,0,0,2.8-.7c.22.2.43.41.65.6-9.26,4.31-24.59-.32-29.49-9.23-4.42-8.07-.43-26.57,6.22-34.18l1.32-.33c.18.62.36,1.25.53,1.87-6.52,6.23-8.84,17.21-7.31,25.58C110.68,97.84,123.43,104.1,133.93,103.13Z"/><path class="cls-10" d="M146.05,68.75c-7,5.38-20.82,4.36-26.62-2.24-5.25-6-5.37-22.34-1.19-30L119.3,36C126,48.28,133.27,61.89,146.05,68.75Z"/><path class="cls-11" d="M139.6,67.19a7.5,7.5,0,0,0,3-.56,36.31,36.31,0,0,0,3.43,2.12c-7,5.38-20.82,4.36-26.62-2.24-5.25-6-5.37-22.34-1.19-30L119.3,36c1.15,2.13,2.32,4.29,3.53,6.45A17,17,0,0,0,123,54.78C125.88,62.05,131.46,67.11,139.6,67.19Z"/><path class="cls-12" d="M143.89,67.49q1.05.66,2.16,1.26c-7,5.38-20.82,4.36-26.62-2.24-5.25-6-5.37-22.34-1.19-30L119.3,36c.73,1.34,1.46,2.7,2.21,4.06-1,5.75-.84,11.95.79,16.64C125.62,66.17,134.28,73,143.89,67.49Z"/><path class="cls-13" d="M143.16,69.48a7.88,7.88,0,0,0,2.23-1.11l.66.38c-7,5.38-20.82,4.36-26.62-2.24-5.25-6-5.37-22.34-1.19-30L119.3,36c.26.49.53,1,.8,1.47-4.34,6.49-4.23,16.19-1.36,23C122.54,69.39,134.48,72.28,143.16,69.48Z"/><path class="cls-10" d="M105.49,36.5c4.17,7.67,4.06,24-1.19,30-5.81,6.6-19.63,7.62-26.62,2.24C90.46,61.89,97.75,48.28,104.43,36Z"/><path class="cls-11" d="M104.43,36l1.06.53c4.17,7.67,4.06,24-1.19,30-5.81,6.6-19.63,7.62-26.62,2.24a36.31,36.31,0,0,0,3.43-2.12,7.47,7.47,0,0,0,3,.56c8.13-.08,13.72-5.14,16.61-12.41a17,17,0,0,0,.15-12.36C102.11,40.26,103.27,38.1,104.43,36Z"/><path class="cls-12" d="M104.43,36l1.06.53c4.17,7.67,4.06,24-1.19,30-5.81,6.6-19.63,7.62-26.62,2.24q1.11-.6,2.16-1.26c9.61,5.53,18.27-1.32,21.59-10.82,1.63-4.69,1.83-10.89.79-16.64Z"/><path class="cls-13" d="M104.43,36l1.06.53c4.17,7.67,4.06,24-1.19,30-5.81,6.6-19.63,7.62-26.62,2.24.22-.12.43-.26.66-.38a7.88,7.88,0,0,0,2.23,1.11c8.68,2.8,20.61-.09,24.42-9.07,2.87-6.78,3-16.48-1.37-23C103.89,37,104.17,36.46,104.43,36Z"/><path class="cls-10" d="M120.11,59.55c-2.92,8.29-15.36,14.4-23.86,12,9.29-11.15,11-26.49,12.56-40.41l1.18.1C116.74,36.82,122.74,52,120.11,59.55Z"/><path class="cls-11" d="M108.81,31.17l1.18.1c6.75,5.55,12.75,20.77,10.12,28.28-2.92,8.29-15.36,14.4-23.86,12a37.27,37.27,0,0,0,2.39-3.26,7.37,7.37,0,0,0,3-.6c7.51-3.12,10.8-9.9,10.78-17.73a17.06,17.06,0,0,0-4.49-11.51C108.26,36,108.54,33.58,108.81,31.17Z"/><path class="cls-12" d="M108.28,35.77c.19-1.55.36-3.08.53-4.6l1.18.1c6.75,5.55,12.75,20.77,10.12,28.28-2.92,8.29-15.36,14.4-23.86,12,.54-.65,1-1.31,1.54-2,11,1.55,16.45-8,16-18.09C113.53,46.53,111.39,40.71,108.28,35.77Z"/><path class="cls-13" d="M108.62,32.84c.06-.55.14-1.12.19-1.67l1.18.1c6.75,5.55,12.75,20.77,10.12,28.28-2.92,8.29-15.36,14.4-23.86,12,.16-.2.3-.41.46-.61a7.76,7.76,0,0,0,2.49.2c9.1-.65,19.1-7.78,19.26-17.54C118.59,46.27,115.08,37.24,108.62,32.84Z"/><path class="cls-10" d="M133.83,43.34c-5.77,4.43-17.15,3.59-21.94-1.84-4.32-4.93-4.42-18.41-1-24.73l.87-.43C117.29,26.48,123.3,37.69,133.83,43.34Z"/><path class="cls-11" d="M128.51,42.06A6.17,6.17,0,0,0,131,41.6a31.22,31.22,0,0,0,2.84,1.74c-5.77,4.43-17.15,3.59-21.94-1.84-4.32-4.93-4.42-18.41-1-24.73l.87-.43c.95,1.75,1.91,3.53,2.91,5.31a14,14,0,0,0,.12,10.17C117.21,37.81,121.81,42,128.51,42.06Z"/><path class="cls-12" d="M132,42.3c.59.37,1.17.72,1.79,1-5.77,4.43-17.15,3.59-21.94-1.84-4.32-4.93-4.42-18.41-1-24.73l.87-.43,1.81,3.34a28.42,28.42,0,0,0,.66,13.71C117,41.22,124.12,46.86,132,42.3Z"/><path class="cls-13" d="M131.45,44a6.9,6.9,0,0,0,1.84-.93c.18.11.35.22.54.32-5.77,4.43-17.15,3.59-21.94-1.84-4.32-4.93-4.42-18.41-1-24.73l.87-.43c.21.4.44.8.65,1.21-3.57,5.34-3.48,13.34-1.11,18.91C114.46,43.87,124.3,46.25,131.45,44Z"/><path class="cls-10" d="M111.68,13.53c3.44,7.22,3.35,22.62-1,28.24C105.91,48,94.53,49,88.76,43.89c10.53-6.46,16.54-19.27,22-30.86Z"/><path class="cls-11" d="M110.81,13l.87.5c3.44,7.22,3.35,22.62-1,28.24C105.91,48,94.53,49,88.76,43.89a31.49,31.49,0,0,0,2.84-2,5.55,5.55,0,0,0,2.48.53c6.7-.08,11.3-4.85,13.7-11.69a18.3,18.3,0,0,0,.11-11.63C108.89,17.07,109.86,15,110.81,13Z"/><path class="cls-12" d="M110.81,13l.87.5c3.44,7.22,3.35,22.62-1,28.24C105.91,48,94.53,49,88.76,43.89c.62-.38,1.21-.78,1.79-1.2,7.92,5.21,15.83-.36,18.56-9.31,1.35-4.41,2.31-10.51-.12-16.53C109.6,15.57,110.2,14.3,110.81,13Z"/><path class="cls-13" d="M110.81,13l.87.5c3.44,7.22,3.35,22.62-1,28.24C105.91,48,94.53,49,88.76,43.89l.55-.37a6.23,6.23,0,0,0,1.84,1c7.15,2.63,17-.08,20.12-8.54,2.36-6.38,2.45-15.5-1.12-21.61C110.36,14,110.59,13.49,110.81,13Z"/><path class="cls-8" d="M175.22,134.33c2.64-7,1.58-16.7,2.72-20.9.92-.25,1.41.7,2.15,1.24,0,5.06-.32,12.35,1.63,19.32C179.54,135.53,177.1,134.59,175.22,134.33Z"/><path class="cls-9" d="M175.22,134.33c1.92-5.06,1.85-10.64,2.14-16,0-1.08.12-2.16.26-3.23.1-.84.12-2.34,1.32-1.49.42.3.74.73,1.15,1,0,.83,0,1.65,0,2.47,0,1.7,0,3.38.06,5.07-.09-2.78-.45.72,0,0-2.27,3.59-2.45,8.55-1.89,12.61C177.24,134.74,176.24,134.47,175.22,134.33Z"/><path class="cls-9" d="M180.15,122.21c-.45.72-.09-2.78,0,0Z"/><path class="cls-10" d="M205.81,114c-3.15,4.82-11.88,7.16-16.88,4.35-4.51-2.55-8.11-12.6-7.19-18.22l.54-.55C189,105.76,196.46,112.57,205.81,114Z"/><path class="cls-11" d="M185.85,102.83a11.09,11.09,0,0,0,2.75,7.57c3.34,3.85,7.87,5.77,12.9,4.07a4.83,4.83,0,0,0,1.73-1,24.65,24.65,0,0,0,2.58.56c-3.15,4.82-11.88,7.16-16.88,4.35-4.51-2.55-8.11-12.6-7.19-18.22l.54-.55C183.45,100.68,184.64,101.76,185.85,102.83Z"/><path class="cls-12" d="M184.51,101.64a22.27,22.27,0,0,0,4.08,10.07c4.09,5.14,10.89,7.49,15.61,2,.53.12,1.07.23,1.61.31-3.15,4.82-11.88,7.16-16.88,4.35-4.51-2.55-8.11-12.6-7.19-18.22l.54-.55Z"/><path class="cls-13" d="M204.18,115.11a5.2,5.2,0,0,0,1.14-1.16l.49.09c-3.15,4.82-11.88,7.16-16.88,4.35-4.51-2.55-8.11-12.6-7.19-18.22l.54-.55.81.73c-1.27,4.93.88,10.88,4.11,14.43C191.47,119.49,199.44,118.7,204.18,115.11Z"/><path class="cls-10" d="M167.47,118.86c-5,2.8-13.72.43-16.86-4.4,9.36-1.44,16.8-8.23,23.58-14.34l.53.55C175.63,106.29,172,116.33,167.47,118.86Z"/><path class="cls-11" d="M167.84,110.88a11.08,11.08,0,0,0,2.77-7.57c1.22-1.06,2.41-2.14,3.58-3.19l.53.55c.91,5.62-2.72,15.66-7.25,18.19-5,2.8-13.72.43-16.86-4.4.88-.14,1.74-.34,2.58-.56a5,5,0,0,0,1.73,1C160,116.62,164.48,114.72,167.84,110.88Z"/><path class="cls-12" d="M167.85,112.19a22.52,22.52,0,0,0,4.1-10.06l2.24-2,.53.55c.91,5.62-2.72,15.66-7.25,18.19-5,2.8-13.72.43-16.86-4.4.55-.09,1.08-.19,1.61-.31C156.93,119.64,163.74,117.31,167.85,112.19Z"/><path class="cls-13" d="M174.19,100.12l.53.55c.91,5.62-2.72,15.66-7.25,18.19-5,2.8-13.72.43-16.86-4.4l.5-.1a5.13,5.13,0,0,0,1.12,1.17c4.73,3.61,12.7,4.43,17-.27,3.23-3.54,5.41-9.48,4.15-14.41Z"/><path class="cls-10" d="M179.71,115.94c-2.68,5.07-11.29,7.82-16.55,5.46,7.07-6.29,9.64-16,12-24.85l.75.18C179.73,101,182.13,111.36,179.71,115.94Z"/><path class="cls-11" d="M175.16,96.55l.75.18c3.82,4.23,6.22,14.63,3.8,19.21-2.68,5.07-11.29,7.82-16.55,5.46a23.32,23.32,0,0,0,1.86-1.86,4.92,4.92,0,0,0,2-.1c5.15-1.29,7.92-5.35,8.66-10.4a11.17,11.17,0,0,0-1.78-7.86C174.34,99.63,174.75,98.08,175.16,96.55Z"/><path class="cls-12" d="M175.16,96.55l.75.18c3.82,4.23,6.22,14.63,3.8,19.21-2.68,5.07-11.29,7.82-16.55,5.46.41-.36.81-.74,1.19-1.13,6.93,2.06,11.39-3.6,12.05-10.13a22.45,22.45,0,0,0-2-10.68C174.64,98.49,174.91,97.52,175.16,96.55Z"/><path class="cls-13" d="M175.16,96.55l.75.18c3.82,4.23,6.22,14.63,3.8,19.21-2.68,5.07-11.29,7.82-16.55,5.46l.37-.34a5.31,5.31,0,0,0,1.58.37c5.93.46,13.06-3.18,14.11-9.46.79-4.73-.6-10.9-4.34-14.36Z"/><path class="cls-10" d="M194.18,123c-5.22,2.43-13.87-.17-16.63-5.2-2.49-4.55-.25-15,3.5-19.27l.75-.19C184.3,107.08,187,116.77,194.18,123Z"/><path class="cls-11" d="M190.29,121.05a4.88,4.88,0,0,0,2,.07,23.43,23.43,0,0,0,1.89,1.83c-5.22,2.43-13.87-.17-16.63-5.2-2.49-4.55-.25-15,3.5-19.27l.75-.19c.44,1.52.87,3.06,1.34,4.61a11.15,11.15,0,0,0-1.67,7.88C182.29,115.82,185.12,119.84,190.29,121.05Z"/><path class="cls-12" d="M193,121.84q.57.57,1.2,1.11c-5.22,2.43-13.87-.17-16.63-5.2-2.49-4.55-.25-15,3.5-19.27l.75-.19c.27,1,.55,1.93.83,2.9a22.47,22.47,0,0,0-1.86,10.7C181.54,118.41,186.07,124,193,121.84Z"/><path class="cls-13" d="M192.23,123a5.09,5.09,0,0,0,1.58-.4l.37.34c-5.22,2.43-13.87-.17-16.63-5.2-2.49-4.55-.25-15,3.5-19.27l.75-.19.3,1c-3.68,3.52-5,9.7-4.12,14.43C179.12,120,186.31,123.56,192.23,123Z"/><path class="cls-10" d="M199.07,103.63c-3.95,3-11.74,2.45-15-1.27-3-3.37-3-12.6-.66-16.92l.59-.3C187.75,92.08,191.86,99.75,199.07,103.63Z"/><path class="cls-11" d="M195.43,102.75a4.3,4.3,0,0,0,1.7-.32,21,21,0,0,0,1.94,1.2c-3.95,3-11.74,2.45-15-1.27-3-3.37-3-12.6-.66-16.92l.59-.3c.65,1.2,1.31,2.42,2,3.64a9.59,9.59,0,0,0,.08,7C187.69,99.84,190.84,102.7,195.43,102.75Z"/><path class="cls-12" d="M197.85,102.91c.39.25.8.49,1.22.72-3.95,3-11.74,2.45-15-1.27-3-3.37-3-12.6-.66-16.92l.59-.3,1.25,2.29a19.39,19.39,0,0,0,.44,9.38C187.54,102.17,192.42,106,197.85,102.91Z"/><path class="cls-13" d="M197.44,104a4.72,4.72,0,0,0,1.25-.63l.38.22c-3.95,3-11.74,2.45-15-1.27-3-3.37-3-12.6-.66-16.92l.59-.3.46.83c-2.46,3.66-2.39,9.13-.77,13C185.81,104,192.54,105.61,197.44,104Z"/><path class="cls-10" d="M176.2,85.44c2.35,4.32,2.28,13.55-.67,16.92-3.28,3.72-11.07,4.3-15,1.27,7.21-3.88,11.32-11.55,15.09-18.49Z"/><path class="cls-11" d="M175.6,85.14l.6.3c2.35,4.32,2.28,13.55-.67,16.92-3.28,3.72-11.07,4.3-15,1.27a21,21,0,0,0,1.94-1.2,4.3,4.3,0,0,0,1.7.32c4.58,0,7.74-2.91,9.37-7a9.59,9.59,0,0,0,.08-7C174.29,87.56,175,86.34,175.6,85.14Z"/><path class="cls-12" d="M175.6,85.14l.6.3c2.35,4.32,2.28,13.55-.67,16.92-3.28,3.72-11.07,4.3-15,1.27.42-.23.82-.47,1.22-.72,5.43,3.12,10.3-.74,12.17-6.1a19.26,19.26,0,0,0,.45-9.38Z"/><path class="cls-13" d="M175.6,85.14l.6.3c2.35,4.32,2.28,13.55-.67,16.92-3.28,3.72-11.07,4.3-15,1.27l.38-.22a4.72,4.72,0,0,0,1.25.63c4.9,1.57,11.63-.05,13.77-5.12,1.62-3.82,1.69-9.29-.76-13Z"/><path class="cls-10" d="M184.44,98.44c-1.65,4.67-8.66,8.12-13.45,6.78,5.24-6.28,6.18-14.93,7.08-22.78l.66,0C182.54,85.62,185.92,94.21,184.44,98.44Z"/><path class="cls-11" d="M178.07,82.44l.66,0c3.81,3.13,7.19,11.72,5.71,16-1.65,4.67-8.66,8.12-13.45,6.78a21.69,21.69,0,0,0,1.35-1.84A4.11,4.11,0,0,0,174,103c4.24-1.76,6.09-5.58,6.08-10a9.62,9.62,0,0,0-2.53-6.49C177.76,85.17,177.92,83.79,178.07,82.44Z"/><path class="cls-12" d="M177.77,85c.1-.87.2-1.74.3-2.59l.66,0c3.81,3.13,7.19,11.72,5.71,16-1.65,4.67-8.66,8.12-13.45,6.78.3-.37.59-.74.86-1.12,6.2.87,9.28-4.53,9-10.21A19.28,19.28,0,0,0,177.77,85Z"/><path class="cls-13" d="M178,83.38c0-.31.07-.63.11-.94l.66,0c3.81,3.13,7.19,11.72,5.71,16-1.65,4.67-8.66,8.12-13.45,6.78l.26-.35a4.24,4.24,0,0,0,1.4.12c5.13-.37,10.77-4.39,10.86-9.89C183.58,91,181.6,85.86,178,83.38Z"/><path class="cls-10" d="M192.17,89.3c-3.25,2.5-9.66,2-12.36-1-2.44-2.78-2.5-10.38-.55-13.94l.49-.25C182.85,79.79,186.24,86.11,192.17,89.3Z"/><path class="cls-11" d="M189.17,88.57a3.37,3.37,0,0,0,1.4-.26,17.68,17.68,0,0,0,1.6,1c-3.25,2.5-9.66,2-12.36-1-2.44-2.78-2.5-10.38-.55-13.94l.49-.25c.53,1,1.07,2,1.64,3a7.88,7.88,0,0,0,.07,5.73C182.8,86.18,185.4,88.53,189.17,88.57Z"/><path class="cls-12" d="M191.16,88.71c.33.21.67.41,1,.59-3.25,2.5-9.66,2-12.36-1-2.44-2.78-2.5-10.38-.55-13.94l.49-.25c.33.62.68,1.25,1,1.89a16,16,0,0,0,.37,7.72C182.68,88.1,186.7,91.28,191.16,88.71Z"/><path class="cls-13" d="M190.83,89.64a3.75,3.75,0,0,0,1-.52l.3.18c-3.25,2.5-9.66,2-12.36-1-2.44-2.78-2.5-10.38-.55-13.94l.49-.25.37.69c-2,3-2,7.51-.63,10.66C181.25,89.6,186.8,90.94,190.83,89.64Z"/><path class="cls-10" d="M179.69,72.49c1.93,4.07,1.88,12.75-.56,15.93-2.69,3.5-9.11,4-12.36,1.19,5.93-3.65,9.32-10.87,12.42-17.4Z"/><path class="cls-11" d="M179.19,72.21l.5.28c1.93,4.07,1.88,12.75-.56,15.93-2.69,3.5-9.11,4-12.36,1.19.55-.35,1.08-.73,1.59-1.13a3.31,3.31,0,0,0,1.4.3c3.78,0,6.38-2.74,7.72-6.59a10.24,10.24,0,0,0,.07-6.56C178.12,74.48,178.66,73.34,179.19,72.21Z"/><path class="cls-12" d="M179.19,72.21l.5.28c1.93,4.07,1.88,12.75-.56,15.93-2.69,3.5-9.11,4-12.36,1.19.34-.22.68-.44,1-.68,4.47,2.94,8.93-.21,10.47-5.25a14,14,0,0,0-.07-9.32C178.51,73.64,178.86,72.92,179.19,72.21Z"/><path class="cls-13" d="M179.19,72.21l.5.28c1.93,4.07,1.88,12.75-.56,15.93-2.69,3.5-9.11,4-12.36,1.19l.3-.21a3.4,3.4,0,0,0,1,.59c4,1.48,9.58,0,11.35-4.81,1.32-3.6,1.38-8.75-.64-12.19Z"/><path class="cls-8" d="M194.34,180.22c2.64-6.95,1.58-16.69,2.71-20.9.93-.25,1.42.71,2.16,1.25,0,5.05-.33,12.35,1.63,19.31C198.66,181.42,196.22,180.49,194.34,180.22Z"/><path class="cls-9" d="M194.34,180.22c1.92-5.06,1.85-10.64,2.13-16,.06-1.08.12-2.16.26-3.24.11-.84.13-2.34,1.33-1.48.42.3.73.72,1.15,1,0,.82,0,1.65,0,2.47,0,1.69,0,3.38,0,5.07-.08-2.79-.45.72,0,0-2.27,3.58-2.45,8.54-1.88,12.61C196.35,180.64,195.35,180.36,194.34,180.22Z"/><path class="cls-9" d="M199.26,168.11c-.45.72-.08-2.79,0,0Z"/><path class="cls-10" d="M224.92,159.93c-3.15,4.82-11.87,7.17-16.87,4.35-4.52-2.55-8.11-12.59-7.19-18.22l.54-.55C208.16,151.66,215.58,158.46,224.92,159.93Z"/><path class="cls-11" d="M205,148.72a11.15,11.15,0,0,0,2.75,7.58c3.35,3.85,7.88,5.76,12.91,4.07a5,5,0,0,0,1.73-1,22.17,22.17,0,0,0,2.57.56c-3.15,4.82-11.87,7.17-16.87,4.35-4.52-2.55-8.11-12.59-7.19-18.22l.54-.55C202.56,146.57,203.75,147.65,205,148.72Z"/><path class="cls-12" d="M203.63,147.53a22.46,22.46,0,0,0,4.07,10.08c4.09,5.13,10.89,7.49,15.62,2,.53.12,1.06.23,1.6.31-3.15,4.82-11.87,7.17-16.87,4.35-4.52-2.55-8.11-12.59-7.19-18.22l.54-.55Z"/><path class="cls-13" d="M223.3,161a5.18,5.18,0,0,0,1.13-1.17l.49.09c-3.15,4.82-11.87,7.17-16.87,4.35-4.52-2.55-8.11-12.59-7.19-18.22l.54-.55.81.74c-1.28,4.92.88,10.87,4.1,14.43C210.59,165.39,218.56,164.6,223.3,161Z"/><path class="cls-10" d="M186.59,164.75c-5,2.81-13.72.43-16.86-4.4,9.35-1.44,16.79-8.22,23.58-14.34l.53.55C194.74,152.19,191.12,162.23,186.59,164.75Z"/><path class="cls-11" d="M187,156.77a11.12,11.12,0,0,0,2.77-7.57c1.22-1.06,2.4-2.14,3.58-3.19l.53.55c.9,5.63-2.72,15.67-7.25,18.19-5,2.81-13.72.43-16.86-4.4a24.65,24.65,0,0,0,2.58-.56,4.78,4.78,0,0,0,1.73,1C179.06,162.51,183.59,160.61,187,156.77Z"/><path class="cls-12" d="M187,158.08A22.37,22.37,0,0,0,191.07,148l2.24-2,.53.55c.9,5.63-2.72,15.67-7.25,18.19-5,2.81-13.72.43-16.86-4.4.55-.08,1.08-.19,1.61-.31C176.05,165.53,182.85,163.2,187,158.08Z"/><path class="cls-13" d="M193.31,146l.53.55c.9,5.63-2.72,15.67-7.25,18.19-5,2.81-13.72.43-16.86-4.4.17,0,.33-.07.5-.09a5.33,5.33,0,0,0,1.12,1.17c4.73,3.6,12.7,4.42,17-.28,3.24-3.54,5.41-9.48,4.16-14.41Z"/><path class="cls-10" d="M198.83,161.83c-2.69,5.07-11.29,7.82-16.55,5.47,7.07-6.29,9.63-16,12-24.85l.75.17C198.84,146.85,201.25,157.25,198.83,161.83Z"/><path class="cls-11" d="M194.28,142.45l.75.17c3.81,4.23,6.22,14.63,3.8,19.21-2.69,5.07-11.29,7.82-16.55,5.47a23.43,23.43,0,0,0,1.86-1.87,4.92,4.92,0,0,0,2-.1c5.15-1.29,7.92-5.35,8.66-10.4a11.13,11.13,0,0,0-1.79-7.86C193.45,145.52,193.87,144,194.28,142.45Z"/><path class="cls-12" d="M194.28,142.45l.75.17c3.81,4.23,6.22,14.63,3.8,19.21-2.69,5.07-11.29,7.82-16.55,5.47.41-.37.8-.75,1.19-1.13,6.93,2.05,11.38-3.61,12.05-10.14a22.43,22.43,0,0,0-2-10.67C193.76,144.38,194,143.41,194.28,142.45Z"/><path class="cls-13" d="M194.28,142.45l.75.17c3.81,4.23,6.22,14.63,3.8,19.21-2.69,5.07-11.29,7.82-16.55,5.47l.36-.35a4.88,4.88,0,0,0,1.59.37c5.93.46,13.06-3.18,14.11-9.46.79-4.73-.61-10.9-4.35-14.36C194.09,143.15,194.19,142.8,194.28,142.45Z"/><path class="cls-10" d="M213.29,168.85c-5.22,2.43-13.86-.18-16.62-5.21-2.5-4.55-.25-15,3.5-19.27l.75-.18C203.42,153,206.13,162.67,213.29,168.85Z"/><path class="cls-11" d="M209.41,166.94a4.88,4.88,0,0,0,2,.07,23.36,23.36,0,0,0,1.88,1.84c-5.22,2.43-13.86-.18-16.62-5.21-2.5-4.55-.25-15,3.5-19.27l.75-.18c.43,1.51.87,3.06,1.34,4.6a11.12,11.12,0,0,0-1.67,7.89C201.4,161.71,204.24,165.73,209.41,166.94Z"/><path class="cls-12" d="M212.09,167.73c.39.39.79.76,1.2,1.12-5.22,2.43-13.86-.18-16.62-5.21-2.5-4.55-.25-15,3.5-19.27l.75-.18c.27.95.54,1.92.83,2.89a22.37,22.37,0,0,0-1.86,10.7C200.66,164.31,205.19,169.9,212.09,167.73Z"/><path class="cls-13" d="M211.35,168.9a5.16,5.16,0,0,0,1.58-.39l.36.34c-5.22,2.43-13.86-.18-16.62-5.21-2.5-4.55-.25-15,3.5-19.27l.75-.18c.09.34.2.7.3,1-3.69,3.52-5,9.71-4.12,14.43C198.24,165.92,205.43,169.45,211.35,168.9Z"/><path class="cls-10" d="M218.18,149.52c-4,3-11.73,2.46-15-1.27-3-3.36-3-12.59-.67-16.92l.6-.3C206.87,138,211,145.65,218.18,149.52Z"/><path class="cls-11" d="M214.55,148.64a4,4,0,0,0,1.69-.32,21.54,21.54,0,0,0,1.94,1.2c-4,3-11.73,2.46-15-1.27-3-3.36-3-12.59-.67-16.92l.6-.3c.65,1.2,1.31,2.42,2,3.64a9.64,9.64,0,0,0,.08,7C206.81,145.74,210,148.59,214.55,148.64Z"/><path class="cls-12" d="M217,148.81l1.22.71c-4,3-11.73,2.46-15-1.27-3-3.36-3-12.59-.67-16.92l.6-.3c.41.76.82,1.53,1.25,2.3a19.39,19.39,0,0,0,.44,9.38C206.66,148.07,211.54,151.93,217,148.81Z"/><path class="cls-13" d="M216.55,149.93a4.64,4.64,0,0,0,1.26-.63l.37.22c-4,3-11.73,2.46-15-1.27-3-3.36-3-12.59-.67-16.92l.6-.3.45.84c-2.45,3.66-2.38,9.12-.77,12.95C204.93,149.88,211.66,151.5,216.55,149.93Z"/><path class="cls-10" d="M195.31,131.33c2.36,4.33,2.29,13.56-.67,16.92-3.27,3.73-11.07,4.3-15,1.27C186.83,145.65,191,138,194.71,131Z"/><path class="cls-11" d="M194.71,131l.6.3c2.36,4.33,2.29,13.56-.67,16.92-3.27,3.73-11.07,4.3-15,1.27a20.22,20.22,0,0,0,1.94-1.2,4.09,4.09,0,0,0,1.7.32c4.58,0,7.73-2.9,9.37-7a9.69,9.69,0,0,0,.08-7C193.41,133.45,194.06,132.23,194.71,131Z"/><path class="cls-12" d="M194.71,131l.6.3c2.36,4.33,2.29,13.56-.67,16.92-3.27,3.73-11.07,4.3-15,1.27.42-.23.82-.47,1.22-.71,5.42,3.12,10.3-.74,12.17-6.1a19.39,19.39,0,0,0,.45-9.38C193.89,132.56,194.31,131.79,194.71,131Z"/><path class="cls-13" d="M194.71,131l.6.3c2.36,4.33,2.29,13.56-.67,16.92-3.27,3.73-11.07,4.3-15,1.27l.37-.22a4.64,4.64,0,0,0,1.26.63c4.89,1.57,11.62-.05,13.77-5.11,1.62-3.83,1.68-9.29-.77-12.95C194.41,131.59,194.57,131.31,194.71,131Z"/><path class="cls-10" d="M203.55,144.33c-1.64,4.68-8.65,8.12-13.45,6.78,5.24-6.28,6.19-14.93,7.09-22.78l.66,0C201.65,131.51,205,140.1,203.55,144.33Z"/><path class="cls-11" d="M197.19,128.33l.66,0c3.8,3.13,7.19,11.72,5.7,16-1.64,4.68-8.65,8.12-13.45,6.78a19.58,19.58,0,0,0,1.35-1.83,4.21,4.21,0,0,0,1.7-.35c4.24-1.75,6.09-5.58,6.08-10a9.65,9.65,0,0,0-2.53-6.49C196.88,131.06,197,129.68,197.19,128.33Z"/><path class="cls-12" d="M196.89,130.92c.1-.87.2-1.74.3-2.59l.66,0c3.8,3.13,7.19,11.72,5.7,16-1.64,4.68-8.65,8.12-13.45,6.78.31-.36.59-.73.87-1.12,6.19.88,9.28-4.53,9-10.2A19.55,19.55,0,0,0,196.89,130.92Z"/><path class="cls-13" d="M197.08,129.27c0-.31.07-.63.11-.94l.66,0c3.8,3.13,7.19,11.72,5.7,16-1.64,4.68-8.65,8.12-13.45,6.78.1-.11.17-.23.27-.34a4.22,4.22,0,0,0,1.4.11c5.13-.36,10.76-4.39,10.86-9.89C202.7,136.84,200.72,131.75,197.08,129.27Z"/><path class="cls-10" d="M211.29,135.19c-3.25,2.5-9.67,2-12.37-1-2.43-2.77-2.49-10.38-.55-13.94l.49-.25C202,125.68,205.35,132,211.29,135.19Z"/><path class="cls-11" d="M208.29,134.47a3.57,3.57,0,0,0,1.4-.26,18.48,18.48,0,0,0,1.6,1c-3.25,2.5-9.67,2-12.37-1-2.43-2.77-2.49-10.38-.55-13.94l.49-.25q.79,1.49,1.65,3a7.9,7.9,0,0,0,.06,5.74C201.92,132.08,204.51,134.43,208.29,134.47Z"/><path class="cls-12" d="M210.28,134.6c.33.21.67.41,1,.59-3.25,2.5-9.67,2-12.37-1-2.43-2.77-2.49-10.38-.55-13.94l.49-.25c.34.63.68,1.26,1,1.89a16,16,0,0,0,.37,7.73C201.8,134,205.82,137.18,210.28,134.6Z"/><path class="cls-13" d="M210,135.53a3.44,3.44,0,0,0,1-.52l.31.18c-3.25,2.5-9.67,2-12.37-1-2.43-2.77-2.49-10.38-.55-13.94l.49-.25.38.69c-2,3-2,7.52-.64,10.66C200.37,135.49,205.92,136.83,210,135.53Z"/><path class="cls-10" d="M198.8,118.38c1.94,4.07,1.89,12.76-.55,15.93-2.7,3.5-9.12,4-12.37,1.19,5.94-3.64,9.33-10.86,12.43-17.4Z"/><path class="cls-11" d="M198.31,118.1l.49.28c1.94,4.07,1.89,12.76-.55,15.93-2.7,3.5-9.12,4-12.37,1.19a18.27,18.27,0,0,0,1.6-1.12,3.24,3.24,0,0,0,1.4.29c3.78,0,6.38-2.73,7.72-6.59a10.24,10.24,0,0,0,.07-6.56C197.23,120.38,197.77,119.23,198.31,118.1Z"/><path class="cls-12" d="M198.31,118.1l.49.28c1.94,4.07,1.89,12.76-.55,15.93-2.7,3.5-9.12,4-12.37,1.19.35-.22.68-.44,1-.68,4.47,2.94,8.92-.2,10.47-5.24a13.91,13.91,0,0,0-.08-9.32Z"/><path class="cls-13" d="M198.31,118.1l.49.28c1.94,4.07,1.89,12.76-.55,15.93-2.7,3.5-9.12,4-12.37,1.19l.31-.2a3.62,3.62,0,0,0,1,.59c4,1.48,9.57,0,11.34-4.82,1.33-3.6,1.38-8.74-.63-12.19Z"/><path class="cls-8" d="M81.35,183.2c2.09-5.51,1.25-13.23,2.15-16.57.73-.2,1.12.56,1.71,1,0,4-.26,9.79,1.29,15.31C84.77,184.16,82.84,183.41,81.35,183.2Z"/><path class="cls-9" d="M81.35,183.2c1.52-4,1.47-8.43,1.69-12.66,0-.85.1-1.71.21-2.56.08-.67.1-1.86,1-1.18.33.24.58.57.91.82,0,.65,0,1.3,0,2,0,1.34,0,2.68,0,4-.06-2.21-.35.57,0,0-1.8,2.84-1.94,6.77-1.49,10C83,183.53,82.15,183.32,81.35,183.2Z"/><path class="cls-9" d="M85.25,173.6c-.35.57-.06-2.21,0,0Z"/><path class="cls-10" d="M105.6,167.11c-2.5,3.83-9.42,5.69-13.38,3.45-3.58-2-6.43-10-5.7-14.44l.43-.44C92.31,160.55,98.19,166,105.6,167.11Z"/><path class="cls-11" d="M89.77,158.22a8.84,8.84,0,0,0,2.18,6c2.66,3.05,6.25,4.57,10.24,3.23a3.89,3.89,0,0,0,1.37-.79,17.19,17.19,0,0,0,2,.44c-2.5,3.83-9.42,5.69-13.38,3.45-3.58-2-6.43-10-5.7-14.44l.43-.44C87.87,156.52,88.81,157.38,89.77,158.22Z"/><path class="cls-12" d="M88.72,157.28a17.62,17.62,0,0,0,3.23,8c3.24,4.07,8.63,5.94,12.38,1.6.42.09.84.18,1.27.24-2.5,3.83-9.42,5.69-13.38,3.45-3.58-2-6.43-10-5.7-14.44l.43-.44C87.53,156.21,88.12,156.75,88.72,157.28Z"/><path class="cls-13" d="M104.31,168a4.13,4.13,0,0,0,.9-.93l.39.07c-2.5,3.83-9.42,5.69-13.38,3.45-3.58-2-6.43-10-5.7-14.44l.43-.44.64.58c-1,3.91.7,8.62,3.25,11.44C94.24,171.44,100.55,170.81,104.31,168Z"/><path class="cls-10" d="M75.2,170.94c-4,2.22-10.88.33-13.37-3.5,7.42-1.14,13.32-6.52,18.7-11.37l.42.44C81.67,161,78.79,168.93,75.2,170.94Z"/><path class="cls-11" d="M75.49,164.61a8.8,8.8,0,0,0,2.2-6c1-.85,1.91-1.7,2.84-2.54l.42.44c.72,4.46-2.16,12.42-5.75,14.43-4,2.22-10.88.33-13.37-3.5a17.35,17.35,0,0,0,2.05-.44,4,4,0,0,0,1.37.8C69.23,169.16,72.83,167.65,75.49,164.61Z"/><path class="cls-12" d="M75.5,165.65a17.76,17.76,0,0,0,3.25-8l1.78-1.6.42.44c.72,4.46-2.16,12.42-5.75,14.43-4,2.22-10.88.33-13.37-3.5.44-.06.86-.15,1.28-.24C66.84,171.56,72.24,169.71,75.5,165.65Z"/><path class="cls-13" d="M80.53,156.07l.42.44c.72,4.46-2.16,12.42-5.75,14.43-4,2.22-10.88.33-13.37-3.5l.4-.07a3.88,3.88,0,0,0,.89.93c3.75,2.86,10.07,3.51,13.47-.22,2.57-2.81,4.29-7.52,3.3-11.43Z"/><path class="cls-10" d="M84.91,168.62c-2.13,4-9,6.2-13.12,4.33,5.6-5,7.63-12.71,9.51-19.7l.6.14C84.92,156.74,86.83,165,84.91,168.62Z"/><path class="cls-11" d="M81.3,153.25l.6.14c3,3.35,4.93,11.6,3,15.23-2.13,4-9,6.2-13.12,4.33a17.11,17.11,0,0,0,1.47-1.48,3.79,3.79,0,0,0,1.59-.08c4.08-1,6.28-4.24,6.86-8.24a8.8,8.8,0,0,0-1.41-6.23C80.64,155.69,81,154.46,81.3,153.25Z"/><path class="cls-12" d="M81.3,153.25l.6.14c3,3.35,4.93,11.6,3,15.23-2.13,4-9,6.2-13.12,4.33.32-.29.63-.59.94-.89,5.5,1.63,9-2.86,9.55-8a17.82,17.82,0,0,0-1.6-8.46C80.89,154.78,81.1,154,81.3,153.25Z"/><path class="cls-13" d="M81.3,153.25l.6.14c3,3.35,4.93,11.6,3,15.23-2.13,4-9,6.2-13.12,4.33l.28-.27a4,4,0,0,0,1.26.29c4.7.37,10.36-2.52,11.19-7.5.63-3.75-.48-8.64-3.45-11.39C81.15,153.81,81.23,153.53,81.3,153.25Z"/><path class="cls-10" d="M96.38,174.18c-4.14,1.93-11-.14-13.19-4.13-2-3.6-.19-11.88,2.78-15.28l.59-.14C88.55,161.59,90.7,169.28,96.38,174.18Z"/><path class="cls-11" d="M93.3,172.67a3.88,3.88,0,0,0,1.58.06,18.76,18.76,0,0,0,1.5,1.45c-4.14,1.93-11-.14-13.19-4.13-2-3.6-.19-11.88,2.78-15.28l.59-.14c.35,1.2.7,2.42,1.07,3.65a8.74,8.74,0,0,0-1.32,6.25C87,168.53,89.2,171.71,93.3,172.67Z"/><path class="cls-12" d="M95.43,173.3c.3.3.62.6.95.88-4.14,1.93-11-.14-13.19-4.13-2-3.6-.19-11.88,2.78-15.28l.59-.14c.22.76.44,1.53.67,2.29a17.71,17.71,0,0,0-1.48,8.49C86.36,170.58,90,175,95.43,173.3Z"/><path class="cls-13" d="M94.83,174.23a4.31,4.31,0,0,0,1.26-.32l.29.27c-4.14,1.93-11-.14-13.19-4.13-2-3.6-.19-11.88,2.78-15.28l.59-.14.24.83c-2.92,2.79-4,7.69-3.27,11.44C84.44,171.86,90.14,174.66,94.83,174.23Z"/><path class="cls-10" d="M100.26,158.86c-3.14,2.4-9.31,1.95-11.91-1-2.34-2.67-2.4-10-.53-13.42l.47-.23C91.28,149.7,94.54,155.79,100.26,158.86Z"/><path class="cls-11" d="M97.37,158.16a3.35,3.35,0,0,0,1.35-.25,15.87,15.87,0,0,0,1.54,1c-3.14,2.4-9.31,1.95-11.91-1-2.34-2.67-2.4-10-.53-13.42l.47-.23c.52,1,1,1.91,1.59,2.88a7.65,7.65,0,0,0,.06,5.53C91.24,155.86,93.73,158.12,97.37,158.16Z"/><path class="cls-12" d="M99.29,158.29c.31.2.63.39,1,.57-3.14,2.4-9.31,1.95-11.91-1-2.34-2.67-2.4-10-.53-13.42l.47-.23,1,1.81a15.33,15.33,0,0,0,.36,7.44C91.12,157.7,95,160.76,99.29,158.29Z"/><path class="cls-13" d="M99,159.18a3.23,3.23,0,0,0,1-.5l.3.18c-3.14,2.4-9.31,1.95-11.91-1-2.34-2.67-2.4-10-.53-13.42l.47-.23c.12.22.24.44.37.66-2,2.9-1.9,7.24-.62,10.27C89.75,159.14,95.08,160.43,99,159.18Z"/><path class="cls-10" d="M82.12,144.43c1.87,3.43,1.81,10.75-.53,13.42-2.6,3-8.78,3.41-11.91,1,5.72-3.07,9-9.16,12-14.66Z"/><path class="cls-11" d="M81.65,144.2l.47.23c1.87,3.43,1.81,10.75-.53,13.42-2.6,3-8.78,3.41-11.91,1a15.87,15.87,0,0,0,1.54-1,3.35,3.35,0,0,0,1.35.25c3.63,0,6.13-2.3,7.43-5.55a7.65,7.65,0,0,0,.06-5.53C80.61,146.11,81.13,145.15,81.65,144.2Z"/><path class="cls-12" d="M81.65,144.2l.47.23c1.87,3.43,1.81,10.75-.53,13.42-2.6,3-8.78,3.41-11.91,1,.34-.18.66-.37,1-.57,4.3,2.47,8.17-.59,9.65-4.84a15.33,15.33,0,0,0,.36-7.44Z"/><path class="cls-13" d="M81.65,144.2l.47.23c1.87,3.43,1.81,10.75-.53,13.42-2.6,3-8.78,3.41-11.91,1l.3-.18a3.23,3.23,0,0,0,1,.5c3.88,1.25,9.21,0,10.92-4.05,1.28-3,1.33-7.37-.61-10.27Z"/><path class="cls-10" d="M88.66,154.74c-1.31,3.71-6.87,6.44-10.67,5.38,4.15-5,4.9-11.84,5.62-18.07l.52,0C87.15,144.58,89.83,151.39,88.66,154.74Z"/><path class="cls-11" d="M83.61,142.05l.52,0c3,2.48,5.7,9.29,4.53,12.64-1.31,3.71-6.87,6.44-10.67,5.38a16.53,16.53,0,0,0,1.07-1.46,3.28,3.28,0,0,0,1.35-.27c3.35-1.39,4.83-4.42,4.81-7.92a7.63,7.63,0,0,0-2-5.15C83.36,144.22,83.48,143.13,83.61,142.05Z"/><path class="cls-12" d="M83.37,144.11l.24-2.06.52,0c3,2.48,5.7,9.29,4.53,12.64-1.31,3.71-6.87,6.44-10.67,5.38.24-.29.47-.58.69-.89,4.91.69,7.35-3.59,7.14-8.09A15.44,15.44,0,0,0,83.37,144.11Z"/><path class="cls-13" d="M83.52,142.8l.09-.75.52,0c3,2.48,5.7,9.29,4.53,12.64-1.31,3.71-6.87,6.44-10.67,5.38.07-.09.13-.18.21-.27a3.6,3.6,0,0,0,1.11.09c4.07-.29,8.54-3.48,8.61-7.84C88,148.8,86.41,144.76,83.52,142.8Z"/><path class="cls-10" d="M94.79,147.49c-2.58,2-7.67,1.61-9.81-.82-1.93-2.2-2-8.23-.43-11l.39-.2C87.4,140,90.08,145,94.79,147.49Z"/><path class="cls-11" d="M92.41,146.92a2.75,2.75,0,0,0,1.11-.21,12.71,12.71,0,0,0,1.27.78c-2.58,2-7.67,1.61-9.81-.82-1.93-2.2-2-8.23-.43-11l.39-.2c.42.78.85,1.58,1.3,2.38a6.32,6.32,0,0,0,.05,4.55C87.36,145,89.42,146.89,92.41,146.92Z"/><path class="cls-12" d="M94,147c.26.16.53.32.8.46-2.58,2-7.67,1.61-9.81-.82-1.93-2.2-2-8.23-.43-11l.39-.2.81,1.5A12.71,12.71,0,0,0,86,143C87.27,146.54,90.45,149.07,94,147Z"/><path class="cls-13" d="M93.72,147.76a2.8,2.8,0,0,0,.83-.41l.24.14c-2.58,2-7.67,1.61-9.81-.82-1.93-2.2-2-8.23-.43-11l.39-.2c.09.18.19.36.29.54a9.49,9.49,0,0,0-.5,8.46C86.13,147.73,90.53,148.8,93.72,147.76Z"/><path class="cls-10" d="M84.89,134.16c1.53,3.23,1.49,10.12-.44,12.64-2.14,2.77-7.23,3.2-9.81.94,4.71-2.89,7.4-8.62,9.86-13.8Z"/><path class="cls-11" d="M84.5,133.94l.39.22c1.53,3.23,1.49,10.12-.44,12.64-2.14,2.77-7.23,3.2-9.81.94.44-.27.86-.58,1.27-.89a2.45,2.45,0,0,0,1.11.23c3,0,5-2.17,6.12-5.22a8.06,8.06,0,0,0,0-5.2C83.64,135.75,84.07,134.84,84.5,133.94Z"/><path class="cls-12" d="M84.5,133.94l.39.22c1.53,3.23,1.49,10.12-.44,12.64-2.14,2.77-7.23,3.2-9.81.94.27-.17.54-.35.8-.54,3.54,2.33,7.08-.16,8.3-4.16a11.07,11.07,0,0,0-.06-7.39C84,135.08,84.23,134.51,84.5,133.94Z"/><path class="cls-13" d="M84.5,133.94l.39.22c1.53,3.23,1.49,10.12-.44,12.64-2.14,2.77-7.23,3.2-9.81.94l.25-.16a2.84,2.84,0,0,0,.82.47c3.2,1.17,7.59,0,9-3.82,1.06-2.86,1.1-6.94-.5-9.67Z"/><path class="cls-8" d="M202.34,98.09c2.65-7,1.59-16.69,2.72-20.9.93-.25,1.42.71,2.16,1.25,0,5-.33,12.35,1.62,19.31C206.67,99.29,204.23,98.36,202.34,98.09Z"/><path class="cls-9" d="M202.34,98.09c1.93-5,1.86-10.63,2.14-16,.06-1.08.12-2.16.26-3.23.11-.85.13-2.35,1.32-1.49.43.3.74.72,1.16,1v2.47c0,1.69,0,3.38.05,5.07-.08-2.79-.45.72,0,0-2.27,3.58-2.45,8.54-1.88,12.61C204.36,98.51,203.36,98.24,202.34,98.09Z"/><path class="cls-9" d="M207.27,86c-.45.72-.08-2.79,0,0Z"/><path class="cls-10" d="M232.93,77.8c-3.15,4.83-11.87,7.17-16.87,4.35-4.52-2.54-8.11-12.59-7.19-18.21l.54-.56C216.17,69.53,223.59,76.33,232.93,77.8Z"/><path class="cls-11" d="M213,66.59a11.15,11.15,0,0,0,2.75,7.58c3.35,3.85,7.88,5.76,12.91,4.07a5,5,0,0,0,1.73-1,21.73,21.73,0,0,0,2.57.56c-3.15,4.83-11.87,7.17-16.87,4.35-4.52-2.54-8.11-12.59-7.19-18.21l.54-.56C210.57,64.44,211.76,65.52,213,66.59Z"/><path class="cls-12" d="M211.64,65.41a22.47,22.47,0,0,0,4.07,10.07c4.09,5.14,10.89,7.49,15.61,2,.54.12,1.07.23,1.61.31-3.15,4.83-11.87,7.17-16.87,4.35-4.52-2.54-8.11-12.59-7.19-18.21l.54-.56Z"/><path class="cls-13" d="M231.31,78.88a5.18,5.18,0,0,0,1.13-1.17c.17,0,.32.07.49.09-3.15,4.83-11.87,7.17-16.87,4.35-4.52-2.54-8.11-12.59-7.19-18.21l.54-.56.81.74c-1.28,4.92.88,10.87,4.1,14.43C218.6,83.26,226.57,82.47,231.31,78.88Z"/><path class="cls-10" d="M194.6,82.63c-5,2.8-13.72.42-16.86-4.41,9.35-1.44,16.79-8.22,23.58-14.34l.53.55C202.75,70.06,199.13,80.1,194.6,82.63Z"/><path class="cls-11" d="M195,74.64a11.12,11.12,0,0,0,2.77-7.56c1.22-1.07,2.4-2.15,3.58-3.2l.53.55c.9,5.63-2.72,15.67-7.25,18.2-5,2.8-13.72.42-16.86-4.41a21.73,21.73,0,0,0,2.57-.56,5,5,0,0,0,1.74,1C187.07,80.38,191.6,78.48,195,74.64Z"/><path class="cls-12" d="M195,76a22.21,22.21,0,0,0,4.1-10l2.25-2,.53.55c.9,5.63-2.72,15.67-7.25,18.2-5,2.8-13.72.42-16.86-4.41.55-.08,1.08-.19,1.61-.31C184.06,83.41,190.86,81.08,195,76Z"/><path class="cls-13" d="M201.32,63.88l.53.55c.9,5.63-2.72,15.67-7.25,18.2-5,2.8-13.72.42-16.86-4.41.17,0,.33-.07.49-.09a5.18,5.18,0,0,0,1.13,1.17c4.73,3.6,12.7,4.42,17-.27,3.24-3.55,5.41-9.49,4.16-14.42Z"/><path class="cls-10" d="M206.84,79.71c-2.69,5.06-11.29,7.81-16.55,5.46,7.07-6.29,9.63-16,12-24.85l.75.17C206.85,64.72,209.26,75.12,206.84,79.71Z"/><path class="cls-11" d="M202.29,60.32l.75.17c3.81,4.23,6.22,14.63,3.8,19.22-2.69,5.06-11.29,7.81-16.55,5.46a25.24,25.24,0,0,0,1.86-1.87,4.92,4.92,0,0,0,2-.1c5.14-1.29,7.92-5.35,8.65-10.4A11,11,0,0,0,201,65C201.46,63.39,201.88,61.84,202.29,60.32Z"/><path class="cls-12" d="M202.29,60.32l.75.17c3.81,4.23,6.22,14.63,3.8,19.22-2.69,5.06-11.29,7.81-16.55,5.46.41-.37.8-.75,1.19-1.13,6.93,2,11.38-3.61,12.05-10.14a22.55,22.55,0,0,0-2-10.67C201.77,62.25,202,61.28,202.29,60.32Z"/><path class="cls-13" d="M202.29,60.32l.75.17c3.81,4.23,6.22,14.63,3.8,19.22-2.69,5.06-11.29,7.81-16.55,5.46.13-.11.24-.23.36-.35a4.88,4.88,0,0,0,1.59.37c5.92.46,13.06-3.18,14.11-9.45.79-4.74-.61-10.91-4.35-14.37C202.09,61,202.2,60.67,202.29,60.32Z"/><path class="cls-10" d="M221.3,86.72c-5.22,2.43-13.87-.18-16.63-5.21-2.49-4.55-.24-15,3.51-19.27l.75-.18C211.43,70.84,214.14,80.54,221.3,86.72Z"/><path class="cls-11" d="M217.41,84.81a4.93,4.93,0,0,0,2,.07,23.36,23.36,0,0,0,1.88,1.84c-5.22,2.43-13.87-.18-16.63-5.21-2.49-4.55-.24-15,3.51-19.27l.75-.18c.43,1.51.87,3.06,1.34,4.6a11.07,11.07,0,0,0-1.67,7.89C209.41,79.59,212.25,83.6,217.41,84.81Z"/><path class="cls-12" d="M220.1,85.61q.59.57,1.2,1.11c-5.22,2.43-13.87-.18-16.63-5.21-2.49-4.55-.24-15,3.51-19.27l.75-.18c.27.95.54,1.92.83,2.89a22.41,22.41,0,0,0-1.86,10.71C208.67,82.18,213.2,87.77,220.1,85.61Z"/><path class="cls-13" d="M219.36,86.77a5,5,0,0,0,1.57-.39l.37.34c-5.22,2.43-13.87-.18-16.63-5.21-2.49-4.55-.24-15,3.51-19.27l.75-.18c.09.34.2.7.3,1-3.69,3.51-5,9.7-4.13,14.42C206.25,83.79,213.44,87.32,219.36,86.77Z"/><path class="cls-10" d="M226.19,67.39c-3.95,3-11.73,2.46-15-1.26-3-3.37-3-12.6-.67-16.93l.6-.3C214.87,55.85,219,63.52,226.19,67.39Z"/><path class="cls-11" d="M222.56,66.51a4,4,0,0,0,1.69-.32,20.22,20.22,0,0,0,1.94,1.2c-3.95,3-11.73,2.46-15-1.26-3-3.37-3-12.6-.67-16.93l.6-.3c.65,1.21,1.31,2.42,2,3.64a9.64,9.64,0,0,0,.08,7C214.82,63.61,218,66.46,222.56,66.51Z"/><path class="cls-12" d="M225,66.68c.4.25.8.48,1.22.71-3.95,3-11.73,2.46-15-1.26-3-3.37-3-12.6-.67-16.93l.6-.3c.41.76.82,1.53,1.25,2.3a19.27,19.27,0,0,0,.44,9.38C214.67,65.94,219.55,69.8,225,66.68Z"/><path class="cls-13" d="M224.56,67.8a4.37,4.37,0,0,0,1.26-.63l.37.22c-3.95,3-11.73,2.46-15-1.26-3-3.37-3-12.6-.67-16.93l.6-.3.45.84c-2.45,3.66-2.38,9.12-.77,12.95C212.94,67.75,219.67,69.38,224.56,67.8Z"/><path class="cls-10" d="M203.32,49.2c2.36,4.33,2.29,13.56-.67,16.93-3.27,3.72-11.07,4.3-15,1.26,7.2-3.87,11.32-11.54,15.08-18.49Z"/><path class="cls-11" d="M202.72,48.9l.6.3c2.36,4.33,2.29,13.56-.67,16.93-3.27,3.72-11.07,4.3-15,1.26a18.91,18.91,0,0,0,1.93-1.2,4.14,4.14,0,0,0,1.71.32c4.58-.05,7.73-2.9,9.37-7a9.64,9.64,0,0,0,.07-7C201.41,51.32,202.07,50.11,202.72,48.9Z"/><path class="cls-12" d="M202.72,48.9l.6.3c2.36,4.33,2.29,13.56-.67,16.93-3.27,3.72-11.07,4.3-15,1.26.42-.23.82-.46,1.22-.71,5.42,3.12,10.3-.74,12.17-6.1a19.39,19.39,0,0,0,.45-9.38Z"/><path class="cls-13" d="M202.72,48.9l.6.3c2.36,4.33,2.29,13.56-.67,16.93-3.27,3.72-11.07,4.3-15,1.26l.37-.22a4.37,4.37,0,0,0,1.26.63c4.89,1.58,11.62,0,13.77-5.11,1.61-3.83,1.68-9.29-.77-12.95Z"/><path class="cls-10" d="M211.56,62.2c-1.64,4.68-8.65,8.12-13.45,6.78,5.24-6.28,6.19-14.93,7.09-22.78l.66,0C209.66,49.38,213.05,58,211.56,62.2Z"/><path class="cls-11" d="M205.2,46.2l.66,0c3.8,3.13,7.19,11.72,5.7,16-1.64,4.68-8.65,8.12-13.45,6.78a21.54,21.54,0,0,0,1.35-1.83,4.36,4.36,0,0,0,1.7-.34c4.24-1.76,6.09-5.59,6.07-10a9.65,9.65,0,0,0-2.52-6.5C204.88,48.93,205,47.56,205.2,46.2Z"/><path class="cls-12" d="M204.89,48.79c.11-.87.21-1.74.31-2.59l.66,0c3.8,3.13,7.19,11.72,5.7,16-1.64,4.68-8.65,8.12-13.45,6.78.3-.36.59-.73.87-1.12,6.19.88,9.28-4.53,9-10.2A19.46,19.46,0,0,0,204.89,48.79Z"/><path class="cls-13" d="M205.09,47.14c0-.31.07-.63.11-.94l.66,0c3.8,3.13,7.19,11.72,5.7,16-1.64,4.68-8.65,8.12-13.45,6.78.1-.11.17-.23.26-.34a4.27,4.27,0,0,0,1.4.11c5.13-.36,10.77-4.38,10.87-9.89C210.71,54.71,208.73,49.62,205.09,47.14Z"/><path class="cls-10" d="M219.3,53.06c-3.25,2.5-9.67,2-12.37-1-2.43-2.77-2.49-10.38-.55-13.94l.49-.24C210,43.55,213.36,49.88,219.3,53.06Z"/><path class="cls-11" d="M216.3,52.34a3.57,3.57,0,0,0,1.4-.26,16.3,16.3,0,0,0,1.6,1c-3.25,2.5-9.67,2-12.37-1-2.43-2.77-2.49-10.38-.55-13.94l.49-.24c.53,1,1.08,2,1.65,3a7.9,7.9,0,0,0,.06,5.74C209.93,50,212.52,52.3,216.3,52.34Z"/><path class="cls-12" d="M218.29,52.47c.33.21.67.41,1,.59-3.25,2.5-9.67,2-12.37-1-2.43-2.77-2.49-10.38-.55-13.94l.49-.24,1,1.88a16,16,0,0,0,.37,7.73C209.81,51.86,213.83,55.05,218.29,52.47Z"/><path class="cls-13" d="M218,53.4a3.81,3.81,0,0,0,1-.51c.11,0,.21.12.31.17-3.25,2.5-9.67,2-12.37-1-2.43-2.77-2.49-10.38-.55-13.94l.49-.24.38.68c-2,3-2,7.52-.64,10.67C208.38,53.36,213.92,54.7,218,53.4Z"/><path class="cls-10" d="M206.81,36.25c1.94,4.07,1.89,12.76-.55,15.93-2.7,3.5-9.12,4-12.37,1.19,5.94-3.64,9.33-10.86,12.43-17.4Z"/><path class="cls-11" d="M206.32,36l.49.28c1.94,4.07,1.89,12.76-.55,15.93-2.7,3.5-9.12,4-12.37,1.19a17.65,17.65,0,0,0,1.6-1.12,3.1,3.1,0,0,0,1.4.29c3.78,0,6.37-2.73,7.72-6.59a10.24,10.24,0,0,0,.06-6.56C205.24,38.25,205.78,37.1,206.32,36Z"/><path class="cls-12" d="M206.32,36l.49.28c1.94,4.07,1.89,12.76-.55,15.93-2.7,3.5-9.12,4-12.37,1.19.34-.21.68-.44,1-.67,4.47,2.93,8.92-.21,10.46-5.25a13.84,13.84,0,0,0-.07-9.32Z"/><path class="cls-13" d="M206.32,36l.49.28c1.94,4.07,1.89,12.76-.55,15.93-2.7,3.5-9.12,4-12.37,1.19l.31-.2a3.62,3.62,0,0,0,1,.59c4,1.48,9.57,0,11.34-4.82,1.33-3.6,1.38-8.74-.63-12.19Z"/><path class="cls-2" d="M141,154.11c2.53-6.41,1.65-15.45,2.75-19.33.86-.23,1.31.66,2,1.17,0,4.69-.44,11.44,1.3,17.92C145,155.28,142.72,154.38,141,154.11Z"/><path class="cls-3" d="M145.68,142.94c-.43.66-.05-2.58,0,0Z"/><path class="cls-3" d="M141,154.11c1.84-4.66,1.84-9.83,2.16-14.77.06-1,.14-2,.28-3,.11-.78.14-2.17,1.24-1.36.39.28.67.67,1.06,1l0,2.29c0,1.57,0,3.14,0,4.7-.05-2.58-.43.66,0,0-2.15,3.3-2.36,7.89-1.88,11.67C142.84,154.52,141.92,154.26,141,154.11Z"/><path class="cls-4" d="M169.54,135.65c-3,4.43-11.08,6.51-15.68,3.84-4.16-2.41-7.38-11.76-6.46-17l.5-.5C154.1,127.79,160.9,134.18,169.54,135.65Z"/><path class="cls-5" d="M151.17,125a10.28,10.28,0,0,0,2.46,7c3.06,3.6,7.24,5.43,11.91,3.91a4.65,4.65,0,0,0,1.62-.9,23.5,23.5,0,0,0,2.38.55c-3,4.43-11.08,6.51-15.68,3.84-4.16-2.41-7.38-11.76-6.46-17l.5-.5C149,123,150.05,124,151.17,125Z"/><path class="cls-6" d="M150,123.93a20.65,20.65,0,0,0,3.66,9.37c3.73,4.81,10,7.06,14.45,2,.48.12,1,.22,1.48.31-3,4.43-11.08,6.51-15.68,3.84-4.16-2.41-7.38-11.76-6.46-17l.5-.5Z"/><path class="cls-7" d="M168,136.62a4.47,4.47,0,0,0,1.06-1.07l.45.1c-3,4.43-11.08,6.51-15.68,3.84-4.16-2.41-7.38-11.76-6.46-17l.5-.5.74.68c-1.24,4.56.7,10.09,3.65,13.42C156.2,140.55,163.59,139.89,168,136.62Z"/><path class="cls-4" d="M134,139.7c-4.67,2.54-12.72.25-15.58-4.26,8.68-1.24,15.65-7.44,22-13l.48.52C141.66,128.14,138.19,137.4,134,139.7Z"/><path class="cls-5" d="M134.39,132.3a10.26,10.26,0,0,0,2.65-7c1.14-1,2.26-1.95,3.36-2.92l.48.52c.78,5.22-2.69,14.48-6.91,16.78-4.67,2.54-12.72.25-15.58-4.26a23,23,0,0,0,2.39-.49,4.55,4.55,0,0,0,1.6.94C127,137.54,131.24,135.83,134.39,132.3Z"/><path class="cls-6" d="M134.38,133.52a20.67,20.67,0,0,0,3.91-9.28l2.11-1.84.48.52c.78,5.22-2.69,14.48-6.91,16.78-4.67,2.54-12.72.25-15.58-4.26.51-.08,1-.17,1.5-.27C124.19,140.31,130.52,138.22,134.38,133.52Z"/><path class="cls-7" d="M140.4,122.4l.48.52c.78,5.22-2.69,14.48-6.91,16.78-4.67,2.54-12.72.25-15.58-4.26l.46-.09a4.61,4.61,0,0,0,1,1.1c4.34,3.39,11.72,4.24,15.75-.07,3-3.25,5.12-8.73,4-13.31Z"/><path class="cls-4" d="M142,119.28c3.49,4,5.61,13.62,3.31,17.84-2.53,4.67-10.54,7.12-15.38,4.89,6.61-5.75,9.09-14.75,11.38-22.9Z"/><path class="cls-5" d="M141.33,119.11l.69.17c3.49,4,5.61,13.62,3.31,17.84-2.53,4.67-10.54,7.12-15.38,4.89a23.43,23.43,0,0,0,1.74-1.71,4.51,4.51,0,0,0,1.85-.07c4.78-1.14,7.4-4.87,8.14-9.54a10.35,10.35,0,0,0-1.57-7.31C140.54,122,140.94,120.52,141.33,119.11Z"/><path class="cls-6" d="M141.33,119.11l.69.17c3.49,4,5.61,13.62,3.31,17.84-2.53,4.67-10.54,7.12-15.38,4.89.38-.34.75-.68,1.1-1,6.41,2,10.6-3.21,11.28-9.26a20.79,20.79,0,0,0-1.76-9.91C140.83,120.9,141.08,120,141.33,119.11Z"/><path class="cls-7" d="M141.33,119.11l.69.17c3.49,4,5.61,13.62,3.31,17.84-2.53,4.67-10.54,7.12-15.38,4.89l.33-.32a4.8,4.8,0,0,0,1.47.36c5.49.49,12.14-2.81,13.18-8.61.78-4.38-.45-10.11-3.88-13.35C141.15,119.76,141.24,119.43,141.33,119.11Z"/><path class="cls-4" d="M158.67,143.78c-4.86,2.2-12.85-.32-15.35-5-2.27-4.24-.07-13.88,3.45-17.81l.69-.17C149.69,129,152.1,138,158.67,143.78Z"/><path class="cls-5" d="M155.09,142a4.71,4.71,0,0,0,1.85.09,23.42,23.42,0,0,0,1.73,1.72c-4.86,2.2-12.85-.32-15.35-5-2.27-4.24-.07-13.88,3.45-17.81l.69-.17c.39,1.41.78,2.85,1.2,4.29a10.25,10.25,0,0,0-1.63,7.29C147.73,137,150.31,140.79,155.09,142Z"/><path class="cls-6" d="M157.57,142.74c.35.35.72.7,1.1,1-4.86,2.2-12.85-.32-15.35-5-2.27-4.24-.07-13.88,3.45-17.81l.69-.17c.25.89.49,1.79.75,2.7a20.7,20.7,0,0,0-1.84,9.9C147,139.43,151.15,144.66,157.57,142.74Z"/><path class="cls-7" d="M156.87,143.81a4.67,4.67,0,0,0,1.46-.35c.12.11.22.22.34.32-4.86,2.2-12.85-.32-15.35-5-2.27-4.24-.07-13.88,3.45-17.81l.69-.17c.09.32.19.65.27,1-3.45,3.22-4.72,8.94-4,13.32C144.75,140.9,151.37,144.25,156.87,143.81Z"/><path class="cls-4" d="M163.41,125.92c-3.7,2.77-10.9,2.15-13.9-1.33-2.71-3.16-2.67-11.71-.44-15.69l.56-.27C153,115.1,156.77,122.26,163.41,125.92Z"/><path class="cls-5" d="M160,125.07a3.88,3.88,0,0,0,1.58-.28,20.73,20.73,0,0,0,1.79,1.13c-3.7,2.77-10.9,2.15-13.9-1.33-2.71-3.16-2.67-11.71-.44-15.69l.56-.27c.59,1.12,1.19,2.25,1.81,3.39a8.89,8.89,0,0,0,0,6.46C152.91,122.29,155.79,125,160,125.07Z"/><path class="cls-6" d="M162.28,125.25c.37.23.74.46,1.13.67-3.7,2.77-10.9,2.15-13.9-1.33-2.71-3.16-2.67-11.71-.44-15.69l.56-.27,1.13,2.14a17.89,17.89,0,0,0,.31,8.69C152.75,124.45,157.23,128.08,162.28,125.25Z"/><path class="cls-7" d="M161.89,126.29a4,4,0,0,0,1.17-.58c.12.07.23.15.35.21-3.7,2.77-10.9,2.15-13.9-1.33-2.71-3.16-2.67-11.71-.44-15.69l.56-.27c.13.26.27.52.41.78-2.31,3.36-2.31,8.43-.85,12C151.12,126.11,157.34,127.69,161.89,126.29Z"/><path class="cls-4" d="M142.41,108.82c2.13,4,2,12.58-.81,15.67-3.07,3.42-10.3,3.87-13.92,1,6.72-3.5,10.61-10.57,14.18-17Z"/><path class="cls-5" d="M141.86,108.54l.55.28c2.13,4,2,12.58-.81,15.67-3.07,3.42-10.3,3.87-13.92,1a17.29,17.29,0,0,0,1.81-1.08,4,4,0,0,0,1.57.31c4.25,0,7.2-2.61,8.76-6.38a8.9,8.9,0,0,0,.15-6.46C140.62,110.77,141.24,109.64,141.86,108.54Z"/><path class="cls-6" d="M141.86,108.54l.55.28c2.13,4,2,12.58-.81,15.67-3.07,3.42-10.3,3.87-13.92,1,.39-.2.77-.42,1.14-.64,5,3,9.55-.58,11.34-5.52a17.89,17.89,0,0,0,.52-8.69Z"/><path class="cls-7" d="M141.86,108.54l.55.28c2.13,4,2,12.58-.81,15.67-3.07,3.42-10.3,3.87-13.92,1l.35-.19a4.21,4.21,0,0,0,1.16.59c4.52,1.52,10.77.09,12.81-4.59,1.54-3.52,1.66-8.59-.57-12Z"/><path class="cls-4" d="M149.91,121c-1.58,4.32-8.11,7.44-12.54,6.14,4.92-5.76,5.89-13.77,6.81-21l.62.06C148.28,109.06,151.33,117.05,149.91,121Z"/><path class="cls-5" d="M144.18,106.06l.62.06c3.48,2.94,6.53,10.93,5.11,14.83-1.58,4.32-8.11,7.44-12.54,6.14a18.5,18.5,0,0,0,1.27-1.68,4,4,0,0,0,1.57-.3c3.95-1.58,5.71-5.11,5.74-9.19a8.91,8.91,0,0,0-2.27-6C143.86,108.59,144,107.31,144.18,106.06Z"/><path class="cls-6" d="M144.18,106.06l.62.06c3.48,2.94,6.53,10.93,5.11,14.83-1.58,4.32-8.11,7.44-12.54,6.14.28-.33.56-.67.81-1,5.73.87,8.65-4.11,8.46-9.36a17.87,17.87,0,0,0-2.77-8.25C144,107.65,144.08,106.85,144.18,106.06Z"/><path class="cls-7" d="M144.07,106.93c0-.29.08-.58.11-.87l.62.06c3.48,2.94,6.53,10.93,5.11,14.83-1.58,4.32-8.11,7.44-12.54,6.14.09-.1.16-.21.24-.31a4.2,4.2,0,0,0,1.3.12c4.76-.28,10-4,10.18-9.05C149.2,114,147.41,109.26,144.07,106.93Z"/><path class="cls-4" d="M157.17,112.57c-3,2.28-9,1.77-11.44-1.1-2.23-2.6-2.2-9.64-.36-12.92l.45-.23C148.63,103.66,151.71,109.55,157.17,112.57Z"/><path class="cls-5" d="M154.4,111.87a3.25,3.25,0,0,0,1.3-.23,17.31,17.31,0,0,0,1.47.93c-3,2.28-9,1.77-11.44-1.1-2.23-2.6-2.2-9.64-.36-12.92l.45-.23c.48.93,1,1.86,1.49,2.8a7.39,7.39,0,0,0,0,5.32C148.52,109.58,150.9,111.79,154.4,111.87Z"/><path class="cls-6" d="M156.25,112c.3.2.61.38.92.56-3,2.28-9,1.77-11.44-1.1-2.23-2.6-2.2-9.64-.36-12.92l.45-.23.93,1.76a14.8,14.8,0,0,0,.26,7.17C148.39,111.36,152.09,114.35,156.25,112Z"/><path class="cls-7" d="M155.93,112.87a3.58,3.58,0,0,0,1-.47l.28.17c-3,2.28-9,1.77-11.44-1.1-2.23-2.6-2.2-9.64-.36-12.92l.45-.23.34.64c-1.9,2.77-1.9,7-.7,9.88C147.05,112.73,152.18,114,155.93,112.87Z"/><path class="cls-4" d="M145.78,96.86c1.76,3.79,1.61,11.84-.68,14.75-2.54,3.22-8.49,3.65-11.47,1,5.54-3.31,8.75-10,11.7-16Z"/><path class="cls-5" d="M145.33,96.59l.45.27c1.76,3.79,1.61,11.84-.68,14.75-2.54,3.22-8.49,3.65-11.47,1,.51-.31,1-.66,1.49-1a2.92,2.92,0,0,0,1.29.28c3.5,0,5.94-2.46,7.23-6a9.43,9.43,0,0,0,.13-6.07C144.3,98.69,144.82,97.63,145.33,96.59Z"/><path class="cls-6" d="M145.33,96.59l.45.27c1.76,3.79,1.61,11.84-.68,14.75-2.54,3.22-8.49,3.65-11.47,1,.32-.19.63-.4.94-.61,4.1,2.77,8.27-.1,9.75-4.75a12.92,12.92,0,0,0,0-8.64C144.68,97.91,145,97.25,145.33,96.59Z"/><path class="cls-7" d="M145.33,96.59l.45.27c1.76,3.79,1.61,11.84-.68,14.75-2.54,3.22-8.49,3.65-11.47,1l.28-.19a3.24,3.24,0,0,0,1,.56c3.72,1.42,8.87.07,10.56-4.34,1.27-3.32,1.38-8.08-.45-11.3C145.09,97.07,145.21,96.83,145.33,96.59Z"/><path class="cls-1" d="M144.37,192.33c-5.77-.36-11.56,0-17.28-.85a8.94,8.94,0,0,0-1.62-.25l-1.48-.12c-1,.12-4.63.76-4.66,2.2,0,.8,5,2.1,6,2.31a7.39,7.39,0,0,1,3.16,1.16,5.23,5.23,0,0,0,2.86.83,45,45,0,0,0,6.87,0c1.06-.06,2.06,0,3.08,0a10.77,10.77,0,0,0,3.31-.89c1.87-.6,4.28,0,5.92-1,.85-.54,1.31-1.32.49-2.25C149.69,191.92,146.14,192.44,144.37,192.33Z"/><path class="cls-10" d="M130.82,195.77c4.08.57,6.69-.39,10.11-2.49,3.67,3.68,10.72-.36,12.21-4.15,1.25-3.21,1.63-11-3.69-10.62,1.14-3.86-.81-6.66-4.79-8.4s-6.31.45-9.75,1.63c-2.83,1-6.34-.59-9.47,1.46-2.52,1.63-5,6.76-3.73,9.37l-.36,1.09c-3.4.52-3.62,6.68.31,6.25C120.62,194.55,127.55,195.31,130.82,195.77Z"/><path class="cls-11" d="M130.82,195.77c4.08.57,6.69-.39,10.11-2.49,3.67,3.68,10.72-.36,12.21-4.15,1.25-3.21,1.63-11-3.69-10.62,1.14-3.86-.81-6.66-4.79-8.4l-.08,0a10.67,10.67,0,0,1,.66,3.52V174A11,11,0,0,1,136,184.72l-.05,0a10.47,10.47,0,0,1-6.38,2,10,10,0,0,1-8-3.58l-.17.52c-3.4.52-3.62,6.68.31,6.25C120.62,194.55,127.55,195.31,130.82,195.77Z"/><path class="cls-14" d="M130.82,195.77c4.08.57,6.69-.39,10.11-2.49,3.67,3.68,10.72-.36,12.21-4.15,1.25-3.21,1.63-11-3.69-10.62,1-3.53-.52-6.17-3.84-7.93.13.21.24.44.36.65,4.12,6.4,1.2,17.31-8.75,17.31l-.48,0c-.19.12-.35.28-.55.4a10.35,10.35,0,0,1-6.62,2.17,9.93,9.93,0,0,1-9.77-6.57c-1.75,1.79-1.32,5.75,1.86,5.39C120.62,194.55,127.55,195.31,130.82,195.77Z"/><path class="cls-1" d="M247.71,147.55c-5.77-.36-11.56,0-17.28-.85a8.94,8.94,0,0,0-1.62-.25l-1.48-.12c-1,.12-4.63.76-4.66,2.2,0,.8,5,2.1,6,2.31a7.44,7.44,0,0,1,3.16,1.16,5.15,5.15,0,0,0,2.86.83,43.77,43.77,0,0,0,6.87,0c1.06-.05,2.06,0,3.07,0a10.76,10.76,0,0,0,3.32-.89c1.87-.59,4.28,0,5.91-1,.86-.54,1.32-1.32.5-2.24C253,147.15,249.48,147.66,247.71,147.55Z"/><path class="cls-10" d="M234.16,151c4.08.57,6.69-.39,10.11-2.49,3.66,3.68,10.72-.36,12.21-4.15,1.25-3.21,1.63-11-3.69-10.62,1.14-3.85-.81-6.66-4.79-8.4s-6.31.45-9.75,1.63c-2.83,1-6.34-.59-9.47,1.46-2.52,1.63-5,6.76-3.73,9.37l-.36,1.1c-3.4.51-3.62,6.68.3,6.24C224,149.77,230.89,150.53,234.16,151Z"/><path class="cls-11" d="M234.16,151c4.08.57,6.69-.39,10.11-2.49,3.66,3.68,10.72-.36,12.21-4.15,1.25-3.21,1.63-11-3.69-10.62,1.14-3.85-.81-6.66-4.79-8.4l-.08,0a10.67,10.67,0,0,1,.65,3.53v.36a11,11,0,0,1-9.23,10.75l-.05,0a10.41,10.41,0,0,1-6.38,2,10,10,0,0,1-8-3.57l-.17.52c-3.4.51-3.62,6.68.3,6.24C224,149.77,230.89,150.53,234.16,151Z"/><path class="cls-14" d="M234.16,151c4.08.57,6.69-.39,10.11-2.49,3.66,3.68,10.72-.36,12.21-4.15,1.25-3.21,1.63-11-3.69-10.62,1-3.53-.52-6.17-3.84-7.93.13.21.24.44.36.65,4.12,6.4,1.2,17.31-8.75,17.31l-.48,0c-.19.12-.35.29-.55.41a10.4,10.4,0,0,1-6.62,2.16,9.93,9.93,0,0,1-9.77-6.57c-1.75,1.79-1.32,5.75,1.85,5.39C224,149.77,230.89,150.53,234.16,151Z"/><path class="cls-1" d="M3.44,147.11c9.65.56,15.23,10.2,23.87,9.11s10.92-4.58,18-6.63S64,145.81,66.41,141s-27.1-.55-33.91.8c-5.7,1.14-10.86,2.54-16.58,2.47-5-.06-4.64-3-9.73-2.23l.53-.78C3.94,143.07-1.34,146.83,3.44,147.11Z"/><path class="cls-10" d="M41.7,117c-1.78-2.55-5.62-2.12-8.45-1a7.93,7.93,0,0,0-3.86,3.25l.06.39c-2.41-.49-5.95-1.19-8.73-.29-3.42,1.12-3.8,4.76-7,6.17s-6.38.65-9.35,2.89a11,11,0,0,0-4.32,8.12c-.32,3.05.12,6.74,3.11,8.31,2.72,1.43,6.05-.38,8.72.78,3.31,1.43,4,5.34,7.07,7.14s7.58,1.63,11.19,1.09c5.33-.8,9.2-2.91,13.3-6.23,3.49-2.82,5.4-2.69,9.81-3.12,7.61-.74,15.64-4.5,10.76-13.13a14.31,14.31,0,0,0-7-6.38c-1.18-.58-2.18-.87-3.28-1.48-2.45-1.34-2.67-1.76-5.69-1.91-1.21,0-4.13.48-5.12-.32C41.53,120.12,42.64,118.4,41.7,117Z"/><path class="cls-11" d="M29.93,143.26A7.89,7.89,0,0,1,28,144.38a6.94,6.94,0,0,1-2.61,1,7.27,7.27,0,0,1-8-5.42,16.33,16.33,0,0,1-1.24-2.24l0,0a7.76,7.76,0,0,1-7.57,1.14l-1.84.53A7.29,7.29,0,0,1,1.31,138,7.16,7.16,0,0,1,.07,136.8c-.28,3,.21,6.55,3.12,8.08,2.72,1.43,6.05-.38,8.72.78,3.31,1.43,4,5.34,7.07,7.14s7.58,1.63,11.19,1.09c5.33-.8,9.2-2.91,13.3-6.23,3.49-2.82,5.4-2.69,9.81-3.12,7.61-.74,15.64-4.5,10.76-13.13a14.31,14.31,0,0,0-7-6.38c-.75-.37-1.42-.63-2.1-.92v0a9.07,9.07,0,0,1-2.62,5.4,7.19,7.19,0,0,1-1.27,5.5,7.28,7.28,0,0,1-10,1.57,6.6,6.6,0,0,1-5.88,6.08,6.92,6.92,0,0,1-4.18-.59A6.9,6.9,0,0,1,29.93,143.26Z"/><path class="cls-14" d="M14.54,144.18l-.38,0A7.28,7.28,0,0,1,7,140.93a7.28,7.28,0,0,1-7-3.64c-.18,2.89.4,6.14,3.16,7.59s6.05-.38,8.72.78c3.31,1.43,4,5.34,7.07,7.14s7.58,1.63,11.19,1.09c5.33-.8,9.2-2.91,13.3-6.23,3.49-2.82,5.4-2.69,9.81-3.12,6.89-.67,14.08-3.83,11.79-10.8a7.08,7.08,0,0,1-2.18,3,7.41,7.41,0,0,1-4.66,1.53,7.14,7.14,0,0,1-4.68,2.82l-.78.12a7.2,7.2,0,0,1-5.06-1.19,7,7,0,0,1-8.3,4.19,6.83,6.83,0,0,1-.9,1.71l-.33.45a7.26,7.26,0,0,1-9.63,1.77,6.85,6.85,0,0,1-4,2l-.43.06c-4.78.71-7.64-2.78-8-6.51A6.43,6.43,0,0,1,14.54,144.18Z"/><path class="cls-11" d="M41.7,117l-.13-.14c-1.19,5.19-5.45,7.71-10.13,8-2.44,3.61-6.75,5.85-11.52,6.8a16.19,16.19,0,0,0,5.1,2.45,12.93,12.93,0,0,0,5.29.28c2.53-.44,1.61.2,1.66-.89.18-4.27,4.36-6.28,8-6.29,3.27,0,4.66-2.26,3.32-4.93a7.84,7.84,0,0,1-.47-1.16C41.64,120,42.6,118.34,41.7,117Z"/></svg>