<svg xmlns="http://www.w3.org/2000/svg" xmlns:xlink="http://www.w3.org/1999/xlink" viewBox="0 0 296.63 115.06"><defs><style>.cls-1{fill:none;}.cls-2{isolation:isolate;}.cls-10,.cls-100,.cls-101,.cls-102,.cls-103,.cls-104,.cls-105,.cls-106,.cls-107,.cls-108,.cls-109,.cls-11,.cls-110,.cls-111,.cls-112,.cls-113,.cls-114,.cls-115,.cls-116,.cls-117,.cls-118,.cls-119,.cls-12,.cls-120,.cls-121,.cls-122,.cls-123,.cls-124,.cls-125,.cls-126,.cls-127,.cls-128,.cls-129,.cls-13,.cls-130,.cls-131,.cls-132,.cls-133,.cls-134,.cls-135,.cls-136,.cls-137,.cls-138,.cls-139,.cls-14,.cls-140,.cls-141,.cls-142,.cls-143,.cls-144,.cls-145,.cls-146,.cls-147,.cls-148,.cls-149,.cls-15,.cls-150,.cls-151,.cls-152,.cls-153,.cls-154,.cls-155,.cls-156,.cls-157,.cls-158,.cls-159,.cls-16,.cls-160,.cls-161,.cls-162,.cls-163,.cls-164,.cls-165,.cls-166,.cls-167,.cls-168,.cls-169,.cls-17,.cls-170,.cls-171,.cls-172,.cls-173,.cls-174,.cls-175,.cls-176,.cls-177,.cls-178,.cls-179,.cls-18,.cls-180,.cls-181,.cls-182,.cls-19,.cls-20,.cls-21,.cls-22,.cls-23,.cls-24,.cls-25,.cls-26,.cls-27,.cls-28,.cls-29,.cls-3,.cls-30,.cls-31,.cls-32,.cls-33,.cls-34,.cls-35,.cls-36,.cls-37,.cls-38,.cls-39,.cls-4,.cls-40,.cls-41,.cls-42,.cls-43,.cls-44,.cls-45,.cls-46,.cls-47,.cls-48,.cls-49,.cls-5,.cls-50,.cls-51,.cls-52,.cls-53,.cls-54,.cls-55,.cls-56,.cls-57,.cls-58,.cls-59,.cls-6,.cls-60,.cls-61,.cls-62,.cls-63,.cls-64,.cls-65,.cls-66,.cls-67,.cls-68,.cls-69,.cls-7,.cls-70,.cls-71,.cls-72,.cls-73,.cls-74,.cls-75,.cls-76,.cls-77,.cls-78,.cls-79,.cls-8,.cls-80,.cls-81,.cls-82,.cls-83,.cls-84,.cls-85,.cls-86,.cls-87,.cls-88,.cls-89,.cls-9,.cls-90,.cls-91,.cls-92,.cls-93,.cls-94,.cls-95,.cls-96,.cls-97,.cls-98,.cls-99{fill-rule:evenodd;}.cls-3{fill:url(#radial-gradient);}.cls-4{fill:url(#linear-gradient);}.cls-5{fill:url(#linear-gradient-2);}.cls-6{fill:url(#linear-gradient-3);}.cls-7{fill:url(#linear-gradient-4);}.cls-8{fill:url(#linear-gradient-5);}.cls-9{fill:url(#linear-gradient-6);}.cls-10{fill:url(#linear-gradient-7);}.cls-11{fill:url(#linear-gradient-8);}.cls-12{fill:url(#linear-gradient-9);}.cls-13{fill:url(#linear-gradient-10);}.cls-14{fill:url(#linear-gradient-11);}.cls-15{fill:url(#linear-gradient-12);}.cls-16{fill:url(#linear-gradient-13);}.cls-17{fill:url(#linear-gradient-14);}.cls-18{fill:url(#linear-gradient-15);}.cls-19{fill:url(#linear-gradient-16);}.cls-20{fill:url(#linear-gradient-17);}.cls-119,.cls-120,.cls-121,.cls-122,.cls-123,.cls-124,.cls-125,.cls-126,.cls-127,.cls-128,.cls-129,.cls-130,.cls-131,.cls-132,.cls-133,.cls-155,.cls-158,.cls-178,.cls-181,.cls-21,.cls-22,.cls-25,.cls-26,.cls-27,.cls-28,.cls-29,.cls-30,.cls-31,.cls-32,.cls-51,.cls-52,.cls-53,.cls-54,.cls-55,.cls-56,.cls-57,.cls-58,.cls-59,.cls-60,.cls-61,.cls-62,.cls-63,.cls-64,.cls-65,.cls-85,.cls-86,.cls-87,.cls-88,.cls-89,.cls-90,.cls-91,.cls-92,.cls-93,.cls-94,.cls-95,.cls-96,.cls-97,.cls-98,.cls-99{mix-blend-mode:screen;}.cls-21{fill:url(#New_Gradient_Swatch_1);}.cls-22{fill:#8cf4f9;}.cls-100,.cls-134,.cls-156,.cls-159,.cls-179,.cls-182,.cls-23,.cls-66{mix-blend-mode:multiply;}.cls-23{fill:url(#radial-gradient-2);}.cls-183,.cls-199,.cls-24{fill:#fff;}.cls-25{fill:url(#New_Gradient_Swatch_1-2);}.cls-26{fill:url(#New_Gradient_Swatch_1-3);}.cls-27{fill:url(#New_Gradient_Swatch_1-4);}.cls-28{fill:url(#New_Gradient_Swatch_1-5);}.cls-29{fill:url(#New_Gradient_Swatch_2);}.cls-30{fill:url(#New_Gradient_Swatch_2-2);}.cls-31{fill:url(#New_Gradient_Swatch_2-3);}.cls-32{fill:url(#New_Gradient_Swatch_2-4);}.cls-33{fill:url(#radial-gradient-3);}.cls-34{fill:url(#radial-gradient-4);}.cls-35{fill:url(#radial-gradient-5);}.cls-36{fill:url(#radial-gradient-6);}.cls-37{fill:url(#radial-gradient-7);}.cls-38{fill:url(#radial-gradient-8);}.cls-39{fill:url(#radial-gradient-9);}.cls-40{fill:url(#radial-gradient-10);}.cls-41{fill:url(#radial-gradient-11);}.cls-42{fill:url(#radial-gradient-12);}.cls-43{fill:url(#radial-gradient-13);}.cls-44{fill:url(#radial-gradient-14);}.cls-45{fill:url(#radial-gradient-15);}.cls-46{fill:url(#radial-gradient-16);}.cls-47{fill:url(#radial-gradient-17);}.cls-48{fill:url(#radial-gradient-18);}.cls-49{fill:url(#radial-gradient-19);}.cls-50{fill:url(#radial-gradient-20);}.cls-51{fill:url(#New_Gradient_Swatch_1-6);}.cls-52{fill:url(#radial-gradient-21);}.cls-53{fill:url(#radial-gradient-22);}.cls-54{fill:url(#radial-gradient-23);}.cls-55{fill:url(#New_Gradient_Swatch_1-7);}.cls-56{fill:url(#New_Gradient_Swatch_1-8);}.cls-57{fill:url(#New_Gradient_Swatch_1-9);}.cls-58{fill:url(#New_Gradient_Swatch_1-10);}.cls-59{fill:url(#New_Gradient_Swatch_1-11);}.cls-60{fill:url(#New_Gradient_Swatch_1-12);}.cls-61{fill:url(#New_Gradient_Swatch_1-13);}.cls-62{fill:url(#New_Gradient_Swatch_1-14);}.cls-63{fill:url(#New_Gradient_Swatch_2-5);}.cls-64{fill:url(#New_Gradient_Swatch_2-6);}.cls-65{fill:url(#New_Gradient_Swatch_1-15);}.cls-100,.cls-134,.cls-66,.cls-95,.cls-96{opacity:0.5;}.cls-66{fill:url(#radial-gradient-24);}.cls-67{fill:url(#radial-gradient-25);}.cls-68{fill:url(#radial-gradient-26);}.cls-69{fill:url(#radial-gradient-27);}.cls-70{fill:url(#radial-gradient-28);}.cls-71{fill:url(#radial-gradient-29);}.cls-72{fill:url(#radial-gradient-30);}.cls-73{fill:url(#radial-gradient-31);}.cls-74{fill:url(#radial-gradient-32);}.cls-75{fill:url(#radial-gradient-33);}.cls-76{fill:url(#radial-gradient-34);}.cls-77{fill:url(#radial-gradient-35);}.cls-78{fill:url(#radial-gradient-36);}.cls-79{fill:url(#radial-gradient-37);}.cls-80{fill:url(#radial-gradient-38);}.cls-81{fill:url(#radial-gradient-39);}.cls-82{fill:url(#radial-gradient-40);}.cls-83{fill:url(#radial-gradient-41);}.cls-84{fill:url(#radial-gradient-42);}.cls-85{fill:url(#New_Gradient_Swatch_1-16);}.cls-86{fill:url(#radial-gradient-43);}.cls-87{fill:url(#radial-gradient-44);}.cls-88{fill:url(#radial-gradient-45);}.cls-89{fill:url(#New_Gradient_Swatch_1-17);}.cls-90{fill:url(#New_Gradient_Swatch_1-18);}.cls-91{fill:url(#New_Gradient_Swatch_1-19);}.cls-92{fill:url(#New_Gradient_Swatch_1-20);}.cls-93{fill:url(#New_Gradient_Swatch_1-21);}.cls-94{fill:url(#New_Gradient_Swatch_1-22);}.cls-95{fill:url(#New_Gradient_Swatch_1-23);}.cls-96{fill:url(#New_Gradient_Swatch_1-24);}.cls-97{fill:url(#New_Gradient_Swatch_2-7);}.cls-98{fill:url(#New_Gradient_Swatch_2-8);}.cls-99{fill:url(#New_Gradient_Swatch_1-25);}.cls-100{fill:url(#radial-gradient-46);}.cls-101{fill:url(#radial-gradient-47);}.cls-102{fill:url(#radial-gradient-48);}.cls-103{fill:url(#radial-gradient-49);}.cls-104{fill:url(#radial-gradient-50);}.cls-105{fill:url(#radial-gradient-51);}.cls-106{fill:url(#radial-gradient-52);}.cls-107{fill:url(#radial-gradient-53);}.cls-108{fill:url(#radial-gradient-54);}.cls-109{fill:url(#radial-gradient-55);}.cls-110{fill:url(#radial-gradient-56);}.cls-111{fill:url(#radial-gradient-57);}.cls-112{fill:url(#radial-gradient-58);}.cls-113{fill:url(#radial-gradient-59);}.cls-114{fill:url(#radial-gradient-60);}.cls-115{fill:url(#radial-gradient-61);}.cls-116{fill:url(#radial-gradient-62);}.cls-117{fill:url(#radial-gradient-63);}.cls-118{fill:url(#radial-gradient-64);}.cls-119{fill:url(#New_Gradient_Swatch_1-26);}.cls-120{fill:url(#radial-gradient-65);}.cls-121{fill:url(#radial-gradient-66);}.cls-122{fill:url(#radial-gradient-67);}.cls-123{fill:url(#New_Gradient_Swatch_1-27);}.cls-124{fill:url(#New_Gradient_Swatch_1-28);}.cls-125{fill:url(#New_Gradient_Swatch_1-29);}.cls-126{fill:url(#New_Gradient_Swatch_1-30);}.cls-127{fill:url(#New_Gradient_Swatch_1-31);}.cls-128{fill:url(#New_Gradient_Swatch_1-32);}.cls-129{fill:url(#New_Gradient_Swatch_1-33);}.cls-130{fill:url(#New_Gradient_Swatch_1-34);}.cls-131{fill:url(#New_Gradient_Swatch_2-9);}.cls-132{fill:url(#New_Gradient_Swatch_2-10);}.cls-133{fill:url(#New_Gradient_Swatch_1-35);}.cls-134{fill:url(#radial-gradient-68);}.cls-135{fill:url(#radial-gradient-69);}.cls-136{fill:url(#radial-gradient-70);}.cls-137{fill:url(#radial-gradient-71);}.cls-138{fill:url(#linear-gradient-18);}.cls-139{fill:url(#linear-gradient-19);}.cls-140{fill:url(#linear-gradient-20);}.cls-141{fill:url(#linear-gradient-21);}.cls-142{fill:url(#linear-gradient-22);}.cls-143{fill:url(#linear-gradient-23);}.cls-144{fill:url(#linear-gradient-24);}.cls-145{fill:url(#linear-gradient-25);}.cls-146{fill:url(#linear-gradient-26);}.cls-147{fill:url(#linear-gradient-27);}.cls-148{fill:url(#linear-gradient-28);}.cls-149{fill:url(#linear-gradient-29);}.cls-150{fill:url(#linear-gradient-30);}.cls-151{fill:url(#linear-gradient-31);}.cls-152{fill:url(#linear-gradient-32);}.cls-153{fill:url(#linear-gradient-33);}.cls-154{fill:url(#linear-gradient-34);}.cls-155{fill:url(#New_Gradient_Swatch_1-36);}.cls-156{fill:url(#radial-gradient-72);}.cls-157{fill:url(#linear-gradient-35);}.cls-158{fill:url(#linear-gradient-36);}.cls-159{fill:url(#linear-gradient-37);}.cls-160{fill:url(#radial-gradient-73);}.cls-161{fill:url(#linear-gradient-38);}.cls-162{fill:url(#linear-gradient-39);}.cls-163{fill:url(#linear-gradient-40);}.cls-164{fill:url(#linear-gradient-41);}.cls-165{fill:url(#linear-gradient-42);}.cls-166{fill:url(#linear-gradient-43);}.cls-167{fill:url(#linear-gradient-44);}.cls-168{fill:url(#linear-gradient-45);}.cls-169{fill:url(#linear-gradient-46);}.cls-170{fill:url(#linear-gradient-47);}.cls-171{fill:url(#linear-gradient-48);}.cls-172{fill:url(#linear-gradient-49);}.cls-173{fill:url(#linear-gradient-50);}.cls-174{fill:url(#linear-gradient-51);}.cls-175{fill:url(#linear-gradient-52);}.cls-176{fill:url(#linear-gradient-53);}.cls-177{fill:url(#linear-gradient-54);}.cls-178{fill:url(#New_Gradient_Swatch_1-37);}.cls-179{fill:url(#radial-gradient-74);}.cls-180{fill:url(#linear-gradient-55);}.cls-181{fill:url(#linear-gradient-56);}.cls-182{fill:url(#linear-gradient-57);}.cls-184{clip-path:url(#clip-path);}.cls-185{fill:aqua;}.cls-186{fill:#532024;}.cls-187{fill:#23101c;}.cls-188{fill:#6f1d22;}.cls-189{fill:#f9c260;}.cls-190{fill:#ff9367;}.cls-191{fill:#973430;}.cls-192{fill:#ca5344;}.cls-193{fill:#fd8e8b;}.cls-194{fill:#54301a;}.cls-195{fill:#fb9d8a;}.cls-196{clip-path:url(#clip-path-2);}.cls-197{clip-path:url(#clip-path-3);}.cls-198{fill:#ff795c;}.cls-199{font-size:18.8px;font-family:Avenir-Black, Avenir;font-weight:800;letter-spacing:0.03em;}</style><radialGradient id="radial-gradient" cx="123.52" cy="17.92" r="176.67" gradientUnits="userSpaceOnUse"><stop offset="0" stop-color="#24baff"/><stop offset="1" stop-color="#3378ff"/></radialGradient><linearGradient id="linear-gradient" x1="209.1" y1="45.95" x2="209.1" y2="18.41" gradientUnits="userSpaceOnUse"><stop offset="0" stop-color="#0061ba"/><stop offset="1" stop-color="#00266b"/></linearGradient><linearGradient id="linear-gradient-2" x1="121.58" y1="17.89" x2="123.74" y2="17.89" gradientUnits="userSpaceOnUse"><stop offset="0" stop-color="#2e74ff"/><stop offset="1" stop-color="#78d4ff"/></linearGradient><linearGradient id="linear-gradient-3" x1="122.65" y1="18.64" x2="124.18" y2="18.64" gradientUnits="userSpaceOnUse"><stop offset="0" stop-color="#0a8aff"/><stop offset="1" stop-color="#05f"/></linearGradient><linearGradient id="linear-gradient-4" x1="294.47" y1="17.89" x2="296.63" y2="17.89" xlink:href="#linear-gradient-3"/><linearGradient id="linear-gradient-5" x1="294.03" y1="18.64" x2="295.56" y2="18.64" xlink:href="#linear-gradient-2"/><linearGradient id="linear-gradient-6" x1="121.58" y1="46.47" x2="123.74" y2="46.47" xlink:href="#radial-gradient"/><linearGradient id="linear-gradient-7" x1="122.65" y1="45.72" x2="124.18" y2="45.72" xlink:href="#radial-gradient"/><linearGradient id="linear-gradient-8" x1="294.47" y1="46.47" x2="296.63" y2="46.47" xlink:href="#linear-gradient-3"/><linearGradient id="linear-gradient-9" x1="294.03" y1="45.72" x2="295.56" y2="45.72" xlink:href="#linear-gradient-2"/><linearGradient id="linear-gradient-10" x1="209.1" y1="17.35" x2="209.1" y2="16.81" gradientUnits="userSpaceOnUse"><stop offset="0" stop-color="#78d4ff"/><stop offset="1" stop-color="#2e74ff"/></linearGradient><linearGradient id="linear-gradient-11" x1="209.1" y1="18.41" x2="209.1" y2="17.88" gradientUnits="userSpaceOnUse"><stop offset="0" stop-color="#0049c1"/><stop offset="1" stop-color="#0061ff"/></linearGradient><linearGradient id="linear-gradient-12" x1="121.58" y1="32.18" x2="122.11" y2="32.18" xlink:href="#linear-gradient-2"/><linearGradient id="linear-gradient-13" x1="122.65" y1="32.18" x2="123.18" y2="32.18" gradientUnits="userSpaceOnUse"><stop offset="0" stop-color="#0061ff"/><stop offset="1" stop-color="#0049c1"/></linearGradient><linearGradient id="linear-gradient-14" x1="295.03" y1="32.18" x2="295.56" y2="32.18" xlink:href="#linear-gradient-2"/><linearGradient id="linear-gradient-15" x1="296.09" y1="32.18" x2="296.63" y2="32.18" xlink:href="#linear-gradient-13"/><linearGradient id="linear-gradient-16" x1="209.1" y1="46.48" x2="209.1" y2="45.95" gradientUnits="userSpaceOnUse"><stop offset="0" stop-color="#78d4ff"/><stop offset="1" stop-color="#45a8ff"/></linearGradient><linearGradient id="linear-gradient-17" x1="209.1" y1="47.55" x2="209.1" y2="47.02" xlink:href="#linear-gradient-11"/><radialGradient id="New_Gradient_Swatch_1" cx="259.15" cy="57.26" r="134.5" gradientUnits="userSpaceOnUse"><stop offset="0" stop-color="#1476ff"/><stop offset="1"/></radialGradient><radialGradient id="radial-gradient-2" cx="256.49" cy="-5.17" r="137.03" gradientUnits="userSpaceOnUse"><stop offset="0" stop-color="#fff"/><stop offset="1" stop-color="#0094d8"/></radialGradient><radialGradient id="New_Gradient_Swatch_1-2" cx="181.37" cy="61.92" r="93.01" xlink:href="#New_Gradient_Swatch_1"/><radialGradient id="New_Gradient_Swatch_1-3" cx="208.74" cy="47.78" r="115.08" xlink:href="#New_Gradient_Swatch_1"/><radialGradient id="New_Gradient_Swatch_1-4" cx="244.45" cy="2.81" r="93.97" xlink:href="#New_Gradient_Swatch_1"/><radialGradient id="New_Gradient_Swatch_1-5" cx="210.19" cy="99.26" r="108.56" xlink:href="#New_Gradient_Swatch_1"/><radialGradient id="New_Gradient_Swatch_2" cx="153.28" cy="-11.61" r="66.69" gradientUnits="userSpaceOnUse"><stop offset="0" stop-color="#5497ff"/><stop offset="1"/></radialGradient><radialGradient id="New_Gradient_Swatch_2-2" cx="201.42" cy="-6.92" r="63.75" xlink:href="#New_Gradient_Swatch_2"/><radialGradient id="New_Gradient_Swatch_2-3" cx="257.41" cy="-6.46" r="59.5" xlink:href="#New_Gradient_Swatch_2"/><radialGradient id="New_Gradient_Swatch_2-4" cx="277.61" cy="-5.99" r="62.95" xlink:href="#New_Gradient_Swatch_2"/><radialGradient id="radial-gradient-3" cx="3.98" cy="1.2" r="147.64" xlink:href="#radial-gradient"/><radialGradient id="radial-gradient-4" cx="45.56" cy="46.29" r="75.6" xlink:href="#linear-gradient"/><radialGradient id="radial-gradient-5" cx="9.74" cy="-0.07" r="39.63" gradientUnits="userSpaceOnUse"><stop offset="0" stop-color="#93f7ff"/><stop offset="1" stop-color="#2e74ff"/></radialGradient><radialGradient id="radial-gradient-6" cx="15.64" cy="16.13" r="11.08" gradientUnits="userSpaceOnUse"><stop offset="0" stop-color="#0269f4"/><stop offset="1" stop-color="#0049c1"/></radialGradient><radialGradient id="radial-gradient-7" cx="123.67" cy="-7.01" r="38.38" xlink:href="#linear-gradient-10"/><radialGradient id="radial-gradient-8" cx="119.56" cy="9.74" r="30.41" xlink:href="#radial-gradient-6"/><radialGradient id="radial-gradient-9" cx="1.27" cy="103.08" r="36.92" xlink:href="#radial-gradient-6"/><radialGradient id="radial-gradient-10" cx="17.81" cy="99.62" r="19.39" xlink:href="#radial-gradient-6"/><radialGradient id="radial-gradient-11" cx="126.01" cy="126.01" r="29.17" xlink:href="#radial-gradient-6"/><radialGradient id="radial-gradient-12" cx="107.06" cy="102.31" r="25.24" xlink:href="#radial-gradient-5"/><radialGradient id="radial-gradient-13" cx="26.52" cy="-8.44" r="97.81" xlink:href="#linear-gradient-10"/><radialGradient id="radial-gradient-14" cx="82.67" cy="-4.76" r="111.71" gradientUnits="userSpaceOnUse"><stop offset="0" stop-color="#3684f4"/><stop offset="1" stop-color="#0049c1"/></radialGradient><radialGradient id="radial-gradient-15" cx="-4.02" cy="33.84" r="135.45" xlink:href="#linear-gradient-10"/><radialGradient id="radial-gradient-16" cx="108.98" cy="66.47" r="121.05" gradientUnits="userSpaceOnUse"><stop offset="0" stop-color="#4fcaff"/><stop offset="1" stop-color="#175fff"/></radialGradient><radialGradient id="radial-gradient-17" cx="108.57" cy="21.87" r="122" xlink:href="#linear-gradient-10"/><radialGradient id="radial-gradient-18" cx="180.97" cy="50.52" r="96.41" gradientUnits="userSpaceOnUse"><stop offset="0" stop-color="#4fcaff"/><stop offset="1" stop-color="#004cef"/></radialGradient><radialGradient id="radial-gradient-19" cx="77.96" cy="102.89" r="114.84" xlink:href="#linear-gradient-10"/><radialGradient id="radial-gradient-20" cx="76.39" cy="134.09" r="68.1" xlink:href="#radial-gradient-6"/><radialGradient id="New_Gradient_Swatch_1-6" cx="59.19" cy="57.49" r="157.08" xlink:href="#New_Gradient_Swatch_1"/><radialGradient id="radial-gradient-21" cx="70.62" cy="62.21" r="115.12" gradientUnits="userSpaceOnUse"><stop offset="0" stop-color="#4f95ff"/><stop offset="1"/></radialGradient><radialGradient id="radial-gradient-22" cx="71.15" cy="85.61" r="99.92" xlink:href="#radial-gradient-21"/><radialGradient id="radial-gradient-23" cx="112.32" cy="111.35" r="86.52" xlink:href="#radial-gradient-21"/><radialGradient id="New_Gradient_Swatch_1-7" cx="60.64" cy="93.31" r="79.45" xlink:href="#New_Gradient_Swatch_1"/><radialGradient id="New_Gradient_Swatch_1-8" cx="65.26" cy="61.48" r="114.33" xlink:href="#New_Gradient_Swatch_1"/><radialGradient id="New_Gradient_Swatch_1-9" cx="55.75" cy="61.76" r="74.9" xlink:href="#New_Gradient_Swatch_1"/><radialGradient id="New_Gradient_Swatch_1-10" cx="92.46" cy="68.92" r="79.07" xlink:href="#New_Gradient_Swatch_1"/><radialGradient id="New_Gradient_Swatch_1-11" cx="87.47" cy="85.69" r="77.14" xlink:href="#New_Gradient_Swatch_1"/><radialGradient id="New_Gradient_Swatch_1-12" cx="35.89" cy="6" r="86.53" xlink:href="#New_Gradient_Swatch_1"/><radialGradient id="New_Gradient_Swatch_1-13" cx="80.41" cy="92.22" r="84.35" xlink:href="#New_Gradient_Swatch_1"/><radialGradient id="New_Gradient_Swatch_1-14" cx="77.96" cy="40.64" r="84.99" xlink:href="#New_Gradient_Swatch_1"/><radialGradient id="New_Gradient_Swatch_2-5" cx="48.25" cy="-13.4" r="129.96" xlink:href="#New_Gradient_Swatch_2"/><radialGradient id="New_Gradient_Swatch_2-6" cx="144.17" cy="60.28" r="111.51" xlink:href="#New_Gradient_Swatch_2"/><radialGradient id="New_Gradient_Swatch_1-15" cx="82.13" cy="130.14" r="83.88" xlink:href="#New_Gradient_Swatch_1"/><radialGradient id="radial-gradient-24" cx="31.98" cy="30.09" r="74.4" xlink:href="#radial-gradient-2"/><radialGradient id="radial-gradient-25" cx="122.23" cy="54.07" r="24.26" xlink:href="#radial-gradient"/><radialGradient id="radial-gradient-26" cx="129.07" cy="61.48" r="12.42" xlink:href="#linear-gradient"/><radialGradient id="radial-gradient-27" cx="123.18" cy="53.86" r="6.51" xlink:href="#radial-gradient-5"/><radialGradient id="radial-gradient-28" cx="124.15" cy="56.52" r="1.82" xlink:href="#radial-gradient-6"/><radialGradient id="radial-gradient-29" cx="141.9" cy="52.72" r="6.31" xlink:href="#linear-gradient-10"/><radialGradient id="radial-gradient-30" cx="141.22" cy="55.47" r="5" xlink:href="#radial-gradient-6"/><radialGradient id="radial-gradient-31" cx="121.79" cy="70.81" r="6.07" xlink:href="#radial-gradient-6"/><radialGradient id="radial-gradient-32" cx="124.51" cy="70.24" r="3.19" xlink:href="#radial-gradient-6"/><radialGradient id="radial-gradient-33" cx="142.28" cy="74.57" r="4.79" xlink:href="#radial-gradient-6"/><radialGradient id="radial-gradient-34" cx="139.17" cy="70.68" r="4.15" xlink:href="#radial-gradient-5"/><radialGradient id="radial-gradient-35" cx="125.94" cy="52.48" r="16.07" xlink:href="#linear-gradient-10"/><radialGradient id="radial-gradient-36" cx="135.16" cy="53.09" r="18.35" xlink:href="#radial-gradient-14"/><radialGradient id="radial-gradient-37" cx="120.92" cy="59.43" r="22.25" xlink:href="#linear-gradient-10"/><radialGradient id="radial-gradient-38" cx="139.49" cy="64.79" r="19.89" xlink:href="#radial-gradient-16"/><radialGradient id="radial-gradient-39" cx="139.42" cy="57.46" r="20.05" xlink:href="#linear-gradient-10"/><radialGradient id="radial-gradient-40" cx="151.31" cy="62.17" r="15.84" xlink:href="#radial-gradient-18"/><radialGradient id="radial-gradient-41" cx="134.39" cy="70.78" r="18.87" xlink:href="#linear-gradient-10"/><radialGradient id="radial-gradient-42" cx="134.13" cy="75.9" r="11.19" xlink:href="#radial-gradient-6"/><radialGradient id="New_Gradient_Swatch_1-16" cx="131.3" cy="63.32" r="25.81" xlink:href="#New_Gradient_Swatch_1"/><radialGradient id="radial-gradient-43" cx="133.18" cy="64.09" r="18.91" xlink:href="#radial-gradient-21"/><radialGradient id="radial-gradient-44" cx="133.27" cy="67.94" r="16.42" xlink:href="#radial-gradient-21"/><radialGradient id="radial-gradient-45" cx="140.03" cy="72.17" r="14.22" xlink:href="#radial-gradient-21"/><radialGradient id="New_Gradient_Swatch_1-17" cx="131.54" cy="69.2" r="13.05" xlink:href="#New_Gradient_Swatch_1"/><radialGradient id="New_Gradient_Swatch_1-18" cx="132.3" cy="63.97" r="18.78" xlink:href="#New_Gradient_Swatch_1"/><radialGradient id="New_Gradient_Swatch_1-19" cx="130.74" cy="64.02" r="12.31" xlink:href="#New_Gradient_Swatch_1"/><radialGradient id="New_Gradient_Swatch_1-20" cx="136.77" cy="65.2" r="12.99" xlink:href="#New_Gradient_Swatch_1"/><radialGradient id="New_Gradient_Swatch_1-21" cx="135.95" cy="67.95" r="12.67" xlink:href="#New_Gradient_Swatch_1"/><radialGradient id="New_Gradient_Swatch_1-22" cx="127.48" cy="54.86" r="14.22" xlink:href="#New_Gradient_Swatch_1"/><radialGradient id="New_Gradient_Swatch_1-23" cx="134.79" cy="69.02" r="13.86" xlink:href="#New_Gradient_Swatch_1"/><radialGradient id="New_Gradient_Swatch_1-24" cx="134.39" cy="60.55" r="13.96" xlink:href="#New_Gradient_Swatch_1"/><radialGradient id="New_Gradient_Swatch_2-7" cx="129.51" cy="51.67" r="21.35" xlink:href="#New_Gradient_Swatch_2"/><radialGradient id="New_Gradient_Swatch_2-8" cx="145.27" cy="63.77" r="18.32" xlink:href="#New_Gradient_Swatch_2"/><radialGradient id="New_Gradient_Swatch_1-25" cx="135.07" cy="75.25" r="13.78" xlink:href="#New_Gradient_Swatch_1"/><radialGradient id="radial-gradient-46" cx="126.83" cy="58.81" r="12.22" xlink:href="#radial-gradient-2"/><radialGradient id="radial-gradient-47" cx="122.23" cy="79.29" r="24.26" xlink:href="#radial-gradient"/><radialGradient id="radial-gradient-48" cx="129.07" cy="86.7" r="12.42" xlink:href="#linear-gradient"/><radialGradient id="radial-gradient-49" cx="123.18" cy="79.09" r="6.51" xlink:href="#radial-gradient-5"/><radialGradient id="radial-gradient-50" cx="124.15" cy="81.75" r="1.82" xlink:href="#radial-gradient-6"/><radialGradient id="radial-gradient-51" cx="141.9" cy="77.95" r="6.31" xlink:href="#linear-gradient-10"/><radialGradient id="radial-gradient-52" cx="141.22" cy="80.7" r="5" xlink:href="#radial-gradient-6"/><radialGradient id="radial-gradient-53" cx="121.79" cy="96.03" r="6.07" xlink:href="#radial-gradient-6"/><radialGradient id="radial-gradient-54" cx="124.51" cy="95.46" r="3.19" xlink:href="#radial-gradient-6"/><radialGradient id="radial-gradient-55" cx="142.28" cy="99.8" r="4.79" xlink:href="#radial-gradient-6"/><radialGradient id="radial-gradient-56" cx="139.17" cy="95.91" r="4.15" xlink:href="#radial-gradient-5"/><radialGradient id="radial-gradient-57" cx="125.94" cy="77.71" r="16.07" xlink:href="#linear-gradient-10"/><radialGradient id="radial-gradient-58" cx="135.16" cy="78.32" r="18.35" xlink:href="#radial-gradient-14"/><radialGradient id="radial-gradient-59" cx="120.92" cy="84.66" r="22.25" xlink:href="#linear-gradient-10"/><radialGradient id="radial-gradient-60" cx="139.49" cy="90.02" r="19.89" xlink:href="#radial-gradient-16"/><radialGradient id="radial-gradient-61" cx="139.42" cy="82.69" r="20.05" xlink:href="#linear-gradient-10"/><radialGradient id="radial-gradient-62" cx="151.31" cy="87.4" r="15.84" xlink:href="#radial-gradient-18"/><radialGradient id="radial-gradient-63" cx="134.39" cy="96" r="18.87" xlink:href="#linear-gradient-10"/><radialGradient id="radial-gradient-64" cx="134.13" cy="101.13" r="11.19" xlink:href="#radial-gradient-6"/><radialGradient id="New_Gradient_Swatch_1-26" cx="131.3" cy="88.54" r="25.81" xlink:href="#New_Gradient_Swatch_1"/><radialGradient id="radial-gradient-65" cx="133.18" cy="89.32" r="18.91" xlink:href="#radial-gradient-21"/><radialGradient id="radial-gradient-66" cx="133.27" cy="93.16" r="16.42" xlink:href="#radial-gradient-21"/><radialGradient id="radial-gradient-67" cx="140.03" cy="97.39" r="14.22" xlink:href="#radial-gradient-21"/><radialGradient id="New_Gradient_Swatch_1-27" cx="131.54" cy="94.43" r="13.05" xlink:href="#New_Gradient_Swatch_1"/><radialGradient id="New_Gradient_Swatch_1-28" cx="132.3" cy="89.2" r="18.78" xlink:href="#New_Gradient_Swatch_1"/><radialGradient id="New_Gradient_Swatch_1-29" cx="130.74" cy="89.24" r="12.31" xlink:href="#New_Gradient_Swatch_1"/><radialGradient id="New_Gradient_Swatch_1-30" cx="136.77" cy="90.42" r="12.99" xlink:href="#New_Gradient_Swatch_1"/><radialGradient id="New_Gradient_Swatch_1-31" cx="135.95" cy="93.18" r="12.67" xlink:href="#New_Gradient_Swatch_1"/><radialGradient id="New_Gradient_Swatch_1-32" cx="127.48" cy="80.08" r="14.22" xlink:href="#New_Gradient_Swatch_1"/><radialGradient id="New_Gradient_Swatch_1-33" cx="134.79" cy="94.25" r="13.86" xlink:href="#New_Gradient_Swatch_1"/><radialGradient id="New_Gradient_Swatch_1-34" cx="134.39" cy="85.77" r="13.96" xlink:href="#New_Gradient_Swatch_1"/><radialGradient id="New_Gradient_Swatch_2-9" cx="129.51" cy="76.89" r="21.35" xlink:href="#New_Gradient_Swatch_2"/><radialGradient id="New_Gradient_Swatch_2-10" cx="145.27" cy="89" r="18.32" xlink:href="#New_Gradient_Swatch_2"/><radialGradient id="New_Gradient_Swatch_1-35" cx="135.07" cy="100.48" r="13.78" xlink:href="#New_Gradient_Swatch_1"/><radialGradient id="radial-gradient-68" cx="126.83" cy="84.04" r="12.22" xlink:href="#radial-gradient-2"/><radialGradient id="radial-gradient-69" cx="128.47" cy="57.55" r="12.99" gradientUnits="userSpaceOnUse"><stop offset="0" stop-color="#fff"/><stop offset="1" stop-color="aqua"/></radialGradient><radialGradient id="radial-gradient-70" cx="127.62" cy="83.11" r="11.99" gradientUnits="userSpaceOnUse"><stop offset="0" stop-color="#ff6b6b"/><stop offset="1" stop-color="#f90000"/></radialGradient><radialGradient id="radial-gradient-71" cx="145.18" cy="53.15" r="153.12" xlink:href="#radial-gradient"/><linearGradient id="linear-gradient-18" x1="220.13" y1="71.38" x2="220.13" y2="55.23" gradientUnits="userSpaceOnUse"><stop offset="0" stop-color="#003075"/><stop offset="1" stop-color="#0e1645"/></linearGradient><linearGradient id="linear-gradient-19" x1="143.66" y1="54.77" x2="145.55" y2="54.77" xlink:href="#linear-gradient-2"/><linearGradient id="linear-gradient-20" x1="144.6" y1="55.43" x2="145.93" y2="55.43" xlink:href="#linear-gradient-3"/><linearGradient id="linear-gradient-21" x1="294.71" y1="54.77" x2="296.59" y2="54.77" xlink:href="#linear-gradient-3"/><linearGradient id="linear-gradient-22" x1="294.32" y1="55.43" x2="295.66" y2="55.43" xlink:href="#linear-gradient-2"/><linearGradient id="linear-gradient-23" x1="143.66" y1="71.83" x2="145.55" y2="71.83" xlink:href="#radial-gradient"/><linearGradient id="linear-gradient-24" x1="144.6" y1="71.17" x2="145.93" y2="71.17" xlink:href="#radial-gradient"/><linearGradient id="linear-gradient-25" x1="294.71" y1="71.83" x2="296.59" y2="71.83" xlink:href="#linear-gradient-3"/><linearGradient id="linear-gradient-26" x1="294.32" y1="71.17" x2="295.66" y2="71.17" xlink:href="#linear-gradient-2"/><linearGradient id="linear-gradient-27" x1="220.13" y1="54.3" x2="220.13" y2="53.83" xlink:href="#linear-gradient-10"/><linearGradient id="linear-gradient-28" x1="220.13" y1="55.23" x2="220.13" y2="54.76" xlink:href="#linear-gradient-11"/><linearGradient id="linear-gradient-29" x1="143.66" y1="63.3" x2="144.13" y2="63.3" xlink:href="#linear-gradient-2"/><linearGradient id="linear-gradient-30" x1="144.6" y1="63.3" x2="145.06" y2="63.3" xlink:href="#linear-gradient-13"/><linearGradient id="linear-gradient-31" x1="295.19" y1="63.3" x2="295.66" y2="63.3" xlink:href="#linear-gradient-2"/><linearGradient id="linear-gradient-32" x1="296.12" y1="63.3" x2="296.59" y2="63.3" xlink:href="#linear-gradient-13"/><linearGradient id="linear-gradient-33" x1="220.13" y1="71.84" x2="220.13" y2="71.38" xlink:href="#linear-gradient-16"/><linearGradient id="linear-gradient-34" x1="220.13" y1="72.78" x2="220.13" y2="72.31" xlink:href="#linear-gradient-11"/><radialGradient id="New_Gradient_Swatch_1-36" cx="220.13" cy="72.54" r="90.73" xlink:href="#New_Gradient_Swatch_1"/><radialGradient id="radial-gradient-72" cx="207.71" cy="26.97" r="98.17" xlink:href="#radial-gradient-2"/><linearGradient id="linear-gradient-35" x1="220.13" y1="70.59" x2="220.13" y2="56.02" gradientUnits="userSpaceOnUse"><stop offset="0" stop-color="#004d89"/><stop offset="0.51" stop-color="#009fff"/><stop offset="1" stop-color="#47e0ff"/></linearGradient><linearGradient id="linear-gradient-36" x1="220.13" y1="62.63" x2="220.13" y2="56.02" gradientUnits="userSpaceOnUse"><stop offset="0" stop-color="#003170"/><stop offset="1" stop-color="#93cfff"/></linearGradient><linearGradient id="linear-gradient-37" x1="220.13" y1="70.59" x2="220.13" y2="67.9" gradientUnits="userSpaceOnUse"><stop offset="0" stop-color="#0094d8"/><stop offset="1" stop-color="#fff"/></linearGradient><radialGradient id="radial-gradient-73" cx="145.18" cy="78.38" r="153.12" xlink:href="#radial-gradient"/><linearGradient id="linear-gradient-38" x1="220.13" y1="96.6" x2="220.13" y2="80.45" xlink:href="#linear-gradient-18"/><linearGradient id="linear-gradient-39" x1="143.66" y1="80" x2="145.55" y2="80" xlink:href="#linear-gradient-2"/><linearGradient id="linear-gradient-40" x1="144.6" y1="80.66" x2="145.93" y2="80.66" xlink:href="#linear-gradient-3"/><linearGradient id="linear-gradient-41" x1="294.71" y1="80" x2="296.59" y2="80" xlink:href="#linear-gradient-3"/><linearGradient id="linear-gradient-42" x1="294.32" y1="80.66" x2="295.66" y2="80.66" xlink:href="#linear-gradient-2"/><linearGradient id="linear-gradient-43" x1="143.66" y1="97.06" x2="145.55" y2="97.06" xlink:href="#radial-gradient"/><linearGradient id="linear-gradient-44" x1="144.6" y1="96.4" x2="145.93" y2="96.4" xlink:href="#radial-gradient"/><linearGradient id="linear-gradient-45" x1="294.71" y1="97.06" x2="296.59" y2="97.06" xlink:href="#linear-gradient-3"/><linearGradient id="linear-gradient-46" x1="294.32" y1="96.4" x2="295.66" y2="96.4" xlink:href="#linear-gradient-2"/><linearGradient id="linear-gradient-47" x1="220.13" y1="79.52" x2="220.13" y2="79.06" xlink:href="#linear-gradient-10"/><linearGradient id="linear-gradient-48" x1="220.13" y1="80.45" x2="220.13" y2="79.99" xlink:href="#linear-gradient-11"/><linearGradient id="linear-gradient-49" x1="143.66" y1="88.53" x2="144.13" y2="88.53" xlink:href="#linear-gradient-2"/><linearGradient id="linear-gradient-50" x1="144.6" y1="88.53" x2="145.06" y2="88.53" xlink:href="#linear-gradient-13"/><linearGradient id="linear-gradient-51" x1="295.19" y1="88.53" x2="295.66" y2="88.53" xlink:href="#linear-gradient-2"/><linearGradient id="linear-gradient-52" x1="296.12" y1="88.53" x2="296.59" y2="88.53" xlink:href="#linear-gradient-13"/><linearGradient id="linear-gradient-53" x1="220.13" y1="97.07" x2="220.13" y2="96.6" xlink:href="#linear-gradient-16"/><linearGradient id="linear-gradient-54" x1="220.13" y1="98" x2="220.13" y2="97.54" xlink:href="#linear-gradient-11"/><radialGradient id="New_Gradient_Swatch_1-37" cx="220.13" cy="97.77" r="90.73" xlink:href="#New_Gradient_Swatch_1"/><radialGradient id="radial-gradient-74" cx="207.71" cy="52.18" r="98.17" xlink:href="#radial-gradient-2"/><linearGradient id="linear-gradient-55" x1="220.13" y1="95.81" x2="220.13" y2="81.25" gradientUnits="userSpaceOnUse"><stop offset="0" stop-color="#820000"/><stop offset="1" stop-color="#e80000"/></linearGradient><linearGradient id="linear-gradient-56" x1="220.13" y1="87.86" x2="220.13" y2="81.25" gradientUnits="userSpaceOnUse"><stop offset="0" stop-color="#803b3b"/><stop offset="1" stop-color="#ff7d7d"/></linearGradient><linearGradient id="linear-gradient-57" x1="220.13" y1="95.81" x2="220.13" y2="93.13" gradientUnits="userSpaceOnUse"><stop offset="0" stop-color="#8e0000"/><stop offset="1" stop-color="#fff"/></linearGradient><clipPath id="clip-path"><rect class="cls-1" x="8.02" y="7.43" width="99.26" height="99.26"/></clipPath><clipPath id="clip-path-2"><path class="cls-1" d="M56.18,41a.47.47,0,0,1,0,.7,4.24,4.24,0,0,1-2.64,1.19,4.27,4.27,0,0,1-2.65-1.19.48.48,0,0,1,0-.7,4.22,4.22,0,0,1,2.65-1.2A4.19,4.19,0,0,1,56.18,41Z"/></clipPath><clipPath id="clip-path-3"><path class="cls-1" d="M65.7,40.91a.55.55,0,0,1,0,.84,3.5,3.5,0,0,1-5.13,0,.56.56,0,0,1,0-.84,3.48,3.48,0,0,1,5.13,0Z"/></clipPath></defs><g class="cls-2"><g id="Layer_1" data-name="Layer 1"><path class="cls-3" d="M123.74,17.35,122.11,19V45.39L123.74,47H294.47l1.62-1.63V19l-1.62-1.62Zm.22.53-1.31,1.31v26L124,46.48H294.25l1.31-1.31v-26l-1.31-1.31Z"/><polygon class="cls-4" points="124.18 18.41 123.18 19.41 123.18 44.95 124.18 45.95 294.03 45.95 295.03 44.95 295.03 19.41 294.03 18.41 124.18 18.41 124.18 18.41"/><polygon class="cls-5" points="122.11 18.97 123.73 17.34 123.52 16.81 121.58 18.75 122.11 18.97 122.11 18.97"/><polygon class="cls-6" points="123.96 17.88 122.65 19.19 123.18 19.41 124.18 18.41 123.96 17.88 123.96 17.88"/><polygon class="cls-7" points="296.09 18.97 294.47 17.35 294.69 16.81 296.63 18.75 296.09 18.97 296.09 18.97"/><polygon class="cls-8" points="294.25 17.88 295.56 19.19 295.03 19.41 294.03 18.41 294.25 17.88 294.25 17.88"/><polygon class="cls-9" points="122.11 45.39 123.73 47.02 123.52 47.55 121.58 45.61 122.11 45.39 122.11 45.39"/><polygon class="cls-10" points="123.96 46.48 122.65 45.17 123.18 44.95 124.18 45.95 123.96 46.48 123.96 46.48"/><polygon class="cls-11" points="296.09 45.39 294.47 47.02 294.69 47.55 296.63 45.61 296.09 45.39 296.09 45.39"/><polygon class="cls-12" points="294.25 46.48 295.56 45.17 295.03 44.95 294.03 45.95 294.25 46.48 294.25 46.48"/><polygon class="cls-13" points="123.73 17.35 294.47 17.35 294.69 16.81 123.52 16.81 123.73 17.35 123.73 17.35"/><polygon class="cls-14" points="294.25 17.88 123.96 17.88 124.18 18.41 294.03 18.41 294.25 17.88 294.25 17.88"/><polygon class="cls-15" points="122.11 45.39 122.11 18.97 121.58 18.75 121.58 45.61 122.11 45.39 122.11 45.39"/><polygon class="cls-16" points="122.65 19.19 122.65 45.17 123.18 44.95 123.18 19.41 122.65 19.19 122.65 19.19"/><polygon class="cls-17" points="295.03 19.41 295.03 44.95 295.56 45.17 295.56 19.19 295.03 19.41 295.03 19.41"/><polygon class="cls-18" points="296.09 18.97 296.09 45.39 296.63 45.61 296.63 18.75 296.09 18.97 296.09 18.97"/><polygon class="cls-19" points="294.03 45.95 124.18 45.95 123.96 46.48 294.25 46.48 294.03 45.95 294.03 45.95"/><polygon class="cls-20" points="294.47 47.02 123.73 47.02 123.52 47.55 294.69 47.55 294.47 47.02 294.47 47.02"/><path class="cls-21" d="M294.47,47c-2,.53-168.72.53-170.73,0l-.23.53H294.69l-.22-.53Z"/><path class="cls-22" d="M296.09,20.85l.17,24.52.32.23-.38-.08a10.14,10.14,0,0,0-1.62,1.59l.09.39-.22-.34L126.36,47H294.47l1.62-1.63V20.85Z"/><path class="cls-23" d="M123.74,17.35H294.47l.22-.54c-.22.54-170.95.54-171.18,0l.23.54Z"/><path class="cls-24" d="M122.11,43.51,121.94,19l-.31-.22.38.08a11.12,11.12,0,0,0,1.62-1.6l-.1-.39.23.34,168.09.15H123.74L122.11,19V43.51Z"/><polygon class="cls-25" points="123.68 45.45 209.1 32.18 123.68 18.91 123.18 19.41 123.18 44.95 123.68 45.45 123.68 45.45"/><polygon class="cls-26" points="123.68 18.91 209.1 32.18 294.53 18.91 294.03 18.41 124.18 18.41 123.68 18.91 123.68 18.91"/><polygon class="cls-27" points="294.53 18.91 209.1 32.18 294.53 45.45 295.03 44.95 295.03 19.41 294.53 18.91 294.53 18.91"/><polygon class="cls-28" points="294.53 45.45 209.1 32.18 123.68 45.45 124.18 45.95 294.03 45.95 294.53 45.45 294.53 45.45"/><polygon class="cls-29" points="153.87 45.95 181.41 18.41 155.04 18.41 127.5 45.95 153.87 45.95 153.87 45.95"/><polygon class="cls-30" points="198.6 18.41 171.06 45.95 179.42 45.95 206.96 18.41 198.6 18.41 198.6 18.41"/><polygon class="cls-31" points="250.94 18.41 223.4 45.95 243.28 45.95 270.82 18.41 250.94 18.41 250.94 18.41"/><polygon class="cls-32" points="275.03 18.41 247.49 45.95 255.84 45.95 283.38 18.41 275.03 18.41 275.03 18.41"/><path class="cls-33" d="M11.46,2.59,2.83,11.22v92.37l8.63,8.63h92.38l8.62-8.63V11.22l-8.62-8.63Zm1.18,2.84-7,7v90l7,7h90l7-7v-90l-7-7Z"/><polygon class="cls-34" points="13.81 8.26 8.5 13.57 8.5 101.25 13.81 106.55 101.49 106.55 106.79 101.25 106.79 13.57 101.49 8.26 13.81 8.26 13.81 8.26"/><polygon class="cls-35" points="2.83 11.22 11.46 2.59 10.29 -0.24 0 10.05 2.83 11.22 2.83 11.22"/><polygon class="cls-36" points="12.64 5.43 5.67 12.39 8.5 13.57 13.81 8.26 12.64 5.43 12.64 5.43"/><polygon class="cls-37" points="112.46 11.22 103.84 2.59 105.01 -0.24 115.3 10.05 112.46 11.22 112.46 11.22"/><polygon class="cls-38" points="102.66 5.43 109.63 12.39 106.79 13.57 101.49 8.26 102.66 5.43 102.66 5.43"/><polygon class="cls-39" points="2.83 103.59 11.46 112.22 10.29 115.06 0 104.77 2.83 103.59 2.83 103.59"/><polygon class="cls-40" points="12.64 109.39 5.67 102.42 8.5 101.25 13.81 106.55 12.64 109.39 12.64 109.39"/><polygon class="cls-41" points="112.46 103.59 103.84 112.22 105.01 115.06 115.3 104.77 112.46 103.59 112.46 103.59"/><polygon class="cls-42" points="102.66 109.39 109.63 102.42 106.79 101.25 101.49 106.55 102.66 109.39 102.66 109.39"/><polygon class="cls-43" points="11.46 2.59 103.84 2.59 105.01 -0.24 10.29 -0.24 11.46 2.59 11.46 2.59"/><polygon class="cls-44" points="102.66 5.43 12.64 5.43 13.81 8.26 101.49 8.26 102.66 5.43 102.66 5.43"/><polygon class="cls-45" points="2.83 103.59 2.83 11.22 0 10.05 0 104.77 2.83 103.59 2.83 103.59"/><polygon class="cls-46" points="5.67 12.39 5.67 102.42 8.5 101.25 8.5 13.57 5.67 12.39 5.67 12.39"/><polygon class="cls-47" points="106.79 13.57 106.79 101.25 109.63 102.42 109.63 12.39 106.79 13.57 106.79 13.57"/><polygon class="cls-48" points="112.46 11.22 112.46 103.59 115.3 104.77 115.3 10.05 112.46 11.22 112.46 11.22"/><polygon class="cls-49" points="101.49 106.55 13.81 106.55 12.64 109.39 102.66 109.39 101.49 106.55 101.49 106.55"/><polygon class="cls-50" points="103.84 112.22 11.46 112.22 10.29 115.06 105.01 115.06 103.84 112.22 103.84 112.22"/><polygon class="cls-51" points="8.5 13.57 57.65 57.41 13.81 8.26 8.5 13.57 8.5 13.57"/><polygon class="cls-52" points="106.79 13.57 57.65 57.41 101.49 8.26 106.79 13.57 106.79 13.57"/><polygon class="cls-53" points="8.5 101.25 57.65 57.41 13.81 106.55 8.5 101.25 8.5 101.25"/><polygon class="cls-54" points="106.79 101.25 57.65 57.41 101.49 106.55 106.79 101.25 106.79 101.25"/><polygon class="cls-55" points="8.5 101.25 57.65 57.41 8.5 13.57 8.5 101.25 8.5 101.25"/><polygon class="cls-56" points="13.81 8.26 57.65 57.41 101.49 8.26 13.81 8.26 13.81 8.26"/><polygon class="cls-57" points="106.79 13.57 57.65 57.41 106.79 101.25 106.79 13.57 106.79 13.57"/><polygon class="cls-58" points="101.49 106.55 57.65 57.41 13.81 106.55 101.49 106.55 101.49 106.55"/><polygon class="cls-59" points="25.91 29.1 25.91 85.72 57.65 57.41 25.91 29.1 25.91 29.1"/><polygon class="cls-60" points="29.34 25.67 57.65 57.41 85.96 25.67 29.34 25.67 29.34 25.67"/><polygon class="cls-61" points="89.38 29.1 57.65 57.41 89.38 85.72 89.38 29.1 89.38 29.1"/><polygon class="cls-62" points="85.96 89.14 57.65 57.41 29.34 89.14 85.96 89.14 85.96 89.14"/><polygon class="cls-63" points="8.5 96.45 96.69 8.26 41.82 8.26 8.5 41.58 8.5 96.45 8.5 96.45"/><polygon class="cls-64" points="106.79 43.98 44.22 106.55 67.28 106.55 106.79 67.04 106.79 43.98 106.79 43.98"/><path class="cls-65" d="M103.84,112.22c-10.48,2.84-81.69,2.84-92.38,0l-1.17,2.84H105l-1.17-2.84Z"/><path class="cls-22" d="M112.46,21.22l.9,82.23,1.69,1.22-2-.43a58.77,58.77,0,0,0-8.6,8.47l.51,2.1L103.73,113l-78.33-.76h78.44l8.62-8.63V21.22Z"/><path class="cls-66" d="M11.46,2.59h92.38L105-.24c-1.17,2.83-93.55,2.83-94.72,0l1.17,2.83Z"/><path class="cls-24" d="M2.83,93.6l-1-82.19L.24,10.15l2,.31A57.7,57.7,0,0,0,10.75,2l-.36-2,1.23,1.69,78.28.9H11.46L2.83,11.22V93.6Z"/><path class="cls-67" d="M123.46,54.3l-1.41,1.41V70.89l1.41,1.42h15.18l1.42-1.42V55.71l-1.42-1.41Zm.2.46-1.15,1.15V70.7l1.15,1.14h14.79l1.14-1.14V55.91l-1.14-1.15Z"/><polygon class="cls-68" points="123.85 55.23 122.98 56.1 122.98 70.51 123.85 71.38 138.25 71.38 139.13 70.51 139.13 56.1 138.25 55.23 123.85 55.23 123.85 55.23"/><polygon class="cls-69" points="122.05 55.72 123.46 54.3 123.27 53.83 121.58 55.52 122.05 55.72 122.05 55.72"/><polygon class="cls-70" points="123.66 54.76 122.51 55.91 122.98 56.1 123.85 55.23 123.66 54.76 123.66 54.76"/><polygon class="cls-71" points="140.06 55.72 138.64 54.3 138.83 53.83 140.52 55.52 140.06 55.72 140.06 55.72"/><polygon class="cls-72" points="138.45 54.76 139.59 55.91 139.13 56.1 138.25 55.23 138.45 54.76 138.45 54.76"/><polygon class="cls-73" points="122.05 70.89 123.46 72.31 123.27 72.78 121.58 71.08 122.05 70.89 122.05 70.89"/><polygon class="cls-74" points="123.66 71.84 122.51 70.7 122.98 70.51 123.85 71.38 123.66 71.84 123.66 71.84"/><polygon class="cls-75" points="140.06 70.89 138.64 72.31 138.83 72.78 140.52 71.08 140.06 70.89 140.06 70.89"/><polygon class="cls-76" points="138.45 71.84 139.59 70.7 139.13 70.51 138.25 71.38 138.45 71.84 138.45 71.84"/><polygon class="cls-77" points="123.46 54.3 138.64 54.3 138.83 53.83 123.27 53.83 123.46 54.3 123.46 54.3"/><polygon class="cls-78" points="138.45 54.76 123.66 54.76 123.85 55.23 138.25 55.23 138.45 54.76 138.45 54.76"/><polygon class="cls-79" points="122.05 70.89 122.05 55.72 121.58 55.52 121.58 71.08 122.05 70.89 122.05 70.89"/><polygon class="cls-80" points="122.51 55.91 122.51 70.7 122.98 70.51 122.98 56.1 122.51 55.91 122.51 55.91"/><polygon class="cls-81" points="139.13 56.1 139.13 70.51 139.59 70.7 139.59 55.91 139.13 56.1 139.13 56.1"/><polygon class="cls-82" points="140.06 55.72 140.06 70.89 140.52 71.08 140.52 55.52 140.06 55.72 140.06 55.72"/><polygon class="cls-83" points="138.25 71.38 123.85 71.38 123.66 71.84 138.45 71.84 138.25 71.38 138.25 71.38"/><polygon class="cls-84" points="138.64 72.31 123.46 72.31 123.27 72.78 138.83 72.78 138.64 72.31 138.64 72.31"/><polygon class="cls-85" points="122.98 56.1 131.05 63.3 123.85 55.23 122.98 56.1 122.98 56.1"/><polygon class="cls-86" points="139.13 56.1 131.05 63.3 138.25 55.23 139.13 56.1 139.13 56.1"/><polygon class="cls-87" points="122.98 70.51 131.05 63.3 123.85 71.38 122.98 70.51 122.98 70.51"/><polygon class="cls-88" points="139.13 70.51 131.05 63.3 138.25 71.38 139.13 70.51 139.13 70.51"/><polygon class="cls-89" points="122.98 70.51 131.05 63.3 122.98 56.1 122.98 70.51 122.98 70.51"/><polygon class="cls-90" points="123.85 55.23 131.05 63.3 138.25 55.23 123.85 55.23 123.85 55.23"/><polygon class="cls-91" points="139.13 56.1 131.05 63.3 139.13 70.51 139.13 56.1 139.13 56.1"/><polygon class="cls-92" points="138.25 71.38 131.05 63.3 123.85 71.38 138.25 71.38 138.25 71.38"/><polygon class="cls-93" points="125.84 58.65 125.84 67.95 131.05 63.3 125.84 58.65 125.84 58.65"/><polygon class="cls-94" points="126.4 58.09 131.05 63.3 135.7 58.09 126.4 58.09 126.4 58.09"/><polygon class="cls-95" points="136.27 58.65 131.05 63.3 136.27 67.95 136.27 58.65 136.27 58.65"/><polygon class="cls-96" points="135.7 68.52 131.05 63.3 126.4 68.52 135.7 68.52 135.7 68.52"/><polygon class="cls-97" points="122.98 69.72 137.47 55.23 128.45 55.23 122.98 60.7 122.98 69.72 122.98 69.72"/><polygon class="cls-98" points="139.13 61.1 128.85 71.38 132.63 71.38 139.13 64.89 139.13 61.1 139.13 61.1"/><path class="cls-99" d="M138.64,72.31c-1.72.47-13.42.47-15.18,0l-.19.47h15.56l-.19-.47Z"/><path class="cls-22" d="M140.06,57.36l.15,13.51.27.2-.33-.07a9.81,9.81,0,0,0-1.42,1.39l.09.35-.2-.31-12.87-.12h12.89l1.42-1.42V57.36Z"/><path class="cls-100" d="M123.46,54.3h15.18l.19-.47c-.19.47-15.37.47-15.56,0l.19.47Z"/><path class="cls-24" d="M122.05,69.25l-.18-13.5-.25-.21.32.05a9.81,9.81,0,0,0,1.41-1.4l-.06-.32.2.28,12.86.15H123.46l-1.41,1.41V69.25Z"/><path class="cls-101" d="M123.46,79.52l-1.41,1.42V96.12l1.41,1.42h15.18l1.42-1.42V80.94l-1.42-1.42Zm.2.47-1.15,1.14v14.8l1.15,1.14h14.79l1.14-1.14V81.13L138.45,80Z"/><polygon class="cls-102" points="123.85 80.45 122.98 81.33 122.98 95.73 123.85 96.6 138.25 96.6 139.13 95.73 139.13 81.33 138.25 80.45 123.85 80.45 123.85 80.45"/><polygon class="cls-103" points="122.05 80.94 123.46 79.52 123.27 79.06 121.58 80.75 122.05 80.94 122.05 80.94"/><polygon class="cls-104" points="123.66 79.99 122.51 81.13 122.98 81.33 123.85 80.45 123.66 79.99 123.66 79.99"/><polygon class="cls-105" points="140.06 80.94 138.64 79.52 138.83 79.06 140.52 80.75 140.06 80.94 140.06 80.94"/><polygon class="cls-106" points="138.45 79.99 139.59 81.13 139.13 81.33 138.25 80.45 138.45 79.99 138.45 79.99"/><polygon class="cls-107" points="122.05 96.12 123.46 97.54 123.27 98 121.58 96.31 122.05 96.12 122.05 96.12"/><polygon class="cls-108" points="123.66 97.07 122.51 95.92 122.98 95.73 123.85 96.6 123.66 97.07 123.66 97.07"/><polygon class="cls-109" points="140.06 96.12 138.64 97.54 138.83 98 140.52 96.31 140.06 96.12 140.06 96.12"/><polygon class="cls-110" points="138.45 97.07 139.59 95.92 139.13 95.73 138.25 96.6 138.45 97.07 138.45 97.07"/><polygon class="cls-111" points="123.46 79.52 138.64 79.52 138.83 79.06 123.27 79.06 123.46 79.52 123.46 79.52"/><polygon class="cls-112" points="138.45 79.99 123.66 79.99 123.85 80.45 138.25 80.45 138.45 79.99 138.45 79.99"/><polygon class="cls-113" points="122.05 96.12 122.05 80.94 121.58 80.75 121.58 96.31 122.05 96.12 122.05 96.12"/><polygon class="cls-114" points="122.51 81.13 122.51 95.92 122.98 95.73 122.98 81.33 122.51 81.13 122.51 81.13"/><polygon class="cls-115" points="139.13 81.33 139.13 95.73 139.59 95.92 139.59 81.13 139.13 81.33 139.13 81.33"/><polygon class="cls-116" points="140.06 80.94 140.06 96.12 140.52 96.31 140.52 80.75 140.06 80.94 140.06 80.94"/><polygon class="cls-117" points="138.25 96.6 123.85 96.6 123.66 97.07 138.45 97.07 138.25 96.6 138.25 96.6"/><polygon class="cls-118" points="138.64 97.54 123.46 97.54 123.27 98 138.83 98 138.64 97.54 138.64 97.54"/><polygon class="cls-119" points="122.98 81.33 131.05 88.53 123.85 80.45 122.98 81.33 122.98 81.33"/><polygon class="cls-120" points="139.13 81.33 131.05 88.53 138.25 80.45 139.13 81.33 139.13 81.33"/><polygon class="cls-121" points="122.98 95.73 131.05 88.53 123.85 96.6 122.98 95.73 122.98 95.73"/><polygon class="cls-122" points="139.13 95.73 131.05 88.53 138.25 96.6 139.13 95.73 139.13 95.73"/><polygon class="cls-123" points="122.98 95.73 131.05 88.53 122.98 81.33 122.98 95.73 122.98 95.73"/><polygon class="cls-124" points="123.85 80.45 131.05 88.53 138.25 80.45 123.85 80.45 123.85 80.45"/><polygon class="cls-125" points="139.13 81.33 131.05 88.53 139.13 95.73 139.13 81.33 139.13 81.33"/><polygon class="cls-126" points="138.25 96.6 131.05 88.53 123.85 96.6 138.25 96.6 138.25 96.6"/><polygon class="cls-127" points="125.84 83.88 125.84 93.18 131.05 88.53 125.84 83.88 125.84 83.88"/><polygon class="cls-128" points="126.4 83.31 131.05 88.53 135.7 83.31 126.4 83.31 126.4 83.31"/><polygon class="cls-129" points="136.27 83.88 131.05 88.53 136.27 93.18 136.27 83.88 136.27 83.88"/><polygon class="cls-130" points="135.7 93.74 131.05 88.53 126.4 93.74 135.7 93.74 135.7 93.74"/><polygon class="cls-131" points="122.98 94.94 137.47 80.45 128.45 80.45 122.98 85.93 122.98 94.94 122.98 94.94"/><polygon class="cls-132" points="139.13 86.32 128.85 96.6 132.63 96.6 139.13 90.11 139.13 86.32 139.13 86.32"/><path class="cls-133" d="M138.64,97.54c-1.72.46-13.42.46-15.18,0l-.19.46h15.56l-.19-.46Z"/><path class="cls-22" d="M140.06,82.58l.15,13.51.27.2-.33-.07a9.38,9.38,0,0,0-1.42,1.4l.09.34-.2-.3-12.87-.12h12.89l1.42-1.42V82.58Z"/><path class="cls-134" d="M123.46,79.52h15.18l.19-.46c-.19.46-15.37.46-15.56,0l.19.46Z"/><path class="cls-24" d="M122.05,94.48,121.87,81l-.25-.21.32.06a10.35,10.35,0,0,0,1.41-1.4l-.06-.32.2.28,12.86.14H123.46l-1.41,1.42V94.48Z"/><path class="cls-135" d="M132.71,60.7h1.89a.63.63,0,0,1,.47,1l-6.45,7.37a.57.57,0,0,1-.71.11.57.57,0,0,1-.24-.68l1.57-4.34h-1.73a.62.62,0,0,1-.56-.9l2.6-5.38a1,1,0,0,1,.95-.59h3.18a.62.62,0,0,1,.54.31.6.6,0,0,1,0,.63l-1.5,2.44Z"/><path class="cls-136" d="M131.05,84.46A3.58,3.58,0,0,1,137,85a4.36,4.36,0,0,1,0,3.57c-.91,2.36-3.36,4.3-5.59,5.33a.78.78,0,0,1-.7,0c-2.23-1-4.68-3-5.58-5.33a4.4,4.4,0,0,1,0-3.57,3.58,3.58,0,0,1,5.93-.5Z"/><path class="cls-137" d="M145.55,54.3l-1.42,1.41V70.89l1.42,1.42H294.71l1.41-1.42V55.71l-1.41-1.41Zm.19.46-1.14,1.15V70.7l1.14,1.14H294.51l1.15-1.14V55.91l-1.15-1.15Z"/><polygon class="cls-138" points="145.93 55.23 145.06 56.1 145.06 70.51 145.93 71.38 294.32 71.38 295.19 70.51 295.19 56.1 294.32 55.23 145.93 55.23 145.93 55.23"/><polygon class="cls-139" points="144.13 55.72 145.55 54.3 145.35 53.83 143.66 55.52 144.13 55.72 144.13 55.72"/><polygon class="cls-140" points="145.74 54.76 144.6 55.91 145.06 56.1 145.93 55.23 145.74 54.76 145.74 54.76"/><polygon class="cls-141" points="296.13 55.72 294.71 54.3 294.9 53.83 296.59 55.52 296.13 55.72 296.13 55.72"/><polygon class="cls-142" points="294.51 54.76 295.66 55.91 295.19 56.1 294.32 55.23 294.51 54.76 294.51 54.76"/><polygon class="cls-143" points="144.13 70.89 145.55 72.31 145.35 72.78 143.66 71.08 144.13 70.89 144.13 70.89"/><polygon class="cls-144" points="145.74 71.84 144.6 70.7 145.06 70.51 145.93 71.38 145.74 71.84 145.74 71.84"/><polygon class="cls-145" points="296.13 70.89 294.71 72.31 294.9 72.78 296.59 71.08 296.13 70.89 296.13 70.89"/><polygon class="cls-146" points="294.51 71.84 295.66 70.7 295.19 70.51 294.32 71.38 294.51 71.84 294.51 71.84"/><polygon class="cls-147" points="145.55 54.3 294.71 54.3 294.9 53.83 145.35 53.83 145.55 54.3 145.55 54.3"/><polygon class="cls-148" points="294.51 54.76 145.74 54.76 145.93 55.23 294.32 55.23 294.51 54.76 294.51 54.76"/><polygon class="cls-149" points="144.13 70.89 144.13 55.72 143.66 55.52 143.66 71.08 144.13 70.89 144.13 70.89"/><polygon class="cls-150" points="144.6 55.91 144.6 70.7 145.06 70.51 145.06 56.1 144.6 55.91 144.6 55.91"/><polygon class="cls-151" points="295.19 56.1 295.19 70.51 295.66 70.7 295.66 55.91 295.19 56.1 295.19 56.1"/><polygon class="cls-152" points="296.13 55.72 296.13 70.89 296.59 71.08 296.59 55.52 296.13 55.72 296.13 55.72"/><polygon class="cls-153" points="294.32 71.38 145.93 71.38 145.74 71.84 294.51 71.84 294.32 71.38 294.32 71.38"/><polygon class="cls-154" points="294.71 72.31 145.55 72.31 145.35 72.78 294.9 72.78 294.71 72.31 294.71 72.31"/><path class="cls-155" d="M294.71,72.31c-1.72.47-147.41.47-149.16,0l-.19.47H294.9l-.19-.47Z"/><path class="cls-22" d="M296.12,57.36l.15,13.51.28.2-.34-.07a9.25,9.25,0,0,0-1.41,1.39l.08.35-.19-.31-146.85-.12H294.71l1.41-1.42V57.36Z"/><path class="cls-156" d="M145.55,54.3H294.71l.19-.47c-.19.47-149.35.47-149.54,0l.19.47Z"/><path class="cls-24" d="M144.13,69.25,144,55.74l-.28-.2.34.07a10.34,10.34,0,0,0,1.42-1.39l-.09-.35.2.3,146.85.13H145.55l-1.42,1.41V69.25Z"/><polygon class="cls-157" points="293.99 56.02 146.26 56.02 145.85 56.43 145.85 70.18 146.26 70.59 293.99 70.59 294.4 70.18 294.4 56.43 293.99 56.02 293.99 56.02"/><polygon class="cls-158" points="146.26 62.63 293.99 62.63 294.4 62.22 294.4 56.43 293.99 56.02 146.26 56.02 145.85 56.43 145.85 62.22 146.26 62.63 146.26 62.63"/><polygon class="cls-159" points="293.99 67.9 146.26 67.9 145.85 68.31 145.85 70.18 146.26 70.59 293.99 70.59 294.4 70.18 294.4 68.31 293.99 67.9 293.99 67.9"/><path class="cls-160" d="M145.55,79.52l-1.42,1.42V96.12l1.42,1.42H294.71l1.41-1.42V80.94l-1.41-1.42Zm.19.47-1.14,1.14V95.92l1.14,1.15H294.51l1.15-1.15V81.13L294.51,80Z"/><polygon class="cls-161" points="145.93 80.45 145.06 81.33 145.06 95.73 145.93 96.6 294.32 96.6 295.19 95.73 295.19 81.33 294.32 80.45 145.93 80.45 145.93 80.45"/><polygon class="cls-162" points="144.13 80.94 145.55 79.52 145.35 79.06 143.66 80.75 144.13 80.94 144.13 80.94"/><polygon class="cls-163" points="145.74 79.99 144.6 81.13 145.06 81.33 145.93 80.45 145.74 79.99 145.74 79.99"/><polygon class="cls-164" points="296.13 80.94 294.71 79.52 294.9 79.06 296.59 80.75 296.13 80.94 296.13 80.94"/><polygon class="cls-165" points="294.51 79.99 295.66 81.13 295.19 81.33 294.32 80.45 294.51 79.99 294.51 79.99"/><polygon class="cls-166" points="144.13 96.12 145.55 97.53 145.35 98 143.66 96.31 144.13 96.12 144.13 96.12"/><polygon class="cls-167" points="145.74 97.07 144.6 95.92 145.06 95.73 145.93 96.6 145.74 97.07 145.74 97.07"/><polygon class="cls-168" points="296.13 96.12 294.71 97.53 294.9 98 296.59 96.31 296.13 96.12 296.13 96.12"/><polygon class="cls-169" points="294.51 97.07 295.66 95.92 295.19 95.73 294.32 96.6 294.51 97.07 294.51 97.07"/><polygon class="cls-170" points="145.55 79.52 294.71 79.52 294.9 79.06 145.35 79.06 145.55 79.52 145.55 79.52"/><polygon class="cls-171" points="294.51 79.99 145.74 79.99 145.93 80.45 294.32 80.45 294.51 79.99 294.51 79.99"/><polygon class="cls-172" points="144.13 96.12 144.13 80.94 143.66 80.75 143.66 96.31 144.13 96.12 144.13 96.12"/><polygon class="cls-173" points="144.6 81.13 144.6 95.92 145.06 95.73 145.06 81.33 144.6 81.13 144.6 81.13"/><polygon class="cls-174" points="295.19 81.33 295.19 95.73 295.66 95.92 295.66 81.13 295.19 81.33 295.19 81.33"/><polygon class="cls-175" points="296.13 80.94 296.13 96.12 296.59 96.31 296.59 80.75 296.13 80.94 296.13 80.94"/><polygon class="cls-176" points="294.32 96.6 145.93 96.6 145.74 97.07 294.51 97.07 294.32 96.6 294.32 96.6"/><polygon class="cls-177" points="294.71 97.53 145.55 97.53 145.35 98 294.9 98 294.71 97.53 294.71 97.53"/><path class="cls-178" d="M294.71,97.54c-1.72.46-147.41.46-149.16,0l-.19.46H294.9l-.19-.46Z"/><path class="cls-22" d="M296.12,82.58l.15,13.51.28.2-.34-.07a9.32,9.32,0,0,0-1.41,1.4l.08.34-.19-.3-146.85-.12H294.71l1.41-1.42V82.58Z"/><path class="cls-179" d="M145.55,79.52H294.71l.19-.46c-.19.46-149.35.46-149.54,0l.19.46Z"/><path class="cls-24" d="M144.13,94.48,144,81l-.28-.2.34.07a9.79,9.79,0,0,0,1.42-1.39l-.09-.34.2.3,146.85.12H145.55l-1.42,1.42V94.48Z"/><polygon class="cls-180" points="293.99 81.25 146.26 81.25 145.85 81.65 145.85 95.4 146.26 95.81 293.99 95.81 294.4 95.4 294.4 81.65 293.99 81.25 293.99 81.25"/><polygon class="cls-181" points="146.26 87.86 293.99 87.86 294.4 87.45 294.4 81.65 293.99 81.25 146.26 81.25 145.85 81.65 145.85 87.45 146.26 87.86 146.26 87.86"/><polygon class="cls-182" points="293.99 93.13 146.26 93.13 145.85 93.54 145.85 95.4 146.26 95.81 293.99 95.81 294.4 95.4 294.4 93.54 293.99 93.13 293.99 93.13"/><polygon class="cls-183" points="8.5 13.57 13.81 8.26 101.49 8.26 106.79 13.57 106.79 101.25 101.49 106.55 13.81 106.55 8.5 101.25 8.5 13.57"/><g class="cls-184"><polygon class="cls-185" points="76.11 45.82 74.01 53.23 60.09 53.22 62.19 45.81 76.11 45.82"/><path class="cls-186" d="M84.05,84.6a121.49,121.49,0,0,1,3.83,12.47c1.05,4.88.35,17.74,0,28.63S83.34,146,71.46,146H44.24c-11.89,0-16.08-9.46-16.43-20.34s-1-23.75,0-28.63A121.49,121.49,0,0,1,31.64,84.6Z"/><path class="cls-187" d="M31.64,84.6H84.05l1.8,5.77S59.44,92.78,31.64,84.6Z"/><path class="cls-186" d="M87.2,84.26a371.09,371.09,0,0,1-58.7,0,6.69,6.69,0,0,1-6.69-6.68V68.14a6.69,6.69,0,0,1,6.69-6.68,304.56,304.56,0,0,0,58.7,0,6.68,6.68,0,0,1,6.68,6.68v9.44A6.68,6.68,0,0,1,87.2,84.26Z"/><path class="cls-188" d="M29,61.51C32,64,36,65.66,39.23,67c6.46,2.71,13.31,5.3,20.26,6.35A106.74,106.74,0,0,0,75.93,74.9c3.29,0,7.68.77,10.76-.64,4.81-2.22,2.89-7.79-.46-12.71A304.36,304.36,0,0,1,29,61.51Z"/><path class="cls-189" d="M79.08,84.75c-2,.11-3.27.17-5.25.25L72.57,62.45c2-.09,2-.11,4-.24Z"/><polygon class="cls-190" points="35.87 84.79 35.87 90.05 38.35 92.5 40.3 89.58 40.7 85.01 35.87 84.79"/><polygon class="cls-190" points="73.83 85 74.66 90.52 77.13 92.96 79.08 90.05 79.08 84.75 73.83 85"/><path class="cls-188" d="M57.85,138.19c25.89,0,21-17.5,21-27s-7.86-9.83-21-9.83-21,.34-21,9.83S32,138.19,57.85,138.19Z"/><path class="cls-189" d="M47.7,149.16,45,152.41l-2.66-3.25v-46.4c1.78-1.48,3.55-1.84,5.33-1.07Z"/><path class="cls-189" d="M67.79,149.16l2.66,3.25,2.66-3.25v-46.4c-1.77-1.48-3.55-1.84-5.32-1.07Z"/><path class="cls-191" d="M83,137.12l2-17.73c5.32-12.45,10.53-37.16,10.53-37.16C92,74.8,72.57,62.45,57.81,62.74S23.61,74.8,20.08,82.23c0,0,5.21,24.71,10.53,37.16,0,0,1.24,7.07,2.16,16.49l-.19,6.84a27.17,27.17,0,0,0-4.48,12.93s6.81,7.61,25.1,8.32l5.91-15.67L65.35,164c17.57-.75,22.55-7.87,22.55-7.87C88.07,151,83,143.33,83,143.33Z"/><path class="cls-192" d="M57.81,62.74C43,63,23.61,74.8,20.08,82.23c0,0,1.39,6.61,3.48,14.71h0s15.36,2.84,25.82,3.83-1.85,3.83-5.31,5.26-2.09,15.33-.69,19.85,4.11,8.93,15.73,8.93,13.6-4.21,14.09-8.93c.63-6.1,2.16-18.69-1.3-20.12s-14-4-3.48-5a236.77,236.77,0,0,0,23.67-3.9c2.07-8.07,3.46-14.64,3.46-14.64C92,74.8,72.57,62.45,57.81,62.74Z"/><path class="cls-191" d="M31.45,75.62C20,73.21,16.05,90.91,14.09,102.05a216,216,0,0,0-2.74,23.15c-.33,4.82,7.93,9.15,12.73,1.26s10.2-24.64,12.73-35.26S36.14,76.61,31.45,75.62Z"/><path class="cls-192" d="M23.56,96.94s5,.93,11.23,1.9c.78-2.73,1.47-5.33,2-7.64,2.52-10.62-.67-14.59-5.36-15.58C20,73.21,16.05,90.91,14.09,102.05c-.93,5.29-1.54,10.08-2,14.13C16.45,116,23.56,96.94,23.56,96.94Z"/><path class="cls-191" d="M84.3,75.32C95.81,72.91,99,90.75,101.66,101.74c2.32,9.68,2.41,18.33,2.74,23.15s-7.93,9.16-12.72,1.27S81.48,101.51,79,90.89,79.62,76.3,84.3,75.32Z"/><path class="cls-192" d="M103.87,116.18a94.75,94.75,0,0,0-2.21-14.44C99,90.75,95.81,72.91,84.3,75.32c-4.68,1-7.88,5-5.35,15.57.58,2.44,1.31,5.21,2.15,8.11,6.15-1.06,11-2.13,11-2.13S99.54,115.94,103.87,116.18Z"/><path class="cls-189" d="M40,62.32C32.68,75.66,28,95.07,27.58,111l3,8.36c3.86-25.75,3.79-36.13,14-56.87Z"/><path d="M30.61,119.77a.39.39,0,0,1-.36-.25C30.2,119.38,25,105.24,23.18,97a.38.38,0,0,1,.75-.17c1.79,8.16,7,22.25,7,22.39a.4.4,0,0,1-.23.5Z"/><path class="cls-189" d="M76.53,62.21C83.88,75.55,87.65,95.07,88.07,111l-3,8.36c-3.86-25.75-3.79-36.13-14-56.87Z"/><path d="M85,119.77l-.13,0a.4.4,0,0,1-.23-.5c0-.14,5.25-14.23,7-22.39a.39.39,0,0,1,.46-.29.4.4,0,0,1,.29.46c-1.81,8.21-7,22.35-7.07,22.49A.4.4,0,0,1,85,119.77Z"/><path class="cls-186" d="M68.58,64.28s2.82,16.9,2.82,28c0,7.85-2.17,48.71-2.17,48.71a25.63,25.63,0,0,0,5.38-1s1.74-40.39,1.75-48.14a109.68,109.68,0,0,0-3.73-26.19Z"/><path class="cls-186" d="M47.06,64.58S44.83,81.36,44.83,92.5c0,7.84,1.12,47.31,1.12,47.31l-5.74-.93s-1-39.24-1-47A106.67,106.67,0,0,1,42.94,66Z"/><path d="M59.11,142a.39.39,0,0,1-.38-.38l-.87-73.81a.39.39,0,0,1,.38-.39.39.39,0,0,1,.39.38l.87,73.82a.38.38,0,0,1-.38.38Z"/><ellipse class="cls-186" cx="57.82" cy="59.77" rx="10.76" ry="2.98"/><rect class="cls-193" x="50.75" y="45.79" width="14.26" height="22.05" rx="7.13"/><path class="cls-192" d="M58.24,67.84c7.13,0,10.33-2.35,10.33-2.35V59.77a65.75,65.75,0,0,1-9.26,1.6c-.27,0-1.07,6.47-1.07,6.47s-1.48-6.42-1.71-6.42a38.66,38.66,0,0,1-9.47-1.65v5.72S51.12,67.84,58.24,67.84Z"/><path d="M58.24,68.22c-7.14,0-11.2-2.3-11.37-2.4a.38.38,0,0,1-.14-.52.39.39,0,0,1,.52-.14s4.07,2.3,11,2.3,10.07-2.25,10.1-2.27a.38.38,0,1,1,.45.61C68.66,65.9,65.41,68.22,58.24,68.22Z"/><path class="cls-194" d="M46.81,40.87l-1.1-7.17s-2.09-12.11,9.35-10.31c0,0,8.62-.57,15.24,3.48,4.4,2.69,3.77,7.67.25,13.63h0s-1.14,9.42-6.93,13.8H52.39S48.4,51.77,46.81,40.87Z"/><path class="cls-193" d="M48.54,47.11s-2,3.31-3.62-1c-.8-2.14-1.33-3.76-1.64-4.8a2.77,2.77,0,0,1,.46-2.49h0a1.55,1.55,0,0,1,1.95-.48l2,1.06"/><path class="cls-193" d="M67.49,47.11s1.94,3.31,3.5-1c.76-2.14,1.27-3.76,1.58-4.8a2.83,2.83,0,0,0-.46-2.49h0a1.44,1.44,0,0,0-1.87-.48l-1.9,1.06"/><path class="cls-195" d="M57.87,26c7.3,0,10.91,3.57,12.16,7.73L68,52.09,62.4,59.56l-6.85.21-7-7.65L45.71,33.7C47,29.54,50.58,26,57.87,26Z"/><path class="cls-194" d="M47.69,46.61l.85,5.51s4.83,5.48,6.4,8.46a48.88,48.88,0,0,1,7.89-.31s3.31-5.18,5.14-8.18l.71-6.3-.88-.37a22.35,22.35,0,0,1-.8,4.47c-.5,1.57-1.34,2.79-2.29,2.21a10.81,10.81,0,0,0-6-1.6c-2.06,0-4.37,1.14-6,1.6a2.93,2.93,0,0,1-3.14-1.89,16.22,16.22,0,0,1-1-4Z"/><polygon class="cls-194" points="47.69 46.61 48.54 46.2 48.12 38.06 50.44 35.7 49.07 30.25 66.75 30.83 66.12 35.67 68.1 37.97 67.8 45.41 68.68 45.79 70.03 33.7 69.07 26.88 58.68 24.65 47.69 27.21 45.71 33.7 47.69 46.61"/><path d="M66.28,38.06H59.83a.12.12,0,0,1,0-.22L64.6,35.7a.28.28,0,0,1,.32.07l1.57,1.83A.28.28,0,0,1,66.28,38.06Z"/><path d="M50.4,38.06h6.45a.12.12,0,0,0,0-.22L52.08,35.7a.29.29,0,0,0-.33.07L50.18,37.6A.28.28,0,0,0,50.4,38.06Z"/><path class="cls-183" d="M55.53,51.11h6.3S61.24,53.8,59,53.88,55.53,51.11,55.53,51.11Z"/><path d="M58.68,49.84c.31,0,.42-.34.72-.5a2,2,0,0,1,2.22.38c.57.41.86,1.45,1.67,1.4s.83-.74.89-1.38a1.78,1.78,0,0,1,.53,2.36c-.59,1-2.06.85-2.93.42a19.74,19.74,0,0,0-3.1-1.34,19.74,19.74,0,0,0-3.1,1.34c-.87.43-2.34.59-2.93-.42a1.78,1.78,0,0,1,.53-2.36c.06.64.14,1.33.89,1.38s1.1-1,1.67-1.4A2,2,0,0,1,58,49.34C58.26,49.5,58.37,49.84,58.68,49.84Z"/><g class="cls-196"><path class="cls-183" d="M56.54,41.33a4.67,4.67,0,0,1-3,1.54,4.64,4.64,0,0,1-3-1.54,4.63,4.63,0,0,1,3-1.55A4.66,4.66,0,0,1,56.54,41.33Z"/><ellipse cx="53.53" cy="41.34" rx="1.43" ry="2.18"/><ellipse class="cls-183" cx="52.2" cy="41.33" rx="0.49" ry="0.56"/></g><g class="cls-197"><path class="cls-183" d="M66.13,41.33a4.63,4.63,0,0,1-3,1.54,4.64,4.64,0,0,1-3-1.54,4.63,4.63,0,0,1,3-1.55A4.62,4.62,0,0,1,66.13,41.33Z"/><ellipse cx="63.12" cy="41.34" rx="1.43" ry="2.18"/><ellipse class="cls-183" cx="61.8" cy="41.33" rx="0.49" ry="0.56"/></g><path class="cls-198" d="M60.14,46a.23.23,0,0,1-.23-.22l-.36-7.93a.23.23,0,1,1,.46,0l.36,7.92a.24.24,0,0,1-.22.25Z"/><path class="cls-198" d="M59.1,48.59,59,48.52a10.48,10.48,0,0,1-2.37-2.24.24.24,0,0,1,0-.33A.23.23,0,0,1,57,46a10.77,10.77,0,0,0,2.11,2,4.82,4.82,0,0,0,1.64-2,.22.22,0,0,1,.3-.13.24.24,0,0,1,.13.31,5.37,5.37,0,0,1-1.94,2.29Z"/><polygon class="cls-185" points="43.93 60.98 43.05 64.11 34.58 64.11 35.47 60.98 43.93 60.98"/><polygon class="cls-185" points="105.71 85.23 104.34 90.08 90.96 90.07 92.33 85.23 105.71 85.23"/><polygon class="cls-185" points="16.95 79.58 16.18 82.3 5.73 82.3 6.5 79.57 16.95 79.58"/><polygon class="cls-185" points="91.52 53.23 90.66 56.28 73.15 56.28 74.01 53.23 91.52 53.23"/><path class="cls-191" d="M70.9,27.3c0,.89-5.67,2.62-12.4,2.62S46.31,28.75,46.31,27.3s5.46-2.61,12.19-2.61S70.9,25.86,70.9,27.3Z"/><polygon class="cls-191" points="46.31 27.3 49.25 16.27 67.75 16.27 70.9 27.3 46.31 27.3"/><ellipse class="cls-192" cx="58.5" cy="16.27" rx="9.25" ry="2.62"/><path class="cls-192" d="M70.9,27.3a65.43,65.43,0,0,1-12.4,1.23A61.79,61.79,0,0,1,46.31,27.3S49,33.49,58.5,33.49,70.9,27.3,70.9,27.3Z"/><path class="cls-189" d="M58.49,26.87A24.66,24.66,0,0,0,66,25.79l-.57-3.32a38.75,38.75,0,0,1-7,.81h0a38.22,38.22,0,0,1-6.93-.81L51,25.79A25.22,25.22,0,0,0,58.49,26.87Z"/></g><text class="cls-199" transform="translate(158.83 39.07)">PHONG LE</text></g></g></svg>