<svg xmlns="http://www.w3.org/2000/svg" viewBox="0 0 244.92 78.34"><defs><style>.cls-1{isolation:isolate;}.cls-2{fill:#ae5822;}.cls-3,.cls-4{fill:#974c1c;opacity:0.2;}.cls-3,.cls-5,.cls-6{mix-blend-mode:screen;}.cls-4{mix-blend-mode:multiply;}.cls-5,.cls-6{fill:#492402;}.cls-5{opacity:0.4;}.cls-6{opacity:0.7;}.cls-7{fill:#512904;}.cls-8{fill:#97c342;}.cls-9{fill:#67b549;}</style></defs><g class="cls-1"><g id="Layer_1" data-name="Layer 1"><path class="cls-2" d="M147.86.23C138.66.8,129.68,3,120.51,3.78c-8.82.7-17.64-.55-26.47.28a157.16,157.16,0,0,1-27.35.67c-4.56-.36-9-1.14-13.55-1.82A125.18,125.18,0,0,0,39.6,1.69c-2.21-.09-4.43-.13-6.64-.16-1.64.08-3.28.17-4.91.27a63.09,63.09,0,0,1-6.45.09,21.69,21.69,0,0,0-6.48,1c-1,.25-2.13.31-3.18.46l-.61.1H0V77.48H6.15a19.8,19.8,0,0,1,6.72-1.17,102,102,0,0,1,13.18.94c11.22,1.16,22.48.11,33.7-.54,11-.64,21.62.51,32.57.7,4.61.08,9.2-.28,13.8-.53,9.31-.49,17.69,1.41,27,1.46,14.07.07,27.92-4,41.94-3.84a89.46,89.46,0,0,1,12.44,1.24c5.16.78,10.34.46,15.53.64,4.64.16,9.24.93,13.87,1.18a74.09,74.09,0,0,0,7.6,0,55,55,0,0,1,5.59-.35,7.36,7.36,0,0,1,2.67.83,13.53,13.53,0,0,0,3.91.17,14,14,0,0,0,3.37-.78h4.86V3.41c-8.63,0-17.24-.75-25.86-1.13-.65-.2-1.29-.4-1.93-.62-2.14-.74-4-.33-6.24,0S206.72,3,204.58,3.24c-9,1.13-17.75-1.64-26.71-1.68-1.64,0-3.28,0-4.93,0l-.38-.24a9.73,9.73,0,0,0-5.13-1c-2.25,0-4.49-.2-6.74-.27C156.42,0,152.12,0,147.86.23Z"/><path class="cls-3" d="M238.64,18.32a10.76,10.76,0,0,1-2.41,2.91c-2.14,1.49-4.52.7-6.38-.86-2.55-2.15-4.75-4.77-8-6-3.65-1.38-7.23-.5-10.84.47a23.94,23.94,0,0,1-5.93,1c-1.87,0-3.72-.15-5.59-.26a85.77,85.77,0,0,0-13.4.67c-4.51.43-9,.73-13.52.71a18.65,18.65,0,0,0-5.22.4,22,22,0,0,0-4.29,1.92c-2.83,1.53-6,3.49-9.42,2.64-2.82-.7-4.63-2.44-6.93-4.06-3.1-2.17-7-1.79-10.6-2.52-4.22-.87-8.67-2.26-13-1.69-3.41.45-6.6,1.77-9.92,2.58a24.29,24.29,0,0,1-5.36.74,31.7,31.7,0,0,0-6.16.23c-3.91.79-7.44,2.69-11.22,3.88A31.67,31.67,0,0,1,79.31,23,40.61,40.61,0,0,1,69,20.79,65.78,65.78,0,0,1,58.51,16.5c-3.47-1.82-6.82-3.08-10.8-2.66a.39.39,0,0,1-.39-.19c-1.69,1.45-3.54,3.52-5.88,3.65s-4.35-1.52-6.69-1.83c-3.48-.46-7,.66-10.48,0C21.38,15,18.79,13.59,15.94,13c-3.36-.76-6.29.07-9.53,1A16.73,16.73,0,0,1,2,14.75c-.68,0-1.36-.06-2-.09V67.12c3.87-.18,7.78-.17,11.52-1.21,4.4-1.22,8.87-2.55,13.49-2.46,4.26.09,9.17,1.72,13.2-.28,3.33-1.66,5.78-4.48,8.9-6.44,2.58-1.62,6-2.79,9-1.81,3.24,1,5.57,3.8,8.77,4.93,1.89.67,3.89.91,5.79,1.53A44.7,44.7,0,0,0,76,63c3.86.72,7.89,0,11.69-.78a16.61,16.61,0,0,1,6-.5,21.29,21.29,0,0,1,4.47,1.34l1.52.63c3.27.67,6.44,1.85,9.81,1.76,2.79-.07,5.48-1,8.26-1.3A46.65,46.65,0,0,1,125.4,64c2.91.17,5.79.67,8.69.82a42.41,42.41,0,0,0,8.12-.51c2.69-.39,5.37-.87,8.09-1a55.85,55.85,0,0,1,7.86.48c4.13.34,8.07-.52,12.12-1.17a59.54,59.54,0,0,1,13-.71c4.44.26,8.87.77,13.31,1.09a74,74,0,0,0,11.14-.13,12.63,12.63,0,0,1,4.25,0,21.64,21.64,0,0,1,3,1.46c1.07.48,2.49,1.33,3.71,1.29,1.63,0,3.28-.56,4.9-.77a21.75,21.75,0,0,1,5.52-.26c4.22.57,5.72,2.84,10,3.26,1.09.11,4.72-.76,5.79-.77V14.66a14.47,14.47,0,0,0-3.13.76A8.77,8.77,0,0,0,238.64,18.32Z"/><path class="cls-4" d="M147.86.23C138.66.8,129.68,3,120.51,3.78c-8.82.7-17.64-.55-26.47.28a157.16,157.16,0,0,1-27.35.67c-4.56-.36-9-1.14-13.55-1.82A125.18,125.18,0,0,0,39.6,1.69c-2.21-.09-4.43-.13-6.64-.16-1.64.08-3.28.17-4.91.27a63.09,63.09,0,0,1-6.45.09,21.69,21.69,0,0,0-6.48,1c-1,.25-2.13.31-3.18.46l-.61.1H0V6.83a4.55,4.55,0,0,1,2,.34c1.09.48,2.24,1.46,3.5,1A11.9,11.9,0,0,0,8,6.5c3.19-2.3,7.5.25,10.6,1.44,4.57,1.75,9,.89,13.64,0a32.57,32.57,0,0,1,6-.8c1.6,0,3.2.16,4.8.25,3.35.19,6.72.31,10.07.73a28.38,28.38,0,0,1,9,2.24c3.14,1.52,5.68,4.08,8.74,5.77A13.18,13.18,0,0,0,79,17.92a27,27,0,0,0,5.18-1.25,28.64,28.64,0,0,1,5.5-1.09A15,15,0,0,0,96,13.52a22.75,22.75,0,0,1,3.43-2C103.33,9.92,108,10,112.16,10c4.27,0,8.66.38,12.92-.15,3.6-.45,7.13-1.38,10.71-2,3.06-.54,6.34-1.06,9.43-.46A7.74,7.74,0,0,1,148.9,9c1.06.88,1.94,1.93,2.95,2.86a5.9,5.9,0,0,0,4.49,2,14,14,0,0,0,4.6-1.53,24.72,24.72,0,0,1,4.82-1.85,21.3,21.3,0,0,1,5.35-.28,82.84,82.84,0,0,1,10,1.28,76.71,76.71,0,0,1,8.31-.46,44.2,44.2,0,0,0,7.36-.59c2-.39,4-1.09,6-1.48a18.64,18.64,0,0,1,4.63-.31c2.81-.09,5.6.1,8.43.22a41.52,41.52,0,0,0,6.21-.1c1.89-.21,3.75-.82,5.65-.89a15.4,15.4,0,0,1,4,.51c2.19.52.11-1.06,2.36-1.53,1.84-.38,4.9.44,6.73,0,.47-.11,3.61.26,4.07.13V3.41c-8.63,0-17.24-.75-25.86-1.13-.65-.2-1.29-.4-1.93-.62-2.14-.74-4-.33-6.24,0S206.72,3,204.58,3.24c-9,1.13-17.75-1.64-26.71-1.68-1.64,0-3.28,0-4.93,0l-.38-.24a9.73,9.73,0,0,0-5.13-1c-2.25,0-4.49-.2-6.74-.27C156.42,0,152.12,0,147.86.23Z"/><path class="cls-4" d="M244.92,75.16a23.47,23.47,0,0,1-7.41-1.9c-1.62-.66-3.23-1.37-4.78-2.19a16.76,16.76,0,0,0-3.56-1.61c-2.67-.66-5.84.49-8.44,1a45,45,0,0,1-11.7.78c-3.71-.22-7.4-.2-11.11-.33a27,27,0,0,1-8.68-1.49c-2.82-1-5.66-2.83-8.65-3.3-3.47-.55-7.16.57-10.5,1.42-4,1-8.09,2.36-12.27,2.69a23.87,23.87,0,0,1-6.2-.31A43.7,43.7,0,0,0,146,69c-3.47-.16-6.2,1.37-9.23,2.75a14,14,0,0,1-9.11.69c-3.45-.79-7.08-2.64-10.69-2.05-1.85.31-3.59,1-5.43,1.38a15.8,15.8,0,0,1-5.27,0c-4-.59-8.13-1.11-12.21-1.42a107.79,107.79,0,0,0-12.71-.19c-3.35.14-7,.82-10.27,0a17.37,17.37,0,0,1-8-4.88c-1.34-1.41-2.79-4.3-4.93-4.56-3.23-.39-6.24,2.4-8.18,4.65-1.83,2.1-3.44,4.6-5.86,6.08a12.55,12.55,0,0,1-9.15,1.29C30.84,72,31.24,72.4,27,72.4c-7.74,0-11.89,2.72-27,2.72v2.36H6.15a19.8,19.8,0,0,1,6.72-1.17,102,102,0,0,1,13.18.94c11.22,1.16,22.48.11,33.7-.54,11-.64,21.62.51,32.57.7,4.61.08,9.2-.28,13.8-.53,9.31-.49,17.69,1.41,27,1.46,14.07.07,27.92-4,41.94-3.84a89.46,89.46,0,0,1,12.44,1.24c5.16.78,10.34.46,15.53.64,4.64.16,9.24.93,13.87,1.18a74.09,74.09,0,0,0,7.6,0,55,55,0,0,1,5.59-.35,7.36,7.36,0,0,1,2.67.83,13.53,13.53,0,0,0,3.91.17,14,14,0,0,0,3.37-.78h4.86Z"/><path class="cls-5" d="M24.4,21.33a1.59,1.59,0,0,0-.83-.16,1.94,1.94,0,0,0-1.53.94,4.38,4.38,0,0,0-.24,3.71,2.5,2.5,0,0,0,3.44,1.48,2.54,2.54,0,0,0,1-2.48A3.34,3.34,0,0,0,25.2,21.7a2.87,2.87,0,0,0-.81-.38C24.53,21.39,24.54,21.39,24.4,21.33Z"/><path class="cls-5" d="M30.21,52.5h0l.14-.06-.14.06a.67.67,0,0,0-.37.24.08.08,0,0,0,0,0l0,0a.68.68,0,0,0-.11.32,1,1,0,0,0,.51.9,1,1,0,0,0,.77.14.7.7,0,0,0,.5-.76v0a1,1,0,0,0-.38-.77,1.11,1.11,0,0,0-.36-.18A.81.81,0,0,0,30.21,52.5Z"/><path class="cls-6" d="M12,54.67c-2.14.18-2.67,3-2.45,4.66a4.06,4.06,0,0,0,1.35,2.55l.13.14a1,1,0,0,0,.75.34,2.24,2.24,0,0,0,1,.07c1.23-.17,1.34-2.32,1.28-3.5,0-.08,0-.16,0-.24C14.47,57.06,14.43,54.47,12,54.67Z"/><path class="cls-6" d="M9.75,23.76c-1,.09-1.29,1.45-1.19,2.27a2,2,0,0,0,.66,1.24l.06.07a.51.51,0,0,0,.37.17,1,1,0,0,0,.47,0c.6-.08.65-1.13.62-1.7l0-.12C10.94,24.93,10.92,23.67,9.75,23.76Z"/><path class="cls-5" d="M18.56,43.63A1.44,1.44,0,0,0,19.67,45a1,1,0,0,0,1.26-.83,1.43,1.43,0,0,0-1.11-1.39A1,1,0,0,0,18.56,43.63Z"/><path class="cls-5" d="M91.42,52.33a1.49,1.49,0,0,0-.83-.15,1.94,1.94,0,0,0-1.53.94,4.38,4.38,0,0,0-.24,3.71,2.5,2.5,0,0,0,3.44,1.48,2.54,2.54,0,0,0,1-2.48,3.36,3.36,0,0,0-1.08-3.13,2.59,2.59,0,0,0-.81-.37C91.56,52.4,91.56,52.4,91.42,52.33Z"/><path class="cls-5" d="M72.6,42.46h0l.13-.06-.14.06a.68.68,0,0,0-.36.24.08.08,0,0,0,0,0l0,0a.68.68,0,0,0-.11.32,1,1,0,0,0,.51.9,1,1,0,0,0,.77.14.7.7,0,0,0,.5-.76v0a1,1,0,0,0-.37-.77,1.11,1.11,0,0,0-.36-.18A.75.75,0,0,0,72.6,42.46Z"/><path class="cls-6" d="M55.58,48.64c-1,.09-1.29,1.44-1.18,2.26a1.94,1.94,0,0,0,.65,1.24l.06.06a.51.51,0,0,0,.37.17,1,1,0,0,0,.47,0c.59-.08.65-1.12.62-1.69,0,0,0-.08,0-.12C56.76,49.8,56.74,48.54,55.58,48.64Z"/><path class="cls-6" d="M52.14,13.72c-1,.09-1.3,1.45-1.19,2.27a2,2,0,0,0,.66,1.24l.06.07a.5.5,0,0,0,.37.17,1.21,1.21,0,0,0,.47,0c.6-.08.65-1.13.62-1.7l0-.12C53.33,14.88,53.31,13.62,52.14,13.72Z"/><path class="cls-5" d="M61,33.58A1.44,1.44,0,0,0,62.06,35a1,1,0,0,0,1.26-.83,1.43,1.43,0,0,0-1.11-1.39A1,1,0,0,0,61,33.58Z"/><path class="cls-5" d="M125.88,15a2.87,2.87,0,0,0-.81.38A3.35,3.35,0,0,0,124,18.48,2.55,2.55,0,0,0,125,21a2.51,2.51,0,0,0,3.44-1.49,4.36,4.36,0,0,0-.24-3.7,2,2,0,0,0-1.53-.95,1.59,1.59,0,0,0-.83.16C125.73,15.05,125.74,15,125.88,15Z"/><path class="cls-5" d="M127.08,44.6a1.44,1.44,0,0,0-.47.22,1.93,1.93,0,0,0-.63,1.82,1.48,1.48,0,0,0,.6,1.45,1.46,1.46,0,0,0,2-.87,2.55,2.55,0,0,0-.13-2.16,1.15,1.15,0,0,0-.9-.55.88.88,0,0,0-.48.09Z"/><path class="cls-5" d="M216.36,52.43a1,1,0,0,0-.36.18,1,1,0,0,0-.38.77v0a.69.69,0,0,0,.49.76,1,1,0,0,0,.77-.14,1,1,0,0,0,.52-.9.68.68,0,0,0-.11-.32l0,0s0,0,0,0a.71.71,0,0,0-.37-.24l-.14-.06.14.06h0A.81.81,0,0,0,216.36,52.43Z"/><path class="cls-6" d="M236.08,57.91c1.25.1,1.56,1.74,1.43,2.72a2.38,2.38,0,0,1-.79,1.49l-.08.08a.59.59,0,0,1-.44.2,1.3,1.3,0,0,1-.56,0c-.72-.1-.78-1.35-.75-2l0-.15C234.65,59.3,234.68,57.79,236.08,57.91Z"/><path class="cls-6" d="M237.33,23.76c1,.09,1.29,1.45,1.19,2.27a2,2,0,0,1-.66,1.24l-.06.07a.51.51,0,0,1-.37.17,1.05,1.05,0,0,1-.47,0c-.6-.08-.65-1.13-.62-1.7l0-.12C236.14,24.93,236.16,23.67,237.33,23.76Z"/><path class="cls-5" d="M228.52,43.63A1.44,1.44,0,0,1,227.41,45a1,1,0,0,1-1.26-.83,1.43,1.43,0,0,1,1.11-1.39A1,1,0,0,1,228.52,43.63Z"/><path class="cls-5" d="M157.18,55.58a1.55,1.55,0,0,0-.39.18,1.61,1.61,0,0,0-.52,1.5,1.21,1.21,0,0,0,.5,1.18,1.19,1.19,0,0,0,1.64-.71A2.07,2.07,0,0,0,158.3,56a.94.94,0,0,0-.73-.45.7.7,0,0,0-.4.08C157.11,55.62,157.11,55.62,157.18,55.58Z"/><path class="cls-5" d="M174,42.39a1,1,0,0,0-.36.18,1,1,0,0,0-.38.77v0a.69.69,0,0,0,.49.76,1,1,0,0,0,.77-.14,1,1,0,0,0,.52-.9.68.68,0,0,0-.11-.32l0,0a.08.08,0,0,0,0,0,.67.67,0,0,0-.37-.24l-.14-.06.14.06h0A.75.75,0,0,0,174,42.39Z"/><path class="cls-6" d="M191.5,48.64c1,.09,1.29,1.44,1.18,2.26a2,2,0,0,1-.65,1.24l-.06.06a.51.51,0,0,1-.37.17,1.05,1.05,0,0,1-.47,0c-.6-.08-.65-1.12-.62-1.69a.5.5,0,0,1,0-.12C190.32,49.8,190.33,48.54,191.5,48.64Z"/><path class="cls-6" d="M194.94,13.72c1,.09,1.29,1.45,1.19,2.27a2,2,0,0,1-.66,1.24l-.06.07a.51.51,0,0,1-.37.17,1.22,1.22,0,0,1-.47,0c-.6-.08-.65-1.13-.62-1.7l0-.12C193.75,14.88,193.77,13.62,194.94,13.72Z"/><path class="cls-5" d="M186.13,33.58A1.44,1.44,0,0,1,185,35a1,1,0,0,1-1.26-.83,1.43,1.43,0,0,1,1.11-1.39A1,1,0,0,1,186.13,33.58Z"/><path class="cls-4" d="M39.06,28.36a1.11,1.11,0,0,0-.51.88A1.78,1.78,0,0,0,39.93,31,1.41,1.41,0,0,0,41,30.81a1.15,1.15,0,0,0,.51-.89,1.79,1.79,0,0,0-1.38-1.72A1.4,1.4,0,0,0,39.06,28.36Z"/><path class="cls-4" d="M10.54,34.71l0,.07h-.13a.27.27,0,0,0-.27.33.41.41,0,0,0,.49.32.85.85,0,0,0,.32-.18c-.07.06,0,0,.08,0l0,0a.29.29,0,0,0,0-.43C11,34.64,10.65,34.51,10.54,34.71Z"/><path class="cls-4" d="M74,46.1a1.19,1.19,0,0,0-.49,1.26,1.82,1.82,0,0,0,1,1.24,1.7,1.7,0,0,0,.76.18l.37-.05a1.28,1.28,0,0,0,.59-.38,1.46,1.46,0,0,0,.32-.84,1.35,1.35,0,0,0-.14-.66,1.58,1.58,0,0,0-.75-.76,1.23,1.23,0,0,0-.6-.16A1.43,1.43,0,0,0,74,46.1Z"/><path class="cls-4" d="M77.92,24.84c0,.75,1.35,1.18,1.35.32S77.92,24,77.92,24.84Z"/><path class="cls-4" d="M115.51,55.28c0,.36.64.57.64.15S115.51,54.87,115.51,55.28Z"/><path class="cls-4" d="M103.34,60a1.27,1.27,0,0,0-.52,1.34,1.88,1.88,0,0,0,.67,1.07,1.73,1.73,0,0,0,1.57.38,1.64,1.64,0,0,0,.76-.45,1.22,1.22,0,0,0,.25-.67,1.75,1.75,0,0,0-.66-1.39,2.89,2.89,0,0,0-.94-.44A1.4,1.4,0,0,0,103.34,60Z"/><path class="cls-4" d="M111.73,18.89a1.19,1.19,0,0,0-.56,1,2,2,0,0,0,1.5,1.88,1.49,1.49,0,0,0,1.15-.17,1.22,1.22,0,0,0,.56-1,1.93,1.93,0,0,0-1.51-1.87A1.47,1.47,0,0,0,111.73,18.89Z"/><path class="cls-4" d="M143,56.39a1.58,1.58,0,0,0,1.22,1.53,1.07,1.07,0,0,0,1.38-.92,1.57,1.57,0,0,0-1.22-1.52A1.06,1.06,0,0,0,143,56.39Z"/><path class="cls-4" d="M137.73,58.88c0,.5.88.78.88.21S137.73,58.32,137.73,58.88Z"/><path class="cls-4" d="M143,22a1.49,1.49,0,0,0,1.16,1.44,1,1,0,0,0,1.32-.87,1.49,1.49,0,0,0-1.16-1.44A1,1,0,0,0,143,22Z"/><path class="cls-4" d="M132.85,36.44a1,1,0,0,0-.68,1.18,1.5,1.5,0,0,0,1.15,1.15,1.36,1.36,0,0,0,1.08-.13,1,1,0,0,0,.42-1.06,1.5,1.5,0,0,0-.28-.6l-.26-.26a1.52,1.52,0,0,0-1.43-.28Z"/><path class="cls-4" d="M164.69,31.13c0,1.73,3.1,2.72,3.1.72C167.79,30.12,164.69,29.13,164.69,31.13Z"/><path class="cls-4" d="M163,23.87v0a.8.8,0,0,0,.21,1.09l0,0a.93.93,0,0,0,.82.19.64.64,0,0,0,.45-.77C164.34,23.8,163.45,23.32,163,23.87Z"/><path class="cls-4" d="M184.68,19.28c0,1.79,3.21,2.81,3.21.75C187.89,18.24,184.68,17.21,184.68,19.28Z"/><path class="cls-4" d="M206.58,58.31c0,1.43,2.56,2.24,2.56.59C209.14,57.47,206.58,56.66,206.58,58.31Z"/><path class="cls-4" d="M200.3,61.59c0,.34.62.54.62.14S200.3,61.19,200.3,61.59Z"/><path class="cls-4" d="M224.29,56.24c0,1.27,2.28,2,2.28.53C226.57,55.49,224.29,54.77,224.29,56.24Z"/><path class="cls-4" d="M209.79,20.89a1.32,1.32,0,0,0-.59,1,1.91,1.91,0,0,0,.41,1.24,2.13,2.13,0,0,0,1.2.77,1.6,1.6,0,0,0,1.23-.17,1.3,1.3,0,0,0,.6-1,2,2,0,0,0-.41-1.24,2.18,2.18,0,0,0-1.2-.77A1.63,1.63,0,0,0,209.79,20.89Z"/><path class="cls-4" d="M203,23.6a1.28,1.28,0,0,0,1,1.25.87.87,0,0,0,1.13-.75,1.3,1.3,0,0,0-1-1.25A.88.88,0,0,0,203,23.6Z"/><path class="cls-4" d="M200.21,38.44a1.41,1.41,0,0,0,1.09,1.35,1,1,0,0,0,1.23-.81,1.4,1.4,0,0,0-1.09-1.36A1,1,0,0,0,200.21,38.44Z"/><path class="cls-4" d="M224.23,19.49a.42.42,0,0,0,0,.36s0,0,0,0,0,.1,0,.15c0,.37.68.52.74.08,0,0,0-.08,0-.12a.41.41,0,0,0,.06-.31.58.58,0,0,0-.42-.42A.39.39,0,0,0,224.23,19.49Z"/><path class="cls-4" d="M220.08,15.51c0,.64,1.16,1,1.16.27S220.08,14.76,220.08,15.51Z"/><path class="cls-7" d="M72.86,9.12c-.29.14-.4.6-.59.83s-.48.65-.37,1,0,.66,0,1a1.26,1.26,0,0,0,.37.62,3.81,3.81,0,0,0,1.13,1.93c1.71,1.17,2.93-1.3,2.68-2.79S74.72,8.2,72.86,9.12Z"/><path class="cls-3" d="M73.24,10.61c-.19.09-.26.4-.39.55s-.32.43-.25.65,0,.43,0,.69a.85.85,0,0,0,.25.41,2.61,2.61,0,0,0,.75,1.29c1.14.77,2-.87,1.78-1.86S74.48,10,73.24,10.61Z"/><path class="cls-7" d="M81.89,13.82c-.15.07-.2.3-.3.41s-.24.33-.19.49,0,.33,0,.52a.76.76,0,0,0,.19.32,2,2,0,0,0,.57,1c.86.59,1.47-.66,1.35-1.41S82.83,13.35,81.89,13.82Z"/><path class="cls-3" d="M82.08,14.57c-.09,0-.13.2-.2.27s-.16.22-.12.33,0,.22,0,.35a.49.49,0,0,0,.13.2,1.22,1.22,0,0,0,.38.65c.57.39,1-.44.89-.93S82.71,14.26,82.08,14.57Z"/><path class="cls-7" d="M93.33,70.12c-.19.09-.26.39-.39.54s-.31.42-.24.63,0,.43,0,.67a.79.79,0,0,0,.24.41,2.5,2.5,0,0,0,.74,1.26c1.11.76,1.9-.85,1.74-1.82S94.54,69.52,93.33,70.12Z"/><path class="cls-3" d="M93.58,71.09c-.13.06-.17.26-.26.36s-.2.28-.16.42,0,.28,0,.45a.54.54,0,0,0,.16.27,1.65,1.65,0,0,0,.49.83c.74.51,1.27-.56,1.16-1.2S94.39,70.69,93.58,71.09Z"/><path class="cls-7" d="M26.35,58.89c-.19.1-.27.39-.39.54s-.31.43-.24.64,0,.42,0,.67a.73.73,0,0,0,.24.4,2.51,2.51,0,0,0,.73,1.26c1.12.76,1.91-.85,1.75-1.81S27.56,58.29,26.35,58.89Z"/><path class="cls-3" d="M26.6,59.86c-.13.06-.18.26-.26.36s-.21.28-.16.42,0,.29,0,.45a.54.54,0,0,0,.16.27,1.72,1.72,0,0,0,.49.84c.74.51,1.27-.57,1.16-1.21S27.4,59.46,26.6,59.86Z"/><path class="cls-7" d="M160.36,3.44c-.29.14-.4.59-.59.82s-.48.65-.37,1,0,.66,0,1a1.22,1.22,0,0,0,.37.62,3.89,3.89,0,0,0,1.13,1.94c1.71,1.16,2.93-1.31,2.68-2.79S162.22,2.51,160.36,3.44Z"/><path class="cls-3" d="M160.74,4.93c-.19.09-.26.39-.39.55s-.32.43-.25.64,0,.44,0,.69a.92.92,0,0,0,.25.42,2.53,2.53,0,0,0,.75,1.28c1.14.78,2-.87,1.78-1.86S162,4.31,160.74,4.93Z"/><path class="cls-7" d="M169.86,4.79c-.14.07-.2.3-.29.42s-.24.33-.19.49,0,.33,0,.52a.64.64,0,0,0,.19.31,1.83,1.83,0,0,0,.57,1c.86.59,1.47-.65,1.34-1.4S170.8,4.33,169.86,4.79Z"/><path class="cls-3" d="M170.06,5.54c-.1,0-.14.2-.2.28s-.16.22-.13.32a2,2,0,0,1,0,.35.38.38,0,0,0,.12.21,1.33,1.33,0,0,0,.38.65c.58.39,1-.44.9-.94S170.68,5.23,170.06,5.54Z"/><path class="cls-7" d="M231.68,12.24c-.17.09-.24.36-.35.49s-.28.39-.22.58,0,.39,0,.61a.77.77,0,0,0,.23.37,2.22,2.22,0,0,0,.67,1.15c1,.69,1.73-.78,1.58-1.66S232.78,11.7,231.68,12.24Z"/><path class="cls-3" d="M231.91,13.13c-.11,0-.16.23-.23.32s-.19.26-.15.38,0,.26,0,.41a.45.45,0,0,0,.14.25,1.53,1.53,0,0,0,.45.76c.67.46,1.15-.52,1.05-1.1S232.64,12.76,231.91,13.13Z"/><path class="cls-7" d="M210.57,4.65c-.08,0-.11.18-.17.25a.34.34,0,0,0-.11.29c0,.1,0,.19,0,.3a.37.37,0,0,0,.11.19,1.17,1.17,0,0,0,.34.58c.51.34.87-.39.8-.84S211.13,4.37,210.57,4.65Z"/><path class="cls-3" d="M210.69,5.09c-.06,0-.08.12-.12.17a.23.23,0,0,0-.07.19c0,.07,0,.13,0,.21a.37.37,0,0,0,.07.12.7.7,0,0,0,.23.38c.34.23.58-.26.53-.55S211.06,4.91,210.69,5.09Z"/><path class="cls-7" d="M223.45,72.43c-.18.09-.26.38-.38.53s-.31.43-.24.64,0,.42,0,.67a.85.85,0,0,0,.25.41,2.41,2.41,0,0,0,.73,1.25c1.12.77,1.91-.85,1.75-1.81S224.67,71.82,223.45,72.43Z"/><path class="cls-3" d="M223.7,73.39c-.12.07-.17.26-.25.36s-.21.28-.16.42,0,.29,0,.45a.48.48,0,0,0,.16.27,1.65,1.65,0,0,0,.49.84c.74.51,1.27-.57,1.16-1.21S224.51,73,223.7,73.39Z"/><path class="cls-7" d="M175.66,55.26c-.19.09-.26.38-.38.53s-.31.43-.24.64,0,.42,0,.67a.85.85,0,0,0,.25.41,2.48,2.48,0,0,0,.73,1.26c1.12.76,1.91-.85,1.74-1.82S176.88,54.66,175.66,55.26Z"/><path class="cls-3" d="M175.91,56.23c-.12.06-.17.25-.25.35s-.21.29-.16.42,0,.29,0,.45a.56.56,0,0,0,.17.27,1.61,1.61,0,0,0,.49.84c.74.51,1.26-.57,1.16-1.21S176.72,55.83,175.91,56.23Z"/><path class="cls-7" d="M145.55,71.66c-.13.06-.18.26-.27.37s-.21.29-.16.43,0,.29,0,.46a.55.55,0,0,0,.17.28,1.73,1.73,0,0,0,.51.87c.76.52,1.3-.59,1.19-1.25S146.38,71.24,145.55,71.66Z"/><path class="cls-3" d="M145.72,72.32c-.09,0-.12.18-.18.25s-.14.19-.11.29,0,.19,0,.31a.41.41,0,0,0,.12.18,1.15,1.15,0,0,0,.33.58c.51.34.87-.39.8-.83S146.27,72.05,145.72,72.32Z"/><path class="cls-8" d="M227,4.83c0,.08-.43.6-.48.69a3.55,3.55,0,0,0-.31.49,2.83,2.83,0,0,1-.13-.93c0-.21.12-.4.14-.61a1.81,1.81,0,0,0-.89,1.85c-.21-.11-.48-.28-.46-.27a2.72,2.72,0,0,1-.69-.74,1.13,1.13,0,0,1,0,.3c0,.1,0,.2,0,.3,0,.46.26.62.64.84-.36.08-1.33.38-1.17.51s0,0,0,0a10.3,10.3,0,0,0,1.48.39c-.1.16-.22.41-.36.64,0,.07,0,.13-.07.2a4.68,4.68,0,0,1-.23.56s.06,0,.08,0a3.25,3.25,0,0,0,1.11-1.27,5.67,5.67,0,0,1-.16,1.55.5.5,0,0,0,0,.12,1.75,1.75,0,0,0,.78-.85,2.33,2.33,0,0,0,.12-1.27,1.44,1.44,0,0,0,1-.2,1.49,1.49,0,0,0,.15-.2l.26-.45,0,0a.36.36,0,0,0-.32,0,2.09,2.09,0,0,1-.74,0A2.62,2.62,0,0,0,227,4.83Z"/><path class="cls-9" d="M191.28,63.76c0,.1-.23.71-.25.81a2.68,2.68,0,0,0-.15.55,2.57,2.57,0,0,1-.4-.85c0-.21,0-.41,0-.62a1.8,1.8,0,0,0-.32,2l-.52-.11a3.2,3.2,0,0,1-.87-.51s0,.25.05.29l.09.29c.16.43.44.52.86.61-.32.18-1.16.76-1,.83h.05a10.08,10.08,0,0,0,1.53-.06c-.05.19-.1.46-.16.72,0,.07,0,.14,0,.22a3.8,3.8,0,0,1-.06.59.08.08,0,0,0,.08,0,3.32,3.32,0,0,0,.69-1.54,5.91,5.91,0,0,1,.3,1.54.24.24,0,0,0,0,.1,1.76,1.76,0,0,0,.5-1,2.24,2.24,0,0,0-.26-1.24,1.42,1.42,0,0,0,.87-.49,1.23,1.23,0,0,0,.09-.23c0-.14.08-.32.12-.5l-.05,0a.36.36,0,0,0-.31.09,2.33,2.33,0,0,1-.69.26A2.6,2.6,0,0,0,191.28,63.76Z"/><path class="cls-9" d="M158.21,3.3c-.05.08-.43.6-.47.69s-.33.43-.31.49a2.83,2.83,0,0,1-.14-.93c0-.22.12-.4.15-.61a1.83,1.83,0,0,0-.9,1.84c-.2-.1-.48-.27-.46-.26a2.88,2.88,0,0,1-.69-.74,1.69,1.69,0,0,1,0,.3c0,.1,0,.2,0,.3,0,.46.27.62.65.83-.36.09-1.33.39-1.18.52a.06.06,0,0,1,0,0,11.8,11.8,0,0,0,1.48.39c-.1.16-.23.41-.36.64,0,.07-.05.13-.07.2s-.15.38-.23.56a.12.12,0,0,0,.08,0,3.32,3.32,0,0,0,1.11-1.27,6.09,6.09,0,0,1-.16,1.55.14.14,0,0,0,0,.11,1.73,1.73,0,0,0,.78-.84,2.42,2.42,0,0,0,.11-1.27,1.41,1.41,0,0,0,1-.21,1.57,1.57,0,0,0,.15-.19c.07-.13.17-.29.25-.45l0,0a.36.36,0,0,0-.32,0,2,2,0,0,1-.73,0A2.53,2.53,0,0,0,158.21,3.3Z"/><path class="cls-9" d="M98.69,71.77c0,.09-.23.7-.25.8s-.19.5-.15.56a2.79,2.79,0,0,1-.41-.85c0-.21,0-.42,0-.63a1.83,1.83,0,0,0-.33,2L97,73.56a3,3,0,0,1-.88-.51,1.36,1.36,0,0,1,.06.29,1.71,1.71,0,0,0,.09.3c.16.43.43.51.86.6-.32.19-1.16.76-1,.84a.08.08,0,0,1,0,0,11.49,11.49,0,0,0,1.53,0c0,.18-.1.46-.16.72a1.34,1.34,0,0,0,0,.21q0,.3-.06.6a.15.15,0,0,0,.08,0A3.33,3.33,0,0,0,98.29,75a5.9,5.9,0,0,1,.29,1.53.27.27,0,0,0,.06.1,1.76,1.76,0,0,0,.5-1,2.44,2.44,0,0,0-.26-1.25,1.48,1.48,0,0,0,.87-.48.9.9,0,0,0,.08-.23c0-.15.08-.33.12-.5l0,0c-.15,0-.17,0-.31.08a2,2,0,0,1-.68.26A2.57,2.57,0,0,0,98.69,71.77Z"/><path class="cls-8" d="M69.16,8.09c0,.09-.23.7-.25.8a2.68,2.68,0,0,0-.15.55,2.61,2.61,0,0,1-.4-.84c0-.21,0-.42,0-.63A1.81,1.81,0,0,0,68,10l-.52-.12a3.2,3.2,0,0,1-.87-.51s0,.25,0,.29l.09.3c.16.43.44.51.86.6-.32.19-1.16.76-1,.83h0a11.49,11.49,0,0,0,1.53-.05c0,.18-.1.45-.16.72,0,.06,0,.13,0,.21a4.07,4.07,0,0,1-.06.6s.06,0,.08,0a3.23,3.23,0,0,0,.69-1.53,5.92,5.92,0,0,1,.3,1.53.47.47,0,0,0,0,.1,1.71,1.71,0,0,0,.5-1,2.26,2.26,0,0,0-.26-1.25,1.42,1.42,0,0,0,.87-.49,1.12,1.12,0,0,0,.09-.22c0-.15.08-.33.12-.51h-.05c-.16,0-.17,0-.31.08a2.08,2.08,0,0,1-.69.26A2.55,2.55,0,0,0,69.16,8.09Z"/><path class="cls-8" d="M34.24,66c0,.06-.14.41-.15.47s-.11.29-.09.33a1.78,1.78,0,0,1-.24-.5c0-.12,0-.25,0-.37a1.07,1.07,0,0,0-.19,1.19l-.3-.07a1.67,1.67,0,0,1-.51-.3s0,.15,0,.17,0,.12,0,.17c.1.26.26.3.51.36-.19.11-.68.44-.57.48h0a6.84,6.84,0,0,0,.89,0c0,.1,0,.27-.09.42s0,.08,0,.12a2,2,0,0,1,0,.35s0,0,0,0a2,2,0,0,0,.41-.9,3.66,3.66,0,0,1,.17.9l0,.06a1,1,0,0,0,.3-.61,1.32,1.32,0,0,0-.16-.72.88.88,0,0,0,.52-.29s0-.08,0-.13.05-.19.07-.3h0c-.1,0-.1,0-.19,0a1,1,0,0,1-.4.15A1.57,1.57,0,0,0,34.24,66Z"/><path class="cls-8" d="M26.08,6.27c0,.06-.13.41-.15.47a1.57,1.57,0,0,0-.08.33,1.65,1.65,0,0,1-.24-.5c0-.12,0-.24,0-.37a1.07,1.07,0,0,0-.19,1.19l-.3-.07A1.73,1.73,0,0,1,24.59,7s0,.14,0,.16a1.21,1.21,0,0,0,.05.18c.09.25.26.3.5.35-.18.11-.67.44-.57.49h0a5.52,5.52,0,0,0,.9,0c0,.11-.06.27-.09.42s0,.08,0,.12a2.19,2.19,0,0,1,0,.36l0,0a2,2,0,0,0,.41-.9,3.5,3.5,0,0,1,.17.89l0,.06a1.07,1.07,0,0,0,.3-.6,1.45,1.45,0,0,0-.16-.73.85.85,0,0,0,.51-.29.5.5,0,0,0,.05-.13c0-.09.05-.19.07-.29h0a.2.2,0,0,0-.18.05,1.22,1.22,0,0,1-.4.15A1.51,1.51,0,0,0,26.08,6.27Z"/><path class="cls-9" d="M30.71,11.13s-.14.41-.15.47a1.41,1.41,0,0,0-.09.32,1.38,1.38,0,0,1-.23-.49c0-.13,0-.25,0-.37A1.07,1.07,0,0,0,30,12.24l-.31-.06a1.9,1.9,0,0,1-.51-.3s0,.14,0,.17l.06.17c.09.25.25.3.5.36-.19.1-.68.44-.57.48h0c.25,0,.62,0,.9,0,0,.1-.06.26-.1.42v.12c0,.12,0,.24,0,.35a.06.06,0,0,0,.05,0,1.88,1.88,0,0,0,.4-.9,3.51,3.51,0,0,1,.18.9.09.09,0,0,0,0,.06,1.06,1.06,0,0,0,.29-.61,1.37,1.37,0,0,0-.15-.73.82.82,0,0,0,.51-.28.5.5,0,0,0,.05-.13,2.11,2.11,0,0,1,.07-.3h0a.2.2,0,0,0-.18.05,1.36,1.36,0,0,1-.41.15A1.48,1.48,0,0,0,30.71,11.13Z"/></g></g></svg>