<svg xmlns="http://www.w3.org/2000/svg" xmlns:xlink="http://www.w3.org/1999/xlink" viewBox="0 0 65.74 92.54"><defs><style>.cls-1{fill:none;}.cls-2{isolation:isolate;}.cls-3{fill:#68442e;}.cls-4{fill:#b78067;}.cls-5{fill:#80413c;}.cls-5,.cls-7,.cls-8,.cls-9{opacity:0.5;}.cls-31,.cls-5,.cls-6,.cls-7,.cls-9{mix-blend-mode:multiply;}.cls-6,.cls-7,.cls-8{fill:#8a4c41;}.cls-35,.cls-6{opacity:0.3;}.cls-35,.cls-8{mix-blend-mode:screen;}.cls-9{fill:#542f27;}.cls-10{clip-path:url(#clip-path);}.cls-11{fill:#f68b23;}.cls-11,.cls-12,.cls-13,.cls-14,.cls-15,.cls-16,.cls-17,.cls-18,.cls-19,.cls-20,.cls-21,.cls-22,.cls-23,.cls-24,.cls-25,.cls-26,.cls-27,.cls-28,.cls-29{fill-rule:evenodd;}.cls-12{fill:#f47920;}.cls-13{fill:#f89925;}.cls-14{fill:#f89b3b;}.cls-15{fill:#fcb01c;}.cls-16{fill:#f57f26;}.cls-17{fill:#f0763a;}.cls-18{fill:#676734;}.cls-19{fill:#375427;}.cls-20{fill:#fff;}.cls-21{fill:#f3eee2;}.cls-22{fill:#f26822;}.cls-23{fill:#3daf49;}.cls-24{fill:#57813a;}.cls-25{fill:#319345;}.cls-26{fill:#72bf44;}.cls-27{fill:#82c341;}.cls-28{fill:#516c3e;}.cls-29{fill:#c64e27;}.cls-30{fill:#cb8a54;}.cls-31{opacity:0.2;}.cls-32{fill:#814e2b;}.cls-33{fill:#a87244;}.cls-34{fill:#6a3e1b;}.cls-36{fill:#8b572f;}</style><clipPath id="clip-path"><rect class="cls-1" x="0.86" width="62.79" height="62.65"/></clipPath></defs><g class="cls-2"><g id="Layer_1" data-name="Layer 1"><rect class="cls-3" x="7.62" y="41.42" width="51.13" height="51.13" rx="2.64"/><path class="cls-4" d="M58.27,81.48a13.93,13.93,0,0,0-.37-2.33,3.53,3.53,0,0,0,.13-.54,7.71,7.71,0,0,0-.3-3.65,4.49,4.49,0,0,0-.17-.44,19.12,19.12,0,0,0,.52-5.43,20.8,20.8,0,0,0-.33-3.37c.85-1.9,1.12-4.52.28-5.8a13.64,13.64,0,0,0,.67-6.38c-.14-.69-.32-1.39-.53-2.07,0-.08.09-.16.13-.25a5.24,5.24,0,0,0,0-3.06,3.54,3.54,0,0,0-1.62-2.57c.34-1.86-1-3.59-3.3-4.08a12.62,12.62,0,0,0-6.74,1,7.78,7.78,0,0,0-2,1c-.63-.84-3.34-1.5-3.82-1.58a9.67,9.67,0,0,0-8.66,2.75c-1.62-3.43-6.21-3.56-9.54-3.13a12.46,12.46,0,0,0-4.44,1.33,7.14,7.14,0,0,0-.79-.11A4.61,4.61,0,0,0,15,42.41a7.14,7.14,0,0,0-4.17,2.51,5.21,5.21,0,0,0-1.06,5,6.61,6.61,0,0,0-.91,2A7.8,7.8,0,0,0,9,56.38a8.3,8.3,0,0,0-.72,1.73,6.38,6.38,0,0,0,.07,2.6c0,.23-.07.44-.09.68-.3,3.14-1,7.22.43,10.2a4.49,4.49,0,0,0-.94,2.53,8.55,8.55,0,0,0,.9,3.54A9.22,9.22,0,0,0,8.08,79a3.23,3.23,0,0,0,0,1.9c-.84,2.36-1,5.48.92,7a3.28,3.28,0,0,0,.45.31,7.08,7.08,0,0,0,.09,1.2,3.92,3.92,0,0,0,3.73,3.06,5.11,5.11,0,0,0,3.29-.91,1.85,1.85,0,0,0,1,.19,3.41,3.41,0,0,0,1.14-.38c1.33,1,3.08.79,4.66.73a17,17,0,0,0,3.83-.61,4.17,4.17,0,0,0,1.92.23,3.92,3.92,0,0,0,1.13-.36c.18.09.36.19.57.28a4.91,4.91,0,0,0,2.36.63A17.69,17.69,0,0,0,36,91.44a5.71,5.71,0,0,0,2.71.09,13.34,13.34,0,0,0,5.83.79,22.2,22.2,0,0,0,5.13-1,12.12,12.12,0,0,0,3.28-.21,6.12,6.12,0,0,0,4.82-4.36A6.82,6.82,0,0,0,57.94,84,6.27,6.27,0,0,0,58.27,81.48Z"/><path class="cls-5" d="M58.27,81.48a13.93,13.93,0,0,0-.37-2.33,3.53,3.53,0,0,0,.13-.54,7.71,7.71,0,0,0-.3-3.65,4.49,4.49,0,0,0-.17-.44,19.12,19.12,0,0,0,.52-5.43,20.8,20.8,0,0,0-.33-3.37c.85-1.9,1.12-4.52.28-5.8a13.64,13.64,0,0,0,.67-6.38c-.14-.69-.32-1.39-.53-2.07,0-.08.09-.16.13-.25a5.24,5.24,0,0,0,0-3.06,3.54,3.54,0,0,0-1.62-2.57c.34-1.86-1-3.59-3.3-4.08a12.62,12.62,0,0,0-6.74,1,7.78,7.78,0,0,0-2,1c-.63-.84-3.34-1.5-3.82-1.58a9.67,9.67,0,0,0-8.66,2.75c-1.62-3.43-6.21-3.56-9.54-3.13a12.46,12.46,0,0,0-4.44,1.33,7.14,7.14,0,0,0-.79-.11A4.61,4.61,0,0,0,15,42.41a7.14,7.14,0,0,0-4.17,2.51,5.21,5.21,0,0,0-1.06,5,6.61,6.61,0,0,0-.91,2A7.8,7.8,0,0,0,9,56.38a8.3,8.3,0,0,0-.72,1.73,6.38,6.38,0,0,0,.07,2.6c0,.23-.07.44-.09.68-.3,3.14-1,7.22.43,10.2a4.49,4.49,0,0,0-.94,2.53,8.55,8.55,0,0,0,.9,3.54A9.22,9.22,0,0,0,8.08,79a3.23,3.23,0,0,0,0,1.9c-.84,2.36-1,5.48.92,7a3.28,3.28,0,0,0,.45.31,7.08,7.08,0,0,0,.09,1.2,3.92,3.92,0,0,0,3.73,3.06,5.11,5.11,0,0,0,3.29-.91,1.85,1.85,0,0,0,1,.19,3.41,3.41,0,0,0,1.14-.38c1.33,1,3.08.79,4.66.73a17,17,0,0,0,3.83-.61,4.17,4.17,0,0,0,1.92.23,3.92,3.92,0,0,0,1.13-.36c.18.09.36.19.57.28a4.91,4.91,0,0,0,2.36.63A17.69,17.69,0,0,0,36,91.44a5.71,5.71,0,0,0,2.71.09,13.34,13.34,0,0,0,5.83.79,22.2,22.2,0,0,0,5.13-1,12.12,12.12,0,0,0,3.28-.21,6.12,6.12,0,0,0,4.82-4.36A6.82,6.82,0,0,0,57.94,84,6.27,6.27,0,0,0,58.27,81.48ZM48.73,81c-2,1.61-4.92,2.65-7.24,1.68a5.43,5.43,0,0,1-1.43-.87,5.56,5.56,0,0,1-.52.37,13.5,13.5,0,0,1-7.6,2.26c-2.37,0-5.78-.54-7.58-2.57a6.47,6.47,0,0,1-4.49,1.85,3.77,3.77,0,0,1-2-1c-1.77,1.91-4.74,2.89-6.66.72-1.76-2-2-5.82.19-7.2-1.08-.8-.29-3,1.07-3.6a6.5,6.5,0,0,1-2.66-6.91,11.35,11.35,0,0,1,2.38-4.27A2.8,2.8,0,0,1,10,59.91c-.61-1.42-.47-3.19.69-4-2.09-2.06-1-4.28,1-5.22-1.19-1.43-.63-4.15.54-5.48a5.12,5.12,0,0,1,4.23-1.62,5.6,5.6,0,0,1,2.28.63,3.88,3.88,0,0,1,1,.76,6.93,6.93,0,0,1,5.2-1.51,9,9,0,0,1,6.19,3.41A12.89,12.89,0,0,1,34.42,45a7,7,0,0,1,6.75.88,5.86,5.86,0,0,1,4-.39c1.33-.86,2.92-1.44,3.66-1.17,3.28,1.17,1.33,4.76-.63,7a4,4,0,0,1,1.93,1.1c2,2.09,2.21,5.68,1.29,8.6a16,16,0,0,1-3.6,6.07,2.93,2.93,0,0,1,.5,2.82.7.7,0,0,1-.06.19,5.74,5.74,0,0,1,2.79,4.31A7.11,7.11,0,0,1,48.73,81Z"/><path class="cls-5" d="M58.27,81.48a13.93,13.93,0,0,0-.37-2.33,3.53,3.53,0,0,0,.13-.54,7.71,7.71,0,0,0-.3-3.65,4.49,4.49,0,0,0-.17-.44,19.12,19.12,0,0,0,.52-5.43,20.8,20.8,0,0,0-.33-3.37c.85-1.9,1.12-4.52.28-5.8a13.64,13.64,0,0,0,.67-6.38c-.14-.69-.32-1.39-.53-2.07,0-.08.09-.16.13-.25a5.24,5.24,0,0,0,0-3.06,3.54,3.54,0,0,0-1.62-2.57c.33-1.85-1-3.59-3.29-4.08a4.34,4.34,0,0,1,2.29,4.21c2.94,1,2,5.54.41,6.26,2.28,1.37,1.76,4.52.43,7a5,5,0,0,1,.3,5.59,5.5,5.5,0,0,1-.43.64c1.78,2.15,1.26,7.07-.66,9.78,1,1.17,1.54,3.18.51,4.21,1.14,1.37,1.58,3.86.1,5.28.42,2.2-.94,4.85-3.15,5.32a5.36,5.36,0,0,1-4.94-2.07,4.86,4.86,0,0,1-3.56,2.81c-1.93.32-4.29-.88-4.63-3a1.49,1.49,0,0,1-2.55-.26c-1.18,2.45-5.41,3.48-7.25,1-2.22,2.74-8.07,3.15-10,.58a1.79,1.79,0,0,1-3.11-.4c-1,1.64-2.75,2.58-4.51,1.63a2.7,2.7,0,0,1-1.29-3.46,3.15,3.15,0,0,1-3.2-1.8,9.5,9.5,0,0,1-.62-1.49A5,5,0,0,0,9,88a3.28,3.28,0,0,0,.45.31,7.08,7.08,0,0,0,.09,1.2,3.92,3.92,0,0,0,3.73,3.06,5.11,5.11,0,0,0,3.29-.91,1.85,1.85,0,0,0,1,.19,3.41,3.41,0,0,0,1.14-.38c1.33,1,3.08.79,4.66.73a17,17,0,0,0,3.83-.61,4.17,4.17,0,0,0,1.92.23,3.92,3.92,0,0,0,1.13-.36c.18.09.36.19.57.28a4.91,4.91,0,0,0,2.36.63A17.69,17.69,0,0,0,36,91.44a5.71,5.71,0,0,0,2.71.09,13.34,13.34,0,0,0,5.83.79,22.2,22.2,0,0,0,5.13-1,12.12,12.12,0,0,0,3.28-.21,6.12,6.12,0,0,0,4.82-4.36A6.82,6.82,0,0,0,57.94,84,6.27,6.27,0,0,0,58.27,81.48Z"/><path class="cls-6" d="M16.32,47.4a2.46,2.46,0,0,0-1.06.78,3.62,3.62,0,0,0-.33.2c-.41.34-1,.94-.88,1.58a2.27,2.27,0,0,0,2,1.5c1.61.33,3.84-.55,4.43-2.21C21.24,47.15,17.4,47.06,16.32,47.4Z"/><path class="cls-7" d="M24.77,51.41a.7.7,0,0,0-.57-.26,1.48,1.48,0,0,0-1.38.43l-.09.1a1.3,1.3,0,0,0-.62,1.09c.07.56.74.65,1.19.59a1.94,1.94,0,0,0,1.35-1C24.78,52.08,25,51.7,24.77,51.41Z"/><path class="cls-7" d="M33.7,51.6a3.41,3.41,0,0,0-.54.1c-1.37,0-3.23,1.29-3,2.52s2.54,1,3.31.9a3.12,3.12,0,0,0,2.76-2C36.6,51.8,34.56,51.52,33.7,51.6Z"/><path class="cls-7" d="M44.78,49.56a1,1,0,0,0-.74.15c-.42.27-1,1.11-.32,1.31a1.45,1.45,0,0,0,1.56-1.17C45.28,49.54,45,49.49,44.78,49.56Z"/><path class="cls-8" d="M53.74,49.71a3,3,0,0,0-.49.09,1.61,1.61,0,0,0-.39,0,2.24,2.24,0,0,0-2,1.62c-.16,1.1,1.3,1.24,2.09,1.14a2.85,2.85,0,0,0,2.39-1.68C55.63,49.93,54.35,49.67,53.74,49.71Z"/><path class="cls-6" d="M20.08,62.55A3.1,3.1,0,0,0,17,62.6a5,5,0,0,0-.66.32l0,0-.1.06c-.89.54-2,1.57-1.47,2.71.75,1.71,3.81,1.26,4.92.41.62-.47,1.48-1.41,1.37-2.31A1.54,1.54,0,0,0,20.08,62.55Z"/><path class="cls-6" d="M15.15,58.44a1.31,1.31,0,0,0-1-.43,1.06,1.06,0,0,0-.31.05,1.68,1.68,0,0,0-.8.25c-.4.27-.8.95-.37,1.4a1.23,1.23,0,0,0,.91.3,1.85,1.85,0,0,0,1.12-.29C15,59.5,15.45,58.87,15.15,58.44Z"/><path class="cls-7" d="M44.88,65.84a1.85,1.85,0,0,0-.68-.31s0,0,0,0c-1.28-.66-3.34-.28-3.53,1.59-.09.85.82,1.26,1.46,1.33a2.93,2.93,0,0,0,2.31-.6C44.91,67.34,45.53,66.35,44.88,65.84Z"/><path class="cls-7" d="M26.89,59.82c-.39.07-1.16.59-1,1.06,0,.45.54.65,1.05.66s1.47-.19,1.61-.86C28.75,59.78,27.49,59.69,26.89,59.82Z"/><path class="cls-8" d="M46.05,75.41a2.55,2.55,0,0,1-.13-.29c0-.27-.06-.41-.29-.43a.68.68,0,0,0-.52-.12c-.51.06-1.31,1-.82,1.48a.94.94,0,0,0,1.28-.26l.07.06C45.78,76,46.12,75.55,46.05,75.41Z"/><path class="cls-8" d="M54.49,68.72l-.09,0a.73.73,0,0,0-.62-.08c-.88.3-1.78,1.8-.89,2.42A1.12,1.12,0,0,0,54,71a2.23,2.23,0,0,0,1.13-1.59C55.16,68.93,54.9,68.69,54.49,68.72Z"/><path class="cls-8" d="M50.69,67.15h0a.45.45,0,0,0-.36,0c-.49.16-1,1-.49,1.34a.66.66,0,0,0,.62,0,1.24,1.24,0,0,0,.64-.88A.31.31,0,0,0,50.69,67.15Z"/><path class="cls-7" d="M31.43,78.88c-.67-1.72-3.14-1.24-4.39-.72-.67.27-1.89,1.29-1.81,2.15-.18,1.28,1.74,1.74,2.86,1.76a3.45,3.45,0,0,0,2.55-.76A2.23,2.23,0,0,0,31.43,78.88Z"/><path class="cls-8" d="M14,86.56l0,0-.07-.06c-.36-.27-.9,0-1.11.37s-.41.9.12,1a1.27,1.27,0,0,0,1.2-.73C14.21,87,14.34,86.48,14,86.56Z"/><path class="cls-7" d="M13.4,78.23a2.84,2.84,0,0,0-2.12,1,1.55,1.55,0,0,0-.24.19,1.46,1.46,0,0,0-.47,1.26,1.8,1.8,0,0,0,1.35,1.36,2.87,2.87,0,0,0,3.36-1.4C16.1,79.25,14.52,78.28,13.4,78.23ZM13.47,81h0a3.94,3.94,0,0,0,.73-.74l.13.11C14.75,80.77,14,80.93,13.47,81Z"/><path class="cls-8" d="M24,88.38a1.24,1.24,0,0,0-.33,0c-.47-.35-1.2.06-1.45.6a.65.65,0,0,0,.18.9,1.22,1.22,0,0,0,1.17,0c.17-.07.34-.08.51-.15a1.18,1.18,0,0,0,.53-.75C24.66,88.52,24.24,88.46,24,88.38Z"/><path class="cls-8" d="M44.69,86.1l-.06,0h0l-.09-.05c-.14-.06-.32.09-.41.19s-.48.58-.33.85a.41.41,0,0,0,.57.1,1.27,1.27,0,0,0,.64-1C45,86.05,44.83,86,44.69,86.1Z"/><path class="cls-8" d="M54.61,84.12a2.36,2.36,0,0,0-1.23-.3A3.51,3.51,0,0,0,50.2,85c-.87,1.16.14,2,1,2.35a3.06,3.06,0,0,0,3.27-.59C55.26,85.94,55.64,84.78,54.61,84.12Z"/><path class="cls-9" d="M47.6,57.63a4.49,4.49,0,0,0-1.93-.27,13.43,13.43,0,0,0-2.4.37,6.89,6.89,0,0,0-2.33,2,8.5,8.5,0,0,0-1.9-.16,6,6,0,0,0-1.93.49c-.46.17-.86.66-1.31.79a.1.1,0,0,0-.07.06,9.23,9.23,0,0,1,4.37-.67,6.59,6.59,0,0,1,2.57.87.24.24,0,0,0,0-.13,2,2,0,0,0-1.38-1.15,7,7,0,0,1,2.57-1.73A10.55,10.55,0,0,1,47.6,57.63Z"/><path class="cls-9" d="M21,55.8a6.68,6.68,0,0,0-.89,0,4.55,4.55,0,0,0-1.21.29,4.16,4.16,0,0,0-4.46-.75,2.25,2.25,0,0,0-.21.12,3.67,3.67,0,0,0-1.18,1,6.27,6.27,0,0,1,5.16-.1,4,4,0,0,0-.62.42h0a7.33,7.33,0,0,1,2.12-.52,12.13,12.13,0,0,1,2.88.08A7.36,7.36,0,0,0,21,55.8Z"/><path class="cls-9" d="M35.52,47.32a4.11,4.11,0,0,0-2,.9,6.49,6.49,0,0,0-2.34-.35c-1.31,0-2.3.81-3.35,1.4a.19.19,0,0,0-.07.08,7,7,0,0,1,6.18-.05l.45.07c.13,0,.35-.23.26-.34a2.25,2.25,0,0,0-.63-.56A7.3,7.3,0,0,1,35.44,48a9.45,9.45,0,0,1,2.19-.2A8.7,8.7,0,0,0,35.52,47.32Z"/><path class="cls-9" d="M43.75,78a3.94,3.94,0,0,0-1.82-.28,11.27,11.27,0,0,0-2.23.36,6.26,6.26,0,0,0-2.13,2,7.46,7.46,0,0,0-1.76-.18,5.37,5.37,0,0,0-1.78.49c-.42.16-.79.65-1.2.77,0,0,0,0-.06.06a8,8,0,0,1,4-.64,6.09,6.09,0,0,1,2.42.88s0-.09,0-.12a2,2,0,0,0-1.32-1.16,6.17,6.17,0,0,1,2.36-1.71A9.15,9.15,0,0,1,43.75,78Z"/><path class="cls-9" d="M22.32,75.63a5.89,5.89,0,0,0-.84,0,4.42,4.42,0,0,0-1.14.28,3.8,3.8,0,0,0-4.21-.75l-.2.11a3.77,3.77,0,0,0-1.15,1,5.75,5.75,0,0,1,4.9-.09,3.69,3.69,0,0,0-.58.42h0a6.54,6.54,0,0,1,2-.51,10.59,10.59,0,0,1,2.69.09A6.6,6.6,0,0,0,22.32,75.63Z"/><path class="cls-9" d="M34.76,68.8a3.47,3.47,0,0,0-1.75.83,5.16,5.16,0,0,0-2-.31,5.92,5.92,0,0,0-2.89,1.29s0,0-.06.06a5.67,5.67,0,0,1,5.31,0,2.5,2.5,0,0,0,.38.06c.11,0,.3-.21.23-.31a2.05,2.05,0,0,0-.54-.52,7.17,7.17,0,0,1,1.25-.47,7.9,7.9,0,0,1,1.88-.19A7.24,7.24,0,0,0,34.76,68.8Z"/><g class="cls-10"><path class="cls-11" d="M33.67,76.62c0-.17-.14-.33,0-.57.2-.46.84-1.11.93-1.63s-.37-1.07.08-1.71l-1.67,0a3.67,3.67,0,0,0,.43,1.62c.23.47-.18,1.29-.2,1.73,0,.26.3.39.33.61s.12.48.13,0"/><path class="cls-11" d="M22.61,46c7.5.1,15,1.1,22.49,1.2.07,4.24-8.76,26.35-11.37,26.49-1-.17-11.12-16.32-11.12-27.69"/><path class="cls-12" d="M22.61,45.81c7.29.46,14.54,1.71,21.83,2.18.07,4-8,22.4-11,22.3-1.41.14-10.8-13.57-10.8-24.48"/><path class="cls-11" d="M24.33,48.91l14.09,1.38c0,2.25-2.7,13.13-5.85,17.11-2-.38-7.86-10.65-8.24-18.49"/><path class="cls-13" d="M36.37,52.64a4.82,4.82,0,0,0-4.79-5.31c-2.7-.16-5.9.36-6.19,3.51S29,61,31.3,61.61c2.59.69,4.77-5.82,5.07-9"/><path class="cls-14" d="M33.86,39.6c-6.23,0-11.25,2.35-11.25,6s5,7.23,11.25,7.23,11-3.06,11.24-5.68-5-7.55-11.24-7.55"/><path class="cls-15" d="M25.44,50.5a15.4,15.4,0,0,0,8.42,2.32,22.75,22.75,0,0,0,2.51-.14v0c.22-2.3-.52-1.54-2.51-1.54-3.26,0-8.13-2.33-8.42-.6"/><path class="cls-16" d="M45.12,46.09c-.47-2.55-3.89-5.91-9.26-6.32,4.15,1.25,5.56,2,5.74,5.93,0,1-3.7,4.66-3.45,6.63,0,.06,7.81-1.7,7-6.24M27.88,40.58c-3.07,1-4.72,3-4.72,4.38C23.16,51.78,25.84,42.14,27.88,40.58Z"/><path class="cls-17" d="M33.87,39.6c-4.24,0-7.68,2.07-7.68,4.62s3.44,4.62,7.68,4.62,7.69-2.07,7.69-4.62-3.44-4.62-7.69-4.62"/><path class="cls-18" d="M33.76,40c-2.5,0-4.52,1.22-4.52,2.73s2,2.72,4.52,2.72,4.53-1.22,4.53-2.72S36.26,40,33.76,40"/><path class="cls-19" d="M33.77,40.2c-1.89,0-3.42.92-3.42,2s1.53,2.06,3.42,2.06,3.41-.92,3.41-2.06-1.53-2-3.41-2"/><path class="cls-20" d="M31.27,48.29c-.47.15-.8.45-.75.68s.47.29.94.14.8-.46.75-.69-.47-.28-.94-.13"/><path class="cls-20" d="M30.82,47.41c-.12-.1-.27-.1-.33,0a.32.32,0,0,0,.11.36c.12.1.27.1.33,0a.31.31,0,0,0-.11-.37"/><path class="cls-20" d="M30.57,52.34c-.33-.06-.59-.07-.6,0s.25.13.57.19.59.07.6,0-.25-.13-.57-.19"/><path class="cls-20" d="M31.91,52.63c-.26,0-.47,0-.48,0s.21.1.47.13.47,0,.47,0-.2-.1-.46-.13"/><path class="cls-20" d="M25,49.72c-.4-.24-.76-.33-.8-.22s.23.4.62.63.76.34.81.22-.24-.4-.63-.63"/><path class="cls-20" d="M22.88,45.12c-.12.28-.17.53-.12.56s.19-.16.31-.44.17-.52.12-.55-.19.16-.31.43"/><path class="cls-21" d="M40.66,46.89c-.89.5-1.87,1.11-1.79,1.32s1.43,0,2.33-.53,1.31-1.09,1.23-1.31-.88,0-1.77.52"/><path class="cls-22" d="M35.6,65.67C33.89,67,38.8,53.26,38.81,53.26c.66-.73,2.95-1.52,2.82-.41-.3,2.69-2.05,9.81-6,12.82"/><path class="cls-23" d="M20.66,22.39,23,23c-1.75-6.16-.79-5.49,1.95-11.41l1.26,1.47c2.92-5.42,2-4.27,7.91-6.15.27,4.88-.65,4.46-3.77,8.36l2.35-.55c0,3.08,1.25,6.26-.38,8.64-.61.9,1.5-.58,1.5-.58,1.63,4.21-.1,9-3,12.29-6.17.3-8.71-6.43-10.12-12.67"/><path class="cls-24" d="M31.88,37.18c.64,1.5.57,3.34.85,5,.39.53.76.51,1.08-.18-.3-1.75-.21-3.52-.92-5.2-3.44-8.19-5-8.61-4.58-18.45-2.22,7.08,2.7,16.8,3.57,18.88"/><path class="cls-25" d="M25.45,19.39c-.43.87-.85,1.74-1.27,2.61-4.27-6.36-4.4-4.95-11.92-7,.13.77.25,1.53.38,2.29C5.44,15.75,7.21,15.78.93,19.73c4.24,4,4.56,2.85,10.53,3L9.14,24.46c2.82,2.36,4.76,6,8.18,6.32,1.3.13-1.68.92-1.68.92,2.59,4.74,8.33,6.88,13.56,6.7,5-5.39.85-12.9-3.75-19"/><path class="cls-26" d="M1.46,19.83c4,3.76,5.42,2.27,11.29,2.43-.78.57-2.1,1.67-2.87,2.25,2.82,2.36,5.94,5.86,9.36,6.22,1.3.13-2.74,1.18-2.74,1.18,2.38,4.38,10.1,6.49,10.1,4.91,0-1.4-2.39-4.94-4.25-7.4-7.18-9.51-12-9.31-20.89-9.59"/><path class="cls-27" d="M25.36,20.26c-.4.81-.4,2.31-.8,3.13-4-6-4.75-5.9-11.83-7.85.12.72.23,1.44.35,2.15-6.71-1.4-5.93-1.57-11.65,2.06C13.3,18.39,20.57,22.69,27,32c1.94,2.81,2.91,5.84,3.23-.18.24-4.38-2-8-4.89-11.58"/><path class="cls-28" d="M29.76,38.06c1,1.67,2.83,2.9,4.19,4.31.24.75,0,1.09-.94.91-1.47-1.52-3.25-2.68-4.37-4.54-5.48-9.09-4.8-10.86-14.58-17.42,8.39,2.85,14.31,14.44,15.7,16.74"/><path class="cls-20" d="M16.24,28.87c-1.08-.68.18-.73.41-.58.91.57.24,1-.41.58"/><path class="cls-29" d="M39.05,61.22c-.91.38-2,.45-1.93.72s1.31.29,2.23-.09,1.42-1,1.38-1.25-.76.24-1.68.62M34.81,59c-1,.16-2.15,0-2.17.26s1.31.59,2.34.43,1.7-.62,1.72-.89S35.85,58.88,34.81,59Zm-.17,8.81c-.78.23-1.63.14-1.65.41s1,.49,1.79.25,1.28-.74,1.3-1S35.43,67.6,34.64,67.84ZM25.37,51.22c-1-.41-1.83-1.13-2-.91s.81,1.18,1.78,1.58,1.77.35,1.93.13S26.34,51.62,25.37,51.22Zm3,9.51c-1-.4-1.83-1.13-2-.91s.81,1.18,1.78,1.59,1.77.35,1.93.13S29.32,61.14,28.35,60.73Zm.2-5c-1-.24-2-.82-2.11-.58s1,1,2,1.28,1.8.06,1.92-.18S29.57,56,28.55,55.72Zm1.77,9.48c-.81-.17-1.62-.67-1.69-.42s.87,1,1.68,1.13,1.41-.07,1.48-.32S31.14,65.37,30.32,65.2Zm9.94-11.11c-.95.43-2.08.55-2,.82s1.42.22,2.38-.2,1.47-1,1.42-1.31S41.22,53.67,40.26,54.09Z"/><path class="cls-23" d="M40.71,22.54l1,2.18c3.58-5.32,3.69-4.14,10-5.88-.1.64-.21,1.28-.31,1.92,6-1.27,4.54-1.24,9.8,2.07-3.55,3.35-3.82,2.38-8.82,2.52l1.94,1.44c-2.36,2-4,5-6.85,5.28-1.08.12,1.41.77,1.41.77-2.16,4-7,5.76-11.35,5.61-4.21-4.52-.71-10.8,3.15-15.91"/><path class="cls-27" d="M60.79,22.91c-3.39,3.15-4.55,1.9-9.45,2,.64.48,1.75,1.4,2.39,1.88-2.36,2-5,4.91-7.84,5.21-1.08.11,2.3,1,2.3,1-2,3.66-8.45,5.43-8.45,4.1,0-1.17,2-4.12,3.56-6.19,6-8,10-7.79,17.49-8"/><path class="cls-26" d="M40.78,23.26c.33.69.34,1.94.67,2.62,3.37-5,4-4.93,9.9-6.56-.1.6-.2,1.2-.29,1.8,5.61-1.18,5-1.31,9.75,1.72-9.94-1.14-16,2.46-21.42,10.27C37.76,35.46,37,38,36.68,33c-.2-3.67,1.68-6.7,4.1-9.7"/><path class="cls-24" d="M36.58,38.84c-.85,1.4-2.37,2.42-3.51,3.6-.2.63,0,.91.78.77,1.24-1.28,2.73-2.25,3.66-3.81,4.59-7.6,4-9.08,12.21-14.57-7,2.38-12,12.08-13.14,14"/><path class="cls-20" d="M44.2,35.67c1.26-.8-.21-.85-.47-.69-1.06.67-.28,1.16.47.69"/><path class="cls-20" d="M49.8,27.06c1.76-.3.49.92.13,1-1.48.25-1.18-.8-.13-1"/><path class="cls-25" d="M27.18,17.15l2.63,1.58c.13-8.14,1.05-7,6.56-13.17l1,2.25c5.54-5.51,4-4.46,11.87-4.58-1.46,6-2.42,5.19-7.64,8.79l3.06.19C43.5,16,43.87,20.29,41,22.59c-1.08.87,2-.16,2-.16.45,5.72-3.43,11-8.2,13.84-7.61-1.89-8.24-11-7.67-19.12"/><path class="cls-23" d="M48.82,3.62c-1.42,5.7-3.53,5.17-8.66,8.71,1,.07,2.84.29,3.86.35-1.15,3.74-1.9,8.67-4.74,11-1.08.87,3.13-.55,3.13-.55.41,5.29-5.24,11.65-6.16,10.24-.81-1.25-.73-5.78-.5-9.06C36.63,11.65,41.05,9,48.82,3.62"/><path class="cls-26" d="M27.75,17.86c.83.5,1.7,1.83,2.53,2.33.12-7.66.82-8,6-13.85l.93,2.12c5.17-5.15,4.38-4.84,11.59-4.93C37.42,9.21,33.44,17.25,33.1,29.32c-.11,3.62.79,6.89-3,1.71-2.75-3.76-2.86-8.3-2.36-13.17"/><path class="cls-28" d="M34.15,36.29c.07,2.08-.84,4.23-1.23,6.27.22.81.66.95,1.36.27.43-2.21,1.34-4.28,1.26-6.59-.38-11.28-2-12.46,2.91-24-5.84,7.41-4.4,21.17-4.3,24"/><path class="cls-20" d="M40,28.7c.79-1.72-.82-.75-1-.4-.66,1.45.51,1.43,1,.4"/><path class="cls-20" d="M40.88,20.26c.57-1.24-.58-.55-.7-.29-.48,1.05.36,1,.7.29"/></g><path class="cls-30" d="M40.63,63.43c-.79-1.22-2.61-2.82-4.35-2.34a6.64,6.64,0,0,0-1,.36,1.53,1.53,0,0,0-.42.11,11.45,11.45,0,0,0-4.73,3.92c-2.31,3.59,5.33,4,7.59,3.89.91-.06,4.29-.19,4.58-1.31C42.8,66.3,41.54,64.86,40.63,63.43Z"/><g class="cls-31"><path class="cls-32" d="M41.45,64.67a2.33,2.33,0,0,1,0,.69c-.46,2.44-3,2.91-5.45,2.34-2.19-.52-4-1.91-3.71-4.11a4,4,0,0,1,.11-.47,10.73,10.73,0,0,0-2.2,2.36c-2.31,3.59,5.33,4,7.59,3.89.91-.06,4.29-.19,4.58-1.31A4.15,4.15,0,0,0,41.45,64.67Z"/></g><path class="cls-33" d="M35.7,67.81a3,3,0,0,0-2.26-1.11A4.17,4.17,0,0,0,30.91,68a2.35,2.35,0,0,0-.45.3,1.06,1.06,0,0,0,.28,1.85,5.18,5.18,0,0,0,2.9.16c.73,0,2.19.3,2.62-.44C36.58,69.33,36.1,68.25,35.7,67.81Z"/><path class="cls-30" d="M31.83,64.27c-.91-1.25-2.27-3-4-3.26-1.28-.19-2.6,1.08-3.65,2a7.94,7.94,0,0,0-2.85,2.13c-.56.71-1.58,2.71-.38,3.43a10.35,10.35,0,0,0,5.55,1.23c1.44-.08,3.4-.38,4.44-1.39S32.8,65.6,31.83,64.27Z"/><g class="cls-31"><path class="cls-34" d="M31.83,64.27a.47.47,0,0,1-.06-.09c.22,2-1.85,3.52-3.88,3.76s-5.23,0-5.81-2.26a3.47,3.47,0,0,1,0-1.36,5.7,5.7,0,0,0-.76.79c-.56.71-1.58,2.71-.38,3.43a10.35,10.35,0,0,0,5.55,1.23c1.44-.08,3.4-.38,4.44-1.39S32.8,65.6,31.83,64.27Z"/></g><g class="cls-35"><path class="cls-36" d="M36.54,61.51a4.61,4.61,0,0,0-2,.55c-.35.17-2.11,1.18-1.68,1.78a.68.68,0,0,0,.06.36c.2.44,1.05.21,1.39.1,1.1-.33,2.64-1.16,3.05-2.2C37.52,61.67,36.86,61.51,36.54,61.51Z"/></g><g class="cls-35"><path class="cls-36" d="M26.17,62.52a4.51,4.51,0,0,0-1.72,1.14l-.15.1a2.24,2.24,0,0,0-1,1.4c-.07.61.76.44,1.12.3a5,5,0,0,0,3-2.44C27.73,62.22,26.68,62.3,26.17,62.52Z"/></g><path class="cls-30" d="M29.26,66.81c-1.56-.64-3.34.62-4.4,1.83a6.18,6.18,0,0,0-1.58,1.89c-1.73,3.32,8,3.44,9.09.55C33,69.46,30.71,67.41,29.26,66.81Z"/><g class="cls-31"><path class="cls-34" d="M31.73,68.74a2.43,2.43,0,0,1-2.18,3.12c-1.71.15-5-.34-6-1.81a4,4,0,0,0-.28.48c-1.73,3.32,8,3.44,9.09.55A2.51,2.51,0,0,0,31.73,68.74Z"/></g><g class="cls-35"><path class="cls-36" d="M27.84,67.84c-.4-.27-1,.15-1.31.37a2.57,2.57,0,0,0-.92,1.07,2.37,2.37,0,0,0-.28.4c-.11.25-.14.72.31.62a3,3,0,0,0,1-.55,5,5,0,0,0,.87-.85C27.68,68.71,28.14,68.07,27.84,67.84Z"/></g></g></g></svg>