<svg xmlns="http://www.w3.org/2000/svg" viewBox="0 0 64 64"><defs><style>.cls-1{isolation:isolate;}.cls-2{fill:#66cef6;}.cls-3{fill:#fff;}.cls-4,.cls-8{fill:#593d38;}.cls-4,.cls-5,.cls-6,.cls-7{fill-rule:evenodd;}.cls-10,.cls-5{fill:#3b1b0b;}.cls-11,.cls-6{fill:#855f58;}.cls-7{fill:#4d1e31;opacity:0.42;mix-blend-mode:multiply;}.cls-9{fill:none;}</style></defs><g class="cls-1"><g id="Layer_1" data-name="Layer 1"><path class="cls-2" d="M8.27,37.21s-3.57,5-2,6.56a2.19,2.19,0,0,0,2.56.17C10.72,42.63,8.27,37.21,8.27,37.21Z"/><path class="cls-3" d="M6.59,41.36a2,2,0,0,0,0,1.67A1.59,1.59,0,0,0,8,43.85a1.44,1.44,0,0,1-1,0,1.4,1.4,0,0,1-.75-.67A1.59,1.59,0,0,1,6.59,41.36Z"/><path class="cls-4" d="M36.69,27.69a8.09,8.09,0,0,1-5.86,4.72l-.2,0-.31,0h0l-.34,0h-.53a18.94,18.94,0,0,1-5.27-.94l-.88-.3c-.61-.22-1.21-.45-1.77-.68l-.18-.08a16.54,16.54,0,0,1-3-.77l.75.25a8,8,0,0,0-1.65-.32c-.31,0-.6,0-.9,0l0,0L16,30l-1,.46-.13.05c-1.35.64-3.07,1.44-3.34,1.6l0,0a2.8,2.8,0,0,1-.41.25,9,9,0,0,1-.41,1.24l-.16.26s0,.08,0,.11a1.91,1.91,0,0,1-1.46.69c-.25,0-1.51-.47-1.67-.28.15.36,1.85,7,2,7.34l.37-.44s4.53-3.88,4.69-4S16.86,35.06,19.4,36a4.73,4.73,0,0,0,1.19.27,12.7,12.7,0,0,1,1.3.13h0a41.88,41.88,0,0,1,4.59,2l.08,0,.37.18c.41.2.44.09.83.28l.31.2c.14.07.35.25.48.32h0a21.71,21.71,0,0,0,3.2,1.33l.18.05h0a2.1,2.1,0,0,0,.62.06.7.7,0,0,0,.23-.06l.12-.06.06,0,.07,0,.12,0c.31-.13.69-.26,1.08-.38l.15,0h0l.1,0,.24-.07.27-.07.26-.07.16,0a13.27,13.27,0,0,1,1.6-.28h.44c.11,0,.18,0,.2.07a15.71,15.71,0,0,1,.64,1.69.64.64,0,0,0,0,.12l-.37.57,1,4,.07.27.31.19L37.86,33.4h0l-.1-3.12V30l-.06-2Z"/><path class="cls-5" d="M36.69,27.69a8.09,8.09,0,0,1-5.86,4.72l-.2,0-.31,0h0l-.34,0h-.53a18.94,18.94,0,0,1-5.27-.94l-.88-.3c-.61-.22-1.21-.45-1.77-.68l-.18-.08a16.54,16.54,0,0,1-3-.77l.75.25a8,8,0,0,0-1.65-.32c-.31,0-.6,0-.9,0l0,0L16,30l-1,.46-.13.05c-1.35.64-3.07,1.44-3.34,1.6l0,0a2.8,2.8,0,0,1-.41.25,9,9,0,0,1-.41,1.24,1.3,1.3,0,0,0-.16.31c-.06.35-.88.7-1.18.74-.73.09-1.13-.39-1.93-.3a24.54,24.54,0,0,0,.85,3.16c.09.22,1.05,4,1.14,4.21l.37-.44h0c.45-1.31.94-7,1.23-7.59a3.4,3.4,0,0,1,3.09-2.26c1.9-.13,4.48,4.21,5.32,4.58l.1,0a11.93,11.93,0,0,0,2.39.36L19.08,32h0s0,0-.05-.05l-1.13-1a8.35,8.35,0,0,1,2.6.32c1.31.45,4.28,6.31,6,7.2l.08,0,.37.18.08-.1c-.09-.07-3.47-4.94-3.58-5.9-.05-.49.62-.34,1.3-.07,0,1.07,2.16,3.7,2.23,3.78h0c.14.07,1.46,3,1.59,3.09,0-1.8-3.14-5.64-3.34-6.66.48.22.87.44.87.44a19.58,19.58,0,0,1,4.52,1.64c1.74,1.06,2.57,5.36,2,6a.7.7,0,0,0,.23-.06l.12-.06.06,0,.07,0,.12,0c.31-.13.69-.26,1.08-.38l.15,0h0l.1,0,.24-.07.27-.07.26-.07.16,0a3.23,3.23,0,0,1-1.07-1.05c-1.15-1.72-3.93-5-3.93-5s2.68,3.09,4.11,4.36a3.89,3.89,0,0,0,2.49,1.39h.44c.44-1.34,1.26-2.45,1.32-1.17v0c0,.26,0,.52,0,.77l0-.76a6.35,6.35,0,0,1-.48,2.9.64.64,0,0,0,0,.12l-.37.57c.21-.18.44.15.63.56A20,20,0,0,1,39,46.11l.07.27.31.19L37.86,33.4h0l-.1-3.12V30l-.06-2Z"/><path class="cls-6" d="M31.94,40.84h0a1,1,0,0,0,.56-1.15c-.3-1.16-2.89-3.7-2.89-3.7s2.31,3,2.42,4a1,1,0,0,1-.27.83Z"/><path class="cls-7" d="M37.86,33.39l-.1-3.12c-.91.44-.17,7.85-.18,8C37.62,38.14,37.67,31.53,37.86,33.39Z"/><path class="cls-7" d="M35.88,38.25s-2.18-4.25-2.6-5c.31-2.19,3.45-4.07,3.71-4s.76.86.76.86l-.06-2-1-.37a8.09,8.09,0,0,1-5.86,4.72l-.51.07C32.91,32.29,35.82,38.2,35.88,38.25Z"/><path class="cls-7" d="M19.07,32,19,32A10.22,10.22,0,0,0,16,30l-1,.46C16,30.16,19,32,19.07,32Z"/><polygon class="cls-8" points="46.01 20.52 29.71 28.83 24.69 21.1 42.65 11.95 46.01 20.52"/><path class="cls-9" d="M55.66,26.28c-.45-1.88-3.23-6.17-4.24-6.57-.08,0-.57-.14-2.14.65-.36.19-.71.39-1,.58L49,22.48l.26.51-.51.26-.48.24c2.21,3.62,3.41,5.2,3.23,4.94L53.75,30l.51-.26.26.51L55.4,32C55.8,31.63,56,27.79,55.66,26.28Z"/><path class="cls-3" d="M28,32.19,27.89,32Z"/><path class="cls-3" d="M28.1,32.42a.8.8,0,0,1-.08-.16A.8.8,0,0,0,28.1,32.42Z"/><polygon class="cls-3" points="24.3 21.01 24.3 21.01 24.3 21.01 24.3 21.01"/><path class="cls-8" d="M60.67,27.35a1.55,1.55,0,0,1,0,.22A1.55,1.55,0,0,0,60.67,27.35Z"/><path class="cls-8" d="M60.66,27a1.55,1.55,0,0,1,0,.22A1.55,1.55,0,0,0,60.66,27Z"/><path class="cls-8" d="M45.54,16.75l.15-.1Z"/><path class="cls-8" d="M46.64,16l.21-.13Z"/><path class="cls-8" d="M46.92,15.87l.21-.13Z"/><path class="cls-8" d="M57.55,33.46l-.07.07Z"/><path class="cls-8" d="M46.38,16.2l.2-.13Z"/><path class="cls-8" d="M60.62,28c0,.1,0,.21,0,.31C60.59,28.23,60.6,28.12,60.62,28Z"/><path class="cls-8" d="M57.64,33.37l-.07.06Z"/><path class="cls-8" d="M60.65,27.69a1.64,1.64,0,0,1,0,.23A1.64,1.64,0,0,0,60.65,27.69Z"/><path class="cls-8" d="M48.8,14.85l.15-.07Z"/><path class="cls-8" d="M47.53,15.51l.21-.11Z"/><path class="cls-8" d="M47.85,15.34l.2-.11Z"/><path class="cls-8" d="M60.63,26.65l0,.23Z"/><path class="cls-8" d="M48.09,20.37l-.1.06h0c.32-.19.67-.39,1-.58a4.06,4.06,0,0,1,2.6-.67c1.29.5,4.14,5.06,4.6,7a3.74,3.74,0,0,1-.55,2.66h0l0,0a.11.11,0,0,0,0,0h0l-.09.16-.08.13-.1.15a.83.83,0,0,0-.08.12l0,0a4.33,4.33,0,0,0-.62,1.67v0l.26.51-.24.12a1.49,1.49,0,0,0,.65.92c2.21,1.24,4.32-2.5,4.66-2.6a9.4,9.4,0,0,0,.39-1,6.75,6.75,0,0,0-.13-2.2,26,26,0,0,0-3-6.23,20,20,0,0,1,1.38,3S55.48,18,54.29,16.85a10.6,10.6,0,0,1,1.61,1.67c-1.35-1.9-2.72-3.43-3.63-3.78a6.81,6.81,0,0,0-3.54.15l-.33.16C45.58,16.44,48.69,20,48.09,20.37Zm7.54,10a5.75,5.75,0,0,0,1-4.51C57.65,28,55.63,30.34,55.63,30.34Zm2.56.28a7.52,7.52,0,0,0,.64-5.91C60.39,27.51,58.19,30.62,58.19,30.62Zm.32-5.09S54,17.4,52.24,15.79C56.31,19.14,58.51,25.53,58.51,25.53ZM55.68,22.4S52.07,17.05,50.8,16C53.79,18.12,55.68,22.4,55.68,22.4Z"/><path class="cls-8" d="M52.3,14l.07,0Z"/><path class="cls-8" d="M54.7,30.1l-.05.06Z"/><path class="cls-8" d="M54.86,29.93l-.07.07Z"/><path class="cls-8" d="M54.38,30.41l0,0Z"/><path class="cls-8" d="M55,29.72l-.08.1Z"/><path class="cls-8" d="M54.57,30.24l0,0Z"/><path class="cls-8" d="M52.07,14h0Z"/><path class="cls-8" d="M51.61,14h0Z"/><path class="cls-8" d="M50.32,14.24l.12,0Z"/><path class="cls-8" d="M50.59,14.17l.12,0Z"/><path class="cls-8" d="M45.72,16.63l.16-.11Z"/><path class="cls-8" d="M50.85,14.1l.12,0Z"/><path class="cls-8" d="M51.11,14.05l.11,0Z"/><path class="cls-8" d="M50,14.33l.12,0Z"/><path class="cls-8" d="M49.08,14.72l.15-.06Z"/><path class="cls-8" d="M58.54,32.36l-.13.15Z"/><path class="cls-8" d="M49.64,14.49l.14-.06Z"/><path class="cls-8" d="M51.84,14h0Z"/><path class="cls-8" d="M49.36,14.6l.14-.06Z"/><path class="cls-8" d="M48.33,15.08l-.16.08.21-.1Z"/><path class="cls-8" d="M45.11,17.05h0Z"/><path class="cls-8" d="M46.13,16.36l.2-.13Z"/><path class="cls-8" d="M58.37,32.57l-.13.15Z"/><path class="cls-8" d="M51.36,14h0Z"/><path class="cls-8" d="M58.21,32.76l-.29.33Z"/><path class="cls-8" d="M58.73,32.11l-.15.19Z"/><path class="cls-8" d="M57.89,33.11l-.1.11Z"/><path class="cls-8" d="M60.55,26.21c0,.11.05.22.07.33C60.6,26.43,60.58,26.32,60.55,26.21Z"/><path class="cls-8" d="M57.75,33.26l-.07.08Z"/><path class="cls-8" d="M45.14,17l.38-.27Z"/><path class="cls-8" d="M60.47,28.74c0,.09,0,.18-.08.28C60.42,28.92,60.45,28.83,60.47,28.74Z"/><path class="cls-8" d="M47.22,15.69l.21-.12Z"/><path class="cls-8" d="M60.56,28.35a3.38,3.38,0,0,1-.08.34A3.38,3.38,0,0,0,60.56,28.35Z"/><path class="cls-8" d="M59.46,31a1.48,1.48,0,0,1-.13.21A2.39,2.39,0,0,0,59.46,31Z"/><path class="cls-8" d="M55.21,29.49l-.08.11Z"/><path class="cls-8" d="M59.29,31.32c0,.07-.1.14-.14.21S59.24,31.39,59.29,31.32Z"/><path class="cls-8" d="M45.9,16.51l.19-.13Z"/><path class="cls-8" d="M59.11,31.58c-.12.18-.24.34-.36.5C58.87,31.92,59,31.76,59.11,31.58Z"/><path class="cls-8" d="M59.65,30.71l-.14.25Z"/><path class="cls-8" d="M60,30.06l-.15.3Z"/><path class="cls-8" d="M59.84,30.36l-.17.31Z"/><path class="cls-10" d="M55.66,28.8l-.09.16Z"/><path class="cls-10" d="M55.28,29.4l0,0,0,0Z"/><path class="cls-10" d="M55.49,29.09l-.1.15Z"/><path class="cls-10" d="M54.38,30.41l.07-.06.09-.08,0,0,.08-.08.05-.06.09-.1.07-.07.09-.11.08-.1.1-.12.08-.11.07-.1a6.51,6.51,0,0,1,.39-.59,3.74,3.74,0,0,0,.55-2.66c-.46-1.9-3.31-6.46-4.6-7a4.06,4.06,0,0,0-2.6.67c-.36.19-.71.39-1,.58l.26.51c.32-.19.67-.39,1-.58,1.57-.79,2.06-.68,2.14-.65,1,.4,3.79,4.69,4.24,6.57.37,1.51-1.18,3.28-1.59,3.64l.27.52h0Z"/><path class="cls-11" d="M55.9,18.52a17.36,17.36,0,0,1,1.37,2.09,26,26,0,0,1,3,6.23,6.75,6.75,0,0,1,.13,2.2h0v0c0-.1.06-.19.08-.28v0a3.38,3.38,0,0,0,.08-.34v0c0-.1,0-.21,0-.31s0-.06,0-.1a1.64,1.64,0,0,0,0-.23.49.49,0,0,0,0-.12,1.55,1.55,0,0,0,0-.22v-.12a1.55,1.55,0,0,0,0-.22v-.13l0-.23a.37.37,0,0,1,0-.11c0-.11,0-.22-.07-.33-.8-3.31-5.76-11.24-8-12.1a.7.7,0,0,0-.19-.06l-.07,0-.14,0h-.09l-.13,0h-.58l-.14,0-.11,0-.14,0-.12,0-.14,0-.12,0-.15,0-.12,0-.16.06-.12,0-.26.1-.14.06-.14,0-.14.06-.13.06-.15.06-.13.06-.15.07-.07,0h0a6.81,6.81,0,0,1,3.54-.15C53.18,15.09,54.55,16.62,55.9,18.52Z"/><path class="cls-10" d="M55.67,28.8a.11.11,0,0,1,0,0Z"/><path class="cls-10" d="M55.28,29.4h0l-.07.1-.08.11-.1.12-.08.1-.09.11-.07.07-.09.1-.05.06-.08.08,0,0-.09.08-.07.06,0,0h0l.32.63A4.33,4.33,0,0,1,55.28,29.4Z"/><path class="cls-10" d="M55.34,32.64a1.49,1.49,0,0,1-.65-.92l-.27.14L54.1,32q1.4,1.89,2.95,3.9c0-.76,0-2,.43-2.39l.07-.07,0,0,.07-.06,0,0,.07-.08,0,0,.1-.11,0,0,.29-.33,0,0,.13-.15,0-.06.13-.15,0-.06.15-.19,0,0c.12-.16.24-.32.36-.5l0,0c0-.07.09-.14.14-.21l0-.08a1.48,1.48,0,0,0,.13-.21l0-.07.14-.25,0,0,.17-.31h0l.15-.3v0h0C59.66,30.14,57.55,33.88,55.34,32.64Z"/><path class="cls-10" d="M55.31,29.36a.83.83,0,0,1,.08-.12l.1-.15.08-.13.09-.16h0a6.51,6.51,0,0,0-.39.59Z"/><path class="cls-10" d="M52.77,13.57c-1.05-.4-2.59-.07-4.7,1a26,26,0,0,0-3.29,2c.09.26.2.54.32.82.32.78.74,1.66,1.21,2.58l.64-.33.51-.26.25.48.28.55.1-.06c.6-.35-2.51-3.93.31-5.32l.33-.16h0l.07,0,.15-.07.13-.06.15-.06.13-.06.14-.06.14,0,.14-.06.26-.1.12,0,.16-.06.12,0,.15,0,.12,0,.14,0,.12,0,.14,0,.11,0,.14,0h.58l.13,0h.09l.14,0,.07,0a.7.7,0,0,1,.19.06c2.23.86,7.19,8.79,8,12.1,0,.11.05.22.07.33a.37.37,0,0,0,0,.11l0,.23V27a1.55,1.55,0,0,1,0,.22v.12a1.55,1.55,0,0,1,0,.22.49.49,0,0,1,0,.12,1.64,1.64,0,0,1,0,.23s0,.07,0,.1,0,.21,0,.31v0a3.38,3.38,0,0,1-.08.34v0c0,.09,0,.18-.08.28v0h0A9.4,9.4,0,0,1,60,30h0v0l-.15.3h0l-.17.31,0,0-.14.25,0,.07a2.39,2.39,0,0,1-.13.21l0,.08c0,.07-.1.14-.14.21l0,0c-.12.18-.24.34-.36.5l0,0-.15.19,0,.06-.13.15,0,.06-.13.15,0,0-.29.33,0,0-.1.11,0,0-.07.08,0,0-.07.06,0,0-.07.07c-.43.37-.45,1.63-.43,2.39l.63.81,0-.25a5.24,5.24,0,0,1,.2-2.53s4.19-3.93,3.25-7.88C60.31,22.78,55.35,14.57,52.77,13.57Zm-4.6,1.59.16-.08.05,0Z"/><path class="cls-10" d="M58.19,30.62s2.2-3.11.64-5.91A7.52,7.52,0,0,1,58.19,30.62Z"/><path class="cls-10" d="M55.63,30.34s2-2.3,1-4.51A5.75,5.75,0,0,1,55.63,30.34Z"/><path class="cls-10" d="M54.29,16.85c1.19,1.12,4.36,6.73,4.36,6.73a20,20,0,0,0-1.38-3,17.36,17.36,0,0,0-1.37-2.09A10.6,10.6,0,0,0,54.29,16.85Z"/><path class="cls-11" d="M52.24,15.79c1.71,1.61,6.27,9.74,6.27,9.74S56.31,19.14,52.24,15.79Z"/><path class="cls-10" d="M50.8,16c1.27,1,4.88,6.37,4.88,6.37S53.79,18.12,50.8,16Z"/><path class="cls-8" d="M37.1,40.69c.22.57.39,1.07.5,1.46-.25-.42-.51-.86-.76-1.33h0a30.9,30.9,0,0,1,1.81,5.67q1-.37,2.07-.78L38.48,40Z"/><path class="cls-8" d="M40.84,27.3,45,34.5l1.72-.87c-1-2.11-3.21-6.11-3.76-7.4Z"/><path class="cls-8" d="M38.42,28.53a41.12,41.12,0,0,1,2,5c-.82-1.36-1.66-3-2.46-4.72l-1.66.84c.86,1.93,3.08,5.91,3.79,7.39l4.42-2.25-3.89-7.34Z"/><path class="cls-8" d="M46.7,24.31l.23.44-.3-.4-2.71,1.38,4.3,7.12,2.06-1.05-3.39-5.43,3.78,5.23,1.66-.85c-1.11-1.6-3.54-5.34-4.54-7Z"/><path class="cls-8" d="M43,26.22c.51,1.08,2.79,5.1,3.91,7.32l.86-.43-4-7.26Z"/><path class="cls-8" d="M35.82,29.86l-1.08.55,3.83,7.35,1.2-.61C39,35.8,36.72,31.93,35.82,29.86Z"/><path class="cls-8" d="M43.68,37.34c1,1.91,1.65,2.92,3.07,5.4l-.4.2c-1.21-2.2-1.71-3.16-2.81-5.54L42.45,38,45.6,43.6,47,42.88l.83-.43-2.8-5.82Z"/><path class="cls-8" d="M39.13,39.65l2.63,5.65c.94-.39,1.87-.79,2.78-1.21l-2.34-6Z"/><path class="cls-8" d="M47.51,35.38c1.38,2.71,2,3.94,2.93,5.48l-.4.2c-.73-1.33-1.38-2.65-2.78-5.55l-1.5.76L48.9,41.9c.83-.46,1.65-.93,2.46-1.42l-2.93-5.56Z"/><path class="cls-8" d="M49.12,34.56l3.23,5.31c.71-.44,1.42-.9,2.11-1.37l-3.21-5Z"/><path class="cls-8" d="M34.59,30.48l-1.72.88c.77,1.57,3,5.54,3.83,7.36L38.14,38Z"/><path class="cls-8" d="M52.07,33.06l3.81,4.45c.44-.31.88-.63,1.31-1-1-1.21-1.84-1.86-3.61-4.26Z"/><path class="cls-10" d="M36,47.37c-.42-1.49-.42-2.58-1.33-5.42l-.51.26c.66,2.1.63,3,1.29,5.34l.19-.06Z"/><path class="cls-10" d="M47.79,23.76c1,1.65,3.43,5.39,4.54,7l.52-.26c-1.22-1.76-3.62-5.47-4.55-7Z"/><path class="cls-10" d="M57.05,35.92q-1.56-2-2.95-3.9l-.52.27c1.77,2.4,2.65,3.05,3.61,4.26l.3-.22.17-.12c-.23-.29.24.8,0,.52Z"/><path class="cls-11" d="M34.62,42c.91,2.84.91,3.93,1.33,5.42q1.34-.4,2.67-.87a30.9,30.9,0,0,0-1.81-5.67Z"/><path class="cls-11" d="M30.16,32.74c.14.34,1.31.29,1.54.77a.85.85,0,0,1,.78.44,5.54,5.54,0,0,0,.85,1.14,10.09,10.09,0,0,1,1,1.28,3.65,3.65,0,0,1,.5,3,.82.82,0,0,1-.28.38l0,0L36.21,39c-.88-1.9-3-5.87-3.65-7.45Z"/><path class="cls-11" d="M26.19,20.45h0l-1.33.68h0c1.18,1.1,3.46,5.15,4.59,7.41l1.26-.64-.39-.72c-.62-1.13-.89-3,1.51-5.51-.12-.09-1.74-3.13-1.84-3.23Z"/><path class="cls-10" d="M51.25,33.48l3.21,5c.48-.33.95-.65,1.42-1l-3.81-4.45Z"/><polygon class="cls-10" points="50.28 31.8 50.67 31.6 46.89 26.36 50.28 31.8"/><polygon class="cls-10" points="41.79 22.25 41.86 22.22 41.02 20.79 41.79 22.25"/><path class="cls-10" d="M48.43,34.92l2.93,5.56c.33-.2.67-.4,1-.61l-3.23-5.31Z"/><polygon class="cls-10" points="43.67 25.85 47.72 33.1 48.22 32.85 43.92 25.73 43.67 25.85"/><polygon class="cls-10" points="38.81 23.77 38.89 23.73 38.09 22.28 38.81 23.77"/><polygon class="cls-10" points="40.59 27.42 44.48 34.76 44.98 34.5 40.84 27.3 40.59 27.42"/><path class="cls-10" d="M45.07,36.63l2.8,5.82,1-.55-3.14-5.63Z"/><path class="cls-10" d="M42.2,38.09l2.34,6,1.06-.49L42.45,38Z"/><path class="cls-10" d="M38.48,40l2.21,5.74,1.07-.42-2.63-5.65Z"/><polygon class="cls-10" points="34.72 30.38 34.58 30.45 38.14 37.98 38.57 37.76 34.72 30.38"/><path class="cls-10" d="M37.1,40.69l-.26.13c.25.47.51.91.76,1.33C37.49,41.76,37.32,41.26,37.1,40.69Z"/><path class="cls-10" d="M32.84,31.3l-.31.16c.65,1.59,2.8,5.6,3.68,7.51l.49-.25C35.87,36.89,33.61,32.89,32.84,31.3Z"/><path class="cls-10" d="M40.39,33.5a41.12,41.12,0,0,0-2-5l-.49.25C38.73,30.48,39.57,32.14,40.39,33.5Z"/><path class="cls-10" d="M36.27,25.06l.43-.21c-.43-.89-3.44-7.23-3.81-8l-.31.09C32.9,17.74,35.87,24.12,36.27,25.06Z"/><path class="cls-10" d="M40.38,23l.25-.13c-.5-1.26-2.92-6.38-3.66-7.95l-.39.16C37.23,16.53,39.65,21.59,40.38,23Z"/><path class="cls-10" d="M44.59,20.83l.31-.17c-.57-1.21-3.35-6.87-3.89-8a3.26,3.26,0,0,1-.29.36C41.22,14.08,44,19.68,44.59,20.83Z"/><path class="cls-10" d="M46.63,24.35l.3.4-.23-.44Z"/><path class="cls-11" d="M34.66,25.89a30.94,30.94,0,0,1-1.24-3.44h0A33.81,33.81,0,0,0,34.36,26Z"/><path class="cls-11" d="M36.27,29.62l-.45.24c.9,2.07,3.18,5.94,4,7.29l.29-.14C39.35,35.53,37.13,31.55,36.27,29.62Z"/><path class="cls-11" d="M46.35,42.94l.4-.2c-1.42-2.48-2.06-3.49-3.07-5.4l-.14.06C44.64,39.78,45.14,40.74,46.35,42.94Z"/><path class="cls-11" d="M42.94,26.23c.55,1.29,2.76,5.29,3.76,7.4l.16-.09c-1.12-2.22-3.4-6.24-3.91-7.32Z"/><path class="cls-11" d="M50,41.06l.4-.2c-.89-1.54-1.55-2.77-2.93-5.48l-.25.13C48.66,38.41,49.31,39.73,50,41.06Z"/><polygon class="cls-8" points="38.98 26.26 29.43 31.37 29.47 31.45 48.12 21.95 47.63 21 39.78 25.32 47.41 20.55 36.36 26.18 29.04 30.62 29.16 30.84 38.98 26.26"/><path class="cls-10" d="M32.87,31.36l1.72-.88.15-.07,1.08-.55.45-.24,1.66-.84.49-.25,2.17-1.11.25-.12,2.1-1.07h0l.72-.37.25-.12,2.71-1.38.07,0,1.09-.55.51-.27.48-.24.51-.26L49,22.48l-.78-1.54L48,20.43h0l-.28-.55-.26-.51-.51.26L46.3,20l-.52.26-.88.44-.31.17-2.73,1.39-.07,0-1.16.59-.25.13-1.49.76-.08,0L36.7,24.85l-.43.21-1.61.83-.3.15L30.71,27.9l-1.26.64-.52.26-.64.33-.51.26.26.51,1.24,2.45.08.15.26.51.51-.26.29-.14.19-.1.52-.26,1.43-.73Zm-4-.65-.13-.66-.21-.41h0l18.65-9.5h0l.21.41.22.45.49.95.4.79-18.65,9.5-.4-.79,0-.08-.27-.53L29,30.62Z"/><polygon class="cls-11" points="36.36 26.18 47.41 20.55 47.2 20.14 47.2 20.14 28.55 29.64 28.55 29.64 28.76 30.05 36.36 26.18"/><rect class="cls-10" x="28.48" y="26.66" width="21.06" height="1.18" transform="translate(-8.12 20.68) rotate(-27)"/><polygon class="cls-10" points="36.36 26.18 28.76 30.05 28.89 30.71 29.04 30.62 36.36 26.18"/><polygon class="cls-10" points="39.78 25.32 47.63 21 47.41 20.55 39.78 25.32"/><polygon class="cls-11" points="38.98 26.26 29.16 30.84 29.43 31.37 38.98 26.26"/><polygon class="cls-8" points="54.76 32.64 54.22 31.59 45.53 36.38 53.97 31.1 41.76 37.32 33.66 42.23 33.79 42.49 44.65 37.42 34.08 43.07 34.13 43.15 54.76 32.64"/><path class="cls-10" d="M35.67,44.12,37.86,43h0l.27-.14,1.38-.7.65-.33,3.07-1.56.25-.13,1.09-.56.13-.07,1.39-.7.7-.36,1.5-.76.24-.13.92-.47.7-.35,2.12-1.08.83-.42,1.51-.77.52-.27.31-.16.28-.14.24-.12-.26-.51,0,0-.32-.63-.26-.52-.87-1.71L54,29.87l-.51.26-.91.47-.51.26-1.67.85-.39.2-2.06,1-.5.26-.86.44-.16.08-1.72.87-.5.26-4.42,2.25-.28.15-1.2.61-.43.22-1.44.73-.5.25-1.66.85-.52.26-.9.47-.51.26.26.51,1.46,2.87.26.51.51-.26.32-.16Zm-1.54-1-.05-.08-.29-.58-.13-.26-.32-.62-.23-.45L53.74,30.64l.23.46.25.49.54,1.05.44.88L34.57,44Z"/><polygon class="cls-11" points="41.76 37.32 53.97 31.1 53.74 30.64 33.11 41.16 33.34 41.61 41.76 37.32"/><rect class="cls-10" x="33.09" y="37.84" width="23.15" height="0.99" transform="translate(-12.54 24.46) rotate(-27)"/><polygon class="cls-10" points="41.76 37.32 33.34 41.61 33.66 42.23 41.76 37.32"/><polygon class="cls-10" points="45.53 36.38 54.22 31.59 53.97 31.1 45.53 36.38"/><polygon class="cls-11" points="44.65 37.42 33.79 42.49 34.08 43.07 44.65 37.42"/><path class="cls-8" d="M57.47,38.57c-2.42,1.86-12.79,6.23-12.72,6.06h0l.2-.1A69.81,69.81,0,0,1,35.76,48c5.42-.43,7,.23,21.39-7q2-1.4,4-2.94C60.57,37.74,59.31,37.15,57.47,38.57Z"/><path class="cls-8" d="M45.71,47.56l-.51.23Z"/><path class="cls-8" d="M53.93,43.18l-.49.3Z"/><path class="cls-8" d="M42,49.12l-.51.19Z"/><path class="cls-8" d="M59.36,36.43h0Z"/><path class="cls-8" d="M34.42,50v0Z"/><path class="cls-8" d="M34.58,49.06v0Z"/><path class="cls-8" d="M43.7,48.44l-.09,0Z"/><path class="cls-8" d="M52.1,44.28l-.15.08Z"/><path class="cls-8" d="M34.47,49.37v0Z"/><path class="cls-8" d="M58.71,36.42h0Z"/><path class="cls-8" d="M58.4,36.49h0Z"/><path class="cls-8" d="M59,36.4h0Z"/><path class="cls-8" d="M40.39,49.73l-.6.21Z"/><path class="cls-8" d="M58.13,36.6h0Z"/><path class="cls-8" d="M38.73,50.31l-.61.2Z"/><path class="cls-8" d="M48.69,46.13l.23-.12-.57.29Z"/><path class="cls-8" d="M55.45,42.21l-.54.35Z"/><path class="cls-8" d="M60.19,36.83l0,0Z"/><path class="cls-8" d="M50.45,45.2l-.47.26Z"/><path class="cls-8" d="M59.63,36.51h0Z"/><path class="cls-8" d="M59.92,36.64l0,0Z"/><path class="cls-8" d="M35.44,48.16h0l0,0Z"/><path class="cls-8" d="M56.91,41.24l-.53.36Z"/><path class="cls-8" d="M34.92,48.56l0,0Z"/><path class="cls-8" d="M37,50.86l-.53.17Z"/><path class="cls-8" d="M47.35,46.79l-.58.28Z"/><path class="cls-8" d="M34.72,48.8l0,0Z"/><path class="cls-8" d="M35.15,48.35l0,0Z"/><path class="cls-8" d="M34.42,49.68v0Z"/><path class="cls-8" d="M53,40.17l.48-.31Z"/><path class="cls-8" d="M56.42,37.83c-.15.11-.3.22-.46.32C56.12,38.05,56.27,37.94,56.42,37.83Z"/><path class="cls-8" d="M46.72,43.68l-.43.21Z"/><path class="cls-8" d="M51.46,41.09l.23-.14Z"/><path class="cls-8" d="M47.91,43.08l.43-.23Z"/><path class="cls-8" d="M49.62,42.15l.29-.16Z"/><path class="cls-8" d="M55,38.85l-.52.35Z"/><path class="cls-10" d="M57.19,36.55c-.43.33-.87.65-1.31,1s-.94.66-1.42,1c-.69.47-1.4.93-2.11,1.37-.32.21-.66.41-1,.61-.81.49-1.63,1-2.46,1.42l-1,.55-.83.43-1.44.72-1.06.49c-.91.42-1.84.82-2.78,1.21l-1.07.42q-1,.41-2.07.78-1.34.47-2.67.87l-.36.12-.19.06-.22.1a2.45,2.45,0,0,0-1.26,2.8l.15.57.18.64.15.55.55-.15a73.88,73.88,0,0,0,14-5.42,72.9,72.9,0,0,0,12.62-8.15l.44-.35-.35-.45-.49-.61-.29-.36a2.46,2.46,0,0,0-3-.63l-.21.12-.17.12Zm2.44,0h0l.25.12,0,0a1.88,1.88,0,0,1,.23.16l0,0,.21.21.78,1-.11.08h0q-1.92,1.54-4,2.94h0l-.27.18-.53.36-.93.61-.54.35-1,.62-.49.3-1.34.8-.15.08q-.73.44-1.5.84l-.47.26L48.92,46l-.23.12-.34.17-1,.49-.58.28-1.06.49-.51.23-1.5.65-.09,0L42,49.12l-.51.19-1.12.42-.6.21-1.06.37-.61.2L37,50.86l-.53.17-1.66.47-.33-1.2a1.57,1.57,0,0,1,0-.3v0a2.72,2.72,0,0,1,0-.28v0a1.86,1.86,0,0,1,0-.27v0a2.77,2.77,0,0,1,.1-.26v0c0-.08.08-.16.13-.24l0,0a1.24,1.24,0,0,1,.18-.22l0,0a1.12,1.12,0,0,1,.2-.18l0,0,.24-.15h0l.3-.12A69.81,69.81,0,0,0,45,44.53c.45-.2.89-.42,1.34-.64l.43-.21,1.19-.6.43-.23c.43-.23.86-.46,1.28-.7l.29-.16c.52-.29,1-.59,1.55-.9l.23-.14L53,40.17l.48-.31,1-.66.52-.35,1-.7c.16-.1.31-.21.46-.32.48-.34.95-.69,1.42-1a1.78,1.78,0,0,1,.27-.17h0l.26-.11h.05a1.1,1.1,0,0,1,.26-.06h0a1.31,1.31,0,0,1,.28,0h0a1.24,1.24,0,0,1,.27,0h0Z"/><path class="cls-11" d="M59.07,36.4h0a1.31,1.31,0,0,0-.28,0h0a1.1,1.1,0,0,0-.26.06H58.4l-.26.11h0a1.78,1.78,0,0,0-.27.17c-.47.36-.94.71-1.42,1-.15.11-.3.22-.46.32l-1,.7-.52.35-1,.66-.48.31L51.69,41l-.23.14c-.51.31-1,.61-1.55.9l-.29.16c-.42.24-.85.47-1.28.7l-.43.23-1.19.6-.43.21c-.45.22-.89.44-1.34.64l-.2.1h0c-.07.17,10.3-4.2,12.72-6.06,1.84-1.42,3.1-.83,3.63-.44h0l.11-.08-.78-1-.21-.21,0,0a1.88,1.88,0,0,0-.23-.16l0,0-.25-.12h0l-.27-.08h0A1.24,1.24,0,0,0,59.07,36.4Z"/><path class="cls-10" d="M35.76,48l-.3.12,0,0-.24.15,0,0a1.12,1.12,0,0,0-.2.18l0,0a1.24,1.24,0,0,0-.18.22l0,0c0,.08-.09.16-.13.24v0a2.77,2.77,0,0,0-.1.26v0a1.86,1.86,0,0,0,0,.27v0a2.72,2.72,0,0,0,0,.28v0a1.57,1.57,0,0,0,0,.3l.33,1.2L36.46,51l.53-.17,1.13-.35.61-.2,1.06-.37.6-.21,1.12-.42.51-.19,1.59-.64.09,0,1.5-.65.51-.23,1.06-.49.58-.28,1-.49.57-.29L50,45.46l.47-.26q.77-.41,1.5-.84l.15-.08,1.34-.8.49-.3,1-.62.54-.35.93-.61.53-.36.27-.18h0C42.72,48.26,41.18,47.6,35.76,48Z"/><path class="cls-3" d="M42.9,8.65c0,.09.07.19.1.28C43,8.84,42.94,8.74,42.9,8.65Z"/><path class="cls-3" d="M42.14,12.39a2.61,2.61,0,0,0-.06-.27A2.61,2.61,0,0,1,42.14,12.39Z"/><polygon class="cls-3" points="37.9 15.3 37.91 15.3 37.91 15.3 37.9 15.3"/><path class="cls-10" d="M42.82,11.6,26.87,19.46,25.79,20l-1.19.61-.27.13,0,.26h0v0l0,.29.22.21,0,0c1,1,3.26,4.86,4.44,7.22l.52-.26c-1.13-2.26-3.41-6.31-4.59-7.41h0l1.33-.68h0l1.46-.75h0l15.05-7.58a31.76,31.76,0,0,1,1.15,3.36,24.92,24.92,0,0,0,2,4.82l.51-.26c-.47-.92-.87-1.86-1.19-2.64-.12-.28-.23-.56-.33-.83-.32-.89-1.67-3.82-1.75-4.49l0-.29Z"/><rect class="cls-10" x="54.39" y="29.76" width="0.11" height="1.98" transform="translate(-8.02 28.07) rotate(-27)"/><path class="cls-10" d="M33.79,40.82a3,3,0,0,1-1.2.45l-.19-.35a2.63,2.63,0,0,0,2.34-1.73c.61-1.32-.7-3.21-1.58-4.13-1.82-1.9-2.59-2.05-3.48-2.22l.08-.4c1.08.21,1.92.48,3.7,2.34.26.27,2.52,2.71,1.65,4.58A2.88,2.88,0,0,1,33.79,40.82Z"/></g></g></svg>