<svg id="Layer_1" data-name="Layer 1" xmlns="http://www.w3.org/2000/svg" viewBox="0 0 180.26 398.3"><defs><style>.cls-1{fill:#bbcbd2;}.cls-2{fill:#f0f3f3;}.cls-3{fill:#4b666b;}</style></defs><path class="cls-1" d="M96.7,95H91.55c-.89,12.52-10,279.59-10.23,288.91h25.62C106.67,374.57,97.62,107.5,96.7,95Z"/><path class="cls-2" d="M96.23,95c-.84,0,.88,288.91.88,288.91h8.54C105.4,374.33,97.09,107.5,96.23,95Z"/><path class="cls-1" d="M95.85,73.49c-.22-5.27-34.44-60.68-36.69-59.57s4.92,20.42,16,43.19S92.38,93.54,94.64,92.45,96.25,83.76,95.85,73.49Z"/><path class="cls-2" d="M62.25,18.72,95.18,86.29c0-2.66-.1-6-.23-9.14-.06-1.16-.11-2.36-.15-3.61C94.64,69.73,71.43,31.22,62.25,18.72Z"/><path class="cls-1" d="M77.87,100c-4.45,2.82-35.33,60.15-33.26,61.57S59.86,147.05,74,126.06,97,92.92,94.89,91.53,86.57,94.49,77.87,100Z"/><path class="cls-2" d="M47.23,156.44,89.29,94.13c-2.33,1.3-5.15,3.09-7.79,4.78l-3.06,1.94C75.21,102.89,53.46,142.24,47.23,156.44Z"/><path class="cls-1" d="M109.47,101.93c4.68,2.45,69.78.53,69.95-2S159.27,94,134,92.21s-40.17-3.3-40.35-.8S100.38,97.14,109.47,101.93Z"/><path class="cls-2" d="M173.71,100.23,98.71,95c2.3,1.37,5.27,2.91,8.05,4.36L110,101C113.34,102.77,158.3,101.93,173.71,100.23Z"/><path class="cls-1" d="M98.23,89.76a4.46,4.46,0,1,0-2.06,5.95A4.47,4.47,0,0,0,98.23,89.76Z"/><path class="cls-3" d="M96.9,90.4a3,3,0,1,0-1.38,4A3,3,0,0,0,96.9,90.4Z"/><path class="cls-1" d="M115.19,385.88c0,1.27-.72,2.3-1.62,2.3H75.2c-.91,0-1.62-1-1.62-2.3s.71-2.27,1.62-2.27h38.37c.9,0,1.62,1,1.62,2.27Z"/></svg>