<svg xmlns="http://www.w3.org/2000/svg" viewBox="0 0 65.74 92.54"><defs><style>.cls-1{isolation:isolate;}.cls-2{fill:#68442e;}.cls-3{fill:#b78067;}.cls-4{fill:#80413c;}.cls-4,.cls-6,.cls-7,.cls-8{opacity:0.5;}.cls-13,.cls-21,.cls-30,.cls-4,.cls-5,.cls-6,.cls-8{mix-blend-mode:multiply;}.cls-5,.cls-6,.cls-7{fill:#8a4c41;}.cls-34,.cls-5{opacity:0.3;}.cls-34,.cls-7{mix-blend-mode:screen;}.cls-8{fill:#542f27;}.cls-9{fill:#72c163;}.cls-10{fill:#009556;}.cls-11{fill:#e03039;}.cls-12{fill:#ad595d;}.cls-13{fill:#be443b;}.cls-14{fill:#69b445;}.cls-15{fill:#0ca24a;}.cls-16{fill:#4a833d;}.cls-17{fill:#fff;}.cls-18{fill:#037d48;}.cls-19{fill:#02925d;}.cls-20{fill:#02643d;}.cls-21,.cls-22{fill:#00a963;}.cls-21{opacity:0.4;}.cls-23{fill:#018d5a;}.cls-24{fill:#056635;}.cls-25{fill:#9ccd5e;}.cls-26{fill:#029555;}.cls-27{fill:#04663f;}.cls-28{fill:#83c460;}.cls-29{fill:#cb8a54;}.cls-30{opacity:0.2;}.cls-31{fill:#814e2b;}.cls-32{fill:#a87244;}.cls-33{fill:#6a3e1b;}.cls-35{fill:#8b572f;}</style></defs><g class="cls-1"><g id="Layer_1" data-name="Layer 1"><rect class="cls-2" x="7.62" y="41.42" width="51.13" height="51.13" rx="2.64"/><path class="cls-3" d="M58.27,81.48a13.93,13.93,0,0,0-.37-2.33,3.53,3.53,0,0,0,.13-.54,7.71,7.71,0,0,0-.3-3.65,4.49,4.49,0,0,0-.17-.44,19.12,19.12,0,0,0,.52-5.43,20.8,20.8,0,0,0-.33-3.37c.85-1.9,1.12-4.52.28-5.8a13.64,13.64,0,0,0,.67-6.38c-.14-.69-.32-1.39-.53-2.07,0-.08.09-.16.13-.25a5.24,5.24,0,0,0,0-3.06,3.54,3.54,0,0,0-1.62-2.57c.34-1.86-1-3.59-3.3-4.08a12.62,12.62,0,0,0-6.74,1,7.78,7.78,0,0,0-2,1c-.63-.84-3.34-1.5-3.82-1.58a9.67,9.67,0,0,0-8.66,2.75c-1.62-3.43-6.21-3.56-9.54-3.13a12.46,12.46,0,0,0-4.44,1.33,7.14,7.14,0,0,0-.79-.11A4.61,4.61,0,0,0,15,42.41a7.14,7.14,0,0,0-4.17,2.51,5.21,5.21,0,0,0-1.06,5,6.61,6.61,0,0,0-.91,2A7.8,7.8,0,0,0,9,56.38a8.3,8.3,0,0,0-.72,1.73,6.38,6.38,0,0,0,.07,2.6c0,.23-.07.44-.09.68-.3,3.14-1,7.22.43,10.2a4.49,4.49,0,0,0-.94,2.53,8.55,8.55,0,0,0,.9,3.54A9.22,9.22,0,0,0,8.08,79a3.23,3.23,0,0,0,0,1.9c-.84,2.36-1,5.48.92,7a3.28,3.28,0,0,0,.45.31,7.08,7.08,0,0,0,.09,1.2,3.92,3.92,0,0,0,3.73,3.06,5.11,5.11,0,0,0,3.29-.91,1.85,1.85,0,0,0,1,.19,3.41,3.41,0,0,0,1.14-.38c1.33,1,3.08.79,4.66.73a17,17,0,0,0,3.83-.61,4.17,4.17,0,0,0,1.92.23,3.92,3.92,0,0,0,1.13-.36c.18.09.36.19.57.28a4.91,4.91,0,0,0,2.36.63A17.69,17.69,0,0,0,36,91.44a5.71,5.71,0,0,0,2.71.09,13.34,13.34,0,0,0,5.83.79,22.2,22.2,0,0,0,5.13-1,12.12,12.12,0,0,0,3.28-.21,6.12,6.12,0,0,0,4.82-4.36A6.82,6.82,0,0,0,57.94,84,6.27,6.27,0,0,0,58.27,81.48Z"/><path class="cls-4" d="M58.27,81.48a13.93,13.93,0,0,0-.37-2.33,3.53,3.53,0,0,0,.13-.54,7.71,7.71,0,0,0-.3-3.65,4.49,4.49,0,0,0-.17-.44,19.12,19.12,0,0,0,.52-5.43,20.8,20.8,0,0,0-.33-3.37c.85-1.9,1.12-4.52.28-5.8a13.64,13.64,0,0,0,.67-6.38c-.14-.69-.32-1.39-.53-2.07,0-.08.09-.16.13-.25a5.24,5.24,0,0,0,0-3.06,3.54,3.54,0,0,0-1.62-2.57c.34-1.86-1-3.59-3.3-4.08a12.62,12.62,0,0,0-6.74,1,7.78,7.78,0,0,0-2,1c-.63-.84-3.34-1.5-3.82-1.58a9.67,9.67,0,0,0-8.66,2.75c-1.62-3.43-6.21-3.56-9.54-3.13a12.46,12.46,0,0,0-4.44,1.33,7.14,7.14,0,0,0-.79-.11A4.61,4.61,0,0,0,15,42.41a7.14,7.14,0,0,0-4.17,2.51,5.21,5.21,0,0,0-1.06,5,6.61,6.61,0,0,0-.91,2A7.8,7.8,0,0,0,9,56.38a8.3,8.3,0,0,0-.72,1.73,6.38,6.38,0,0,0,.07,2.6c0,.23-.07.44-.09.68-.3,3.14-1,7.22.43,10.2a4.49,4.49,0,0,0-.94,2.53,8.55,8.55,0,0,0,.9,3.54A9.22,9.22,0,0,0,8.08,79a3.23,3.23,0,0,0,0,1.9c-.84,2.36-1,5.48.92,7a3.28,3.28,0,0,0,.45.31,7.08,7.08,0,0,0,.09,1.2,3.92,3.92,0,0,0,3.73,3.06,5.11,5.11,0,0,0,3.29-.91,1.85,1.85,0,0,0,1,.19,3.41,3.41,0,0,0,1.14-.38c1.33,1,3.08.79,4.66.73a17,17,0,0,0,3.83-.61,4.17,4.17,0,0,0,1.92.23,3.92,3.92,0,0,0,1.13-.36c.18.09.36.19.57.28a4.91,4.91,0,0,0,2.36.63A17.69,17.69,0,0,0,36,91.44a5.71,5.71,0,0,0,2.71.09,13.34,13.34,0,0,0,5.83.79,22.2,22.2,0,0,0,5.13-1,12.12,12.12,0,0,0,3.28-.21,6.12,6.12,0,0,0,4.82-4.36A6.82,6.82,0,0,0,57.94,84,6.27,6.27,0,0,0,58.27,81.48ZM48.73,81c-2,1.61-4.92,2.65-7.24,1.68a5.43,5.43,0,0,1-1.43-.87,5.56,5.56,0,0,1-.52.37,13.5,13.5,0,0,1-7.6,2.26c-2.37,0-5.78-.54-7.58-2.57a6.47,6.47,0,0,1-4.49,1.85,3.77,3.77,0,0,1-2-1c-1.77,1.91-4.74,2.89-6.66.72-1.76-2-2-5.82.19-7.2-1.08-.8-.29-3,1.07-3.6a6.5,6.5,0,0,1-2.66-6.91,11.35,11.35,0,0,1,2.38-4.27A2.8,2.8,0,0,1,10,59.91c-.61-1.42-.47-3.19.69-4-2.09-2.06-1-4.28,1-5.22-1.19-1.43-.63-4.15.54-5.48a5.12,5.12,0,0,1,4.23-1.62,5.6,5.6,0,0,1,2.28.63,3.88,3.88,0,0,1,1,.76,6.93,6.93,0,0,1,5.2-1.51,9,9,0,0,1,6.19,3.41A12.89,12.89,0,0,1,34.42,45a7,7,0,0,1,6.75.88,5.86,5.86,0,0,1,4-.39c1.33-.86,2.92-1.44,3.66-1.17,3.28,1.17,1.33,4.76-.63,7a4,4,0,0,1,1.93,1.1c2,2.09,2.21,5.68,1.29,8.6a16,16,0,0,1-3.6,6.07,2.93,2.93,0,0,1,.5,2.82.7.7,0,0,1-.06.19,5.74,5.74,0,0,1,2.79,4.31A7.11,7.11,0,0,1,48.73,81Z"/><path class="cls-4" d="M58.27,81.48a13.93,13.93,0,0,0-.37-2.33,3.53,3.53,0,0,0,.13-.54,7.71,7.71,0,0,0-.3-3.65,4.49,4.49,0,0,0-.17-.44,19.12,19.12,0,0,0,.52-5.43,20.8,20.8,0,0,0-.33-3.37c.85-1.9,1.12-4.52.28-5.8a13.64,13.64,0,0,0,.67-6.38c-.14-.69-.32-1.39-.53-2.07,0-.08.09-.16.13-.25a5.24,5.24,0,0,0,0-3.06,3.54,3.54,0,0,0-1.62-2.57c.33-1.85-1-3.59-3.29-4.08a4.34,4.34,0,0,1,2.29,4.21c2.94,1,2,5.54.41,6.26,2.28,1.37,1.76,4.52.43,7a5,5,0,0,1,.3,5.59,5.5,5.5,0,0,1-.43.64c1.78,2.15,1.26,7.07-.66,9.78,1,1.17,1.54,3.18.51,4.21,1.14,1.37,1.58,3.86.1,5.28.42,2.2-.94,4.85-3.15,5.32a5.36,5.36,0,0,1-4.94-2.07,4.86,4.86,0,0,1-3.56,2.81c-1.93.32-4.29-.88-4.63-3a1.49,1.49,0,0,1-2.55-.26c-1.18,2.45-5.41,3.48-7.25,1-2.22,2.74-8.07,3.15-10,.58a1.79,1.79,0,0,1-3.11-.4c-1,1.64-2.75,2.58-4.51,1.63a2.7,2.7,0,0,1-1.29-3.46,3.15,3.15,0,0,1-3.2-1.8,9.5,9.5,0,0,1-.62-1.49A5,5,0,0,0,9,88a3.28,3.28,0,0,0,.45.31,7.08,7.08,0,0,0,.09,1.2,3.92,3.92,0,0,0,3.73,3.06,5.11,5.11,0,0,0,3.29-.91,1.85,1.85,0,0,0,1,.19,3.41,3.41,0,0,0,1.14-.38c1.33,1,3.08.79,4.66.73a17,17,0,0,0,3.83-.61,4.17,4.17,0,0,0,1.92.23,3.92,3.92,0,0,0,1.13-.36c.18.09.36.19.57.28a4.91,4.91,0,0,0,2.36.63A17.69,17.69,0,0,0,36,91.44a5.71,5.71,0,0,0,2.71.09,13.34,13.34,0,0,0,5.83.79,22.2,22.2,0,0,0,5.13-1,12.12,12.12,0,0,0,3.28-.21,6.12,6.12,0,0,0,4.82-4.36A6.82,6.82,0,0,0,57.94,84,6.27,6.27,0,0,0,58.27,81.48Z"/><path class="cls-5" d="M16.32,47.4a2.46,2.46,0,0,0-1.06.78,3.62,3.62,0,0,0-.33.2c-.41.34-1,.94-.88,1.58a2.27,2.27,0,0,0,2,1.5c1.61.33,3.84-.55,4.43-2.21C21.24,47.15,17.4,47.06,16.32,47.4Z"/><path class="cls-6" d="M24.77,51.41a.7.7,0,0,0-.57-.26,1.48,1.48,0,0,0-1.38.43l-.09.1a1.3,1.3,0,0,0-.62,1.09c.07.56.74.65,1.19.59a1.94,1.94,0,0,0,1.35-1C24.78,52.08,25,51.7,24.77,51.41Z"/><path class="cls-6" d="M33.7,51.6a3.41,3.41,0,0,0-.54.1c-1.37,0-3.23,1.29-3,2.52s2.54,1,3.31.9a3.12,3.12,0,0,0,2.76-2C36.6,51.8,34.56,51.52,33.7,51.6Z"/><path class="cls-6" d="M44.78,49.56a1,1,0,0,0-.74.15c-.42.27-1,1.11-.32,1.31a1.45,1.45,0,0,0,1.56-1.17C45.28,49.54,45,49.49,44.78,49.56Z"/><path class="cls-7" d="M53.74,49.71a3,3,0,0,0-.49.09,1.61,1.61,0,0,0-.39,0,2.24,2.24,0,0,0-2,1.62c-.16,1.1,1.3,1.24,2.09,1.14a2.85,2.85,0,0,0,2.39-1.68C55.63,49.93,54.35,49.67,53.74,49.71Z"/><path class="cls-5" d="M20.08,62.55A3.1,3.1,0,0,0,17,62.6a5,5,0,0,0-.66.32l0,0-.1.06c-.89.54-2,1.57-1.47,2.71.75,1.71,3.81,1.26,4.92.41.62-.47,1.48-1.41,1.37-2.31A1.54,1.54,0,0,0,20.08,62.55Z"/><path class="cls-5" d="M15.15,58.44a1.31,1.31,0,0,0-1-.43,1.06,1.06,0,0,0-.31.05,1.68,1.68,0,0,0-.8.25c-.4.27-.8.95-.37,1.4a1.23,1.23,0,0,0,.91.3,1.85,1.85,0,0,0,1.12-.29C15,59.5,15.45,58.87,15.15,58.44Z"/><path class="cls-6" d="M44.88,65.84a1.85,1.85,0,0,0-.68-.31s0,0,0,0c-1.28-.66-3.34-.28-3.53,1.59-.09.85.82,1.26,1.46,1.33a2.93,2.93,0,0,0,2.31-.6C44.91,67.34,45.53,66.35,44.88,65.84Z"/><path class="cls-6" d="M26.89,59.82c-.39.07-1.16.59-1,1.06,0,.45.54.65,1.05.66s1.47-.19,1.61-.86C28.75,59.78,27.49,59.69,26.89,59.82Z"/><path class="cls-7" d="M46.05,75.41a2.55,2.55,0,0,1-.13-.29c0-.27-.06-.41-.29-.43a.68.68,0,0,0-.52-.12c-.51.06-1.31,1-.82,1.48a.94.94,0,0,0,1.28-.26l.07.06C45.78,76,46.12,75.55,46.05,75.41Z"/><path class="cls-7" d="M54.49,68.72l-.09,0a.73.73,0,0,0-.62-.08c-.88.3-1.78,1.8-.89,2.42A1.12,1.12,0,0,0,54,71a2.23,2.23,0,0,0,1.13-1.59C55.16,68.93,54.9,68.69,54.49,68.72Z"/><path class="cls-7" d="M50.69,67.15h0a.45.45,0,0,0-.36,0c-.49.16-1,1-.49,1.34a.66.66,0,0,0,.62,0,1.24,1.24,0,0,0,.64-.88A.31.31,0,0,0,50.69,67.15Z"/><path class="cls-6" d="M31.43,78.88c-.67-1.72-3.14-1.24-4.39-.72-.67.27-1.89,1.29-1.81,2.15-.18,1.28,1.74,1.74,2.86,1.76a3.45,3.45,0,0,0,2.55-.76A2.23,2.23,0,0,0,31.43,78.88Z"/><path class="cls-7" d="M14,86.56l0,0-.07-.06c-.36-.27-.9,0-1.11.37s-.41.9.12,1a1.27,1.27,0,0,0,1.2-.73C14.21,87,14.34,86.48,14,86.56Z"/><path class="cls-6" d="M13.4,78.23a2.84,2.84,0,0,0-2.12,1,1.55,1.55,0,0,0-.24.19,1.46,1.46,0,0,0-.47,1.26,1.8,1.8,0,0,0,1.35,1.36,2.87,2.87,0,0,0,3.36-1.4C16.1,79.25,14.52,78.28,13.4,78.23ZM13.47,81h0a3.94,3.94,0,0,0,.73-.74l.13.11C14.75,80.77,14,80.93,13.47,81Z"/><path class="cls-7" d="M24,88.38a1.24,1.24,0,0,0-.33,0c-.47-.35-1.2.06-1.45.6a.65.65,0,0,0,.18.9,1.22,1.22,0,0,0,1.17,0c.17-.07.34-.08.51-.15a1.18,1.18,0,0,0,.53-.75C24.66,88.52,24.24,88.46,24,88.38Z"/><path class="cls-7" d="M44.69,86.1l-.06,0h0l-.09-.05c-.14-.06-.32.09-.41.19s-.48.58-.33.85a.41.41,0,0,0,.57.1,1.27,1.27,0,0,0,.64-1C45,86.05,44.83,86,44.69,86.1Z"/><path class="cls-7" d="M54.61,84.12a2.36,2.36,0,0,0-1.23-.3A3.51,3.51,0,0,0,50.2,85c-.87,1.16.14,2,1,2.35a3.06,3.06,0,0,0,3.27-.59C55.26,85.94,55.64,84.78,54.61,84.12Z"/><path class="cls-8" d="M47.6,57.63a4.49,4.49,0,0,0-1.93-.27,13.43,13.43,0,0,0-2.4.37,6.89,6.89,0,0,0-2.33,2,8.5,8.5,0,0,0-1.9-.16,6,6,0,0,0-1.93.49c-.46.17-.86.66-1.31.79a.1.1,0,0,0-.07.06,9.23,9.23,0,0,1,4.37-.67,6.59,6.59,0,0,1,2.57.87.24.24,0,0,0,0-.13,2,2,0,0,0-1.38-1.15,7,7,0,0,1,2.57-1.73A10.55,10.55,0,0,1,47.6,57.63Z"/><path class="cls-8" d="M21,55.8a6.68,6.68,0,0,0-.89,0,4.55,4.55,0,0,0-1.21.29,4.16,4.16,0,0,0-4.46-.75,2.25,2.25,0,0,0-.21.12,3.67,3.67,0,0,0-1.18,1,6.27,6.27,0,0,1,5.16-.1,4,4,0,0,0-.62.42h0a7.33,7.33,0,0,1,2.12-.52,12.13,12.13,0,0,1,2.88.08A7.36,7.36,0,0,0,21,55.8Z"/><path class="cls-8" d="M35.52,47.32a4.11,4.11,0,0,0-2,.9,6.49,6.49,0,0,0-2.34-.35c-1.31,0-2.3.81-3.35,1.4a.19.19,0,0,0-.07.08,7,7,0,0,1,6.18-.05l.45.07c.13,0,.35-.23.26-.34a2.25,2.25,0,0,0-.63-.56A7.3,7.3,0,0,1,35.44,48a9.45,9.45,0,0,1,2.19-.2A8.7,8.7,0,0,0,35.52,47.32Z"/><path class="cls-8" d="M43.75,78a3.94,3.94,0,0,0-1.82-.28,11.27,11.27,0,0,0-2.23.36,6.26,6.26,0,0,0-2.13,2,7.46,7.46,0,0,0-1.76-.18,5.37,5.37,0,0,0-1.78.49c-.42.16-.79.65-1.2.77,0,0,0,0-.06.06a8,8,0,0,1,4-.64,6.09,6.09,0,0,1,2.42.88s0-.09,0-.12a2,2,0,0,0-1.32-1.16,6.17,6.17,0,0,1,2.36-1.71A9.15,9.15,0,0,1,43.75,78Z"/><path class="cls-8" d="M22.32,75.63a5.89,5.89,0,0,0-.84,0,4.42,4.42,0,0,0-1.14.28,3.8,3.8,0,0,0-4.21-.75l-.2.11a3.77,3.77,0,0,0-1.15,1,5.75,5.75,0,0,1,4.9-.09,3.69,3.69,0,0,0-.58.42h0a6.54,6.54,0,0,1,2-.51,10.59,10.59,0,0,1,2.69.09A6.6,6.6,0,0,0,22.32,75.63Z"/><path class="cls-8" d="M34.76,68.8a3.47,3.47,0,0,0-1.75.83,5.16,5.16,0,0,0-2-.31,5.92,5.92,0,0,0-2.89,1.29s0,0-.06.06a5.67,5.67,0,0,1,5.31,0,2.5,2.5,0,0,0,.38.06c.11,0,.3-.21.23-.31a2.05,2.05,0,0,0-.54-.52,7.17,7.17,0,0,1,1.25-.47,7.9,7.9,0,0,1,1.88-.19A7.24,7.24,0,0,0,34.76,68.8Z"/><path class="cls-9" d="M40.13,26a3.21,3.21,0,0,0-1.41.45c-.22.23,0-.19.07-.32s-.12-.17-.71.15-.58.68-.67.69.11-.47-.26.05a1.41,1.41,0,0,0-.28,1.17,1.92,1.92,0,0,0,0,2.44c.26.31.06-.2.32.14s1.23,1,1.48.92-.21-.34.2-.15a2.15,2.15,0,0,0,1.63.12c.65-.23.62-.3.43-.34s.38-.07,1-.06a2.12,2.12,0,0,0,1.37-.61c.41-.31-.12-.21.24-.31a5,5,0,0,0,.71-.23c.27-.12.07-.39-.18-.71a3.93,3.93,0,0,1-.59-.89,4.3,4.3,0,0,0-1.14-1.15c-.31-.24.32,0-.12-.39a2.2,2.2,0,0,0-1.39-.58c-.18,0-.07-.08.12-.23S40.48,26,40.13,26Z"/><path class="cls-10" d="M37.07,28.13s0,.06,0,.06c2.39-.34,4.36.4,6.53,1.32,0,0,0,0,0-.05C41.72,28.44,39.26,27.49,37.07,28.13Z"/><path class="cls-11" d="M.24,24.55a4.83,4.83,0,0,0,5.06,4.6,4.84,4.84,0,0,0,4.92-4.74,4.85,4.85,0,0,0-5.05-4.6A4.84,4.84,0,0,0,.24,24.55Z"/><path class="cls-12" d="M5.22,29.28A5,5,0,0,1,.11,24.55a4.64,4.64,0,0,1,1.45-3.42,5.29,5.29,0,0,1,3.61-1.45h.07a5,5,0,0,1,5.11,4.73,5,5,0,0,1-5,4.87Zm0-9.34H5.17a5,5,0,0,0-3.42,1.38A4.38,4.38,0,0,0,.37,24.54,4.72,4.72,0,0,0,5.22,29h.07a4.72,4.72,0,0,0,4.8-4.61A4.72,4.72,0,0,0,5.24,19.94Z"/><path class="cls-13" d="M2.75,20.43A2.24,2.24,0,0,0,4.34,21c.16,0,1-.12.8-.42,0-.11-.2-.16-.29-.21a2,2,0,0,1-.64-.44,5,5,0,0,1,1-.11,5.31,5.31,0,0,1,1.88.32.29.29,0,0,0-.1.24.52.52,0,0,0,.42.37,2.9,2.9,0,0,0,.83,0A4.69,4.69,0,0,1,9.53,22.1a5.38,5.38,0,0,0-1.65-.66c-.06,0,0,.08,0,.1A2.26,2.26,0,0,1,8,23.82a2,2,0,0,1-1.28,1.3c.51-1.09,1.37-3.62-.33-3.94-.69-.13-1.34.41-2,.34a5.78,5.78,0,0,1-2.08-.59l-.13-.08A6,6,0,0,1,2.75,20.43Z"/><path class="cls-14" d="M6.4,20.43a7.07,7.07,0,0,1-2.67-2.5c-.5,1.11,1.49,2.83,2.36,2.78C6.57,20.72,6.55,20.51,6.4,20.43Z"/><path class="cls-15" d="M6,20.84A3.36,3.36,0,0,1,3.86,19.3a1.49,1.49,0,0,1-.25-1.42.13.13,0,0,1,.11-.08.14.14,0,0,1,.12.06,7,7,0,0,0,2.62,2.45.28.28,0,0,1,.16.3c0,.1-.14.23-.48.23H6ZM3.78,18.26a1.54,1.54,0,0,0,.3.89,3.17,3.17,0,0,0,2,1.42h.1a.69.69,0,0,0,.2,0h0A7.16,7.16,0,0,1,3.78,18.26Z"/><path class="cls-14" d="M6.49,20.74s1.66,1.37.32,4.09C7.79,24.67,8.86,21.6,6.49,20.74Z"/><path class="cls-15" d="M6.81,25a.11.11,0,0,1-.1-.06.14.14,0,0,1,0-.14c1.28-2.59-.27-3.91-.29-3.92a.14.14,0,0,1,0-.17.13.13,0,0,1,.16-.06A2.19,2.19,0,0,1,8,23C8,24,7.4,24.87,6.84,25ZM7,21.14a3.52,3.52,0,0,1,.11,3.4A2.44,2.44,0,0,0,7.78,23,2,2,0,0,0,7,21.14Z"/><path class="cls-14" d="M6.78,20.87c-.06,0,3.64,2.1,4.19-.7C10,20.78,9.64,21.17,6.78,20.87Z"/><path class="cls-15" d="M9.25,21.76a4.46,4.46,0,0,1-2.6-.89.15.15,0,0,1,0-.1.15.15,0,0,1,.11,0,16,16,0,0,0,1.63.11,3.48,3.48,0,0,0,2.22-.62l.26-.16a.12.12,0,0,1,.14,0,.13.13,0,0,1,0,.13A1.74,1.74,0,0,1,9.25,21.76Zm-1.79-.7a5,5,0,0,0,1.79.43,1.45,1.45,0,0,0,1.51-1,3.71,3.71,0,0,1-2.33.64C8.15,21.1,7.83,21.09,7.46,21.06Z"/><path class="cls-14" d="M6.21,20.66a3.58,3.58,0,0,1-3.95-.81C1.84,20.68,4,22,6.21,20.66Z"/><path class="cls-15" d="M4.25,21.35h0a2.43,2.43,0,0,1-2-.87.67.67,0,0,1-.06-.69.13.13,0,0,1,.1-.07.11.11,0,0,1,.11,0,3.09,3.09,0,0,0,2.37,1,4.11,4.11,0,0,0,1.44-.27.13.13,0,0,1,.17.06.14.14,0,0,1,0,.18A4.13,4.13,0,0,1,4.25,21.35ZM2.34,20.13a.66.66,0,0,0,.08.21,2.2,2.2,0,0,0,1.83.74h.32A3.39,3.39,0,0,1,2.34,20.13Z"/><path class="cls-14" d="M8.36,17.11l0,0Z"/><path class="cls-16" d="M7.2,17.32a1.44,1.44,0,0,1,1.26-.57c.35,0,0,.28-.08.34l0,0C7.87,17.48,7.09,17.69,7.2,17.32Z"/><path class="cls-15" d="M7.39,17.64a.31.31,0,0,1-.28-.11.27.27,0,0,1,0-.25,1.55,1.55,0,0,1,1.33-.66h.06c.16,0,.25.06.28.15s0,.21-.28.43A2.1,2.1,0,0,1,7.39,17.64Zm1-.76a1.32,1.32,0,0,0-1.09.5h.08A1.79,1.79,0,0,0,8.28,17l.15-.12Z"/><path class="cls-14" d="M6.33,20a12.86,12.86,0,0,1,.87-2.69c-.11.37.67.16,1.16-.21a5.24,5.24,0,0,0-1.6,3.56C6.76,20.91,6.17,20.88,6.33,20Z"/><path class="cls-15" d="M6.62,20.93a.38.38,0,0,1-.3-.15A1,1,0,0,1,6.2,20a13.07,13.07,0,0,1,.88-2.73.15.15,0,0,1,.17-.06.15.15,0,0,1,.08.16s0,0,.06,0A1.79,1.79,0,0,0,8.28,17a.13.13,0,0,1,.18,0,.12.12,0,0,1,0,.18,5.18,5.18,0,0,0-1.55,3.47.23.23,0,0,1-.07.17A.28.28,0,0,1,6.62,20.93Zm.58-3.32A14.4,14.4,0,0,0,6.46,20a.71.71,0,0,0,.06.58c.08.09.11.05.11.05a5.31,5.31,0,0,1,1.12-3.08A.82.82,0,0,1,7.2,17.61Z"/><path class="cls-17" d="M1.36,22.12a1.42,1.42,0,0,1,.52-.62c.1-.08.28.21.2.3s-.31.39-.47.59S1.32,22.23,1.36,22.12Z"/><path class="cls-17" d="M1.12,22.65c.09-.13.27.16.22.26a4.68,4.68,0,0,0,.58,4.36c.15.21,0,.17-.16-.06C.76,26.05.2,24,1.12,22.65Z"/><path class="cls-11" d="M3.77,59.6a4.84,4.84,0,0,0,5.05,4.6,4.68,4.68,0,1,0-.12-9.34A4.83,4.83,0,0,0,3.77,59.6Z"/><path class="cls-12" d="M8.75,64.33A5,5,0,0,1,3.64,59.6a4.59,4.59,0,0,1,1.45-3.42,5.24,5.24,0,0,1,3.6-1.45h.08a4.81,4.81,0,1,1,.05,9.61Zm0-9.34H8.7a5,5,0,0,0-3.42,1.38A4.32,4.32,0,0,0,3.9,59.59a4.72,4.72,0,0,0,4.85,4.48h.07A4.55,4.55,0,1,0,8.77,55Z"/><path class="cls-13" d="M6.28,55.48A2.29,2.29,0,0,0,7.87,56c.16,0,1-.13.8-.42a.65.65,0,0,0-.3-.22A1.92,1.92,0,0,1,7.73,55a5.15,5.15,0,0,1,1-.1,5.34,5.34,0,0,1,1.88.31.29.29,0,0,0-.1.25.53.53,0,0,0,.41.37,2.67,2.67,0,0,0,.84,0,4.69,4.69,0,0,1,1.32,1.38,5.25,5.25,0,0,0-1.64-.67c-.06,0,0,.09,0,.11a2.24,2.24,0,0,1,.06,2.28,2,2,0,0,1-1.27,1.3c.5-1.09,1.37-3.63-.33-4-.69-.13-1.34.41-2,.34A5.59,5.59,0,0,1,5.76,56l-.14-.07A4.59,4.59,0,0,1,6.28,55.48Z"/><path class="cls-14" d="M9.93,55.47A7.05,7.05,0,0,1,7.25,53c-.49,1.1,1.5,2.83,2.36,2.77C10.1,55.77,10.07,55.55,9.93,55.47Z"/><path class="cls-15" d="M9.57,55.88a3.4,3.4,0,0,1-2.18-1.54,1.5,1.5,0,0,1-.26-1.42.14.14,0,0,1,.11-.07.13.13,0,0,1,.13.06A7,7,0,0,0,10,55.35a.28.28,0,0,1,.16.31c0,.1-.13.22-.48.22H9.57ZM7.31,53.31a1.56,1.56,0,0,0,.3.89,3.17,3.17,0,0,0,2,1.42h.09a.66.66,0,0,0,.21,0h0A7.2,7.2,0,0,1,7.31,53.31Z"/><path class="cls-14" d="M10,55.79s1.67,1.37.33,4.09C11.31,59.72,12.39,56.64,10,55.79Z"/><path class="cls-15" d="M10.34,60a.12.12,0,0,1-.1,0,.14.14,0,0,1,0-.14c1.27-2.59-.23-3.87-.29-3.93a.14.14,0,0,1,0-.17.13.13,0,0,1,.16,0,2.18,2.18,0,0,1,1.51,2.39c-.09,1-.64,1.85-1.21,1.95Zm.17-3.82a3.54,3.54,0,0,1,.11,3.4A2.44,2.44,0,0,0,11.3,58,2,2,0,0,0,10.51,56.19Z"/><path class="cls-14" d="M10.31,55.91c-.07,0,3.64,2.1,4.19-.69C13.47,55.83,13.16,56.21,10.31,55.91Z"/><path class="cls-15" d="M12.78,56.8a4.46,4.46,0,0,1-2.6-.89.13.13,0,0,1,0-.1.19.19,0,0,1,.1,0,15.78,15.78,0,0,0,1.64.1,3.45,3.45,0,0,0,2.21-.62l.26-.15a.14.14,0,0,1,.15,0,.13.13,0,0,1,.05.13A1.74,1.74,0,0,1,12.78,56.8ZM11,56.11a4.86,4.86,0,0,0,1.79.43,1.44,1.44,0,0,0,1.51-1,3.66,3.66,0,0,1-2.33.65C11.68,56.15,11.36,56.13,11,56.11Z"/><path class="cls-14" d="M9.74,55.71a3.61,3.61,0,0,1-4-.81C5.37,55.72,7.5,57,9.74,55.71Z"/><path class="cls-15" d="M7.78,56.39h0a2.44,2.44,0,0,1-2.06-.87.7.7,0,0,1-.06-.68.16.16,0,0,1,.1-.08.17.17,0,0,1,.12.05,3.06,3.06,0,0,0,2.37,1,4.24,4.24,0,0,0,1.44-.26.14.14,0,0,1,.17.06.13.13,0,0,1,0,.17A4,4,0,0,1,7.78,56.39ZM5.87,55.18a.5.5,0,0,0,.08.2,2.19,2.19,0,0,0,1.83.75h0l.32,0A3.32,3.32,0,0,1,5.87,55.18Z"/><path class="cls-14" d="M11.88,52.16l0,0Z"/><path class="cls-16" d="M10.73,52.36A1.44,1.44,0,0,1,12,51.79c.35,0,0,.28-.09.35l0,0C11.4,52.52,10.62,52.73,10.73,52.36Z"/><path class="cls-15" d="M10.91,52.69a.35.35,0,0,1-.28-.11.28.28,0,0,1,0-.25,1.53,1.53,0,0,1,1.33-.67H12c.15,0,.24.06.28.16s.05.18-.29.43A2.13,2.13,0,0,1,10.91,52.69Zm1-.77a1.34,1.34,0,0,0-1.09.5h.07a1.81,1.81,0,0,0,.89-.37.69.69,0,0,0,.15-.13Z"/><path class="cls-14" d="M9.86,55.05a12.48,12.48,0,0,1,.87-2.69c-.11.37.67.16,1.15-.2a5.17,5.17,0,0,0-1.59,3.56C10.29,56,9.7,55.92,9.86,55.05Z"/><path class="cls-15" d="M10.15,56a.41.41,0,0,1-.3-.14,1,1,0,0,1-.13-.8,13.4,13.4,0,0,1,.89-2.73.13.13,0,0,1,.17-.06.14.14,0,0,1,.08.16s0,0,.05,0a1.81,1.81,0,0,0,.89-.37.15.15,0,0,1,.19,0,.14.14,0,0,1,0,.19,5.1,5.1,0,0,0-1.55,3.47.28.28,0,0,1-.07.17A.27.27,0,0,1,10.15,56Zm.58-3.32A14.52,14.52,0,0,0,10,55.08c-.07.37,0,.52.06.57s.11.06.11.06a5.37,5.37,0,0,1,1.12-3.09A.82.82,0,0,1,10.73,52.65Z"/><path class="cls-17" d="M4.88,57.17a1.5,1.5,0,0,1,.52-.62c.11-.08.28.21.2.29s-.3.4-.46.6S4.84,57.27,4.88,57.17Z"/><path class="cls-17" d="M4.65,57.69c.09-.13.26.17.22.27a4.66,4.66,0,0,0,.58,4.35c.15.22,0,.17-.16-.05C4.28,61.1,3.73,59,4.65,57.69Z"/><path class="cls-11" d="M55.91,59.25A5,5,0,1,1,51,54.52,4.83,4.83,0,0,1,55.91,59.25Z"/><path class="cls-12" d="M50.94,64h-.08a4.81,4.81,0,1,1,.06-9.61H51a5.26,5.26,0,0,1,3.6,1.46,4.59,4.59,0,0,1,1.46,3.41A5,5,0,0,1,50.94,64Zm0-9.34a4.54,4.54,0,1,0-.06,9.07h.08a4.71,4.71,0,0,0,4.84-4.47A4.35,4.35,0,0,0,54.41,56,5,5,0,0,0,51,54.65Z"/><path class="cls-13" d="M53.4,55.14a2.33,2.33,0,0,1-1.59.56c-.16,0-1-.13-.8-.43a.71.71,0,0,1,.3-.21,1.92,1.92,0,0,0,.64-.44,5,5,0,0,0-1-.1,5.3,5.3,0,0,0-1.88.31.27.27,0,0,1,.09.24.49.49,0,0,1-.41.37,2.33,2.33,0,0,1-.83,0,4.81,4.81,0,0,0-1.33,1.37,5.23,5.23,0,0,1,1.64-.66c.06,0,0,.09,0,.11a2.24,2.24,0,0,0-.07,2.28,2,2,0,0,0,1.28,1.3c-.51-1.09-1.37-3.63.32-3.95.7-.13,1.34.41,2,.34a5.64,5.64,0,0,0,2.09-.59l.13-.07A4.59,4.59,0,0,0,53.4,55.14Z"/><path class="cls-14" d="M49.76,55.13a7.14,7.14,0,0,0,2.67-2.5c.49,1.11-1.49,2.84-2.36,2.78C49.59,55.43,49.61,55.21,49.76,55.13Z"/><path class="cls-15" d="M50.11,55.54H50c-.35,0-.46-.12-.48-.22a.26.26,0,0,1,.15-.3,7,7,0,0,0,2.63-2.45.11.11,0,0,1,.12-.07.15.15,0,0,1,.11.08A1.47,1.47,0,0,1,52.29,54,3.4,3.4,0,0,1,50.11,55.54Zm0-.27h0a3.17,3.17,0,0,0,2-1.42,1.59,1.59,0,0,0,.3-.9,7.06,7.06,0,0,1-2.55,2.29.58.58,0,0,0,.2,0Z"/><path class="cls-14" d="M49.67,55.44s-1.66,1.38-.33,4.1C48.37,59.38,47.3,56.3,49.67,55.44Z"/><path class="cls-15" d="M49.34,59.67h0c-.57-.1-1.12-1-1.2-2a2.18,2.18,0,0,1,1.5-2.4.14.14,0,0,1,.16.06.13.13,0,0,1,0,.17c-.07.05-1.56,1.33-.32,3.9a.1.1,0,0,1,0,.09.13.13,0,0,1-.13.13Zm-.17-3.82a2,2,0,0,0-.79,1.85,2.49,2.49,0,0,0,.68,1.55A3.54,3.54,0,0,1,49.17,55.85Z"/><path class="cls-14" d="M49.37,55.57c.07,0-3.63,2.1-4.19-.69C46.21,55.49,46.52,55.87,49.37,55.57Z"/><path class="cls-15" d="M46.91,56.46a1.75,1.75,0,0,1-1.86-1.56.12.12,0,0,1,.06-.13.14.14,0,0,1,.14,0l.26.16a3.46,3.46,0,0,0,2.22.62h0a15.76,15.76,0,0,0,1.63-.1.12.12,0,0,1,.12.06.14.14,0,0,1,0,.14A5.36,5.36,0,0,1,46.91,56.46Zm-1.52-1.3a1.45,1.45,0,0,0,1.52,1,4.66,4.66,0,0,0,1.78-.43c-.36,0-.68.05-1,.05h0A3.73,3.73,0,0,1,45.39,55.16Z"/><path class="cls-14" d="M49.94,55.37a3.6,3.6,0,0,0,4-.82C54.31,55.38,52.18,56.66,49.94,55.37Z"/><path class="cls-15" d="M51.91,56.05a4.1,4.1,0,0,1-2-.57.12.12,0,0,1-.05-.17.13.13,0,0,1,.17-.07,3.71,3.71,0,0,0,1.43.27,3,3,0,0,0,2.37-1,.17.17,0,0,1,.12,0,.16.16,0,0,1,.1.08.7.7,0,0,1-.06.68A2.43,2.43,0,0,1,51.91,56.05Zm-.32-.28.32,0A2.18,2.18,0,0,0,53.73,55a.72.72,0,0,0,.09-.2A3.34,3.34,0,0,1,51.59,55.77Z"/><path class="cls-14" d="M47.8,51.81h0Z"/><path class="cls-16" d="M49,52a1.46,1.46,0,0,0-1.26-.57c-.35,0,0,.28.08.35h0C48.28,52.19,49.06,52.39,49,52Z"/><path class="cls-15" d="M48.77,52.35h0a2.1,2.1,0,0,1-1.05-.43c-.32-.24-.33-.37-.3-.44s.12-.15.27-.16h.06a1.54,1.54,0,0,1,1.32.63.29.29,0,0,1,0,.29A.33.33,0,0,1,48.77,52.35Zm-1-.77a.81.81,0,0,0,.13.11l0,0a1.85,1.85,0,0,0,.89.38h0s.07,0,.07,0a1.35,1.35,0,0,0-1.09-.49Z"/><path class="cls-14" d="M49.83,54.71A13.49,13.49,0,0,0,49,52c.1.37-.68.17-1.16-.21a5.24,5.24,0,0,1,1.6,3.57C49.39,55.61,50,55.58,49.83,54.71Z"/><path class="cls-15" d="M49.53,55.63h0a.29.29,0,0,1-.2-.07.31.31,0,0,1-.07-.18,5.08,5.08,0,0,0-1.55-3.47.13.13,0,0,1,.17-.2,1.85,1.85,0,0,0,.89.38s.07,0,.07,0a.13.13,0,0,1,.07-.16.12.12,0,0,1,.16,0A13.12,13.12,0,0,1,50,54.69a.92.92,0,0,1-.12.79A.4.4,0,0,1,49.53,55.63ZM48.4,52.28a5.31,5.31,0,0,1,1.13,3.1h0a.11.11,0,0,0,.1-.06.7.7,0,0,0,.07-.57A14.51,14.51,0,0,0,49,52.31.82.82,0,0,1,48.4,52.28Z"/><path class="cls-17" d="M54.8,56.83a1.43,1.43,0,0,0-.52-.62c-.1-.08-.28.2-.2.29s.31.4.46.6S54.84,56.93,54.8,56.83Z"/><path class="cls-17" d="M55,57.35c-.09-.13-.26.16-.22.27A4.63,4.63,0,0,1,54.23,62c-.14.22,0,.17.17-.06C55.4,60.76,56,58.7,55,57.35Z"/><path class="cls-18" d="M42.6,22.43c-3.5,1.82-6.71,3.37-9.24,12.36,0,0-1,3.91-1.37,3.94s-.61-1.65-1-3.09-1.21-4.32-1.72-6.38-1-4.8-1.58-7.31A32.88,32.88,0,0,1,27,18.28l-.43.3c.24,2,1.13,6.15,1.65,8.65s.75,4.19.75,4.19a9.31,9.31,0,0,0-1.37-1.58c-1-1-1.48-1.85-2.75-3.09-1.05-1-3.95-3.81-7.72-4.65,0,.12-.09.24-.14.36a9,9,0,0,1,1.76.73s4.39,2.64,5.83,4.22a29.35,29.35,0,0,1,3.89,5.06c2.36,4.07,2.68,18.1,2.42,20.39A25.71,25.71,0,0,0,26.09,48c-2.19-1.42-7-1.28-13.53,1.37.14.43.29.86.45,1.28a18.39,18.39,0,0,1,1.84-.89c3.19-1.29,8.27-3.1,10.55-.67,6.08,6.51,5.35,17.55,5.45,20.07,0,.24,0,.51,0,.8.53,0,2.27-.07,2.79-.08-.31-5.15-.24-7.07-.23-10a9.64,9.64,0,0,1,2.51-6,17,17,0,0,1,2.37-2.18,3.77,3.77,0,0,1,.42-.31c-.15-.2-.31-.4-.46-.61l0,0s-.84.77-1.44,1.28a24.15,24.15,0,0,0-4.18,4.93s-.11-2.42,0-4.17c.17-2.87.59-14.09,1.39-16.76,1.32-4.36,3.33-8.78,6.77-11.88A8.12,8.12,0,0,1,44,22.4a8,8,0,0,1,2.2-.27c0-.14,0-.27.07-.41A7.31,7.31,0,0,0,42.6,22.43Z"/><path class="cls-19" d="M17.94,9.31c.74.53,2.37,2,2.57,2.85s.27-.39.27-.81.49-.22,1.4,1.28a4.33,4.33,0,0,1,.6,2.42c.17.13.37-1.2.52.46a3.74,3.74,0,0,1-.88,3A5,5,0,0,1,19.25,24c-1,.37.14-.53-.89-.1s-4.12.71-4.55.14.93-.47-.23-.6a5.62,5.62,0,0,1-3.86-1.86c-1.14-1.37-1-1.49-.52-1.34s-.75-.63-2.09-1.41a5.58,5.58,0,0,1-2.3-3.14c-.51-1.24.54-.32-.12-1a10.83,10.83,0,0,1-1.31-1.45c-.44-.63.34-1,1.34-1.36a11.72,11.72,0,0,0,2.49-1.23,11.81,11.81,0,0,1,4.07-1.12c1-.12-.77-.32.79-.72a5.89,5.89,0,0,1,3.9.52c.35.32.25-.09,0-.68S17.2,8.78,17.94,9.31Z"/><path class="cls-20" d="M22,18.13c.05.06-.12.13-.16.1-4.94-3.91-10.37-4.81-16.43-5.59-.08,0,0-.08.07-.07C11.13,12.76,17.93,13.84,22,18.13Z"/><path class="cls-21" d="M18.08,9.41a8,8,0,0,0-6.69,3.81c-2.51,4.69,1.37,9.3,5.68,11-1.3.21-3,.23-3.26-.18-.43-.57.93-.47-.23-.6a5.62,5.62,0,0,1-3.86-1.86c-1.14-1.37-1-1.49-.52-1.34s-.75-.63-2.09-1.41a5.58,5.58,0,0,1-2.3-3.14c-.51-1.24.54-.32-.12-1a10.83,10.83,0,0,1-1.31-1.45c-.44-.63.34-1,1.34-1.36a11.72,11.72,0,0,0,2.49-1.23,11.81,11.81,0,0,1,4.07-1.12c1-.12-.77-.32.79-.72a5.89,5.89,0,0,1,3.9.52c.35.32.25-.09,0-.68s1.21.12,2,.65Z"/><path class="cls-22" d="M13.29,22.19c.63-.65,2.36-2.06,3.19-2.14s-.35-.31-.76-.38-.15-.51,1.47-1.2a4.43,4.43,0,0,1,2.48-.25c.15-.15-1.14-.53.52-.45A3.78,3.78,0,0,1,23,19.08a5,5,0,0,1,5,3.93c.22,1-.51-.22-.23.87s.11,4.18-.52,4.52-.34-1-.62.14a5.65,5.65,0,0,1-2.41,3.55c-1.51.94-1.61.79-1.39.32s-.74.66-1.7,1.87a5.54,5.54,0,0,1-3.44,1.82c-1.3.33-.24-.57-1,0a11.21,11.21,0,0,1-1.62,1.09c-.68.34-.92-.48-1.15-1.52A11.34,11.34,0,0,0,13.08,33a11.72,11.72,0,0,1-.52-4.18c0-1-.43.71-.6-.89A5.9,5.9,0,0,1,13,24.14c.37-.3,0-.26-.66-.12S12.65,22.85,13.29,22.19Z"/><path class="cls-19" d="M12.5,28.34a.16.16,0,0,1,.11.05c.07.06.09.18.08.43A12.27,12.27,0,0,0,13.2,33a11.84,11.84,0,0,1,.87,2.67c.18.79.36,1.5.73,1.5a.59.59,0,0,0,.23-.07,5.34,5.34,0,0,0,1-.63c.17-.12.36-.27.63-.45s.31-.21.38-.21a.14.14,0,0,1,.11.05.23.23,0,0,1,0,.17s0,0,0,.05h0a1.47,1.47,0,0,0,.54-.06l.09,0a5.27,5.27,0,0,0,3.28-1.75c1.59-2,1.75-2,1.82-2a.17.17,0,0,1,.12.07.24.24,0,0,1,0,.23l-.06.17A4.71,4.71,0,0,0,24.2,32a5.35,5.35,0,0,0,2.35-3.46c.12-.49.14-.56.27-.56s.14.1.16.17.07.21.13.21a.3.3,0,0,0,.13,0c.51-.28.75-3.22.45-4.37-.09-.33-.09-.49,0-.58a.27.27,0,0,1,.29,0s0-.12,0-.25a4.84,4.84,0,0,0-4.87-3.83.18.18,0,0,1-.12-.05,3.58,3.58,0,0,0-2.75-1.25,4.51,4.51,0,0,0-.62,0l0,0c.11.08.21.15.22.26a.24.24,0,0,1,0,.14c-.09.08-.22.07-.42,0a3.4,3.4,0,0,0-.66-.07,3.68,3.68,0,0,0-1.44.33c-1.33.56-1.53.87-1.56.93h.05c1.18.18,1.17.35,1.17.43s-.24.2-.41.21a8.65,8.65,0,0,0-3.11,2.1,4.34,4.34,0,0,0-1.09,1.64s0,0,.05,0a3.83,3.83,0,0,1,.69-.11c.05,0,.22,0,.26.14s-.1.27-.17.32a5.81,5.81,0,0,0-1,3.67,1.49,1.49,0,0,0,.14.61s0-.05.07-.08A.3.3,0,0,1,12.5,28.34Z"/><path class="cls-23" d="M22.61,19.42c.05,0,.11.14.07.18-4.58,4.32-6.25,9.56-7.9,15.45,0,.08-.07,0-.07-.08C15.72,29.42,17.77,22.86,22.61,19.42Z"/><path class="cls-21" d="M13.41,22.07a8,8,0,0,0,2.8,7.17c4.29,3.15,9.4,0,11.74-4,0,1.31-.2,2.95-.65,3.2-.63.34-.34-1-.62.14a5.65,5.65,0,0,1-2.41,3.55c-1.51.94-1.61.79-1.39.32s-.74.66-1.7,1.87a5.54,5.54,0,0,1-3.44,1.82c-1.3.33-.24-.57-1,0a11.21,11.21,0,0,1-1.62,1.09c-.68.34-.92-.48-1.15-1.52A11.34,11.34,0,0,0,13.08,33a11.72,11.72,0,0,1-.52-4.18c0-1-.43.71-.6-.89A5.9,5.9,0,0,1,13,24.14c.37-.3,0-.26-.66-.12s.28-1.17.92-1.83A.68.68,0,0,1,13.41,22.07Z"/><path class="cls-19" d="M12.27,42.81a6.15,6.15,0,0,1,2.61,1c.4.45,0-.35-.09-.62s.25-.3,1.33.38,1,1.34,1.19,1.37-.16-.9.49.13a2.74,2.74,0,0,1,.42,2.25A3.65,3.65,0,0,1,18,52c-.51.56-.08-.39-.61.23S14.9,54,14.43,53.77s.45-.61-.34-.31a4.12,4.12,0,0,1-3.13,0c-1.2-.5-1.14-.63-.78-.69s-.69-.17-1.82-.23a4.06,4.06,0,0,1-2.53-1.3c-.74-.63.24-.38-.42-.62a8.46,8.46,0,0,1-1.33-.51c-.49-.26-.09-.75.43-1.33a8.37,8.37,0,0,0,1.22-1.62A8.36,8.36,0,0,1,8,45.15c.62-.42-.61,0,.28-.73a4.3,4.3,0,0,1,2.71-1c.33.1.13-.13-.21-.44S11.61,42.7,12.27,42.81Z"/><path class="cls-24" d="M12.39,53.93a3.94,3.94,0,0,1-1.48-.29c-.95-.41-1.11-.56-1.09-.73a.15.15,0,0,1,0-.07c-.33,0-.85-.08-1.5-.12A4.09,4.09,0,0,1,5.8,51.44l-.06,0c-.25-.21-.35-.36-.33-.49a.15.15,0,0,1,0-.08l-.06,0-.53-.18A3.77,3.77,0,0,1,4,50.27a.48.48,0,0,1-.29-.35c-.06-.33.28-.73.68-1.18a7.59,7.59,0,0,0,1.2-1.6A9.36,9.36,0,0,1,7.93,45l0,0a.19.19,0,0,1-.13-.14c0-.14.07-.3.37-.56a4.57,4.57,0,0,1,2.71-1l-.21-.21a.23.23,0,0,1-.09-.27c0-.11.18-.23.86-.23a7.08,7.08,0,0,1,.82.05,7.53,7.53,0,0,1,2.53.91l-.15-.32a.26.26,0,0,1,0-.26.25.25,0,0,1,.23-.11,3.39,3.39,0,0,1,1.3.57,2.59,2.59,0,0,1,1.06,1.12.16.16,0,0,1,.16-.12c.1,0,.21.08.5.55a2.89,2.89,0,0,1,.45,2.29,3.8,3.8,0,0,1-.3,4.75c-.15.17-.24.23-.33.23a.18.18,0,0,1-.17-.12l-.11.12a6.08,6.08,0,0,1-2.87,1.65.46.46,0,0,1-.21,0c-.11-.06-.19-.13-.2-.23a.25.25,0,0,1,0-.08s0,0,0,0A5,5,0,0,1,12.39,53.93Zm-2.25-1a4.87,4.87,0,0,0,.87.43,3.94,3.94,0,0,0,3,0,1.46,1.46,0,0,1,.37-.12.13.13,0,0,1,.13.08.16.16,0,0,1,0,.19c-.06.08-.07.1-.07.12l.07,0a.17.17,0,0,0,.09,0,6,6,0,0,0,2.67-1.57c.16-.19.26-.26.35-.26a.17.17,0,0,1,.17.13l.1-.1a3.54,3.54,0,0,0,.24-4.46.12.12,0,0,1,0-.13,2.64,2.64,0,0,0-.4-2.13c-.09-.13-.15-.23-.2-.29,0,.1,0,.23-.18.23h0c-.11,0-.16-.12-.21-.26a2.24,2.24,0,0,0-1-1.13,3,3,0,0,0-1.14-.53c.36.7.29.81.26.86a.16.16,0,0,1-.13.07c-.07,0-.14-.05-.26-.19a6.28,6.28,0,0,0-2.53-1,4.84,4.84,0,0,0-.78-.06,1.77,1.77,0,0,0-.57.06c.35.32.44.46.39.58a.18.18,0,0,1-.18.11h0l-.15,0h-.14a4.38,4.38,0,0,0-2.44.93,1.44,1.44,0,0,0-.27.28h0a.21.21,0,0,1,.19.15c0,.12-.09.21-.24.31a8.94,8.94,0,0,0-2.24,2,8.45,8.45,0,0,1-1.23,1.64c-.26.29-.66.73-.62,1a.26.26,0,0,0,.15.16,4.09,4.09,0,0,0,.79.32l.53.18c.2.08.32.12.33.23a.17.17,0,0,1-.11.16s0,.06.24.26l0,.05a3.76,3.76,0,0,0,2.4,1.21c2,.12,2,.2,2,.33s-.06.15-.19.16Z"/><path class="cls-20" d="M17.83,47.21c.05,0,0,.13-.08.12-4.5-.92-8.33.27-12.53,1.76,0,0,0-.06,0-.07C9,47.29,13.75,45.76,17.83,47.21Z"/><path class="cls-21" d="M12.39,42.83a5.79,5.79,0,0,0-3.1,4.68c-.09,3.87,4,5.6,7.33,5.31-.78.56-1.85,1.12-2.19,1s.45-.61-.34-.31a4.12,4.12,0,0,1-3.13,0c-1.2-.5-1.14-.63-.78-.69s-.69-.17-1.82-.23a4.06,4.06,0,0,1-2.53-1.3c-.74-.63.24-.38-.42-.62a8.46,8.46,0,0,1-1.33-.51c-.49-.26-.09-.75.43-1.33a8.37,8.37,0,0,0,1.22-1.62A8.36,8.36,0,0,1,8,45.15c.62-.42-.61,0,.28-.73a4.3,4.3,0,0,1,2.71-1c.33.1.13-.13-.21-.44s.82-.33,1.48-.22Z"/><path class="cls-9" d="M23.46,41.58a4.09,4.09,0,0,1,.22,1.84c-.14.37.21-.09.33-.25s.26,0,.2.9a2.07,2.07,0,0,1-.44,1.12c0,.1.48-.38.08.32a1.8,1.8,0,0,1-1.18.94,2.41,2.41,0,0,1-2.79,1.3c-.48-.13.21-.17-.32-.29s-1.82-.86-1.83-1.2.5.06.07-.3a2.74,2.74,0,0,1-1-1.81c-.08-.86,0-.87.17-.67s-.13-.47-.44-1.14a2.65,2.65,0,0,1,0-1.88c.14-.63.3,0,.23-.44a6.08,6.08,0,0,1-.11-.93c0-.37.4-.3.9-.17a5.45,5.45,0,0,0,1.33.21,5.45,5.45,0,0,1,1.91.69c.44.23-.21-.34.52-.06A2.77,2.77,0,0,1,22.67,41c0,.22.12,0,.2-.26S23.31,41.16,23.46,41.58Z"/><path class="cls-24" d="M19.89,47.62h0a1.88,1.88,0,0,0,.55.07,2.22,2.22,0,0,0,2.08-1.29.16.16,0,0,1,.1-.08,1.62,1.62,0,0,0,1.09-.88l.06-.11a.18.18,0,0,1-.16-.11.29.29,0,0,1,.1-.24,1.45,1.45,0,0,0,.33-.92,3,3,0,0,0,0-.73c-.27.36-.35.36-.4.36a.16.16,0,0,1-.12-.06.27.27,0,0,1,0-.26,4.11,4.11,0,0,0-.23-1.75A2.83,2.83,0,0,0,23,40.9c-.07.26-.13.37-.25.37h0c-.13,0-.17-.15-.18-.2a2.75,2.75,0,0,0-1.31-1.19l-.17-.06A.21.21,0,0,1,21,40a.17.17,0,0,1-.12.06.43.43,0,0,1-.21-.08,5.4,5.4,0,0,0-1.86-.67,6.06,6.06,0,0,1-1.35-.21c-.29-.07-.65-.14-.72-.07s0,.06,0,.11a3,3,0,0,0,.05.54c0,.1,0,.22.06.37s0,.22,0,.28a.13.13,0,0,1-.16,0,.59.59,0,0,0-.05.17v0a2.48,2.48,0,0,0,0,1.76c.54,1.17.51,1.24.47,1.3a.16.16,0,0,1-.21,0,3.78,3.78,0,0,0,0,.53,2.53,2.53,0,0,0,1,1.72c.19.16.24.21.21.3a.15.15,0,0,1-.14.1h-.11c0,.24,1.18,1,1.74,1.1.18,0,.28.08.31.18A.12.12,0,0,1,19.89,47.62Z"/><path class="cls-10" d="M22.62,46.19s-.09,0-.09,0c-.87-2.91-2.76-4.77-4.94-6.76,0,0,0,0,.05,0C19.81,41.05,22.19,43.36,22.62,46.19Z"/><path class="cls-21" d="M23.48,41.65a3.84,3.84,0,0,0-3.7-.35c-2.28,1.15-2,4.05-.81,5.93-.57-.28-1.23-.73-1.24-1s.5.06.07-.3a2.74,2.74,0,0,1-1-1.81c-.08-.86,0-.87.17-.67s-.13-.47-.44-1.14a2.65,2.65,0,0,1,0-1.88c.14-.63.3,0,.23-.44a6.08,6.08,0,0,1-.11-.93c0-.37.4-.3.9-.17a5.45,5.45,0,0,0,1.33.21,5.45,5.45,0,0,1,1.91.69c.44.23-.21-.34.52-.06A2.77,2.77,0,0,1,22.67,41c0,.22.12,0,.2-.26s.44.38.59.8A.64.64,0,0,1,23.48,41.65Z"/><path class="cls-22" d="M13.47,52.72a6.35,6.35,0,0,1,1.38-2.44c.51-.32-.33-.09-.62,0S14,50,14.79,49s1.48-.82,1.53-1-.91,0,.2-.46a2.73,2.73,0,0,1,2.28-.09,3.65,3.65,0,0,1,4.55.92c.48.59-.4,0,.14.63s1.44,2.69,1.15,3.12-.55-.53-.36.3a4.12,4.12,0,0,1-.4,3.1c-.68,1.11-.79,1-.8.67s-.27.66-.49,1.77A4.07,4.07,0,0,1,21,60.32c-.74.64-.35-.3-.68.32a8.43,8.43,0,0,1-.7,1.24c-.33.45-.76,0-1.25-.61a8.09,8.09,0,0,0-1.43-1.44,8.53,8.53,0,0,1-1.71-2.55c-.33-.68,0,.6-.68-.39A4.23,4.23,0,0,1,14,54.08c.14-.32-.12-.16-.47.14S13.28,53.36,13.47,52.72Z"/><path class="cls-23" d="M18.63,47.86s.12,0,.1.09c-1.56,4.32-.92,8.28-.06,12.66,0,0-.06,0-.07,0C17.43,56.63,16.61,51.68,18.63,47.86Z"/><path class="cls-21" d="M13.51,52.6a5.81,5.81,0,0,0,4.18,3.75c3.83.64,6.12-3.1,6.32-6.49.44.86.84,2,.63,2.3s-.55-.53-.36.3a4.12,4.12,0,0,1-.4,3.1c-.68,1.11-.79,1-.8.67s-.27.66-.49,1.77A4.07,4.07,0,0,1,21,60.32c-.74.64-.35-.3-.68.32a8.43,8.43,0,0,1-.7,1.24c-.33.45-.76,0-1.25-.61a8.09,8.09,0,0,0-1.43-1.44,8.53,8.53,0,0,1-1.71-2.55c-.33-.68,0,.6-.68-.39A4.23,4.23,0,0,1,14,54.08c.14-.32-.12-.16-.47.14s-.2-.86,0-1.5Z"/><path class="cls-19" d="M45.85,46.09a4.93,4.93,0,0,0-2.08.81c-.32.36,0-.28.07-.49s-.2-.24-1.06.3-.82,1.07-.94,1.09.12-.71-.39.1a2.17,2.17,0,0,0-.33,1.79,2.88,2.88,0,0,0,.2,3.68c.41.45.06-.31.49.19s1.94,1.44,2.31,1.26-.35-.49.28-.25a3.23,3.23,0,0,0,2.48,0c.95-.4.91-.51.63-.56s.55-.13,1.44-.18a3.21,3.21,0,0,0,2-1c.58-.5-.2-.3.33-.49a6.54,6.54,0,0,0,1.06-.41c.38-.21.07-.59-.34-1a6.22,6.22,0,0,1-1-1.29A6.85,6.85,0,0,0,49.23,48c-.49-.34.49,0-.22-.58a3.45,3.45,0,0,0-2.15-.76c-.27.08-.11-.1.16-.35S46.37,46,45.85,46.09Z"/><path class="cls-20" d="M41.4,50.27s0,.1.07.09c3.57-.73,6.62.22,10,1.4,0,0,0,0,0,0C48.45,50.33,44.65,49.12,41.4,50.27Z"/><path class="cls-9" d="M36.93,45.79a3.27,3.27,0,0,0-.18,1.46c.11.3-.17-.06-.26-.19s-.2,0-.16.71a1.65,1.65,0,0,0,.35.89c0,.08-.38-.3-.07.26a1.43,1.43,0,0,0,.94.75,1.93,1.93,0,0,0,2.22,1c.39-.1-.16-.14.26-.23s1.44-.68,1.45-1-.39.05,0-.24a2.16,2.16,0,0,0,.79-1.43c.06-.69,0-.69-.13-.54s.09-.37.35-.9a2.15,2.15,0,0,0,0-1.5c-.11-.5-.23,0-.18-.35a4.48,4.48,0,0,0,.09-.74c0-.29-.33-.23-.72-.13a4.36,4.36,0,0,1-1.06.16,4.45,4.45,0,0,0-1.52.55c-.35.19.17-.27-.4,0a2.26,2.26,0,0,0-1.12,1c0,.18-.09,0-.15-.2S37,45.46,36.93,45.79Z"/><path class="cls-10" d="M37.6,49.46s.06,0,.07,0c.68-2.31,2.19-3.79,3.92-5.38,0,0,0,0,0,0C39.83,45.37,37.93,47.21,37.6,49.46Z"/><path class="cls-21" d="M36.91,45.85a3,3,0,0,1,2.94-.28c1.82.92,1.62,3.22.65,4.72.45-.23,1-.58,1-.78s-.39.05,0-.24a2.16,2.16,0,0,0,.79-1.43c.06-.69,0-.69-.13-.54s.09-.37.35-.9a2.15,2.15,0,0,0,0-1.5c-.11-.5-.23,0-.18-.35a4.48,4.48,0,0,0,.09-.74c0-.29-.33-.23-.72-.13a4.36,4.36,0,0,1-1.06.16,4.45,4.45,0,0,0-1.52.55c-.35.19.17-.27-.4,0a2.26,2.26,0,0,0-1.12,1c0,.18-.09,0-.15-.2s-.36.3-.47.63C36.92,45.81,36.92,45.83,36.91,45.85Z"/><path class="cls-22" d="M44.87,54.65a5,5,0,0,0-1.1-1.94c-.4-.26.27-.07.5,0s.2-.23-.45-1-1.17-.66-1.22-.78.73,0-.15-.37a2.18,2.18,0,0,0-1.82-.07,2.91,2.91,0,0,0-3.62.73c-.38.47.32,0-.11.51s-1.14,2.13-.91,2.48.43-.42.29.23a3.22,3.22,0,0,0,.31,2.46c.54.89.63.83.64.54s.21.53.39,1.41a3.2,3.2,0,0,0,1.31,1.84c.58.51.27-.23.53.26a7.76,7.76,0,0,0,.56,1c.26.35.6,0,1-.49a6.47,6.47,0,0,1,1.14-1.14,6.89,6.89,0,0,0,1.36-2c.26-.54,0,.47.55-.31a3.43,3.43,0,0,0,.43-2.24c-.11-.25.09-.12.38.11S45,55.16,44.87,54.65Z"/><path class="cls-24" d="M40.25,62.21a.42.42,0,0,1-.34-.19,3.76,3.76,0,0,1-.36-.62c0-.1-.11-.23-.2-.39v0c-.11.06-.27,0-.5-.2l0,0a3.28,3.28,0,0,1-1.31-1.88c-.1-.48-.19-.88-.25-1.13l-.08,0c-.13,0-.28-.13-.68-.8a3.34,3.34,0,0,1-.34-2.54.28.28,0,0,1-.26-.15c-.3-.44.53-2.19.92-2.64l.06-.06a.18.18,0,0,1-.08-.09c-.05-.1,0-.21.13-.35A3.21,3.21,0,0,1,39.29,50a2.77,2.77,0,0,1,1.35.35,1.83,1.83,0,0,1,.78-.15,2.68,2.68,0,0,1,1.08.24c.41.18.52.27.5.4a.15.15,0,0,1,0,.09,2.13,2.13,0,0,1,1,.69c.72.85.62,1.06.59,1.13a.2.2,0,0,1-.28.09l-.18-.05A6.25,6.25,0,0,1,45,54.62c.07.2.29,1.07.11,1.31A.19.19,0,0,1,45,56h0a.29.29,0,0,1-.16-.06l-.13-.11a3.7,3.7,0,0,1-.48,2.2c-.18.27-.29.37-.41.37a.2.2,0,0,1-.14-.06,7.19,7.19,0,0,1-1.38,2.06,5.68,5.68,0,0,0-1.12,1.13C40.8,61.92,40.53,62.21,40.25,62.21Z"/><path class="cls-23" d="M40.77,50.78s-.1,0-.09.08c1.24,3.43.74,6.58,0,10.06,0,0,.05,0,.06,0C41.72,57.76,42.38,53.83,40.77,50.78Z"/><path class="cls-21" d="M44.83,54.56a4.61,4.61,0,0,1-3.32,3c-3,.51-4.86-2.47-5-5.16-.35.68-.67,1.58-.5,1.83s.43-.42.29.23a3.22,3.22,0,0,0,.31,2.46c.54.89.63.83.64.54s.21.53.39,1.41a3.2,3.2,0,0,0,1.31,1.84c.58.51.27-.23.53.26a7.76,7.76,0,0,0,.56,1c.26.35.6,0,1-.49a6.47,6.47,0,0,1,1.14-1.14,6.89,6.89,0,0,0,1.36-2c.26-.54,0,.47.55-.31a3.43,3.43,0,0,0,.43-2.24c-.11-.25.09-.12.38.11s.15-.68,0-1.19A.36.36,0,0,0,44.83,54.56Z"/><path class="cls-11" d="M23.82,28a4.84,4.84,0,0,0,6.12,3,4.83,4.83,0,0,0,3.44-5.91,4.82,4.82,0,0,0-6.12-3A4.84,4.84,0,0,0,23.82,28Z"/><path class="cls-12" d="M28.42,31.36A4.84,4.84,0,0,1,23.69,28a4.59,4.59,0,0,1,.47-3.68,5.22,5.22,0,0,1,3.06-2.39,5.56,5.56,0,0,1,1.56-.23,4.84,4.84,0,0,1,4.73,3.35A5,5,0,0,1,30,31.13,5.56,5.56,0,0,1,28.42,31.36Zm.36-9.4a5.3,5.3,0,0,0-1.48.22,5,5,0,0,0-2.91,2.27A4.36,4.36,0,0,0,24,27.93a4.57,4.57,0,0,0,4.47,3.17,5.09,5.09,0,0,0,1.49-.23,4.72,4.72,0,0,0,3.35-5.74A4.58,4.58,0,0,0,28.78,22Z"/><path class="cls-13" d="M25.11,23.32a2.29,2.29,0,0,0,1.68.1c.15-.06.88-.38.65-.63a.66.66,0,0,0-.34-.12,1.86,1.86,0,0,1-.74-.25,5.34,5.34,0,0,1,2.79-.57.28.28,0,0,0,0,.25.52.52,0,0,0,.5.25,2.66,2.66,0,0,0,.79-.25,4.67,4.67,0,0,1,1.66,1,5.26,5.26,0,0,0-1.77-.18c-.06,0,0,.08,0,.09A2.27,2.27,0,0,1,31,25.15a2,2,0,0,1-.87,1.6c.19-1.19.32-3.86-1.4-3.71-.7.07-1.17.76-1.86.89a5.66,5.66,0,0,1-2.17,0,.4.4,0,0,1-.15,0A5.67,5.67,0,0,1,25.11,23.32Z"/><path class="cls-14" d="M28.61,22.31a7.16,7.16,0,0,1-3.26-1.66c-.16,1.19,2.22,2.3,3,2C28.86,22.54,28.78,22.35,28.61,22.31Z"/><path class="cls-14" d="M28.78,22.59s2,.86,1.44,3.84C31.11,26,31.3,22.76,28.78,22.59Z"/><path class="cls-14" d="M29.1,22.63c-.06,0,4.08,1,3.84-1.82C32.12,21.67,31.93,22.13,29.1,22.63Z"/><path class="cls-14" d="M28.5,22.59a3.62,3.62,0,0,1-4,.31C24.3,23.8,26.7,24.45,28.5,22.59Z"/><path class="cls-14" d="M29.58,18.58l0,0Z"/><path class="cls-16" d="M28.52,19.1a1.47,1.47,0,0,1,1.06-.89c.34-.09.09.26,0,.35l0,0C29.22,19.07,28.52,19.49,28.52,19.1Z"/><path class="cls-15" d="M28.66,19.38a.26.26,0,0,1-.27-.28,1.58,1.58,0,0,1,1.16-1c.21,0,.3.05.32.09s.07.16-.17.47A1.77,1.77,0,0,1,28.66,19.38Zm.93-1a1.35,1.35,0,0,0-.94.79h0a1.59,1.59,0,0,0,.81-.62A1.1,1.1,0,0,0,29.59,18.34Z"/><path class="cls-14" d="M28.43,21.93a13.51,13.51,0,0,1,.09-2.83c0,.39.7,0,1.06-.52A5.23,5.23,0,0,0,29,22.45C29.09,22.67,28.52,22.8,28.43,21.93Z"/><path class="cls-17" d="M24.23,25.33a1.43,1.43,0,0,1,.33-.74c.07-.11.33.12.27.22s-.19.47-.28.71S24.22,25.44,24.23,25.33Z"/><path class="cls-17" d="M24.15,25.89c.05-.15.3.09.28.2a4.65,4.65,0,0,0,1.76,4c.2.16.08.15-.18,0C24.73,29.27,23.63,27.44,24.15,25.89Z"/><path class="cls-11" d="M24.48,58.12a4.83,4.83,0,0,0,5.05,4.6,4.68,4.68,0,1,0-.13-9.34A4.82,4.82,0,0,0,24.48,58.12Z"/><path class="cls-12" d="M29.45,62.85a5,5,0,0,1-5.11-4.73A4.64,4.64,0,0,1,25.8,54.7a5.28,5.28,0,0,1,3.6-1.46h.07a4.81,4.81,0,1,1,.06,9.61Zm0-9.34H29.4A5,5,0,0,0,26,54.89a4.35,4.35,0,0,0-1.37,3.22,4.71,4.71,0,0,0,4.84,4.47h.08a4.54,4.54,0,1,0-.06-9.07Z"/><path class="cls-13" d="M27,54a2.24,2.24,0,0,0,1.59.56c.16,0,1-.13.8-.42a.63.63,0,0,0-.3-.21,2.11,2.11,0,0,1-.64-.45,5,5,0,0,1,1-.1,5.27,5.27,0,0,1,1.88.32.25.25,0,0,0-.09.23.52.52,0,0,0,.41.38,2.6,2.6,0,0,0,.83,0,4.72,4.72,0,0,1,1.33,1.38A5.09,5.09,0,0,0,32.12,55c-.06,0,0,.08,0,.1a2.26,2.26,0,0,1,.06,2.28,2,2,0,0,1-1.28,1.3c.51-1.09,1.37-3.63-.32-3.95-.7-.13-1.34.41-2,.34a5.5,5.5,0,0,1-2.09-.59l-.13-.07A4.59,4.59,0,0,1,27,54Z"/><path class="cls-14" d="M30.63,54A7.14,7.14,0,0,1,28,51.5c-.49,1.1,1.5,2.83,2.36,2.77C30.8,54.29,30.78,54.08,30.63,54Z"/><path class="cls-14" d="M30.72,54.31s1.67,1.37.33,4.09C32,58.24,33.1,55.16,30.72,54.31Z"/><path class="cls-14" d="M31,54.43c-.07,0,3.64,2.1,4.19-.69C34.18,54.35,33.87,54.73,31,54.43Z"/><path class="cls-14" d="M30.45,54.23a3.61,3.61,0,0,1-4-.81C26.08,54.24,28.21,55.53,30.45,54.23Z"/><path class="cls-15" d="M26.58,53.7a.44.44,0,0,0,.08.2,2.19,2.19,0,0,0,1.83.75h.31A3.35,3.35,0,0,1,26.58,53.7Z"/><path class="cls-14" d="M31.27,51.23a15.19,15.19,0,0,0-.71,2.34c-.15.87.44.9.44.67a5,5,0,0,1,.9-2.74A1.39,1.39,0,0,0,31.27,51.23Z"/><path class="cls-17" d="M25.59,55.69a1.56,1.56,0,0,1,.52-.62c.1-.08.28.21.2.29s-.31.4-.46.6S25.55,55.79,25.59,55.69Z"/><path class="cls-17" d="M25.36,56.21c.09-.13.26.17.22.27a4.63,4.63,0,0,0,.58,4.35c.14.22,0,.17-.16-.06C25,59.62,24.44,57.56,25.36,56.21Z"/><path class="cls-11" d="M36.2,39.11a5,5,0,1,0,4.92-4.73A4.84,4.84,0,0,0,36.2,39.11Z"/><path class="cls-12" d="M41.17,43.85a5,5,0,0,1-5.11-4.74,4.63,4.63,0,0,1,1.46-3.42,5.31,5.31,0,0,1,3.6-1.45h.08a4.81,4.81,0,1,1,0,9.61Zm0-9.34h-.08a5,5,0,0,0-3.42,1.38,4.35,4.35,0,0,0-1.37,3.22,4.71,4.71,0,0,0,4.84,4.47h.08a4.54,4.54,0,1,0,0-9.07Z"/><path class="cls-13" d="M38.71,35a2.33,2.33,0,0,0,1.59.56c.16,0,1-.13.8-.43a.71.71,0,0,0-.3-.21,1.92,1.92,0,0,1-.64-.44,5,5,0,0,1,1-.1,5.3,5.3,0,0,1,1.88.31.27.27,0,0,0-.09.24.48.48,0,0,0,.41.37,2.32,2.32,0,0,0,.83,0,4.81,4.81,0,0,1,1.33,1.37A5.21,5.21,0,0,0,43.84,36c-.06,0,0,.08,0,.1a2.26,2.26,0,0,1,.06,2.28,2,2,0,0,1-1.28,1.29c.51-1.09,1.37-3.62-.32-3.94-.7-.13-1.34.41-2,.34a5.36,5.36,0,0,1-2.08-.59l-.14-.07A4.59,4.59,0,0,1,38.71,35Z"/><path class="cls-14" d="M42.35,35a7.17,7.17,0,0,1-2.67-2.49c-.49,1.1,1.49,2.83,2.36,2.77C42.52,35.29,42.5,35.08,42.35,35Z"/><path class="cls-15" d="M42,35.4a3.4,3.4,0,0,1-2.19-1.54,1.49,1.49,0,0,1-.25-1.42.15.15,0,0,1,.11-.08.12.12,0,0,1,.12.07,7,7,0,0,0,2.62,2.44.28.28,0,0,1,.16.31c0,.1-.13.22-.48.22H42Zm-2.26-2.57a1.56,1.56,0,0,0,.3.89,3.17,3.17,0,0,0,2,1.42h.09a.58.58,0,0,0,.2,0h0A7.2,7.2,0,0,1,39.74,32.83Z"/><path class="cls-14" d="M42.44,35.31s1.66,1.37.33,4.09C43.74,39.24,44.82,36.16,42.44,35.31Z"/><path class="cls-15" d="M42.77,39.53a.16.16,0,0,1-.11-.05.14.14,0,0,1,0-.14c1.27-2.59-.23-3.88-.29-3.93a.14.14,0,0,1,0-.17.16.16,0,0,1,.17-.06,2.18,2.18,0,0,1,1.5,2.4c-.08,1-.63,1.85-1.2,2Zm.16-3.82a3.51,3.51,0,0,1,.12,3.4,2.49,2.49,0,0,0,.68-1.55A2,2,0,0,0,42.93,35.71Z"/><path class="cls-14" d="M42.74,35.43c-.07,0,3.63,2.1,4.19-.69C45.9,35.34,45.59,35.73,42.74,35.43Z"/><path class="cls-15" d="M45.2,36.32a4.46,4.46,0,0,1-2.6-.89.14.14,0,0,1,0-.1.17.17,0,0,1,.1,0,15.78,15.78,0,0,0,1.64.1,3.45,3.45,0,0,0,2.21-.62l.26-.16a.14.14,0,0,1,.14,0,.13.13,0,0,1,.06.14A1.76,1.76,0,0,1,45.2,36.32Zm-1.78-.69a4.85,4.85,0,0,0,1.78.43,1.45,1.45,0,0,0,1.52-1,3.66,3.66,0,0,1-2.33.65C44.1,35.67,43.78,35.65,43.42,35.63Z"/><path class="cls-14" d="M42.17,35.23a3.61,3.61,0,0,1-4-.81C37.8,35.24,39.92,36.52,42.17,35.23Z"/><path class="cls-15" d="M40.2,35.91h0A2.43,2.43,0,0,1,38.15,35a.7.7,0,0,1-.06-.68.16.16,0,0,1,.1-.08.13.13,0,0,1,.12,0,3.06,3.06,0,0,0,2.37,1,3.77,3.77,0,0,0,1.43-.27.13.13,0,0,1,.17.07.13.13,0,0,1-.05.17A4,4,0,0,1,40.2,35.91ZM38.3,34.7a.5.5,0,0,0,.08.2,2.18,2.18,0,0,0,1.82.75h0l.32,0A3.29,3.29,0,0,1,38.3,34.7Z"/><path class="cls-14" d="M44.31,31.67h0Z"/><path class="cls-16" d="M43.15,31.88a1.49,1.49,0,0,1,1.26-.57c.35,0,0,.28-.08.35h0C43.83,32,43.05,32.25,43.15,31.88Z"/><path class="cls-15" d="M43.34,32.21a.35.35,0,0,1-.28-.11.27.27,0,0,1,0-.26,1.51,1.51,0,0,1,1.32-.66h.07c.15,0,.24.06.27.16s0,.2-.28.43A2.16,2.16,0,0,1,43.34,32.21Zm1-.77a1.32,1.32,0,0,0-1.08.5h.07a1.81,1.81,0,0,0,.89-.37l.15-.12Z"/><path class="cls-14" d="M42.28,34.57a13.49,13.49,0,0,1,.87-2.69c-.1.37.68.16,1.16-.21a5.24,5.24,0,0,0-1.6,3.57C42.72,35.47,42.13,35.44,42.28,34.57Z"/><path class="cls-15" d="M42.57,35.5a.41.41,0,0,1-.3-.16.92.92,0,0,1-.12-.79A12.81,12.81,0,0,1,43,31.82a.12.12,0,0,1,.16-.06.12.12,0,0,1,.08.16s0,0,.06,0a1.81,1.81,0,0,0,.89-.37.14.14,0,0,1,.18,0,.14.14,0,0,1,0,.19,5.08,5.08,0,0,0-1.55,3.46.26.26,0,0,1-.07.17A.27.27,0,0,1,42.57,35.5Zm.59-3.33a14.38,14.38,0,0,0-.75,2.42c-.06.38,0,.53.07.58s.1.06.11.06a5.3,5.3,0,0,1,1.12-3.09A.82.82,0,0,1,43.16,32.17Z"/><path class="cls-17" d="M37.31,36.69a1.44,1.44,0,0,1,.52-.62c.1-.08.28.21.2.29s-.31.4-.46.6S37.27,36.79,37.31,36.69Z"/><path class="cls-17" d="M37.08,37.21c.09-.13.26.17.22.27a4.63,4.63,0,0,0,.58,4.35c.14.22,0,.17-.17-.06C36.71,40.61,36.16,38.56,37.08,37.21Z"/><path class="cls-11" d="M65.47,28.08a5,5,0,0,1-10-.14,5,5,0,0,1,10,.14Z"/><path class="cls-12" d="M60.49,32.81h-.07a5,5,0,0,1-5.06-4.87,5,5,0,0,1,5.11-4.73h.08a5.22,5.22,0,0,1,3.6,1.45,4.64,4.64,0,0,1,1.46,3.42A5,5,0,0,1,60.49,32.81Zm0-9.34A4.74,4.74,0,0,0,55.62,28a4.72,4.72,0,0,0,4.8,4.6h.07a4.72,4.72,0,0,0,4.85-4.47A4.33,4.33,0,0,0,64,24.85a5,5,0,0,0-3.41-1.38Z"/><path class="cls-13" d="M63,24a2.24,2.24,0,0,1-1.59.56c-.16,0-1-.12-.8-.42a.63.63,0,0,1,.3-.21,2.06,2.06,0,0,0,.64-.45,5,5,0,0,0-1-.1,5.27,5.27,0,0,0-1.88.32.26.26,0,0,1,.09.24.52.52,0,0,1-.41.37,2.6,2.6,0,0,1-.83,0,4.72,4.72,0,0,0-1.33,1.38A5,5,0,0,1,57.83,25c.06,0,0,.08,0,.1a2.26,2.26,0,0,0-.06,2.28A2,2,0,0,0,59,28.65c-.5-1.09-1.37-3.63.33-3.95.7-.13,1.34.41,2,.34a5.5,5.5,0,0,0,2.09-.59l.13-.07A7.39,7.39,0,0,0,63,24Z"/><path class="cls-14" d="M59.32,24A7.14,7.14,0,0,0,62,21.46c.49,1.1-1.5,2.83-2.36,2.77C59.14,24.25,59.17,24,59.32,24Z"/><path class="cls-15" d="M59.67,24.37h-.09c-.35,0-.46-.13-.48-.23a.27.27,0,0,1,.15-.3,7,7,0,0,0,2.62-2.45.14.14,0,0,1,.13-.06.13.13,0,0,1,.11.08,1.46,1.46,0,0,1-.26,1.41A3.35,3.35,0,0,1,59.67,24.37Zm-.05-.27h.05a3.17,3.17,0,0,0,2-1.42,1.54,1.54,0,0,0,.3-.89,7.28,7.28,0,0,1-2.56,2.29.84.84,0,0,0,.21,0Z"/><path class="cls-14" d="M59.23,24.27s-1.67,1.37-.33,4.09C57.93,28.2,56.85,25.13,59.23,24.27Z"/><path class="cls-15" d="M58.9,28.49h0c-.57-.09-1.12-1-1.21-1.94a2.19,2.19,0,0,1,1.51-2.4.12.12,0,0,1,.16.06.12.12,0,0,1,0,.16c-.06.06-1.55,1.34-.31,3.9a.13.13,0,0,1,0,.09.13.13,0,0,1-.14.13Zm-.17-3.82a2,2,0,0,0-.79,1.85,2.41,2.41,0,0,0,.68,1.55A3.55,3.55,0,0,1,58.73,24.67Z"/><path class="cls-14" d="M58.93,24.39c.07,0-3.64,2.1-4.19-.69C55.77,24.31,56.08,24.69,58.93,24.39Z"/><path class="cls-15" d="M56.47,25.28a1.74,1.74,0,0,1-1.86-1.55.12.12,0,0,1,0-.13.12.12,0,0,1,.15,0l.26.15a3.39,3.39,0,0,0,2.21.63h0a16.18,16.18,0,0,0,1.64-.11.16.16,0,0,1,.12.06.12.12,0,0,1,0,.14A5.36,5.36,0,0,1,56.47,25.28ZM55,24a1.46,1.46,0,0,0,1.52,1,4.9,4.9,0,0,0,1.78-.43c-.37,0-.68,0-1,0h0A3.73,3.73,0,0,1,55,24Z"/><path class="cls-14" d="M59.5,24.19a3.61,3.61,0,0,0,4-.81C63.87,24.21,61.74,25.49,59.5,24.19Z"/><path class="cls-15" d="M61.47,24.88a4,4,0,0,1-2-.58.13.13,0,1,1,.11-.23,4.31,4.31,0,0,0,1.44.26,3.06,3.06,0,0,0,2.37-1,.13.13,0,0,1,.12,0,.12.12,0,0,1,.1.07.7.7,0,0,1-.06.68A2.41,2.41,0,0,1,61.47,24.88Zm-.32-.28h.32a2.18,2.18,0,0,0,1.82-.75.52.52,0,0,0,.08-.2A3.35,3.35,0,0,1,61.15,24.6Z"/><path class="cls-14" d="M57.36,20.64l0,0Z"/><path class="cls-16" d="M58.52,20.84a1.46,1.46,0,0,0-1.26-.56c-.36,0,0,.28.08.34l0,0C57.84,21,58.62,21.22,58.52,20.84Z"/><path class="cls-15" d="M58.33,21.17h0a2,2,0,0,1-1-.43c-.32-.23-.33-.36-.3-.44s.11-.15.27-.16h.06a1.54,1.54,0,0,1,1.32.64.3.3,0,0,1,0,.28A.32.32,0,0,1,58.33,21.17Zm-1-.76.12.11,0,0a1.81,1.81,0,0,0,.88.37h0a.1.1,0,0,0,.07,0,1.34,1.34,0,0,0-1.09-.48Z"/><path class="cls-14" d="M59.38,23.53a13.14,13.14,0,0,0-.86-2.69c.1.38-.68.17-1.16-.2A5.21,5.21,0,0,1,59,24.2C59,24.43,59.54,24.4,59.38,23.53Z"/><path class="cls-15" d="M59.09,24.46h0a.28.28,0,0,1-.2-.08.29.29,0,0,1-.07-.18,5.08,5.08,0,0,0-1.55-3.46.14.14,0,1,1,.17-.21,1.81,1.81,0,0,0,.89.38.1.1,0,0,0,.07,0,.13.13,0,0,1,.07-.16.12.12,0,0,1,.16.05,13.62,13.62,0,0,1,.89,2.73,1,1,0,0,1-.13.8A.42.42,0,0,1,59.09,24.46ZM58,21.1a5.41,5.41,0,0,1,1.13,3.1h0a.13.13,0,0,0,.1-.05.71.71,0,0,0,.06-.58,13.28,13.28,0,0,0-.74-2.42A.84.84,0,0,1,58,21.1Z"/><path class="cls-17" d="M64.36,25.65a1.56,1.56,0,0,0-.52-.62c-.1-.08-.28.21-.2.29a7,7,0,0,1,.46.61C64.2,26.06,64.4,25.76,64.36,25.65Z"/><path class="cls-17" d="M64.59,26.17c-.09-.13-.26.17-.22.27a4.66,4.66,0,0,1-.58,4.36c-.14.21,0,.16.16-.06C65,29.58,65.51,27.52,64.59,26.17Z"/><path class="cls-19" d="M50,13a7,7,0,0,0-2.09,2.32c-.17.66-.22-.32-.22-.66s-.4-.17-1.14,1.05a3.64,3.64,0,0,0-.49,2c-.14.11-.29-1-.42.37a3,3,0,0,0,.72,2.45,4.06,4.06,0,0,0,2.57,4.48c.79.3-.12-.43.73-.08s3.34.58,3.69.11-.75-.38.19-.48A4.56,4.56,0,0,0,56.65,23c.94-1.11.83-1.21.43-1.09s.61-.51,1.7-1.14a4.53,4.53,0,0,0,1.87-2.55c.41-1-.43-.27.1-.83a10.67,10.67,0,0,0,1.07-1.18c.35-.51-.28-.8-1.09-1.11a8.87,8.87,0,0,1-2-1,9.66,9.66,0,0,0-3.3-.91c-.84-.1.62-.26-.65-.58a4.76,4.76,0,0,0-3.17.42c-.28.26-.2-.07,0-.55S50.58,12.53,50,13Z"/><path class="cls-20" d="M46.66,20.13c0,.05.1.11.14.08,4-3.17,8.42-3.9,13.35-4.54.06,0,0-.06-.06-.06C55.51,15.77,50,16.64,46.66,20.13Z"/><path class="cls-21" d="M49.87,13a6.49,6.49,0,0,1,5.43,3.1c2,3.82-1.11,7.56-4.62,9,1.06.17,2.4.18,2.65-.15s-.75-.38.19-.48A4.56,4.56,0,0,0,56.65,23c.94-1.11.83-1.21.43-1.09s.61-.51,1.7-1.14a4.53,4.53,0,0,0,1.87-2.55c.41-1-.43-.27.1-.83a10.67,10.67,0,0,0,1.07-1.18c.35-.51-.28-.8-1.09-1.11a8.87,8.87,0,0,1-2-1,9.66,9.66,0,0,0-3.3-.91c-.84-.1.62-.26-.65-.58a4.76,4.76,0,0,0-3.17.42c-.28.26-.2-.07,0-.55s-1,.09-1.58.52Z"/><path class="cls-25" d="M38.23,17.36a4.56,4.56,0,0,0,.7,1.94c.33.3-.25,0-.45-.08s-.23.18.25,1,1,.78,1,.9-.66-.13.08.36a2,2,0,0,0,1.65.35,2.69,2.69,0,0,0,3.42-.11c.43-.37-.28-.07.19-.45s1.37-1.77,1.21-2.12-.46.32-.22-.26a3.05,3.05,0,0,0,.08-2.31c-.35-.89-.44-.85-.5-.58s-.11-.52-.14-1.35a3,3,0,0,0-.91-1.89c-.45-.55-.28.17-.45-.32a6.07,6.07,0,0,0-.35-1c-.19-.37-.55-.09-1,.29a6.79,6.79,0,0,1-1.22.87A6.53,6.53,0,0,0,40,14.25c-.32.46,0-.44-.54.2a3.14,3.14,0,0,0-.75,2c.07.25-.1.1-.32-.16S38.16,16.87,38.23,17.36Z"/><path class="cls-26" d="M43.05,22.52A2.63,2.63,0,0,1,41.43,22a1.49,1.49,0,0,1-.38,0,2.33,2.33,0,0,1-1.31-.42c-.35-.23-.44-.33-.4-.45a.16.16,0,0,1,0-.07,2,2,0,0,1-.76-.78c-.51-.87-.41-1.06-.37-1.11a.19.19,0,0,1,.29-.06l.12.06a6.26,6.26,0,0,1-.56-1.79,2.43,2.43,0,0,1,.09-1.22.21.21,0,0,1,.33,0l.08.1a3.57,3.57,0,0,1,.79-1.92c.18-.2.3-.28.4-.28a.18.18,0,0,1,.15.07,6.75,6.75,0,0,1,1.58-1.66,6.11,6.11,0,0,0,1.2-.85,1.6,1.6,0,0,1,.83-.5.37.37,0,0,1,.35.24,3.73,3.73,0,0,1,.25.63,3.17,3.17,0,0,0,.12.38v0c.11,0,.25,0,.43.26l0,0a3.06,3.06,0,0,1,.91,1.93c0,.44,0,.81.06,1h0c.14,0,.25.12.54.84a3.11,3.11,0,0,1-.08,2.37.29.29,0,0,1,.21.18c.21.46-.81,1.92-1.25,2.28a.23.23,0,0,0,0,.05.19.19,0,0,1,0,.09c0,.1,0,.19-.18.31A3.05,3.05,0,0,1,43.05,22.52Zm-1.56-.85.06,0a2.33,2.33,0,0,0,1.5.55,2.79,2.79,0,0,0,1.75-.65l0,0a.17.17,0,0,1-.06-.1c0-.11.06-.2.21-.32.5-.41,1.29-1.73,1.18-2,0,0,0,0,0,0s0,0,0,.05a.19.19,0,0,1-.12.05H45.9l0-.06c0-.08,0-.12.07-.38a2.82,2.82,0,0,0,.09-2.2,4.92,4.92,0,0,0-.25-.57c0,.08-.07.12-.15.12s-.2,0-.25-1.53a2.8,2.8,0,0,0-.85-1.77l0,0a.8.8,0,0,0-.15-.16.15.15,0,0,1-.12.07h0c-.11,0-.15-.11-.2-.27s-.1-.29-.13-.39a2.69,2.69,0,0,0-.22-.59c-.05-.1-.1-.1-.12-.1s-.47.28-.66.44a6.34,6.34,0,0,1-1.24.88,6.49,6.49,0,0,0-1.51,1.61c-.09.12-.15.19-.24.19h0a.17.17,0,0,1-.16-.14l-.16.16a3.09,3.09,0,0,0-.71,1.86.26.26,0,0,1,0,.23l0,.05h-.08c-.08,0-.16,0-.37-.28a4.07,4.07,0,0,0,0,.93A4.5,4.5,0,0,0,39,19.2c.08.07.18.16.13.27l0,.09H39a1.94,1.94,0,0,1-.52-.19,2.73,2.73,0,0,0,.36.77,1.64,1.64,0,0,0,.8.75c.1,0,.19.08.21.19v.06l0,.06a.24.24,0,0,1-.09.06l.14.09a1.84,1.84,0,0,0,1.54.33Z"/><path class="cls-10" d="M41.38,21.53s.1,0,.09-.06c-.6-3.33.34-6.13,1.51-9.21,0,0,0,0-.06,0C41.59,15,40.38,18.5,41.38,21.53Z"/><path class="cls-21" d="M38.24,17.45a4.28,4.28,0,0,1,3.5-2.21c2.86,0,4.07,3,3.8,5.49.43-.57.86-1.34.74-1.59s-.46.32-.22-.26a3.05,3.05,0,0,0,.08-2.31c-.35-.89-.44-.85-.5-.58s-.11-.52-.14-1.35a3,3,0,0,0-.91-1.89c-.45-.55-.28.17-.45-.32a6.07,6.07,0,0,0-.35-1c-.19-.37-.55-.09-1,.29a6.79,6.79,0,0,1-1.22.87A6.53,6.53,0,0,0,40,14.25c-.32.46,0-.44-.54.2a3.14,3.14,0,0,0-.75,2c.07.25-.1.1-.32-.16s-.26.6-.19,1.09C38.23,17.38,38.24,17.42,38.24,17.45Z"/><path class="cls-18" d="M56,24.26c-.65-.69-2.46-2.14-3.31-2.23s.36-.33.79-.39.15-.54-1.53-1.25a4.58,4.58,0,0,0-2.57-.26c-.17-.15,1.17-.55-.55-.47a3.91,3.91,0,0,0-3,1.36,5.21,5.21,0,0,0-5.2,4.09c-.22,1.05.53-.23.24.9s-.11,4.34.54,4.7.35-1,.65.14a5.83,5.83,0,0,0,2.49,3.69c1.58,1,1.68.82,1.46.34s.76.68,1.76,1.94a5.75,5.75,0,0,0,3.58,1.89c1.34.35.25-.59,1.06,0a11.8,11.8,0,0,0,1.69,1.13c.7.36.95-.5,1.2-1.58a11.86,11.86,0,0,1,.89-2.75,12.19,12.19,0,0,0,.54-4.34c0-1.08.45.73.62-.93a6.17,6.17,0,0,0-1.11-3.94c-.38-.31,0-.26.69-.12S56.66,24.94,56,24.26Z"/><path class="cls-27" d="M46.32,21.37c-.06,0-.12.15-.07.19,4.75,4.49,6.49,9.94,8.2,16.06,0,.08.08,0,.07-.08C53.47,31.77,51.34,25,46.32,21.37Z"/><path class="cls-21" d="M55.88,24.13A8.27,8.27,0,0,1,53,31.58c-4.45,3.27-9.77,0-12.19-4.2,0,1.37.2,3.07.67,3.33.65.36.35-1,.65.14a5.83,5.83,0,0,0,2.49,3.69c1.58,1,1.68.82,1.46.34s.76.68,1.76,1.94a5.75,5.75,0,0,0,3.58,1.89c1.34.35.25-.59,1.06,0a11.8,11.8,0,0,0,1.69,1.13c.7.36.95-.5,1.2-1.58a11.86,11.86,0,0,1,.89-2.75,12.19,12.19,0,0,0,.54-4.34c0-1.08.45.73.62-.93a6.17,6.17,0,0,0-1.11-3.94c-.38-.31,0-.26.69-.12s-.3-1.22-1-1.9Z"/><path class="cls-19" d="M30.72,7.13a6.37,6.37,0,0,0,0,2.85c.3.55-.34-.08-.54-.31s-.38.13-.13,1.4a3.18,3.18,0,0,0,.88,1.63c0,.16-.8-.47-.06.51a2.79,2.79,0,0,0,2,1.21,3.72,3.72,0,0,0,4.49,1.44c.72-.29-.34-.22.44-.5s2.61-1.67,2.56-2.2-.74.2-.17-.44a4.18,4.18,0,0,0,1.18-3c0-1.33-.19-1.32-.38-1s.09-.72.44-1.82a4.14,4.14,0,0,0-.31-2.87c-.34-.93-.46.09-.44-.62a9.82,9.82,0,0,0,0-1.45c-.07-.56-.68-.36-1.41-.07a8.61,8.61,0,0,1-2,.57,8.8,8.8,0,0,0-2.78,1.42c-.62.44.25-.56-.8,0a4.35,4.35,0,0,0-1.88,2.24c0,.34-.18.08-.35-.36S30.86,6.47,30.72,7.13Z"/><path class="cls-20" d="M32.9,14c0,.06.13,0,.13,0,.75-4.61,3.28-7.82,6.21-11.28,0,0-.06,0-.08,0C36.17,5.62,33,9.61,32.9,14Z"/><path class="cls-21" d="M30.7,7.26A5.89,5.89,0,0,1,36.27,6c3.71,1.32,3.9,5.78,2.4,8.89.81-.54,1.73-1.36,1.69-1.73,0-.53-.74.2-.17-.44a4.18,4.18,0,0,0,1.18-3c0-1.33-.19-1.32-.38-1s.09-.72.44-1.82a4.14,4.14,0,0,0-.31-2.87c-.34-.93-.46.09-.44-.62a9.82,9.82,0,0,0,0-1.45c-.07-.56-.68-.36-1.41-.07a8.61,8.61,0,0,1-2,.57,8.8,8.8,0,0,0-2.78,1.42c-.62.44.25-.56-.8,0a4.35,4.35,0,0,0-1.88,2.24c0,.34-.18.08-.35-.36s-.6.66-.74,1.32C30.71,7.17,30.71,7.22,30.7,7.26Z"/><path class="cls-22" d="M41.73,11c-.86,0-3,.07-3.6.54s0-.44.29-.75-.23-.45-1.8.1-1.69,1.41-1.9,1.41.46-1.1-.65,0A3.53,3.53,0,0,0,32.9,15.1a4.74,4.74,0,0,0-1,6c.5.86.22-.48.72.47s2.59,3,3.25,2.83-.39-.9.53-.3a5.29,5.29,0,0,0,4,.95c1.66-.31,1.63-.48,1.19-.67s.93,0,2.37.22a5.2,5.2,0,0,0,3.58-.92c1.12-.59-.19-.55.71-.67A10.26,10.26,0,0,0,50,22.68c.7-.19.33-.92-.17-1.8a10.82,10.82,0,0,1-1.08-2.4,11.18,11.18,0,0,0-2.32-3.26c-.67-.71.76.22-.15-1a5.56,5.56,0,0,0-3.17-2c-.45,0-.13-.21.39-.51S42.59,11.09,41.73,11Z"/><path class="cls-19" d="M36,23.68c.06,0,.12,0,.46.26a5.11,5.11,0,0,0,3.85.93,5.23,5.23,0,0,0,1.31-.34l-.14-.07c-.06,0-.19-.08-.17-.21s.17-.13.25-.13a23.54,23.54,0,0,1,2.37.31,4.72,4.72,0,0,0,.64.05,5.85,5.85,0,0,0,2.77-.92l.08,0c.39-.21.41-.31.41-.31h0l0,0s-.11-.1-.08-.19.16-.14.45-.18l.72-.08a5.24,5.24,0,0,0,1.1-.18.36.36,0,0,0,.26-.19c.12-.28-.19-.86-.51-1.42a11.14,11.14,0,0,1-1.1-2.43,11.68,11.68,0,0,0-2.28-3.21c-.18-.19-.26-.3-.21-.42s.17-.11.25-.11h.1a3.35,3.35,0,0,0-.3-.48,5.56,5.56,0,0,0-3-1.91h-.08c-.06,0-.24,0-.28-.15s.11-.3.67-.61l0,0a4.41,4.41,0,0,0-1.79-.43H41.3a7.11,7.11,0,0,0-3.1.53c-.17.13-.25.16-.31.16a.19.19,0,0,1-.14-.09c0-.06-.1-.2.56-1a.09.09,0,0,0,0-.05s-.06,0-.17,0a5.17,5.17,0,0,0-1.51.36A3,3,0,0,0,35,12.22c-.1.15-.17.25-.31.25a.16.16,0,0,1-.13-.06c-.07-.09,0-.2,0-.34h0a4.16,4.16,0,0,0-.42.38A3.5,3.5,0,0,0,33,15.08a.13.13,0,0,1,0,.12A4.63,4.63,0,0,0,32,21c.06.11.11.16.13.2a.23.23,0,0,1,.2-.15c.12,0,.23.11.39.42.49.94,2.43,2.78,3.06,2.78h.05c.07,0,.11,0,.12-.07s0-.15,0-.19-.07-.14,0-.21A.14.14,0,0,1,36,23.68Z"/><path class="cls-23" d="M33.43,15.06c-.07,0,0,.17.06.17,6,.1,10.5,2.7,15.41,5.77.07.05,0-.07,0-.09C44.64,17.66,39,14.37,33.43,15.06Z"/><path class="cls-28" d="M29.32,11.23a5.61,5.61,0,0,1,.91,2.37c-.07.55.25-.18.35-.44s.36,0,.56,1.13a2.86,2.86,0,0,1-.2,1.64c.07.12.51-.66.21.4A2.45,2.45,0,0,1,29.89,18a3.31,3.31,0,0,1-3.27,2.65c-.69,0,.22-.29-.53-.27s-2.71-.55-2.84-1,.69-.07,0-.42a3.66,3.66,0,0,1-1.93-2.07c-.39-1.12-.27-1.16,0-.95s-.31-.57-.95-1.37a3.66,3.66,0,0,1-.67-2.49c0-.88.4-.07.17-.65a7.76,7.76,0,0,1-.47-1.21c-.12-.49.45-.52,1.15-.52a7.51,7.51,0,0,0,1.84-.17,7.9,7.9,0,0,1,2.77.28c.66.17-.39-.38.66-.25a3.85,3.85,0,0,1,2.29,1.25c.14.28.17,0,.17-.42S29,10.72,29.32,11.23Z"/><path class="cls-10" d="M29.74,17.65s-.11.05-.13,0c-2.11-3.59-5.25-5.44-8.81-7.37-.05,0,0,0,.06,0C24.29,11.73,28.23,14,29.74,17.65Z"/><path class="cls-21" d="M29.29,11.1a5.28,5.28,0,0,0-5,.76c-2.66,2.3-1.37,6.06.88,8.16-.85-.18-1.88-.56-2-.89s.69-.07,0-.42a3.7,3.7,0,0,1-1.93-2.07c-.39-1.12-.27-1.16,0-1s-.31-.57-.95-1.37a3.61,3.61,0,0,1-.67-2.49c0-.88.4-.07.16-.66A8.27,8.27,0,0,1,19.3,10c-.12-.48.44-.51,1.15-.51a7.9,7.9,0,0,0,1.83-.17,7.93,7.93,0,0,1,2.78.28c.66.17-.4-.38.66-.25A3.85,3.85,0,0,1,28,10.55c.14.28.17,0,.17-.41s.72.36,1.05.87Z"/><path class="cls-29" d="M37.84,66.26c-.59-1-2-2.36-3.27-2a4.78,4.78,0,0,0-.74.3,1.41,1.41,0,0,0-.32.09A9,9,0,0,0,30,68c-1.75,3,4,3.35,5.73,3.25.69,0,3.23-.16,3.45-1.1C39.48,68.66,38.53,67.45,37.84,66.26Z"/><g class="cls-30"><path class="cls-31" d="M38.46,67.29a1.89,1.89,0,0,1,0,.58c-.35,2-2.31,2.44-4.11,2s-3-1.6-2.8-3.44a2.7,2.7,0,0,1,.08-.39A8.65,8.65,0,0,0,30,68c-1.75,3,4,3.35,5.73,3.25.69,0,3.23-.16,3.45-1.1A3.79,3.79,0,0,0,38.46,67.29Z"/></g><path class="cls-32" d="M34.13,69.92A2.21,2.21,0,0,0,32.42,69c-.75,0-1.37.61-1.9,1.08a1.72,1.72,0,0,0-.35.25.94.94,0,0,0,.22,1.55,3.55,3.55,0,0,0,2.19.14c.55,0,1.65.24,2-.37A2,2,0,0,0,34.13,69.92Z"/><path class="cls-29" d="M31.21,67c-.69-1-1.72-2.49-3.05-2.72-1-.17-2,.9-2.76,1.64a6.2,6.2,0,0,0-2.15,1.78c-.42.6-1.19,2.27-.29,2.87a7.23,7.23,0,0,0,4.19,1,5.13,5.13,0,0,0,3.34-1.16C31.29,69.55,31.94,68.07,31.21,67Z"/><g class="cls-30"><path class="cls-33" d="M31.21,67l-.05-.07c.16,1.67-1.39,2.94-2.93,3.14s-3.94,0-4.38-1.89a3.31,3.31,0,0,1,0-1.13,4.5,4.5,0,0,0-.57.65c-.42.6-1.19,2.27-.29,2.87a7.23,7.23,0,0,0,4.19,1,5.13,5.13,0,0,0,3.34-1.16C31.29,69.55,31.94,68.07,31.21,67Z"/></g><g class="cls-34"><path class="cls-35" d="M34.76,64.65a3.19,3.19,0,0,0-1.52.47c-.26.14-1.59,1-1.26,1.48a.63.63,0,0,0,0,.3c.16.37.79.18,1,.09a3.8,3.8,0,0,0,2.3-1.84C35.5,64.79,35,64.65,34.76,64.65Z"/></g><g class="cls-34"><path class="cls-35" d="M26.94,65.49a3.5,3.5,0,0,0-1.3,1l-.11.09a1.84,1.84,0,0,0-.75,1.16c-.05.51.58.37.84.26a3.93,3.93,0,0,0,2.24-2C28.11,65.24,27.32,65.31,26.94,65.49Z"/></g><path class="cls-29" d="M29.27,69.09c-1.18-.54-2.52.51-3.32,1.52a5,5,0,0,0-1.19,1.59c-1.31,2.77,6,2.88,6.86.46C32.07,71.31,30.36,69.59,29.27,69.09Z"/><g class="cls-30"><path class="cls-33" d="M31.13,70.7c.19,1.21-.26,2.47-1.65,2.61S25.7,73,25,71.8a3,3,0,0,0-.21.4c-1.31,2.77,6,2.88,6.86.46A2.26,2.26,0,0,0,31.13,70.7Z"/></g><g class="cls-34"><path class="cls-35" d="M28.19,70c-.3-.23-.75.12-1,.31a2.05,2.05,0,0,0-.7.89,1.6,1.6,0,0,0-.2.34c-.09.2-.11.6.23.51a2.14,2.14,0,0,0,.77-.45,4.12,4.12,0,0,0,.66-.72C28.08,70.68,28.43,70.14,28.19,70Z"/></g></g></g></svg>