<svg id="Layer_1" data-name="Layer 1" xmlns="http://www.w3.org/2000/svg" viewBox="0 0 64 64"><defs><style>.cls-1{fill:#70bf44;}.cls-2{fill:#0c6e38;}.cls-3{fill:#0faa4b;}.cls-4{fill:#dada2d;}</style></defs><path class="cls-1" d="M22.1,19.34c-8.22-2.5-16.53.85-19.06,9.39l.18,0C7.5,17,22.77,16.27,25.94,35.44c.06-.17.14-.28.27-.3.55-.11.86,1.56,2,1.83s2.7-1.14,3.41-2.32C33.89,30.92,31.63,22.22,22.1,19.34Z"/><path class="cls-1" d="M3.22,28.69c5.23-1.27,7.57-.34,8.72.82,2.1,2.11.39,5.05,3.07,8.82,3.59,5,7.93,4,9.55,2.18,1.48-1.66,1.09-4.2,1.38-5.07C22.77,16.24,7.5,16.94,3.22,28.69Z"/><path class="cls-2" d="M17.24,30.09c-1.4-4.92-7.91-6-12.12-1.79,3.92-.63,5.82.2,6.82,1.21,2.1,2.11.39,5.05,3.07,8.82.48.67,2.65,3.72,5.87,3.68a6.06,6.06,0,0,0,1.67-.26C19.31,39.33,18,34.43,17.24,30.09Z"/><path class="cls-3" d="M3.22,28.69c.68-.17,1.31-.3,1.9-.39,4.14-4.14,10.69-3.22,12.12,1.79.8,4.34,2.07,9.24,5.31,11.66,3.79-1.16,3-5.17,3.39-6.31,3.24,1.15,6.06-.77,5.79-5.48-.14-2.38-1.46-4.1-1.64-4s.81,1.9,0,3.52c-.31.62-.93,1.32-1.32,1.2-.69-.22.26-2.74-.95-5.48-.65-1.5-1.71-2.52-1.95-2.39s.57,1.41.32,3.21c-.15,1-.64,2.33-1.17,2.33-.75,0-.51-2.72-2.42-5a7.93,7.93,0,0,0-4.73-2.58s1.84.49,2.27,1.83a1.46,1.46,0,0,1-.21,1.46c-.65.53-2-.49-3.53-1.06C12.45,21.55,6.21,23.11,3.22,28.69Z"/><path class="cls-4" d="M41.38,26.9c-7.51-.36-8.6-8-7.19-11.78C36.2,9.7,46.55,7,59.84,9.36c.92,3.09,2.34,9.67-.53,16.49-1.18,2.82-3.35,8-7.85,8.64C47.58,35.05,42.53,32,41.38,26.9Z"/><path class="cls-2" d="M60.15,10.51c0,3.33-.25,6.63-1.8,9.59-1.82,3.4-5.22,7-9.31,7-2.5.22-3.64-2.73-2.73-5-3.73,1.24-9,1.38-12.3-1.13a7.49,7.49,0,0,0,7.37,5.89c1.13,5.05,6.14,8.16,10.08,7.59,4.5-.66,6.67-5.82,7.85-8.64A24.24,24.24,0,0,0,60.15,10.51Z"/><path class="cls-1" d="M59,9.21a8,8,0,0,1-6.32,5.9A6.08,6.08,0,0,1,56,11a6.55,6.55,0,0,0-3.61,1.68c-1.79,1.53-1.49,2.71-3.26,4.06-1.23.94-3.06,1.66-3.6,1.11s.26-2.51,1.37-3.75a9.11,9.11,0,0,1,2.34-1.69c-.15-.3-4.35,1.47-6.54,4.33-1.21,1.58-1.42,2.81-1.74,2.75s-.66-1.76-.08-3.31c.91-2.37,3.44-3.15,3.3-3.42s-2.86.19-4.43,2.28a6,6,0,0,0-1.12,3,5.3,5.3,0,0,1,.2-7.41C34.65,12.66,32.72,16,34,21a7.51,7.51,0,0,0,12.3,1.13c-5.49,4.94.77,9.66,5.43,9.13,5.79-.67,11.09-12.19,8.1-21.91Z"/><path class="cls-1" d="M40.15,59c-2.8-3.26-5.62-5.72-6.79-8.6-2-5-.77-13.85,15-30.43A60.56,60.56,0,0,0,34.91,33.34a12.55,12.55,0,0,1-.12-7.52,20,20,0,0,0-1.62,5.52,31.75,31.75,0,0,0-.49,5.39c-7.3,12.7-4.08,17.19-.18,22.81Q36.32,59.27,40.15,59Z"/><path class="cls-3" d="M32.38,59.55c1.76-.12,3.53-.25,5.29-.39-.58-.69-1.16-1.39-1.73-2.1a13.77,13.77,0,0,1-3.87-8.17C31.23,37,45.29,22.4,55.05,15.6A62.16,62.16,0,0,0,34.92,33.34a14.5,14.5,0,0,1-.4-1.41,8.59,8.59,0,0,0-1.83,4.77,48.66,48.66,0,0,0-3,6.45,28.27,28.27,0,0,0-1.28,3.43q0,.2.09.36C27.58,52.71,29.81,55.94,32.38,59.55Z"/><path class="cls-2" d="M34.79,25.8a19.73,19.73,0,0,0-1.62,5.52,31.56,31.56,0,0,0-.49,5.31,42.12,42.12,0,0,1,1.92-4.36A13.08,13.08,0,0,1,34.79,25.8Z"/><path class="cls-2" d="M26.09,36.58c3.14,7.39,2.12,11.73,2.25,13.67.27,3.93,2,6.54,4,9.3l3.44-.25C33,56,30.09,53.09,31,44a27.34,27.34,0,0,1,1.66-7.17,41.39,41.39,0,0,0-2.92,6.3,28.51,28.51,0,0,0-4.52-10.67,28.9,28.9,0,0,0-10.8-9.26A27.2,27.2,0,0,1,26.09,36.58Z"/></svg>