<svg id="Layer_1" data-name="Layer 1" xmlns="http://www.w3.org/2000/svg" viewBox="0 0 180.26 398.3"><defs><style>.cls-1{fill:#bbcbd2;}.cls-2{fill:#f0f3f3;}.cls-3{fill:#4b666b;}</style></defs><path class="cls-1" d="M96.7,95H91.55c-.89,12.52-10,279.59-10.23,288.91h25.62C106.67,374.57,97.62,107.5,96.7,95Z"/><path class="cls-2" d="M96.23,95c-.84,0,.88,288.91.88,288.91h8.54C105.4,374.33,97.09,107.5,96.23,95Z"/><path class="cls-1" d="M76,90.12c-5.27.22-60.68,34.44-59.57,36.69s20.42-4.92,43.19-16S96.07,93.59,95,91.33,86.29,89.72,76,90.12Z"/><path class="cls-2" d="M21.25,123.71,88.82,90.79c-2.67,0-6,.1-9.14.22-1.16.07-2.36.12-3.61.16C72.26,91.33,33.75,114.54,21.25,123.71Z"/><path class="cls-1" d="M102.49,108.09c2.82,4.46,60.15,35.34,61.57,33.27s-14.48-15.25-35.48-29.42S95.45,89,94.06,91.08,97,99.4,102.49,108.09Z"/><path class="cls-2" d="M159,138.74,96.66,96.67c1.29,2.34,3.09,5.16,4.78,7.79l1.94,3.07C105.42,110.76,144.77,132.5,159,138.74Z"/><path class="cls-1" d="M104.46,76.49c2.45-4.67.52-69.77-2-69.95S96.52,26.7,94.74,52s-3.3,40.17-.8,40.35S99.67,85.59,104.46,76.49Z"/><path class="cls-2" d="M102.76,12.25l-5.28,75c1.38-2.29,2.92-5.26,4.37-8l1.68-3.2C105.3,72.62,104.46,27.67,102.76,12.25Z"/><path class="cls-1" d="M92.29,87.74a4.46,4.46,0,1,0,5.95,2.06A4.47,4.47,0,0,0,92.29,87.74Z"/><path class="cls-3" d="M92.93,89.07a3,3,0,1,0,4,1.37A3,3,0,0,0,92.93,89.07Z"/><path class="cls-1" d="M115.19,385.88c0,1.27-.72,2.3-1.62,2.3H75.2c-.91,0-1.62-1-1.62-2.3s.71-2.27,1.62-2.27h38.37c.9,0,1.62,1,1.62,2.27Z"/></svg>