<svg id="Layer_1" data-name="Layer 1" xmlns="http://www.w3.org/2000/svg" viewBox="0 0 64 64"><defs><style>.cls-1,.cls-3{fill:#e1803a;}.cls-1,.cls-2,.cls-4,.cls-5,.cls-6,.cls-7{fill-rule:evenodd;}.cls-2{fill:#d07132;}.cls-4{fill:#ef9557;}.cls-5{fill:#feea9d;}.cls-6{fill:#887f31;}.cls-7{fill:#988e33;}</style></defs><path class="cls-1" d="M27.69,15.91H52.22A1.77,1.77,0,0,1,54,17.53q.39,7,.8,14.53c.29,5.21.58,10.64.91,16.29a1.89,1.89,0,0,1-1.81,2H26a1.88,1.88,0,0,1-1.79-2c.32-5.65.61-11.08.9-16.29l.81-14.53a1.77,1.77,0,0,1,1.76-1.62Z"/><path class="cls-2" d="M55.69,48.5a1.86,1.86,0,0,1-1.81,1.9H26a1.86,1.86,0,0,1-1.79-1.91Z"/><path class="cls-2" d="M27.69,15.91H52.22A1.77,1.77,0,0,1,54,17.53q.39,7,.8,14.53l.08,1.45c-7.32-8-15.75-14.35-29.09-13l.16-2.93a1.77,1.77,0,0,1,1.76-1.62Z"/><path class="cls-3" d="M27.66,18.57l-.13.26h0a1.31,1.31,0,0,1-1,.37h0a2.42,2.42,0,0,1-.47,0,2,2,0,0,1-.47-.17.92.92,0,0,1-.5-.82V13.78a.37.37,0,0,1,.38-.35h29a.36.36,0,0,1,.37.36v4.38a.92.92,0,0,1-.5.82,1.5,1.5,0,0,1-.46.17,2.71,2.71,0,0,1-.47,0,1.24,1.24,0,0,1-1-.37l-.13-.25c-.22-.41-.48-.91-.9-.91s-.49.32-.68.65a2.83,2.83,0,0,1-.39.56.49.49,0,0,1-.16.16h0A1.66,1.66,0,0,1,48,19a.65.65,0,0,1-.17-.16,3.26,3.26,0,0,1-.38-.56c-.2-.33-.37-.65-.68-.65s-.5.32-.69.65a4,4,0,0,1-.39.56,1.17,1.17,0,0,1-.15.16h0a1.69,1.69,0,0,1-2.11,0,1.21,1.21,0,0,1-.16-.16,3.87,3.87,0,0,1-.37-.56c-.19-.33-.39-.65-.69-.65s-.5.32-.7.65a3.87,3.87,0,0,1-.37.56L41,19h0a1.69,1.69,0,0,1-1.06.37A1.66,1.66,0,0,1,38.9,19l-.16-.16a5,5,0,0,1-.38-.56c-.19-.33-.37-.65-.69-.65s-.5.32-.69.65a3.87,3.87,0,0,1-.37.56c0,.07-.12.11-.16.16h0a1.7,1.7,0,0,1-2.12,0,1.14,1.14,0,0,1-.14-.16,3.33,3.33,0,0,1-.39-.56c-.19-.33-.37-.65-.69-.65s-.49.32-.68.65a3.33,3.33,0,0,1-.39.56.61.61,0,0,1-.16.16h0a1.6,1.6,0,0,1-1.05.37,1.64,1.64,0,0,1-1-.37.81.81,0,0,1-.16-.16,3.26,3.26,0,0,1-.38-.56c-.2-.33-.38-.65-.68-.65s-.68.5-.9.9Z"/><path class="cls-4" d="M49.59,14.38h2.86a.51.51,0,0,1,.51.52h0a.52.52,0,0,1-.51.53H49.59a.52.52,0,0,1-.52-.53h0a.52.52,0,0,1,.52-.52Zm-22.13,0H47a.52.52,0,0,1,.53.52h0a.53.53,0,0,1-.53.53H27.46A.52.52,0,0,1,27,14.9h0a.51.51,0,0,1,.51-.52Z"/><path class="cls-5" d="M40.28,23.19a7.52,7.52,0,1,1-7.51,7.52,7.52,7.52,0,0,1,7.51-7.52Z"/><path class="cls-5" d="M34.47,40.71H46.09a.58.58,0,0,1,.58.58h0a.58.58,0,0,1-.58.59H34.47a.58.58,0,0,1-.58-.59h0a.58.58,0,0,1,.58-.58Zm0,2.76H46.09a.57.57,0,0,1,.58.58h0a.56.56,0,0,1-.58.56H34.47a.56.56,0,0,1-.58-.56h0a.57.57,0,0,1,.58-.58Z"/><path class="cls-6" d="M40.61,34.5a5.14,5.14,0,0,0,3.94-2.16c1-1.32.06-2.37.78-4.41a5.17,5.17,0,0,0-4.72,6.57Z"/><path class="cls-7" d="M40.75,34.55a6,6,0,0,1-4.61-2.5c-1.12-1.55,0-2.78-.91-5.17a6,6,0,0,1,5.52,7.67Z"/></svg>