<svg id="Layer_1" data-name="Layer 1" xmlns="http://www.w3.org/2000/svg" viewBox="0 0 64 64"><defs><style>.cls-1{fill:#e78825;}.cls-2{fill:#fccc4d;}.cls-3{fill:#faa51a;}.cls-4{fill:#e66924;}.cls-5{fill:#f89955;}.cls-6{fill:#f6851f;}.cls-7{fill:#c85c27;}.cls-8{fill:#e87b37;}.cls-9{fill:#d17728;}</style></defs><path class="cls-1" d="M49.65,20.69a8.35,8.35,0,0,0,1.66-1.24,12.19,12.19,0,0,0,1.39-1.57,11.31,11.31,0,0,0,1.1-1.79L54,15.6l.2-.48c.07-.17.13-.33.19-.5l.09-.25.08-.25.08-.25a2.58,2.58,0,0,0,.08-.26l.14-.51.12-.52c0-.09,0-.17,0-.26l.05-.26a15.09,15.09,0,0,0,.22-2.12,17.77,17.77,0,0,0-.39-4.24h0l.07.53,0,.26,0,.13v.13l0,.53,0,.26v.27l0,.52c0,.18,0,.35,0,.53,0,.35,0,.7-.05,1.05a15.58,15.58,0,0,1-.3,2.05l-.06.26-.06.25c0,.16-.09.33-.14.49l-.15.5a2.25,2.25,0,0,1-.08.24l-.09.24a17.34,17.34,0,0,1-1.92,3.58,19,19,0,0,1-2.62,3.12Z"/><path class="cls-1" d="M47.54,24.14q-.43-1.68-.75-3.36c-.2-1.12-.44-2.23-.55-3.37-.05-.56-.08-1.13-.1-1.7s0-1.14,0-1.7a22.66,22.66,0,0,1,.44-3.38h0l-.12.41c0,.13-.07.27-.1.41s-.13.56-.19.84C46,12.84,46,13.4,45.89,14s-.1,1.15-.11,1.73,0,1.15,0,1.73.08,1.16.14,1.74a12.66,12.66,0,0,0,.31,1.72c.07.28.15.56.23.84s.18.56.28.83a10.54,10.54,0,0,0,.74,1.6Z"/><path class="cls-1" d="M41.37,34.43A10.73,10.73,0,0,0,44,34.12a13.92,13.92,0,0,0,6.71-3.81,15.91,15.91,0,0,0,1.7-2l.2-.27c.06-.08.12-.18.18-.27l.36-.54.34-.56.16-.28.15-.29a21.93,21.93,0,0,0,1.84-4.9l-.06,0-.2.62-.1.31a2.81,2.81,0,0,1-.1.31l-.23.61-.12.31a2.52,2.52,0,0,1-.12.29c-.18.4-.34.8-.54,1.18-.1.19-.19.39-.3.58l-.31.56-.16.28-.17.27-.35.54-.37.52a2.48,2.48,0,0,1-.19.26l-.2.25A15.17,15.17,0,0,1,50.36,30l-.24.22-.12.1-.12.1-.49.4-.51.38-.52.35a19.66,19.66,0,0,1-2.19,1.25,18.46,18.46,0,0,1-4.8,1.61Z"/><path class="cls-2" d="M41.85,35.08a2.41,2.41,0,0,0-1.92.83c-.17.22-.12.35.08.5a3.33,3.33,0,0,0,1.61.62,6.18,6.18,0,0,0,2.85-.48A14.6,14.6,0,0,0,46,35.82l-.08-.07A11.94,11.94,0,0,0,41.85,35.08Zm2.58-16.54h-.14c-.14.68-.33,1.34-.41,2-.15,1.16-.25,2.34-.35,3.51A2.91,2.91,0,0,0,46,27.18c.06,0,.18-.1.23-.18a5.61,5.61,0,0,0,.55-2.69,6.7,6.7,0,0,0-.92-3.06C45.42,20.33,44.91,19.44,44.43,18.54ZM50,28.07a5.12,5.12,0,0,0,1-.95,20.36,20.36,0,0,0,2.57-3.2l.15-.27a14,14,0,0,0-4.33.8,5,5,0,0,0-2.71,2.79.38.38,0,0,0,0,.32A2.72,2.72,0,0,0,50,28.07Zm-7.65-4.92L42.27,23c-.19.81-.39,1.54-.52,2.29s-.18,1.44-.25,2.16A2.58,2.58,0,0,0,42,29.22a5.14,5.14,0,0,0,1.9,1.59,8.91,8.91,0,0,0,.4-1.24A4.62,4.62,0,0,0,44,26.7C43.43,25.53,42.91,24.34,42.38,23.15Zm4.34-7.8-.11-.17c-.06.48-.11.88-.15,1.29-.13,1.1-.21,2.2-.38,3.29A2.74,2.74,0,0,0,48.4,23a8,8,0,0,0,.52-2.59,3.88,3.88,0,0,0-.55-1.7Zm.67,16.39a3.1,3.1,0,0,0,.89-.49,17.88,17.88,0,0,0,2.79-2.53c-.48,0-.9,0-1.33,0-.84,0-1.68,0-2.53.08a4,4,0,0,0-3,2.32A4.18,4.18,0,0,0,47.39,31.74Zm4-8.36a2.27,2.27,0,0,0,.77-.74c.74-1.19,1.43-2.41,2.13-3.62l.08-.09-.06-.06-1,.35c-.75.28-1.48.59-2.25.83a2.56,2.56,0,0,0-1.54,1.34c-.3.59-.55,1.21-.83,1.84A2.84,2.84,0,0,0,51.44,23.38ZM44,34.93a5.24,5.24,0,0,0,2.94-1c.56-.38,1.09-.8,1.63-1.2l0-.11-.77-.06c-1,0-2-.07-3-.09a4.54,4.54,0,0,0-3.12,1.28A2.93,2.93,0,0,0,44,34.93Zm-2.93-6.07c-.25-.52-.53-1-.83-1.6-.18.49-.34.9-.47,1.32a7.81,7.81,0,0,0-.37,2.59,2.28,2.28,0,0,0,1.76,2.29c.22,0,.34,0,.39-.23.07-.44.19-.87.25-1.32A5.2,5.2,0,0,0,41.05,28.86ZM52.93,18.4c.58-1.12,1.14-2.25,1.71-3.38a1.44,1.44,0,0,0,.07-.25c-.85.38-1.62.76-2.42,1.06a2.79,2.79,0,0,0-1.78,3,.34.34,0,0,0,.18.27A1.56,1.56,0,0,0,52.93,18.4Zm-4.31-6.29a2.92,2.92,0,0,0-.33-.59c0,.1,0,.21,0,.31,0,1.55,0,3.11.08,4.66a1.92,1.92,0,0,0,1.62,2,3.21,3.21,0,0,0,.14-3.07C49.57,14.33,49.11,13.21,48.62,12.11ZM38.24,30.32l-.12-.09a7.89,7.89,0,0,0,0,4.15,2.86,2.86,0,0,0,.7,1c.34.33.56.27.8-.13a2.17,2.17,0,0,0,.18-1.78A9.22,9.22,0,0,0,38.24,30.32ZM53.07,6c-1.1.83-1.91,4.89-1.37,6.61a1.27,1.27,0,0,0,.78-.77A5.74,5.74,0,0,0,53,9.37C53.07,8.26,53.06,7.15,53.07,6Zm-1.45,9a1.48,1.48,0,0,0,2-.75,15.54,15.54,0,0,0,.64-1.51l.78-1.9a3.19,3.19,0,0,0-.51.15,5.33,5.33,0,0,0-2,1.89A6.19,6.19,0,0,0,51.62,15ZM49.68,9a.21.21,0,0,0,0,.07c0,1.16,0,2.32.08,3.48a2.49,2.49,0,0,0,.74,1.82,3,3,0,0,0,.61.37C51.56,13.15,50.7,9.74,49.68,9Z"/><path class="cls-3" d="M41.85,35.08a2.41,2.41,0,0,0-1.92.83c-.17.22-.12.35.08.5a3.33,3.33,0,0,0,1.61.62,6.18,6.18,0,0,0,2.85-.48A14.6,14.6,0,0,0,46,35.82l-.08-.07A11.94,11.94,0,0,0,41.85,35.08Zm-.07.05a9,9,0,0,1,2.42.24l-.08,0a5.57,5.57,0,0,1-2.58.45,2.65,2.65,0,0,1-1-.33A2.09,2.09,0,0,1,41.78,35.13Z"/><path class="cls-3" d="M47.39,31.74a3.1,3.1,0,0,0,.89-.49,17.88,17.88,0,0,0,2.79-2.53c-.48,0-.9,0-1.33,0-.84,0-1.68,0-2.53.08a4,4,0,0,0-3,2.32A4.18,4.18,0,0,0,47.39,31.74Zm-.32-1.16a3,3,0,0,1-2.19-.26,2.29,2.29,0,0,1,.55-.61,2.9,2.9,0,0,1,1.71-.84l2-.06h.32a14.54,14.54,0,0,1-1.65,1.38A2.69,2.69,0,0,1,47.07,30.58Z"/><path class="cls-3" d="M42.38,23.15,42.27,23c-.19.81-.39,1.54-.52,2.29s-.18,1.44-.25,2.16A2.58,2.58,0,0,0,42,29.22a5.14,5.14,0,0,0,1.9,1.59,8.91,8.91,0,0,0,.4-1.24A4.62,4.62,0,0,0,44,26.7C43.43,25.53,42.91,24.34,42.38,23.15Zm0,1.09c.1.2.19.41.28.62l.7,1.53,0,.07a3.94,3.94,0,0,1,.27,2.41,2.9,2.9,0,0,1-.14.48,4.43,4.43,0,0,1-1.1-1.06,2.32,2.32,0,0,1-.25-.42h0A1.72,1.72,0,0,1,42,27l0-.2c0-.63.11-1.29.22-1.91C42.25,24.66,42.3,24.45,42.34,24.24Z"/><path class="cls-3" d="M50,28.07a5.12,5.12,0,0,0,1-.95,20.36,20.36,0,0,0,2.57-3.2l.15-.27a14,14,0,0,0-4.33.8,5,5,0,0,0-2.71,2.79.38.38,0,0,0,0,.32A2.72,2.72,0,0,0,50,28.07Zm-2.76-1.36a4.26,4.26,0,0,1,2.31-2.26,9.31,9.31,0,0,1,2.88-.64,23.65,23.65,0,0,1-2,2.31l-.14.15a4,4,0,0,1-.76.7A2.08,2.08,0,0,1,47.27,26.71Z"/><path class="cls-3" d="M44.43,18.54h-.14c-.14.68-.33,1.34-.41,2-.15,1.16-.25,2.34-.35,3.51A2.91,2.91,0,0,0,46,27.18c.06,0,.18-.1.23-.18a5.61,5.61,0,0,0,.55-2.69,6.7,6.7,0,0,0-.92-3.06C45.42,20.33,44.91,19.44,44.43,18.54Zm0,.95c.27.48.53,1,.77,1.46.14.26.24.48.33.68a4.91,4.91,0,0,1,.53,2.09,5.16,5.16,0,0,1-.39,2.2,2.45,2.45,0,0,1-1.52-1.25h0A2.22,2.22,0,0,1,44,23.6c.1-1.24.2-2.36.34-3.49C44.38,19.9,44.41,19.7,44.45,19.49Z"/><path class="cls-3" d="M51.44,23.38a2.27,2.27,0,0,0,.77-.74c.74-1.19,1.43-2.41,2.13-3.62l.08-.09-.06-.06-1,.35c-.75.28-1.48.59-2.25.83a2.56,2.56,0,0,0-1.54,1.34c-.3.59-.55,1.21-.83,1.84A2.84,2.84,0,0,0,51.44,23.38Zm-2-1.05c.18-.42.36-.82.55-1.21a2,2,0,0,1,1.21-1.05c.52-.16,1-.36,1.53-.55l.26-.11c-.44.77-.9,1.56-1.37,2.32a1.69,1.69,0,0,1-.58.54A1.79,1.79,0,0,1,49.4,22.33Z"/><path class="cls-3" d="M38.24,30.32l-.12-.09a7.89,7.89,0,0,0,0,4.15,2.86,2.86,0,0,0,.7,1c.34.33.56.27.8-.13a2.17,2.17,0,0,0,.18-1.78A9.22,9.22,0,0,0,38.24,30.32Zm.14.91c.14.24.26.49.37.73A7.07,7.07,0,0,1,39.13,33a1.64,1.64,0,0,1-.08,1.23,2.13,2.13,0,0,1-.44-.57l0-.06A5.3,5.3,0,0,1,38.38,31.23Z"/><path class="cls-3" d="M41.05,28.86c-.25-.52-.53-1-.83-1.6-.18.49-.34.9-.47,1.32a7.81,7.81,0,0,0-.37,2.59,2.28,2.28,0,0,0,1.76,2.29c.22,0,.34,0,.39-.23.07-.44.19-.87.25-1.32A5.2,5.2,0,0,0,41.05,28.86Zm-.44.15a4,4,0,0,1,.45,2.23c0,.23-.08.46-.13.71l-.06.26a1.5,1.5,0,0,1-.84-.8h0a2.53,2.53,0,0,1-.18-.81,7.17,7.17,0,0,1,.35-2.39v0l.18.36C40.48,28.73,40.55,28.87,40.61,29Z"/><path class="cls-3" d="M49.68,9a.21.21,0,0,0,0,.07c0,1.16,0,2.32.08,3.48a2.49,2.49,0,0,0,.74,1.82,3,3,0,0,0,.61.37C51.56,13.15,50.7,9.74,49.68,9Zm.49,1.9A8.55,8.55,0,0,1,50.49,13a1,1,0,0,1-.09-.18h0a2.45,2.45,0,0,1-.19-.89C50.19,11.59,50.18,11.23,50.17,10.87Z"/><path class="cls-3" d="M51.62,15a1.48,1.48,0,0,0,2-.75,15.54,15.54,0,0,0,.64-1.51l.78-1.9a3.19,3.19,0,0,0-.51.15,5.33,5.33,0,0,0-2,1.89A6.19,6.19,0,0,0,51.62,15Zm.64-1.08a5.75,5.75,0,0,1,.6-1.25,5.53,5.53,0,0,1,.75-.94l-.08.19-.18.46a10.15,10.15,0,0,1-.43,1A1,1,0,0,1,52.26,13.92Z"/><path class="cls-3" d="M52.93,18.4c.58-1.12,1.14-2.25,1.71-3.38a1.44,1.44,0,0,0,.07-.25c-.85.38-1.62.76-2.42,1.06a2.79,2.79,0,0,0-1.78,3,.34.34,0,0,0,.18.27A1.56,1.56,0,0,0,52.93,18.4ZM51,18a2.14,2.14,0,0,1,1.4-2.19c.32-.12.63-.25.94-.39-.35.69-.7,1.39-1.06,2.08A1,1,0,0,1,51,18Z"/><path class="cls-3" d="M46.72,15.35l-.11-.17c-.06.48-.11.88-.15,1.29-.13,1.1-.21,2.2-.38,3.29A2.74,2.74,0,0,0,48.4,23a8,8,0,0,0,.52-2.59,3.88,3.88,0,0,0-.55-1.7Zm.14,1.3.85,1.72.06.12.2.41a2,2,0,0,1,.22.88,6.25,6.25,0,0,1-.3,1.86,2.11,2.11,0,0,1-1.2-1.08h0a2.23,2.23,0,0,1-.14-1.25c.12-.75.19-1.52.27-2.26C46.83,16.92,46.85,16.79,46.86,16.65Z"/><path class="cls-3" d="M48.62,12.11a2.92,2.92,0,0,0-.33-.59c0,.1,0,.21,0,.31,0,1.55,0,3.11.08,4.66a1.92,1.92,0,0,0,1.62,2,3.21,3.21,0,0,0,.14-3.07C49.57,14.33,49.11,13.21,48.62,12.11Zm.17,1.57,0,.1c.23.52.43.94.63,1.33l.06.12a2.37,2.37,0,0,1,0,1.95A1.2,1.2,0,0,1,49,16.6h0a1.6,1.6,0,0,1-.14-.67C48.81,15.18,48.8,14.43,48.79,13.68Z"/><path class="cls-3" d="M53.07,6c-1.1.83-1.91,4.89-1.37,6.61a1.27,1.27,0,0,0,.78-.77A5.74,5.74,0,0,0,53,9.37C53.07,8.26,53.06,7.15,53.07,6Zm-.74,2.11c0,.23,0,.45,0,.67A5.59,5.59,0,0,1,52,10.53a11.41,11.41,0,0,1,.22-2C52.27,8.38,52.3,8.23,52.33,8.09Z"/><path class="cls-3" d="M44,34.93a5.24,5.24,0,0,0,2.94-1c.56-.38,1.09-.8,1.63-1.2l0-.11-.77-.06c-1,0-2-.07-3-.09a4.54,4.54,0,0,0-3.12,1.28A2.93,2.93,0,0,0,44,34.93Zm-.14-1.18a2.4,2.4,0,0,1-1.5-.5,4,4,0,0,1,2.25-.72l2.24.06-.38.26A4.62,4.62,0,0,1,43.84,33.75Z"/><path class="cls-1" d="M12.43,56.62a.12.12,0,0,0,.07.05h.19l.24,0a3.94,3.94,0,0,0,.47-.1c.31-.08.61-.18.92-.28.6-.21,1.2-.44,1.79-.69,1.17-.5,2.32-1.06,3.44-1.66s2.23-1.25,3.32-1.93,2.14-1.39,3.18-2.13,2.05-1.52,3.05-2.33S31.05,45.88,32,45c1.88-1.73,3.68-3.56,5.38-5.47a75.87,75.87,0,0,0,9-12.49,79.83,79.83,0,0,0,6.37-14.13l-.06,0a80,80,0,0,1-6.55,14,76.16,76.16,0,0,1-9.09,12.33,74.21,74.21,0,0,1-5.43,5.36c-.94.85-1.91,1.67-2.9,2.47s-2,1.58-3,2.33-2.06,1.47-3.12,2.17-2.14,1.36-3.23,2S17.14,54.78,16,55.33c-.57.27-1.14.53-1.73.77l-.9.33-.45.13-.23,0h-.12l-.08,0Z"/><path class="cls-4" d="M38.8,20.13a9.11,9.11,0,0,0,1.59-1.38,12.43,12.43,0,0,0,1.31-1.68,11.14,11.14,0,0,0,1-1.91l.19-.5.18-.51c.06-.17.1-.34.16-.52l.07-.26.07-.26.06-.26a2.44,2.44,0,0,0,.06-.26l.11-.53c0-.18,0-.36.08-.54s0-.18,0-.27l0-.27a15.55,15.55,0,0,0,.08-2.16,17.7,17.7,0,0,0-.68-4.28h-.06l.11.53.05.27,0,.13,0,.13.08.53,0,.27,0,.27.06.53,0,.53c0,.36,0,.72,0,1.07a16.37,16.37,0,0,1-.17,2.11l0,.26a2.38,2.38,0,0,1,0,.26c0,.17-.06.35-.1.52l-.13.51c0,.08,0,.16-.06.25l-.08.25a17.55,17.55,0,0,1-1.7,3.77,18.5,18.5,0,0,1-2.45,3.34Z"/><path class="cls-4" d="M36.88,23.77c-.37-1.12-.7-2.23-1-3.36s-.59-2.24-.78-3.38c-.1-.57-.16-1.15-.22-1.73s-.08-1.15-.09-1.73A22.34,22.34,0,0,1,35,10.11H35l-.08.43c0,.14-.06.28-.08.42,0,.29-.1.58-.13.86-.08.58-.12,1.16-.15,1.75s0,1.17,0,1.76.06,1.17.13,1.76.16,1.17.26,1.75a14.57,14.57,0,0,0,.43,1.73q.13.42.3.84a8.51,8.51,0,0,0,.34.83,10.24,10.24,0,0,0,.85,1.56Z"/><path class="cls-4" d="M31.32,34.64a10.39,10.39,0,0,0,2.6-.49,13.44,13.44,0,0,0,2.45-1,14.51,14.51,0,0,0,4.11-3.32,15.61,15.61,0,0,0,1.6-2.11l.18-.28.17-.29.33-.58.3-.59.15-.3.13-.3a21.72,21.72,0,0,0,1.53-5.1l0,0-.17.65-.08.32a3,3,0,0,1-.08.32l-.19.64-.1.31a2.83,2.83,0,0,1-.11.31c-.15.42-.29.84-.47,1.24-.08.2-.16.4-.25.6l-.29.59-.14.3-.16.28-.31.58-.34.55-.18.28-.18.26a15.83,15.83,0,0,1-1.63,2l-.22.23-.11.12-.12.11-.47.44-.49.41-.51.4a22,22,0,0,1-2.14,1.41,18.53,18.53,0,0,1-4.77,2Z"/><path class="cls-5" d="M31.85,35.27a2.45,2.45,0,0,0-1.89,1c-.16.23-.11.36.12.5a3.25,3.25,0,0,0,1.67.52,6.18,6.18,0,0,0,2.86-.68,15,15,0,0,0,1.52-.84l-.08-.07A12.22,12.22,0,0,0,31.85,35.27Zm1.49-17-.14,0c-.1.69-.24,1.38-.28,2.08-.07,1.2-.09,2.4-.11,3.6a3,3,0,0,0,2.73,3c.07,0,.19-.1.22-.19A5.68,5.68,0,0,0,36.15,24,6.91,6.91,0,0,0,35,21C34.47,20.05,33.89,19.18,33.34,18.29Zm6.34,9.31a5.39,5.39,0,0,0,1-1,21.09,21.09,0,0,0,2.4-3.43c0-.07.06-.14.13-.28A14.2,14.2,0,0,0,38.85,24a5,5,0,0,0-2.56,3,.39.39,0,0,0,.06.32A2.79,2.79,0,0,0,39.68,27.6Zm-8.1-4.48L31.46,23c-.14.84-.3,1.6-.38,2.37S31,26.83,31,27.57a2.54,2.54,0,0,0,.65,1.74,5.38,5.38,0,0,0,2,1.49A9.41,9.41,0,0,0,34,29.51a4.75,4.75,0,0,0-.56-2.89C32.8,25.46,32.2,24.29,31.58,23.12Zm3.87-8.22s-.05-.06-.12-.17c0,.49,0,.91-.07,1.32,0,1.13-.06,2.26-.16,3.38a2.79,2.79,0,0,0,2.58,3.08A8,8,0,0,0,38,19.85a3.92,3.92,0,0,0-.68-1.69Zm1.8,16.6a3.05,3.05,0,0,0,.87-.55,18,18,0,0,0,2.66-2.77l-1.34.12c-.86.08-1.71.16-2.57.26a3.52,3.52,0,0,0-2,1.12,3.29,3.29,0,0,0-.92,1.45A4.25,4.25,0,0,0,37.25,31.5Zm3.54-8.77a2.27,2.27,0,0,0,.74-.8c.66-1.26,1.28-2.55,1.92-3.82,0,0,0-.07.07-.1L43.45,18l-1,.43c-.74.33-1.47.7-2.22,1a2.57,2.57,0,0,0-1.48,1.46c-.26.62-.47,1.27-.72,1.92A2.86,2.86,0,0,0,40.79,22.73ZM34,35a5.36,5.36,0,0,0,2.91-1.21c.54-.42,1-.89,1.58-1.33l0-.11h-.79c-1,0-2.07.06-3.1.11A4.64,4.64,0,0,0,31.48,34,3,3,0,0,0,34,35Zm-3.4-6c-.28-.51-.6-1-.95-1.57-.14.51-.29.93-.39,1.37a8,8,0,0,0-.2,2.67A2.3,2.3,0,0,0,31,33.67c.23,0,.35,0,.38-.25,0-.45.13-.9.16-1.36A5.24,5.24,0,0,0,30.61,29ZM42,17.57c.51-1.17,1-2.36,1.51-3.55a2.37,2.37,0,0,0,.05-.26c-.84.44-1.59.89-2.39,1.24a2.87,2.87,0,0,0-1.61,3.14.4.4,0,0,0,.2.26A1.61,1.61,0,0,0,42,17.57Zm-4.81-6.09a2.46,2.46,0,0,0-.37-.58c0,.11,0,.21,0,.32.13,1.57.25,3.15.4,4.73A2,2,0,0,0,39,17.86a3.28,3.28,0,0,0-.07-3.13C38.28,13.67,37.74,12.56,37.16,11.48Zm-9.3,19.2-.13-.07A8.12,8.12,0,0,0,28,34.82a2.9,2.9,0,0,0,.78.93c.37.31.58.24.8-.18a2.22,2.22,0,0,0,.07-1.82A9.67,9.67,0,0,0,27.86,30.68ZM41.26,5c-1.06.92-1.6,5.1-.93,6.81a1.37,1.37,0,0,0,.74-.84,6,6,0,0,0,.4-2.53C41.42,7.26,41.33,6.14,41.26,5Zm-.86,9.26a1.5,1.5,0,0,0,1.93-.9,16.16,16.16,0,0,0,.55-1.57c.22-.63.43-1.27.67-2a4,4,0,0,0-.51.19A5.38,5.38,0,0,0,41.14,12,6.21,6.21,0,0,0,40.4,14.21ZM38,8.21s0,0,0,.08c.1,1.17.19,2.35.32,3.53a2.56,2.56,0,0,0,.87,1.8,3.94,3.94,0,0,0,.65.33C40.22,12.34,39.11,8.93,38,8.21Z"/><path class="cls-6" d="M31.85,35.27a2.45,2.45,0,0,0-1.89,1c-.16.23-.11.36.12.5a3.25,3.25,0,0,0,1.67.52,6.18,6.18,0,0,0,2.86-.68,15,15,0,0,0,1.52-.84l-.08-.07A12.22,12.22,0,0,0,31.85,35.27Zm-.07.06a9.36,9.36,0,0,1,2.48.08l-.08,0a5.79,5.79,0,0,1-2.59.63,2.82,2.82,0,0,1-1.08-.27A2.16,2.16,0,0,1,31.78,35.33Z"/><path class="cls-6" d="M37.25,31.5a3.05,3.05,0,0,0,.87-.55,18,18,0,0,0,2.66-2.77l-1.34.12c-.86.08-1.71.16-2.57.26a3.52,3.52,0,0,0-2,1.12,3.29,3.29,0,0,0-.92,1.45A4.25,4.25,0,0,0,37.25,31.5Zm-.4-1.15a3.11,3.11,0,0,1-2.25-.12,2.57,2.57,0,0,1,.52-.66,3,3,0,0,1,1.68-1l2-.2.32,0a14.78,14.78,0,0,1-1.58,1.51A3,3,0,0,1,36.85,30.35Z"/><path class="cls-6" d="M31.58,23.12,31.46,23c-.14.84-.3,1.6-.38,2.37S31,26.83,31,27.57a2.54,2.54,0,0,0,.65,1.74,5.38,5.38,0,0,0,2,1.49A9.41,9.41,0,0,0,34,29.51a4.75,4.75,0,0,0-.56-2.89C32.8,25.46,32.2,24.29,31.58,23.12Zm0,1.11.33.61c.31.59.57,1.07.81,1.5l0,.07a4.11,4.11,0,0,1,.44,2.44,3.49,3.49,0,0,1-.11.5,4.29,4.29,0,0,1-1.19-1,2.19,2.19,0,0,1-.29-.41h0a1.77,1.77,0,0,1-.21-.89v-.21c0-.64,0-1.31.1-1.95C31.55,24.66,31.58,24.45,31.61,24.23Z"/><path class="cls-6" d="M39.68,27.6a5.39,5.39,0,0,0,1-1,21.09,21.09,0,0,0,2.4-3.43c0-.07.06-.14.13-.28A14.2,14.2,0,0,0,38.85,24a5,5,0,0,0-2.56,3,.39.39,0,0,0,.06.32A2.79,2.79,0,0,0,39.68,27.6Zm-2.9-1.2A4.48,4.48,0,0,1,39,23.94a10.08,10.08,0,0,1,2.89-.84A23.8,23.8,0,0,1,40,25.58l-.14.17a3.77,3.77,0,0,1-.72.76A2.13,2.13,0,0,1,36.78,26.4Z"/><path class="cls-6" d="M33.34,18.29l-.14,0c-.1.69-.24,1.38-.28,2.08-.07,1.2-.09,2.4-.11,3.6a3,3,0,0,0,2.73,3c.07,0,.19-.1.22-.19A5.68,5.68,0,0,0,36.15,24,6.91,6.91,0,0,0,35,21C34.47,20.05,33.89,19.18,33.34,18.29Zm.09,1c.3.47.6.95.88,1.42.16.27.28.48.38.68a4.94,4.94,0,0,1,.68,2.09,5.38,5.38,0,0,1-.24,2.26,2.51,2.51,0,0,1-1.63-1.17h0a2.15,2.15,0,0,1-.24-1.08c0-1.27,0-2.41.11-3.56C33.38,19.68,33.4,19.47,33.43,19.26Z"/><path class="cls-6" d="M40.79,22.73a2.27,2.27,0,0,0,.74-.8c.66-1.26,1.28-2.55,1.92-3.82,0,0,0-.07.07-.1L43.45,18l-1,.43c-.74.33-1.47.7-2.22,1a2.57,2.57,0,0,0-1.48,1.46c-.26.62-.47,1.27-.72,1.92A2.86,2.86,0,0,0,40.79,22.73Zm-2.14-.92c.16-.44.31-.86.48-1.27a2,2,0,0,1,1.15-1.15c.52-.2,1-.44,1.52-.67l.26-.12c-.4.82-.81,1.65-1.24,2.45a1.76,1.76,0,0,1-.54.59A1.85,1.85,0,0,1,38.65,21.81Z"/><path class="cls-6" d="M27.86,30.68l-.13-.07A8.12,8.12,0,0,0,28,34.82a2.9,2.9,0,0,0,.78.93c.37.31.58.24.8-.18a2.22,2.22,0,0,0,.07-1.82A9.67,9.67,0,0,0,27.86,30.68Zm.2.92c.16.24.3.48.43.71a7.9,7.9,0,0,1,.45,1,1.69,1.69,0,0,1,0,1.27,2,2,0,0,1-.48-.55l0-.06A5.44,5.44,0,0,1,28.06,31.6Z"/><path class="cls-6" d="M30.61,29c-.28-.51-.6-1-.95-1.57-.14.51-.29.93-.39,1.37a8,8,0,0,0-.2,2.67A2.3,2.3,0,0,0,31,33.67c.23,0,.35,0,.38-.25,0-.45.13-.9.16-1.36A5.24,5.24,0,0,0,30.61,29Zm-.43.18a4.27,4.27,0,0,1,.61,2.24c0,.23-.05.47-.09.73a2.51,2.51,0,0,1,0,.27,1.56,1.56,0,0,1-.91-.76h0a2.25,2.25,0,0,1-.23-.81,7.1,7.1,0,0,1,.19-2.45v0c.08.12.15.24.21.35S30.1,29.06,30.18,29.19Z"/><path class="cls-6" d="M38,8.21s0,0,0,.08c.1,1.17.19,2.35.32,3.53a2.56,2.56,0,0,0,.87,1.8,3.94,3.94,0,0,0,.65.33C40.22,12.34,39.11,8.93,38,8.21Zm.63,1.9a8.63,8.63,0,0,1,.46,2.16,1,1,0,0,1-.1-.17h0a2.4,2.4,0,0,1-.25-.9C38.73,10.84,38.69,10.48,38.66,10.11Z"/><path class="cls-6" d="M40.4,14.21a1.5,1.5,0,0,0,1.93-.9,16.16,16.16,0,0,0,.55-1.57c.22-.63.43-1.27.67-2a4,4,0,0,0-.51.19A5.38,5.38,0,0,0,41.14,12,6.21,6.21,0,0,0,40.4,14.21ZM41,13.07a6,6,0,0,1,.53-1.32,5.86,5.86,0,0,1,.69-1l-.06.2c-.06.16-.11.32-.16.48a6.9,6.9,0,0,1-.37,1A1,1,0,0,1,41,13.07Z"/><path class="cls-6" d="M42,17.57c.51-1.17,1-2.36,1.51-3.55a2.37,2.37,0,0,0,.05-.26c-.84.44-1.59.89-2.39,1.24a2.87,2.87,0,0,0-1.61,3.14.4.4,0,0,0,.2.26A1.61,1.61,0,0,0,42,17.57Zm-2-.24A2.18,2.18,0,0,1,41.24,15c.32-.14.63-.3.94-.46-.31.72-.62,1.46-.94,2.18A1,1,0,0,1,40,17.33Z"/><path class="cls-6" d="M35.45,14.9s-.05-.06-.12-.17c0,.49,0,.91-.07,1.32,0,1.13-.06,2.26-.16,3.38a2.79,2.79,0,0,0,2.58,3.08A8,8,0,0,0,38,19.85a3.92,3.92,0,0,0-.68-1.69Zm.23,1.31,1,1.69.07.12c.09.14.16.27.23.4a2.1,2.1,0,0,1,.29.88,6.58,6.58,0,0,1-.18,1.91,2.16,2.16,0,0,1-1.29-1h0a2.28,2.28,0,0,1-.23-1.27c.07-.77.09-1.56.12-2.31C35.67,16.48,35.68,16.35,35.68,16.21Z"/><path class="cls-6" d="M37.16,11.48a2.46,2.46,0,0,0-.37-.58c0,.11,0,.21,0,.32.13,1.57.25,3.15.4,4.73A2,2,0,0,0,39,17.86a3.28,3.28,0,0,0-.07-3.13C38.28,13.67,37.74,12.56,37.16,11.48Zm.28,1.58.05.1c.27.51.5.92.73,1.31l.07.11a2.46,2.46,0,0,1,.11,2,1.21,1.21,0,0,1-.57-.55h0a1.86,1.86,0,0,1-.2-.68C37.57,14.59,37.5,13.82,37.44,13.06Z"/><path class="cls-6" d="M41.26,5c-1.06.92-1.6,5.1-.93,6.81a1.37,1.37,0,0,0,.74-.84,6,6,0,0,0,.4-2.53C41.42,7.26,41.33,6.14,41.26,5Zm-.6,2.19,0,.68a5.79,5.79,0,0,1-.19,1.82,10.43,10.43,0,0,1,.09-2.05C40.61,7.44,40.63,7.29,40.66,7.14Z"/><path class="cls-6" d="M34,35a5.36,5.36,0,0,0,2.91-1.21c.54-.42,1-.89,1.58-1.33l0-.11h-.79c-1,0-2.07.06-3.1.11A4.64,4.64,0,0,0,31.48,34,3,3,0,0,0,34,35Zm-.23-1.19a2.43,2.43,0,0,1-1.56-.41,4.24,4.24,0,0,1,2.24-.89l2.28-.08-.36.28A4.71,4.71,0,0,1,33.78,33.79Z"/><path class="cls-4" d="M3.43,59.16a.15.15,0,0,0,.07.05h.19l.25-.05A4.12,4.12,0,0,0,4.41,59l.91-.35c.6-.26,1.19-.53,1.77-.83,1.16-.58,2.29-1.23,3.39-1.92s2.18-1.42,3.24-2.18,2.08-1.56,3.08-2.38,2-1.69,2.94-2.57S21.62,47,22.52,46a77.74,77.74,0,0,0,5.1-5.93A78.22,78.22,0,0,0,35.91,26.8,81.43,81.43,0,0,0,41.41,12h0a82.1,82.1,0,0,1-5.71,14.65,76.57,76.57,0,0,1-8.4,13.14,71.24,71.24,0,0,1-5.14,5.82c-.91.93-1.83,1.83-2.78,2.71s-1.91,1.74-2.9,2.57-2,1.64-3,2.42-2.08,1.53-3.15,2.25S8.09,57,7,57.61q-.84.48-1.71.9c-.29.14-.59.27-.88.39l-.46.17-.23.06-.12,0-.09,0Z"/><path class="cls-7" d="M54,29a8.81,8.81,0,0,0,1.62-.75,12.19,12.19,0,0,0,1.45-1A10.21,10.21,0,0,0,58.26,26l.27-.34.26-.34c.09-.11.16-.23.25-.35l.12-.18.11-.18.11-.18.11-.18.2-.37c.07-.13.13-.25.19-.38l.09-.19.08-.19a11.18,11.18,0,0,0,.56-1.56A12.69,12.69,0,0,0,61,18.3h0l0,.4,0,.2v.21l-.05.4,0,.2,0,.19-.07.4c0,.13-.06.26-.1.4a7.59,7.59,0,0,1-.22.78A10.84,10.84,0,0,1,59.76,23l-.09.18-.09.18-.2.36-.22.35a1.74,1.74,0,0,1-.11.18l-.12.17a14.51,14.51,0,0,1-2.24,2.47,17.1,17.1,0,0,1-2.75,2.05Z"/><path class="cls-7" d="M51.57,31.32c0-.88-.08-1.74-.07-2.6s0-1.73.11-2.59q.07-.64.21-1.29c.08-.43.19-.86.31-1.28a15.62,15.62,0,0,1,.95-2.48l0,0-.16.29c-.06.1-.11.2-.16.3s-.21.4-.3.61c-.19.41-.36.82-.51,1.24s-.28.85-.39,1.29-.21.86-.28,1.3-.14.88-.18,1.32a8.42,8.42,0,0,0,0,1.33c0,.22,0,.44,0,.66s.06.43.1.65a6.24,6.24,0,0,0,.36,1.28Z"/><path class="cls-7" d="M44.58,38.36a10.57,10.57,0,0,0,2.25.06,14.31,14.31,0,0,0,2.24-.36,14.09,14.09,0,0,0,4.12-1.76A14.44,14.44,0,0,0,55,35l.21-.17.2-.19.4-.37.38-.38.19-.19.18-.2A17.51,17.51,0,0,0,58.92,30l0,0-.28.45-.14.22-.14.22-.3.43-.15.22c0,.07-.1.14-.15.21-.22.28-.43.56-.66.82l-.35.4-.37.39-.18.19-.19.18-.39.37-.4.35-.2.17-.22.17A13.59,13.59,0,0,1,53,36l-.24.13-.12.07-.12.06-.48.25-.5.22c-.16.08-.33.14-.5.21-.68.26-1.37.49-2.08.69a18.62,18.62,0,0,1-4.35.68Z"/><path class="cls-8" d="M44.88,38.9a2.44,2.44,0,0,0-1.78.41c-.18.15-.17.25,0,.39a2.7,2.7,0,0,0,1.26.64,6,6,0,0,0,2.5,0c.49-.09,1-.24,1.44-.37l0-.07A11.09,11.09,0,0,0,44.88,38.9Zm5-12.13h-.12c-.24.49-.51,1-.7,1.48-.32.86-.61,1.73-.89,2.6-.41,1.26.44,2.19,1.59,2.59.05,0,.18,0,.22-.1a4.31,4.31,0,0,0,.94-2A4.5,4.5,0,0,0,50.65,29C50.41,28.23,50.14,27.5,49.88,26.77ZM53,34.55a4.92,4.92,0,0,0,1-.6,17.64,17.64,0,0,0,2.73-2.12,1.59,1.59,0,0,0,.17-.18,13.8,13.8,0,0,0-3.81.11,4.58,4.58,0,0,0-2.78,1.8.23.23,0,0,0,0,.24A2.46,2.46,0,0,0,53,34.55ZM47.35,30s0,0-.07-.12c-.3.59-.59,1.12-.83,1.67s-.4,1.06-.58,1.59A1.68,1.68,0,0,0,46,34.52a3.85,3.85,0,0,0,1.35,1.41,7.15,7.15,0,0,0,.55-.89,3.08,3.08,0,0,0,.19-2.19C47.84,31.91,47.6,31,47.35,30Zm5-5.38a1.33,1.33,0,0,1-.06-.14l-.36,1c-.29.81-.55,1.63-.87,2.43a1.93,1.93,0,0,0,1.43,2.66,5.59,5.59,0,0,0,.87-1.89,2.51,2.51,0,0,0-.17-1.33ZM50.16,37a3.48,3.48,0,0,0,.83-.26,17.16,17.16,0,0,0,2.81-1.6L52.67,35c-.73-.08-1.45-.16-2.17-.22a3.43,3.43,0,0,0-1.91.49,3.13,3.13,0,0,0-1.08.91A3.8,3.8,0,0,0,50.16,37ZM55,31.18a2.18,2.18,0,0,0,.78-.46c.83-.82,1.62-1.66,2.43-2.49l.08-.06,0-.05-.93.15c-.69.13-1.37.28-2.06.38a2.42,2.42,0,0,0-1.54.83c-.35.41-.67.85-1,1.29A2.61,2.61,0,0,0,55,31.18ZM46.71,39a5.2,5.2,0,0,0,2.67-.42c.54-.22,1.06-.48,1.59-.72v-.08c-.21-.05-.43-.1-.64-.13l-2.58-.41a4.5,4.5,0,0,0-2.87.61A2.36,2.36,0,0,0,46.71,39Zm-1.46-4.89c-.12-.41-.27-.82-.43-1.29-.24.35-.45.63-.63.94a5.84,5.84,0,0,0-.76,1.91,1.61,1.61,0,0,0,1.12,1.91c.18.06.28,0,.36-.13s.31-.63.44-1A3.48,3.48,0,0,0,45.25,34.14Zm11.88-6.53c.69-.78,1.36-1.56,2-2.35a1.27,1.27,0,0,0,.11-.18c-.79.19-1.51.39-2.25.53a2.41,2.41,0,0,0-2,2,.31.31,0,0,0,.11.22A1.5,1.5,0,0,0,57.13,27.61Zm-2.59-5.2a2.34,2.34,0,0,0-.18-.48,1,1,0,0,0-.07.23c-.25,1.17-.49,2.34-.73,3.51a1.36,1.36,0,0,0,1,1.67,2.29,2.29,0,0,0,.65-2.29C55,24.18,54.77,23.29,54.54,22.41ZM42.61,34.93s0,0-.09-.08A5.61,5.61,0,0,0,41.84,38a1.87,1.87,0,0,0,.44.8c.23.29.42.26.69,0a1.57,1.57,0,0,0,.46-1.32A6,6,0,0,0,42.61,34.93ZM59.36,18.3c-1.08.5-2.45,3.46-2.28,4.81a1.22,1.22,0,0,0,.79-.49,4.34,4.34,0,0,0,.89-1.78C59,20,59.16,19.18,59.36,18.3Zm-2.77,6.61a1.44,1.44,0,0,0,1.79-.34c.3-.33.54-.71.8-1.06l1-1.35a4.35,4.35,0,0,0-.46.06,4.93,4.93,0,0,0-2,1.2A5,5,0,0,0,56.59,24.91ZM56,20.17a.07.07,0,0,0,0,0c-.18.87-.37,1.74-.53,2.62a1.66,1.66,0,0,0,.32,1.45,2.5,2.5,0,0,0,.46.34C56.86,23.52,56.71,20.86,56,20.17Z"/><path class="cls-9" d="M44.88,38.9a2.44,2.44,0,0,0-1.78.41c-.18.15-.17.25,0,.39a2.7,2.7,0,0,0,1.26.64,6,6,0,0,0,2.5,0c.49-.09,1-.24,1.44-.37l0-.07A11.09,11.09,0,0,0,44.88,38.9Zm-.07,0a8,8,0,0,1,2,.46h-.07a5.58,5.58,0,0,1-2.27.05,2.51,2.51,0,0,1-.83-.37A2.11,2.11,0,0,1,44.81,38.93Z"/><path class="cls-9" d="M50.16,37a3.48,3.48,0,0,0,.83-.26,17.16,17.16,0,0,0,2.81-1.6L52.67,35c-.73-.08-1.45-.16-2.17-.22a3.43,3.43,0,0,0-1.91.49,3.13,3.13,0,0,0-1.08.91A3.8,3.8,0,0,0,50.16,37Zm-.08-.9a2.84,2.84,0,0,1-1.82-.45,2.5,2.5,0,0,1,.57-.39,2.84,2.84,0,0,1,1.6-.44l1.7.17.28,0a13.57,13.57,0,0,1-1.64.85A2.8,2.8,0,0,1,50.08,36.11Z"/><path class="cls-9" d="M47.35,30s0,0-.07-.12c-.3.59-.59,1.12-.83,1.67s-.4,1.06-.58,1.59A1.68,1.68,0,0,0,46,34.52a3.85,3.85,0,0,0,1.35,1.41,7.15,7.15,0,0,0,.55-.89,3.08,3.08,0,0,0,.19-2.19C47.84,31.91,47.6,31,47.35,30Zm-.21.81c0,.16.08.33.13.49.12.48.23.87.33,1.23l0,.05a2.67,2.67,0,0,1-.19,1.85,2.57,2.57,0,0,1-.2.35,3.41,3.41,0,0,1-.75-.92,2,2,0,0,1-.14-.35h0a1.13,1.13,0,0,1,0-.68l0-.15a13.93,13.93,0,0,1,.51-1.41C47,31.12,47.06,31,47.14,30.82Z"/><path class="cls-9" d="M53,34.55a4.92,4.92,0,0,0,1-.6,17.64,17.64,0,0,0,2.73-2.12,1.59,1.59,0,0,0,.17-.18,13.8,13.8,0,0,0-3.81.11,4.58,4.58,0,0,0-2.78,1.8.23.23,0,0,0,0,.24A2.46,2.46,0,0,0,53,34.55Zm-2.11-1.33a4,4,0,0,1,2.34-1.44,9.49,9.49,0,0,1,2.57-.16,22.37,22.37,0,0,1-2.07,1.52l-.15.1a3.78,3.78,0,0,1-.77.44A1.89,1.89,0,0,1,50.91,33.22Z"/><path class="cls-9" d="M49.88,26.77h-.12c-.24.49-.51,1-.7,1.48-.32.86-.61,1.73-.89,2.6-.41,1.26.44,2.19,1.59,2.59.05,0,.18,0,.22-.1a4.31,4.31,0,0,0,.94-2A4.5,4.5,0,0,0,50.65,29C50.41,28.23,50.14,27.5,49.88,26.77Zm-.14.72c.14.39.28.78.41,1.18.07.21.12.39.16.54a3.32,3.32,0,0,1,.09,1.63,3.94,3.94,0,0,1-.7,1.61,1.78,1.78,0,0,1-1.08-1.11h0a1.45,1.45,0,0,1,0-.82c.3-.92.57-1.75.88-2.58C49.6,27.79,49.67,27.64,49.74,27.49Z"/><path class="cls-9" d="M55,31.18a2.18,2.18,0,0,0,.78-.46c.83-.82,1.62-1.66,2.43-2.49l.08-.06,0-.05-.93.15c-.69.13-1.37.28-2.06.38a2.42,2.42,0,0,0-1.54.83c-.35.41-.67.85-1,1.29A2.61,2.61,0,0,0,55,31.18Zm-1.56-1c.23-.3.45-.58.68-.85a1.85,1.85,0,0,1,1.2-.65c.47-.07.94-.16,1.4-.25l.24,0L55.42,30a1.51,1.51,0,0,1-.58.34A1.71,1.71,0,0,1,53.46,30.17Z"/><path class="cls-9" d="M42.61,34.93s0,0-.09-.08A5.61,5.61,0,0,0,41.84,38a1.87,1.87,0,0,0,.44.8c.23.29.42.26.69,0a1.57,1.57,0,0,0,.46-1.32A6,6,0,0,0,42.61,34.93Zm0,.7a4.43,4.43,0,0,1,.2.58,5.08,5.08,0,0,1,.14.84,1.15,1.15,0,0,1-.28.92,1.25,1.25,0,0,1-.27-.48.06.06,0,0,1,0,0A3.72,3.72,0,0,1,42.57,35.63Z"/><path class="cls-9" d="M45.25,34.14c-.12-.41-.27-.82-.43-1.29-.24.35-.45.63-.63.94a5.84,5.84,0,0,0-.76,1.91,1.61,1.61,0,0,0,1.12,1.91c.18.06.28,0,.36-.13s.31-.63.44-1A3.48,3.48,0,0,0,45.25,34.14Zm-.4.07a2.73,2.73,0,0,1,0,1.72c-.07.17-.15.34-.24.52l-.09.19a1.07,1.07,0,0,1-.58-.7h0a1.43,1.43,0,0,1,0-.62,5,5,0,0,1,.7-1.76v0c0,.1.07.2.09.29S44.82,34.1,44.85,34.21Z"/><path class="cls-9" d="M56,20.17a.07.07,0,0,0,0,0c-.18.87-.37,1.74-.53,2.62a1.66,1.66,0,0,0,.32,1.45,2.5,2.5,0,0,0,.46.34C56.86,23.52,56.71,20.86,56,20.17Zm.09,1.48A5.89,5.89,0,0,1,56,23.3l0-.14h0a1.64,1.64,0,0,1,0-.7C56,22.19,56,21.92,56.07,21.65Z"/><path class="cls-9" d="M56.59,24.91a1.44,1.44,0,0,0,1.79-.34c.3-.33.54-.71.8-1.06l1-1.35a4.35,4.35,0,0,0-.46.06,4.93,4.93,0,0,0-2,1.2A5,5,0,0,0,56.59,24.91Zm.73-.74a4.56,4.56,0,0,1,.73-.87,5.5,5.5,0,0,1,.79-.62l-.09.13-.24.33a7.82,7.82,0,0,1-.53.69A.9.9,0,0,1,57.32,24.17Z"/><path class="cls-9" d="M57.13,27.61c.69-.78,1.36-1.56,2-2.35a1.27,1.27,0,0,0,.11-.18c-.79.19-1.51.39-2.25.53a2.41,2.41,0,0,0-2,2,.31.31,0,0,0,.11.22A1.5,1.5,0,0,0,57.13,27.61Zm-1.58-.5a1.84,1.84,0,0,1,1.56-1.48l.87-.19c-.42.48-.84,1-1.26,1.44A.93.93,0,0,1,55.55,27.11Z"/><path class="cls-9" d="M52.37,24.63a1.33,1.33,0,0,1-.06-.14l-.36,1c-.29.81-.55,1.63-.87,2.43a1.93,1.93,0,0,0,1.43,2.66,5.59,5.59,0,0,0,.87-1.89,2.51,2.51,0,0,0-.17-1.33Zm-.1,1L52.7,27l0,.09c0,.12.07.23.1.34a1.48,1.48,0,0,1,0,.68,4.45,4.45,0,0,1-.58,1.36,1.52,1.52,0,0,1-.83-.94h0a1.45,1.45,0,0,1,.09-.95c.23-.56.43-1.13.62-1.68C52.2,25.82,52.23,25.72,52.27,25.62Z"/><path class="cls-9" d="M54.54,22.41a2.34,2.34,0,0,0-.18-.48,1,1,0,0,0-.07.23c-.25,1.17-.49,2.34-.73,3.51a1.36,1.36,0,0,0,1,1.67,2.29,2.29,0,0,0,.65-2.29C55,24.18,54.77,23.29,54.54,22.41Zm-.13,1.2,0,.07c.11.42.21.76.31,1.07l0,.1a1.63,1.63,0,0,1-.35,1.46.85.85,0,0,1-.35-.49h0a1.29,1.29,0,0,1,0-.52C54.18,24.74,54.29,24.17,54.41,23.61Z"/><path class="cls-9" d="M59.36,18.3c-1.08.5-2.45,3.46-2.28,4.81a1.22,1.22,0,0,0,.79-.49,4.34,4.34,0,0,0,.89-1.78C59,20,59.16,19.18,59.36,18.3Zm-1,1.51-.13.49a4.16,4.16,0,0,1-.56,1.3,8.06,8.06,0,0,1,.53-1.48A3,3,0,0,1,58.38,19.81Z"/><path class="cls-9" d="M46.71,39a5.2,5.2,0,0,0,2.67-.42c.54-.22,1.06-.48,1.59-.72v-.08c-.21-.05-.43-.1-.64-.13l-2.58-.41a4.5,4.5,0,0,0-2.87.61A2.36,2.36,0,0,0,46.71,39Zm.08-.9a2,2,0,0,1-1.19-.55,4.15,4.15,0,0,1,2-.29l1.89.3-.36.15A4.71,4.71,0,0,1,46.79,38.13Z"/><path class="cls-7" d="M16.18,51.8a.13.13,0,0,0,.06.05h.05l.11,0h.21l.42,0c.27,0,.55-.06.82-.11.55-.09,1.1-.2,1.64-.32,1.09-.24,2.16-.53,3.22-.86s2.11-.69,3.14-1.08,2.06-.8,3.07-1.24,2-.92,3-1.41,1.95-1,2.9-1.56c1.89-1.09,3.73-2.27,5.51-3.52a67.23,67.23,0,0,0,9.77-8.38,65.73,65.73,0,0,0,7.82-9.89l0,0a65.39,65.39,0,0,1-8,9.77,66.14,66.14,0,0,1-9.83,8.24c-1.77,1.23-3.62,2.37-5.52,3.43-1,.53-1.91,1-2.89,1.53s-2,1-3,1.41-2,.88-3,1.29-2.05.78-3.09,1.14-2.09.68-3.16,1c-.53.14-1.07.28-1.61.39l-.82.14-.41.05h-.3l-.07,0Z"/><path class="cls-1" d="M31.27,45.72a2.48,2.48,0,0,1,.77-.21c.31,0,0,.17-.27.35-2.21,1.28-4.36,2.78-6.85,3.93-5,2.3-10.91,2.38-16.08,4.28-.35.12-.69.22-1,.32a.87.87,0,0,1-.17-.33,22.69,22.69,0,0,1,3.83-1.47c3.18-1.1,7-1.41,9.9-2.1C25,49.63,28.08,47.38,31.27,45.72Z"/><path class="cls-1" d="M26.68,48.92a7.2,7.2,0,0,0,1.53.14,9.92,9.92,0,0,0,1.54-.15,7.88,7.88,0,0,0,1.49-.42l.35-.14.36-.16.34-.17.18-.09.16-.09.17-.09.17-.1.33-.2.32-.22.15-.11.16-.11a12.23,12.23,0,0,0,1.16-1A12.71,12.71,0,0,0,37,43.6l0,0-.22.31-.11.16,0,.07-.06.08-.23.29-.12.15-.12.15-.25.28-.26.27c-.17.19-.36.36-.54.53a11.76,11.76,0,0,1-1.18.93l-.15.11-.16.1-.32.19-.33.19-.16.08-.17.09a13.19,13.19,0,0,1-2.82,1,13.34,13.34,0,0,1-3,.37Z"/><path class="cls-1" d="M23.83,49.7c.39-.73.79-1.43,1.22-2.12s.86-1.38,1.35-2c.25-.32.51-.63.78-.94s.56-.6.85-.88a16.66,16.66,0,0,1,1.89-1.56l0,0-.26.16-.26.16c-.17.12-.35.23-.51.35-.34.24-.66.5-1,.77s-.62.55-.91.85-.57.6-.84.92-.52.64-.77,1a9.78,9.78,0,0,0-.67,1c-.1.19-.2.37-.29.56l-.25.57a7.13,7.13,0,0,0-.37,1.19Z"/><path class="cls-1" d="M15.38,52.13A7.75,7.75,0,0,0,17,53.21a10.22,10.22,0,0,0,1.77.75,11,11,0,0,0,3.81.49,12.28,12.28,0,0,0,1.91-.22l.24,0,.23,0,.47-.11.46-.14.23-.07.22-.08a16,16,0,0,0,3.42-1.68l0,0-.42.23-.21.12-.21.11-.42.21-.22.1-.21.1c-.29.12-.58.25-.88.35l-.44.17-.45.14-.23.07-.22.06-.46.11-.46.1-.23,0-.23,0a13.09,13.09,0,0,1-1.87.15h-.47l-.47,0-.46,0c-.16,0-.31,0-.47-.06-.61-.1-1.22-.24-1.82-.4A14.34,14.34,0,0,1,15.4,52.1Z"/><path class="cls-2" d="M15.32,52.7a1.87,1.87,0,0,0-1.47-.49c-.2,0-.24.13-.2.31a2.46,2.46,0,0,0,.59,1.1,4.58,4.58,0,0,0,1.81,1.11,10.53,10.53,0,0,0,1.21.37V55A9,9,0,0,0,15.32,52.7Zm9.52-7.43-.08-.06c-.41.28-.83.54-1.22.86-.65.54-1.28,1.11-1.91,1.68a2,2,0,0,0-.13,2.81s.15,0,.21,0a4,4,0,0,0,1.63-1.14,4.7,4.7,0,0,0,1-2C24.51,46.68,24.67,46,24.84,45.27ZM23.28,53a4,4,0,0,0,1,0,15.2,15.2,0,0,0,3-.44l.21-.07a10.93,10.93,0,0,0-2.78-1.67,3.81,3.81,0,0,0-2.87.17c-.06,0-.14.13-.13.18A2,2,0,0,0,23.28,53ZM21.45,46.7s0,0,0-.12c-.5.33-1,.62-1.41,1s-.81.67-1.2,1a1.76,1.76,0,0,0-.56,1.17,3.6,3.6,0,0,0,.27,1.75,5.92,5.92,0,0,0,.83-.45,3.18,3.18,0,0,0,1.21-1.67C20.87,48.45,21.17,47.58,21.45,46.7Zm6.22-2s0-.06,0-.14l-.72.6c-.6.52-1.19,1.05-1.82,1.55a1.88,1.88,0,0,0-.27,2.79,5.7,5.7,0,0,0,1.55-1.11A2.51,2.51,0,0,0,27,47.24C27.2,46.39,27.44,45.54,27.67,44.7ZM20,53.62a2.51,2.51,0,0,0,.73.17,13.57,13.57,0,0,0,2.78,0l-.75-.63c-.47-.39-.95-.79-1.44-1.17a2.7,2.7,0,0,0-1.6-.49,2.66,2.66,0,0,0-1.22.24A3.08,3.08,0,0,0,20,53.62Zm6.33-2.44a1.76,1.76,0,0,0,.79,0c1-.27,2-.58,3-.87h.09v-.07l-.75-.31c-.55-.21-1.11-.4-1.65-.64a1.89,1.89,0,0,0-1.51,0c-.45.16-.89.37-1.36.56A2.09,2.09,0,0,0,26.36,51.18Zm-9.79,2.47a4.05,4.05,0,0,0,2.12.89c.49.08,1,.11,1.49.16l0-.07-.4-.4c-.54-.51-1.08-1-1.64-1.52a3.49,3.49,0,0,0-2.35-.83A2.08,2.08,0,0,0,16.57,53.65Zm1.35-4.6c.12-.39.21-.78.33-1.24-.34.18-.63.31-.91.47a5.62,5.62,0,0,0-1.48,1.18,1.57,1.57,0,0,0-.14,2c.1.13.18.18.32.07s.54-.37.79-.57A3.56,3.56,0,0,0,17.92,49.05Zm11.7.24,2.61-.95.16-.1c-.66-.21-1.27-.38-1.86-.61a2.1,2.1,0,0,0-2.44.7.22.22,0,0,0,0,.22A1.18,1.18,0,0,0,29.62,49.29Zm.69-5.37a1.79,1.79,0,0,0,.11-.47l-.16.15c-.75.83-1.5,1.65-2.24,2.48a1.34,1.34,0,0,0-.08,1.83,2.28,2.28,0,0,0,1.59-1.55C29.75,45.54,30.05,44.73,30.31,43.92ZM15.65,48.47s0,0,0-.11a5.58,5.58,0,0,0-2,2.19,2,2,0,0,0-.08.85c0,.34.17.41.5.32a1.58,1.58,0,0,0,1-.85A6.13,6.13,0,0,0,15.65,48.47Zm20.13-5.63c-1-.09-3.45,1.65-4,2.81a1,1,0,0,0,.8,0,4.38,4.38,0,0,0,1.52-1C34.66,44,35.2,43.45,35.78,42.84Zm-5.22,4a1.12,1.12,0,0,0,1.45.55c.37-.13.73-.32,1.09-.48l1.36-.62a2.19,2.19,0,0,0-.35-.17,4,4,0,0,0-2,0A4.59,4.59,0,0,0,30.56,46.87Zm1.88-4.09,0,0c-.56.62-1.12,1.23-1.66,1.87A1.68,1.68,0,0,0,30.25,46a2.4,2.4,0,0,0,.15.48C31.43,45.88,32.63,43.68,32.44,42.78Z"/><path class="cls-3" d="M15.32,52.7a1.87,1.87,0,0,0-1.47-.49c-.2,0-.24.13-.2.31a2.46,2.46,0,0,0,.59,1.1,4.58,4.58,0,0,0,1.81,1.11,10.53,10.53,0,0,0,1.21.37V55A9,9,0,0,0,15.32,52.7Zm-.06,0A6.54,6.54,0,0,1,16.48,54l-.06,0a4.31,4.31,0,0,1-1.65-1,2,2,0,0,1-.41-.68A1.7,1.7,0,0,1,15.26,52.69Z"/><path class="cls-3" d="M20,53.62a2.51,2.51,0,0,0,.73.17,13.57,13.57,0,0,0,2.78,0l-.75-.63c-.47-.39-.95-.79-1.44-1.17a2.7,2.7,0,0,0-1.6-.49,2.66,2.66,0,0,0-1.22.24A3.08,3.08,0,0,0,20,53.62Zm.39-.76a2.23,2.23,0,0,1-1.09-1.2,2,2,0,0,1,.6,0,2.24,2.24,0,0,1,1.36.38l1.14.93.18.15A11.57,11.57,0,0,1,21,53,2.18,2.18,0,0,1,20.42,52.86Z"/><path class="cls-3" d="M21.45,46.7s0,0,0-.12c-.5.33-1,.62-1.41,1s-.81.67-1.2,1a1.76,1.76,0,0,0-.56,1.17,3.6,3.6,0,0,0,.27,1.75,5.92,5.92,0,0,0,.83-.45,3.18,3.18,0,0,0,1.21-1.67C20.87,48.45,21.17,47.58,21.45,46.7Zm-.55.55-.15.46c-.14.45-.26.81-.36,1.14l0,0a2.77,2.77,0,0,1-1,1.4,2.32,2.32,0,0,1-.31.19,2.88,2.88,0,0,1-.09-1.09,1.36,1.36,0,0,1,.07-.35h0a1.12,1.12,0,0,1,.35-.53l.1-.1c.34-.31.7-.62,1.06-.9Z"/><path class="cls-3" d="M23.28,53a4,4,0,0,0,1,0,15.2,15.2,0,0,0,3-.44l.21-.07a10.93,10.93,0,0,0-2.78-1.67,3.81,3.81,0,0,0-2.87.17c-.06,0-.14.13-.13.18A2,2,0,0,0,23.28,53Zm-.86-2a3.28,3.28,0,0,1,2.39-.07,7.18,7.18,0,0,1,1.91,1,17.54,17.54,0,0,1-2.23.26l-.15,0a3.21,3.21,0,0,1-.76,0A1.55,1.55,0,0,1,22.42,50.92Z"/><path class="cls-3" d="M24.84,45.27l-.08-.06c-.41.28-.83.54-1.22.86-.65.54-1.28,1.11-1.91,1.68a2,2,0,0,0-.13,2.81s.15,0,.21,0a4,4,0,0,0,1.63-1.14,4.7,4.7,0,0,0,1-2C24.51,46.68,24.67,46,24.84,45.27Zm-.45.51c-.09.38-.18.76-.28,1.13-.06.21-.11.37-.15.52a3.38,3.38,0,0,1-.74,1.35,3.73,3.73,0,0,1-1.29,1,1.73,1.73,0,0,1-.23-1.39h0a1.51,1.51,0,0,1,.44-.64c.66-.6,1.26-1.14,1.89-1.67Z"/><path class="cls-3" d="M26.36,51.18a1.76,1.76,0,0,0,.79,0c1-.27,2-.58,3-.87h.09v-.07l-.75-.31c-.55-.21-1.11-.4-1.65-.64a1.89,1.89,0,0,0-1.51,0c-.45.16-.89.37-1.36.56A2.09,2.09,0,0,0,26.36,51.18Zm-.62-1.53c.31-.13.6-.26.9-.37a1.51,1.51,0,0,1,1.18,0c.37.17.75.31,1.12.45l.2.07-1.9.56a1.41,1.41,0,0,1-.58,0A1.33,1.33,0,0,1,25.74,49.65Z"/><path class="cls-3" d="M15.65,48.47s0,0,0-.11a5.58,5.58,0,0,0-2,2.19,2,2,0,0,0-.08.85c0,.34.17.41.5.32a1.58,1.58,0,0,0,1-.85A6.13,6.13,0,0,0,15.65,48.47Zm-.37.54a4.58,4.58,0,0,1-.15.56,4.43,4.43,0,0,1-.31.74,1.13,1.13,0,0,1-.65.61,1.49,1.49,0,0,1,0-.51l0,0A3.78,3.78,0,0,1,15.28,49Z"/><path class="cls-3" d="M17.92,49.05c.12-.39.21-.78.33-1.24-.34.18-.63.31-.91.47a5.62,5.62,0,0,0-1.48,1.18,1.57,1.57,0,0,0-.14,2c.1.13.18.18.32.07s.54-.37.79-.57A3.56,3.56,0,0,0,17.92,49.05Zm-.31-.13a2.86,2.86,0,0,1-.84,1.39l-.43.31-.16.11a1,1,0,0,1-.07-.83h0a1.59,1.59,0,0,1,.3-.51,5,5,0,0,1,1.36-1.08l0,0c0,.1-.05.19-.08.28Z"/><path class="cls-3" d="M32.44,42.78l0,0c-.56.62-1.12,1.23-1.66,1.87A1.68,1.68,0,0,0,30.25,46a2.4,2.4,0,0,0,.15.48C31.43,45.88,32.63,43.68,32.44,42.78ZM31.78,44a5.56,5.56,0,0,1-.88,1.28.65.65,0,0,1,0-.13h0a1.65,1.65,0,0,1,.34-.57Z"/><path class="cls-3" d="M30.56,46.87a1.12,1.12,0,0,0,1.45.55c.37-.13.73-.32,1.09-.48l1.36-.62a2.19,2.19,0,0,0-.35-.17,4,4,0,0,0-2,0A4.59,4.59,0,0,0,30.56,46.87Zm.88-.25a4.57,4.57,0,0,1,.95-.37,4.08,4.08,0,0,1,.87-.13l-.13.06-.33.15a4.88,4.88,0,0,1-.72.31A.74.74,0,0,1,31.44,46.62Z"/><path class="cls-3" d="M29.62,49.29l2.61-.95.16-.1c-.66-.21-1.27-.38-1.86-.61a2.1,2.1,0,0,0-2.44.7.22.22,0,0,0,0,.22A1.18,1.18,0,0,0,29.62,49.29Zm-.89-1.13a1.6,1.6,0,0,1,1.85-.47l.71.25-1.6.58A.75.75,0,0,1,28.73,48.16Z"/><path class="cls-3" d="M27.67,44.7s0-.06,0-.14l-.72.6c-.6.52-1.19,1.05-1.82,1.55a1.88,1.88,0,0,0-.27,2.79,5.7,5.7,0,0,0,1.55-1.11A2.51,2.51,0,0,0,27,47.24C27.2,46.39,27.44,45.54,27.67,44.7Zm-.56.75-.36,1.31,0,.09-.09.31a1.52,1.52,0,0,1-.31.57,4.38,4.38,0,0,1-1.08.83,1.45,1.45,0,0,1-.13-1.14h0a1.57,1.57,0,0,1,.53-.72c.44-.34.86-.71,1.26-1.06Z"/><path class="cls-3" d="M30.31,43.92a1.79,1.79,0,0,0,.11-.47l-.16.15c-.75.83-1.5,1.65-2.24,2.48a1.34,1.34,0,0,0-.08,1.83,2.28,2.28,0,0,0,1.59-1.55C29.75,45.54,30.05,44.73,30.31,43.92Zm-.67.9,0,.07c-.12.38-.22.7-.3,1a.29.29,0,0,0,0,.09,1.7,1.7,0,0,1-1,1,.83.83,0,0,1,0-.56h0a1.14,1.14,0,0,1,.25-.42Z"/><path class="cls-3" d="M35.78,42.84c-1-.09-3.45,1.65-4,2.81a1,1,0,0,0,.8,0,4.38,4.38,0,0,0,1.52-1C34.66,44,35.2,43.45,35.78,42.84Zm-1.44.76-.34.34a4,4,0,0,1-1,.78,7,7,0,0,1,1.1-.94A2.11,2.11,0,0,1,34.34,43.6Z"/><path class="cls-3" d="M16.57,53.65a4.05,4.05,0,0,0,2.12.89c.49.08,1,.11,1.49.16l0-.07-.4-.4c-.54-.51-1.08-1-1.64-1.52a3.49,3.49,0,0,0-2.35-.83A2.08,2.08,0,0,0,16.57,53.65Zm.51-.69a1.67,1.67,0,0,1-.59-1,3.11,3.11,0,0,1,1.6.7l1.21,1.11-.34,0A3.46,3.46,0,0,1,17.08,53Z"/><path class="cls-1" d="M21,35.07a2.58,2.58,0,0,1,.46-.65c.24-.19.13.12,0,.44-.89,2.4-1.59,4.92-2.77,7.39C16.27,47.2,11.74,51,9,55.79c-.18.32-.38.61-.58.9A1,1,0,0,1,8,56.55a21.9,21.9,0,0,1,2-3.58c1.75-2.87,4.48-5.53,6.3-7.92C18.61,42.08,19.55,38.38,21,35.07Z"/><path class="cls-1" d="M19.45,40.46a6.81,6.81,0,0,0,1.27-.87,10.2,10.2,0,0,0,1.09-1.09,8.69,8.69,0,0,0,.88-1.27l.18-.34.17-.34c.06-.12.11-.24.16-.35l.08-.18.07-.18.07-.18a1.34,1.34,0,0,0,.07-.18l.12-.36c0-.13.08-.25.11-.37a1.33,1.33,0,0,0,.05-.19l.05-.18a11.23,11.23,0,0,0,.26-1.52,12.88,12.88,0,0,0-.1-3h0l0,.37,0,.19v1.33c0,.12,0,.25,0,.37s-.06.5-.09.75a10.37,10.37,0,0,1-.31,1.47l0,.18-.06.18-.12.35-.14.35a1.22,1.22,0,0,1-.07.17l-.07.17a12.89,12.89,0,0,1-1.57,2.53,13.62,13.62,0,0,1-2.05,2.18Z"/><path class="cls-1" d="M17.75,42.88c-.17-.81-.3-1.61-.41-2.41s-.22-1.61-.25-2.43c0-.4,0-.81,0-1.22s.05-.81.09-1.22a16.42,16.42,0,0,1,.47-2.4l0,0-.1.29c0,.1-.07.2-.09.3s-.12.39-.17.59c-.11.4-.2.81-.27,1.21s-.12.82-.16,1.24-.06.82-.06,1.24,0,.83,0,1.24a8.57,8.57,0,0,0,.15,1.24c0,.21.09.41.14.61s.1.4.17.6a6.13,6.13,0,0,0,.47,1.16Z"/><path class="cls-1" d="M12.77,50.14A7.69,7.69,0,0,0,14.68,50a10.07,10.07,0,0,0,1.85-.55,10.86,10.86,0,0,0,3.24-2A11.64,11.64,0,0,0,21.11,46l.16-.18.14-.19.29-.39.27-.39.13-.2.13-.21A15.9,15.9,0,0,0,23.79,41h0l-.18.44-.08.22-.09.22-.2.43-.1.22-.1.21c-.15.28-.29.56-.45.83l-.24.41-.26.39-.13.2-.13.19-.28.38-.3.37c-.05.06-.09.12-.15.18l-.15.18a11.85,11.85,0,0,1-1.35,1.3l-.18.15-.09.07-.1.07-.37.28-.39.26-.4.24a17.3,17.3,0,0,1-1.66.85,14,14,0,0,1-3.6,1.06Z"/><path class="cls-2" d="M13.1,50.61a1.88,1.88,0,0,0-1.45.56c-.13.15-.11.25,0,.36a2.33,2.33,0,0,0,1.15.47A4.61,4.61,0,0,0,15,51.71a10.74,10.74,0,0,0,1.17-.49s0,0-.06,0A8.83,8.83,0,0,0,13.1,50.61Zm2.6-11.8h-.1c-.13.48-.29,1-.39,1.45-.16.83-.28,1.67-.4,2.5A2,2,0,0,0,16.5,45s.14-.06.17-.12A4.16,4.16,0,0,0,17.2,43a4.58,4.58,0,0,0-.55-2.21C16.35,40.12,16,39.47,15.7,38.81Zm3.7,6.94a4.19,4.19,0,0,0,.8-.66,16.06,16.06,0,0,0,2-2.25l.11-.19a10.62,10.62,0,0,0-3.21.49,3.75,3.75,0,0,0-2.1,2,.26.26,0,0,0,0,.23A2,2,0,0,0,19.4,45.75ZM14,42.08l-.07-.1c-.17.58-.36,1.1-.49,1.64s-.19,1-.27,1.54a1.72,1.72,0,0,0,.31,1.26,3.67,3.67,0,0,0,1.32,1.17,6.52,6.52,0,0,0,.36-.88A3.18,3.18,0,0,0,15,44.65C14.67,43.8,14.34,42.94,14,42.08Zm3.52-5.5a.57.57,0,0,0-.07-.13c-.06.34-.11.63-.17.92-.13.79-.24,1.58-.41,2.35a1.88,1.88,0,0,0,1.56,2.33,5.4,5.4,0,0,0,.49-1.84A2.56,2.56,0,0,0,18.59,39C18.24,38.18,17.88,37.38,17.52,36.58Zm-.21,11.74A2.32,2.32,0,0,0,18,48a14.23,14.23,0,0,0,2.16-1.76h-1l-1.86,0a2.67,2.67,0,0,0-1.54.65,2.55,2.55,0,0,0-.79,1A3.05,3.05,0,0,0,17.31,48.32Zm3.33-5.91a1.74,1.74,0,0,0,.6-.51c.59-.84,1.15-1.7,1.72-2.55l.06-.07,0,0-.77.23c-.56.19-1.12.4-1.68.55a1.93,1.93,0,0,0-1.19.93c-.25.42-.46.86-.69,1.3A2.09,2.09,0,0,0,20.64,42.41Zm-6,8.14a4,4,0,0,0,2.19-.66c.43-.26.84-.55,1.25-.83l0-.08-.56,0L15.3,48.8a3.54,3.54,0,0,0-2.35.86A2.14,2.14,0,0,0,14.67,50.55Zm-1.89-4.41c-.16-.37-.34-.74-.54-1.16-.15.35-.29.64-.4.94a5.32,5.32,0,0,0-.39,1.85,1.56,1.56,0,0,0,1.2,1.67c.16,0,.25,0,.29-.16s.18-.62.24-.94A3.66,3.66,0,0,0,12.78,46.14ZM22,38.88c.48-.8.94-1.6,1.41-2.39,0,0,0-.08.06-.18-.64.25-1.23.51-1.83.71a2.09,2.09,0,0,0-1.43,2.09.27.27,0,0,0,.12.2A1.19,1.19,0,0,0,22,38.88Zm-2.89-4.59a1.89,1.89,0,0,0-.21-.43,1.92,1.92,0,0,0,0,.22l-.15,3.34a1.34,1.34,0,0,0,1.1,1.46,2.3,2.3,0,0,0,.25-2.2C19.66,35.9,19.38,35.09,19.06,34.29ZM10.65,47.14s0,0-.08-.07a5.58,5.58,0,0,0-.16,3,2,2,0,0,0,.47.71c.24.24.4.2.59-.08a1.55,1.55,0,0,0,.21-1.27A6.11,6.11,0,0,0,10.65,47.14ZM22.59,30c-.84.58-1.61,3.47-1.28,4.71a1,1,0,0,0,.6-.53,4.33,4.33,0,0,0,.52-1.75C22.5,31.62,22.54,30.83,22.59,30Zm-1.45,6.44a1.12,1.12,0,0,0,1.46-.51,11.7,11.7,0,0,0,.54-1.06c.21-.43.42-.86.65-1.35a2.14,2.14,0,0,0-.37.1,4,4,0,0,0-1.56,1.32A4.44,4.44,0,0,0,21.14,36.42ZM20,32.06s0,0,0,0c0,.83-.09,1.66-.1,2.49a1.76,1.76,0,0,0,.46,1.33,3.52,3.52,0,0,0,.43.27C21.17,35.09,20.69,32.64,20,32.06Z"/><path class="cls-3" d="M13.1,50.61a1.88,1.88,0,0,0-1.45.56c-.13.15-.11.25,0,.36a2.33,2.33,0,0,0,1.15.47A4.61,4.61,0,0,0,15,51.71a10.74,10.74,0,0,0,1.17-.49s0,0-.06,0A8.83,8.83,0,0,0,13.1,50.61Zm-.06,0a6.49,6.49,0,0,1,1.76.23l-.05,0a4.37,4.37,0,0,1-1.91.27,2,2,0,0,1-.76-.26A1.61,1.61,0,0,1,13,50.64Z"/><path class="cls-3" d="M17.31,48.32A2.32,2.32,0,0,0,18,48a14.23,14.23,0,0,0,2.16-1.76h-1l-1.86,0a2.67,2.67,0,0,0-1.54.65,2.55,2.55,0,0,0-.79,1A3.05,3.05,0,0,0,17.31,48.32Zm-.19-.83a2.25,2.25,0,0,1-1.6-.23,2.19,2.19,0,0,1,.43-.43,2.24,2.24,0,0,1,1.29-.56H19a12.31,12.31,0,0,1-1.27,1A2.44,2.44,0,0,1,17.12,47.49Z"/><path class="cls-3" d="M14,42.08l-.07-.1c-.17.58-.36,1.1-.49,1.64s-.19,1-.27,1.54a1.72,1.72,0,0,0,.31,1.26,3.67,3.67,0,0,0,1.32,1.17,6.52,6.52,0,0,0,.36-.88A3.18,3.18,0,0,0,15,44.65C14.67,43.8,14.34,42.94,14,42.08Zm-.07.78c.06.15.12.3.17.45l.45,1.1,0,.05a2.71,2.71,0,0,1,.09,1.74,1.74,1.74,0,0,1-.12.34,3,3,0,0,1-.76-.78,1.34,1.34,0,0,1-.17-.31h0a1.25,1.25,0,0,1-.07-.63l0-.15c.07-.45.14-.92.25-1.36A3.74,3.74,0,0,1,13.93,42.86Z"/><path class="cls-3" d="M19.4,45.75a4.19,4.19,0,0,0,.8-.66,16.06,16.06,0,0,0,2-2.25l.11-.19a10.62,10.62,0,0,0-3.21.49,3.75,3.75,0,0,0-2.1,2,.26.26,0,0,0,0,.23A2,2,0,0,0,19.4,45.75Zm-2-1a3.31,3.31,0,0,1,1.79-1.58,7.52,7.52,0,0,1,2.14-.4,18.31,18.31,0,0,1-1.54,1.62l-.11.1a2.84,2.84,0,0,1-.59.49A1.52,1.52,0,0,1,17.44,44.72Z"/><path class="cls-3" d="M15.7,38.81h-.1c-.13.48-.29,1-.39,1.45-.16.83-.28,1.67-.4,2.5A2,2,0,0,0,16.5,45s.14-.06.17-.12A4.16,4.16,0,0,0,17.2,43a4.58,4.58,0,0,0-.55-2.21C16.35,40.12,16,39.47,15.7,38.81Zm0,.69c.17.35.35.7.51,1l.21.5a3.41,3.41,0,0,1,.29,1.51,3.77,3.77,0,0,1-.38,1.57,1.71,1.71,0,0,1-1.06-.93h0a1.51,1.51,0,0,1-.07-.77c.13-.89.25-1.69.4-2.49C15.61,39.79,15.64,39.65,15.68,39.5Z"/><path class="cls-3" d="M20.64,42.41a1.74,1.74,0,0,0,.6-.51c.59-.84,1.15-1.7,1.72-2.55l.06-.07,0,0-.77.23c-.56.19-1.12.4-1.68.55a1.93,1.93,0,0,0-1.19.93c-.25.42-.46.86-.69,1.3A2.09,2.09,0,0,0,20.64,42.41Zm-1.45-.79c.15-.3.3-.58.46-.85a1.47,1.47,0,0,1,.93-.73c.39-.11.77-.24,1.15-.37l.19-.07c-.36.55-.73,1.1-1.11,1.64a1.16,1.16,0,0,1-.44.37A1.34,1.34,0,0,1,19.19,41.62Z"/><path class="cls-3" d="M10.65,47.14s0,0-.08-.07a5.58,5.58,0,0,0-.16,3,2,2,0,0,0,.47.71c.24.24.4.2.59-.08a1.55,1.55,0,0,0,.21-1.27A6.11,6.11,0,0,0,10.65,47.14Zm.06.65a3.1,3.1,0,0,1,.24.53,5.56,5.56,0,0,1,.24.76,1.19,1.19,0,0,1-.12.89,1.44,1.44,0,0,1-.29-.42l0,0A3.82,3.82,0,0,1,10.71,47.79Z"/><path class="cls-3" d="M12.78,46.14c-.16-.37-.34-.74-.54-1.16-.15.35-.29.64-.4.94a5.32,5.32,0,0,0-.39,1.85,1.56,1.56,0,0,0,1.2,1.67c.16,0,.25,0,.29-.16s.18-.62.24-.94A3.66,3.66,0,0,0,12.78,46.14Zm-.33.1a2.88,2.88,0,0,1,.23,1.61c0,.16-.08.33-.13.5a1.05,1.05,0,0,1-.05.19,1.05,1.05,0,0,1-.58-.59h0a1.54,1.54,0,0,1-.1-.58,5.3,5.3,0,0,1,.36-1.71v0l.12.26Z"/><path class="cls-3" d="M20,32.06s0,0,0,0c0,.83-.09,1.66-.1,2.49a1.76,1.76,0,0,0,.46,1.33,3.52,3.52,0,0,0,.43.27C21.17,35.09,20.69,32.64,20,32.06Zm.28,1.37A6.57,6.57,0,0,1,20.4,35a.38.38,0,0,1-.06-.13h0a1.59,1.59,0,0,1-.1-.65C20.24,34,20.25,33.69,20.26,33.43Z"/><path class="cls-3" d="M21.14,36.42a1.12,1.12,0,0,0,1.46-.51,11.7,11.7,0,0,0,.54-1.06c.21-.43.42-.86.65-1.35a2.14,2.14,0,0,0-.37.1,4,4,0,0,0-1.56,1.32A4.44,4.44,0,0,0,21.14,36.42Zm.51-.76a4.32,4.32,0,0,1,.5-.89,4.77,4.77,0,0,1,.59-.66l-.06.14-.16.32a7.6,7.6,0,0,1-.36.7A.74.74,0,0,1,21.65,35.66Z"/><path class="cls-3" d="M22,38.88c.48-.8.94-1.6,1.41-2.39,0,0,0-.08.06-.18-.64.25-1.23.51-1.83.71a2.09,2.09,0,0,0-1.43,2.09.27.27,0,0,0,.12.2A1.19,1.19,0,0,0,22,38.88Zm-1.4-.31A1.59,1.59,0,0,1,21.67,37l.7-.26c-.28.49-.57,1-.86,1.47A.74.74,0,0,1,20.55,38.57Z"/><path class="cls-3" d="M17.52,36.58a.57.57,0,0,0-.07-.13c-.06.34-.11.63-.17.92-.13.79-.24,1.58-.41,2.35a1.88,1.88,0,0,0,1.56,2.33,5.4,5.4,0,0,0,.49-1.84A2.56,2.56,0,0,0,18.59,39C18.24,38.18,17.88,37.38,17.52,36.58Zm.05.93c.19.41.37.83.55,1.25l0,.08.13.3a1.5,1.5,0,0,1,.13.63,4.78,4.78,0,0,1-.31,1.33,1.47,1.47,0,0,1-.83-.79h0a1.59,1.59,0,0,1-.05-.9c.12-.54.21-1.09.3-1.62C17.54,37.7,17.56,37.61,17.57,37.51Z"/><path class="cls-3" d="M19.06,34.29a1.89,1.89,0,0,0-.21-.43,1.92,1.92,0,0,0,0,.22l-.15,3.34a1.34,1.34,0,0,0,1.1,1.46,2.3,2.3,0,0,0,.25-2.2C19.66,35.9,19.38,35.09,19.06,34.29Zm.06,1.13,0,.07c.15.37.28.68.41,1a.36.36,0,0,0,0,.09,1.7,1.7,0,0,1-.1,1.4.77.77,0,0,1-.36-.43h0a1.06,1.06,0,0,1-.08-.48C19.07,36.49,19.09,36,19.12,35.42Z"/><path class="cls-3" d="M22.59,30c-.84.58-1.61,3.47-1.28,4.71a1,1,0,0,0,.6-.53,4.33,4.33,0,0,0,.52-1.75C22.5,31.62,22.54,30.83,22.59,30ZM22,31.48c0,.16,0,.32,0,.48a4,4,0,0,1-.3,1.26,8.13,8.13,0,0,1,.25-1.43Z"/><path class="cls-3" d="M14.67,50.55a4,4,0,0,0,2.19-.66c.43-.26.84-.55,1.25-.83l0-.08-.56,0L15.3,48.8a3.54,3.54,0,0,0-2.35.86A2.14,2.14,0,0,0,14.67,50.55Zm-.06-.85a1.77,1.77,0,0,1-1.08-.39,3.06,3.06,0,0,1,1.68-.47l1.64.08-.28.18A3.5,3.5,0,0,1,14.61,49.7Z"/></svg>