<svg id="Layer_1" data-name="Layer 1" xmlns="http://www.w3.org/2000/svg" viewBox="0 0 64 64"><defs><style>.cls-1,.cls-3{fill:#e1803a;}.cls-1,.cls-2,.cls-4,.cls-5,.cls-6,.cls-7{fill-rule:evenodd;}.cls-2{fill:#d07132;}.cls-4{fill:#ef9557;}.cls-5{fill:#feea9d;}.cls-6{fill:#887f31;}.cls-7{fill:#988e33;}</style></defs><path class="cls-1" d="M23.93,21.16l11.44-4.4,11.46-4.39a1.76,1.76,0,0,1,2.22.87l6,13.28q3.21,7.14,6.68,14.88A1.88,1.88,0,0,1,60.74,44l-13,5-13,5a1.86,1.86,0,0,1-2.4-1.27l-5-15.53c-1.55-4.8-3-9.41-4.45-13.86a1.75,1.75,0,0,1,1.06-2.13Z"/><path class="cls-2" d="M61.75,41.54a1.85,1.85,0,0,1-1,2.42l-13,5-13,5a1.85,1.85,0,0,1-2.35-1.13Z"/><path class="cls-2" d="M23.93,21.16l11.44-4.4,11.46-4.39a1.76,1.76,0,0,1,2.22.87l6,13.28.6,1.33C45.89,23,35.75,20.09,23.77,26.09l-.9-2.8a1.75,1.75,0,0,1,1.06-2.13Z"/><path class="cls-3" d="M24.85,23.65l0,.29h0a1.32,1.32,0,0,1-.82.71h0a2,2,0,0,1-.45.12,1.68,1.68,0,0,1-.5,0,.94.94,0,0,1-.76-.59l-1.57-4.09a.36.36,0,0,1,.22-.47L48,9.24a.37.37,0,0,1,.47.2l1.57,4.1a.91.91,0,0,1-.17.94,1.66,1.66,0,0,1-.38.32,2.82,2.82,0,0,1-.42.22A1.22,1.22,0,0,1,48,15l-.21-.19c-.36-.3-.78-.67-1.17-.52s-.34.47-.4.84a3.11,3.11,0,0,1-.16.67A.78.78,0,0,1,46,16h0a1.67,1.67,0,0,1-.85.72,1.58,1.58,0,0,1-1.11,0,.78.78,0,0,1-.21-.09,3.28,3.28,0,0,1-.56-.39c-.3-.23-.58-.47-.87-.36s-.35.48-.41.85a4.33,4.33,0,0,1-.16.67,1.19,1.19,0,0,1-.08.2h0a1.67,1.67,0,0,1-.86.73,1.69,1.69,0,0,1-1.11,0,1,1,0,0,1-.21-.1,3.19,3.19,0,0,1-.55-.39c-.3-.23-.59-.47-.88-.36s-.35.48-.41.86a5.23,5.23,0,0,1-.15.66l-.09.2h0a1.71,1.71,0,0,1-.86.73,1.69,1.69,0,0,1-1.11,0L35.31,20a4.56,4.56,0,0,1-.55-.4c-.3-.23-.58-.47-.88-.35s-.35.48-.42.85a3.11,3.11,0,0,1-.14.66,1,1,0,0,1-.09.21h0a1.66,1.66,0,0,1-.85.72,1.69,1.69,0,0,1-1.13,0l-.19-.1a3.28,3.28,0,0,1-.56-.39c-.3-.23-.58-.47-.88-.35s-.34.47-.4.84a3.42,3.42,0,0,1-.16.67,1,1,0,0,1-.09.21h0a1.68,1.68,0,0,1-2,.75.81.81,0,0,1-.21-.1,2.76,2.76,0,0,1-.56-.38c-.3-.24-.58-.47-.87-.36s-.45.71-.52,1.16Z"/><path class="cls-4" d="M43.83,11.88l2.66-1a.51.51,0,0,1,.67.3h0a.52.52,0,0,1-.29.68l-2.67,1a.53.53,0,0,1-.67-.32h0a.51.51,0,0,1,.3-.66ZM23.17,19.81l18.2-7a.54.54,0,0,1,.69.29h0a.55.55,0,0,1-.31.69l-18.2,7a.54.54,0,0,1-.68-.32h0a.51.51,0,0,1,.3-.66Z"/><path class="cls-5" d="M38.3,23.44A7.51,7.51,0,1,1,34,33.15a7.52,7.52,0,0,1,4.33-9.71Z"/><path class="cls-5" d="M39.15,41.87,50,37.71a.59.59,0,0,1,.76.34h0a.57.57,0,0,1-.34.75L39.57,43a.56.56,0,0,1-.75-.33h0a.59.59,0,0,1,.33-.76Zm1,2.58L51,40.29a.56.56,0,0,1,.75.33h0a.57.57,0,0,1-.34.74L40.55,45.52a.58.58,0,0,1-.75-.32h0a.58.58,0,0,1,.34-.75Z"/><path class="cls-6" d="M42.65,33.87a5.12,5.12,0,0,0,2.91-3.42c.42-1.58-.79-2.23-.85-4.4a5.16,5.16,0,0,0-2.06,7.82Z"/><path class="cls-7" d="M42.8,33.88a6.05,6.05,0,0,1-5.19-.69c-1.61-1-1-2.57-2.71-4.5a6,6,0,0,1,7.9,5.19Z"/></svg>