<svg xmlns="http://www.w3.org/2000/svg" xmlns:xlink="http://www.w3.org/1999/xlink" viewBox="0 0 65.74 92.54"><defs><style>.cls-1{fill:none;}.cls-2{isolation:isolate;}.cls-3{fill:#68442e;}.cls-4{fill:#b78067;}.cls-5{fill:#80413c;}.cls-5,.cls-7,.cls-8,.cls-9{opacity:0.5;}.cls-31,.cls-5,.cls-6,.cls-7,.cls-9{mix-blend-mode:multiply;}.cls-6,.cls-7,.cls-8{fill:#8a4c41;}.cls-35,.cls-6{opacity:0.3;}.cls-35,.cls-8{mix-blend-mode:screen;}.cls-9{fill:#542f27;}.cls-10{clip-path:url(#clip-path);}.cls-11{fill:#f68922;}.cls-11,.cls-12,.cls-13,.cls-14,.cls-15,.cls-16,.cls-17,.cls-18,.cls-20,.cls-21,.cls-22,.cls-23,.cls-24,.cls-25,.cls-26,.cls-27,.cls-28,.cls-29{fill-rule:evenodd;}.cls-12{fill:#f37921;}.cls-13{fill:#f89825;}.cls-14{fill:#f89a3d;}.cls-15{fill:#faaf1d;}.cls-16{fill:#f37f23;}.cls-17{fill:#ee7639;}.cls-18{fill:#676833;}.cls-19,.cls-29{fill:#516c3f;}.cls-20{fill:#fff;}.cls-21{fill:#f1ece0;}.cls-22{fill:#f06924;}.cls-23{fill:#c65027;}.cls-24{fill:#489844;}.cls-25{fill:#7fc342;}.cls-26{fill:#309245;}.cls-27{fill:#73bf44;}.cls-28{fill:#58803a;}.cls-30{fill:#cb8a54;}.cls-31{opacity:0.2;}.cls-32{fill:#814e2b;}.cls-33{fill:#a87244;}.cls-34{fill:#6a3e1b;}.cls-36{fill:#8b572f;}</style><clipPath id="clip-path"><rect class="cls-1" x="0.86" y="5.04" width="62.79" height="57.61"/></clipPath></defs><g class="cls-2"><g id="Layer_1" data-name="Layer 1"><rect class="cls-3" x="7.62" y="41.42" width="51.13" height="51.13" rx="2.64"/><path class="cls-4" d="M58.27,81.48a13.93,13.93,0,0,0-.37-2.33,3.53,3.53,0,0,0,.13-.54,7.71,7.71,0,0,0-.3-3.65,4.49,4.49,0,0,0-.17-.44,19.12,19.12,0,0,0,.52-5.43,20.8,20.8,0,0,0-.33-3.37c.85-1.9,1.12-4.52.28-5.8a13.64,13.64,0,0,0,.67-6.38c-.14-.69-.32-1.39-.53-2.07,0-.08.09-.16.13-.25a5.24,5.24,0,0,0,0-3.06,3.54,3.54,0,0,0-1.62-2.57c.34-1.86-1-3.59-3.3-4.08a12.62,12.62,0,0,0-6.74,1,7.78,7.78,0,0,0-2,1c-.63-.84-3.34-1.5-3.82-1.58a9.67,9.67,0,0,0-8.66,2.75c-1.62-3.43-6.21-3.56-9.54-3.13a12.46,12.46,0,0,0-4.44,1.33,7.14,7.14,0,0,0-.79-.11A4.61,4.61,0,0,0,15,42.41a7.14,7.14,0,0,0-4.17,2.51,5.21,5.21,0,0,0-1.06,5,6.61,6.61,0,0,0-.91,2A7.8,7.8,0,0,0,9,56.38a8.3,8.3,0,0,0-.72,1.73,6.38,6.38,0,0,0,.07,2.6c0,.23-.07.44-.09.68-.3,3.14-1,7.22.43,10.2a4.49,4.49,0,0,0-.94,2.53,8.55,8.55,0,0,0,.9,3.54A9.22,9.22,0,0,0,8.08,79a3.23,3.23,0,0,0,0,1.9c-.84,2.36-1,5.48.92,7a3.28,3.28,0,0,0,.45.31,7.08,7.08,0,0,0,.09,1.2,3.92,3.92,0,0,0,3.73,3.06,5.11,5.11,0,0,0,3.29-.91,1.85,1.85,0,0,0,1,.19,3.41,3.41,0,0,0,1.14-.38c1.33,1,3.08.79,4.66.73a17,17,0,0,0,3.83-.61,4.17,4.17,0,0,0,1.92.23,3.92,3.92,0,0,0,1.13-.36c.18.09.36.19.57.28a4.91,4.91,0,0,0,2.36.63A17.69,17.69,0,0,0,36,91.44a5.71,5.71,0,0,0,2.71.09,13.34,13.34,0,0,0,5.83.79,22.2,22.2,0,0,0,5.13-1,12.12,12.12,0,0,0,3.28-.21,6.12,6.12,0,0,0,4.82-4.36A6.82,6.82,0,0,0,57.94,84,6.27,6.27,0,0,0,58.27,81.48Z"/><path class="cls-5" d="M58.27,81.48a13.93,13.93,0,0,0-.37-2.33,3.53,3.53,0,0,0,.13-.54,7.71,7.71,0,0,0-.3-3.65,4.49,4.49,0,0,0-.17-.44,19.12,19.12,0,0,0,.52-5.43,20.8,20.8,0,0,0-.33-3.37c.85-1.9,1.12-4.52.28-5.8a13.64,13.64,0,0,0,.67-6.38c-.14-.69-.32-1.39-.53-2.07,0-.08.09-.16.13-.25a5.24,5.24,0,0,0,0-3.06,3.54,3.54,0,0,0-1.62-2.57c.34-1.86-1-3.59-3.3-4.08a12.62,12.62,0,0,0-6.74,1,7.78,7.78,0,0,0-2,1c-.63-.84-3.34-1.5-3.82-1.58a9.67,9.67,0,0,0-8.66,2.75c-1.62-3.43-6.21-3.56-9.54-3.13a12.46,12.46,0,0,0-4.44,1.33,7.14,7.14,0,0,0-.79-.11A4.61,4.61,0,0,0,15,42.41a7.14,7.14,0,0,0-4.17,2.51,5.21,5.21,0,0,0-1.06,5,6.61,6.61,0,0,0-.91,2A7.8,7.8,0,0,0,9,56.38a8.3,8.3,0,0,0-.72,1.73,6.38,6.38,0,0,0,.07,2.6c0,.23-.07.44-.09.68-.3,3.14-1,7.22.43,10.2a4.49,4.49,0,0,0-.94,2.53,8.55,8.55,0,0,0,.9,3.54A9.22,9.22,0,0,0,8.08,79a3.23,3.23,0,0,0,0,1.9c-.84,2.36-1,5.48.92,7a3.28,3.28,0,0,0,.45.31,7.08,7.08,0,0,0,.09,1.2,3.92,3.92,0,0,0,3.73,3.06,5.11,5.11,0,0,0,3.29-.91,1.85,1.85,0,0,0,1,.19,3.41,3.41,0,0,0,1.14-.38c1.33,1,3.08.79,4.66.73a17,17,0,0,0,3.83-.61,4.17,4.17,0,0,0,1.92.23,3.92,3.92,0,0,0,1.13-.36c.18.09.36.19.57.28a4.91,4.91,0,0,0,2.36.63A17.69,17.69,0,0,0,36,91.44a5.71,5.71,0,0,0,2.71.09,13.34,13.34,0,0,0,5.83.79,22.2,22.2,0,0,0,5.13-1,12.12,12.12,0,0,0,3.28-.21,6.12,6.12,0,0,0,4.82-4.36A6.82,6.82,0,0,0,57.94,84,6.27,6.27,0,0,0,58.27,81.48ZM48.73,81c-2,1.61-4.92,2.65-7.24,1.68a5.43,5.43,0,0,1-1.43-.87,5.56,5.56,0,0,1-.52.37,13.5,13.5,0,0,1-7.6,2.26c-2.37,0-5.78-.54-7.58-2.57a6.47,6.47,0,0,1-4.49,1.85,3.77,3.77,0,0,1-2-1c-1.77,1.91-4.74,2.89-6.66.72-1.76-2-2-5.82.19-7.2-1.08-.8-.29-3,1.07-3.6a6.5,6.5,0,0,1-2.66-6.91,11.35,11.35,0,0,1,2.38-4.27A2.8,2.8,0,0,1,10,59.91c-.61-1.42-.47-3.19.69-4-2.09-2.06-1-4.28,1-5.22-1.19-1.43-.63-4.15.54-5.48a5.12,5.12,0,0,1,4.23-1.62,5.6,5.6,0,0,1,2.28.63,3.88,3.88,0,0,1,1,.76,6.93,6.93,0,0,1,5.2-1.51,9,9,0,0,1,6.19,3.41A12.89,12.89,0,0,1,34.42,45a7,7,0,0,1,6.75.88,5.86,5.86,0,0,1,4-.39c1.33-.86,2.92-1.44,3.66-1.17,3.28,1.17,1.33,4.76-.63,7a4,4,0,0,1,1.93,1.1c2,2.09,2.21,5.68,1.29,8.6a16,16,0,0,1-3.6,6.07,2.93,2.93,0,0,1,.5,2.82.7.7,0,0,1-.06.19,5.74,5.74,0,0,1,2.79,4.31A7.11,7.11,0,0,1,48.73,81Z"/><path class="cls-5" d="M58.27,81.48a13.93,13.93,0,0,0-.37-2.33,3.53,3.53,0,0,0,.13-.54,7.71,7.71,0,0,0-.3-3.65,4.49,4.49,0,0,0-.17-.44,19.12,19.12,0,0,0,.52-5.43,20.8,20.8,0,0,0-.33-3.37c.85-1.9,1.12-4.52.28-5.8a13.64,13.64,0,0,0,.67-6.38c-.14-.69-.32-1.39-.53-2.07,0-.08.09-.16.13-.25a5.24,5.24,0,0,0,0-3.06,3.54,3.54,0,0,0-1.62-2.57c.33-1.85-1-3.59-3.29-4.08a4.34,4.34,0,0,1,2.29,4.21c2.94,1,2,5.54.41,6.26,2.28,1.37,1.76,4.52.43,7a5,5,0,0,1,.3,5.59,5.5,5.5,0,0,1-.43.64c1.78,2.15,1.26,7.07-.66,9.78,1,1.17,1.54,3.18.51,4.21,1.14,1.37,1.58,3.86.1,5.28.42,2.2-.94,4.85-3.15,5.32a5.36,5.36,0,0,1-4.94-2.07,4.86,4.86,0,0,1-3.56,2.81c-1.93.32-4.29-.88-4.63-3a1.49,1.49,0,0,1-2.55-.26c-1.18,2.45-5.41,3.48-7.25,1-2.22,2.74-8.07,3.15-10,.58a1.79,1.79,0,0,1-3.11-.4c-1,1.64-2.75,2.58-4.51,1.63a2.7,2.7,0,0,1-1.29-3.46,3.15,3.15,0,0,1-3.2-1.8,9.5,9.5,0,0,1-.62-1.49A5,5,0,0,0,9,88a3.28,3.28,0,0,0,.45.31,7.08,7.08,0,0,0,.09,1.2,3.92,3.92,0,0,0,3.73,3.06,5.11,5.11,0,0,0,3.29-.91,1.85,1.85,0,0,0,1,.19,3.41,3.41,0,0,0,1.14-.38c1.33,1,3.08.79,4.66.73a17,17,0,0,0,3.83-.61,4.17,4.17,0,0,0,1.92.23,3.92,3.92,0,0,0,1.13-.36c.18.09.36.19.57.28a4.91,4.91,0,0,0,2.36.63A17.69,17.69,0,0,0,36,91.44a5.71,5.71,0,0,0,2.71.09,13.34,13.34,0,0,0,5.83.79,22.2,22.2,0,0,0,5.13-1,12.12,12.12,0,0,0,3.28-.21,6.12,6.12,0,0,0,4.82-4.36A6.82,6.82,0,0,0,57.94,84,6.27,6.27,0,0,0,58.27,81.48Z"/><path class="cls-6" d="M16.32,47.4a2.46,2.46,0,0,0-1.06.78,3.62,3.62,0,0,0-.33.2c-.41.34-1,.94-.88,1.58a2.27,2.27,0,0,0,2,1.5c1.61.33,3.84-.55,4.43-2.21C21.24,47.15,17.4,47.06,16.32,47.4Z"/><path class="cls-7" d="M24.77,51.41a.7.7,0,0,0-.57-.26,1.48,1.48,0,0,0-1.38.43l-.09.1a1.3,1.3,0,0,0-.62,1.09c.07.56.74.65,1.19.59a1.94,1.94,0,0,0,1.35-1C24.78,52.08,25,51.7,24.77,51.41Z"/><path class="cls-7" d="M33.7,51.6a3.41,3.41,0,0,0-.54.1c-1.37,0-3.23,1.29-3,2.52s2.54,1,3.31.9a3.12,3.12,0,0,0,2.76-2C36.6,51.8,34.56,51.52,33.7,51.6Z"/><path class="cls-7" d="M44.78,49.56a1,1,0,0,0-.74.15c-.42.27-1,1.11-.32,1.31a1.45,1.45,0,0,0,1.56-1.17C45.28,49.54,45,49.49,44.78,49.56Z"/><path class="cls-8" d="M53.74,49.71a3,3,0,0,0-.49.09,1.61,1.61,0,0,0-.39,0,2.24,2.24,0,0,0-2,1.62c-.16,1.1,1.3,1.24,2.09,1.14a2.85,2.85,0,0,0,2.39-1.68C55.63,49.93,54.35,49.67,53.74,49.71Z"/><path class="cls-6" d="M20.08,62.55A3.1,3.1,0,0,0,17,62.6a5,5,0,0,0-.66.32l0,0-.1.06c-.89.54-2,1.57-1.47,2.71.75,1.71,3.81,1.26,4.92.41.62-.47,1.48-1.41,1.37-2.31A1.54,1.54,0,0,0,20.08,62.55Z"/><path class="cls-6" d="M15.15,58.44a1.31,1.31,0,0,0-1-.43,1.06,1.06,0,0,0-.31.05,1.68,1.68,0,0,0-.8.25c-.4.27-.8.95-.37,1.4a1.23,1.23,0,0,0,.91.3,1.85,1.85,0,0,0,1.12-.29C15,59.5,15.45,58.87,15.15,58.44Z"/><path class="cls-7" d="M44.88,65.84a1.85,1.85,0,0,0-.68-.31s0,0,0,0c-1.28-.66-3.34-.28-3.53,1.59-.09.85.82,1.26,1.46,1.33a2.93,2.93,0,0,0,2.31-.6C44.91,67.34,45.53,66.35,44.88,65.84Z"/><path class="cls-7" d="M26.89,59.82c-.39.07-1.16.59-1,1.06,0,.45.54.65,1.05.66s1.47-.19,1.61-.86C28.75,59.78,27.49,59.69,26.89,59.82Z"/><path class="cls-8" d="M46.05,75.41a2.55,2.55,0,0,1-.13-.29c0-.27-.06-.41-.29-.43a.68.68,0,0,0-.52-.12c-.51.06-1.31,1-.82,1.48a.94.94,0,0,0,1.28-.26l.07.06C45.78,76,46.12,75.55,46.05,75.41Z"/><path class="cls-8" d="M54.49,68.72l-.09,0a.73.73,0,0,0-.62-.08c-.88.3-1.78,1.8-.89,2.42A1.12,1.12,0,0,0,54,71a2.23,2.23,0,0,0,1.13-1.59C55.16,68.93,54.9,68.69,54.49,68.72Z"/><path class="cls-8" d="M50.69,67.15h0a.45.45,0,0,0-.36,0c-.49.16-1,1-.49,1.34a.66.66,0,0,0,.62,0,1.24,1.24,0,0,0,.64-.88A.31.31,0,0,0,50.69,67.15Z"/><path class="cls-7" d="M31.43,78.88c-.67-1.72-3.14-1.24-4.39-.72-.67.27-1.89,1.29-1.81,2.15-.18,1.28,1.74,1.74,2.86,1.76a3.45,3.45,0,0,0,2.55-.76A2.23,2.23,0,0,0,31.43,78.88Z"/><path class="cls-8" d="M14,86.56l0,0-.07-.06c-.36-.27-.9,0-1.11.37s-.41.9.12,1a1.27,1.27,0,0,0,1.2-.73C14.21,87,14.34,86.48,14,86.56Z"/><path class="cls-7" d="M13.4,78.23a2.84,2.84,0,0,0-2.12,1,1.55,1.55,0,0,0-.24.19,1.46,1.46,0,0,0-.47,1.26,1.8,1.8,0,0,0,1.35,1.36,2.87,2.87,0,0,0,3.36-1.4C16.1,79.25,14.52,78.28,13.4,78.23ZM13.47,81h0a3.94,3.94,0,0,0,.73-.74l.13.11C14.75,80.77,14,80.93,13.47,81Z"/><path class="cls-8" d="M24,88.38a1.24,1.24,0,0,0-.33,0c-.47-.35-1.2.06-1.45.6a.65.65,0,0,0,.18.9,1.22,1.22,0,0,0,1.17,0c.17-.07.34-.08.51-.15a1.18,1.18,0,0,0,.53-.75C24.66,88.52,24.24,88.46,24,88.38Z"/><path class="cls-8" d="M44.69,86.1l-.06,0h0l-.09-.05c-.14-.06-.32.09-.41.19s-.48.58-.33.85a.41.41,0,0,0,.57.1,1.27,1.27,0,0,0,.64-1C45,86.05,44.83,86,44.69,86.1Z"/><path class="cls-8" d="M54.61,84.12a2.36,2.36,0,0,0-1.23-.3A3.51,3.51,0,0,0,50.2,85c-.87,1.16.14,2,1,2.35a3.06,3.06,0,0,0,3.27-.59C55.26,85.94,55.64,84.78,54.61,84.12Z"/><path class="cls-9" d="M47.6,57.63a4.49,4.49,0,0,0-1.93-.27,13.43,13.43,0,0,0-2.4.37,6.89,6.89,0,0,0-2.33,2,8.5,8.5,0,0,0-1.9-.16,6,6,0,0,0-1.93.49c-.46.17-.86.66-1.31.79a.1.1,0,0,0-.07.06,9.23,9.23,0,0,1,4.37-.67,6.59,6.59,0,0,1,2.57.87.24.24,0,0,0,0-.13,2,2,0,0,0-1.38-1.15,7,7,0,0,1,2.57-1.73A10.55,10.55,0,0,1,47.6,57.63Z"/><path class="cls-9" d="M21,55.8a6.68,6.68,0,0,0-.89,0,4.55,4.55,0,0,0-1.21.29,4.16,4.16,0,0,0-4.46-.75,2.25,2.25,0,0,0-.21.12,3.67,3.67,0,0,0-1.18,1,6.27,6.27,0,0,1,5.16-.1,4,4,0,0,0-.62.42h0a7.33,7.33,0,0,1,2.12-.52,12.13,12.13,0,0,1,2.88.08A7.36,7.36,0,0,0,21,55.8Z"/><path class="cls-9" d="M35.52,47.32a4.11,4.11,0,0,0-2,.9,6.49,6.49,0,0,0-2.34-.35c-1.31,0-2.3.81-3.35,1.4a.19.19,0,0,0-.07.08,7,7,0,0,1,6.18-.05l.45.07c.13,0,.35-.23.26-.34a2.25,2.25,0,0,0-.63-.56A7.3,7.3,0,0,1,35.44,48a9.45,9.45,0,0,1,2.19-.2A8.7,8.7,0,0,0,35.52,47.32Z"/><path class="cls-9" d="M43.75,78a3.94,3.94,0,0,0-1.82-.28,11.27,11.27,0,0,0-2.23.36,6.26,6.26,0,0,0-2.13,2,7.46,7.46,0,0,0-1.76-.18,5.37,5.37,0,0,0-1.78.49c-.42.16-.79.65-1.2.77,0,0,0,0-.06.06a8,8,0,0,1,4-.64,6.09,6.09,0,0,1,2.42.88s0-.09,0-.12a2,2,0,0,0-1.32-1.16,6.17,6.17,0,0,1,2.36-1.71A9.15,9.15,0,0,1,43.75,78Z"/><path class="cls-9" d="M22.32,75.63a5.89,5.89,0,0,0-.84,0,4.42,4.42,0,0,0-1.14.28,3.8,3.8,0,0,0-4.21-.75l-.2.11a3.77,3.77,0,0,0-1.15,1,5.75,5.75,0,0,1,4.9-.09,3.69,3.69,0,0,0-.58.42h0a6.54,6.54,0,0,1,2-.51,10.59,10.59,0,0,1,2.69.09A6.6,6.6,0,0,0,22.32,75.63Z"/><path class="cls-9" d="M34.76,68.8a3.47,3.47,0,0,0-1.75.83,5.16,5.16,0,0,0-2-.31,5.92,5.92,0,0,0-2.89,1.29s0,0-.06.06a5.67,5.67,0,0,1,5.31,0,2.5,2.5,0,0,0,.38.06c.11,0,.3-.21.23-.31a2.05,2.05,0,0,0-.54-.52,7.17,7.17,0,0,1,1.25-.47,7.9,7.9,0,0,1,1.88-.19A7.24,7.24,0,0,0,34.76,68.8Z"/><g class="cls-10"><path class="cls-11" d="M32.13,90.75a2.53,2.53,0,0,1,0-.74,13.85,13.85,0,0,0,.76-2.11c.08-.76-.29-1.37.07-2.2-.44,0-.93,0-1.37,0a7,7,0,0,0,.36,2.1A7.92,7.92,0,0,1,31.76,90c0,.33.25.51.27.79s.1.62.1,0"/><path class="cls-11" d="M23.08,52.31c6.16.14,12.29,1.3,18.44,1.44.06,5.45-7.19,33-9.33,33.14-.85-.22-9.11-19.91-9.11-34.58"/><path class="cls-12" d="M23.07,52.18c6,.59,11.93,1,17.9,1.64.06,5.23-6.57,28.88-9,28.75-1.15.19-8.85-16.33-8.85-30.39"/><path class="cls-11" d="M24.48,55,36,56.8c0,2.9-2.21,16.92-4.79,22.06-1.61-.5-6.45-13.73-6.76-23.85"/><path class="cls-13" d="M34.35,59.82c.25-4.06-1.71-6.64-3.93-6.85s-4.83.47-5.07,4.53,3,13.12,4.84,13.89c2.13.88,3.92-7.5,4.16-11.57"/><path class="cls-14" d="M32.29,46.09c-5.1,0-9.23,2.48-9.23,6.34s4.13,7.63,9.23,7.63,9-3.23,9.23-6-4.12-8-9.23-8"/><path class="cls-15" d="M25.39,57.6a10.61,10.61,0,0,0,6.9,2.46,13.76,13.76,0,0,0,2.06-.16v0c.17-2.43-.43-1.62-2.07-1.62-2.67,0-6.66-2.46-6.9-.64"/><path class="cls-16" d="M41.53,52.94a8.59,8.59,0,0,0-7.59-6.67c3.4,1.32,4.56,2.1,4.7,6.27,0,1-3,4.92-2.83,7,0,.06,6.41-1.8,5.72-6.6M27.39,47.13c-2.52,1-3.87,3.15-3.87,4.62C23.52,59,25.72,48.77,27.39,47.13Z"/><path class="cls-17" d="M32.31,46.09C28.83,46.09,26,48.27,26,51s2.83,4.89,6.31,4.89,6.3-2.19,6.3-4.89-2.82-4.88-6.3-4.88"/><path class="cls-18" d="M32.22,46.49c-2.06,0-3.72,1.28-3.72,2.87s1.66,2.88,3.72,2.88,3.71-1.29,3.71-2.88-1.66-2.87-3.71-2.87"/><path class="cls-19" d="M32.22,46.72c-1.55,0-2.8,1-2.8,2.17s1.25,2.17,2.8,2.17,2.8-1,2.8-2.17-1.26-2.17-2.8-2.17"/><path class="cls-20" d="M30.17,55.27c-.38.16-.66.48-.62.72s.39.3.77.14.66-.48.62-.72-.39-.3-.77-.14"/><path class="cls-20" d="M29.8,54.34c-.1-.1-.22-.1-.27,0a.42.42,0,0,0,.09.38c.1.11.22.11.27,0a.39.39,0,0,0-.09-.39"/><path class="cls-20" d="M29.59,59.54c-.26-.06-.48-.07-.49,0s.21.14.47.21.49.07.49,0-.2-.14-.47-.21"/><path class="cls-20" d="M30.7,59.86c-.22,0-.39,0-.4,0s.17.11.39.14.38,0,.39,0-.17-.11-.38-.14"/><path class="cls-20" d="M25,56.78c-.33-.25-.62-.35-.66-.23s.19.42.51.67.62.35.66.23-.19-.42-.51-.67"/><path class="cls-20" d="M23.29,51.93a1.1,1.1,0,0,0-.1.58s.16-.17.25-.46a1.18,1.18,0,0,0,.11-.59c-.05,0-.16.18-.26.47"/><path class="cls-21" d="M37.87,53.8c-.73.52-1.53,1.16-1.46,1.39s1.17,0,1.9-.57,1.08-1.15,1-1.37-.71,0-1.45.55"/><path class="cls-22" d="M33.72,76.62c-1.4,1.66,2.63-16,2.63-16,.54-.94,2.42-1.95,2.32-.52-.25,3.46-1.69,12.64-5,16.52"/><path class="cls-23" d="M36.55,70.88c-.75.49-1.61.58-1.58.93s1.08.37,1.83-.12a2.32,2.32,0,0,0,1.13-1.6c0-.35-.63.3-1.38.79m-3.48-2.81c-.85.2-1.76,0-1.78.33s1.07.75,1.92.55,1.39-.8,1.41-1.15S33.92,67.86,33.07,68.07Zm-.13,11.34c-.65.31-1.34.2-1.36.54s.82.63,1.47.32A1.89,1.89,0,0,0,34.12,79C34.13,78.61,33.58,79.11,32.94,79.41ZM25.33,58c-.79-.52-1.5-1.46-1.63-1.18s.66,1.53,1.46,2,1.45.45,1.58.17S26.12,58.51,25.33,58Zm2.45,12.27c-.8-.52-1.5-1.46-1.64-1.18s.67,1.52,1.46,2,1.46.45,1.59.16S28.57,70.78,27.78,70.26Zm.16-6.46c-.84-.32-1.63-1.06-1.73-.75s.81,1.33,1.65,1.65,1.47.07,1.57-.24S28.77,64.11,27.94,63.8ZM29.39,76c-.66-.22-1.32-.87-1.38-.55s.71,1.24,1.37,1.46,1.16-.09,1.22-.41S30.06,76.24,29.39,76ZM37.55,61.7c-.79.54-1.71.71-1.67,1s1.16.29,1.95-.26A2.48,2.48,0,0,0,39,60.8C39,60.46,38.33,61.15,37.55,61.7Z"/><path class="cls-24" d="M31.39,49.36a7.57,7.57,0,0,0-1.19-.82c-1.56-.59-3.42-.81-4.87-1.62a25.67,25.67,0,0,1-3.14-2.23c-.91-.71-1.2-1.93-1.89-2.8-.17-.21-.93-1.12-.28-1,1.23.22,4.4,3.39,5.84,4.59s3.5,1.7,4.91,2.88a13.37,13.37,0,0,0,1.17.7,10.07,10.07,0,0,0,1.2-.57c1.65-1.17,3.52-2.27,5.1-3.47a11.7,11.7,0,0,1,3.62-2,6.31,6.31,0,0,1,1.75-.38c.66,0-.09.76-.25,1C41.27,46,40.17,46.05,37,47.47a20,20,0,0,1-3.29,1.25c-.83.21-1.1.56-1.2,1a5.06,5.06,0,0,1-.55,0,3.85,3.85,0,0,1-.49-.08.33.33,0,0,0-.09-.27"/><path class="cls-25" d="M31.74,49.68c0-.21,0-.39-.1-.48a9.68,9.68,0,0,0-1.27-.93c-5.44-2.05-6.94-2.54-10-6.35-.25-.33-.86-1.06-.4-1,1.19.2,4.55,3.87,5.57,4.72,1.33,1.1,3.75,1.55,5.14,2.72a13.3,13.3,0,0,0,1.21.85c.39-.22.87-.43,1.27-.71,1.34-1,3-2,4.27-2.85a19.49,19.49,0,0,1,2.83-1.92,9.29,9.29,0,0,1,3.33-1.06,14.8,14.8,0,0,1-2.7,1.85c-.93.56-2.21,1.15-3.22,1.74-1.73,1-3.36,1.92-4.14,2.3-.9.22-1.19.65-1.3,1.15l-.29,0-.23,0"/><path class="cls-26" d="M23.15,25.61l2.25,1.06c-1.11-8.06-.22-7.07,3.07-14.25l1.09,2C33,8,31.94,9.29,38,7.67c-.23,6.23-1.08,5.58-4.55,10.13l2.37-.4c-.32,3.92.6,8.13-1.24,10.94-.7,1.07,1.53-.54,1.53-.54,1.19,5.56-1,11.48-4.23,15.22-6.11-.41-7.94-9.3-8.7-17.41"/><path class="cls-27" d="M37.71,8.13c-.24,5.9-1.93,5.77-5.34,10.25.79-.13,2.22-.26,3-.39-.33,3.91-.17,8.92-2,11.74-.69,1.06,2.32-1.14,2.32-1.14,1.1,5.15-2.29,12.5-3.2,11.28-.81-1.07-1.41-5.57-1.72-8.85C29.57,18.38,32.57,15,37.71,8.13"/><path class="cls-25" d="M23.7,26.21c.7.33,1.57,1.48,2.28,1.81-1-7.59-.56-8.06,2.54-14.82.34.64.68,1.28,1,1.92,3.19-6.07,2.63-5.61,8.13-7.07-7.86,7.77-9.73,16.47-8.2,28.44.46,3.6,1.62,6.65-2,2.27C24.78,35.56,24,31.1,23.7,26.21"/><path class="cls-28" d="M31.32,43.18c.36,2,0,4.33,0,6.42.29.76.65.81,1.08,0,0-2.27.4-4.48,0-6.74-2-11.07-3.39-11.93-1.33-24.23-3.37,8.42-.23,21.73.27,24.54"/><path class="cls-20" d="M34.67,34.57c.35-1.85-.73-.59-.81-.21-.29,1.56.6,1.31.81.21"/><path class="cls-20" d="M34.1,26.07c.25-1.33-.53-.43-.58-.15-.21,1.12.43.95.58.15"/><path class="cls-26" d="M42.92,37.81l-1.77-.07c2.41-4.64,1.6-4.32.8-9.84l-1.16.91c-1-5.15-.59-4-4.41-6.95-1.12,3.94-.4,3.81,1.06,7.76l-1.56-1c-.58,2.54-2.07,4.85-1.38,7.19.26.89-1-.83-1-.83-2,3.06-1.66,7.44-.2,10.81,4.29,1.73,7.37-3.18,9.57-8"/><path class="cls-25" d="M36.46,22.23c-1,3.74.15,4.21,1.58,8.09-.52-.34-1.47-.88-2-1.22-.58,2.53-1.72,5.59-1,7.93.26.89-1.36-1.45-1.36-1.45-1.81,2.83-1,8.49-.11,8s2.12-3,3-4.93c3.41-7.45,2-10.54-.1-16.45"/><path class="cls-27" d="M42.42,38c-.56,0-1.39.41-2,.39,2.28-4.37,2-4.82,1.29-10l-1.1.85c-1-4.8-.67-4.33-4.16-7,3.83,7.38,3.33,13.38-.18,20.31-1.06,2.08-2.49,3.59.93,2.06,2.5-1.11,3.93-3.63,5.17-6.56"/><path class="cls-19" d="M33.68,46a21.44,21.44,0,0,0-1.31,4c-.35.37-.61.29-.75-.35A22,22,0,0,1,33,45.5c3.63-6.22,4.78-6.29,5.89-14.59.59,6.32-4.3,13.55-5.22,15.13"/><path class="cls-20" d="M33.14,39.61c.13-1.26.62-.12.59.14-.11,1.06-.68.62-.59-.14"/><path class="cls-20" d="M35.27,34.53c.1-.91.46-.09.44.09-.09.77-.5.45-.44-.09"/><path class="cls-26" d="M17.24,33.85l2.37-.1c-3.28-6-2.19-5.57-1.16-12.71L20,22.22c1.33-6.66.75-5.15,5.85-9,1.53,5.08.56,4.92-1.35,10L26.59,22c.8,3.27,2.82,6.26,1.92,9.29-.34,1.14,1.26-1.08,1.26-1.08,2.65,4,2.29,9.62.37,14-5.75,2.23-9.92-4.12-12.9-10.3"/><path class="cls-27" d="M25.76,13.73c1.43,4.83-.16,5.43-2.05,10.45.69-.44,2-1.14,2.66-1.58.8,3.28,2.35,7.23,1.44,10.25C27.47,34,29.63,31,29.63,31c2.46,3.66,1.39,11,.21,10.38S27,37.49,25.77,35c-4.64-9.64-2.84-13.64,0-21.26"/><path class="cls-25" d="M17.91,34.1c.75,0,1.87.52,2.61.49-3.09-5.64-2.77-6.22-1.81-12.94l1.48,1.11c1.25-6.21.86-5.61,5.52-9.09-5.07,9.53-4.35,17.28.41,26.24,1.43,2.69,3.36,4.65-1.23,2.67-3.35-1.44-5.29-4.7-7-8.48"/><path class="cls-29" d="M29.63,44.45c.9,1.48,1.19,3.47,1.78,5.15.48.49.82.38,1-.45-.63-1.81-.89-3.75-1.9-5.4-4.91-8-6.46-8.13-8-18.86-.74,8.16,5.88,17.52,7.13,19.56"/><path class="cls-20" d="M27.46,29.62c-.14-1.18-.61-.12-.58.12.12,1,.66.58.58-.12"/></g><path class="cls-30" d="M40.63,63.43c-.79-1.22-2.61-2.82-4.35-2.34a6.64,6.64,0,0,0-1,.36,1.53,1.53,0,0,0-.42.11,11.45,11.45,0,0,0-4.73,3.92c-2.31,3.59,5.33,4,7.59,3.89.91-.06,4.29-.19,4.58-1.31C42.8,66.3,41.54,64.86,40.63,63.43Z"/><g class="cls-31"><path class="cls-32" d="M41.45,64.67a2.33,2.33,0,0,1,0,.69c-.46,2.44-3,2.91-5.45,2.34-2.19-.52-4-1.91-3.71-4.11a4,4,0,0,1,.11-.47,10.73,10.73,0,0,0-2.2,2.36c-2.31,3.59,5.33,4,7.59,3.89.91-.06,4.29-.19,4.58-1.31A4.15,4.15,0,0,0,41.45,64.67Z"/></g><path class="cls-33" d="M35.7,67.81a3,3,0,0,0-2.26-1.11A4.17,4.17,0,0,0,30.91,68a2.35,2.35,0,0,0-.45.3,1.06,1.06,0,0,0,.28,1.85,5.18,5.18,0,0,0,2.9.16c.73,0,2.19.3,2.62-.44C36.58,69.33,36.1,68.25,35.7,67.81Z"/><path class="cls-30" d="M31.83,64.27c-.91-1.25-2.27-3-4-3.26-1.28-.19-2.6,1.08-3.65,2a7.94,7.94,0,0,0-2.85,2.13c-.56.71-1.58,2.71-.38,3.43a10.35,10.35,0,0,0,5.55,1.23c1.44-.08,3.4-.38,4.44-1.39S32.8,65.6,31.83,64.27Z"/><g class="cls-31"><path class="cls-34" d="M31.83,64.27a.47.47,0,0,1-.06-.09c.22,2-1.85,3.52-3.88,3.76s-5.23,0-5.81-2.26a3.47,3.47,0,0,1,0-1.36,5.7,5.7,0,0,0-.76.79c-.56.71-1.58,2.71-.38,3.43a10.35,10.35,0,0,0,5.55,1.23c1.44-.08,3.4-.38,4.44-1.39S32.8,65.6,31.83,64.27Z"/></g><g class="cls-35"><path class="cls-36" d="M36.54,61.51a4.61,4.61,0,0,0-2,.55c-.35.17-2.11,1.18-1.68,1.78a.68.68,0,0,0,.06.36c.2.44,1.05.21,1.39.1,1.1-.33,2.64-1.16,3.05-2.2C37.52,61.67,36.86,61.51,36.54,61.51Z"/></g><g class="cls-35"><path class="cls-36" d="M26.17,62.52a4.51,4.51,0,0,0-1.72,1.14l-.15.1a2.24,2.24,0,0,0-1,1.4c-.07.61.76.44,1.12.3a5,5,0,0,0,3-2.44C27.73,62.22,26.68,62.3,26.17,62.52Z"/></g><path class="cls-30" d="M29.26,66.81c-1.56-.64-3.34.62-4.4,1.83a6.18,6.18,0,0,0-1.58,1.89c-1.73,3.32,8,3.44,9.09.55C33,69.46,30.71,67.41,29.26,66.81Z"/><g class="cls-31"><path class="cls-34" d="M31.73,68.74a2.43,2.43,0,0,1-2.18,3.12c-1.71.15-5-.34-6-1.81a4,4,0,0,0-.28.48c-1.73,3.32,8,3.44,9.09.55A2.51,2.51,0,0,0,31.73,68.74Z"/></g><g class="cls-35"><path class="cls-36" d="M27.84,67.84c-.4-.27-1,.15-1.31.37a2.57,2.57,0,0,0-.92,1.07,2.37,2.37,0,0,0-.28.4c-.11.25-.14.72.31.62a3,3,0,0,0,1-.55,5,5,0,0,0,.87-.85C27.68,68.71,28.14,68.07,27.84,67.84Z"/></g></g></g></svg>