<svg id="Layer_1" data-name="Layer 1" xmlns="http://www.w3.org/2000/svg" viewBox="0 0 153.74 257.32"><defs><style>.cls-1{fill:#794f44;}.cls-2{fill:#5d382f;}.cls-3{fill:#956855;}.cls-4{fill:#66a443;}.cls-5{fill:#49823c;}.cls-6{fill:#79b943;}.cls-7{fill:#758f3b;}</style></defs><path class="cls-1" d="M39.31,161.45s12.81,2,16.17,3.81c4.29,2.31,16,14.79,17.34,25.14.53,4.2.73,47.61-.92,53.65s5.49,7,13.73,5.68,7.69-2.14,7.69-4.46-3.11-10.92-3.11-30.51-.18-27.35.55-30.13c1.46-5.58,9.34-21,25.27-31.4,0,0,4.39-2.55,3.11-4.48s-4.76-.28-8.24,3.2-8.24,8.09-9.15,7.43,2.74-16.11,3.66-19-5.68-9.82-6.59-7.73,1.83,9.6-.61,20.4c-2.26,10-8.91,21.73-11.11,22.16-1.1.21-1.46-8.63-1.22-20.69.29-14.86,2.51-19.68,1.58-21.87-1.67-3.94-8.37-.72-8.12,2.06s.8,13.72,1.17,22.81,1,13.81-.39,14.24-7.21-12.58-10.48-24.37c-3.34-12-4.88-15-6.9-15.64s-4.39,3.09-2.19,8.63,4.69,9.62,8.12,17.8c3.13,7.48,6.22,17.58,4.76,16.84S60.91,162.1,59.27,156.2s-2-18.78-5-20.4-6.41,1.71-4.76,5.73,7.33,17.85,6.23,18.44-11.17-2.89-15.2-4.72S32.35,158.31,39.31,161.45Z"/><path class="cls-2" d="M116.3,149.57a35,35,0,0,0-3.13,2.74l-.3-2.11a23.61,23.61,0,0,0-2,1.75c-.86.86-1.79,1.78-2.73,2.68,0,.05,1.25,1.1.14,2.24-2.35,2.41-6.41,6.53-8.33,8.78-4.37,5.13-11.87,15-12.7,18.44-.56,2.28-1.92,31.86-1.46,44.49.25,6.94,2.83,16.3-2.16,17.71,0,1.62,2.24,2.24,2.19,3.41,8-1.27,7.47-2.14,7.47-4.43s-3.11-10.92-3.11-30.51-.18-27.35.55-30.13c1.37-5.2,8.3-18.9,22.13-29.19l.65-.48c.81-.58,1.63-1.17,2.49-1.73,0,0,2.91-1.69,3.3-3.35A14.36,14.36,0,0,1,116.3,149.57Z"/><path class="cls-2" d="M101.75,159.38c-.74-.52,1.47-10.57,2.85-16a45.49,45.49,0,0,0-4.2-2.64l-1.16,2.22a43.8,43.8,0,0,1-.82,9.06s1.74-.87,2.35,0-1.34,6.48-.79,7.34.91.65,2.11.08A.46.46,0,0,1,101.75,159.38Z"/><path class="cls-2" d="M87.64,174.93a1.64,1.64,0,0,1-.54.28c-1.1.21-1.46-8.63-1.22-20.69a125,125,0,0,1,1.47-17.27c-1.27-1-2.38-1.79-2.82-1.71a50.83,50.83,0,0,0-5,1.93c.17,2.7.38,6.73.58,11.07a3.46,3.46,0,0,1,2.11.12c2.25.85,1,9.15,1.34,16s.85,11.53,1,12.88.19,9.05.62,8.93.94-8.73,2.48-11.52Z"/><path class="cls-2" d="M80.69,197.73c.73-.83,0-22.73-.57-26-1.4.44-7.21-12.58-10.48-24.37-1.2-4.33-2.17-7.47-3-9.76A19.31,19.31,0,0,0,62.84,136a14.06,14.06,0,0,0-3.09,1.29,12.21,12.21,0,0,0,.8,3.08c1.31,3.31,2.74,6.11,4.41,9.58a3.55,3.55,0,0,1,1.36-1.21c1.55-.57,3,4.58,5.33,10.62s5.54,14.15,6.16,16.75c.82,3.42,1.3,11,1.72,14.4S80,198.55,80.69,197.73Z"/><path class="cls-2" d="M75.75,181.8c.45-1-1.43-3.71-2-7.06,0,.26-.15.38-.35.28C72,174.29,60.91,162.1,59.27,156.2s-2-18.78-5-20.4a3.16,3.16,0,0,0-2-.37c1.37,6.47,5,23.39,6.43,25.57,1.74,2.67,10.49,12.83,12.93,15.58S75.29,182.81,75.75,181.8Z"/><path class="cls-2" d="M55.79,160c-1.06.57-10.42-2.63-14.71-4.51l2.53,4s8.51,2.38,11,2.75S56.61,161.48,55.79,160Z"/><path class="cls-3" d="M98.86,155.68a34,34,0,0,1-2.15,7.21c-1.56,3.89-6,10-7.19,11.68a16.29,16.29,0,0,0-2.28,5.53c0,.87,1.64-2.6,4.39-6.13s4.16-5.85,7.19-9,6-5.59,6.13-5.91-2.75,1.29-5.17,3.16c-2,1.57-2.66,2.79-2.47,2.2a29.35,29.35,0,0,0,2.19-7.83C99.78,153.1,99.6,152.21,98.86,155.68Z"/><path class="cls-3" d="M81.37,152.5c.38,4.08.19,12.59.28,17.08.08,4.08-.63,15.57.28,20.94a109.5,109.5,0,0,1,1,19.29c-.19,6.35-1.15,12.21-.73,17.22s1.52,19,2,18.24-1.1-15.31,0-21.78,1.66-23.93.69-30.34-1.66-7.32-1.5-13.92-.55-17.58-1.07-23.84C81.81,149.54,81.18,150.5,81.37,152.5Z"/><path class="cls-3" d="M68.79,156.71c1.71,4.3,5.55,14.13,5.92,17.52a12.54,12.54,0,0,0,1.68,5.28c.45,1.19-.55,7.29,0,11s1.82,14.62,1.09,20-2.69,7.78-2.21,12.36,1.17,10.34.55,13.64-1,6-.55,5.95,2.23-4.21,2.54-8.15-1.32-11.9,0-15.2a42,42,0,0,0,2.79-12.36c.09-3.66-2.38-14.92-2.38-17.67a94.09,94.09,0,0,0-.41-10.34c-.33-1.56-1.81-5-2.43-7.48s-5-14.4-6.53-16.3S67.59,153.7,68.79,156.71Z"/><path class="cls-3" d="M52.43,163.12a36.25,36.25,0,0,1,5.28,2c2.11.91,8.24,8.51,10.89,11.81s5.12,8.14,5.58,10.89.43,7.78,1.09,13.18-.39,14.93,0,14.1,1.39-8.42,1.39-12.72-1.69-9.11-1.39-13.07a16.44,16.44,0,0,0-1.09-8.17c-.88-2.4-13.72-15.84-15-17.67s-2.71-7.78-2.73-6.78,1.39,6,.57,6.41-6.5-1.31-7.72-1.28C47.58,161.88,49.61,162.44,52.43,163.12Z"/><path class="cls-4" d="M146.37,149.48c-3.33,6.57-12.08,4.35-12.08,4.35s3,8.29-5.3,9.5S118.64,156,118.64,156s-.91,2-5.93.66-3.89-6.64-3.89-6.64-1.76,2.87-4.18,1.51-1.89-4.44-1.89-4.44-2.3,3.38-7.81,2.93a5.75,5.75,0,0,1-5.53-5.68s-2.84,3.57-5.8,2.75c-2.78-.78-1.64-3.87-1.49-4.26-.29.31-3.68,4-7.53,3.37A7.11,7.11,0,0,1,69.2,142s.13,3-3.64,4.22a7.57,7.57,0,0,1-6.33-.46s.53,6.08-3,8.06-7.48-.52-7.86-.74c.14.4,2,5.75-.69,8.33s-6.88,1.47-6.88,1.47-1.62,7.28-6.2,7.42S31.2,166,31.2,166s-4.31,7.68-10.64,4,1.35-10.26,1.35-10.26-4.86,1.77-6.33-2,2.14-6.22,2.14-6.22-5.35.42-8.06-3.18a7.79,7.79,0,0,1-1.51-4.22C7.48,136,15,133.57,15,133.57s-4.24-1.57-3.91-4.43c.54-4.69,6.47-3.49,6.47-3.49-5.42-4.22-7.67-12.24-3-15.75s10.24.42,10.24.42-3.36-4.46-2-6.77,5.31-.18,5.64,0c-1.87-2.71-3-12.08,2.71-15.19,6.53-3.53,14,1.75,14,1.75S43.86,85.38,46.28,84s5.13,2,5.13,2-1.62-9.29,5.93-10.77a8.77,8.77,0,0,1,10.1,5.24s.94-4.31,4.31-3.89,2.71,3.8,2.71,3.8,3.22-4.35,8.08-4,5.65,5.26,5.65,5.26,1.08-8.9,9.3-8.35,7.82,10.37,7.82,10.37,3.51-5.11,6.6-3.33.86,6.33.7,6.68c.56-.37,10.47-6.64,14.8,0,4.44,6.88-3,13-3,13s8.35-1.91,11.31,2.51.84,10.19.69,10.65c.44-.19,6.81-3,9.68,2.31a5.66,5.66,0,0,1,.31.67,1.43,1.43,0,0,1,.09.27c1.71,5-5,8.61-5,8.61s5.39.69,5.92,4.43-4.84,7.34-4.84,7.34S150.1,142.15,146.37,149.48Z"/><path class="cls-5" d="M131.32,132.19s-.15,12.36-7.63,13.2-10.36-11-10.36-11-5,7-10.72,5.72c-3.93-.86-4-10.78-4-10.78a13.92,13.92,0,0,1-10.91,7.16c-7.68.61-9.84-6.89-9.84-6.89s-1.48,4.27-5.32,5.68-6.27-4-6.27-4,.61,5.41-5.86,9a12.32,12.32,0,0,1-11.72.54s1.41,5.79-2,7a8.32,8.32,0,0,1-6.07,0s1,10.26-5.45,11.91-8.9-4.58-8.9-4.58c-7.27,3.54-10.92,0-10.92,0a4.63,4.63,0,0,0,.28,2.59c1.48,3.77,6.33,2,6.33,2s-7.68,6.63-1.35,10.27,10.65-4,10.65-4-1.21,4.45,3.37,4.31,6.2-7.41,6.2-7.41,4,1.21,6.87-1.48.67-8.36.67-8.36,4.3,2.77,7.88.78,3-8.07,3-8.07a7.54,7.54,0,0,0,6.33.46c3.77-1.25,3.64-4.22,3.64-4.22a7.11,7.11,0,0,0,5.39,4.22c4,.63,7.54-3.41,7.54-3.41s-1.48,3.46,1.48,4.29,5.8-2.74,5.8-2.74A5.75,5.75,0,0,0,94.93,150c5.53.45,7.82-2.94,7.82-2.94s-.54,3.07,1.89,4.44,4.17-1.5,4.17-1.5-1.12,5.29,3.91,6.64,5.93-.66,5.93-.66,2,8.56,10.34,7.34,5.29-9.5,5.29-9.5,8.76,2.23,12.09-4.34c3.73-7.35-3.74-12.62-3.74-12.62s5.39-3.57,4.85-7.32C140,139.84,131.32,132.19,131.32,132.19Z"/><path class="cls-6" d="M146.55,116.5a26.15,26.15,0,0,0-15.85,1.29s-.2-7.71-7-9c-7.44-1.45-11.77.91-11.77.91s3.84-6.76,0-8.47-8.29,2.32-8.29,2.32,4.46-10.71-1.4-11.6-9.72,7.15-9.72,7.15-1-9.5-7.67-9.9S76.33,97,76.33,97s-2-4.44-6.45-3.69-5.06,7.86-5.06,7.86-8.7-8.61-15.57-4.77-6.06,13.66-6.06,13.66-4.44-3.15-7.48-.42,0,7.37,0,7.37S29,114.83,25,120s-.91,8.37-.91,8.37-2.84-.5-4,2.94c-1,2.79,3.11,5.07,4.55,5.65a13.36,13.36,0,0,0-10.24,1.36,8.72,8.72,0,0,0-4,4.57c-.49,1.2-1.31,4-.73,5.46a7.79,7.79,0,0,1-1.51-4.22C7.48,136,15,133.57,15,133.57s-4.24-1.57-3.91-4.43c.54-4.69,6.47-3.49,6.47-3.49-5.42-4.22-7.67-12.24-3-15.75s10.24.42,10.24.42-3.36-4.46-2-6.77,5.31-.18,5.64,0c-1.87-2.71-3-12.08,2.71-15.19,6.53-3.53,14,1.75,14,1.75S43.86,85.38,46.28,84s5.13,2,5.13,2-1.62-9.29,5.93-10.77a8.77,8.77,0,0,1,10.1,5.24s.94-4.31,4.31-3.89,2.71,3.8,2.71,3.8,3.22-4.35,8.08-4,5.65,5.26,5.65,5.26,1.08-8.9,9.3-8.35,7.82,10.37,7.82,10.37,3.51-5.11,6.6-3.33.86,6.33.7,6.68c.56-.37,10.47-6.64,14.8,0,4.44,6.88-3,13-3,13s8.35-1.91,11.31,2.51.84,10.19.69,10.65c.44-.19,6.81-3,9.68,2.31a5.66,5.66,0,0,1,.31.67Z"/><path class="cls-6" d="M24.19,142.9s-4.64-4.6-2.27-8.17c2.63-4,5.56-2.86,5.56-2.86s-2.57-5.05,1.28-8.22c4.76-3.92,9.3,2.21,9.3,2.21s-3.49-1.83-6.31,1.85a5.58,5.58,0,0,0-.26,6.27S21.92,134.73,24.19,142.9Z"/><path class="cls-6" d="M93.84,103.45s3.51-5.38,9-4.68,4.79,8.21,4.79,8.21,4.31-3.33,8.8-.15-.72,9.67-.72,9.67-.1-5.9-3.77-5.66a35.32,35.32,0,0,0-7.83,1.69S103.84,101.62,93.84,103.45Z"/><path class="cls-5" d="M73,125.44c-2.25,2.41-1.49,4.93.71,4.28s4.36-4.27,3.56-5.91C76.78,122.78,74.54,123.8,73,125.44Z"/><path class="cls-5" d="M81.18,125.38c-.38,1.25.08,5.22,2.19,5s1.7-3,.46-4.22S81.43,124.53,81.18,125.38Z"/><path class="cls-5" d="M118.49,132.7c-.73,2.66.19,7.06,3.46,7.12,2.67,0,1.8-4.93.23-7.12S118.94,131.08,118.49,132.7Z"/><path class="cls-5" d="M123.54,128.28c-.43.6,0,2.86,2.21,4.22s4.1-.74,2.6-2.47S124.24,127.26,123.54,128.28Z"/><path class="cls-5" d="M32.17,151.23c-1.68,2.27-2.11,5.68.24,5.85s2.94-3.14,2.6-5.21S33.41,149.55,32.17,151.23Z"/><path class="cls-5" d="M25.16,149.57c-3.15,1.67-.54,5.23,1.85,3.52s2.64-3.55,2.23-4S26.77,148.72,25.16,149.57Z"/><path class="cls-2" d="M84,246.23c-1.14.16-2.27-.56-2.69-4-.73-6.06-1.09-16.56-1.8-17s0,6.86-.63,12.69c-.3,3-1.42,6.07-3.2,7.62C77.7,246.17,82.66,249.75,84,246.23Z"/><path class="cls-7" d="M52,244.79c-.75.1-3.61.6-3.63,1.72,0,.62,3.88,1.63,4.68,1.79a5.67,5.67,0,0,1,2.45.9,4.07,4.07,0,0,0,2.23.65,34,34,0,0,0,5.34,0c.82,0,1.6,0,2.38,0a8.11,8.11,0,0,0,2.58-.7c1.46-.45,3.33,0,4.6-.8.66-.42,1-1,.39-1.75-1-1.17-3.81-.77-5.18-.85-4.49-.28-9,0-13.43-.67a7.79,7.79,0,0,0-1.27-.19Z"/><path class="cls-6" d="M68,228.47c-3.11-1.36-4.91.35-7.59,1.27-2.2.76-4.92-.46-7.36,1.13-2,1.28-3.91,5.26-2.89,7.29l-.29.85c-2.64.39-2.81,5.19.24,4.86-.8,3.6,4.58,4.19,7.12,4.54,3.18.45,5.21-.3,7.87-1.93,2.84,2.86,8.32-.28,9.48-3.22,1-2.49,1.27-8.54-2.86-8.26C72.64,232,71.13,229.83,68,228.47Z"/><path class="cls-4" d="M61.3,239.83l0,0a8.13,8.13,0,0,1-4.95,1.53,7.8,7.8,0,0,1-6.26-2.78l-.14.41c-2.64.39-2.81,5.19.24,4.86-.8,3.6,4.58,4.19,7.12,4.54,3.18.45,5.21-.3,7.87-1.93,2.84,2.86,8.32-.28,9.48-3.22,1-2.49,1.27-8.54-2.86-8.26.88-3-.63-5.17-3.72-6.53l-.07,0a8.12,8.12,0,0,1,.51,2.74v.28A8.57,8.57,0,0,1,61.3,239.83Z"/><path class="cls-5" d="M62.25,242.8l-.37,0c-.15.1-.28.23-.43.32a8.12,8.12,0,0,1-5.14,1.68,7.73,7.73,0,0,1-7.6-5.11c-1.36,1.4-1,4.47,1.44,4.2-.8,3.6,4.58,4.19,7.12,4.54,3.18.45,5.21-.3,7.87-1.93,2.84,2.86,8.32-.28,9.48-3.22,1-2.49,1.27-8.54-2.86-8.26.81-2.74-.41-4.79-3-6.16.1.16.19.34.29.51C72.25,234.32,70,242.8,62.25,242.8Z"/><path class="cls-7" d="M96,249c-.62.08-3,.49-3,1.41,0,.51,3.18,1.34,3.84,1.47a4.62,4.62,0,0,1,2,.74,3.31,3.31,0,0,0,1.83.53,27.85,27.85,0,0,0,4.38,0c.68,0,1.32,0,2,0a6.88,6.88,0,0,0,2.12-.57c1.2-.37,2.73,0,3.78-.66.54-.35.83-.85.31-1.43-.85-1-3.12-.63-4.25-.7-3.68-.24-7.38,0-11-.55a6,6,0,0,0-1-.16Z"/><path class="cls-6" d="M109.2,235.55c-2.55-1.12-4,.29-6.23,1-1.8.62-4-.38-6,.93-1.61,1-3.21,4.32-2.38,6l-.23.69c-2.17.33-2.31,4.27.19,4-.66,3,3.77,3.44,5.85,3.73a8.7,8.7,0,0,0,6.46-1.58c2.34,2.35,6.83-.23,7.79-2.65.8-2.05,1-7-2.36-6.78C113,238.45,111.74,236.66,109.2,235.55Z"/><path class="cls-4" d="M103.67,244.87l0,0a6.64,6.64,0,0,1-4.06,1.26,6.4,6.4,0,0,1-5.14-2.28l-.11.33c-2.17.33-2.31,4.27.19,4-.66,3,3.77,3.44,5.85,3.73a8.7,8.7,0,0,0,6.46-1.58c2.34,2.35,6.83-.23,7.79-2.65.8-2.05,1-7-2.36-6.78.73-2.46-.51-4.25-3-5.36l-.06,0a6.51,6.51,0,0,1,.42,2.25V238A7,7,0,0,1,103.67,244.87Z"/><path class="cls-5" d="M104.45,247.31h-.31c-.12.08-.22.18-.35.26a6.61,6.61,0,0,1-4.22,1.38,6.35,6.35,0,0,1-6.24-4.19c-1.12,1.14-.85,3.66,1.18,3.44-.66,3,3.77,3.44,5.85,3.73a8.7,8.7,0,0,0,6.46-1.58c2.34,2.35,6.83-.23,7.79-2.65.8-2.05,1-7-2.36-6.78.67-2.25-.33-3.93-2.45-5.06l.24.42C112.66,240.35,110.8,247.31,104.45,247.31Z"/><path class="cls-7" d="M74.2,256a5.5,5.5,0,0,0,3.08.89,47.26,47.26,0,0,0,7.43,0c1.14-.06,2.22,0,3.32,0a11.6,11.6,0,0,0,3.58-1c2-.64,4.63,0,6.39-1.12.92-.59,1.42-1.43.54-2.43-1.45-1.63-5.29-1.07-7.2-1.19-6.23-.39-12.49,0-18.67-.92a9.48,9.48,0,0,0-1.76-.27l-1.59-.13c-1,.13-5,.82-5,2.38,0,.86,5.39,2.26,6.5,2.5A7.84,7.84,0,0,1,74.2,256Z"/><path class="cls-6" d="M66.8,248.6c-1.12,5,6.37,5.83,9.9,6.32,4.41.62,7.23-.42,10.93-2.69,4,4,11.57-.39,13.18-4.48,1.36-3.46,1.76-11.87-4-11.47,1.23-4.17-.87-7.2-5.17-9.08s-6.83.49-10.54,1.76c-3.06,1-6.85-.64-10.23,1.58-2.72,1.77-5.44,7.31-4,10.13l-.39,1.18C62.8,242.4,62.56,249.07,66.8,248.6Z"/><path class="cls-4" d="M82.3,243l-.06,0a11.29,11.29,0,0,1-6.89,2.13,10.87,10.87,0,0,1-8.7-3.85l-.18.56c-3.67.55-3.91,7.22.33,6.75-1.12,5,6.37,5.83,9.9,6.32,4.41.62,7.23-.42,10.93-2.69,4,4,11.57-.39,13.18-4.48,1.36-3.46,1.76-11.87-4-11.47,1.23-4.17-.87-7.2-5.17-9.08l-.09,0a11.54,11.54,0,0,1,.7,3.81v.39A11.91,11.91,0,0,1,82.3,243Z"/><path class="cls-5" d="M83.62,247.11l-.52,0c-.21.14-.38.31-.6.44a11.21,11.21,0,0,1-7.15,2.34,10.75,10.75,0,0,1-10.56-7.1c-1.89,1.94-1.42,6.21,2,5.83-1.12,5,6.37,5.83,9.9,6.32,4.41.62,7.23-.42,10.93-2.69,4,4,11.57-.39,13.18-4.48,1.36-3.46,1.76-11.87-4-11.47,1.12-3.81-.57-6.66-4.15-8.57.14.23.26.47.39.71C97.52,235.33,94.37,247.11,83.62,247.11Z"/></svg>