<svg id="Layer_1" data-name="Layer 1" xmlns="http://www.w3.org/2000/svg" viewBox="0 0 64 64"><defs><style>.cls-1{fill:#628d3d;}.cls-2{fill:#e85e24;}.cls-3{fill:#ec6524;}.cls-4{fill:#f26322;}.cls-5{fill:#8ac140;}.cls-6{fill:#74b243;}.cls-7{fill:#99ca3c;}.cls-8{fill:#cc6128;}.cls-9{fill:#ffe7b6;opacity:0.42;}</style></defs><path class="cls-1" d="M61.77,33.07c0,2.64-2.41,4.82-4.68,3.11a.63.63,0,0,0-.85.11,2.6,2.6,0,0,1-3.31.8.6.6,0,0,0-.7,0,3.24,3.24,0,0,1-2.69.4l-.11,0a3.28,3.28,0,0,1-2.57-1,.6.6,0,0,0-.69-.19,2.17,2.17,0,0,1-2.26-.58.62.62,0,0,0-.71-.16c-1.29.56-1.58-.76-1.79-2a.58.58,0,0,0-.19-.35c-.78-.74-1.39-3.46-1.39-4.71a.63.63,0,0,0-.25-.5,6.5,6.5,0,0,1-1.35-1.37.62.62,0,0,0-.67-.24c-1.8.48-2.75-1.8-2.63-3.49a.62.62,0,0,0-.28-.57,3.16,3.16,0,0,1-1.28-1.72A.59.59,0,0,0,33,20.3c-1.55-.65-3.24-2.54-2.31-4.12a.63.63,0,0,0,0-.61A3.78,3.78,0,0,1,30.34,13a.63.63,0,0,0-.29-.68c-1.6-.9-2.64-3-1.39-4.59a5.75,5.75,0,0,0,.91-1.39.52.52,0,0,0,0-.11,1.91,1.91,0,0,1,2.12-1.8.62.62,0,0,0,.68-.35c1.16-2.41,4.89-1.56,6.76-.29l0,0a9.06,9.06,0,0,0,1.93.54C43.09,5,45.58,6.5,46,8.68a.61.61,0,0,0,.3.43A6.49,6.49,0,0,1,49,12.05a.57.57,0,0,0,.32.31c1.92.8,5.25,4.17,3.58,6.07a.65.65,0,0,0-.14.58c.36,1.36.25,3.33-1,3.92a.61.61,0,0,0-.2.94h0a.62.62,0,0,0,.73.19c4.24-1.85,8.95,4.18,10,7.81a.58.58,0,0,1-.25.68A.6.6,0,0,0,61.77,33.07Z"/><path class="cls-2" d="M39.07,46a39.27,39.27,0,0,1-3.94,2.83L24.86,55.57a26.13,26.13,0,0,1-4,2.28A18.38,18.38,0,0,0,18.32,59c-.51.31-1,.7-1.48,1a11.52,11.52,0,0,1-4,1.24,1.16,1.16,0,0,1-.64,0c-.54-.21-.47-1-.26-1.55a12.5,12.5,0,0,1,2.18-3.58A21.46,21.46,0,0,1,16.4,54c3.75-3.22,7.77-6.14,11.21-9.69.77-.79,1.53-1.62,2.3-2.44.7-.64,1.38-1.3,2-2a13.82,13.82,0,0,1,3.68-2.47,4.87,4.87,0,0,1,2.47-.51,3.69,3.69,0,0,1,2,.89l.3.28a3.18,3.18,0,0,1,1.25,1.52,3.91,3.91,0,0,1,.26,2.29A7.6,7.6,0,0,1,39.07,46Z"/><path class="cls-3" d="M29.91,41.84c-4,3.62-8.83,6.37-12.81,10.06a17.68,17.68,0,0,1-1.45,1.28,15,15,0,0,1-2.5,1.42,11.24,11.24,0,0,1-4.9,1.5,1.48,1.48,0,0,1-1.18-.44A1.65,1.65,0,0,1,7,54.23a13.14,13.14,0,0,1,.91-2.67,13.62,13.62,0,0,1,2.4-3.07,75.79,75.79,0,0,1,7-6.68,36.09,36.09,0,0,0,3.21-2.7c.78-.78,1.44-1.66,2.15-2.5a18.24,18.24,0,0,1,5.2-4.43,4.85,4.85,0,0,1,3.3-.69,3.48,3.48,0,0,1,1.11.5,7.81,7.81,0,0,1,1.9,2.06c0,.11.06.22.09.33a4.27,4.27,0,0,1-.18,2.5,7.36,7.36,0,0,1-1.18,1.85q-.47.57-1,1.11C31.23,40.47,30.56,41.15,29.91,41.84Z"/><path class="cls-4" d="M24.75,34.18c-3.67,3-7.44,6-10.93,9.22A41.13,41.13,0,0,1,7,49.07a16.86,16.86,0,0,1-3.27,1.47,1.26,1.26,0,0,1-.69.08c-.66-.17-.62-1.12-.41-1.77A27.48,27.48,0,0,1,8.56,38.79c1.65-1.79,3.53-3.36,5.19-5.15,1.85-2,3.4-4.27,5.19-6.34a16.62,16.62,0,0,1,6.44-4.91A4.14,4.14,0,0,1,27,22.07a2.87,2.87,0,0,1,1.11.3,6.5,6.5,0,0,1,2.12,2l.09.11a4.31,4.31,0,0,1,.25,2.25,7.5,7.5,0,0,1-1.66,3.42A27.17,27.17,0,0,1,24.75,34.18Z"/><path class="cls-5" d="M52.49,30.09c-.46.4-.89.86-1.36,1.26a9.1,9.1,0,0,1-1.3.9l-.77.45a14.53,14.53,0,0,0-2.17,1.39,3.75,3.75,0,0,1-1.53,1,4.35,4.35,0,0,1-.73,0c.93-.93,1.84-1.87,2.72-2.84l.23-.27c.41-.45.8-.91,1.18-1.39a13.3,13.3,0,0,1,1.86-2h0a5.88,5.88,0,0,0-.08-1,2.92,2.92,0,0,0-.24-.76,17.18,17.18,0,0,1-2.47,2.71c-.46.4-1,.77-1.43,1.16s-.74.65-1.09,1h0c-.18.19-.37.38-.54.58-.34.37-.66.76-1,1.16s-.59.83-.92,1.21-.79.77-1.15,1.18a20,20,0,0,1-1.67,2l.3.28a3.18,3.18,0,0,1,1.25,1.52c.4-.42.7-.93,1.12-1.32a11.57,11.57,0,0,1,1.82-1.18c1.26-.79,2.21-2,3.44-2.83.65-.45,1.36-.79,2-1.2l.57-.37.21-.17c.47-.37.87-.81,1.31-1.2a8.45,8.45,0,0,1,1.08-.81A6.94,6.94,0,0,0,52.49,30.09ZM46.11,32.9a12.87,12.87,0,0,1-1.15.92c-.44.31-.9.61-1.36.9a11.91,11.91,0,0,1,2.07-2.46l.5-.47.95-.87.79-.73A7,7,0,0,1,47,31.91a3.55,3.55,0,0,1-.23.31A8.18,8.18,0,0,1,46.11,32.9Z"/><path class="cls-5" d="M44.77,32.24c-.85-.06-1.7-.21-2.55-.22-1,0-2,.16-3,.06l-.34,0a6.42,6.42,0,0,1-1.13.35c-.49.09-1,.1-1.48.21a2,2,0,0,0-1.27.73,9.68,9.68,0,0,1-.52.88,1,1,0,0,1-.18.17c0-.11,0-.22-.09-.33A7.81,7.81,0,0,0,32.26,32l.32-.21a4.83,4.83,0,0,0,1.83-2.56c.13-.46.19-.93.3-1.39A12.36,12.36,0,0,1,38.63,22c.45-.43.9-.84,1.34-1.28a29.3,29.3,0,0,0,3-3.67l.24.14a2.81,2.81,0,0,0,.62.26A24.45,24.45,0,0,1,40.52,21a21.09,21.09,0,0,0-1.71,1.56,14.09,14.09,0,0,0-1.38,1.87l-1,1.56a5.92,5.92,0,0,0-.94,1.9,4.25,4.25,0,0,0,0,1.55,9.8,9.8,0,0,1,2.19-1.71c.55-.3,1.13-.52,1.67-.82a10.55,10.55,0,0,0,3.23-3.05,5.44,5.44,0,0,0,1.84,1.09,8.86,8.86,0,0,1-2.57,2,16.31,16.31,0,0,0-3.23,2.14,3.42,3.42,0,0,0-.44.49,22.81,22.81,0,0,1,4.33-2.18,14.08,14.08,0,0,1,1.67-.53l.2,0-.33.35c-.22.25-.43.5-.63.76l-.13,0a11.2,11.2,0,0,0-1.18.24,10.83,10.83,0,0,0-1.77.69,5.82,5.82,0,0,0-2.67,2l1.47.14h0a7.78,7.78,0,0,0,3.33-2c.33-.34.63-.7.93-1.07a21,21,0,0,0,2.07-.54c-.27.36-.54.73-.84,1.07a12.44,12.44,0,0,1-3.88,2.69c1.53.15,3,.31,4.57.52C45.13,31.85,44.94,32,44.77,32.24Z"/><path class="cls-5" d="M33.88,20.25a1.81,1.81,0,0,0-.4.52.58.58,0,0,0,.07.62,17.26,17.26,0,0,0-3.29,3l0,0a6.5,6.5,0,0,0-2.12-2c1.27-1.54,2.9-2.78,4.28-4.24a36.73,36.73,0,0,0,3-3.74l.9-1.27c.27-.37.54-.74.77-1.13a13.06,13.06,0,0,0,.7-1.4l1.08-2.32.94-.08A78.69,78.69,0,0,1,35.35,16a12.54,12.54,0,0,1-.79,1.12,15.61,15.61,0,0,1-2.22,2c-.2.16-.42.44-.27.65A33.65,33.65,0,0,0,36.94,15c.3-.36.6-.73.88-1.12s.53-.73.82-1.08a16.17,16.17,0,0,1,1.13-1.21c.38-.39.77-.77,1.15-1.15a2,2,0,0,1,.47.15,4.06,4.06,0,0,0,1,.24L38.85,14a10.46,10.46,0,0,0-1.44,1.46,34.88,34.88,0,0,1,4.53-3.1,9,9,0,0,1,1.92-.88A4,4,0,0,1,45,11.27c-.11.26-.24.52-.37.78a11.1,11.1,0,0,0-1.55.66,35.22,35.22,0,0,0-8.16,6.56Z"/><path class="cls-6" d="M48.21,14.69c-.33,1.18-1.62,1.26-2.6.84a1.43,1.43,0,0,1-1.15.46A2.28,2.28,0,0,1,43,15.26a2.17,2.17,0,0,1-1.93.83,2.14,2.14,0,0,1-1.51-.9c-.65.13-1.24.58-1.92.67a2.06,2.06,0,0,1-1.24-.21,2.2,2.2,0,0,1-2.45.32,2,2,0,0,1-1-1.93,2.86,2.86,0,0,1-1.4-.53,1.92,1.92,0,0,1-.78-2,4.94,4.94,0,0,0,.19-.49c0-.1,0,0-.13-.14a2.43,2.43,0,0,1-.73-.8,3,3,0,0,1-.27-2.18,3.69,3.69,0,0,1,2.75-2.76,3.39,3.39,0,0,1,.55,0,.87.87,0,0,0,0-.22c0-.33-.19-.65-.17-1A1.8,1.8,0,0,1,33.31,3a2.91,2.91,0,0,1,1.51-1.12c1.22-.4,3,.2,3.35,1.57a1.71,1.71,0,0,1-.09,1c1,.2,2.19.72,2.33,1.68a3.42,3.42,0,0,1,2,1.37,1.75,1.75,0,0,1,1.15,0,10.86,10.86,0,0,1,2.61,1.32A4.15,4.15,0,0,1,48,11a1.44,1.44,0,0,1-.31,1.27A2.8,2.8,0,0,1,48.21,14.69Z"/><path class="cls-6" d="M61.39,30.84a4.37,4.37,0,0,1-.75,1.57.83.83,0,0,1,.12.25,3.68,3.68,0,0,1-.21,2.63c-.78,1.45-2.88,1.85-4.37,1.61a4.73,4.73,0,0,1-1.2-.36l0,0,0,.07c-.1.17-.18.34-.27.51a3.11,3.11,0,0,1-1.81,1.53c-.36.11-.78,0-1.07.27a1.85,1.85,0,0,1-.91.44A3.15,3.15,0,0,1,48.67,39a3.82,3.82,0,0,1-1.85-3.11,2.67,2.67,0,0,1-1.36-2.2l-.67,0a1.47,1.47,0,0,1-1.34-.77,1.39,1.39,0,0,1-.14-.48,4.19,4.19,0,0,1-1.53-1.1A4.48,4.48,0,0,1,41,28.73c0-.5,0-1,0-1.5A2.89,2.89,0,0,1,41.14,26a.92.92,0,0,1,.32-.33,3.1,3.1,0,0,1-.39-.77,2.56,2.56,0,0,1,.29-2.12A3.38,3.38,0,0,1,45,21.28c.26.06.26.08.42-.14s.16-.27.25-.41a8.39,8.39,0,0,1,.67-.93,3.69,3.69,0,0,1,2-1.25A2.4,2.4,0,0,1,51,19.93a6.45,6.45,0,0,1,1.74-.33,2.24,2.24,0,0,1,2,.73c.64,1,.06,2.2-.67,3.09a2.85,2.85,0,0,1,.3,1.64,2.5,2.5,0,0,1-.17.83l.26,0a2.5,2.5,0,0,1,1.55.7,1.72,1.72,0,0,1,.4.81,1.57,1.57,0,0,1,0,.23c1.21-.49,2.92.2,3.93.82A2.05,2.05,0,0,1,61.39,30.84Z"/><path class="cls-7" d="M55.28,20.21a2.65,2.65,0,0,1-2.5,1.72,2.55,2.55,0,0,1-1.46-.59,2.77,2.77,0,0,1-1.82,1.3,3,3,0,0,1-2.74-.91,2.19,2.19,0,0,1-1.84.6,2.31,2.31,0,0,1-1.68-1.75c-.07-.24-.11-.2-.34-.3a2.26,2.26,0,0,1-.56-.34,2.58,2.58,0,0,1-1-2.49l-.11,0a7.24,7.24,0,0,1-2-.44,4.64,4.64,0,0,1-.8-.41A2.94,2.94,0,0,1,35.1,14.2a2.82,2.82,0,0,1,1.26-2.95A2.69,2.69,0,0,1,37.93,11a1.75,1.75,0,0,1,0-1.21,2.66,2.66,0,0,1,2.27-1.54A3,3,0,0,1,43.3,5a2.6,2.6,0,0,1,2.28,3.56,3.58,3.58,0,0,1,2.14,1.78A8.27,8.27,0,0,1,48.9,13.3a2.44,2.44,0,0,1,1.63.3,3.36,3.36,0,0,1,1.56,2.31,3.73,3.73,0,0,1,2.61,1.25A3.09,3.09,0,0,1,55.28,20.21Z"/><path class="cls-7" d="M55.29,35.26a2,2,0,0,1-1.8.58A2.73,2.73,0,0,1,53.05,37a3.24,3.24,0,0,1-1.82,1.15,2.46,2.46,0,0,1-2.3-.37,2.56,2.56,0,0,1-.68-.94,2.59,2.59,0,0,1-2.62-.07,2.83,2.83,0,0,1-1.2-1.6,3.27,3.27,0,0,1-.14-1c0-.14,0-.28,0-.41-1.29.14-2.79-.23-3.14-1.58a2.43,2.43,0,0,1,.08-1.36,3.64,3.64,0,0,1-1.5-1.08,2.94,2.94,0,0,1-.89-2.63c.49-1.75,2.84-2.35,4.52-1.95.71-1.05,2.55-1.07,3.64-.53a3.28,3.28,0,0,1,1.56,2.66,2,2,0,0,1,1.94.64,2.69,2.69,0,0,1,.6,1.91c0,.06,0,.12,0,.18a2.61,2.61,0,0,1,1,0c1.33.14,2.9.39,3.68,1.63A3.34,3.34,0,0,1,55.29,35.26Z"/><path class="cls-8" d="M17.38,37.68a1.14,1.14,0,0,1-.68-.94c0-.38-.61-.38-.58,0a1.71,1.71,0,0,0,1,1.45C17.42,38.35,17.72,37.84,17.38,37.68Z"/><path class="cls-8" d="M13,38.64a1.15,1.15,0,0,1-.43-.82c0-.37-.61-.37-.58,0a1.73,1.73,0,0,0,.59,1.24C12.83,39.3,13.25,38.89,13,38.64Z"/><path class="cls-8" d="M11.74,42.73a2.8,2.8,0,0,1-.61-.76c-.18-.33-.69,0-.51.3a3.72,3.72,0,0,0,.7.88C11.6,43.4,12,43,11.74,42.73Z"/><path class="cls-8" d="M7.87,45a1.35,1.35,0,0,1-.75-.7c-.16-.34-.67,0-.5.3a1.88,1.88,0,0,0,1.09,1C8.07,45.69,8.22,45.12,7.87,45Z"/><path class="cls-8" d="M18.57,32A1,1,0,0,1,18,31c0-.37-.57-.37-.59,0a1.6,1.6,0,0,0,.91,1.51C18.62,32.63,18.91,32.12,18.57,32Z"/><path class="cls-8" d="M22.88,33.51a.93.93,0,0,1-.62-.68.3.3,0,0,0-.57.16,1.59,1.59,0,0,0,1,1.09C23.08,34.2,23.24,33.63,22.88,33.51Z"/><path class="cls-8" d="M22.61,27.33a3.68,3.68,0,0,1-.73-1c-.16-.34-.67,0-.5.3a4.32,4.32,0,0,0,.81,1.13A.3.3,0,0,0,22.61,27.33Z"/><path class="cls-8" d="M27.29,28.76a1,1,0,0,1-.85-.76.29.29,0,0,0-.57.15,1.59,1.59,0,0,0,1.26,1.17C27.5,29.39,27.66,28.82,27.29,28.76Z"/><path class="cls-8" d="M28.52,35a1.58,1.58,0,0,1-.59-.71.31.31,0,0,0-.36-.21.3.3,0,0,0-.21.36,2.4,2.4,0,0,0,.87,1.07C28.54,35.73,28.84,35.22,28.52,35Z"/><path class="cls-8" d="M31.15,39.07a4.47,4.47,0,0,1-.88-.55c-.28-.25-.7.17-.41.41a4.19,4.19,0,0,0,1,.65.31.31,0,0,0,.4-.11A.3.3,0,0,0,31.15,39.07Z"/><path class="cls-8" d="M27.64,39.73a1.45,1.45,0,0,1-.58-1c0-.37-.63-.37-.59,0a2.06,2.06,0,0,0,.87,1.52C27.64,40.46,27.94,40,27.64,39.73Z"/><path class="cls-8" d="M24,40.41a1.85,1.85,0,0,1-.53-.68A.29.29,0,1,0,23,40a2.33,2.33,0,0,0,.62.8.31.31,0,0,0,.42,0A.3.3,0,0,0,24,40.41Z"/><path class="cls-8" d="M23,45.28a1,1,0,0,1-.37-.8.3.3,0,0,0-.59,0,1.53,1.53,0,0,0,.55,1.22.3.3,0,0,0,.41,0A.29.29,0,0,0,23,45.28Z"/><path class="cls-8" d="M18.64,43.68a.57.57,0,0,1-.2-.4.3.3,0,0,0-.29-.29.31.31,0,0,0-.3.29,1.22,1.22,0,0,0,.37.82C18.5,44.36,18.92,43.94,18.64,43.68Z"/><path class="cls-8" d="M17.93,48.5A3.42,3.42,0,0,1,17,47.11c-.12-.36-.68-.21-.56.15a3.85,3.85,0,0,0,1.06,1.65C17.79,49.17,18.21,48.75,17.93,48.5Z"/><path class="cls-8" d="M14.26,48.41a.69.69,0,0,1-.18-.57.31.31,0,0,0-.3-.29.3.3,0,0,0-.29.29,1.3,1.3,0,0,0,.36,1C14.1,49.1,14.52,48.69,14.26,48.41Z"/><path class="cls-8" d="M14,52.45a2.1,2.1,0,0,1-1.06-1.15c-.14-.35-.7-.2-.57.15A2.71,2.71,0,0,0,13.68,53C14,53.12,14.32,52.62,14,52.45Z"/><path class="cls-8" d="M10.36,52.55a1.13,1.13,0,0,1-.29-.8.3.3,0,0,0-.59,0A1.73,1.73,0,0,0,9.94,53C10.2,53.24,10.62,52.82,10.36,52.55Z"/><path class="cls-8" d="M36.44,40.83a1,1,0,0,1-.44-.92c0-.38-.57-.38-.59,0a1.63,1.63,0,0,0,.73,1.43C36.45,41.55,36.75,41,36.44,40.83Z"/><path class="cls-8" d="M37.35,45.23a1.86,1.86,0,0,1-.93-1c-.13-.35-.7-.19-.56.16a2.49,2.49,0,0,0,1.2,1.37C37.39,45.91,37.69,45.4,37.35,45.23Z"/><path class="cls-8" d="M31.85,45a1.55,1.55,0,0,1-.34-.92c0-.38-.61-.38-.59,0a2.27,2.27,0,0,0,.51,1.34C31.67,45.67,32.08,45.25,31.85,45Z"/><path class="cls-8" d="M31.37,49.31c-.26-.19-.53-.37-.79-.58s-.42-.34-.42-.61a.29.29,0,0,0-.58,0c0,.81.92,1.28,1.49,1.7C31.37,50,31.67,49.53,31.37,49.31Z"/><path class="cls-8" d="M26.52,49a.54.54,0,0,1-.22-.51.29.29,0,0,0-.29-.3.31.31,0,0,0-.3.3,1.14,1.14,0,0,0,.52,1C26.54,49.71,26.84,49.2,26.52,49Z"/><path class="cls-8" d="M25.75,52.71a3.37,3.37,0,0,1-1-1.47c-.12-.36-.69-.21-.57.16a4.09,4.09,0,0,0,1.11,1.73C25.61,53.38,26,53,25.75,52.71Z"/><path class="cls-8" d="M22.69,52.76a.75.75,0,0,1-.45-.73c0-.37-.57-.37-.59,0a1.36,1.36,0,0,0,.89,1.3C22.89,53.47,23,52.9,22.69,52.76Z"/><path class="cls-8" d="M20.35,55.9a4,4,0,0,1-.27-1.07c0-.38-.63-.38-.59,0a4.7,4.7,0,0,0,.36,1.37.28.28,0,0,0,.4.1A.3.3,0,0,0,20.35,55.9Z"/><path class="cls-8" d="M17.35,56.37a1.08,1.08,0,0,1-.35-.49.29.29,0,0,0-.36-.2.3.3,0,0,0-.2.36,1.56,1.56,0,0,0,.49.74.29.29,0,1,0,.42-.41Z"/><path class="cls-8" d="M15.8,58.85l-.47-.77a.29.29,0,0,0-.5.29l.46.78A.3.3,0,0,0,15.8,58.85Z"/><path class="cls-9" d="M26.16,25.16a1.42,1.42,0,0,1-.61-.75c-.12-.35-.69-.2-.56.16a2,2,0,0,0,.88,1.09A.29.29,0,0,0,26.16,25.16Z"/><path class="cls-9" d="M24.83,26l-.42-.41a.32.32,0,0,0-.42,0A.31.31,0,0,0,24,26l.42.41a.3.3,0,0,0,.42-.42Z"/><path class="cls-9" d="M21.57,29.75A1.43,1.43,0,0,1,21,28.56a.3.3,0,0,0-.59,0,2,2,0,0,0,.74,1.61C21.45,30.4,21.87,30,21.57,29.75Z"/><path class="cls-9" d="M19.93,30.67l-.41-.41a.29.29,0,0,0-.42.41l.41.42a.3.3,0,0,0,.42-.42Z"/><path class="cls-9" d="M16.58,34.49a1.12,1.12,0,0,1-.29-.82c0-.38-.57-.38-.59,0a1.7,1.7,0,0,0,.46,1.23C16.42,35.18,16.83,34.77,16.58,34.49Z"/><path class="cls-9" d="M15.07,36l-.27-.41a.3.3,0,0,0-.4-.11.31.31,0,0,0-.11.41l.27.4a.29.29,0,1,0,.51-.29Z"/><path class="cls-9" d="M11.73,39.18a1,1,0,0,1-.29-.76c0-.38-.57-.38-.59,0a1.52,1.52,0,0,0,.47,1.17A.29.29,0,0,0,11.73,39.18Z"/><path class="cls-9" d="M10.16,40.59l-.36-.67c-.18-.33-.68,0-.51.3l.36.67C9.83,41.22,10.34,40.93,10.16,40.59Z"/><path class="cls-9" d="M8.68,41.51s0,0,0,0a.2.2,0,0,1,0-.13.3.3,0,0,0-.59,0,.77.77,0,0,0,.19.56A.29.29,0,0,0,8.68,41.51Z"/><path class="cls-9" d="M6,45.17a.35.35,0,0,1-.23-.33.3.3,0,0,0-.2-.36.31.31,0,0,0-.37.2.93.93,0,0,0,.5,1,.3.3,0,0,0,.4-.1A.3.3,0,0,0,6,45.17Z"/><path class="cls-9" d="M30,33.74,29.59,33c-.2-.31-.71,0-.51.3l.46.7C29.74,34.35,30.25,34.06,30,33.74Z"/><path class="cls-9" d="M29.29,34.24a1.15,1.15,0,0,1-.41-.64c-.09-.36-.65-.21-.56.16a1.72,1.72,0,0,0,.68,1,.29.29,0,1,0,.29-.51Z"/><path class="cls-9" d="M27.19,36.18a1.51,1.51,0,0,1-.4-.72c-.09-.36-.65-.21-.56.16a2.12,2.12,0,0,0,.54,1C27,36.86,27.46,36.45,27.19,36.18Z"/><path class="cls-9" d="M26,37,26,37l0,0h0l0,0h0l0,0s0,0,0,0v0a.29.29,0,0,0-.36-.21.3.3,0,0,0-.2.36,1,1,0,0,0,.45.57.31.31,0,0,0,.4-.11A.29.29,0,0,0,26,37Z"/><path class="cls-9" d="M24.67,38.62a2.48,2.48,0,0,1-.52-1c-.11-.36-.68-.2-.57.16A3.3,3.3,0,0,0,24.25,39C24.5,39.33,24.91,38.91,24.67,38.62Z"/><path class="cls-9" d="M23.7,38.83l-.08-.27a.3.3,0,0,0-.36-.21.31.31,0,0,0-.21.36l.08.28a.3.3,0,0,0,.36.2A.3.3,0,0,0,23.7,38.83Z"/><path class="cls-9" d="M22.28,41.36A2.22,2.22,0,0,1,21.52,40c-.06-.37-.63-.21-.57.16a2.7,2.7,0,0,0,.92,1.62C22.15,42,22.57,41.6,22.28,41.36Z"/><path class="cls-9" d="M20.69,41.35l-.2-.27a.28.28,0,0,0-.17-.13.31.31,0,0,0-.23,0,.29.29,0,0,0-.1.4l.19.27a.34.34,0,0,0,.18.13.28.28,0,0,0,.22,0A.31.31,0,0,0,20.69,41.35Z"/><path class="cls-9" d="M20.13,43.4a2.31,2.31,0,0,1-.87-1.82.29.29,0,0,0-.58,0,2.84,2.84,0,0,0,1,2.23C20,44.05,20.42,43.64,20.13,43.4Z"/><path class="cls-9" d="M17.63,44.14l-.21-.36a.3.3,0,0,0-.51.3l.21.36a.3.3,0,0,0,.51-.3Z"/><path class="cls-9" d="M16.48,45.3A1.69,1.69,0,0,1,16,44.21c0-.38-.6-.38-.58,0a2.25,2.25,0,0,0,.62,1.51C16.32,46,16.74,45.58,16.48,45.3Z"/><path class="cls-9" d="M15.22,46.16h0v0h0s0,0,0,0a.3.3,0,0,0-.59,0,.65.65,0,0,0,.31.6.29.29,0,0,0,.4-.1A.3.3,0,0,0,15.22,46.16Z"/><path class="cls-9" d="M15.22,46.16Z"/><path class="cls-9" d="M13.27,49.18a4.24,4.24,0,0,1-.78-1.56.29.29,0,0,0-.56.15,4.9,4.9,0,0,0,.92,1.82C13.09,49.89,13.5,49.47,13.27,49.18Z"/><path class="cls-9" d="M12,49.45s0-.05,0,0a.17.17,0,0,1,0-.14.3.3,0,1,0-.56-.19.8.8,0,0,0,.32.88A.3.3,0,0,0,12,49.45Z"/><path class="cls-9" d="M11.21,51.33a2.65,2.65,0,0,1-.45-1.08c-.06-.38-.63-.22-.56.15a3.23,3.23,0,0,0,.5,1.23C10.92,51.94,11.43,51.65,11.21,51.33Z"/><path class="cls-9" d="M8.77,52.32a.33.33,0,0,0-.21-.09.3.3,0,0,0-.29.3v.15a.3.3,0,0,0,.08.21.28.28,0,0,0,.21.08.28.28,0,0,0,.29-.29v-.15A.3.3,0,0,0,8.77,52.32Z"/><path class="cls-9" d="M17.8,33.06A1.66,1.66,0,0,1,17,32a.3.3,0,0,0-.57.16,2.34,2.34,0,0,0,1.1,1.37C17.83,33.75,18.13,33.24,17.8,33.06Z"/><path class="cls-9" d="M13.68,37.23a2.43,2.43,0,0,1-.47-.54.3.3,0,0,0-.4-.1.31.31,0,0,0-.11.4,3.21,3.21,0,0,0,.57.65.3.3,0,0,0,.41,0A.29.29,0,0,0,13.68,37.23Z"/><path class="cls-9" d="M34.86,42.26c-.32-.24-.69-.52-.67-1s-.57-.37-.59,0a1.83,1.83,0,0,0,1,1.46C34.87,43,35.16,42.48,34.86,42.26Z"/><path class="cls-9" d="M34,42.66a.27.27,0,0,0-.13-.18l-.07,0,0,0,0-.06a.32.32,0,0,0-.18-.14.3.3,0,0,0-.36.21.33.33,0,0,0,0,.22.7.7,0,0,0,.34.34.37.37,0,0,0,.23,0,.31.31,0,0,0,.18-.14A.28.28,0,0,0,34,42.66Z"/><path class="cls-9" d="M33.28,43.6a1.29,1.29,0,0,1-.77-.9c-.08-.37-.65-.21-.56.16a1.83,1.83,0,0,0,1,1.25C33.33,44.26,33.62,43.76,33.28,43.6Z"/><path class="cls-9" d="M30.63,45.85a1.26,1.26,0,0,1-.34-.91.3.3,0,0,0-.59,0,1.94,1.94,0,0,0,.52,1.33C30.47,46.55,30.89,46.13,30.63,45.85Z"/><path class="cls-9" d="M28.93,46.07l-.23-.31a.36.36,0,0,0-.17-.13.3.3,0,0,0-.34.43l.24.31a.28.28,0,0,0,.17.13.31.31,0,0,0,.23,0A.29.29,0,0,0,28.93,46.07Z"/><path class="cls-9" d="M27.88,47.53a2,2,0,0,1-.71-1.27c-.05-.37-.61-.22-.56.15a2.41,2.41,0,0,0,.85,1.53C27.75,48.18,28.17,47.77,27.88,47.53Z"/><path class="cls-9" d="M25.67,49.55a.8.8,0,0,1-.56-.58.29.29,0,0,0-.56.16,1.39,1.39,0,0,0,1,1A.3.3,0,0,0,25.67,49.55Z"/><path class="cls-9" d="M23.7,50.15l-.06,0s0,0,0-.05l0,0v-.07a.3.3,0,0,0-.59,0,.8.8,0,0,0,.28.64.29.29,0,0,0,.41-.42Z"/><path class="cls-9" d="M23.53,51.54a1.8,1.8,0,0,1-.9-.86c-.17-.34-.68,0-.51.29A2.31,2.31,0,0,0,23.23,52a.29.29,0,1,0,.3-.5Z"/><path class="cls-9" d="M21.45,53.35a1.12,1.12,0,0,1-.67-.9c-.06-.37-.63-.21-.57.16a1.72,1.72,0,0,0,1.08,1.31.29.29,0,0,0,.36-.2A.3.3,0,0,0,21.45,53.35Z"/><path class="cls-9" d="M20,53.56h0a.29.29,0,0,0-.11-.4.31.31,0,0,0-.4.11.56.56,0,0,0-.07.42.3.3,0,0,0,.14.17.25.25,0,0,0,.22,0,.27.27,0,0,0,.18-.13.39.39,0,0,0,0-.18Z"/><path class="cls-9" d="M18.62,54.74a.67.67,0,0,1-.28-.55.3.3,0,0,0-.59,0,1.24,1.24,0,0,0,.58,1.05C18.64,55.45,18.94,54.94,18.62,54.74Z"/><path class="cls-9" d="M17.4,55.14l-.28-.34a.29.29,0,0,0-.41,0,.3.3,0,0,0,0,.41l.27.35a.3.3,0,0,0,.42-.42Z"/><path class="cls-9" d="M16.2,57.23a1.08,1.08,0,0,1-.31-.76c0-.37-.6-.37-.59,0a1.78,1.78,0,0,0,.48,1.18C16.05,57.92,16.46,57.5,16.2,57.23Z"/><path class="cls-9" d="M14.57,57.27a.26.26,0,0,0-.21-.08.26.26,0,0,0-.2.08.29.29,0,0,0-.09.21v.12a.27.27,0,0,0,.09.2.31.31,0,0,0,.2.09.27.27,0,0,0,.21-.09.29.29,0,0,0,.09-.2v-.12A.33.33,0,0,0,14.57,57.27Z"/><path class="cls-9" d="M14.07,58.63,14,58.57s0,0,0-.06a.21.21,0,0,0,0-.06s0-.1,0,0a.29.29,0,1,0-.56-.16.83.83,0,0,0,.26.79.31.31,0,0,0,.42,0A.3.3,0,0,0,14.07,58.63Z"/><path class="cls-9" d="M37.66,39.43c-.26-.17-.61-.39-.64-.73s-.62-.38-.59,0a1.74,1.74,0,0,0,.94,1.24C37.68,40.15,38,39.64,37.66,39.43Z"/><path class="cls-9" d="M38.18,38.68l0,0h0l0,0,0,0h0l0,0v0a.13.13,0,0,1,0-.06.3.3,0,0,0-.36-.21.31.31,0,0,0-.21.36.78.78,0,0,0,.42.56.29.29,0,1,0,.3-.5Z"/><path class="cls-9" d="M35.6,41.2a1.15,1.15,0,0,1-.61-.56c-.17-.34-.68,0-.51.3a1.68,1.68,0,0,0,.83.77.31.31,0,0,0,.4-.1A.31.31,0,0,0,35.6,41.2Z"/><path class="cls-9" d="M30.78,20.66a6.94,6.94,0,0,1-.76,1.1c-.24.29.17.71.41.42A9.27,9.27,0,0,0,31.29,21,.3.3,0,0,0,30.78,20.66Z"/><path class="cls-9" d="M32.76,20.17a.29.29,0,0,0-.4.1l-.39.87a.29.29,0,1,0,.5.3l.39-.87A.29.29,0,0,0,32.76,20.17Z"/><path class="cls-9" d="M35,29.7a.29.29,0,0,0-.36.2A1.75,1.75,0,0,1,34.09,31c-.29.25.13.67.41.42a2.23,2.23,0,0,0,.73-1.37A.3.3,0,0,0,35,29.7Z"/><path class="cls-9" d="M37.34,31.24a4.76,4.76,0,0,0-1.81.51c-.34.18,0,.68.3.51a4,4,0,0,1,1.51-.43C37.71,31.8,37.71,31.21,37.34,31.24Z"/><path class="cls-9" d="M42.9,35.66a.3.3,0,0,0-.4.11,2.66,2.66,0,0,1-.73,1c-.29.25.13.66.41.42A3.15,3.15,0,0,0,43,36.06.31.31,0,0,0,42.9,35.66Z"/><path class="cls-9" d="M44.58,36.5a.29.29,0,0,0-.36-.2,4.46,4.46,0,0,0-.8.2c-.35.13-.2.7.16.57a5.54,5.54,0,0,1,.8-.21A.29.29,0,0,0,44.58,36.5Z"/></svg>