<svg id="Layer_1" data-name="Layer 1" xmlns="http://www.w3.org/2000/svg" viewBox="0 0 180.26 398.3"><defs><style>.cls-1{fill:#bbcbd2;}.cls-2{fill:#f0f3f3;}.cls-3{fill:#4b666b;}</style></defs><path class="cls-1" d="M96.7,95H91.55c-.89,12.52-10,279.59-10.23,288.91h25.62C106.67,374.57,97.62,107.5,96.7,95Z"/><path class="cls-2" d="M96.23,95c-.84,0,.88,288.91.88,288.91h8.54C105.4,374.33,97.09,107.5,96.23,95Z"/><path class="cls-1" d="M79.26,81.23c-4.67-2.45-69.77-.52-69.94,2S29.47,89.16,54.74,91s40.15,3.3,40.34.8S88.35,86,79.26,81.23Z"/><path class="cls-2" d="M15,82.93l75,5.28c-2.28-1.37-5.24-2.92-8-4.38-1-.52-2.11-1.08-3.21-1.67C75.4,80.39,30.44,81.24,15,82.93Z"/><path class="cls-1" d="M93.2,110c.22,5.27,34.42,60.68,36.69,59.59s-4.92-20.44-16-43.22S96.65,90,94.41,91.08,92.81,99.76,93.2,110Z"/><path class="cls-2" d="M126.79,164.81,93.86,97.22c0,2.68.1,6,.24,9.14.05,1.17.11,2.37.15,3.62C94.4,113.8,117.61,152.31,126.79,164.81Z"/><path class="cls-1" d="M110.7,83.65c4.46-2.83,35.35-60.16,33.27-61.57s-15.24,14.47-29.42,35.46S91.61,90.68,93.69,92.08,102,89.13,110.7,83.65Z"/><path class="cls-2" d="M141.35,27.16,99.28,89.48c2.34-1.3,5.16-3.1,7.81-4.79l3-1.93C113.37,80.72,135.12,41.36,141.35,27.16Z"/><path class="cls-1" d="M94.54,87.3a4.46,4.46,0,1,0,4.13,4.76A4.48,4.48,0,0,0,94.54,87.3Z"/><path class="cls-3" d="M94.43,88.77A3,3,0,1,0,97.2,92,3,3,0,0,0,94.43,88.77Z"/><path class="cls-1" d="M115.19,385.88c0,1.27-.72,2.3-1.62,2.3H75.2c-.91,0-1.62-1-1.62-2.3s.71-2.27,1.62-2.27h38.37c.9,0,1.62,1,1.62,2.27Z"/></svg>