<svg id="Layer_1" data-name="Layer 1" xmlns="http://www.w3.org/2000/svg" viewBox="0 0 153.74 257.32"><defs><style>.cls-1{fill:#65a343;}.cls-2{fill:#79b943;}.cls-3{fill:#49803c;}.cls-4{fill:#d43e27;}.cls-5{fill:#bd3927;}.cls-6{fill:#795044;}.cls-7{fill:#5c382f;}.cls-8{fill:#936956;}.cls-9{fill:#758f3c;}</style></defs><path class="cls-1" d="M147.57,74.79s2.07,1.41,1.69,2.72-2.82.84-2.82.84,1,3.78-1.12,5.79c-2.75,2.63-7.89-.34-8.17-5,0,0-.37,3.86-3.47,4.13S129.46,80,129.46,80s-.18,2.44-2.06,2.34a3.37,3.37,0,0,1-2.52-1.63c.72,1.3,2.26,4.67-.3,5.58-3.19,1.12-5.53-3.67-5.53-3.67a3.08,3.08,0,0,1-2.35,2c-1.87.37-2.16-3.1-2.16-3.1s-.09,4.94-3.38,5-3.75-3.93-3.75-3.93S107,85.67,104.78,85a3.46,3.46,0,0,1-2.34-3.1s-1.13,4.67-4.23,4.5-2.81-3.93-2.81-3.93-1.88,2.63-3.28,1.5-.85-3.56-.85-3.56-2.38,2.85-4.22,1.49c-2.22-1.61-.44-5.58-.3-5.89-.15.2-1.64,2.1-3.12,1.3a4.89,4.89,0,0,1-2-2.9s-.28,5.53-3.28,5.71-3.47-3.38-3.47-3.38-1.79,3.29-4.41.66a4.68,4.68,0,0,1-4.88,4c-4.32-.1-5.44-4.32-5.44-4.32s-.57,3.66-2.81,2.72a5,5,0,0,1-2.64-3.66s0,4.41-2.63,5.16-6.37-2.72-6.37-2.72a4.48,4.48,0,0,1-.19,3.37c-.84,1.69-3.1.11-3.1.11s1.16,3.37-1.15,4.5-4.68-1.67-4.85-1.87c0,.14,0,3.18-2,3.56a2.92,2.92,0,0,1-3.19-1.69s-1.43,4.13-5.38,3.28a4,4,0,0,1-2.44-6.29c-.36.36-1.71,1.5-3,.62a2.75,2.75,0,0,1-1-2.82c-.11.4-.92,2.93-3.18,2.58-2.44-.38-1.87-3.66-1.87-3.66S10.75,83.8,8.38,82c-2.63-2.06.27-5.42.4-5.56-.19.09-2.81,1.23-3.61-.48s1.46-2.63,1.46-2.63-4.41.54-4.41-3.19c0-3.09,3.66-3.28,3.66-3.28S2.68,64.34,4.29,62c1.77-2.57,6.05-1,6.36-.86C10.4,61,6.7,58.48,8.6,56.39c2.49-2.71,5.8.2,6.08.46-.19-.26-2.34-3.15-1-4.62,1.08-1.18,3.26-.63,4.73.3a2,2,0,0,1-.34-1.86A2.57,2.57,0,0,1,21.17,49c-.36-.1-3.41-1-2.93-2.42s2.56-1.41,2.56-1.41-4.69-.94-3.94-3.76,4.78-2.63,4.78-2.63-3.75-.94-2.34-3.47c1.31-2.37,4.2-1.37,4.56-1.23-.33-.3-3.41-3-1.37-5s6.69.32,7.11.54c-.25-.28-2.43-2.71-1-4.21s3.69-.15,3.92,0c-.28-.22-3.08-2.62-1.2-4.85s4.88,1.39,5.31,1.91c-.25-.4-1.54-2.59-.43-3.69s3.94,0,3.94,0S36,13.61,38.82,11.92s4.69,3.56,4.87,4.59a4.62,4.62,0,0,1,2.82-4.22c2.91-1.21,5.16,2.16,5.16,2.16s-1.78-6.57.85-8.16c2.45-1.5,5.07,2.43,5.71,5-.2-1.13-.45-3.83,1.7-3.83,2.72,0,3.19,3.1,3.19,3.1s-.19-7.69,3-8.26,4.41,2.63,4.23,5.16c0,0,.65-4.13,2.81-3.84a2.61,2.61,0,0,1,2.16,2.62S75.89,0,79.36,0s4.5,4,4.5,4,1.69-1.87,3.38-1.5.64,3.52.57,3.75C88,6.09,92,2.57,94.46,4.13S93,10.64,92.78,10.87c.12-.06,2.94-1.56,4.78-.36S99,14.92,99,14.92s1.59-6.28,4.59-5.16c2.73,1,1.13,5.5.81,6.32a2.73,2.73,0,0,1,2.95-1.63c2.35.28,2.15,2.82,2.15,2.82s1.6-4.88,4.32-4.61,2.63,4.89,2.63,4.89,2.16-1.6,3.66-.94,2,3,2,3,3.56-4.6,7.41-3.1,0,6.58,0,6.58a3.13,3.13,0,0,1,3.38,1.21c1.43,1.78-.71,3.58-.92,3.75.23-.14,3.17-1.87,5.14.29s-2.85,5.23-3.17,5.43a2.39,2.39,0,0,1,2.42.48.8.8,0,0,1,.13.13c.94,1.09-.79,3.25-.79,3.25s2.82-2.91,4.7-.19-1.74,6.34-2,6.56a.77.77,0,0,0,.15-.06l.08,0,.27-.1c.84-.28,2.46-.6,3.15.76.88,1.78-.76,3.49-.92,3.66.29-.08,4.82-1.32,6.55,1.13,1.61,2.3-2.47,4.28-3.24,4.63a3,3,0,0,1,3.61.87c1.41,1.91-1.69,5.66-1.69,5.66s3.57-.66,4.79,2-3.38,4.32-3.38,4.32,3.84,1.13,4.22,4.69S147.57,74.79,147.57,74.79Z"/><path class="cls-2" d="M131.14,18.51a2.41,2.41,0,0,0-1.68-2c-3.85-1.5-7.41,3.1-7.41,3.1s-.47-2.34-2-3-3.66.94-3.66.94c-2.44,2.34-2,4.58-2,4.58s-2.6-3.46-5.42-1.3,1.43,6.57,1.43,6.57c0-6.52,6-2.25,6-2.25a4.15,4.15,0,0,1,1.12-3.34c3-2.56,5.26,2.31,5.26,2.31a15.82,15.82,0,0,1,3-3.52C129.47,17.27,131,18.5,131.14,18.51Z"/><path class="cls-3" d="M87.85,68.25c0-.19,0-.31,0-.31S87.87,68.05,87.85,68.25Z"/><path class="cls-3" d="M147.76,66.81s4.6-1.69,3.38-4.32-4.79-2-4.79-2,3.1-3.75,1.69-5.66a3.08,3.08,0,0,0-3.71-.83c.4-.17,5-2.25,3.34-4.67a3.49,3.49,0,0,0-2-1.32c.77,4.6-9.34,5.07-9.34,5.07s1.81,1.73,0,4.66c-1.36,2.19-5.42,1.91-5.42,1.91,2.88,3.06,4,6.59,1.82,8.42a3.84,3.84,0,0,1-5.57-.07s1.59,3.19-1.14,5-7.59-2.15-7.59-2.15.28,4.41-3.1,5.06S109.76,73,109.76,73s-.47,3.76-3.38,4a5.16,5.16,0,0,1-4.51-1.89L97,74.22a5.77,5.77,0,0,1-5.53,1.72c-4.12-.83-3.78-6.34-3.61-7.69a4.26,4.26,0,0,1-3.34,3.44c-3.19.75-2.44-4.41-2.44-4.41A2.72,2.72,0,0,1,80,69.48C78.13,70,78.51,67,78.51,67s-1.78,3.75-4.69,3-2.35-4.57-2.35-4.57l-5.53,1.85s-1.22,4.6-4.88,5-3.38-3.84-3.38-3.84-3.49,6-6.75,1.86c-2.23,5.47-5.17-.08-5.17-.08-2.25,2.72-6.1,0-6.1,0a6.4,6.4,0,0,1-1.59,5.72,9.66,9.66,0,0,1-3.33,3.85c-2.58,1.88-6.15-2.53-6.15-2.53s.56,3.47-2.63,4.13-2.91-3.76-2.91-3.76A2.64,2.64,0,0,1,20.89,80c-2,.28-1.5-3.38-1.5-3.38a17.11,17.11,0,0,1-2,4.41,4.06,4.06,0,0,1-3,1.5,2.06,2.06,0,0,0,1.7,1.41c2.44.37,3.19-2.63,3.19-2.63a2.77,2.77,0,0,0,1,2.86c1.5,1,3.1-.7,3.1-.7a4,4,0,0,0,2.34,6.38c3.94.84,5.38-3.28,5.38-3.28a2.91,2.91,0,0,0,3.19,1.69c2.07-.38,2-3.57,2-3.57s2.4,3.06,4.84,1.88S42.38,82,42.38,82s2.25,1.6,3.1-.09a4.56,4.56,0,0,0,.19-3.38s3.75,3.47,6.38,2.72,2.62-5.16,2.62-5.16a5,5,0,0,0,2.63,3.66c2.25.94,2.82-2.72,2.82-2.72s1.12,4.22,5.44,4.32a4.67,4.67,0,0,0,4.88-4c2.63,2.63,4.41-.65,4.41-.65s.47,3.56,3.47,3.38,3.29-5.73,3.29-5.73a4.82,4.82,0,0,0,2,2.91c1.56.84,3.14-1.31,3.14-1.31s-2,4.22.28,5.91c1.84,1.34,4.22-1.5,4.22-1.5s-.56,2.44.85,3.56,3.28-1.5,3.28-1.5-.28,3.75,2.81,3.93,4.23-4.49,4.23-4.49A3.44,3.44,0,0,0,104.78,85c2.25.66,2.63-2.53,2.63-2.53s.47,3.94,3.75,3.93,3.38-5,3.38-5,.28,3.47,2.16,3.1a3.08,3.08,0,0,0,2.35-2s2.34,4.79,5.53,3.66c2.56-.9,1-4.26.31-5.57a3.35,3.35,0,0,0,2.51,1.63c1.87.1,2.06-2.34,2.06-2.34s1.13,3.66,4.22,3.38,3.48-4.13,3.48-4.13c.28,4.59,5.41,7.57,8.16,4.94,2.11-2,1.13-5.79,1.13-5.79s2.44.47,2.81-.84-1.69-2.72-1.69-2.72,4.79.28,4.41-3.29S147.76,66.81,147.76,66.81Z"/><path class="cls-2" d="M97.56,10.51c-1.88-1.22-4.79.37-4.79.37S97,5.72,94.46,4.13,87.8,6.29,87.8,6.29s1.12-3.38-.56-3.76S83.86,4,83.86,4s-1-4-4.51-4-4,6.19-4,6.19a2.61,2.61,0,0,0-2.16-2.62C71,3.28,70.35,7.41,70.35,7.41c.18-2.53-1-5.72-4.23-5.16s-3,8.26-3,8.26-.47-3.1-3.19-3.1c-2.15,0-1.9,2.69-1.7,3.82C57.6,8.72,55,4.79,52.52,6.29c-2.63,1.59-.85,8.16-.85,8.16s-2.25-3.38-5.16-2.16a4.6,4.6,0,0,0-2.81,4.22c-.19-1-2.07-6.28-4.88-4.59s1.31,6.75,1.31,6.75-2.72-1.22-3.94,0,.47,3.76.47,3.76-3.38-4.32-5.35-2,1.22,4.88,1.22,4.88-2.44-1.6-3.94,0,1,4.22,1,4.22-5-2.72-7.13-.56,1.41,5.06,1.41,5.06-3.19-1.31-4.6,1.22,2.34,3.47,2.34,3.47-4-.18-4.78,2.63,3.94,3.75,3.94,3.75-2.06-.09-2.56,1.41,3,2.44,3,2.44a2.59,2.59,0,0,0-3.13,1.69,2,2,0,0,0,.34,1.86,37.62,37.62,0,0,0,8.67,4.34L30.37,48s-2.16-3.66.47-5a15.47,15.47,0,0,1,5.26-1.5S31.87,40.07,33.37,38s4.7,0,4.7,0-2-3-.57-3.56,3.66.75,3.66.75-3.84-4.13-.75-6.1,4.6,0,4.6,0,.09-4.88,4-6.19a10.2,10.2,0,0,1,7.51.65S54,20.17,56,18.77s4.5.37,4.5.37-.75-4,.85-4.88,3,3,3,3,.39-4.23,2.92-4.51,3.37,3.29,3.37,3.29-.28-5.17,3.37-5.73,5.07,4.13,5.07,4.13,1.22-4.88,3.38-4.79,2.25,4.79,2.25,4.79,1.81-3.58,4.6-2.72c2.35.72,2.44,4.88,2.44,4.88s2.91-5.44,7.22-1.69c0,0,0-.2.05-.55C99.05,13.41,99,11.42,97.56,10.51Z"/><path class="cls-3" d="M138.39,44s-1.47,1.7-5.36,2.12c.19,1.08.61,2.86-.7,4.34-2.89,3.25-6.35.45-6.35.45s-.81,5.41-4.19,6.29-10.89-2-11.14-2.31-9.43,3.6-9.68,3.76a48.8,48.8,0,0,1-5.32,2.67C95,61.38,92,59.75,92,59.75s-4.56,2-6.51-.44a6.55,6.55,0,0,1-5,3,4.61,4.61,0,0,1-5-5.1,4.11,4.11,0,0,0,5.25,1.17c3.5-1.5,2.82-5.92,2.82-5.92s2.94,3.23,6.07,1.79,2.63-5.07,2.63-5.07,1.56,2.19,3.56,1.13.72-4.08.64-4.31c.14.11,1.48,1.1,3.62-.39,0,0,1.87,2.38,4.19,1A6.49,6.49,0,0,0,107.1,43s.44,1.75,3.44.81c0,0-1.44,3,1.13,3.63,2.34.58,3.22-3,3.36-3.59-.06.63-.31,4.29,2.89,4.46,3.5.2,3.69-3.69,3.69-3.69s2.25,3.58,5,2.26A2.72,2.72,0,0,0,127.81,43s6.58.33,6.36-4.81a3.63,3.63,0,0,1,2.27-3.85c.94,1.09-.79,3.25-.79,3.25s2.82-2.91,4.7-.19S138.61,43.78,138.39,44Z"/><path class="cls-3" d="M71.63,37.16C71.35,36.22,71,34,71,34c-4.25,1.25-5-1.41-5-1.41a2.89,2.89,0,0,1-1.69,3.28A3.16,3.16,0,0,1,60.59,35s.18,3.85-2,4.32-2.82-1.88-2.82-1.88a4,4,0,0,1-2.72,2.16c-1.78.19-2.63-2.16-2.63-2.16A3.35,3.35,0,0,1,49,40.72c-1.78,1.13-5.25-.56-5.25-.56a3.94,3.94,0,0,1-1.41,3.1c-1.59,1.5-3.28-.38-3.28-.38a2.6,2.6,0,0,1-.56,3.1,5.79,5.79,0,0,1-3.8,1.13L32.34,56l1.6,2.63,2.34-2.35,3.57-2.81,12.94-3.4s6.2-5.61,9.86-7.4c.75-.36,2.12.05,3.12-.1C65.5,39.3,69,36.75,71.63,37.16Z"/><path class="cls-4" d="M122.12,54.24c-1.41,4.34,1.9,8.92,7.46,7.65s5.44-8.85,1.74-11A6.12,6.12,0,0,0,122.12,54.24Z"/><path class="cls-5" d="M131.32,50.87a7.7,7.7,0,0,0-.81-.41c.05.16,1.78,5.59-1.43,8a6.55,6.55,0,0,1-6.73.37c1.08,2.35,3.7,3.91,7.23,3.1C135.13,60.62,135,53,131.32,50.87Z"/><path class="cls-1" d="M117.54,62.74c.92-4.06,4.54-6.38,6.74-4.56s2.13,5.31,2.13,5.31-7.19,1.69-7.44,1.69A12.39,12.39,0,0,1,117.54,62.74Z"/><path class="cls-4" d="M66.32,25c-2.31,1.35-4.25,5.48-2.13,8.76C67,38,72.86,36.73,74.87,34a6.43,6.43,0,0,0-1-8.69A6.7,6.7,0,0,0,66.32,25Z"/><path class="cls-5" d="M74.87,34a6.43,6.43,0,0,0-1-8.69,7.07,7.07,0,0,0-.63-.44s1.9,5.45-1.8,7.65-7.94-.46-8-.51a5.5,5.5,0,0,0,.74,1.74C67,38,72.86,36.73,74.87,34Z"/><path class="cls-4" d="M43.16,37.32c-2.12,3-1.26,10.21,6.12,9.62,6.81-.53,6.24-8.54,3.78-10.7A6.65,6.65,0,0,0,43.16,37.32Z"/><path class="cls-5" d="M53.06,36.24a8.27,8.27,0,0,0-.88-.64c.15.95.88,4.89-2.44,7.28a6.15,6.15,0,0,1-7.43-.58c.53,2.62,2.6,5,7,4.64C56.09,46.41,55.52,38.4,53.06,36.24Z"/><path class="cls-4" d="M118.24,37a5,5,0,0,0-.51,1.06c-1.65,4.82,2.61,8.39,7.26,6.34a4.68,4.68,0,0,0,2.7-5.72A14.15,14.15,0,0,1,118.24,37Z"/><path class="cls-5" d="M125.74,38.36A3.92,3.92,0,0,1,123.61,42a6.48,6.48,0,0,1-5.89,0c1,2.54,4,3.84,7.27,2.41a4.75,4.75,0,0,0,2.47-6.4A12.22,12.22,0,0,1,125.74,38.36Z"/><path class="cls-4" d="M25.77,46.45c-3.78,3.63-1.69,10.48,4.7,10.48,7.24,0,7.5-8.31,4.52-11C32.69,44,28,44.28,25.77,46.45Z"/><path class="cls-5" d="M35,46a4.9,4.9,0,0,0-.74-.52c.07,1.42,0,5.47-2.78,7.18-3.13,1.93-7.15,0-7.32-.09a6.22,6.22,0,0,0,6.32,4.38C37.71,56.93,38,48.62,35,46Z"/><path class="cls-2" d="M56.55,52.64v-.19A.94.94,0,0,0,56.55,52.64Z"/><path class="cls-2" d="M67.25,45s.37-4.7-4.22-4.8S58.15,45,58.15,45s-.57-4.24-3.38-3.77-3,4.32-3,4.32-2.26-4.6-6.29-2.91-1.78,6.66-1.78,6.66-3-3.19-5.54-1.59,0,5.35,0,5.35a3.08,3.08,0,0,0-3.66,0c-1.78,1.4,0,3.84,0,3.84-1.5-1-3.47,0-3.47,0s1.69-2.62-.75-4.31S26,53.77,26,53.77s-.09-2.07-3-3.57-4.54,2.33-4.54,2.33c-1.47-.93-3.66-1.48-4.73-.3-1.41,1.54,1,4.63,1,4.63s-3.5-3.31-6.1-.47c-2,2.16,2.07,4.79,2.07,4.79S6.13,59.37,4.29,62c-1.61,2.32,1.59,4.79,1.59,4.79S2.22,67,2.22,70.09c0,3.73,4.41,3.2,4.41,3.2s-2.22,1-1.45,2.62,3.61.47,3.61.47S5.69,79.85,8.38,82c2,1.58,4.86-.8,5.64-1.52l.21-.2s-2.84-.16-3.53-1.78c-.92-2.16,2.62-4.76,2.62-4.76s-2.12.38-2.44-1.19C10.5,70.58,14,70.75,14,70.75s-2.28-.82-2.52-2.51c-.48-3.56,4-3.49,4-3.49s-1.25-3.13,1-4.26a2.33,2.33,0,0,1,3.26,1.19s-1-3,.71-3.69c2.23-.94,3.29,2.72,3.29,2.72s1.13-4.13,3.56-3.28.38,3.75.38,3.75,2.16-1.41,3,.09-1.5,4.32-1.5,4.32c3.94-2.91,9.48-.56,9.48-.56-2.25-2.44-1.69-5.82.56-6.85S43.6,59,43.6,59s-.94-3.94,1.6-5.25,5.25,1.87,5.25,1.87-.84-5.16,2.72-5.63c3-.39,3.35,1.78,3.38,2.44A4.57,4.57,0,0,1,58.71,49c2.35-1.69,4.41,1.78,4.41,1.78s-1.88-3.94-.38-5.8S67.25,45,67.25,45Z"/><path class="cls-1" d="M72.78,39.51A3,3,0,0,1,71.63,35c1.77-3,6.52-3.57,7.21-1.31S75.9,41.05,72.78,39.51Z"/><path class="cls-2" d="M72.78,38.19s-5-.87-4.41-3.72,4.41-2.28,4.41-2.28-1.59-2.73.94-4,5.07,2.06,5.07,2.06-2.16-2.43-.66-3.28,3.38.94,3.38.94-3.28-6.57.47-8,5.91,2.44,5.91,5.07c0,0,.38-4.13,3-4s1.68,4.22,1.68,4.22,1.69-6.2,6-5.07S101,25.9,101,25.9s3.75-2,6.38.84-1.13,6.85-1.13,6.85-.37-3.09-3.28-2.91a8.56,8.56,0,0,0-4.79,1.88s1.69-2.74-.46-3.67-3.65,2.26-3.65,2.26-.29-2.26-2.08-2.26a2.09,2.09,0,0,0-2.23,2.17,3.38,3.38,0,0,0-3.4-2.17c-3.66.26-2.81,4-1.13,5.08,0,0-2.6-1.13-3.75.09-1.41,1.5,0,4.13,0,4.13s-5.07-.66-3.75-4.78C77.76,33.41,71,31.72,72.78,38.19Z"/><path class="cls-3" d="M136.31,34.25a2.38,2.38,0,0,0-2.44-.47s5.26-3.19,3.19-5.44-5.16-.28-5.16-.28,2.44-1.88.94-3.76q-.18-.21-.36-.39c.29,3-3,5-3,5s2.19,2.58.82,3.67-3.13-1.28-3.13-1.28.31,3.88-2.32,4.75-4.63-2.5-4.63-2.5-.43,3.19-2.62,3.19a3.24,3.24,0,0,1-2.88-2.31c-.44,1.12-.88,4.89,2.31,5.63a3.34,3.34,0,0,0,4-1.85s1.33,2.38,5.44,1.53a6.16,6.16,0,0,0,4.75-4.38A2.73,2.73,0,0,0,133,38.05a2.69,2.69,0,0,0,2.67-.42S137.53,35.28,136.31,34.25Z"/><path class="cls-3" d="M135.65,37.63l1.27-.93A5.72,5.72,0,0,0,135.65,37.63Z"/><path class="cls-4" d="M48.73,19.07c-2.83,1.07-5.06,4.64-3.22,7.74s6.25,3.33,8.6,1.67c2.58-1.83,2.76-6.3,1-8.09A6,6,0,0,0,48.73,19.07Z"/><path class="cls-5" d="M44.91,25.16a4.72,4.72,0,0,0,.6,1.65c1.84,3.09,6.26,3.33,8.6,1.67,2.58-1.83,2.76-6.3,1-8.09a5.84,5.84,0,0,0-2.91-1.57c.45.78,2.32,4.44-.82,6.66A5.24,5.24,0,0,1,44.91,25.16Z"/><path class="cls-1" d="M54.89,32.44s-7,.1-6.92-2.59,4.63-1.72,4.63-1.72-3.23-2.59-1.34-4.29,4.13,1.34,4.13,1.34-.73-4.81,2.55-4.2S60.1,29.44,54.89,32.44Z"/><path class="cls-2" d="M57.94,21c-3.28-.61-2.55,4.2-2.55,4.2s-2.25-3.05-4.13-1.34,1.34,4.29,1.34,4.29S48,27.16,48,29.85c0,1.36,1.73,2,3.48,2.31-.08-.11-1.56-2.16,0-2.75a10.23,10.23,0,0,1,3.9-.35s-2.09-2.63-.47-2.76a5.06,5.06,0,0,1,3,.94s-1.35-4.9,1.41-4.93l.11,0A2.06,2.06,0,0,0,57.94,21Z"/><path class="cls-1" d="M48.9,32.49c.4-.76-1.54-1.48-2.48-.3S48.2,33.82,48.9,32.49Z"/><path class="cls-4" d="M86.52,33.71a5.1,5.1,0,0,0-2.1,6.72c1.33,2.8,5.52,3.34,7.94,2.15s3.75-5.14,1.81-7.57A5.72,5.72,0,0,0,86.52,33.71Z"/><path class="cls-5" d="M92.36,42.58c2.41-1.19,3.75-5.14,1.81-7.57a6.1,6.1,0,0,0-1.41-1.3c.19,1.39.72,4.81-2.1,6.27-3.67,1.9-6.7-1.14-6.73-1.16a5.31,5.31,0,0,0,.49,1.61C85.75,43.23,89.94,43.77,92.36,42.58Z"/><path class="cls-4" d="M13.58,61.68C9.16,61.91,6.13,67.36,9,71s8.3,2.55,9.73-.78S18.23,61.44,13.58,61.68Z"/><path class="cls-5" d="M16.7,62.56A6.13,6.13,0,0,1,14.82,69a6.07,6.07,0,0,1-6.3,1.23A6,6,0,0,0,9,71c2.91,3.63,8.3,2.55,9.73-.78A6.71,6.71,0,0,0,16.7,62.56Z"/><path class="cls-4" d="M70.36,45.82c-2.46,2.11-3.13,6.68,1.18,9.12s9.61-1.37,9.11-5.48C80.06,44.53,74.48,42.28,70.36,45.82Z"/><path class="cls-5" d="M80.65,49.46a6,6,0,0,0-3.36-4.79c.32,1.1,1.34,5.48-1.71,7.17a7.72,7.72,0,0,1-6.84,0,6,6,0,0,0,2.8,3.09C75.85,57.38,81.15,53.57,80.65,49.46Z"/><path class="cls-4" d="M103.27,38.23a5.4,5.4,0,0,0-3,6.89c1.35,3.86,6,4,8.19,2.5s3.59-5.4,1.28-7.88A5.85,5.85,0,0,0,103.27,38.23Z"/><path class="cls-5" d="M108.44,38.73c.14.89.63,5.08-2.12,6.44-3,1.5-6.23-.83-6.32-.89a5.2,5.2,0,0,0,.22.84c1.35,3.86,6,4,8.19,2.5s3.59-5.4,1.28-7.88A6.09,6.09,0,0,0,108.44,38.73Z"/><path class="cls-4" d="M138.72,58.75a5.87,5.87,0,0,0,5,9.46c6,0,7.44-7.69,4.7-10S141.19,55.59,138.72,58.75Z"/><path class="cls-5" d="M148.38,58.18A7.52,7.52,0,0,0,146.45,57c0,.06,1.68,5.69-1.74,7.66a7.32,7.32,0,0,1-6.73,0,5.82,5.82,0,0,0,5.7,3.53C149.69,68.21,151.12,60.52,148.38,58.18Z"/><path class="cls-4" d="M119,67.12c-2.86,3.43.17,10.68,6.36,9.07s4.62-7.77,2.79-9.62A6.39,6.39,0,0,0,119,67.12Z"/><path class="cls-5" d="M126.21,65.32c0,.05,2.42,6.3-1.87,8a5.6,5.6,0,0,1-6.12-1.09,5.7,5.7,0,0,0,7.15,4c6.13-1.58,4.62-7.77,2.79-9.62A5.61,5.61,0,0,0,126.21,65.32Z"/><path class="cls-4" d="M96.85,69a6.31,6.31,0,0,0-2.43,4.76c-.11,2.69,1.39,5.5,5.5,6.13,7.11,1.08,9.78-7.47,5.81-10.62a8.8,8.8,0,0,0-1.35-.9A6.9,6.9,0,0,0,96.85,69Z"/><path class="cls-5" d="M105.73,69.23a9.83,9.83,0,0,0-.9-.63c.24,1.23.24,6.92-3.5,7.94a8,8,0,0,1-6.69-.88c.55,2,2.16,3.71,5.28,4.19C107,80.93,109.7,72.38,105.73,69.23Z"/><path class="cls-4" d="M88,54.38c-2.26,3.34,1,9.74,7.18,8.1s5-7.67,1.95-10C93.21,49.47,89.57,52.07,88,54.38Z"/><path class="cls-5" d="M88,59.43l0,.14a6,6,0,0,0,7.21,2.91c6.18-1.65,5-7.67,1.95-10a7.44,7.44,0,0,0-1.31-.8c.51,1.46,1.59,5.49-1.43,7.31C90.67,61.21,88,59.43,88,59.43Z"/><path class="cls-4" d="M31.7,71.81a6.05,6.05,0,0,0-1.23,3.7c.16,3.17,2.62,6.7,7.63,5.22,6.89-2,3.91-10.57,0-11-.37,0-.72-.1-1.06-.11C34.84,69.55,33.34,69.88,31.7,71.81Z"/><path class="cls-5" d="M38.11,69.7h-.24c.7.84,2.24,6.11-1,8a5.36,5.36,0,0,1-5.87,0c1,2.33,3.3,4.12,7.13,3C45,78.69,42,70.16,38.11,69.7Z"/><path class="cls-1" d="M17.89,69.58S14,69.72,15,72.25s5.21.75,6.24-.75,0-5.49-1.87-6S16.44,67.7,17.89,69.58Z"/><path class="cls-4" d="M47.89,60.56c-1.24,2.25-.83,8.56,5.46,8.11a5.56,5.56,0,0,0,3.54-9.89C53.73,56.56,49.75,57.19,47.89,60.56Z"/><path class="cls-5" d="M56.89,58.78a7.66,7.66,0,0,0-1.23-.71s1.77,4.65-1.28,6.87a7.39,7.39,0,0,1-6.47.93c.79,1.69,2.44,3,5.44,2.8A5.56,5.56,0,0,0,56.89,58.78Z"/><path class="cls-1" d="M45.15,57.17c-1.56,1.88-3.56,5.82-1,6.07s3.32-3.88,3.32-3.88a2.54,2.54,0,0,0,2.81.85c1.63-.66.82-2.72.82-2.72s1.44,3.37,4.13,2.25S57,55.8,53.79,54.92s-5,.66-5,.66Z"/><path class="cls-4" d="M63.67,62.8c-1.83,2.48-1.4,9.75,6,8.36C75.9,70,74.43,62.47,70.56,61,67.41,59.75,65.39,60.46,63.67,62.8Z"/><path class="cls-5" d="M70.56,61c.65,1,1.78,5.82-1.69,7.51a5.15,5.15,0,0,1-6-1c.54,2.37,2.47,4.44,6.7,3.64C75.9,70,74.43,62.47,70.56,61Z"/><path class="cls-1" d="M60.43,61.32c-1.19,2-.25,4.93,1.56,4.61s2.19-3.44,2.19-3.44a2.94,2.94,0,0,0,2.63.63c1.31-.5.88-2.25.88-2.25s3.12,2.55,4.25,1.21S69.2,57,67.26,56.93,60.43,61.32,60.43,61.32Z"/><path class="cls-2" d="M77.49,19c.74-.86-1.64-4.32-3.15-2.88C73.17,17.25,76.55,20.11,77.49,19Z"/><path class="cls-2" d="M73.79,19.28c-1.66-.24-2.4,1.34-.75,1.87,1.46.47,2.47,0,2.45-.63S74.5,19.38,73.79,19.28Z"/><path class="cls-2" d="M90.94,65.51s2.37-2.2,4.63-.44a3.26,3.26,0,0,1,1.62-3.21c2.19-1.25,4.45,1.06,4.45,1.06s-.82-2.69,1.25-3.69,3.81,1,3.81,1-.13-3.51,2.44-4,3.58,2.43,3.58,2.43a4,4,0,0,1,4.49-.8,4.11,4.11,0,0,1,2.56,3.63s1.88-3,4.39-1.57a3.87,3.87,0,0,1,2.25,3.57s2.06-4.19-.76-6.63a4.43,4.43,0,0,0-5.37-.38,4,4,0,0,0-3.13-3.88c-3.25-.81-3.75.94-3.75.94s-1.54-4.78-5-3.81-3.25,5.63-3.25,5.63-.81-3-3.69-2.44c-3.42.67-2.5,5.28-2.5,5.28a3,3,0,0,0-3.51-.65c-3.23,1.85-2,4.49-2,4.49S90.38,63.26,90.94,65.51Z"/><path class="cls-1" d="M92.21,67.56s-2.46,2.73-1.38,5.31,4.69,2.32,5.13-1.75c0,0,2.25,3.26,4.19,2.13s.5-4.19.5-4.19.94,2.06,2.19,1.5,1.38-2.69,1.38-2.69-.25,4.19,2.63,3.69a3.78,3.78,0,0,0,2.94-4.94C109.29,64.93,93.6,65.12,92.21,67.56Z"/><path class="cls-1" d="M100.42,37.16c-1.43.82-3,2.16-1,3.24a3.62,3.62,0,0,0,3.89-.61s0,2.58,1.36,2.48,1.5-2.12,1.5-2.12,3,2.54,4.37.48S103.05,35.66,100.42,37.16Z"/><path class="cls-1" d="M109.48,34.28s-4.32-1.19-2.32-2.75,4.19.25,4.19.25-.94-2.1.63-2.46,1.87,1.46,1.87,1.46.32-3.38,2.76-3.38-.49,4.88-2.19,5.76A16.78,16.78,0,0,1,109.48,34.28Z"/><path class="cls-1" d="M88.21,32c-2.12.52-2.74,2.8-.52,3.31a3.85,3.85,0,0,0,3.42-.57s-.63,2.9,1.19,3.47,2-1.65,2-1.65,2.85.41,3.31-.83c.22-.58-1.22-2.91-3.44-3.65A13,13,0,0,0,88.21,32Z"/><path class="cls-1" d="M29.92,72.47c0,2.41.76,4.56,3.21,3.59s1.64-4,1.64-4,2,2.75,4.09,1.32,1.32-3.6-1.45-4.85S29.91,70.81,29.92,72.47Z"/><path class="cls-3" d="M109.3,68.9c-1,1.84-.92,4,.82,3.38,1.21-.43,1.22-1.89,1-3.16S110,67.62,109.3,68.9Z"/><path class="cls-3" d="M112.67,68.55c-.67.41.18,3.93,1.43,4.38s2.61-.65,1.79-2.24S113.58,68,112.67,68.55Z"/><path class="cls-3" d="M27.22,72.39c-1.11,2-1.24,4.67.79,4.2,1.61-.37,1.83-3,1.44-4.67C29.22,71,28.23,70.53,27.22,72.39Z"/><path class="cls-2" d="M22.41,62.61c-1.19-1.51-3.63.27-1.32,2.35C22.85,66.54,24.44,65.2,22.41,62.61Z"/><path class="cls-2" d="M16.85,73c-1.46.35-3,1.78-2,2.57s2.77-.66,3.39-1.83C18.66,72.93,17.79,72.79,16.85,73Z"/><path class="cls-2" d="M25.23,63.53c-.93,1-1.36,2.23-.37,2.17s2.43-1.22,2.15-1.93S26,62.73,25.23,63.53Z"/><path class="cls-3" d="M111.23,33.63c-1.87,1.16-3.19,2.6-1.82,3.53S112.35,36,112.73,35,112.66,32.74,111.23,33.63Z"/><path class="cls-3" d="M135.44,61.65s-.23,3.47,1.74,3.24,2.2-3.76,2.2-3.76,2.36,1.46,3.44.24-.25-3.82-.25-3.82,3.62,1.29,4-.87-4.6-3.57-6.76-1.41A33.58,33.58,0,0,0,135.44,61.65Z"/><path class="cls-1" d="M118.45,66.37c-2.39,2.51-2,5.11.84,4.29a3.87,3.87,0,0,0,3.06-3.17s2,2.51,3.19,2S126,67,126,67s3.88,1.42,4.07,0S123.46,60.31,118.45,66.37Z"/><path class="cls-1" d="M66.73,47.06a2.32,2.32,0,0,0,3.15,1.4,4.1,4.1,0,0,0,2.55-3.17s1.84,1.69,2.81,1.43.71-2,.71-2,2.71,1,3.38-.44-6.27-3.7-6.3-3.72S66.73,47.06,66.73,47.06Z"/><path class="cls-3" d="M61.73,58.68c-1.39,2-1.65,4.54,0,4.43s1.61-2.46,1.48-3.65S62.58,57.45,61.73,58.68Z"/><path class="cls-3" d="M65.59,57c-.79.57-.42,2,.51,3s2.23,0,1.8-1.31S66,56.7,65.59,57Z"/><path class="cls-3" d="M85.82,63.71C84,65.13,82.88,68.12,85,68.25s2.37-2.09,2.56-3.52S87,62.75,85.82,63.71Z"/><path class="cls-3" d="M81.51,63.09c-2,.32-2.37,1.93-1.25,2.25s2.71-1,2.91-1.54S82.66,62.9,81.51,63.09Z"/><path class="cls-2" d="M105.59,62.43c-1.61-.62-3.08,1.18-1.14,2,1.52.64,2.8.64,2.8,0A2.75,2.75,0,0,0,105.59,62.43Z"/><path class="cls-2" d="M109,59.55c-1.21,1.25-.15,5,.82,5,1.26,0,1.33-1.77,1.41-3.54C111.29,59.53,109.84,58.69,109,59.55Z"/><path class="cls-2" d="M115,60.81c-.88,1-.81,2.37-.42,2.56.61.29,2.45-1.25,2.45-2.18A1.12,1.12,0,0,0,115,60.81Z"/><path class="cls-3" d="M22.79,73.86c-.92,1.11-2.33,3.19-.94,3.65s2.6-2.76,2.52-3.65S23.68,72.78,22.79,73.86Z"/><path class="cls-2" d="M103.4,18.76c-.64,1.81-.86,3.86.46,3.4s3.3-3.4,2.64-4.21A1.83,1.83,0,0,0,103.4,18.76Z"/><path class="cls-2" d="M122.33,26.85c-.3.33-2.21-.12-2.64-1.25s.63-1.64,1.5-1.06S122.8,26.33,122.33,26.85Z"/><path class="cls-2" d="M125.31,23.85c-1.55,1.27-2,2.62-1.08,2.82s2.92-1.32,3-2.23S126.45,22.91,125.31,23.85Z"/><path class="cls-2" d="M60.88,21.17c-.14,1.23.18,2.59.65,2.69.94.21,1.49-1.44,1.5-2.91C63,19.83,61,19.79,60.88,21.17Z"/><path class="cls-2" d="M64.19,20.33c-.65,1.46-.18,2.18.36,2a3,3,0,0,0,1.55-2.15C65.85,19.06,64.62,19.38,64.19,20.33Z"/><path class="cls-6" d="M4.89,98.77a44.42,44.42,0,0,0,19.62,23.32c16.17,9.44,31.36,17.62,32.76,21.23.67,1.71,1.35,17.73.61,27.4S51,220.12,46,222.65s6.34,6.4,21.19,7.3,25.43-4.17,25.13-5.06S80.23,193,78.91,172.36s7.64-27.4,12.2-31.26c8.67-7.34,31.78-16.81,40.66-21.13s20.37-10.15,20.5-13.71-5.45-5.57-5.45-5.57a93.26,93.26,0,0,0-13.31,10.65c-5.8,5.8-22.73,13.54-22.64,12.5s16.32-26.57,16.88-31.63-8-2.38-8-2.38-7.08,26.44-14,33C97.16,131,82.38,140.51,82,139.47S98.85,100.15,99.14,97,93.35,92,92.28,94.33,79.47,131,76.84,135.15s1.16-27.33,1.08-34.66-4.6-13.17-7.46-11.21-2.59,13.72-2.8,25.93.74,14.39-.29,14.46c-1.85.13-11.5-23.89-14.25-32.4-2.18-6.75-7.36-.87-6.52,3.77s2.72,8.19,5.71,16.4C55,124.89,60,132,60,133.71c0,1.51-13.74-11.63-20.77-28.33-5.42-12.87-7.58-13.47-10.12-11.57s-.65,9.49,3.31,15.89,12.94,16.27,12,16.72-15-9.58-16.94-11.51S18.19,97.5,16.08,95.06s-3.29,2.38-1,6.25,9.48,13.81,9.48,14.36c0,1.62-12.23-19.94-16.54-21.51S4.13,98.68,4.89,98.77Z"/><path class="cls-7" d="M146.82,100.69a93.26,93.26,0,0,0-13.31,10.65,35.07,35.07,0,0,1-5.53,4.24,3.84,3.84,0,0,1,1,1.71c.58,2.38-22.45,10.72-33.77,17.66S77.06,145.67,74.4,159c-2.4,12.06.83,63.88,2.19,70.78,9.71-1,16-4.16,15.76-4.85-.29-.9-12.12-31.85-13.44-52.53s7.64-27.4,12.2-31.26c8.67-7.34,31.78-16.81,40.66-21.13s20.37-10.15,20.5-13.71S146.82,100.69,146.82,100.69Z"/><path class="cls-7" d="M110.87,123.84c.08-1,16.32-26.57,16.88-31.63s-8-2.38-8-2.38-5.86,21-9.12,26.64c.73-.09,1.37.11,1.52,1C112.57,119.67,108.78,124.3,110.87,123.84Z"/><path class="cls-7" d="M88,116.7c.3,2.53-7.19,16.91-7.93,19s.15,3.9,1.89,3.77c-.42-1.05,16.88-39.32,17.17-42.45S93.35,92,92.28,94.33c-.44,1-5.92,16.46-7.78,21.65C86.15,115.54,87.86,115.42,88,116.7Z"/><path class="cls-7" d="M71.47,107c2.54,2.18,1.16,21.33,1.16,23.91s.64,9.75,1.57,9.73,1.21-.66,2.27-5.09c-1.87.5,1.53-28.09,1.45-35-.09-7.33-4.6-13.17-7.46-11.21-2.22,1.52-2.55,8.85-2.69,17.72C68.91,106.32,70.29,106,71.47,107Z"/><path class="cls-7" d="M67.37,129.67c-1.85.13-11.5-23.89-14.25-32.4-2.18-6.75-7.36-.87-6.52,3.77a46.57,46.57,0,0,0,2.83,8.88c.76-.86,3.21-3.74,5.27-.77s8,19.15,9.9,21.34S66.89,131.64,67.37,129.67Z"/><path class="cls-7" d="M39.23,105.38c-5.42-12.87-7.58-13.47-10.12-11.57s-.66,9.49,3.31,15.89l.44.67c1.16-1.25,2.78-1.68,4.79-.08,3.52,2.83,10.29,15,14.4,19.2s8.32,5.43,8,4.22C60,135.22,46.26,122.08,39.23,105.38Z"/><path class="cls-7" d="M28,117.49c2.54,1.69,15.53,10.42,16.43,8.93-1,.45-15-9.58-16.94-11.51S18.19,97.5,16.08,95.06s-3.29,2.38-1,6.25c1.06,1.76,3.11,4.77,5,7.59a5.09,5.09,0,0,1,2.88.67C24.9,111.11,25.41,115.8,28,117.49Z"/><path class="cls-7" d="M30.1,121.06c0-.4-3.44-3.9-5.5-5.39,0,1.62-12.23-19.94-16.54-21.51s-3.93,4.52-3.17,4.61c0,0,2.54.49,8.12,2.22.2-1.11,0-1.62.75-1.78,2.45-.5,7.61,17.37,10.84,18.65S30.1,121.46,30.1,121.06Z"/><path class="cls-7" d="M74.4,184.71s-.86,31.84-2.7,30.5-3.4-64.56-4.33-64.58c-.46,0-.52,9.37-.81,18.6s.36,50.45-2.43,57.74c-.37,1-.75,1.84-1.13,2.63,1.37.14,2.77.26,4.22.35a56.94,56.94,0,0,0,15.11-1.1C79.89,222.67,74.4,184.71,74.4,184.71Z"/><path class="cls-8" d="M62.79,146.45c-.95-.26-.62,3.09-1.32,3.12s-1.25-7.22-3-10.1c-1.15-1.84-16.77-12-22.75-14.88a42.65,42.65,0,0,0-11.43-5.9c-6.69-2.24-8.75-5.73-8.12-5.5,4.6,1.73,15.16,10.34,20.83,13.4,6.75,3.64,19.13,11.36,20.79,14C60,144.28,60.11,155.39,60,160.9S58.17,175.18,59,174.44s1.94-7.64,2.48-12.7.57-9.77,1.16-9,.1,17.89-3.72,32.08c-3.35,12.46-5.62,38.76-4.44,39.35s4.26,1.64,5.24-1.49,3.85-43.75,4.44-56.05C64.64,155.49,63.63,146.68,62.79,146.45Z"/><path class="cls-8" d="M23.53,111.56s.15,4.14,1,4.89,6,4,6.23,3.77S26,116.79,25.35,116s-1.82-5.49-2.31-5.68S23.18,110.76,23.53,111.56Z"/><path class="cls-8" d="M36.52,113.17S43,121.61,44,123.05s2.12,3.48,1.25,4.06c-1.51,1-11.78-5.5-11.86-4.58,0,.5,11.08,6,12.89,6.82s8.18,5,8.58,4.8-4.37-4.38-6-6.89C47.44,125,40.69,115.12,37,112.18,34.5,110.24,34.52,110.48,36.52,113.17Z"/><path class="cls-8" d="M52.67,113.58c.53,1.27,5.18,11.25,6.35,13.63s3.9,7.31,3.24,9.13c-.28.75-4-2.18-4-.89,0,.77,2.31,2.3,2.83,5.16.46,2.53.81,4.74,1.21,1.39.26-2.16.23-2.3.92-2,1.76.72,1.79,14.41,2.28,13.91s-.09-16.82-2.21-21.28c-2-4.17-6.67-15.34-9-19.66C52.39,109.25,51.29,110.3,52.67,113.58Z"/><path class="cls-8" d="M69.62,110.68c0,1.78-.23,11.83-.25,14.58s.21,8.33.43,8.28.7-19,.65-22.34S69.63,108.07,69.62,110.68Z"/><path class="cls-8" d="M65.92,133.59a71.19,71.19,0,0,1,1,8.48c0,2.75.52,3,.85.52a79.61,79.61,0,0,0,0-9C67.77,132.17,65.73,132.42,65.92,133.59Z"/><path class="cls-8" d="M69.35,136.64c-.82,1.49-.77,13.09-.35,19.64s.45,10.2.91,9.68,0-8.71.92-11.54,1.53-1.56,1.39.75-1.91,14-1.76,20.83,1.7,30.67,2.21,30.45S71.26,162.16,74,154.94s3.75-8.93,7.5-11.9,13.82-8.78,18.08-12,11.32-4.84,14.63-6.25,4.26-2,4.11-2.28-2,.94-5.52,1.9-5.21,1-4.91.3,2.79-4.76,2.71-5.28-.58,1.49-4.55,5.13a60.11,60.11,0,0,1-10.22,7.52c-3.75,2.38-11.21,7.34-15.19,10.29s-5.59,5.36-6.17,5.36c-.34,0,.26-3.05,1.29-5.26.79-1.7,2.28-4.57,1.89-5s-2.42,3.62-3.62,6.3-1.43,5-2.16,5.51c-.54.35-.07-11.59-.07-16.72s.44-10.94,0-11.09-.93,7-1.14,13.06c-.17,4.81.23,9.84-.31,9.94S69.66,136.07,69.35,136.64Z"/><path class="cls-8" d="M84.25,120.42c-1.8,3.82-6.77,15.62-5.79,15.52s6.42-13.77,7.31-15.71S85.67,117.39,84.25,120.42Z"/><path class="cls-1" d="M151,107.06s1.26.86,1,1.66-1.72.51-1.72.51.61,2.3-.68,3.52c-1.68,1.61-4.81-.2-5-3,0,0-.23,2.34-2.12,2.51S140,110.2,140,110.2s-.11,1.49-1.26,1.43a2,2,0,0,1-1.53-1c.44.79,1.37,2.84-.18,3.4-1.95.68-3.37-2.24-3.37-2.24a1.88,1.88,0,0,1-1.43,1.21c-1.15.22-1.32-1.89-1.32-1.89s-.06,3-2.06,3-2.28-2.39-2.28-2.39-.23,1.94-1.6,1.54a2.11,2.11,0,0,1-1.43-1.89s-.69,2.84-2.57,2.74-1.72-2.39-1.72-2.39-1.14,1.6-2,.91-.51-2.17-.51-2.17-1.45,1.73-2.57.91c-1.36-1-.27-3.4-.18-3.59-.1.12-1,1.28-1.91.79a3,3,0,0,1-1.23-1.77s-.17,3.37-2,3.49-2.12-2.06-2.12-2.06a1.58,1.58,0,0,1-2.68.4,2.85,2.85,0,0,1-3,2.4,3.62,3.62,0,0,1-3.32-2.63s-.34,2.23-1.71,1.66a3,3,0,0,1-1.61-2.23s0,2.69-1.59,3.15S89,109.34,89,109.34a2.78,2.78,0,0,1-.11,2.06c-.52,1-1.89.06-1.89.06s.71,2.06-.7,2.75-2.85-1-3-1.14c0,.09,0,1.94-1.24,2.16a1.77,1.77,0,0,1-1.94-1s-.88,2.51-3.28,2a2.42,2.42,0,0,1-1.48-3.84c-.23.22-1.05.91-1.83.38a1.65,1.65,0,0,1-.63-1.71c-.07.24-.57,1.78-1.94,1.57s-1.14-2.24-1.14-2.24-2.13,2.18-3.57,1c-1.6-1.25.17-3.29.24-3.38-.12,0-1.71.75-2.19-.3s.89-1.6.89-1.6-2.69.33-2.69-1.94c0-1.88,2.23-2,2.23-2s-1.95-1.5-1-2.91c1.08-1.57,3.68-.59,3.87-.52-.15-.1-2.4-1.64-1.24-2.91,1.51-1.65,3.52.12,3.7.27-.12-.15-1.43-1.91-.61-2.81.66-.72,2-.38,2.89.19a1.25,1.25,0,0,1-.21-1.14,1.55,1.55,0,0,1,1.88-1c-.22-.07-2.08-.62-1.79-1.48S73.82,89,73.82,89s-2.85-.57-2.39-2.29,2.91-1.6,2.91-1.6-2.29-.57-1.43-2.11,2.56-.84,2.78-.75c-.21-.18-2.08-1.84-.84-3.08s4.08.2,4.33.33c-.15-.17-1.47-1.65-.61-2.56s2.25-.09,2.39,0c-.17-.14-1.88-1.6-.73-3s3,.85,3.23,1.16c-.15-.24-.94-1.57-.26-2.25s2.4,0,2.4,0-2.52-3.08-.8-4.11,2.85,2.17,3,2.8A2.8,2.8,0,0,1,89.49,69c1.77-.75,3.14,1.31,3.14,1.31s-1.09-4,.51-5,3.09,1.48,3.49,3c-.13-.69-.28-2.33,1-2.33,1.66,0,1.94,1.89,1.94,1.89s-.11-4.69,1.83-5,2.69,1.6,2.57,3.14c0,0,.4-2.51,1.71-2.34a1.59,1.59,0,0,1,1.32,1.6s.35-3.77,2.46-3.77S112.23,64,112.23,64s1-1.14,2.06-.91.39,2.14.35,2.28c.13-.12,2.55-2.25,4-1.31s-.9,4-1,4.11c.07,0,1.79-.95,2.91-.22s.85,2.69.85,2.69,1-3.83,2.8-3.15c1.66.62.69,3.35.5,3.86a1.65,1.65,0,0,1,1.79-1c1.43.17,1.31,1.72,1.31,1.72s1-3,2.63-2.81,1.61,3,1.61,3,1.31-1,2.22-.58,1.2,1.84,1.2,1.84,2.17-2.81,4.52-1.89,0,4,0,4a1.91,1.91,0,0,1,2.06.74c.87,1.09-.44,2.18-.56,2.28.13-.08,1.92-1.14,3.13.18S142.9,82,142.7,82.08a1.44,1.44,0,0,1,1.48.29.6.6,0,0,1,.08.08c.57.66-.48,2-.48,2s1.72-1.77,2.86-.12-1.06,3.86-1.19,4l.09,0,.05,0,.16-.06c.51-.17,1.5-.36,1.92.47a2.08,2.08,0,0,1-.56,2.22c.18,0,2.93-.8,4,.69s-1.5,2.61-2,2.82a1.86,1.86,0,0,1,2.21.54c.85,1.16-1,3.44-1,3.44s2.17-.4,2.91,1.2-2.05,2.63-2.05,2.63a3.69,3.69,0,0,1,2.57,2.86C154,107.23,151,107.06,151,107.06Z"/><path class="cls-2" d="M141,72.78a1.43,1.43,0,0,0-1-1.21c-2.34-.92-4.52,1.88-4.52,1.88s-.28-1.43-1.2-1.83-2.23.58-2.23.58A3.28,3.28,0,0,0,130.85,75s-1.59-2.11-3.3-.79.87,4,.87,4c0-4,3.64-1.37,3.64-1.37a2.56,2.56,0,0,1,.69-2c1.83-1.55,3.2,1.41,3.2,1.41a9.85,9.85,0,0,1,1.8-2.15C140,72,141,72.77,141,72.78Z"/><path class="cls-3" d="M114.66,103.08l0-.19Z"/><path class="cls-3" d="M151.15,102.2s2.8-1,2.06-2.63-2.91-1.2-2.91-1.2,1.88-2.28,1-3.45a1.89,1.89,0,0,0-2.27-.5c.25-.11,3.08-1.37,2-2.85a2.16,2.16,0,0,0-1.25-.8c.48,2.8-5.68,3.09-5.68,3.09s1.1,1,0,2.84c-.83,1.33-3.3,1.16-3.3,1.16,1.75,1.86,2.41,4,1.1,5.13a2.34,2.34,0,0,1-3.39,0,2.37,2.37,0,0,1-.69,3c-1.66,1.09-4.63-1.31-4.63-1.31s.18,2.69-1.88,3.09S128,106,128,106s-.29,2.29-2.06,2.47a3.14,3.14,0,0,1-2.74-1.15l-3-.57a3.54,3.54,0,0,1-3.37,1c-2.5-.51-2.3-3.87-2.2-4.69a2.58,2.58,0,0,1-2,2.09c-1.94.46-1.48-2.68-1.48-2.68a1.68,1.68,0,0,1-1.26,1.34c-1.14.31-.92-1.51-.92-1.51s-1.08,2.28-2.85,1.83-1.43-2.79-1.43-2.79l-3.37,1.13s-.75,2.8-3,3-2-2.35-2-2.35-2.13,3.63-4.12,1.14c-1.35,3.33-3.14,0-3.14,0-1.37,1.66-3.72,0-3.72,0a3.9,3.9,0,0,1-1,3.49,5.89,5.89,0,0,1-2,2.34c-1.57,1.14-3.74-1.54-3.74-1.54a2.16,2.16,0,0,1-1.6,2.51c-2,.4-1.77-2.29-1.77-2.29a1.61,1.61,0,0,1-1.32,1.43c-1.2.18-.91-2-.91-2a10.68,10.68,0,0,1-1.2,2.68,2.48,2.48,0,0,1-1.84.92,1.26,1.26,0,0,0,1,.85c1.48.23,1.94-1.6,1.94-1.6a1.69,1.69,0,0,0,.63,1.75c.91.63,1.88-.43,1.88-.43a2.4,2.4,0,0,0,1.43,3.88c2.4.52,3.28-2,3.28-2a1.77,1.77,0,0,0,1.94,1c1.26-.23,1.24-2.17,1.24-2.17s1.47,1.87,3,1.14.7-2.74.7-2.74,1.37,1,1.89-.06a2.75,2.75,0,0,0,.11-2.05s2.29,2.11,3.89,1.65,1.6-3.14,1.6-3.14a3,3,0,0,0,1.6,2.23c1.37.57,1.71-1.66,1.71-1.66a3.63,3.63,0,0,0,3.32,2.63,2.84,2.84,0,0,0,3-2.4,1.59,1.59,0,0,0,2.69-.4s.28,2.17,2.11,2.06,2-3.49,2-3.49a3,3,0,0,0,1.24,1.77c.94.52,1.9-.8,1.9-.8s-1.23,2.58.18,3.6c1.12.82,2.57-.91,2.57-.91s-.35,1.49.51,2.17,2-.91,2-.91-.17,2.28,1.72,2.39,2.57-2.74,2.57-2.74a2.11,2.11,0,0,0,1.43,1.89c1.37.4,1.6-1.54,1.6-1.54s.28,2.4,2.28,2.39,2.06-3,2.06-3,.17,2.11,1.32,1.88a1.84,1.84,0,0,0,1.42-1.2s1.43,2.92,3.38,2.23c1.55-.55.62-2.6.18-3.39a2.06,2.06,0,0,0,1.53,1c1.14.06,1.26-1.43,1.26-1.43s.68,2.23,2.57,2.06,2.12-2.51,2.12-2.51c.17,2.8,3.29,4.61,5,3,1.28-1.23.68-3.53.68-3.53s1.49.29,1.72-.51-1-1.66-1-1.66,2.91.17,2.69-2A3.7,3.7,0,0,0,151.15,102.2Z"/><path class="cls-2" d="M120.58,67.91c-1.15-.74-2.92.23-2.92.23s2.57-3.15,1-4.12-4.06,1.32-4.06,1.32.69-2.06-.34-2.29-2.06.92-2.06.92-.63-2.46-2.74-2.46S107,65.28,107,65.28a1.59,1.59,0,0,0-1.31-1.6C104.4,63.51,104,66,104,66c.12-1.54-.63-3.48-2.57-3.14s-1.83,5-1.83,5S99.32,66,97.66,66c-1.31,0-1.16,1.64-1,2.33-.38-1.53-2-3.92-3.48-3s-.51,5-.51,5S91.26,68.25,89.48,69a2.8,2.8,0,0,0-1.71,2.57c-.11-.63-1.26-3.83-3-2.8s.8,4.11.8,4.11-1.66-.74-2.4,0,.28,2.29.28,2.29-2-2.63-3.25-1.2.74,3,.74,3-1.49-1-2.4,0,.63,2.57.63,2.57-3-1.66-4.35-.34.86,3.09.86,3.09-1.94-.8-2.8.74,1.43,2.11,1.43,2.11-2.46-.11-2.92,1.6S73.82,89,73.82,89s-1.25-.06-1.56.86,1.81,1.48,1.81,1.48a1.57,1.57,0,0,0-1.9,1,1.25,1.25,0,0,0,.2,1.13,23.32,23.32,0,0,0,5.28,2.65l2-5.44s-1.31-2.22.29-3a9.34,9.34,0,0,1,3.2-.92s-2.57-.86-1.66-2.11,2.86,0,2.86,0-1.2-1.83-.34-2.18,2.23.46,2.23.46-2.35-2.51-.46-3.71,2.8,0,2.8,0,.06-3,2.46-3.78a6.22,6.22,0,0,1,4.57.4s-1.54-2-.34-2.91,2.74.23,2.74.23-.46-2.46.52-3S100.34,72,100.34,72s.24-2.57,1.78-2.74,2,2,2,2-.17-3.14,2.06-3.48,3.09,2.51,3.09,2.51.74-3,2.05-2.91,1.38,2.91,1.38,2.91,1.1-2.18,2.8-1.66c1.43.44,1.48,3,1.48,3s1.77-3.31,4.4-1c0,0,0-.13,0-.34A2.65,2.65,0,0,0,120.58,67.91Z"/><path class="cls-3" d="M145.45,88.31a5.14,5.14,0,0,1-3.27,1.29,2.87,2.87,0,0,1-.42,2.64,2.77,2.77,0,0,1-3.87.27s-.49,3.3-2.55,3.84-6.64-1.22-6.79-1.41-5.74,2.19-5.9,2.29a29.61,29.61,0,0,1-3.24,1.63,10.54,10.54,0,0,1-2.24-1s-2.78,1.22-4-.27a4,4,0,0,1-3,1.82,2.81,2.81,0,0,1-3.08-3.1,2.52,2.52,0,0,0,3.2.71c2.13-.91,1.72-3.61,1.72-3.61s1.79,2,3.7,1.1a3.05,3.05,0,0,0,1.6-3.09s1,1.33,2.17.68.44-2.48.39-2.62c.08.07.9.67,2.2-.24a2,2,0,0,0,2.55.62,4,4,0,0,0,1.76-2.18s.27,1.07,2.09.5c0,0-.87,1.83.69,2.21s2-1.81,2.05-2.19c0,.38-.19,2.62,1.76,2.72,2.13.12,2.25-2.25,2.25-2.25s1.37,2.18,3,1.38a1.66,1.66,0,0,0,.76-2.37s4,.21,3.87-2.93a2.23,2.23,0,0,1,1.39-2.34c.57.66-.48,2-.48,2s1.72-1.77,2.86-.12S145.58,88.17,145.45,88.31Z"/><path class="cls-3" d="M104.78,84.14c-.17-.57-.38-1.94-.38-1.94-2.59.76-3-.86-3-.86a1.75,1.75,0,0,1-1,2,1.92,1.92,0,0,1-2.28-.51s.11,2.34-1.2,2.63-1.72-1.15-1.72-1.15a2.42,2.42,0,0,1-1.65,1.32c-1.09.11-1.6-1.32-1.6-1.32a2.07,2.07,0,0,1-.86,2c-1.09.69-3.2-.34-3.2-.34A2.43,2.43,0,0,1,87,87.86c-1,.91-2-.23-2-.23a1.57,1.57,0,0,1-.34,1.88,3.53,3.53,0,0,1-2.32.69l-1.46,5.43,1,1.6,1.43-1.43,2.17-1.71L93.31,92a38,38,0,0,1,6-4.51c.45-.22,1.28,0,1.89-.06A3.29,3.29,0,0,1,104.78,84.14Z"/><path class="cls-1" d="M132.75,99.72c.56-2.47,2.76-3.88,4.1-2.78a4.56,4.56,0,0,1,1.3,3.24s-4.38,1-4.53,1A7.68,7.68,0,0,1,132.75,99.72Z"/><path class="cls-2" d="M95.6,93.57v0Z"/><path class="cls-2" d="M102.12,88.89S102.34,86,99.54,86s-3,2.92-3,2.92-.34-2.58-2.06-2.29-1.82,2.63-1.82,2.63-1.38-2.8-3.83-1.77-1.09,4.05-1.09,4.05-1.83-1.94-3.37-1,0,3.26,0,3.26a1.87,1.87,0,0,0-2.23,0c-1.09.86,0,2.34,0,2.34a2.3,2.3,0,0,0-2.12,0,1.91,1.91,0,0,0-.45-2.63c-1.49-1-2.63.75-2.63.75s-.06-1.26-1.83-2.17-2.76,1.41-2.76,1.41c-.9-.56-2.23-.9-2.89-.18-.85.94.62,2.82.62,2.82s-2.13-2-3.72-.28c-1.2,1.31,1.26,2.91,1.26,2.91s-2.76-1.1-3.88.52c-1,1.41,1,2.91,1,2.91s-2.23.12-2.23,2c0,2.27,2.68,2,2.68,2s-1.35.59-.88,1.6,2.2.28,2.2.28-1.89,2.11-.25,3.39c1.23,1,3-.48,3.44-.92l.12-.12s-1.73-.1-2.15-1.09c-.56-1.32,1.6-2.9,1.6-2.9s-1.29.23-1.48-.72c-.24-1.17,1.86-1.07,1.86-1.07s-1.39-.5-1.53-1.53c-.3-2.16,2.45-2.13,2.45-2.13s-.77-1.9.61-2.59a1.41,1.41,0,0,1,2,.73s-.62-1.81.44-2.25c1.35-.57,2,1.66,2,1.66s.68-2.52,2.17-2,.23,2.28.23,2.28,1.31-.85,1.83.06-.92,2.63-.92,2.63c2.4-1.77,5.78-.34,5.78-.34-1.37-1.49-1-3.55.34-4.18a2.73,2.73,0,0,1,2.68.52s-.57-2.4,1-3.2,3.21,1.14,3.21,1.14-.52-3.14,1.65-3.43c1.85-.24,2,1.08,2.06,1.48a2.79,2.79,0,0,1,1.31-2.11c1.43-1,2.69,1.09,2.69,1.09s-1.14-2.4-.23-3.54S102.12,88.89,102.12,88.89Z"/><path class="cls-1" d="M105.48,85.57a1.86,1.86,0,0,1-.7-2.73c1.08-1.82,4-2.18,4.4-.8S107.39,86.51,105.48,85.57Z"/><path class="cls-2" d="M105.49,84.77s-3-.53-2.69-2.26,2.69-1.4,2.69-1.4-1-1.66.57-2.46,3.09,1.26,3.09,1.26-1.32-1.48-.4-2,2,.57,2,.57-2-4,.29-4.85,3.6,1.48,3.6,3.08c0,0,.23-2.51,1.83-2.46s1,2.58,1,2.58,1-3.78,3.66-3.09,1.48,3.54,1.48,3.54,2.29-1.2,3.89.52-.69,4.17-.69,4.17-.23-1.89-2-1.77A5.15,5.15,0,0,0,121,81.34s1-1.67-.29-2.23-2.22,1.37-2.22,1.37-.18-1.37-1.27-1.37a1.26,1.26,0,0,0-1.35,1.31,2.05,2.05,0,0,0-2.07-1.31c-2.24.15-1.72,2.4-.69,3.09,0,0-1.59-.69-2.29.06-.85.91,0,2.51,0,2.51s-3.08-.4-2.28-2.91C108.52,81.86,104.4,80.83,105.49,84.77Z"/><path class="cls-3" d="M144.18,82.37a1.43,1.43,0,0,0-1.48-.29s3.2-1.94,1.94-3.31-3.14-.17-3.14-.17,1.48-1.15.57-2.29l-.22-.24c.18,1.84-1.82,3-1.82,3s1.33,1.56.49,2.23-1.9-.78-1.9-.78.19,2.36-1.41,2.9-2.82-1.53-2.82-1.53-.27,1.94-1.6,1.94A2,2,0,0,1,131,82.46c-.27.69-.54,3,1.41,3.43a2,2,0,0,0,2.43-1.12s.82,1.45,3.32.93A3.76,3.76,0,0,0,141.1,83a1.65,1.65,0,0,0,2.68,1.39S144.92,83,144.18,82.37Z"/><path class="cls-3" d="M143.78,84.43l.77-.57A3.47,3.47,0,0,0,143.78,84.43Z"/><path class="cls-1" d="M90.94,81.3c.24-.47-.94-.9-1.51-.18S90.52,82.11,90.94,81.3Z"/><path class="cls-1" d="M72.05,103.89s-2.37.08-1.77,1.63,3.17.45,3.8-.46,0-3.34-1.14-3.66S71.17,102.75,72.05,103.89Z"/><path class="cls-2" d="M108.36,73.08c.44-.52-1-2.63-1.93-1.75C105.72,72,107.78,73.75,108.36,73.08Z"/><path class="cls-2" d="M106.1,73.25c-1-.15-1.46.82-.46,1.14s1.51,0,1.49-.38S106.53,73.31,106.1,73.25Z"/><path class="cls-2" d="M116.55,101.41a2.25,2.25,0,0,1,2.81-.27,2,2,0,0,1,1-2c1.33-.76,2.7.65,2.7.65s-.49-1.64.76-2.25a2.1,2.1,0,0,1,2.33.61s-.08-2.15,1.48-2.44,2.18,1.48,2.18,1.48a2.42,2.42,0,0,1,2.74-.49A2.51,2.51,0,0,1,134.11,99s1.14-1.83,2.67-.95a2.35,2.35,0,0,1,1.37,2.17s1.26-2.55-.46-4a2.7,2.7,0,0,0-3.27-.23,2.4,2.4,0,0,0-1.91-2.36c-2-.5-2.29.57-2.29.57s-.93-2.91-3-2.32-2,3.42-2,3.42A2,2,0,0,0,123,93.74c-2.08.41-1.52,3.22-1.52,3.22a1.82,1.82,0,0,0-2.13-.4c-2,1.13-1.26,2.74-1.26,2.74S116.2,100,116.55,101.41Z"/><path class="cls-1" d="M117.32,102.66s-1.5,1.66-.84,3.24,2.86,1.41,3.12-1.07c0,0,1.38,2,2.56,1.29s.3-2.55.3-2.55.57,1.26,1.34.92.83-1.64.83-1.64-.15,2.55,1.6,2.25a2.3,2.3,0,0,0,1.79-3C127.72,101.06,118.17,101.17,117.32,102.66Z"/><path class="cls-1" d="M122.32,84.14c-.87.5-1.86,1.32-.63,2a2.2,2.2,0,0,0,2.37-.37s0,1.57.83,1.52.92-1.29.92-1.29,1.83,1.54,2.65.29S123.92,83.23,122.32,84.14Z"/><path class="cls-1" d="M127.84,82.39s-2.63-.73-1.41-1.68a2.12,2.12,0,0,1,2.55.15s-.57-1.27.38-1.49,1.14.88,1.14.88.19-2,1.68-2-.3,3-1.33,3.5A10,10,0,0,1,127.84,82.39Z"/><path class="cls-1" d="M114.88,81c-1.29.31-1.67,1.7-.31,2a2.37,2.37,0,0,0,2.08-.35s-.38,1.76.72,2.11,1.2-1,1.2-1,1.73.24,2-.51c.13-.36-.75-1.77-2.1-2.22A7.92,7.92,0,0,0,114.88,81Z"/><path class="cls-1" d="M79.38,105.65c0,1.47.46,2.78,2,2.18s1-2.44,1-2.44,1.23,1.67,2.5.8.8-2.19-.89-3S79.37,104.64,79.38,105.65Z"/><path class="cls-3" d="M127.73,103.48c-.59,1.12-.56,2.43.5,2,.74-.26.74-1.15.6-1.92S128.14,102.7,127.73,103.48Z"/><path class="cls-3" d="M129.78,103.26c-.41.25.11,2.39.87,2.67s1.59-.39,1.09-1.37S130.33,102.92,129.78,103.26Z"/><path class="cls-3" d="M77.73,105.6c-.67,1.24-.75,2.85.48,2.56,1-.23,1.12-1.85.88-2.84C79,104.74,78.35,104.47,77.73,105.6Z"/><path class="cls-2" d="M74.8,99.64c-.72-.92-2.21.17-.8,1.43C75.07,102,76,101.22,74.8,99.64Z"/><path class="cls-2" d="M71.42,106c-.89.21-1.85,1.08-1.23,1.56s1.69-.4,2.07-1.11C72.52,105.93,72,105.84,71.42,106Z"/><path class="cls-2" d="M76.52,100.2c-.56.6-.82,1.36-.22,1.32s1.48-.74,1.31-1.17S77,99.72,76.52,100.2Z"/><path class="cls-3" d="M128.9,82c-1.13.71-1.94,1.58-1.1,2.15s1.79-.73,2-1.3S129.77,81.45,128.9,82Z"/><path class="cls-3" d="M143.65,99.06s-.14,2.11,1.06,2,1.34-2.29,1.34-2.29,1.44.89,2.09.15-.14-2.33-.14-2.33,2.2.79,2.45-.53-2.8-2.17-4.11-.86A20.45,20.45,0,0,0,143.65,99.06Z"/><path class="cls-1" d="M133.3,101.94c-1.45,1.53-1.25,3.1.51,2.61a2.36,2.36,0,0,0,1.87-1.93s1.22,1.53,1.94,1.22.27-1.5.27-1.5,2.36.87,2.48,0S136.35,98.24,133.3,101.94Z"/><path class="cls-1" d="M101.8,90.17a1.41,1.41,0,0,0,1.92.85,2.49,2.49,0,0,0,1.55-1.92s1.13,1,1.71.87.44-1.21.44-1.21,1.64.63,2-.27-3.82-2.25-3.83-2.26S101.8,90.17,101.8,90.17Z"/><path class="cls-3" d="M98.75,97.25c-.84,1.22-1,2.76,0,2.7s1-1.5.9-2.22S99.27,96.5,98.75,97.25Z"/><path class="cls-3" d="M101.11,96.22c-.48.35-.26,1.24.3,1.82s1.36,0,1.1-.8S101.36,96,101.11,96.22Z"/><path class="cls-3" d="M113.43,100.31c-1.09.87-1.79,2.69-.5,2.77s1.45-1.27,1.56-2.14S114.15,99.73,113.43,100.31Z"/><path class="cls-3" d="M110.8,99.93c-1.22.2-1.44,1.18-.76,1.38s1.65-.62,1.78-.94S111.5,99.82,110.8,99.93Z"/><path class="cls-2" d="M125.47,99.54c-1-.38-1.87.71-.69,1.22.92.39,1.7.39,1.7,0A1.65,1.65,0,0,0,125.47,99.54Z"/><path class="cls-2" d="M127.55,97.78c-.74.76-.1,3,.49,3,.78,0,.81-1.08.86-2.16C128.94,97.77,128.06,97.26,127.55,97.78Z"/><path class="cls-2" d="M131.2,98.55c-.54.62-.5,1.44-.26,1.56s1.49-.76,1.49-1.33A.68.68,0,0,0,131.2,98.55Z"/><path class="cls-3" d="M75,106.49c-.57.68-1.42,2-.58,2.23S76.05,107,76,106.49,75.58,105.84,75,106.49Z"/><path class="cls-2" d="M124.14,72.93c-.39,1.11-.53,2.36.27,2.08s2-2.07,1.61-2.57A1.11,1.11,0,0,0,124.14,72.93Z"/><path class="cls-2" d="M135.67,77.86c-.19.21-1.35-.07-1.61-.76s.38-1,.91-.65S136,77.55,135.67,77.86Z"/><path class="cls-2" d="M137.48,76c-.95.78-1.25,1.6-.66,1.72a2.22,2.22,0,0,0,1.85-1.35C138.74,75.84,138.17,75.46,137.48,76Z"/><path class="cls-2" d="M98.24,74.41c-.09.74.11,1.57.39,1.63.57.13.91-.88.91-1.77C99.55,73.58,98.33,73.56,98.24,74.41Z"/><path class="cls-2" d="M100.25,73.89c-.39.89-.1,1.33.22,1.24a1.85,1.85,0,0,0,1-1.31C101.26,73.12,100.51,73.31,100.25,73.89Z"/><path class="cls-9" d="M21.69,235.74c-1.31.17-6.34,1-6.38,3,0,1.09,6.82,2.87,8.23,3.16a10,10,0,0,1,4.32,1.59,7.23,7.23,0,0,0,3.91,1.14,62.75,62.75,0,0,0,9.4,0c1.45-.08,2.82,0,4.2,0,1.67,0,3-.73,4.54-1.23,2.56-.8,5.85,0,8.09-1.42,1.16-.74,1.79-1.81.68-3.07-1.83-2.06-6.7-1.35-9.11-1.5-7.9-.5-15.82,0-23.64-1.17a11.92,11.92,0,0,0-2.22-.34Z"/><path class="cls-2" d="M50,207c-5.47-2.4-8.64.61-13.34,2.22-3.87,1.34-8.67-.81-13,2-3.44,2.24-6.88,9.25-5.09,12.83l-.51,1.49c-4.64.69-4.94,9.14.42,8.55-1.41,6.34,8.07,7.37,12.54,8,5.59.78,9.16-.53,13.84-3.4,5,5,14.64-.49,16.69-5.68,1.72-4.38,2.22-15-5-14.52C58.07,213.24,55.41,209.4,50,207Z"/><path class="cls-1" d="M38.12,227a.19.19,0,0,1-.08,0,14.21,14.21,0,0,1-8.71,2.7,13.74,13.74,0,0,1-11-4.88l-.24.71c-4.64.69-4.94,9.14.42,8.55-1.41,6.34,8.07,7.37,12.54,8,5.59.78,9.16-.53,13.84-3.4,5,5,14.64-.49,16.69-5.68,1.72-4.38,2.22-15-5-14.52,1.55-5.27-1.11-9.11-6.55-11.49l-.12,0a14.41,14.41,0,0,1,.9,4.82v.5A15.06,15.06,0,0,1,38.12,227Z"/><path class="cls-3" d="M39.79,232.23c-.23,0-.44,0-.66,0-.26.18-.48.4-.76.56a14.19,14.19,0,0,1-9,3c-7,0-11.46-4-13.37-9-2.39,2.46-1.81,7.87,2.53,7.39-1.41,6.34,8.07,7.37,12.54,8,5.59.78,9.16-.53,13.84-3.4,5,5,14.64-.49,16.69-5.68,1.72-4.38,2.22-15-5-14.52,1.42-4.83-.72-8.44-5.26-10.85.18.29.33.6.5.89C57.39,217.31,53.41,232.23,39.79,232.23Z"/><path class="cls-9" d="M99.19,243.05c-1.08.14-5.21.86-5.25,2.48,0,.89,5.61,2.35,6.76,2.59a8.27,8.27,0,0,1,3.55,1.31,5.89,5.89,0,0,0,3.21.93,51,51,0,0,0,7.72,0c1.19-.06,2.31,0,3.45,0a12,12,0,0,0,3.73-1c2.1-.66,4.8,0,6.64-1.16.95-.61,1.47-1.49.56-2.52-1.51-1.7-5.5-1.11-7.49-1.24-6.48-.41-13,0-19.4-1a10.24,10.24,0,0,0-1.83-.28Z"/><path class="cls-2" d="M122.41,219.47c-4.5-2-7.1.51-11,1.83-3.18,1.1-7.12-.66-10.64,1.64-2.82,1.84-5.65,7.6-4.18,10.53l-.42,1.23c-3.81.57-4,7.5.35,7-1.16,5.2,6.62,6.05,10.29,6.56,4.59.65,7.52-.43,11.37-2.78,4.11,4.13,12-.41,13.7-4.67,1.41-3.59,1.83-12.33-4.14-11.92C129.05,224.58,126.87,221.43,122.41,219.47Z"/><path class="cls-1" d="M112.68,235.88l-.07,0a11.74,11.74,0,0,1-7.16,2.21,11.27,11.27,0,0,1-9-4l-.2.59c-3.81.57-4,7.5.35,7-1.16,5.2,6.62,6.05,10.29,6.56,4.59.65,7.52-.43,11.37-2.78,4.11,4.13,12-.41,13.7-4.67,1.41-3.59,1.83-12.33-4.14-11.92,1.27-4.33-.91-7.48-5.37-9.44l-.1,0a11.89,11.89,0,0,1,.74,4v.41A12.39,12.39,0,0,1,112.68,235.88Z"/><path class="cls-3" d="M114,240.17c-.18,0-.36,0-.53,0-.22.15-.4.33-.63.46a11.62,11.62,0,0,1-7.43,2.43,11.16,11.16,0,0,1-11-7.38c-2,2-1.49,6.46,2.08,6.07-1.16,5.2,6.62,6.05,10.29,6.56,4.59.65,7.52-.43,11.37-2.78,4.11,4.13,12-.41,13.7-4.67,1.41-3.59,1.83-12.33-4.14-11.92,1.17-4-.59-6.93-4.32-8.91.15.24.28.49.42.73C128.5,227.92,125.23,240.17,114,240.17Z"/><path class="cls-9" d="M60.81,255.49c1.74,1.2,3.09,1.35,5.43,1.58a86.4,86.4,0,0,0,13.07,0c2-.11,3.91,0,5.85,0,2.29,0,4.13-1,6.3-1.7,3.56-1.13,8.14,0,11.25-2,1.61-1,2.49-2.51.93-4.26-2.54-2.87-9.3-1.89-12.66-2.1-11-.68-22-.06-32.85-1.61a17,17,0,0,0-3.09-.49l-2.8-.23c-1.83.23-8.83,1.45-8.88,4.19,0,1.52,9.49,4,11.44,4.4C57.43,253.83,58.8,254.11,60.81,255.49Z"/><path class="cls-2" d="M47.79,242.43c-2,8.82,11.21,10.26,17.42,11.13,7.77,1.08,12.73-.74,19.24-4.73,7,7,20.36-.68,23.19-7.89,2.39-6.09,3.1-20.88-7-20.18,2.17-7.33-1.53-12.67-9.09-16s-12,.85-18.54,3.1c-5.39,1.84-12-1.13-18,2.77-4.78,3.11-9.56,12.86-7.08,17.82l-.69,2.08C40.75,231.52,40.34,243.26,47.79,242.43Z"/><path class="cls-1" d="M75.08,232.56l-.12,0a19.88,19.88,0,0,1-12.12,3.75c-6.86,0-12-2.73-15.3-6.78l-.33,1c-6.46,1-6.87,12.71.58,11.88-2,8.82,11.21,10.26,17.42,11.13,7.77,1.08,12.73-.74,19.24-4.73,7,7,20.36-.68,23.19-7.89,2.39-6.09,3.1-20.88-7-20.18,2.17-7.33-1.53-12.67-9.09-16l-.16-.06a20.06,20.06,0,0,1,1.24,6.71v.69A20.94,20.94,0,0,1,75.08,232.56Z"/><path class="cls-3" d="M77.39,239.82c-.32,0-.61,0-.91,0-.37.24-.68.55-1.06.77a19.73,19.73,0,0,1-12.58,4.12c-9.74,0-15.92-5.51-18.58-12.5-3.33,3.42-2.51,10.93,3.53,10.26-2,8.82,11.21,10.26,17.42,11.13,7.77,1.08,12.73-.74,19.24-4.73,7,7,20.36-.68,23.19-7.89,2.39-6.09,3.1-20.88-7-20.18,2-6.72-1-11.73-7.3-15.08.26.4.46.82.7,1.24C101.85,219.09,96.31,239.82,77.39,239.82Z"/><path class="cls-1" d="M126.43,102.7s1.77,1.21,1.45,2.33-2.41.72-2.41.72.85,3.24-1,5c-2.36,2.26-6.76-.29-7-4.23,0,0-.32,3.3-3,3.53s-3.62-2.89-3.62-2.89-.16,2.09-1.77,2a2.91,2.91,0,0,1-2.15-1.39c.61,1.11,1.93,4-.26,4.77-2.74,1-4.74-3.14-4.74-3.14a2.65,2.65,0,0,1-2,1.69c-1.6.32-1.85-2.65-1.85-2.65s-.08,4.23-2.89,4.25S92,109.29,92,109.29s-.32,2.74-2.25,2.17a3,3,0,0,1-2-2.65s-1,4-3.62,3.85-2.4-3.37-2.4-3.37-1.62,2.25-2.82,1.29-.72-3-.72-3-2,2.43-3.62,1.28c-1.9-1.39-.38-4.79-.25-5-.13.17-1.42,1.8-2.68,1.11a4.19,4.19,0,0,1-1.74-2.49s-.24,4.74-2.81,4.9-3-2.89-3-2.89-1.52,2.81-3.77.56a4,4,0,0,1-4.19,3.38,5.1,5.1,0,0,1-4.66-3.7S51,107.76,49.09,107a4.22,4.22,0,0,1-2.25-3.13s0,3.78-2.25,4.42-5.47-2.34-5.47-2.34a3.86,3.86,0,0,1-.16,2.9c-.72,1.44-2.65.08-2.65.08s1,2.9-1,3.86-4-1.43-4.16-1.6c0,.12,0,2.73-1.74,3a2.5,2.5,0,0,1-2.74-1.45s-1.23,3.54-4.61,2.81A3.4,3.4,0,0,1,20,110.17c-.31.31-1.47,1.28-2.57.53a2.35,2.35,0,0,1-.89-2.41c-.1.34-.79,2.51-2.72,2.21-2.09-.33-1.61-3.14-1.61-3.14s-3,3.06-5,1.48c-2.26-1.77.23-4.64.34-4.77-.17.08-2.41,1.06-3.09-.41s1.25-2.25,1.25-2.25-3.79.46-3.79-2.73C1.89,96,5,95.87,5,95.87s-2.74-2.12-1.36-4.1c1.52-2.2,5.18-.84,5.45-.74-.21-.14-3.38-2.3-1.76-4.09,2.13-2.32,5,.17,5.21.39-.16-.22-2-2.7-.85-4,.93-1,2.8-.53,4.06.26a1.75,1.75,0,0,1-.3-1.6,2.21,2.21,0,0,1,2.65-1.45c-.3-.09-2.92-.87-2.51-2.08s2.19-1.21,2.19-1.21-4-.8-3.37-3.22,4.1-2.25,4.1-2.25-3.22-.8-2-3,3.6-1.17,3.91-1.06c-.29-.25-2.92-2.58-1.18-4.32s5.74.27,6.09.46c-.21-.24-2.07-2.32-.86-3.6s3.16-.13,3.36,0c-.24-.19-2.64-2.25-1-4.16s4.18,1.19,4.55,1.64c-.21-.34-1.32-2.22-.37-3.17s3.38,0,3.38,0-3.54-4.34-1.13-5.79,4,3.06,4.18,3.94a4,4,0,0,1,2.42-3.62c2.49-1,4.42,1.86,4.42,1.86s-1.53-5.63.72-7,4.35,2.08,4.9,4.24c-.17-1-.39-3.28,1.45-3.28,2.33,0,2.73,2.66,2.73,2.66s-.16-6.6,2.58-7.08S60.43,42.8,60.27,45c0,0,.56-3.54,2.41-3.29a2.24,2.24,0,0,1,1.85,2.25S65,38.62,68,38.62s3.85,3.46,3.85,3.46,1.45-1.61,2.9-1.29.55,3,.49,3.21c.18-.17,3.59-3.18,5.7-1.84s-1.27,5.57-1.44,5.78c.1,0,2.52-1.34,4.09-.31s1.21,3.77,1.21,3.77S86.16,46,88.73,47c2.33.88,1,4.71.69,5.42A2.32,2.32,0,0,1,92,51a2.18,2.18,0,0,1,1.84,2.4s1.37-4.18,3.7-3.94,2.26,4.18,2.26,4.18,1.84-1.36,3.13-.8,1.68,2.58,1.68,2.58,3.06-4,6.36-2.66,0,5.63,0,5.63a2.68,2.68,0,0,1,2.89,1c1.23,1.53-.61,3.07-.79,3.22.2-.13,2.72-1.61,4.41.24s-2.45,4.48-2.72,4.65a2.05,2.05,0,0,1,2.08.42.35.35,0,0,1,.1.11c.82.93-.67,2.78-.67,2.78s2.42-2.49,4-.16-1.5,5.43-1.68,5.62a.59.59,0,0,0,.13,0l.07,0,.23-.08c.72-.24,2.11-.52,2.69.65.76,1.53-.65,3-.79,3.13.26-.06,4.14-1.13,5.62,1s-2.11,3.67-2.78,4a2.61,2.61,0,0,1,3.1.75c1.21,1.63-1.45,4.85-1.45,4.85s3-.57,4.1,1.68-2.89,3.71-2.89,3.71,3.29,1,3.62,4S126.43,102.7,126.43,102.7Z"/><path class="cls-2" d="M112.35,54.48a2,2,0,0,0-1.43-1.71c-3.3-1.29-6.35,2.65-6.35,2.65s-.41-2-1.69-2.57-3.14.81-3.14.81c-2.09,2-1.71,3.92-1.71,3.92s-2.23-3-4.64-1.11,1.22,5.63,1.22,5.63c0-5.59,5.13-1.93,5.13-1.93a3.56,3.56,0,0,1,1-2.86c2.58-2.19,4.51,2,4.51,2a13.39,13.39,0,0,1,2.54-3C110.93,53.41,112.25,54.47,112.35,54.48Z"/><path class="cls-3" d="M75.26,97.1c0-.17,0-.27,0-.27S75.28,96.93,75.26,97.1Z"/><path class="cls-3" d="M126.6,95.87s3.94-1.45,2.89-3.7-4.1-1.69-4.1-1.69,2.65-3.22,1.45-4.85a2.63,2.63,0,0,0-3.18-.71c.34-.15,4.32-1.93,2.86-4a2.94,2.94,0,0,0-1.75-1.12c.66,3.94-8,4.34-8,4.34s1.55,1.48,0,4c-1.17,1.88-4.65,1.63-4.65,1.63,2.47,2.63,3.4,5.65,1.56,7.22a3.28,3.28,0,0,1-4.77-.06s1.36,2.73-1,4.26-6.51-1.85-6.51-1.85.24,3.78-2.65,4.34S94,101.17,94,101.17s-.4,3.22-2.89,3.47A4.41,4.41,0,0,1,87.28,103l-4.18-.8a4.94,4.94,0,0,1-4.74,1.47c-3.53-.71-3.24-5.43-3.1-6.59a3.65,3.65,0,0,1-2.85,3c-2.74.64-2.09-3.78-2.09-3.78a2.34,2.34,0,0,1-1.77,1.88c-1.61.44-1.29-2.12-1.29-2.12s-1.53,3.21-4,2.57-2-3.92-2-3.92l-4.74,1.59s-1.05,3.94-4.18,4.26-2.9-3.3-2.9-3.3-3,5.1-5.78,1.6c-1.91,4.69-4.43-.07-4.43-.07-1.93,2.33-5.22,0-5.22,0a5.47,5.47,0,0,1-1.37,4.9,8.25,8.25,0,0,1-2.85,3.3c-2.21,1.61-5.27-2.17-5.27-2.17s.48,3-2.25,3.54-2.5-3.22-2.5-3.22a2.25,2.25,0,0,1-1.84,2c-1.69.24-1.29-2.89-1.29-2.89A14.7,14.7,0,0,1,14.92,108a3.49,3.49,0,0,1-2.58,1.28,1.79,1.79,0,0,0,1.46,1.21c2.09.32,2.73-2.25,2.73-2.25a2.38,2.38,0,0,0,.88,2.45c1.29.88,2.66-.6,2.66-.6a3.38,3.38,0,0,0,2,5.46c3.37.73,4.61-2.81,4.61-2.81a2.48,2.48,0,0,0,2.73,1.45c1.77-.33,1.74-3.06,1.74-3.06s2.06,2.63,4.16,1.61,1-3.86,1-3.86,1.93,1.37,2.65-.08a3.88,3.88,0,0,0,.16-2.89s3.22,3,5.47,2.33,2.25-4.43,2.25-4.43A4.23,4.23,0,0,0,49.09,107c1.93.8,2.41-2.33,2.41-2.33a5.1,5.1,0,0,0,4.67,3.7A4,4,0,0,0,60.35,105c2.25,2.25,3.78-.56,3.78-.56s.4,3,3,2.89,2.81-4.9,2.81-4.9a4.19,4.19,0,0,0,1.74,2.49c1.34.72,2.69-1.13,2.69-1.13s-1.74,3.63.24,5.07c1.58,1.15,3.62-1.29,3.62-1.29s-.49,2.09.72,3.06,2.81-1.29,2.81-1.29-.24,3.22,2.41,3.37,3.62-3.85,3.62-3.85a3,3,0,0,0,2,2.65c1.93.57,2.25-2.17,2.25-2.17s.41,3.38,3.22,3.36,2.89-4.24,2.89-4.24.25,3,1.85,2.65a2.62,2.62,0,0,0,2-1.69s2,4.1,4.75,3.14c2.19-.78.87-3.66.26-4.78a2.87,2.87,0,0,0,2.15,1.4c1.61.08,1.77-2,1.77-2s1,3.14,3.62,2.9,3-3.54,3-3.54c.24,3.94,4.64,6.48,7,4.23,1.8-1.72,1-5,1-5s2.09.41,2.41-.72-1.44-2.33-1.44-2.33,4.1.24,3.77-2.81S126.6,95.87,126.6,95.87Z"/><path class="cls-2" d="M83.58,47.63c-1.61-1.05-4.1.32-4.1.32s3.62-4.43,1.45-5.79S75.22,44,75.22,44s1-2.9-.48-3.22-2.9,1.29-2.9,1.29S71,38.62,68,38.62s-3.45,5.31-3.45,5.31a2.24,2.24,0,0,0-1.85-2.25C60.83,41.43,60.27,45,60.27,45c.16-2.17-.89-4.9-3.62-4.42s-2.57,7.08-2.57,7.08S53.67,45,51.34,45c-1.84,0-1.62,2.31-1.45,3.28C49.34,46.1,47.1,42.73,45,44s-.72,7-.72,7-1.93-2.89-4.43-1.85a4,4,0,0,0-2.41,3.62c-.16-.88-1.77-5.39-4.18-3.94s1.13,5.79,1.13,5.79-2.33-1-3.38,0,.4,3.22.4,3.22-2.89-3.7-4.58-1.69,1.05,4.18,1.05,4.18-2.1-1.37-3.38,0,.88,3.62.88,3.62-4.26-2.34-6.11-.49,1.21,4.35,1.21,4.35-2.74-1.13-3.94,1,2,3,2,3-3.46-.17-4.1,2.25,3.38,3.21,3.38,3.21-1.77-.08-2.2,1.21,2.54,2.09,2.54,2.09A2.22,2.22,0,0,0,15.48,82a1.77,1.77,0,0,0,.29,1.59,32.29,32.29,0,0,0,7.43,3.72L26,79.7s-1.85-3.13.4-4.26a13.44,13.44,0,0,1,4.5-1.28s-3.62-1.21-2.33-3,4,0,4,0-1.69-2.57-.48-3.05,3.13.64,3.13.64-3.29-3.54-.64-5.23,3.94,0,3.94,0,.08-4.18,3.46-5.3a8.71,8.71,0,0,1,6.42.56s-2.16-2.89-.48-4.1,3.86.32,3.86.32-.64-3.46.73-4.18,2.57,2.57,2.57,2.57.33-3.61,2.5-3.86,2.89,2.82,2.89,2.82S60.27,48,63.4,47.46,67.74,51,67.74,51s1.05-4.18,2.9-4.1S72.57,51,72.57,51s1.54-3.06,3.94-2.33c2,.62,2.09,4.18,2.09,4.18s2.49-4.66,6.19-1.45c0,0,0-.17,0-.47C84.86,50.11,84.78,48.4,83.58,47.63Z"/><path class="cls-3" d="M118.57,76.32s-1.26,1.46-4.59,1.82a4.1,4.1,0,0,1-.6,3.72c-2.48,2.78-5.44.38-5.44.38s-.7,4.64-3.59,5.39-9.34-1.71-9.55-2-8.08,3.08-8.3,3.22A40.15,40.15,0,0,1,82,91.16a14.73,14.73,0,0,1-3.17-1.35s-3.9,1.72-5.57-.37A5.61,5.61,0,0,1,69,92a4,4,0,0,1-4.33-4.37,3.51,3.51,0,0,0,4.5,1c3-1.28,2.42-5.07,2.42-5.07s2.52,2.76,5.2,1.53S79,80.75,79,80.75s1.34,1.88,3,1,.62-3.49.55-3.69c.12.1,1.27,1,3.1-.33,0,0,1.61,2,3.59.86a5.56,5.56,0,0,0,2.47-3s.37,1.5,2.94.69c0,0-1.23,2.58,1,3.12,2,.49,2.76-2.55,2.88-3.09,0,.55-.26,3.69,2.48,3.83,3,.17,3.16-3.16,3.16-3.16s1.93,3.06,4.24,1.93a2.32,2.32,0,0,0,1.07-3.32s5.64.28,5.45-4.13a3.12,3.12,0,0,1,1.94-3.29c.82.93-.67,2.78-.67,2.78s2.42-2.49,4-.16S118.75,76.13,118.57,76.32Z"/><path class="cls-3" d="M61.36,70.46c-.23-.81-.53-2.73-.53-2.73-3.65,1.07-4.26-1.21-4.26-1.21a2.47,2.47,0,0,1-1.45,2.81,2.72,2.72,0,0,1-3.22-.72s.17,3.3-1.68,3.7S47.8,70.7,47.8,70.7a3.38,3.38,0,0,1-2.33,1.85c-1.53.16-2.25-1.85-2.25-1.85A2.89,2.89,0,0,1,42,73.51c-1.53,1-4.51-.48-4.51-.48a3.38,3.38,0,0,1-1.2,2.65c-1.37,1.29-2.82-.32-2.82-.32A2.22,2.22,0,0,1,33,78a4.93,4.93,0,0,1-3.25,1L27.7,86.62l1.37,2.25,2-2,3.06-2.41,11.09-2.91s5.31-4.81,8.44-6.34c.64-.31,1.82,0,2.67-.09C56.11,72.3,59.07,70.11,61.36,70.46Z"/><path class="cls-4" d="M104.63,85.1c-1.21,3.71,1.63,7.64,6.39,6.55s4.66-7.59,1.49-9.45A5.25,5.25,0,0,0,104.63,85.1Z"/><path class="cls-5" d="M112.51,82.2a7.33,7.33,0,0,0-.69-.34c0,.13,1.52,4.78-1.23,6.81a5.59,5.59,0,0,1-5.77.32c.93,2,3.17,3.35,6.2,2.66C115.77,90.56,115.68,84.06,112.51,82.2Z"/><path class="cls-1" d="M100.7,92.38c.79-3.48,3.9-5.47,5.78-3.91S108.3,93,108.3,93s-6.15,1.45-6.37,1.45A10.85,10.85,0,0,1,100.7,92.38Z"/><path class="cls-4" d="M37,70.6c-1.82,2.61-1.09,8.74,5.23,8.24,5.85-.46,5.36-7.32,3.24-9.17A5.68,5.68,0,0,0,37,70.6Z"/><path class="cls-5" d="M45.45,69.67a6,6,0,0,0-.75-.55c.13.82.75,4.19-2.09,6.24a5.26,5.26,0,0,1-6.37-.5c.46,2.25,2.23,4.28,6,4C48.06,78.38,47.57,71.52,45.45,69.67Z"/><path class="cls-4" d="M60,57.83c-1.82,2.61-1.08,8.75,5.24,8.25,5.84-.46,5.35-7.33,3.24-9.17A5.7,5.7,0,0,0,60,57.83Z"/><path class="cls-5" d="M68.47,56.91a4.6,4.6,0,0,0-.76-.55c.14.81.76,4.18-2.09,6.23a5.26,5.26,0,0,1-6.36-.49c.45,2.24,2.23,4.27,6,4C71.07,65.62,70.58,58.75,68.47,56.91Z"/><path class="cls-4" d="M101.3,70.31a4.48,4.48,0,0,0-.43.91c-1.41,4.13,2.23,7.19,6.22,5.43a4,4,0,0,0,2.31-4.9A12,12,0,0,1,101.3,70.31Z"/><path class="cls-5" d="M107.73,71.49a3.35,3.35,0,0,1-1.83,3.1,5.55,5.55,0,0,1-5,0c.85,2.18,3.45,3.29,6.23,2.06a4.06,4.06,0,0,0,2.11-5.48A10.1,10.1,0,0,1,107.73,71.49Z"/><path class="cls-4" d="M22.08,78.42c-3.24,3.11-1.45,9,4,9,6.2,0,6.43-7.12,3.87-9.38C28,76.28,24,76.56,22.08,78.42Z"/><path class="cls-5" d="M30,78a3.54,3.54,0,0,0-.63-.44c.06,1.21,0,4.68-2.39,6.14-2.67,1.66-6.12,0-6.26-.07A5.32,5.32,0,0,0,26.1,87.4C32.3,87.4,32.53,80.28,30,78Z"/><path class="cls-2" d="M48.45,83.72v-.16A.63.63,0,0,0,48.45,83.72Z"/><path class="cls-2" d="M57.61,77.14s.32-4-3.62-4.11-4.18,4.11-4.18,4.11-.48-3.63-2.89-3.22-2.57,3.69-2.57,3.69S42.42,73.67,39,75.12s-1.53,5.71-1.53,5.71-2.57-2.73-4.74-1.37,0,4.59,0,4.59a2.64,2.64,0,0,0-3.14,0c-1.52,1.2,0,3.29,0,3.29a3.19,3.19,0,0,0-3,0s1.45-2.25-.64-3.7-3.7,1-3.7,1-.08-1.77-2.58-3.06-3.88,2-3.88,2c-1.26-.8-3.14-1.27-4.06-.26-1.2,1.32.87,4,.87,4s-3-2.83-5.23-.4C5.67,88.79,9.13,91,9.13,91s-3.88-1.55-5.47.72C2.29,93.75,5,95.87,5,95.87S1.9,96,1.9,98.68c0,3.19,3.77,2.73,3.77,2.73s-1.9.84-1.24,2.25,3.09.41,3.09.41-2.65,3-.34,4.77c1.73,1.35,4.16-.69,4.83-1.31l.18-.17s-2.44-.13-3-1.53c-.78-1.85,2.25-4.07,2.25-4.07s-1.82.32-2.09-1C9,99.09,12,99.24,12,99.24s-2-.7-2.16-2.15c-.42-3,3.44-3,3.44-3s-1.07-2.68.86-3.65a2,2,0,0,1,2.79,1s-.87-2.54.61-3.16c1.91-.81,2.82,2.33,2.82,2.33s1-3.54,3.05-2.81.32,3.21.32,3.21,1.85-1.2,2.58.08S25,94.82,25,94.82c3.38-2.49,8.12-.48,8.12-.48-1.92-2.09-1.45-5,.48-5.87s3.78.72,3.78.72-.8-3.37,1.37-4.5,4.5,1.61,4.5,1.61-.72-4.42,2.33-4.83c2.6-.34,2.87,1.52,2.9,2.09a3.89,3.89,0,0,1,1.85-3c2-1.45,3.78,1.53,3.78,1.53s-1.61-3.38-.33-5S57.61,77.14,57.61,77.14Z"/><path class="cls-1" d="M62.35,72.47a2.62,2.62,0,0,1-1-3.84c1.52-2.57,5.6-3.07,6.19-1.13S65,73.79,62.35,72.47Z"/><path class="cls-2" d="M62.36,71.34s-4.27-.74-3.78-3.18,3.78-2,3.78-2-1.37-2.33.8-3.46,4.34,1.77,4.34,1.77-1.85-2.09-.56-2.81,2.89.8,2.89.8-2.81-5.63.41-6.83S75.3,57.76,75.3,60c0,0,.32-3.54,2.57-3.46s1.45,3.62,1.45,3.62,1.45-5.31,5.15-4.34,2.09,5,2.09,5,3.21-1.69,5.46.72-1,5.87-1,5.87-.32-2.65-2.81-2.49a7.31,7.31,0,0,0-4.11,1.61s1.45-2.35-.4-3.14-3.12,1.93-3.12,1.93-.25-1.93-1.78-1.93a1.78,1.78,0,0,0-1.91,1.85A2.88,2.88,0,0,0,74,63.38c-3.13.21-2.41,3.38-1,4.35,0,0-2.23-1-3.22.08-1.2,1.28,0,3.53,0,3.53s-4.34-.56-3.21-4.1C66.62,67.24,60.83,65.8,62.36,71.34Z"/><path class="cls-3" d="M116.79,68a2,2,0,0,0-2.09-.41s4.5-2.73,2.73-4.66-4.42-.24-4.42-.24,2.09-1.61.8-3.22a3.26,3.26,0,0,0-.31-.33c.26,2.58-2.56,4.27-2.56,4.27s1.88,2.2.7,3.14-2.68-1.1-2.68-1.1.27,3.32-2,4.07-4-2.14-4-2.14-.37,2.73-2.25,2.73a2.76,2.76,0,0,1-2.46-2c-.38,1-.76,4.2,2,4.82a2.85,2.85,0,0,0,3.43-1.58s1.14,2,4.66,1.32a5.3,5.3,0,0,0,4.08-3.76,2.32,2.32,0,0,0,1.48,2.32,2.29,2.29,0,0,0,2.29-.36S117.83,68.85,116.79,68Z"/><path class="cls-3" d="M116.22,70.86l1.09-.8A4.93,4.93,0,0,0,116.22,70.86Z"/><path class="cls-1" d="M41.89,66.46c.35-.65-1.32-1.27-2.12-.26S41.3,67.59,41.89,66.46Z"/><path class="cls-4" d="M96.52,66.67A4.43,4.43,0,0,1,90.34,63a4.25,4.25,0,1,1,6.18,3.64Z"/><path class="cls-5" d="M97.17,59.54c0,.1.88,3.18-1.81,4.55a4.51,4.51,0,0,1-5-.71,4.43,4.43,0,0,0,6.13,3.29A4.16,4.16,0,0,0,97.17,59.54Z"/><path class="cls-4" d="M11.63,91.47c-3.79.19-6.39,4.87-3.9,8s7.11,2.18,8.34-.67S15.61,91.27,11.63,91.47Z"/><path class="cls-5" d="M14.3,92.23a5.24,5.24,0,0,1-1.61,5.49,5.18,5.18,0,0,1-5.4,1,4.83,4.83,0,0,0,.44.67c2.49,3.11,7.11,2.18,8.34-.67A5.74,5.74,0,0,0,14.3,92.23Z"/><path class="cls-4" d="M88.48,71.37a4.64,4.64,0,0,0-2.62,5.91c1.16,3.31,5.12,3.43,7,2.15S96,74.8,94,72.67A5,5,0,0,0,88.48,71.37Z"/><path class="cls-5" d="M92.91,71.81c.11.76.53,4.35-1.82,5.51-2.6,1.29-5.34-.71-5.42-.76a6.38,6.38,0,0,0,.19.72c1.16,3.31,5.12,3.43,7,2.15S96,74.8,94,72.67A5.25,5.25,0,0,0,92.91,71.81Z"/><path class="cls-4" d="M118.85,89a5,5,0,0,0,4.25,8.11c5.15,0,6.37-6.6,4-8.6S121,86.25,118.85,89Z"/><path class="cls-5" d="M127.13,88.47a6.42,6.42,0,0,0-1.66-1c0,.05,1.44,4.88-1.49,6.56a6.24,6.24,0,0,1-5.76,0,5,5,0,0,0,4.88,3C128.25,97.07,129.47,90.47,127.13,88.47Z"/><path class="cls-4" d="M102,96.13c-2.45,2.94.15,9.15,5.46,7.77s4-6.66,2.38-8.24A5.48,5.48,0,0,0,102,96.13Z"/><path class="cls-5" d="M108.13,94.59s2.08,5.4-1.6,6.86a4.79,4.79,0,0,1-5.24-.93,4.88,4.88,0,0,0,6.13,3.38c5.25-1.35,4-6.66,2.38-8.24A4.55,4.55,0,0,0,108.13,94.59Z"/><path class="cls-4" d="M83,97.7a5.45,5.45,0,0,0-2.09,4.09c-.09,2.3,1.2,4.71,4.72,5.24,6.09.93,8.38-6.39,5-9.09a7.51,7.51,0,0,0-1.16-.77A5.92,5.92,0,0,0,83,97.7Z"/><path class="cls-5" d="M90.59,97.94a7.3,7.3,0,0,0-.78-.54c.21,1,.21,5.92-3,6.8a6.93,6.93,0,0,1-5.74-.75c.47,1.69,1.86,3.18,4.53,3.58C91.7,108,94,100.64,90.59,97.94Z"/><path class="cls-4" d="M75.4,85.21c-2,2.86.85,8.35,6.14,6.94s4.33-6.57,1.68-8.59C79.86,81,76.73,83.24,75.4,85.21Z"/><path class="cls-5" d="M75.4,89.54l0,.12a5.14,5.14,0,0,0,6.17,2.49c5.3-1.41,4.33-6.57,1.68-8.59a6,6,0,0,0-1.13-.68c.44,1.25,1.37,4.7-1.22,6.26C77.68,91.06,75.4,89.54,75.4,89.54Z"/><path class="cls-1" d="M15.32,98.24s-3.33.12-2.49,2.29,4.46.64,5.35-.64,0-4.71-1.61-5.15S14.08,96.63,15.32,98.24Z"/><path class="cls-4" d="M41,90.51c-1.07,1.93-.72,7.33,4.67,6.95a4.77,4.77,0,0,0,3-8.48C46,87.08,42.62,87.62,41,90.51Z"/><path class="cls-5" d="M48.73,89a6.15,6.15,0,0,0-1-.6s1.52,4-1.1,5.88a6.25,6.25,0,0,1-5.53.8c.67,1.45,2.08,2.58,4.65,2.4A4.77,4.77,0,0,0,48.73,89Z"/><path class="cls-1" d="M38.68,87.61c-1.34,1.61-3,5-.86,5.2s2.84-3.33,2.84-3.33a2.19,2.19,0,0,0,2.42.73c1.39-.57.69-2.33.69-2.33s1.24,2.89,3.54,1.93,1.56-3.38-1.23-4.13a4.75,4.75,0,0,0-4.29.56Z"/><path class="cls-4" d="M54.55,92.43c-1.57,2.12-1.2,8.35,5.09,7.16,5.39-1,4.13-7.44.81-8.73C57.75,89.82,56,90.42,54.55,92.43Z"/><path class="cls-5" d="M60.45,90.86c.56.85,1.52,5-1.45,6.44a4.39,4.39,0,0,1-5.09-.83c.45,2,2.11,3.81,5.73,3.12C65,98.57,63.77,92.15,60.45,90.86Z"/><path class="cls-1" d="M51.77,91.16c-1,1.76-.21,4.22,1.34,4S55,92.17,55,92.17a2.51,2.51,0,0,0,2.25.53c1.12-.43.75-1.93.75-1.93s2.68,2.19,3.64,1-2.34-4.36-4-4.41S51.77,91.16,51.77,91.16Z"/><path class="cls-2" d="M66.39,54.91c.63-.74-1.41-3.71-2.7-2.47C62.69,53.4,65.58,55.85,66.39,54.91Z"/><path class="cls-2" d="M63.21,55.14c-1.41-.21-2.05,1.14-.64,1.6,1.25.41,2.12,0,2.1-.54S63.82,55.23,63.21,55.14Z"/><path class="cls-2" d="M77.91,94.75s2-1.88,4-.38a2.76,2.76,0,0,1,1.39-2.74c1.88-1.08,3.81.91,3.81.91s-.7-2.31,1.07-3.17,3.27.86,3.27.86-.11-3,2.09-3.43,3.06,2.08,3.06,2.08a3.4,3.4,0,0,1,3.85-.69,3.53,3.53,0,0,1,2.19,3.11s1.62-2.57,3.76-1.34A3.31,3.31,0,0,1,108.3,93s1.77-3.59-.65-5.68a3.8,3.8,0,0,0-4.6-.33,3.37,3.37,0,0,0-2.68-3.32c-2.79-.7-3.22.81-3.22.81s-1.31-4.1-4.23-3.27-2.79,4.82-2.79,4.82S89.43,83.48,87,84c-2.94.57-2.15,4.53-2.15,4.53a2.56,2.56,0,0,0-3-.56c-2.76,1.59-1.76,3.85-1.76,3.85S77.43,92.82,77.91,94.75Z"/><path class="cls-1" d="M79,96.51s-2.11,2.34-1.18,4.55,4,2,4.39-1.5c0,0,1.93,2.79,3.59,1.82s.43-3.59.43-3.59.81,1.77,1.88,1.29,1.18-2.31,1.18-2.31-.21,3.59,2.25,3.17a3.24,3.24,0,0,0,2.52-4.24C93.63,94.25,80.19,94.42,79,96.51Z"/><path class="cls-1" d="M86,70.46c-1.22.7-2.61,1.85-.88,2.77a3.1,3.1,0,0,0,3.34-.52s0,2.21,1.16,2.13S90.94,73,90.94,73s2.57,2.17,3.74.4S88.29,69.18,86,70.46Z"/><path class="cls-1" d="M93.79,68s-3.7-1-2-2.36,3.59.22,3.59.22-.8-1.8.54-2.1S97.54,65,97.54,65s.27-2.89,2.36-2.89S99.49,66.28,98,67A14.27,14.27,0,0,1,93.79,68Z"/><path class="cls-1" d="M75.57,66.07c-1.82.44-2.35,2.39-.44,2.83a3.28,3.28,0,0,0,2.92-.48s-.53,2.48,1,3S80.76,70,80.76,70s2.44.35,2.83-.71c.19-.5-1-2.49-2.94-3.13A11.26,11.26,0,0,0,75.57,66.07Z"/><path class="cls-1" d="M25.63,100.72c0,2.06.65,3.9,2.75,3.07s1.41-3.45,1.41-3.45,1.72,2.36,3.5,1.14,1.13-3.09-1.24-4.16S25.62,99.29,25.63,100.72Z"/><path class="cls-3" d="M93.65,97.66c-.83,1.57-.8,3.42.7,2.89,1-.36,1-1.62.85-2.71S94.23,96.56,93.65,97.66Z"/><path class="cls-3" d="M96.53,97.35c-.57.36.15,3.37,1.22,3.76s2.24-.56,1.54-1.92S97.31,96.87,96.53,97.35Z"/><path class="cls-3" d="M23.31,100.65c-.95,1.74-1,4,.68,3.6,1.39-.33,1.57-2.6,1.23-4C25,99.44,24.18,99.05,23.31,100.65Z"/><path class="cls-2" d="M19.19,92.27c-1-1.3-3.11.22-1.13,2C19.57,95.64,20.93,94.48,19.19,92.27Z"/><path class="cls-2" d="M14.43,101.18c-1.25.3-2.6,1.52-1.72,2.2s2.37-.57,2.9-1.57C16,101.11,15.23,101,14.43,101.18Z"/><path class="cls-2" d="M21.61,93.05c-.79.84-1.16,1.91-.32,1.86s2.09-1,1.85-1.65S22.26,92.37,21.61,93.05Z"/><path class="cls-3" d="M95.29,67.44c-1.59,1-2.73,2.22-1.55,3s2.52-1,2.84-1.83S96.52,66.67,95.29,67.44Z"/><path class="cls-3" d="M116,91.44s-.2,3,1.49,2.78S119.42,91,119.42,91s2,1.25,2.94.2-.21-3.27-.21-3.27,3.1,1.11,3.46-.74-3.94-3.06-5.79-1.21A28.86,28.86,0,0,0,116,91.44Z"/><path class="cls-1" d="M101.48,95.49c-2,2.15-1.75,4.37.72,3.67a3.31,3.31,0,0,0,2.62-2.71s1.72,2.15,2.74,1.72.38-2.11.38-2.11,3.32,1.22,3.48,0S105.77,90.3,101.48,95.49Z"/><path class="cls-1" d="M57.17,78.94a2,2,0,0,0,2.7,1.2,3.51,3.51,0,0,0,2.19-2.71s1.57,1.44,2.4,1.22.61-1.7.61-1.7,2.32.89,2.89-.37-5.37-3.17-5.39-3.19S57.17,78.94,57.17,78.94Z"/><path class="cls-3" d="M52.88,88.9c-1.19,1.71-1.41,3.89,0,3.79s1.37-2.11,1.26-3.12S53.61,87.85,52.88,88.9Z"/><path class="cls-3" d="M56.19,87.46c-.67.49-.36,1.73.44,2.55s1.91,0,1.54-1.12S56.55,87.2,56.19,87.46Z"/><path class="cls-3" d="M73.52,93.21C72,94.43,71,97,72.83,97.1s2-1.79,2.2-3S74.55,92.39,73.52,93.21Z"/><path class="cls-3" d="M69.83,92.67c-1.72.28-2,1.66-1.07,1.94s2.32-.87,2.5-1.32S70.82,92.51,69.83,92.67Z"/><path class="cls-2" d="M90.46,92.11c-1.38-.53-2.63,1-1,1.72,1.3.55,2.39.56,2.39,0A2.35,2.35,0,0,0,90.46,92.11Z"/><path class="cls-2" d="M93.39,89.65c-1,1.07-.13,4.25.7,4.25,1.08,0,1.14-1.52,1.2-3C95.35,89.63,94.11,88.91,93.39,89.65Z"/><path class="cls-2" d="M98.52,90.72c-.76.89-.7,2-.36,2.2.52.25,2.1-1.07,2.1-1.87A1,1,0,0,0,98.52,90.72Z"/><path class="cls-3" d="M19.52,101.9c-.79,1-2,2.73-.81,3.13s2.23-2.36,2.16-3.13S20.28,101,19.52,101.9Z"/><path class="cls-2" d="M88.59,54.69C88,56.25,87.85,58,89,57.61S91.81,54.7,91.24,54A1.57,1.57,0,0,0,88.59,54.69Z"/><path class="cls-2" d="M104.81,61.62c-.26.29-1.89-.1-2.27-1.06s.54-1.41,1.29-.92S105.21,61.18,104.81,61.62Z"/><path class="cls-2" d="M107.36,59.05c-1.33,1.09-1.75,2.25-.92,2.42A3.11,3.11,0,0,0,109,59.56C109.13,58.78,108.33,58.25,107.36,59.05Z"/><path class="cls-2" d="M52.15,56.76c-.11,1.06.16,2.22.56,2.31.81.18,1.28-1.24,1.29-2.5C54,55.61,52.29,55.58,52.15,56.76Z"/><path class="cls-2" d="M55,56c-.55,1.25-.15,1.87.31,1.75a2.64,2.64,0,0,0,1.33-1.85C56.41,55,55.36,55.22,55,56Z"/></svg>