<svg id="Layer_1" data-name="Layer 1" xmlns="http://www.w3.org/2000/svg" xmlns:xlink="http://www.w3.org/1999/xlink" viewBox="0 0 64 64"><defs><style>.cls-1{fill:none;}.cls-2{fill:#ef4b4b;}.cls-3{clip-path:url(#clip-path);}.cls-4{fill:#aa1d41;}.cls-5{fill:#764e1f;}.cls-6{fill:#ce2634;}.cls-7{fill:#f47f77;}.cls-8{fill:#c7234c;}.cls-9{clip-path:url(#clip-path-2);}.cls-10{fill:#fab895;}.cls-11{fill:#231f20;}</style><clipPath id="clip-path"><path class="cls-1" d="M23.74,16.68c-5.23.17-12.84-6.81-19.37,1.11-8.6,10.42,3.12,37.47,10.47,38.13s7.24-3,16,1.07S56.62,27.76,45.64,17.25C36.46,8.46,32.68,16.38,23.74,16.68Z"/></clipPath><clipPath id="clip-path-2"><path class="cls-1" d="M60.73,33.31c4.66,8.46.87,19.78-8.46,25.27S31.61,61.68,27,53.22Z"/></clipPath></defs><path class="cls-2" d="M23.74,16.68c-5.23.17-12.84-6.81-19.37,1.11-8.6,10.42,3.12,37.47,10.47,38.13s7.24-3,16,1.07S56.62,27.76,45.64,17.25C36.46,8.46,32.68,16.38,23.74,16.68Z"/><g class="cls-3"><path class="cls-4" d="M3.61,47.85s34.32,8.43,49.2-28.28.95,50.89.95,50.89L3.94,61.4Z"/></g><path class="cls-5" d="M22,22.17s-3.17-18.63,6.86-21L30.63,5s-3.9.15-5.71,4.76c-2,5.05-1,12.34-1,12.34Z"/><path class="cls-6" d="M15.63,19.26C20,22,25.52,22.8,30,19.9l.9-.53-.76.72a10.51,10.51,0,0,1-1.71,1.24c-4.07,2.39-9.54,1.18-12.79-2.07Z"/><path class="cls-7" d="M41.57,18.16a11.9,11.9,0,0,1,3,4.26,12,12,0,0,1,.76,2.52,9.15,9.15,0,0,1,.09,2.61c-.18-.85-.34-1.68-.59-2.5A21.26,21.26,0,0,0,44,22.67,32.62,32.62,0,0,0,41.57,18.16Z"/><path class="cls-7" d="M40.52,22.13c1.6,1.8,2.16,4.27,2.47,6.61a32.15,32.15,0,0,1-.08,7.14c-.16,1.18-.37,2.36-.58,3.52s-.49,2.33-.83,3.47-.65,2.28-1,3.41-.8,2.23-1.23,3.33c.61-2.29,1.26-4.56,1.78-6.86.26-1.15.48-2.31.73-3.46s.38-2.32.52-3.49a35,35,0,0,0,.23-7,19.1,19.1,0,0,0-.56-3.46A9.38,9.38,0,0,0,40.52,22.13Z"/><path class="cls-7" d="M35.54,24.09a7.42,7.42,0,0,1,.91,2.51,12.64,12.64,0,0,1,.19,2.68,14.79,14.79,0,0,1-.34,2.65c-.09.43-.22.86-.34,1.29s-.3.84-.47,1.24l.3-2.61c.08-.87.18-1.73.19-2.6a24.68,24.68,0,0,0,0-2.58A13.43,13.43,0,0,0,35.54,24.09Z"/><path class="cls-7" d="M12.05,19.9a11.26,11.26,0,0,0-1.85,2.18A11.76,11.76,0,0,0,9,24.59a14.68,14.68,0,0,0-.65,2.73c-.13.94-.16,1.9-.2,2.87-.1-.47-.19-1-.26-1.44a12,12,0,0,1,0-1.47,10.12,10.12,0,0,1,.55-2.92A8,8,0,0,1,12.05,19.9Z"/><path class="cls-7" d="M13,28.67a34.63,34.63,0,0,0-.73,5.13A30.54,30.54,0,0,0,12.4,39a23.35,23.35,0,0,0,1,5l.39,1.23.49,1.19c.29.82.76,1.55,1.11,2.35a18.12,18.12,0,0,1-2.47-4.61A21,21,0,0,1,11.75,39a24.9,24.9,0,0,1,.06-5.25A21.14,21.14,0,0,1,13,28.67Z"/><path class="cls-8" d="M60.73,33.31c4.66,8.46.87,19.78-8.46,25.27S31.61,61.68,27,53.22Z"/><g class="cls-9"><path class="cls-10" d="M27.38,52.52C32,60.86,43,63.32,52,58s12.56-16.36,8-24.7Z"/><path class="cls-11" d="M48.13,43.44c-.48.29-2.11.78-2.35.34s1-1.63,1.48-1.91a.93.93,0,0,1,1.31.27A1,1,0,0,1,48.13,43.44Z"/><path class="cls-11" d="M43.59,46.22c.48-.28,1.72-1.48,1.48-1.92s-1.87.06-2.35.34a1,1,0,0,0-.44,1.3A.93.93,0,0,0,43.59,46.22Z"/></g></svg>