<svg id="Layer_1" data-name="Layer 1" xmlns="http://www.w3.org/2000/svg" viewBox="0 0 180.26 398.3"><defs><style>.cls-1{fill:#bbcbd2;}.cls-2{fill:#f0f3f3;}.cls-3{fill:#4b666b;}</style></defs><path class="cls-1" d="M96.7,95H91.55c-.89,12.52-10,279.59-10.23,288.91h25.62C106.67,374.57,97.62,107.5,96.7,95Z"/><path class="cls-2" d="M96.23,95c-.84,0,.88,288.91.88,288.91h8.54C105.4,374.33,97.09,107.5,96.23,95Z"/><path class="cls-1" d="M108.46,103.28c4.49,2.77,69.57,5.38,69.91,2.9s-19.68-7.34-44.76-10.88-39.83-6.1-40.19-3.62S99.73,97.87,108.46,103.28Z"/><path class="cls-2" d="M172.66,106.06,98.23,95.57c2.18,1.53,5,3.27,7.7,4.92,1,.6,2,1.23,3.08,1.89C112.26,104.38,157.16,106.68,172.66,106.06Z"/><path class="cls-1" d="M96.57,73.58c.15-5.27-30.11-62.93-32.44-62s3.48,20.74,13,44.23S91.73,93.35,94,92.4,96.24,83.85,96.57,73.58Z"/><path class="cls-2" d="M66.88,16.59,95,86.31c.23-2.66.31-6,.39-9.13,0-1.17.06-2.37.11-3.63C95.63,69.73,75.17,29.7,66.88,16.59Z"/><path class="cls-1" d="M77.27,98.68c-4.65,2.5-39.45,57.55-37.48,59.09S56,144.4,71.61,124.45,96.8,93,94.83,91.45,86.32,93.81,77.27,98.68Z"/><path class="cls-2" d="M42.76,152.89,89.07,93.66c-2.43,1.13-5.36,2.73-8.12,4.22L77.77,99.6C74.41,101.41,50,139.16,42.76,152.89Z"/><path class="cls-1" d="M93.65,96.16a4.46,4.46,0,1,0-3.79-5A4.48,4.48,0,0,0,93.65,96.16Z"/><path class="cls-3" d="M93.86,94.7a3,3,0,1,0-2.54-3.37A3,3,0,0,0,93.86,94.7Z"/><path class="cls-1" d="M115.19,385.88c0,1.27-.72,2.3-1.62,2.3H75.2c-.91,0-1.62-1-1.62-2.3s.71-2.27,1.62-2.27h38.37c.9,0,1.62,1,1.62,2.27Z"/></svg>