<svg xmlns="http://www.w3.org/2000/svg" viewBox="0 0 288.69 328.93"><defs><style>.cls-1{fill:#8fa50f;}.cls-2{fill:#6f7a03;}.cls-3{fill:#2b2722;}.cls-4{fill:#432618;}.cls-5,.cls-7{fill:#cb8346;}.cls-5,.cls-6{opacity:0.17;}.cls-7,.cls-9{opacity:0.29;}.cls-8{fill:#7c4939;}.cls-9{fill:#df965b;}.cls-10{fill:#a3db67;}.cls-11{fill:#ca4b12;}.cls-12{fill:#ad3c0d;}.cls-13{fill:#aa380c;}.cls-14{fill:#e27b3c;}.cls-15,.cls-16{fill:#f4ff51;}.cls-15{opacity:0.23;}.cls-16{opacity:0.64;}.cls-17{fill:#5b8a21;}.cls-18{fill:#9ebd34;}.cls-19{fill:#6d3a11;}</style></defs><g id="Layer_2" data-name="Layer 2"><g id="Layer_2-2" data-name="Layer 2"><path class="cls-1" d="M187.7,171.86a16.11,16.11,0,0,0-4,4.13c.52-4.8,1.76-11.51,4.73-14.38,4.86-4.69-3.78-3.13-8-.32s-6.57,8.61-6.57,8.61l-4.34-13-2.1,11.64a46.56,46.56,0,0,1-2.64-7.6c-.51-2.76-4.37,5.67-5,7.55s-2.85-8.3-2.59-11.6-2.77,2.4-3.57,4.93-4.32-5.68-5.14-6.72-.14,8.21-1.63,9.06c-.84.47,2.86,2.68,8.34,5.17-.12,2.33-.31,5-1.07,5.39-1.49.85,11.41,7.18,23.12,10.85s13.35,6.32,13.35,6.32.25-15,5.11-19.69S191.89,169.05,187.7,171.86Zm-26.84.5c-.36,1.16-1.3.06-2.29-1.57l2.48,1C161,172,160.91,172.19,160.86,172.36ZM167,179c-.41,1.14-1.38-2.2-2-5.73,1.32.48,2.65.94,4,1.37A47.25,47.25,0,0,0,167,179Zm7.68,0s-.56-1.28-1.18-2.9c.57.2,1.1.4,1.6.6Zm6.45,1.39-.37-1.08c.24.14.47.27.67.4C181.24,180.21,181.14,180.47,181.14,180.47Z"/><path class="cls-2" d="M279.15,238.63c-6.85-4.46-15.43-5.49-19.54-12S249,212.23,233.2,205.71s-20.22-5.48-27.08-8.91-28.8-19.55-43.2-23.66c-9.62-2.75-13-11.32-22.64-4.46s-20.23,12.34-30.51,11-17.84,2.06-21.94,7.2-6.18,5.83-12.69,5.15-7.89,1.71-14.4,5.48-10,.69-17.15,3.43-12,5.49-13.37,11.32-1,2.74-10.29,6.17-13.72,4.46-14.74,9.26S1.36,239.09.33,240.12s.36,5.33,3.79,7.73,20.5,1.75,21.07,4.49,10.51,3,13.6,5.6,3.77,6.06,8.92,7.78,12.34.68,17.83,7.88,29.83,20.92,38.74,29.49,28.8,22.12,37.38,18.52,26.58-12.35,37-12,16.88-2.75,21.68-8.92,17.83-20.91,27.77-20.57,24-2.75,28.12-8.92,8.23-5.14,15.09-9.26,15.77-11,17.14-13.37S286,243.09,279.15,238.63Z"/><path class="cls-3" d="M281.52,238.31c-6.58-4.28-21.56-4.72-25.5-11s-10.21-13.82-25.34-20.07-19.42-5.26-26-8.56S177,180,163.22,176c-9.22-2.64-12.5-10.86-21.71-4.28s-19.42,11.85-29.29,10.53-17.12,2-21.07,6.91-5.92,5.6-12.17,4.94-7.57,1.64-13.82,5.26-9.54.66-16.45,3.29-11.52,5.27-12.84,10.86-1,2.64-9.87,5.93-13.16,4.27-14.15,8.88-7.48-1.86-8.47-.87S3,241.81,6.26,244.12,30.5,249.38,31.05,252s10.09,2.85,13.05,5.38,3.62,5.81,8.55,7.46,11.85.65,17.11,7.56S98.4,292.49,107,300.72s27.64,21.22,35.87,17.76,25.52-11.84,35.46-11.51,16.2-2.64,20.81-8.56,17.11-20.07,26.65-19.74,23-2.63,27-8.56,7.9-4.93,14.48-8.88,15.13-10.53,16.45-12.84S288.1,242.59,281.52,238.31Z"/><path class="cls-4" d="M274.77,232.06c-6.58-4.28-14.81-5.27-18.75-11.52s-10.21-13.82-25.34-20.07-19.42-5.27-26-8.56S177,173.15,163.22,169.2c-9.22-2.63-12.5-10.85-21.71-4.27s-19.42,11.84-29.29,10.53-17.12,2-21.07,6.91S85.23,188,79,187.3s-7.57,1.65-13.82,5.27-9.54.66-16.45,3.29-11.52,5.26-12.84,10.86-1,2.63-9.87,5.92-13.16,4.28-14.15,8.89-6.91,3.61-7.9,4.6S3,235,6.26,237.32s24.24,5.27,24.79,7.9,10.09,2.85,13.05,5.37,3.62,5.82,8.55,7.46,11.85.66,17.11,7.57S98.4,285.69,107,293.92s27.64,21.22,35.87,17.77,25.52-11.85,35.46-11.52,16.2-2.63,20.81-8.55,17.11-20.08,26.65-19.75,23-2.63,27-8.55,7.9-4.94,14.48-8.89,15.13-10.53,16.45-12.83S281.36,236.33,274.77,232.06Z"/><path class="cls-1" d="M178.15,312.62c-2-1.14-1.11-13.72-2.22-12.31s-5.92,12.57-7,9.13-5.2-11.17-4.84-6.69-2.61,18.32-3.52,15.77-6.17-14-6.86-10.27-3.59,10.33-3.59,10.33l-2.85-15.83-5.9,17.71s-3.24-7.89-8.93-11.7-17.43-5.94-10.83.43a47.6,47.6,0,0,1,9.9,14.57s-.72,8.6,15.19,3.61S180.18,313.77,178.15,312.62Z"/><path class="cls-5" d="M267.54,233c-10.21-2-18.11,1-28.31,10.86s-10.85,10.86-26,9.87-19.09,0-27.32,10.53-12.5,15.8-29.61,17.44S137.75,281.42,133,291s.39,18.11,9.58,16.06,24.5-17.71,38.13-12.77c6,2.15,18.1-12.51,30.28-19.09s18.75-7.56,30.6-13.49,21.62-8.85,29.62-17.77C274.14,240.57,277.73,235,267.54,233Z"/><path class="cls-3" d="M231.34,240.49c-8.89,7.45-16.45,3.74-28.63,3.74s-16.45,9.54-23,16.68-33.56,11.95-46.06,16.56-7.57,18.76-7.24,12.83,19.74-17.44,36.52-17.77,24-17.77,31.92-21.94,21.06-2.41,28.63-2.08,22.05-18.43,22.05-18.43C248.82,226,240.22,233,231.34,240.49Z"/><path class="cls-5" d="M229.69,209.34c-10.2-2-18.1,1-28.3,10.86s-10.86,10.86-26,9.87-19.09,0-27.32,10.53-12.5,15.8-29.61,17.44-18.56-.33-23.37,9.22.4,18.1,9.58,16.06,24.5-17.71,38.14-12.77c6,2.15,18.1-12.51,30.27-19.09s18.76-7.57,30.6-13.49,21.62-8.85,29.62-17.77C236.3,216.87,239.89,211.31,229.69,209.34Z"/><path class="cls-3" d="M193.5,216.79c-8.89,7.45-16.46,3.74-28.63,3.74s-16.46,9.54-23,16.67-33.56,12-46.07,16.56-7.57,18.76-7.24,12.84,19.75-17.44,36.53-17.77,24-17.77,31.92-21.94,21.06-2.41,28.62-2.08,22-18.43,22-18.43C211,202.33,202.38,209.34,193.5,216.79Z"/><path class="cls-5" d="M187.61,185.46c-10.2-2-18.1,1-28.3,10.86s-10.86,10.86-26,9.87-19.08,0-27.31,10.53-12.5,15.8-29.62,17.44-18.56-.33-23.36,9.22.4,18.1,9.58,16.05,24.5-17.7,38.13-12.77c6,2.16,18.1-12.5,30.28-19.08s18.75-7.57,30.6-13.49,21.62-8.85,29.62-17.77C194.22,193,197.81,187.43,187.61,185.46Z"/><path class="cls-3" d="M151.41,192.91c-8.88,7.45-16.45,3.74-28.63,3.74s-16.45,9.54-23,16.67-33.57,12-46.07,16.56-7.57,18.76-7.24,12.84S66.18,225.28,83,225s24-17.77,31.92-21.94,21-2.41,28.62-2.09,22.05-18.42,22.05-18.42C168.9,178.45,160.29,185.46,151.41,192.91Z"/><g class="cls-6"><path class="cls-7" d="M154.67,166.9c-10.21-2-7.41-3.13-17.61,6.75s-30.26.44-41.92,10.15c-10.53,8.77-30.15,7.13-38.37,17.66S46.24,199,38.21,211.77c-9.14,14.55-20.39,4-25.18,13.54s2.22,13.78,11.4,11.73,24.5-17.7,38.13-12.77c6,2.16,26-5.69,34.52-16.57s14.51-10.08,26.36-16,16.13,2.4,26.95-2.74C164.87,182.07,164.87,168.88,154.67,166.9Z"/></g><path class="cls-8" d="M70.21,233c-3.73-1.66-8.39,1.32-13.66,3s-3.62,10.37,3.29,12.18S80.9,237.78,70.21,233Z"/><path class="cls-3" d="M59.84,244.07a8.53,8.53,0,0,1-6-5.57c-1.28,3.25.94,8.32,6,9.65,5.77,1.51,16.56-6.71,13.77-12.25C71.71,240.62,64.29,245.23,59.84,244.07Z"/><path class="cls-9" d="M66.26,234.82c-3.9-2.29-4.7,3.44-8.23,3s-3.76,4.61.83,4.94S71.85,238.11,66.26,234.82Z"/><path class="cls-8" d="M225.91,215.71c-3.74-1.09-8.4.87-13.66,1.95s-3.62,6.83,3.29,8S236.6,218.85,225.91,215.71Z"/><path class="cls-3" d="M215.54,223c-3.2-.55-5.25-2.08-6-3.67-1.28,2.13.94,5.48,6,6.35,5.77,1,16.55-4.42,13.77-8.06C227.41,220.72,220,223.76,215.54,223Z"/><path class="cls-9" d="M222,216.9c-3.9-1.51-4.7,2.27-8.23,1.95s-3.76,3,.83,3.25S227.55,219.07,222,216.9Z"/><path class="cls-8" d="M160.42,170.49c-3.74-1.09-8.4.87-13.66,1.95s-3.62,6.83,3.29,8S171.11,173.64,160.42,170.49Z"/><path class="cls-3" d="M150.05,177.77c-3.2-.55-5.25-2.07-6-3.66-1.28,2.13.94,5.47,6,6.35,5.76,1,16.55-4.42,13.77-8.07C161.92,175.5,154.49,178.54,150.05,177.77Z"/><path class="cls-9" d="M156.47,171.68c-3.9-1.51-4.7,2.27-8.23,2s-3.76,3,.83,3.25S162.06,173.85,156.47,171.68Z"/><path class="cls-8" d="M211.16,259.32c-4.66-3.25-5.6-1.27-10.37,1.5s-9.21,3.27-11.35,2.12S184,274.13,200.3,273.31,216.59,263.11,211.16,259.32Z"/><path class="cls-3" d="M200.3,270.51c-8.67.44-11.79-2.85-12.49-5.85-.78,3.14.88,9.23,12.49,8.65s14.95-5.53,13.93-9.69C213.39,266.94,209.37,270.05,200.3,270.51Z"/><path class="cls-9" d="M199,263.76c-5.1,1-5.1,4.12,3.13,2.8s4.93-4.44,4.93-4.44C204.58,259.65,204.08,262.78,199,263.76Z"/><path class="cls-8" d="M146.3,247.34c-4.66-3.25-5.59-1.28-10.37,1.5s-9.21,3.27-11.35,2.12-5.43,11.19,10.86,10.37S151.73,251.12,146.3,247.34Z"/><path class="cls-3" d="M135.44,258.53c-8.67.44-11.79-2.85-12.49-5.85-.78,3.13.88,9.23,12.49,8.65s14.95-5.53,13.93-9.69C148.53,255,144.51,258.07,135.44,258.53Z"/><path class="cls-9" d="M134.13,251.78c-5.11,1-5.11,4.12,3.12,2.8s4.94-4.44,4.94-4.44C139.72,247.67,139.22,250.8,134.13,251.78Z"/><path class="cls-8" d="M211.16,232.54c-4.66-3.25-5.6-1.28-10.37,1.5s-9.21,3.27-11.35,2.12S184,247.34,200.3,246.52,216.59,236.32,211.16,232.54Z"/><path class="cls-3" d="M200.3,243.72c-8.67.44-11.79-2.85-12.5-5.85-.77,3.14.89,9.24,12.5,8.65s14.95-5.53,13.93-9.69C213.39,240.15,209.37,243.26,200.3,243.72Z"/><path class="cls-9" d="M199,237c-5.1,1-5.1,4.11,3.13,2.79s4.93-4.44,4.93-4.44C204.58,232.86,204.08,236,199,237Z"/><path class="cls-10" d="M122.46,307.57c-1.64-.52,3,3.13,6.63,6.64S134,323.9,134,323.9c2.09,3.88,3.21,2.09,1.49-4.25S124.09,308.09,122.46,307.57Z"/><path class="cls-10" d="M142.29,322.85a27.36,27.36,0,0,0,4.47-17.52Z"/><path class="cls-10" d="M149.9,320.47c-1.94,3.2,5.36,2.38,4.54-11.78C154.44,308.69,151.83,317.26,149.9,320.47Z"/></g><g id="Layer_1-2" data-name="Layer 1"><path class="cls-11" d="M88.3,198.29c-8.72,0-20.48,6.83-17.86,21.06a98,98,0,0,0,7.11,23.39s.88,3.63,12.93,3.63S104.71,240,104.71,240s3.93-22.52,1.89-31.52S96.15,198.29,88.3,198.29Z"/><path class="cls-12" d="M94.88,202.25c1.3.13,1.08,7.41-7.85,6.75S74.4,200.18,94.88,202.25Z"/><path class="cls-13" d="M105.59,207.81s-3.93,6.1-12.86,5.95-2.68,1.53,1.38,1.67S107.11,213.25,105.59,207.81Z"/><path class="cls-14" d="M94.11,215.5a20.47,20.47,0,0,1-5.48-.92c-1.86.42,4,1.61,7,1.72,3.83.14,10.41-2.14,10.08-6.93C105.42,213.75,97.78,215.63,94.11,215.5Z"/><path class="cls-13" d="M105.08,228.42s-3.92,6.1-12.86,6S89.54,235.9,93.6,236,106.6,233.86,105.08,228.42Z"/><path class="cls-14" d="M93.6,236.11a20.47,20.47,0,0,1-5.48-.92c-1.86.42,4,1.61,7,1.72,3.83.14,10.41-2.14,10.08-6.93C104.91,234.35,97.27,236.24,93.6,236.11Z"/><path class="cls-13" d="M76.55,237.38s3.92,6.1,12.85,6S92.09,244.86,88,245,75,242.83,76.55,237.38Z"/><path class="cls-14" d="M88,245.07a20.68,20.68,0,0,0,5.49-.91c1.86.41-4,1.61-7.05,1.72-3.83.13-10.41-2.15-10.07-6.94C76.71,243.32,84.35,245.2,88,245.07Z"/><path class="cls-13" d="M70.76,217.77s3.92,6.11,12.85,6,2.69,1.52-1.38,1.67S69.23,223.22,70.76,217.77Z"/><path class="cls-14" d="M82.23,225.47a21,21,0,0,0,5.49-.92c1.86.42-4,1.61-7,1.72-3.83.14-10.41-2.14-10.07-6.93C70.92,223.71,78.56,225.6,82.23,225.47Z"/><path class="cls-15" d="M102.26,208.48s-9.42,7-17.53,4.84-9.32-3.92-10.41-3.21-2.28,9,3.71,11.48,7.3,2.57,5.23,3.44-5.23,1.64-3.65,4.25,5.93,5.12,5,6.05-2.07,6.26-1,7.46,7.13,4.13,12.88,2.22,6.29-3.67,6.84-9,.43-6.93-1.09-6.39.43-3.21.76-5.55,1.09-10,.17-9.53-5.29-.22-3.87-1S104.33,210.06,102.26,208.48Z"/><path class="cls-15" d="M98.94,233.75c.49-.71.11-.93-.71-1.52s-1.31-4.26-.91-6.32,0-9.48-.36-9.65-1.94-1.79-.91-2.12c.68-.21,1.71-2.08,2.34-3.33-2.93,1.51-7.15,3.15-11.3,2.89-2.27,2.52,0,6.41,1.08,8.39s0,2-.94,2.29.87,3.7,2.18,5.34.1,4.3-1.34,4.84,1.12,1,2.15,1.2-2.18,6.43-3.1,7.74a2.17,2.17,0,0,0-.45,1,14.83,14.83,0,0,0,9.78.47A20.11,20.11,0,0,0,99,244c.9-2.32.36-5.43.14-7.08C98.77,234,98.45,234.46,98.94,233.75Z"/><path class="cls-16" d="M99.51,205.05s-4.49,7.76-15.82,5.76-3.12,2.28,3.4,2.89S108.2,207,99.51,205.05Z"/><path class="cls-17" d="M90.88,135.74s26.67-25.87,31.54-34.25-9.79-.95-12.63,1.71.79-7.29,4.4-14.25-5,1.86-13.09,14.37-10.29,4.36-1.89-7.13,19.29-28,16.22-24.19S103,84.58,106.32,78.78s17.24-19.29,12.28-17.43-21.1,17-23.73,21.55S98,75.25,99.09,69s-3.78,4.27-5.62,9.67S97.09,63.5,95,57.53s-3-3-3.65-.4-2.08-9-3.67-14.44S82.21,32,82.6,36.55s5.5,18.71,4.73,23-6.31-3.23-9-7.41-.1,6.83,4,13.1,5.47,11.36,2.35,7.83S71.15,59.2,72.69,64s10.63,21.76,6.93,17-8.17-5.21-5.72,1,15.94,25.21,11.27,19.91-26.56-34-25.4-27.26S71.67,96.13,77,101.81s-10-3.64-14.47-6.26,7.69,14.38,13.42,18.14,7.5,15.57,11.72,20.17S90.88,135.74,90.88,135.74Z"/><path class="cls-17" d="M97,185.34s8.2-28.92,23.09-35.39,25-22.66,20.51-18.13-11,9.71-15.11,10.36,9.28-5.83,11.44-9.5-3.89,0-10.15,2.38,13.6-20.07,16.41-25.9-5-2.15-10.15,7.56-7.12,6-5.61,1.5-2.16-4.53-5.18,5.4-5.18,8.42-4.53,5.61-5.61-.86-6.48,6.91-3.45,7.77-3.45,4.53-4.1,4.32-4.75,13S94,179.73,93.53,189.23,93,196.17,97,185.34Z"/><path class="cls-17" d="M92.12,161.68s4.48-15.78,12.6-19.31,13.65-12.36,11.18-9.89-6,5.3-8.24,5.65,5.06-3.18,6.24-5.18-2.12,0-5.53,1.3,7.41-11,8.94-14.13-2.7-1.18-5.53,4.12-3.88,3.3-3.06.82-1.18-2.47-2.82,2.95-2.83,4.59-2.48,3.06-3.06-.47-3.53,3.77S98,139.07,98,137.31s-2.24,2.35-2.59,7.06-5,14.25-5.18,19.42S90,167.58,92.12,161.68Z"/><path class="cls-17" d="M85.19,150.13s-4.47-15.78-12.59-19.31-13.66-12.36-11.19-9.89,6,5.3,8.24,5.65-5.06-3.18-6.23-5.18,2.11,0,5.53,1.3-7.42-11-9-14.13,2.71-1.18,5.53,4.12,3.89,3.29,3.06.82,1.18-2.47,2.83,2.95,2.83,4.59,2.47,3.06,3.06-.47,3.53,3.76,1.89,4.24,1.89,2.48,2.23,2.35,2.59,7.06,4.94,14.25,5.18,19.43S87.34,156,85.19,150.13Z"/><path class="cls-17" d="M78.71,180.48s-12.77-14.66-23.27-14.34-20.89-6.35-17-4.95,9.11,2.65,11.69,1.89-7-.85-9.31-2.4,2.27-1.07,6.59-1.41-13.49-8-16.74-10.62,2.31-2.63,8,1.62,5.83,1.57,3.7-.67,0-3.24,4.52,1.73,5.35,3.5,4.19,2,3-2.06,5.7,2.25,4.16,3.59,3.27,1.7,3.59,1.39,6.35,6.26,12.5,12.78,15.37,18.22S84,185.72,78.71,180.48Z"/><path class="cls-17" d="M97.55,186.13s12.77-14.66,23.27-14.34,20.89-6.35,17-4.94-9.12,2.64-11.69,1.89,7-.85,9.31-2.4-2.28-1.07-6.59-1.41,13.49-8,16.73-10.63-2.3-2.63-8,1.63-5.84,1.56-3.7-.67,0-3.25-4.52,1.73-5.35,3.49-4.2,2-3-2.05-5.69,2.25-4.16,3.59-3.27,1.7-3.59,1.4-6.35,6.27S97.33,182,94.46,187.45,92.26,191.38,97.55,186.13Z"/><path class="cls-17" d="M81,185.34S72.78,156.42,57.89,150s-25-22.66-20.5-18.13,11,9.71,15.1,10.36-9.28-5.83-11.44-9.5,3.89,0,10.15,2.38S37.6,115,34.8,109.16s5-2.15,10.14,7.56,7.12,6,5.61,1.5,2.16-4.53,5.18,5.4,5.18,8.42,4.53,5.61,5.61-.86,6.47,6.91,3.46,7.77,3.46,4.53,4.1,4.32,4.75,13,9.06,26.11,9.49,35.61S84.92,196.17,81,185.34Z"/><path class="cls-17" d="M98.48,120.42l2.63,1.4s-9.76,15.65-9.55,26.54S89,203.13,89,204.81s-3.35-5.87-3.35-13.13,1.39-48.34,0-66.79S98.48,120.42,98.48,120.42Z"/><path class="cls-17" d="M96.12,181.89s-1.51,8,0,11.65,1.29,15.76-8,15.33-11-8.61-8.2-13.48.1-18.68-1.24-21.7S87.76,197,87.76,197Z"/><path class="cls-17" d="M92.82,196.44c3.05-1.88,16.17-4.93,14.37-3.55s-1.3,1.9,2.26,1.6,7.55-1.81,5.45,0-1.67,2.68,3.19,1.95,14.28-5.23,12.3-2.61-9.1,3.84-14.19,4.46,0,1.71,2.35,1.71.41,2.12-3.8,1.2-5.66-3.6-5-2.91-2.9.36.73,3.14-.51,2.64-1.89,1-4.58-5.45-3.92-3.7,1.74,2.76-1.74,1.6-5.48-2.54-7.46-1.56S92.82,196.44,92.82,196.44Z"/><path class="cls-17" d="M83.48,190.54c-2-3-12.7-11.17-11.63-9.17s.4,2.27-2.72.53-6.14-4.76-5-2.24.42,3.12-3.72.46-10.86-10.65-10.12-7.45,6.7,7.25,11.08,9.91-.67,1.57-2.84.59-1.25,1.76,3,2.66,6.65-1,5.77-.59,2.5,1.53-2,2.57-.62,2.61,1.29,1.72,6.42-3.07,5.1-1.76-2.72,1.8.93,2.18,6,0,7.44,1.65S83.48,190.54,83.48,190.54Z"/><path class="cls-10" d="M96,199.15s-1.29,6.8-7.88,6.26-7.87-3.31-5.07-3.11,7-.23,8.64-3.15S97.21,196.24,96,199.15Z"/><path class="cls-18" d="M126.87,125.35s-5.72,9.28-6.47,12.3.21-5.72,0-6.15-3.78,6.36-3.78,9.28-2.7-.76-3-2.92-2.81,6.24-3,9.65,7-2,10.68-4.47,9.93-7.33,6.48-5.39-8.1,3.24-6.48,1.62S128.6,131.82,126.87,125.35Z"/><path class="cls-18" d="M72.45,103.91c2.06,2.72,15.2,12.63,15.43,22.55s-1.2,33.78,0,31,1.83-28.16,2.65-33.67-.71-13.91,0-18.77S99,83.52,97,86.43,93.39,92,92.31,90.35s-3.13-5.43-3.45-5.11,2-6.69,1.67-10.9-2.55-3-2.65,0-3.77-.86-3.77-.86,3.56,5.07,3,10-4.64-2.27-5.72-3.35.92,6.91,3.48,11.12S77.2,84.38,78.17,87s13.15,20.18,9.71,18.88S69.54,85.14,72.45,89.13,85,108.55,86.7,110.39,68.46,98.62,72.45,103.91Z"/><path class="cls-18" d="M43.24,118.66s11.12,15.64,12.41,19.85S65.58,153.19,69.57,157s9,13.92,9,14.46-5-23.55-6.83-26.38-2.6,1.54-2.38,2.47-4-6.24-5.4-10.53-3.52.13-3.05,2.61-2-.75-4.39-5.83-4.1-10.89-4.1-8.41S41.53,114,43.24,118.66Z"/><path class="cls-5" d="M106.77,234.5s-3.8,10.89-14.38,11.75a17.9,17.9,0,0,1-17.22-9.33c-.75-1.48-.53-4.95-3.46-4.65-6.46.67-2.84,6.3-.08,11.07S84.12,249.4,94,249.81s21.92-3.5,22.61-10.09S116.49,230.21,106.77,234.5Z"/><path class="cls-19" d="M105.8,230.63s2,5.84-1,9.09S97.86,249,86.21,246s-11.57-9.31-11.57-9.31,5.83,7.94,13.64,7.77S106.27,237.38,105.8,230.63Z"/><path class="cls-11" d="M157,163.46c-8.71,0-20.47,6.83-17.86,21.06a97.72,97.72,0,0,0,7.12,23.39s.87,3.63,12.92,3.63,14.24-6.39,14.24-6.39,3.92-22.52,1.88-31.52S164.81,163.46,157,163.46Z"/><path class="cls-12" d="M163.54,167.42c1.3.13,1.08,7.41-7.85,6.76S143.06,165.35,163.54,167.42Z"/><path class="cls-13" d="M174.25,173s-3.92,6.1-12.86,6-2.68,1.53,1.38,1.67S175.77,178.42,174.25,173Z"/><path class="cls-14" d="M162.77,180.67a20.47,20.47,0,0,1-5.48-.92c-1.86.42,4,1.61,7.05,1.72,3.83.14,10.4-2.14,10.07-6.93C174.08,178.92,166.45,180.8,162.77,180.67Z"/><path class="cls-13" d="M173.74,193.59s-3.92,6.1-12.86,5.95-2.68,1.53,1.38,1.67S175.26,199,173.74,193.59Z"/><path class="cls-14" d="M162.26,201.28a20.47,20.47,0,0,1-5.48-.92c-1.86.42,4,1.61,7.05,1.72,3.83.14,10.41-2.14,10.07-6.93C173.57,199.53,165.94,201.41,162.26,201.28Z"/><path class="cls-13" d="M145.21,202.55s3.92,6.1,12.85,6,2.69,1.52-1.38,1.67S143.68,208,145.21,202.55Z"/><path class="cls-14" d="M156.68,210.24a20.68,20.68,0,0,0,5.49-.91c1.86.41-4,1.61-7,1.72-3.83.13-10.41-2.14-10.07-6.93C145.37,208.49,153,210.37,156.68,210.24Z"/><path class="cls-13" d="M139.42,183s3.92,6.1,12.85,6,2.69,1.53-1.38,1.67S137.89,188.39,139.42,183Z"/><path class="cls-14" d="M150.89,190.64a20.55,20.55,0,0,0,5.49-.92c1.86.42-4,1.61-7,1.72-3.83.14-10.41-2.14-10.07-6.93C139.59,188.89,147.22,190.77,150.89,190.64Z"/><path class="cls-15" d="M170.93,173.65s-9.43,7-17.54,4.85-9.32-3.93-10.41-3.22-2.28,9,3.71,11.48,7.3,2.57,5.23,3.45-5.23,1.63-3.65,4.24,5.93,5.12,4.95,6.05-2.07,6.26-1,7.46,7.13,4.13,12.88,2.22,6.3-3.67,6.84-9,.44-6.93-1.09-6.38.44-3.22.76-5.56,1.09-10,.17-9.53-5.29-.22-3.87-1S173,175.23,170.93,173.65Z"/><path class="cls-15" d="M167.6,198.92c.49-.71.11-.93-.71-1.52s-1.31-4.25-.91-6.32,0-9.48-.36-9.65-1.94-1.79-.91-2.12c.68-.21,1.72-2.08,2.34-3.33-2.93,1.51-7.15,3.15-11.3,2.89-2.26,2.52,0,6.41,1.08,8.39s0,2-.94,2.29.87,3.71,2.18,5.34.11,4.3-1.34,4.84,1.12,1,2.15,1.2-2.17,6.43-3.1,7.74a2.05,2.05,0,0,0-.44,1.05,14.8,14.8,0,0,0,9.77.46,21.16,21.16,0,0,0,2.56-1c.9-2.33.36-5.44.15-7.09C167.43,199.16,167.11,199.63,167.6,198.92Z"/><path class="cls-16" d="M168.18,170.22s-4.5,7.77-15.83,5.76-3.11,2.28,3.4,2.89S176.86,172.12,168.18,170.22Z"/><path class="cls-17" d="M159.54,100.91S186.21,75,191.08,66.66s-9.79-1-12.63,1.71.79-7.29,4.4-14.24-5,1.85-13.09,14.36-10.29,4.36-1.89-7.13,19.3-28,16.22-24.18S171.61,49.75,175,44s17.24-19.28,12.28-17.42-21.1,17-23.72,21.54,3.15-7.65,4.21-13.93-3.78,4.27-5.61,9.67,3.62-15.14,1.49-21.11-3-3-3.65-.4-2.08-9-3.67-14.44-5.44-10.67-5.05-6.14,5.5,18.71,4.73,23-6.31-3.23-9.05-7.41-.1,6.84,4,13.11,5.46,11.35,2.34,7.82-13.48-13.87-12-9.1,10.63,21.76,6.93,17-8.17-5.21-5.72.95S158.5,72.29,153.83,67s-26.56-34-25.4-27.26S140.33,61.3,145.65,67s-10-3.63-14.47-6.26,7.69,14.38,13.43,18.15S152.1,94.43,156.32,99,159.54,100.91,159.54,100.91Z"/><path class="cls-17" d="M165.64,150.51s8.2-28.91,23.1-35.39,25-22.66,20.5-18.13-11,9.72-15.11,10.36,9.28-5.82,11.44-9.49-3.89,0-10.14,2.37,13.59-20.07,16.4-25.9-5-2.15-10.15,7.56-7.12,6-5.61,1.51-2.15-4.53-5.18,5.39-5.18,8.42-4.53,5.61-5.61-.86-6.47,6.91-3.46,7.77-3.46,4.53-4.1,4.32-4.74,13-9.07,26.11-9.5,35.61S161.7,161.34,165.64,150.51Z"/><path class="cls-17" d="M160.78,126.85s4.48-15.78,12.6-19.31S187,95.18,184.56,97.65s-6,5.3-8.24,5.65,5.07-3.18,6.24-5.18-2.12,0-5.53,1.3,7.42-11,8.95-14.13-2.71-1.18-5.54,4.12-3.88,3.3-3.06.83-1.17-2.48-2.82,2.94-2.83,4.59-2.47,3.06-3.07-.47-3.54,3.77-1.88,4.23-1.88,2.47-2.24,2.35-2.59,7.06-4.94,14.25-5.18,19.43S158.64,132.75,160.78,126.85Z"/><path class="cls-17" d="M153.86,115.3S149.38,99.52,141.26,96,127.6,83.63,130.08,86.1s6,5.3,8.24,5.65-5.07-3.18-6.24-5.18,2.12,0,5.53,1.3-7.42-11-9-14.13,2.71-1.18,5.54,4.12,3.88,3.3,3.06.82,1.17-2.47,2.82,2.95,2.83,4.59,2.47,3.06,3.06-.47,3.54,3.77S148,92.69,148,90.93s2.24,2.35,2.59,7.06,4.94,14.25,5.18,19.43S156,121.2,153.86,115.3Z"/><path class="cls-17" d="M147.37,145.65S134.6,131,124.1,131.31s-20.89-6.35-17-5,9.12,2.65,11.69,1.9-7-.85-9.31-2.41,2.27-1.07,6.59-1.41-13.49-8-16.74-10.62,2.31-2.63,8,1.62,5.83,1.57,3.7-.66,0-3.25,4.52,1.72,5.35,3.5,4.2,2,3-2.05,5.69,2.25,4.16,3.59,3.27,1.7,3.59,1.39,6.35,6.27,12.5,12.77,15.37,18.21S152.66,150.89,147.37,145.65Z"/><path class="cls-17" d="M166.21,151.3S179,136.65,189.48,137s20.89-6.36,17-5-9.12,2.65-11.69,1.9,7-.85,9.31-2.4-2.27-1.07-6.59-1.41,13.49-8,16.74-10.63-2.31-2.63-8,1.63-5.83,1.57-3.7-.67,0-3.25-4.52,1.73-5.35,3.49-4.2,2-3-2-5.69,2.26-4.16,3.59-3.27,1.69-3.59,1.4-6.35,6.27-12.5,12.77-15.37,18.21S160.92,156.55,166.21,151.3Z"/><path class="cls-17" d="M149.64,150.51s-8.2-28.91-23.09-35.39-25-22.66-20.5-18.13,11,9.72,15.1,10.36-9.28-5.82-11.43-9.49,3.88,0,10.14,2.37-13.6-20.07-16.4-25.9,5-2.15,10.14,7.56,7.12,6,5.61,1.51,2.16-4.53,5.18,5.39,5.18,8.42,4.53,5.61,5.61-.86,6.48,6.91,3.45,7.77,3.45,4.53,4.1,4.32,4.75,13,9.06,26.11,9.49,35.61S153.58,161.34,149.64,150.51Z"/><path class="cls-17" d="M167.14,85.6,169.77,87s-9.76,15.65-9.55,26.55-2.58,54.76-2.58,56.44-3.35-5.87-3.35-13.13,1.39-48.34,0-66.79S167.14,85.6,167.14,85.6Z"/><path class="cls-17" d="M164.78,147.06s-1.51,8,0,11.66,1.3,15.75-8,15.32-11.06-8.6-8.21-13.48.1-18.68-1.24-21.7,9.07,23.31,9.07,23.31Z"/><path class="cls-17" d="M161.48,161.62c3.05-1.89,16.17-4.94,14.37-3.56s-1.3,1.9,2.26,1.6,7.55-1.81,5.45,0-1.67,2.68,3.19,2,14.29-5.23,12.3-2.62-9.1,3.84-14.18,4.46,0,1.72,2.34,1.72.42,2.11-3.8,1.2-5.66-3.61-5-2.92-2.9.36.73,3.14-.51,2.64-1.89,1-4.57-5.44-3.92-3.7,1.74,2.76-1.74,1.6S166.1,163,164.12,164,161.48,161.62,161.48,161.62Z"/><path class="cls-17" d="M152.14,155.71c-2-3-12.7-11.17-11.63-9.17s.4,2.27-2.72.53-6.13-4.76-5-2.24.42,3.13-3.72.46-10.85-10.65-10.12-7.45,6.71,7.25,11.08,9.91-.67,1.58-2.84.6-1.25,1.75,3,2.66,6.65-1,5.77-.59,2.5,1.52-2,2.56-.62,2.61,1.3,1.72,6.41-3.07,5.09-1.76-2.72,1.8.94,2.18,6-.05,7.43,1.65S152.14,155.71,152.14,155.71Z"/><path class="cls-10" d="M164.67,164.33s-1.29,6.79-7.87,6.26-7.88-3.32-5.08-3.12,7-.23,8.64-3.14S165.87,161.41,164.67,164.33Z"/><path class="cls-18" d="M195.53,90.52s-5.72,9.28-6.47,12.3.21-5.72,0-6.15-3.78,6.37-3.78,9.28-2.69-.76-3-2.91-2.8,6.23-3,9.64,7-2,10.68-4.46,9.93-7.34,6.48-5.4-8.1,3.24-6.48,1.62S197.26,97,195.53,90.52Z"/><path class="cls-18" d="M141.12,69.08c2,2.73,15.19,12.63,15.42,22.55s-1.2,33.78,0,31,1.84-28.16,2.65-33.66-.71-13.92,0-18.78,8.47-21.47,6.48-18.56-3.62,5.58-4.7,3.93-3.13-5.44-3.45-5.11,2-6.7,1.67-10.91-2.55-3-2.65,0-3.77-.86-3.77-.86,3.56,5.07,3,10-4.64-2.27-5.72-3.35.92,6.91,3.48,11.12-7.69-6.91-6.71-4.32S160,72.32,156.54,71,138.2,50.31,141.12,54.3s12.51,19.42,14.24,21.26S137.12,63.79,141.12,69.08Z"/><path class="cls-18" d="M111.91,83.83S123,99.47,124.32,103.68s9.92,14.68,13.92,18.46,9,13.91,9,14.46-5-23.55-6.83-26.39-2.6,1.54-2.38,2.47-4-6.24-5.39-10.53-3.53.13-3.06,2.61-2-.75-4.39-5.82-4.1-10.9-4.1-8.42S110.2,79.2,111.91,83.83Z"/><path class="cls-5" d="M175.43,199.67s-3.8,10.89-14.37,11.75a17.91,17.91,0,0,1-17.23-9.33c-.75-1.48-.53-5-3.46-4.64-6.46.66-2.84,6.29-.08,11.06s12.49,6.06,22.34,6.47,21.92-3.5,22.6-10.09S185.15,195.38,175.43,199.67Z"/><path class="cls-19" d="M174.46,195.81s2,5.83-1,9.08-6.91,9.3-18.56,6.31-11.57-9.31-11.57-9.31,5.83,7.94,13.64,7.77S174.93,202.55,174.46,195.81Z"/><path class="cls-11" d="M140.69,239.44c-8.71,0-20.47,6.83-17.86,21.07A97.73,97.73,0,0,0,130,283.89s.87,3.63,12.92,3.63,14.24-6.39,14.24-6.39S161,258.62,159,249.61,148.54,239.44,140.69,239.44Z"/><path class="cls-12" d="M147.27,243.4c1.3.13,1.09,7.41-7.85,6.76S126.79,241.33,147.27,243.4Z"/><path class="cls-13" d="M158,249s-3.92,6.1-12.86,5.95-2.68,1.53,1.38,1.67S159.5,254.41,158,249Z"/><path class="cls-14" d="M146.5,256.65a20.93,20.93,0,0,1-5.48-.91c-1.86.41,4,1.6,7,1.71,3.82.14,10.4-2.14,10.07-6.93C157.81,254.9,150.18,256.78,146.5,256.65Z"/><path class="cls-13" d="M157.47,269.57s-3.92,6.1-12.85,5.95-2.69,1.53,1.38,1.67S159,275,157.47,269.57Z"/><path class="cls-14" d="M146,277.26a20.53,20.53,0,0,1-5.49-.91c-1.86.41,4,1.61,7.05,1.72,3.83.13,10.41-2.15,10.07-6.94C157.3,275.51,149.67,277.39,146,277.26Z"/><path class="cls-13" d="M128.94,278.53s3.92,6.1,12.85,6,2.69,1.52-1.38,1.67S127.41,284,128.94,278.53Z"/><path class="cls-14" d="M140.41,286.22a20.68,20.68,0,0,0,5.49-.91c1.86.41-4,1.61-7.05,1.72-3.83.14-10.41-2.14-10.07-6.93C129.1,284.47,136.74,286.35,140.41,286.22Z"/><path class="cls-13" d="M123.15,258.93s3.92,6.1,12.85,5.95,2.69,1.53-1.38,1.67S121.62,264.38,123.15,258.93Z"/><path class="cls-14" d="M134.62,266.62a21,21,0,0,0,5.49-.91c1.86.41-4,1.6-7.05,1.71-3.83.14-10.41-2.14-10.07-6.93C123.32,264.87,131,266.75,134.62,266.62Z"/><path class="cls-15" d="M154.66,249.63s-9.43,7-17.54,4.85-9.32-3.92-10.4-3.22-2.29,9,3.7,11.48,7.3,2.57,5.23,3.45-5.23,1.63-3.65,4.24,5.93,5.12,4.95,6.05-2.07,6.27-1,7.46,7.13,4.13,12.88,2.22,6.3-3.66,6.84-9,.44-6.93-1.09-6.38.44-3.22.76-5.56,1.09-10,.17-9.53-5.29-.22-3.87-1S156.72,251.21,154.66,249.63Z"/><path class="cls-15" d="M151.33,274.9c.49-.71.11-.93-.71-1.52s-1.31-4.25-.91-6.32,0-9.48-.36-9.64-1.94-1.8-.91-2.13c.68-.21,1.72-2.08,2.34-3.33-2.93,1.51-7.15,3.15-11.3,2.89-2.26,2.53,0,6.41,1.08,8.4s0,2-.94,2.28.87,3.71,2.18,5.34.11,4.3-1.34,4.84,1.12,1,2.15,1.21-2.17,6.42-3.1,7.73a2.05,2.05,0,0,0-.44,1.05,14.8,14.8,0,0,0,9.77.46,21.16,21.16,0,0,0,2.56-1c.91-2.32.36-5.44.15-7.09C151.16,275.14,150.84,275.61,151.33,274.9Z"/><path class="cls-16" d="M151.91,246.2s-4.5,7.77-15.83,5.76-3.11,2.28,3.4,2.89S160.59,248.1,151.91,246.2Z"/><path class="cls-17" d="M143.27,176.89s26.67-25.87,31.54-34.25-9.79-.95-12.63,1.71.79-7.29,4.4-14.24-5,1.86-13.09,14.37-10.29,4.36-1.89-7.13,19.29-28,16.22-24.19-12.48,12.57-9.11,6.77S176,100.65,171,102.51s-21.1,17-23.73,21.54,3.16-7.65,4.22-13.92-3.77,4.27-5.62,9.66,3.63-15.14,1.5-21.11-3-3-3.65-.4-2.08-9-3.67-14.44-5.43-10.67-5-6.14,5.5,18.71,4.73,23-6.31-3.24-9.05-7.42-.1,6.84,4,13.11,5.46,11.36,2.34,7.82-13.48-13.87-12-9.09,10.63,21.75,6.93,17-8.17-5.22-5.72.94,15.94,25.21,11.27,19.91-26.56-34-25.4-27.26,11.9,21.57,17.22,27.25-10-3.63-14.46-6.25,7.68,14.37,13.42,18.14,7.49,15.56,11.71,20.17S143.27,176.89,143.27,176.89Z"/><path class="cls-17" d="M149.37,226.5s8.2-28.92,23.1-35.4,25-22.66,20.5-18.13-11,9.72-15.11,10.37,9.28-5.83,11.44-9.5-3.89,0-10.14,2.37,13.59-20.07,16.4-25.9-5-2.15-10.15,7.56-7.12,6-5.61,1.51-2.16-4.53-5.18,5.39-5.18,8.42-4.53,5.62-5.61-.87-6.47,6.9-3.46,7.77-3.46,4.53-4.1,4.32-4.74,13-9.07,26.12-9.5,35.61S145.43,237.32,149.37,226.5Z"/><path class="cls-17" d="M144.51,202.83s4.48-15.78,12.6-19.31,13.66-12.36,11.19-9.89-6,5.3-8.25,5.65,5.07-3.18,6.24-5.18-2.12,0-5.53,1.3,7.42-11,9-14.13-2.71-1.17-5.54,4.12-3.88,3.3-3.06.83-1.17-2.48-2.82,2.94-2.83,4.59-2.47,3.06-3.06-.47-3.54,3.77-1.88,4.24-1.88,2.47-2.24,2.35-2.59,7.06-4.94,14.25-5.18,19.43S142.37,208.73,144.51,202.83Z"/><path class="cls-17" d="M137.59,191.28S133.11,175.5,125,172s-13.66-12.36-11.19-9.89,6,5.3,8.25,5.66-5.07-3.18-6.24-5.19,2.12,0,5.53,1.3-7.42-10.95-9-14.13,2.71-1.18,5.54,4.12,3.88,3.3,3.06.83,1.18-2.48,2.82,2.94,2.83,4.59,2.47,3.06,3.07-.47,3.54,3.77,1.88,4.24,1.88,2.47,2.24,2.35,2.59,7.06,4.94,14.25,5.18,19.43S139.73,197.18,137.59,191.28Z"/><path class="cls-17" d="M131.1,221.63S118.33,207,107.83,207.29s-20.89-6.35-17-4.95,9.12,2.65,11.69,1.9-7-.85-9.31-2.4,2.28-1.08,6.59-1.41-13.49-8-16.74-10.63,2.31-2.63,8,1.62,5.83,1.57,3.7-.66,0-3.25,4.52,1.72,5.35,3.5,4.2,2,3-2.05,5.69,2.25,4.16,3.59,3.27,1.7,3.59,1.39,6.35,6.27,12.5,12.77,15.37,18.21S136.39,226.88,131.1,221.63Z"/><path class="cls-17" d="M149.94,227.28s12.77-14.65,23.27-14.33,20.89-6.35,17-4.95-9.11,2.64-11.69,1.89,7-.85,9.31-2.4-2.27-1.07-6.59-1.41,13.49-8,16.74-10.63-2.31-2.63-8,1.63-5.83,1.57-3.7-.67,0-3.24-4.52,1.73-5.35,3.49-4.2,2-3-2-5.69,2.26-4.16,3.59-3.27,1.7-3.59,1.39-6.35,6.26-12.5,12.78-15.37,18.21S144.65,232.53,149.94,227.28Z"/><path class="cls-17" d="M133.37,226.5s-8.2-28.92-23.09-35.4-25-22.66-20.5-18.13,11,9.72,15.1,10.37-9.28-5.83-11.43-9.5,3.88,0,10.14,2.37-13.6-20.07-16.4-25.9,5-2.15,10.14,7.56,7.12,6,5.61,1.51,2.16-4.53,5.18,5.39,5.18,8.42,4.53,5.62,5.61-.87,6.48,6.9,3.45,7.77,3.45,4.53,4.1,4.32,4.75,13,9.06,26.12,9.49,35.61S137.31,237.32,133.37,226.5Z"/><path class="cls-17" d="M150.87,161.58,153.5,163s-9.76,15.65-9.55,26.55-2.58,54.76-2.58,56.44S138,240.09,138,232.83s1.4-48.34,0-66.79S150.87,161.58,150.87,161.58Z"/><path class="cls-17" d="M148.51,223s-1.51,8,0,11.66,1.3,15.75-8,15.32-11.06-8.6-8.21-13.48.1-18.68-1.24-21.7,9.07,23.31,9.07,23.31Z"/><path class="cls-17" d="M145.21,237.6c3-1.89,16.17-4.94,14.37-3.56s-1.3,1.9,2.26,1.6,7.55-1.8,5.45,0-1.67,2.68,3.19,2,14.28-5.23,12.3-2.62-9.1,3.84-14.18,4.46,0,1.72,2.34,1.72.41,2.11-3.8,1.2-5.66-3.61-5-2.92-2.9.36.73,3.15-.51,2.63-1.89,1-4.57-5.44-3.92-3.7,1.74,2.76-1.74,1.6-5.48-2.53-7.46-1.56S145.21,237.6,145.21,237.6Z"/><path class="cls-17" d="M135.87,231.69c-2-3-12.7-11.17-11.62-9.17s.39,2.27-2.73.53-6.13-4.76-5-2.24.42,3.13-3.72.46-10.85-10.65-10.12-7.45,6.71,7.25,11.08,9.91-.67,1.58-2.84.6-1.25,1.75,3,2.66,6.65-1,5.77-.59,2.5,1.52-2,2.56-.62,2.61,1.3,1.72,6.41-3.07,5.1-1.75-2.73,1.79.92,2.17,6,0,7.44,1.66S135.87,231.69,135.87,231.69Z"/><path class="cls-10" d="M148.4,240.31s-1.29,6.8-7.87,6.26-7.88-3.32-5.07-3.12,7-.23,8.63-3.14S149.6,237.39,148.4,240.31Z"/><path class="cls-18" d="M179.27,166.5s-5.72,9.28-6.48,12.3.22-5.72,0-6.15S169,179,169,181.93s-2.69-.75-3-2.91-2.8,6.23-3,9.64,7-2,10.68-4.46,9.93-7.34,6.48-5.4-8.1,3.24-6.48,1.62S181,173,179.27,166.5Z"/><path class="cls-18" d="M124.85,145.06c2.05,2.73,15.2,12.63,15.42,22.56s-1.2,33.77,0,31,1.84-28.16,2.65-33.66-.7-13.92,0-18.78,8.47-21.47,6.47-18.56-3.61,5.58-4.69,3.93-3.13-5.44-3.45-5.11,2-6.7,1.67-10.9-2.55-3-2.65,0-3.77-.87-3.77-.87,3.56,5.07,3,10-4.64-2.27-5.72-3.34.92,6.9,3.48,11.11-7.69-6.91-6.71-4.32,13.14,20.18,9.7,18.89-18.34-20.72-15.42-16.73,12.51,19.42,14.24,21.26S120.85,139.78,124.85,145.06Z"/><path class="cls-18" d="M95.64,159.81s11.11,15.65,12.41,19.86S118,194.34,122,198.12s9,13.92,9,14.46-5-23.55-6.83-26.39-2.59,1.54-2.38,2.47-4-6.24-5.39-10.53-3.53.13-3.06,2.62-2-.76-4.39-5.83-4.1-10.9-4.1-8.42S93.93,155.19,95.64,159.81Z"/><path class="cls-5" d="M159.16,275.65s-3.8,10.89-14.37,11.75a17.89,17.89,0,0,1-17.23-9.33c-.75-1.48-.53-4.94-3.46-4.64-6.46.67-2.83,6.29-.08,11.06s12.49,6.06,22.34,6.48,21.92-3.51,22.61-10.1S168.89,271.36,159.16,275.65Z"/><path class="cls-19" d="M158.19,271.79s2,5.83-1,9.08-6.91,9.3-18.56,6.32S127,277.87,127,277.87s5.83,7.94,13.64,7.77S158.66,278.53,158.19,271.79Z"/><path class="cls-11" d="M209.36,204.62c-8.72,0-20.48,6.82-17.87,21.06a98.28,98.28,0,0,0,7.12,23.38s.87,3.63,12.93,3.63,14.23-6.39,14.23-6.39,3.92-22.51,1.89-31.52S217.2,204.62,209.36,204.62Z"/><path class="cls-12" d="M215.93,208.57c1.3.14,1.09,7.41-7.84,6.76S195.45,206.5,215.93,208.57Z"/><path class="cls-13" d="M226.64,214.13s-3.92,6.1-12.85,6-2.69,1.52,1.37,1.67S228.16,219.58,226.64,214.13Z"/><path class="cls-14" d="M215.16,221.82a20.52,20.52,0,0,1-5.48-.91c-1.86.41,4,1.6,7,1.72,3.83.13,10.41-2.15,10.07-6.94C226.47,220.07,218.84,222,215.16,221.82Z"/><path class="cls-13" d="M226.13,234.74s-3.92,6.1-12.85,6-2.69,1.52,1.38,1.67S227.65,240.19,226.13,234.74Z"/><path class="cls-14" d="M214.66,242.43a20.61,20.61,0,0,1-5.49-.91c-1.86.41,4,1.61,7.05,1.72,3.83.13,10.41-2.15,10.07-6.93C226,240.68,218.33,242.56,214.66,242.43Z"/><path class="cls-13" d="M197.6,243.7s3.92,6.11,12.85,6,2.69,1.52-1.38,1.67S196.07,249.15,197.6,243.7Z"/><path class="cls-14" d="M209.07,251.4a21,21,0,0,0,5.49-.92c1.86.41-4,1.61-7.05,1.72-3.83.14-10.41-2.14-10.07-6.93C197.77,249.64,205.4,251.53,209.07,251.4Z"/><path class="cls-13" d="M191.81,224.1s3.92,6.1,12.85,6,2.69,1.52-1.38,1.66S190.28,229.55,191.81,224.1Z"/><path class="cls-14" d="M203.28,231.79a20.53,20.53,0,0,0,5.49-.91c1.86.41-4,1.61-7.05,1.72-3.83.13-10.41-2.15-10.07-6.93C192,230,199.61,231.92,203.28,231.79Z"/><path class="cls-15" d="M223.32,214.8s-9.43,7-17.54,4.85-9.31-3.92-10.4-3.22-2.29,9,3.7,11.48,7.3,2.58,5.23,3.45-5.23,1.63-3.65,4.25,5.94,5.12,5,6-2.07,6.27-1,7.46,7.12,4.14,12.87,2.23,6.3-3.67,6.84-9,.44-6.93-1.09-6.38.44-3.22.77-5.56,1.08-10,.16-9.53-5.28-.22-3.87-1S225.39,216.38,223.32,214.8Z"/><path class="cls-15" d="M220,240.07c.49-.7.11-.92-.71-1.51s-1.31-4.26-.91-6.33,0-9.48-.36-9.64-1.94-1.8-.91-2.12c.69-.22,1.72-2.09,2.35-3.34-2.94,1.51-7.16,3.15-11.31,2.89-2.26,2.53,0,6.41,1.08,8.4s0,2-.94,2.28.87,3.71,2.18,5.34.11,4.31-1.34,4.84,1.12,1,2.16,1.21-2.18,6.43-3.11,7.73a2.09,2.09,0,0,0-.44,1.05,14.88,14.88,0,0,0,9.78.47,23.37,23.37,0,0,0,2.55-1c.91-2.32.36-5.43.15-7.09C219.83,240.31,219.5,240.78,220,240.07Z"/><path class="cls-16" d="M220.57,211.37s-4.5,7.77-15.82,5.76-3.12,2.28,3.39,2.89S229.25,213.28,220.57,211.37Z"/><path class="cls-17" d="M211.93,142.06s26.67-25.87,31.54-34.24-9.79-.95-12.63,1.7.8-7.29,4.4-14.24-5,1.86-13.09,14.37-10.29,4.36-1.89-7.14,19.3-28,16.22-24.18S224,90.9,227.37,85.1s17.24-19.28,12.28-17.42-21.1,17-23.72,21.54,3.15-7.65,4.21-13.92-3.77,4.27-5.61,9.66,3.62-15.13,1.49-21.11-3-3-3.65-.4-2.08-9-3.67-14.44-5.43-10.67-5-6.14,5.5,18.71,4.73,23-6.31-3.24-9-7.42-.1,6.84,4,13.11,5.46,11.36,2.34,7.82-13.48-13.87-11.95-9.09,10.63,21.75,6.93,17-8.17-5.22-5.72.95,15.94,25.2,11.27,19.9-26.55-34-25.4-27.26,11.9,21.57,17.22,27.25-9.95-3.63-14.47-6.25S191.26,116.26,197,120s7.49,15.56,11.71,20.17S211.93,142.06,211.93,142.06Z"/><path class="cls-17" d="M218,191.67s8.2-28.92,23.09-35.4,25-22.66,20.5-18.12-11,9.71-15.11,10.36,9.28-5.83,11.44-9.5-3.88,0-10.14,2.37,13.59-20.07,16.4-25.89-5-2.16-10.14,7.55-7.12,6-5.61,1.51-2.16-4.53-5.19,5.4-5.17,8.41-4.53,5.61-5.61-.87-6.47,6.9-3.45,7.77-3.45,4.53-4.1,4.32-4.75,12.95-9.07,26.12-9.5,35.61S214.1,202.5,218,191.67Z"/><path class="cls-17" d="M213.18,168s4.47-15.78,12.59-19.31,13.66-12.36,11.19-9.89-6,5.3-8.24,5.66,5.06-3.18,6.24-5.19-2.12,0-5.54,1.3,7.42-10.95,9-14.13-2.71-1.17-5.53,4.12-3.89,3.3-3.07.83-1.17-2.47-2.82,2.94-2.82,4.59-2.47,3.06-3.06-.47-3.53,3.77-1.89,4.24-1.89,2.47-2.23,2.36-2.59,7.06-4.94,14.25-5.18,19.43S211,173.91,213.18,168Z"/><path class="cls-17" d="M206.25,156.45s-4.48-15.77-12.6-19.31-13.65-12.36-11.18-9.89,6,5.3,8.24,5.66-5.06-3.18-6.24-5.18,2.12,0,5.53,1.29-7.41-11-8.95-14.13,2.71-1.17,5.54,4.12,3.88,3.3,3.06.83,1.18-2.47,2.82,2.94,2.83,4.59,2.48,3.06,3.06-.47,3.53,3.77,1.88,4.24,1.88,2.47,2.24,2.36,2.59,7.06,5,14.25,5.18,19.43S208.4,162.36,206.25,156.45Z"/><path class="cls-17" d="M199.76,186.8S187,172.14,176.49,172.46s-20.89-6.35-17-5,9.12,2.65,11.7,1.9-7-.85-9.32-2.4,2.28-1.08,6.59-1.41-13.49-8-16.73-10.63,2.3-2.63,8,1.63,5.84,1.57,3.7-.67,0-3.25,4.52,1.73,5.35,3.49,4.2,2,3-2.05,5.69,2.25,4.16,3.6,3.27,1.7,3.59,1.4,6.35,6.27,12.5,12.77,15.37,18.21S205.05,192.05,199.76,186.8Z"/><path class="cls-17" d="M218.6,192.45s12.78-14.65,23.27-14.33,20.89-6.35,17-5-9.11,2.64-11.69,1.89,7-.85,9.31-2.4-2.27-1.07-6.59-1.41,13.49-8,16.74-10.62-2.31-2.63-8,1.62-5.83,1.57-3.7-.67,0-3.24-4.52,1.73-5.35,3.5-4.19,2-3-2.05-5.7,2.26-4.16,3.59-3.26,1.7-3.6,1.39-6.35,6.26-12.51,12.78-15.38,18.21S213.31,197.7,218.6,192.45Z"/><path class="cls-17" d="M202,191.67s-8.2-28.92-23.09-35.4-25-22.66-20.5-18.12,11,9.71,15.11,10.36-9.29-5.83-11.44-9.5,3.88,0,10.14,2.37-13.6-20.07-16.4-25.89,5-2.16,10.14,7.55,7.12,6,5.61,1.51,2.16-4.53,5.18,5.4,5.18,8.41,4.54,5.61,5.61-.87,6.47,6.9,3.45,7.77,3.45,4.53,4.1,4.32,4.75,12.95,9.06,26.12,9.49,35.61S206,202.5,202,191.67Z"/><path class="cls-17" d="M219.53,126.75l2.63,1.39s-9.76,15.65-9.55,26.55S210,209.46,210,211.13s-3.35-5.87-3.35-13.13,1.4-48.34,0-66.78S219.53,126.75,219.53,126.75Z"/><path class="cls-17" d="M217.17,188.21s-1.51,8,0,11.66,1.3,15.75-8,15.32-11.05-8.6-8.2-13.48.1-18.68-1.25-21.7,9.07,23.31,9.07,23.31Z"/><path class="cls-17" d="M213.87,202.77c3-1.89,16.18-4.94,14.37-3.56s-1.29,1.9,2.27,1.61,7.55-1.81,5.44,0-1.67,2.68,3.19,2,14.29-5.23,12.3-2.62-9.1,3.84-14.18,4.47,0,1.71,2.34,1.71.42,2.11-3.79,1.2-5.67-3.61-5-2.91-2.91.36.72,3.14-.51,2.63-1.89,1-4.57-5.45-3.92-3.71,1.74,2.76-1.74,1.6-5.48-2.53-7.46-1.56S213.87,202.77,213.87,202.77Z"/><path class="cls-17" d="M204.53,196.86c-2-3-12.7-11.16-11.62-9.16s.39,2.26-2.73.53-6.13-4.77-5-2.25.42,3.13-3.71.46-10.86-10.65-10.13-7.45,6.71,7.25,11.08,9.91-.67,1.58-2.83.6-1.26,1.75,3,2.66,6.64-.95,5.76-.59,2.5,1.53-1.95,2.56-.63,2.61,1.29,1.73,6.41-3.08,5.1-1.76-2.73,1.79.93,2.17,6-.05,7.43,1.66S204.53,196.86,204.53,196.86Z"/><path class="cls-10" d="M217.06,205.48s-1.29,6.8-7.87,6.26-7.88-3.32-5.07-3.12,7-.23,8.64-3.14S218.27,202.56,217.06,205.48Z"/><path class="cls-18" d="M247.93,131.67S242.21,141,241.45,144s.22-5.72,0-6.16-3.77,6.37-3.77,9.28-2.7-.75-3-2.91-2.8,6.23-3,9.64,7-2,10.68-4.46,9.93-7.34,6.48-5.39-8.09,3.23-6.48,1.61S249.65,138.15,247.93,131.67Z"/><path class="cls-18" d="M193.51,110.24c2.05,2.72,15.2,12.62,15.42,22.55s-1.19,33.77,0,31,1.84-28.17,2.65-33.67-.7-13.92,0-18.78,8.47-21.47,6.48-18.56-3.62,5.59-4.7,3.93-3.13-5.44-3.45-5.11,2-6.69,1.67-10.9-2.55-3-2.65,0-3.77-.86-3.77-.86,3.56,5.07,3,10-4.64-2.26-5.71-3.34.91,6.9,3.48,11.11-7.69-6.91-6.72-4.32,13.15,20.18,9.7,18.89-18.34-20.72-15.42-16.73,12.51,19.42,14.24,21.26S189.52,105,193.51,110.24Z"/><path class="cls-18" d="M164.3,125s11.11,15.65,12.41,19.86,9.93,14.67,13.92,18.45,9,13.92,9,14.46-5-23.55-6.82-26.38-2.6,1.53-2.39,2.46-4-6.23-5.39-10.53-3.53.13-3.06,2.62-2-.76-4.39-5.83-4.1-10.9-4.1-8.42S162.59,120.36,164.3,125Z"/><path class="cls-5" d="M227.82,240.83s-3.8,10.88-14.37,11.74a17.89,17.89,0,0,1-17.23-9.33c-.74-1.48-.53-4.94-3.46-4.64-6.46.67-2.83,6.29-.08,11.07s12.49,6.05,22.34,6.47,21.92-3.51,22.61-10.1S237.55,236.53,227.82,240.83Z"/><path class="cls-19" d="M226.86,237s2,5.83-1,9.08-6.91,9.31-18.56,6.32S195.69,243,195.69,243s5.83,7.94,13.64,7.77S227.32,243.7,226.86,237Z"/></g></g></svg>