<svg xmlns="http://www.w3.org/2000/svg" viewBox="0 0 288.69 150.3"><defs><style>.cls-1{fill:#8fa50f;}.cls-2{fill:#6f7a03;}.cls-3{fill:#2b2722;}.cls-4{fill:#432618;}.cls-5,.cls-7{fill:#cb8346;}.cls-5,.cls-6{opacity:0.17;}.cls-7,.cls-9{opacity:0.29;}.cls-8{fill:#7c4939;}.cls-9{fill:#df965b;}.cls-10{fill:#a3db67;}.cls-11{fill:#5b8a21;}.cls-12{fill:#9ebd34;}</style></defs><g id="Layer_2" data-name="Layer 2"><g id="Layer_2-2" data-name="Layer 2"><path class="cls-1" d="M187.7,30.21a16.48,16.48,0,0,0-4,4.13c.53-4.79,1.77-11.5,4.74-14.37,4.86-4.69-3.78-3.13-8-.32s-6.56,8.61-6.56,8.61l-4.34-13-2.1,11.65a46.56,46.56,0,0,1-2.64-7.6c-.51-2.77-4.37,5.67-5,7.55s-2.85-8.31-2.59-11.6-2.78,2.39-3.57,4.92-4.32-5.68-5.14-6.71-.14,8.21-1.63,9.06c-.84.47,2.86,2.67,8.34,5.16-.12,2.33-.31,5-1.08,5.4-1.48.84,11.42,7.18,23.13,10.85s13.35,6.32,13.35,6.32.25-15,5.11-19.69S191.88,27.4,187.7,30.21Zm-26.84.51c-.36,1.16-1.3.06-2.29-1.57l2.48,1C161,30.36,160.91,30.55,160.86,30.72ZM167,37.39c-.41,1.15-1.38-2.19-2-5.73,1.32.48,2.66.95,4,1.37C168.09,34.78,167.29,36.63,167,37.39Zm7.68,0s-.56-1.28-1.18-2.9c.57.2,1.1.4,1.6.59Zm6.44,1.39-.36-1.08c.25.14.47.27.67.4C181.24,38.57,181.13,38.83,181.13,38.83Z"/><path class="cls-2" d="M279.15,97c-6.85-4.46-15.43-5.49-19.54-12S249,70.58,233.21,64.07,213,58.58,206.12,55.15s-28.8-19.54-43.21-23.66c-9.61-2.74-13-11.31-22.63-4.45s-20.23,12.34-30.51,11-17.83,2.06-22,7.2S81.65,51,75.13,50.35s-7.88,1.72-14.39,5.49-10,.69-17.15,3.43-12,5.48-13.37,11.31-1,2.75-10.29,6.18S6.21,81.21,5.19,86,1.36,97.45.33,98.48s.36,5.33,3.79,7.73,20.5,1.75,21.07,4.49,10.51,3,13.6,5.6,3.77,6.06,8.92,7.77,12.34.69,17.83,7.89,29.83,20.92,38.74,29.49,28.8,22.11,37.38,18.52,26.59-12.35,37-12,16.88-2.74,21.68-8.91,17.83-20.92,27.77-20.57,24-2.75,28.12-8.92,8.23-5.14,15.09-9.26,15.77-11,17.14-13.37S286,101.44,279.15,97Z"/><path class="cls-3" d="M281.52,96.67c-6.58-4.28-21.55-4.73-25.5-11s-10.2-13.82-25.34-20.07-19.42-5.27-26-8.56S177,38.31,163.22,34.36c-9.23-2.64-12.5-10.86-21.72-4.28s-19.41,11.85-29.29,10.53-17.11,2-21,6.91S85.23,53.11,79,52.46s-7.57,1.64-13.82,5.26-9.55.66-16.45,3.29S37.19,66.28,35.87,71.87s-1,2.63-9.87,5.92-13.16,4.28-14.15,8.89-7.48-1.86-8.47-.87S3,100.17,6.25,102.47s24.25,5.27,24.79,7.9,10.1,2.85,13.06,5.37,3.62,5.82,8.55,7.46,11.85.66,17.12,7.57,28.62,20.08,37.18,28.3,27.64,21.23,35.87,17.77,25.51-11.84,35.46-11.52,16.2-2.63,20.81-8.55S216.2,136.7,225.74,137s23-2.64,27-8.56,7.89-4.94,14.48-8.88,15.13-10.53,16.45-12.84S288.1,100.94,281.52,96.67Z"/><path class="cls-4" d="M274.77,90.41C268.19,86.14,260,85.15,256,78.9s-10.2-13.83-25.34-20.08-19.42-5.26-26-8.55S177,31.51,163.22,27.56c-9.23-2.63-12.5-10.86-21.72-4.28s-19.41,11.85-29.29,10.54-17.11,2-21,6.9S85.23,46.32,79,45.66s-7.57,1.65-13.82,5.27-9.55.65-16.45,3.29S37.19,59.48,35.87,65.07,34.89,67.71,26,71s-13.16,4.28-14.15,8.88S4.94,83.5,4,84.49s-1,8.88,2.3,11.19,24.25,5.26,24.79,7.9,10.1,2.85,13.06,5.37,3.62,5.81,8.55,7.46,11.85.66,17.12,7.57,28.62,20.07,37.18,28.3,27.64,21.22,35.87,17.77,25.51-11.85,35.46-11.52,16.2-2.63,20.81-8.56,17.11-20.07,26.65-19.74,23-2.63,27-8.55,7.89-4.94,14.48-8.89,15.13-10.53,16.45-12.83S281.35,94.69,274.77,90.41Z"/><path class="cls-1" d="M168.15,166.91c-1.49-.85-.81-10.09-1.63-9s-4.35,9.24-5.14,6.71-3.82-8.22-3.56-4.92-1.92,13.48-2.6,11.59-4.53-10.31-5-7.55a46.89,46.89,0,0,1-2.65,7.6l-2.09-11.64-4.34,13s-2.39-5.81-6.57-8.62-12.83-4.36-8,.33a34.85,34.85,0,0,1,7.28,10.71s-.53,6.33,11.18,2.66S169.65,167.76,168.15,166.91Z"/><path class="cls-5" d="M267.53,91.4c-10.2-2-18.09,1-28.3,10.86s-10.86,10.86-26,9.87-19.09,0-27.31,10.53-12.51,15.8-29.62,17.44-18.56-.33-23.36,9.22.39,18.1,9.57,16.06,24.51-17.71,38.14-12.77c6,2.15,18.1-12.51,30.27-19.09S229.69,126,241.54,120s21.61-8.85,29.61-17.77C274.14,98.93,277.74,93.37,267.53,91.4Z"/><path class="cls-3" d="M231.34,98.85c-8.89,7.45-16.46,3.74-28.63,3.74s-16.46,9.54-23,16.67-33.56,12-46.07,16.56-7.56,18.76-7.23,12.84,19.74-17.44,36.52-17.77,24-17.77,31.92-21.94,21.06-2.41,28.63-2.08,22.05-18.43,22.05-18.43C248.82,84.39,240.22,91.4,231.34,98.85Z"/><path class="cls-5" d="M229.69,67.7c-10.2-2-18.1,1-28.3,10.86s-10.86,10.86-26,9.87-19.09,0-27.32,10.53-12.5,15.8-29.61,17.44-18.57-.33-23.37,9.21.4,18.11,9.58,16.06,24.5-17.7,38.14-12.77c6,2.16,18.1-12.5,30.27-19.08s18.76-7.57,30.6-13.49,21.62-8.85,29.62-17.77C236.3,75.22,239.89,69.67,229.69,67.7Z"/><path class="cls-3" d="M193.49,75.15c-8.88,7.45-16.45,3.74-28.62,3.74s-16.46,9.54-23,16.67-33.56,12-46.07,16.56S88.19,130.88,88.52,125s19.75-17.45,36.53-17.77,24-17.77,31.92-21.94S178,82.84,185.6,83.16s22-18.42,22-18.42C211,60.69,202.38,67.7,193.49,75.15Z"/><path class="cls-5" d="M187.61,43.82c-10.2-2-18.1,1-28.3,10.86s-10.86,10.85-26,9.87-19.08,0-27.31,10.53S93.49,90.87,76.38,92.52,57.82,92.19,53,101.73s.4,18.11,9.58,16.06,24.5-17.7,38.13-12.77c6,2.16,18.1-12.5,30.28-19.08s18.75-7.57,30.6-13.49,21.62-8.85,29.62-17.77C194.21,51.34,197.81,45.79,187.61,43.82Z"/><path class="cls-3" d="M151.41,51.27C142.52,58.72,135,55,122.78,55s-16.45,9.55-23,16.68S66.18,83.63,53.68,88.24,46.11,107,46.44,101.07,66.18,83.63,83,83.3s24-17.77,31.92-21.93,21.06-2.42,28.63-2.09,22.05-18.43,22.05-18.43C168.9,36.81,160.29,43.82,151.41,51.27Z"/><g class="cls-6"><path class="cls-7" d="M154.66,25.26c-10.2-2-7.4-3.13-17.6,6.74s-30.27.45-41.92,10.16C84.61,50.93,65,49.28,56.77,59.81S46.24,57.34,38.21,70.13c-9.14,14.55-20.39,4-25.18,13.54S15.25,97.45,24.42,95.4,48.93,77.69,62.56,82.63c6,2.15,26-5.69,34.52-16.57s14.51-10.09,26.36-16,16.12,2.4,26.95-2.74C164.87,40.42,164.87,27.23,154.66,25.26Z"/></g><path class="cls-8" d="M70.21,91.37c-3.73-1.67-8.39,1.32-13.66,3s-3.62,10.37,3.29,12.18S80.9,96.14,70.21,91.37Z"/><path class="cls-3" d="M59.84,102.43a8.53,8.53,0,0,1-6-5.57c-1.28,3.24.94,8.31,6,9.65C65.61,108,76.4,99.8,73.61,94.26,71.71,99,64.29,103.59,59.84,102.43Z"/><path class="cls-9" d="M66.26,93.18c-3.9-2.3-4.7,3.44-8.23,3s-3.76,4.61.84,4.94S71.85,96.47,66.26,93.18Z"/><path class="cls-8" d="M225.91,74.07c-3.74-1.1-8.4.87-13.66,2s-3.62,6.83,3.29,8S236.6,77.21,225.91,74.07Z"/><path class="cls-3" d="M215.54,81.35c-3.2-.55-5.25-2.07-6-3.66-1.28,2.13.94,5.47,6,6.35,5.76,1,16.55-4.42,13.77-8.07C227.41,79.08,220,82.12,215.54,81.35Z"/><path class="cls-9" d="M222,75.26c-3.91-1.51-4.7,2.26-8.23,1.95s-3.76,3,.83,3.25S227.55,77.43,222,75.26Z"/><path class="cls-8" d="M160.41,28.85c-3.73-1.1-8.39.87-13.65,1.95s-3.62,6.83,3.29,8S171.11,32,160.41,28.85Z"/><path class="cls-3" d="M150.05,36.13c-3.2-.55-5.25-2.08-6-3.66-1.28,2.13.94,5.47,6,6.35,5.76,1,16.55-4.42,13.77-8.07C161.92,33.86,154.49,36.9,150.05,36.13Z"/><path class="cls-9" d="M156.46,30c-3.9-1.51-4.69,2.27-8.22,1.95s-3.77,3,.83,3.25S162.06,32.21,156.46,30Z"/><path class="cls-8" d="M243,107.15c-4.66-3.25-5.59-1.27-10.36,1.51s-9.21,3.27-11.35,2.11-5.43,11.19,10.86,10.37S248.4,110.94,243,107.15Z"/><path class="cls-3" d="M232.12,118.34c-8.67.44-11.8-2.85-12.5-5.85-.78,3.14.88,9.23,12.5,8.65s14.95-5.53,13.92-9.69C245.2,114.77,241.19,117.88,232.12,118.34Z"/><path class="cls-9" d="M230.8,111.6c-5.1,1-5.1,4.11,3.12,2.79s4.94-4.44,4.94-4.44C236.39,107.48,235.9,110.61,230.8,111.6Z"/><path class="cls-8" d="M146.3,105.7c-4.66-3.25-5.6-1.28-10.37,1.5s-9.21,3.27-11.35,2.12-5.43,11.19,10.86,10.36S151.73,109.48,146.3,105.7Z"/><path class="cls-3" d="M135.44,116.89c-8.67.43-11.79-2.85-12.49-5.86-.78,3.14.88,9.24,12.49,8.65s14.95-5.53,13.93-9.69C148.53,113.31,144.51,116.43,135.44,116.89Z"/><path class="cls-9" d="M134.12,110.14c-5.1,1-5.1,4.11,3.13,2.79s4.93-4.44,4.93-4.44C139.72,106,139.22,109.15,134.12,110.14Z"/><path class="cls-8" d="M271,92.61c-4.66-3.25-5.59-1.27-10.36,1.51s-9.22,3.27-11.36,2.12-5.43,11.18,10.86,10.36S276.47,96.4,271,92.61Z"/><path class="cls-3" d="M260.18,103.8c-8.66.44-11.79-2.85-12.49-5.85-.78,3.14.88,9.24,12.49,8.65s14.95-5.53,13.93-9.69C273.27,100.23,269.25,103.34,260.18,103.8Z"/><path class="cls-9" d="M258.87,97.06c-5.11,1-5.11,4.11,3.12,2.79s4.94-4.44,4.94-4.44C264.46,92.94,264,96.07,258.87,97.06Z"/><path class="cls-8" d="M28.05,81.08c-4.66-3.25-5.59-1.27-10.36,1.5S8.47,85.86,6.33,84.7.91,95.89,17.19,95.07,33.48,84.87,28.05,81.08Z"/><path class="cls-3" d="M17.19,92.27C8.53,92.71,5.4,89.42,4.7,86.42c-.78,3.14.89,9.23,12.49,8.65s15-5.53,13.93-9.69C30.28,88.7,26.27,91.81,17.19,92.27Z"/><path class="cls-9" d="M15.88,85.52c-5.1,1-5.1,4.12,3.12,2.8s4.94-4.44,4.94-4.44C21.47,81.41,21,84.54,15.88,85.52Z"/><path class="cls-10" d="M127.19,163.19c-1.21-.38,2.19,2.31,4.88,4.88s3.62,7.13,3.62,7.13c1.53,2.86,2.36,1.54,1.1-3.12S128.4,163.57,127.19,163.19Z"/><path class="cls-10" d="M141.78,174.43a20.17,20.17,0,0,0,3.29-12.88Z"/><path class="cls-10" d="M147.37,172.68c-1.43,2.36,3.95,1.75,3.35-8.66C150.72,164,148.8,170.32,147.37,172.68Z"/></g><g id="Layer_1-2" data-name="Layer 1"><path class="cls-11" d="M135.43,133.17s14.67-14.24,17.35-18.84-5.38-.52-6.95.94.44-4,2.43-7.84-2.73,1-7.21,7.9-5.66,2.4-1-3.92,10.61-15.4,8.92-13.3-6.87,6.91-5,3.72,9.49-10.61,6.76-9.58-11.61,9.37-13.05,11.85,1.73-4.21,2.32-7.66-2.08,2.35-3.09,5.32,2-8.33.82-11.62-1.64-1.66-2-.22-1.14-5-2-7.94-3-5.87-2.77-3.38,3,10.29,2.6,12.66-3.47-1.78-5-4.08-.05,3.76,2.21,7.21,3,6.25,1.29,4.3-7.42-7.63-6.57-5,5.84,12,3.81,9.34-4.5-2.87-3.15.53,8.77,13.86,6.2,11-14.61-18.69-14-15,6.54,11.87,9.47,15-5.48-2-8-3.44,4.23,7.91,7.39,10,4.12,8.56,6.44,11.1S135.43,133.17,135.43,133.17Z"/><path class="cls-12" d="M122.93,115.29c1.47,1.94,10.67,9,11,16.06.1,2.25,1.06,2.78,1.91.78s-.6,1.22,0-2.7-.5-9.92,0-13.37,6-15.3,4.61-13.22-2.57,4-3.34,2.79-2.23-3.87-2.46-3.64,1.45-4.76,1.19-7.76-1.82-2.15-1.89,0-2.68-.61-2.68-.61,2.53,3.61,2.15,7.14-3.31-1.61-4.08-2.38.66,4.92,2.48,7.92-5.47-4.92-4.78-3.08,9.36,14.37,6.91,13.45-13.06-14.76-11-11.91,8.92,13.83,10.15,15.14S120.09,111.52,122.93,115.29Z"/><path class="cls-8" d="M140.61,130.72c-1.81-.88-2.54-2.09-3.54-1s-1.71,2.88-4.31,1-2.77-2-3.52-1.61-.33,4.41,1.67,5.83,6.16,2.87,8.33.64A5.16,5.16,0,0,0,140.61,130.72Z"/><path class="cls-11" d="M214.3,95.3S229,81.07,231.65,76.46s-5.38-.52-6.94.94.43-4,2.42-7.84-2.73,1-7.2,7.91-5.66,2.4-1-3.93,10.61-15.4,8.92-13.3-6.87,6.91-5,3.72,9.48-10.6,6.75-9.58-11.61,9.37-13.05,11.85,1.73-4.21,2.32-7.66-2.08,2.35-3.09,5.32,2-8.33.82-11.61-1.64-1.67-2-.23-1.15-5-2-7.94-3-5.87-2.78-3.38,3,10.3,2.6,12.66-3.47-1.78-5-4.08-.05,3.76,2.21,7.21,3,6.25,1.29,4.31-7.42-7.64-6.57-5,5.84,12,3.81,9.34-4.49-2.86-3.15.53,8.77,13.87,6.2,11-14.61-18.69-14-15,6.55,11.87,9.47,15-5.48-2-7.95-3.44,4.22,7.91,7.38,10,4.12,8.56,6.44,11.1S214.3,95.3,214.3,95.3Z"/><path class="cls-12" d="M201.81,77.42c1.46,1.94,10.67,9,11,16.06.1,2.25,1.06,2.78,1.91.78s-.6,1.22,0-2.7-.5-9.91,0-13.37,6-15.3,4.61-13.22-2.57,4-3.34,2.79-2.23-3.87-2.46-3.64,1.46-4.76,1.19-7.76-1.82-2.15-1.89,0-2.68-.61-2.68-.61,2.54,3.61,2.15,7.14-3.3-1.61-4.07-2.38.65,4.92,2.48,7.92-5.48-4.92-4.79-3.08,9.37,14.38,6.91,13.45-13.06-14.75-11-11.91S210.72,80.72,212,82,199,73.65,201.81,77.42Z"/><path class="cls-8" d="M219.48,92.85c-1.81-.88-2.54-2.09-3.54-1s-1.71,2.88-4.31,1-2.77-2-3.52-1.6-.33,4.4,1.67,5.82,6.16,2.87,8.33.64A5.16,5.16,0,0,0,219.48,92.85Z"/><path class="cls-11" d="M73.45,93.38S88.12,79.15,90.8,74.54s-5.39-.52-7,.94.44-4,2.42-7.84-2.73,1-7.2,7.91-5.66,2.4-1-3.92S88.65,56.22,87,58.32s-6.86,6.91-5,3.73,9.48-10.61,6.76-9.59S77.09,61.83,75.64,64.31,77.38,60.1,78,56.65,75.89,59,74.88,62s2-8.33.82-11.61-1.64-1.67-2-.22-1.14-5-2-8-3-5.87-2.78-3.38,3,10.3,2.6,12.66-3.46-1.78-5-4.08-.06,3.76,2.2,7.21,3,6.25,1.29,4.31-7.41-7.64-6.57-5,5.85,12,3.81,9.35-4.49-2.87-3.14.52,8.77,13.87,6.2,10.95-14.61-18.68-14-15,6.55,11.87,9.48,15-5.48-2-8-3.44,4.23,7.91,7.38,10,4.13,8.56,6.45,11.1S73.45,93.38,73.45,93.38Z"/><path class="cls-12" d="M61,75.5c1.47,1.94,10.67,9,11,16.06.1,2.25,1,2.78,1.9.78s-.59,1.22,0-2.7-.51-9.91,0-13.37,6-15.29,4.61-13.22-2.58,4-3.35,2.79S72.86,62,72.63,62.2s1.46-4.76,1.2-7.76-1.82-2.15-1.89,0-2.69-.61-2.69-.61S71.79,57.44,71.4,61s-3.3-1.62-4.07-2.39.66,4.92,2.48,7.92S64.33,61.59,65,63.43s9.36,14.38,6.91,13.45S58.88,62.13,61,65,69.87,78.8,71.1,80.11,58.11,71.73,61,75.5Z"/><path class="cls-8" d="M78.63,90.93c-1.81-.88-2.54-2.09-3.54-1s-1.72,2.88-4.32,1-2.77-2-3.52-1.6-.33,4.41,1.67,5.82,6.17,2.87,8.33.64A5.18,5.18,0,0,0,78.63,90.93Z"/><path class="cls-11" d="M152.32,55.51S167,41.28,169.67,36.67s-5.39-.52-6.95.94.44-4,2.42-7.83-2.72,1-7.2,7.9-5.66,2.4-1-3.92,10.62-15.41,8.92-13.31-6.86,6.92-5,3.73,9.49-10.61,6.76-9.59S156,24,154.52,26.44s1.73-4.2,2.32-7.66-2.08,2.35-3.09,5.32,2-8.33.82-11.61-1.64-1.67-2-.22-1.14-5-2-7.95-3-5.87-2.77-3.37,3,10.29,2.6,12.65-3.47-1.78-5-4.08-.06,3.76,2.21,7.21,3,6.25,1.29,4.31-7.42-7.63-6.57-5,5.84,12,3.81,9.35-4.5-2.87-3.15.52,8.77,13.87,6.2,11-14.61-18.68-14-15,6.54,11.87,9.47,15-5.48-2-8-3.44,4.23,7.91,7.39,10,4.12,8.56,6.44,11.09S152.32,55.51,152.32,55.51Z"/><path class="cls-12" d="M139.82,37.63c1.47,1.94,10.67,9,11,16.07.1,2.24,1.05,2.77,1.91.77s-.6,1.23,0-2.69-.5-9.92,0-13.38,6-15.29,4.61-13.22-2.57,4-3.34,2.8-2.23-3.87-2.46-3.64,1.45-4.77,1.19-7.77-1.82-2.15-1.89,0-2.69-.61-2.69-.61,2.54,3.61,2.16,7.15-3.31-1.62-4.08-2.38.66,4.91,2.48,7.91-5.47-4.92-4.78-3.07,9.36,14.37,6.91,13.45-13.06-14.76-11-11.92S148.74,40.94,150,42.24,137,33.87,139.82,37.63Z"/><path class="cls-8" d="M157.5,53.06c-1.81-.88-2.54-2.08-3.54-1s-1.71,2.87-4.32,1-2.76-2-3.51-1.6-.34,4.41,1.66,5.82,6.17,2.87,8.34.65A5.21,5.21,0,0,0,157.5,53.06Z"/></g></g></svg>