<?xml version="1.0" encoding="utf-8"?>
<!-- Generator: Adobe Illustrator 22.1.0, SVG Export Plug-In . SVG Version: 6.00 Build 0)  -->
<svg version="1.1" id="Layer_1" xmlns="http://www.w3.org/2000/svg" xmlns:xlink="http://www.w3.org/1999/xlink" x="0px" y="0px"
	 viewBox="0 0 85 42" style="enable-background:new 0 0 85 42;" xml:space="preserve">
<style type="text/css">
	.st0{fill:url(#SVGID_1_);}
	.st1{fill:url(#SVGID_2_);}
	.st2{fill:#29ABE2;}
	.st3{fill:#1D1D1B;}
</style>
<linearGradient id="SVGID_1_" gradientUnits="userSpaceOnUse" x1="47.8462" y1="41.5943" x2="61.8387" y2="27.3622" gradientTransform="matrix(1 0 0 -1 0 44)">
	<stop  offset="0.21" style="stop-color:#F15A24"/>
	<stop  offset="0.6841" style="stop-color:#FBB03B"/>
</linearGradient>
<path class="st0" d="M53.2,1c-2.3,0-4.9,1.2-7.5,3.6c-1.3,1.1-2.4,2.3-3.2,3.3c0,0,0,0,0,0v0c0,0,1.3,1.4,2.7,3
	c0.8-0.9,1.9-2.2,3.2-3.4C50.8,5.4,52.3,5,53.2,5c3.3,0,6.1,2.7,6.1,6c0,3.3-2.7,6-6.1,6c-0.2,0-0.3,0-0.6-0.1c1,0.4,2,0.7,3,0.7
	c6.1,0,7.3-4.1,7.4-4.4c0.2-0.7,0.3-1.5,0.3-2.3C63.3,5.5,58.8,1,53.2,1z"/>
<linearGradient id="SVGID_2_" gradientUnits="userSpaceOnUse" x1="37.1549" y1="24.406" x2="23.1624" y2="38.638" gradientTransform="matrix(1 0 0 -1 0 44)">
	<stop  offset="0.21" style="stop-color:#ED1E79"/>
	<stop  offset="0.8929" style="stop-color:#522785"/>
</linearGradient>
<path class="st1" d="M31.8,21c2.3,0,4.9-1.2,7.5-3.6c1.3-1.1,2.4-2.3,3.2-3.3c0,0,0,0,0,0v0c0,0-1.3-1.4-2.7-3
	c-0.8,0.9-1.9,2.2-3.2,3.4c-2.4,2.1-3.9,2.6-4.8,2.6c-3.3,0-6.1-2.7-6.1-6c0-3.3,2.7-6,6.1-6c0.2,0,0.3,0,0.6,0.1
	c-1-0.4-2-0.7-3-0.7c-6.1,0-7.3,4.1-7.4,4.4c-0.2,0.7-0.3,1.5-0.3,2.3C21.7,16.5,26.2,21,31.8,21z"/>
<path class="st2" d="M55.6,17.6c-3.1-0.1-6.4-2.6-7.1-3.2c-1.7-1.6-5.7-6-6-6.3c-2.9-3.3-6.8-7-10.8-7h0h0C27,1,23,4.3,22,8.7
	c0.1-0.3,1.6-4.4,7.4-4.3c3.1,0.1,6.4,2.6,7.1,3.3c1.7,1.6,5.7,6,6,6.3c2.9,3.3,6.8,7,10.8,7h0h0c4.8,0,8.8-3.3,9.8-7.7
	C62.9,13.6,61.4,17.7,55.6,17.6z"/>
<path class="st3" d="M3.7,38v-8.4h-1c-0.2,0.9-1,1.6-2.2,1.7v0.6h2.1V38H3.7z M8.7,37.2c-0.6,0-1.1-0.2-1.4-0.6
	c-0.6-0.6-0.8-1.6-0.8-2.8c0-1.3,0.2-2.2,0.8-2.8c0.3-0.4,0.8-0.6,1.4-0.6c0.6,0,1.1,0.2,1.4,0.6c0.6,0.6,0.8,1.6,0.8,2.8
	c0,1.3-0.2,2.2-0.8,2.8C9.8,37,9.3,37.2,8.7,37.2z M8.7,38.2c1.1,0,2-0.5,2.5-1.3c0.6-0.8,0.8-2,0.8-3.1c0-1.1-0.2-2.3-0.8-3.1
	c-0.5-0.8-1.4-1.3-2.5-1.3c-1.1,0-2,0.5-2.5,1.3c-0.6,0.8-0.8,2-0.8,3.1c0,1.1,0.2,2.3,0.8,3.1C6.7,37.7,7.5,38.2,8.7,38.2z
	 M16.6,37.2c-0.6,0-1.1-0.2-1.4-0.6c-0.6-0.6-0.8-1.6-0.8-2.8c0-1.3,0.2-2.2,0.8-2.8c0.3-0.4,0.8-0.6,1.4-0.6c0.6,0,1.1,0.2,1.4,0.6
	c0.6,0.6,0.8,1.6,0.8,2.8c0,1.3-0.2,2.2-0.8,2.8C17.7,37,17.3,37.2,16.6,37.2z M16.6,38.2c1.1,0,2-0.5,2.5-1.3
	c0.6-0.8,0.8-2,0.8-3.1c0-1.1-0.2-2.3-0.8-3.1c-0.5-0.8-1.4-1.3-2.5-1.3c-1.1,0-2,0.5-2.5,1.3c-0.6,0.8-0.8,2-0.8,3.1
	c0,1.1,0.2,2.3,0.8,3.1C14.7,37.7,15.5,38.2,16.6,38.2z M22,31.5c0-0.7,0.5-1.2,1.1-1.2c0.6,0,1.1,0.5,1.1,1.2s-0.5,1.2-1.1,1.2
	C22.5,32.6,22,32.1,22,31.5z M21.1,31.5c0,1.1,0.9,2,2,2c1.1,0,2.1-0.9,2.1-2c0-1.1-0.9-2-2.1-2C22,29.4,21.1,30.3,21.1,31.5z
	 M27.1,36c0-0.7,0.5-1.2,1.1-1.2c0.6,0,1.1,0.5,1.1,1.2c0,0.7-0.5,1.2-1.1,1.2C27.6,37.2,27.1,36.7,27.1,36z M26.2,36
	c0,1.1,0.9,2,2,2c1.1,0,2.1-0.9,2.1-2s-0.9-2-2.1-2C27.1,34,26.2,34.9,26.2,36z M23.1,38l6.1-8.4h-1L22.1,38H23.1z M37.7,31.6
	c-1.8,0-3.1,1.4-3.1,3.3c0,1.9,1.3,3.3,3.1,3.3c1.8,0,3.1-1.4,3.1-3.3C40.9,33,39.5,31.6,37.7,31.6z M37.7,32.5
	c1.1,0,2.1,0.8,2.1,2.4c0,1.5-1,2.4-2.1,2.4s-2.1-0.8-2.1-2.4C35.7,33.4,36.6,32.5,37.7,32.5z M43.5,34.3c0-1,0.6-1.8,1.6-1.8
	c1.1,0,1.5,0.7,1.5,1.6V38h1v-4c0-1.4-0.7-2.4-2.2-2.4c-0.8,0-1.5,0.4-2,1.1v-0.9h-1V38h1V34.3z M52.9,34.7v-0.9h-3.5v0.9H52.9z
	 M57.5,32.5c1.1,0,1.6,0.8,1.8,1.4l0.9-0.4c-0.3-1-1.1-2-2.7-2c-1.8,0-3.1,1.4-3.1,3.3c0,1.9,1.3,3.3,3.1,3.3c1.6,0,2.5-1,2.8-1.9
	l-0.9-0.4c-0.2,0.6-0.7,1.4-1.9,1.4c-1.1,0-2.1-0.9-2.1-2.4C55.4,33.4,56.4,32.5,57.5,32.5z M62.8,34.3c0-1,0.6-1.8,1.6-1.8
	c1.1,0,1.5,0.7,1.5,1.6V38h1v-4c0-1.4-0.7-2.4-2.2-2.4c-0.8,0-1.5,0.4-1.9,1v-4h-1V38h1V34.3z M68.4,36.3c0,0.9,0.8,1.8,2.1,1.8
	c1.1,0,1.8-0.6,2.1-1.1c0,0.5,0.1,0.8,0.1,0.9h1c0-0.2-0.1-0.5-0.1-1v-3.1c0-1.2-0.7-2.2-2.5-2.2c-1.3,0-2.4,0.8-2.5,2l1,0.2
	c0.1-0.8,0.6-1.3,1.5-1.3c1,0,1.4,0.5,1.4,1.2c0,0.3-0.1,0.5-0.6,0.5l-1.7,0.2C69.2,34.6,68.4,35.3,68.4,36.3z M70.6,37.3
	c-0.7,0-1.1-0.5-1.1-1c0-0.6,0.4-0.9,1-1l2-0.3v0.4C72.5,36.7,71.7,37.3,70.6,37.3z M76.6,38v-6.2h-1V38H76.6z M75.3,29.3
	c0,0.4,0.4,0.8,0.8,0.8s0.8-0.4,0.8-0.8s-0.4-0.8-0.8-0.8S75.3,28.9,75.3,29.3z M79.7,34.3c0-1,0.6-1.8,1.6-1.8
	c1.1,0,1.5,0.7,1.5,1.6V38h1v-4c0-1.4-0.7-2.4-2.2-2.4c-0.8,0-1.5,0.4-1.9,1.1v-0.9h-1V38h1V34.3z"/>
</svg>
