<svg xmlns="http://www.w3.org/2000/svg" viewBox="0 0 288.69 167.2"><defs><style>.cls-1{fill:#8fa50f;}.cls-2{fill:#6f7a03;}.cls-3{fill:#2b2722;}.cls-4{fill:#432618;}.cls-5,.cls-7{fill:#cb8346;}.cls-5,.cls-6{opacity:0.17;}.cls-7,.cls-9{opacity:0.29;}.cls-8{fill:#7c4939;}.cls-9{fill:#df965b;}.cls-10{fill:#a3db67;}</style></defs><g id="Layer_2" data-name="Layer 2"><g id="Layer_2-2" data-name="Layer 2"><path class="cls-1" d="M187.7,16.86a16.15,16.15,0,0,0-4,4.13c.53-4.8,1.77-11.51,4.74-14.37,4.86-4.7-3.78-3.14-8-.33s-6.56,8.61-6.56,8.61l-4.34-13-2.1,11.64a46.56,46.56,0,0,1-2.64-7.6c-.51-2.76-4.37,5.67-5,7.55s-2.85-8.3-2.59-11.6-2.78,2.4-3.57,4.93-4.32-5.68-5.14-6.72-.14,8.21-1.63,9.06c-.84.47,2.86,2.68,8.34,5.17-.12,2.33-.31,5-1.08,5.39-1.48.85,11.42,7.18,23.13,10.85s13.35,6.32,13.35,6.32.25-15,5.11-19.69S191.88,14.05,187.7,16.86Zm-26.84.5c-.36,1.16-1.3.06-2.29-1.56l2.48,1C161,17,160.91,17.19,160.86,17.36ZM167,24c-.41,1.14-1.38-2.2-2-5.73,1.32.48,2.66.94,4,1.37A47.25,47.25,0,0,0,167,24Zm7.68,0s-.56-1.28-1.18-2.9c.57.2,1.1.4,1.6.6Zm6.44,1.39-.36-1.08.67.4C181.24,25.21,181.13,25.47,181.13,25.47Z"/><path class="cls-2" d="M279.15,83.63c-6.85-4.46-15.43-5.49-19.54-12S249,57.23,233.21,50.71,213,45.23,206.12,41.8s-28.81-19.55-43.21-23.66c-9.61-2.75-13-11.32-22.63-4.46s-20.23,12.34-30.51,11-17.84,2.06-22,7.2S81.65,37.68,75.13,37s-7.88,1.71-14.39,5.48-10,.69-17.15,3.43-12,5.49-13.37,11.32-1,2.74-10.29,6.17S6.21,67.86,5.19,72.66,1.36,84.09.33,85.12s.36,5.33,3.79,7.73,20.5,1.75,21.07,4.49,10.51,3,13.6,5.6,3.77,6.06,8.91,7.78,12.35.68,17.83,7.88,29.83,20.92,38.75,29.49,28.8,22.12,37.38,18.52,26.58-12.35,37-12,16.88-2.75,21.68-8.92,17.83-20.91,27.77-20.57,24-2.74,28.12-8.92,8.23-5.14,15.09-9.25S287,96,288.41,93.57,286,88.09,279.15,83.63Z"/><path class="cls-3" d="M281.52,83.31C274.94,79,260,78.59,256,72.33s-10.21-13.82-25.34-20.07-19.42-5.26-26-8.55S177,25,163.22,21c-9.23-2.63-12.5-10.86-21.72-4.28s-19.41,11.85-29.29,10.53-17.11,2-21.06,6.91S85.23,39.76,79,39.1s-7.57,1.64-13.82,5.26S55.61,45,48.7,47.65,37.19,52.92,35.87,58.51s-1,2.64-9.87,5.93-13.16,4.27-14.15,8.88-7.48-1.86-8.47-.87S3,86.81,6.25,89.12,30.49,94.38,31,97s10.1,2.85,13.06,5.38,3.62,5.81,8.55,7.46,11.85.66,17.11,7.57,28.63,20.07,37.19,28.3,27.64,21.22,35.87,17.77,25.51-11.85,35.46-11.52,16.2-2.63,20.81-8.56,17.11-20.07,26.65-19.74,23-2.63,27-8.56,7.89-4.93,14.47-8.88,15.14-10.53,16.46-12.84S288.1,87.59,281.52,83.31Z"/><path class="cls-4" d="M274.77,77.06C268.19,72.78,260,71.79,256,65.54s-10.21-13.82-25.34-20.07-19.42-5.27-26-8.56S177,18.15,163.22,14.2C154,11.57,150.72,3.34,141.5,9.93s-19.41,11.84-29.29,10.53-17.11,2-21.06,6.91S85.23,33,79,32.3,71.41,34,65.16,37.57s-9.55.66-16.46,3.29S37.19,46.13,35.87,51.72s-1,2.63-9.87,5.92-13.16,4.28-14.15,8.89S4.94,70.14,4,71.13,3,80,6.25,82.32,30.49,87.59,31,90.22s10.1,2.85,13.06,5.37,3.62,5.82,8.55,7.46,11.85.66,17.11,7.57,28.63,20.07,37.19,28.3,27.64,21.23,35.87,17.77,25.51-11.85,35.46-11.52,16.2-2.63,20.81-8.55,17.11-20.08,26.65-19.75,23-2.63,27-8.55,7.89-4.94,14.47-8.89S282.34,88.9,283.66,86.6,281.35,81.33,274.77,77.06Z"/><path class="cls-1" d="M168.15,153.55c-1.49-.84-.81-10.09-1.63-9.05s-4.35,9.24-5.14,6.71-3.82-8.21-3.56-4.92-1.92,13.48-2.6,11.6-4.53-10.32-5-7.55a47.27,47.27,0,0,1-2.65,7.6l-2.09-11.65-4.34,13s-2.39-5.81-6.57-8.61-12.83-4.37-8,.32a34.85,34.85,0,0,1,7.28,10.71s-.53,6.33,11.18,2.66S169.64,154.4,168.15,153.55Z"/><path class="cls-5" d="M267.53,78c-10.2-2-18.09,1-28.3,10.86s-10.86,10.86-26,9.87-19.09,0-27.31,10.54-12.51,15.79-29.62,17.44-18.57-.33-23.37,9.21.4,18.11,9.58,16.06,24.5-17.71,38.14-12.77c6,2.16,18.1-12.5,30.27-19.09s18.76-7.56,30.61-13.49,21.61-8.84,29.61-17.77C274.14,85.57,277.73,80,267.53,78Z"/><path class="cls-3" d="M231.34,85.5c-8.89,7.45-16.46,3.73-28.63,3.73s-16.45,9.54-23,16.67-33.56,12-46.07,16.57-7.56,18.76-7.24,12.83,19.75-17.44,36.53-17.77,24-17.77,31.92-21.94,21.06-2.41,28.63-2.08,22.05-18.43,22.05-18.43C248.82,71,240.22,78,231.34,85.5Z"/><path class="cls-5" d="M229.69,54.34c-10.2-2-18.1,1-28.3,10.86s-10.86,10.86-26,9.87-19.08,0-27.31,10.53-12.5,15.8-29.61,17.44-18.57-.33-23.37,9.22.4,18.1,9.58,16.06,24.5-17.71,38.14-12.77c6,2.15,18.1-12.51,30.27-19.09s18.76-7.57,30.6-13.49,21.62-8.85,29.62-17.77C236.3,61.87,239.89,56.32,229.69,54.34Z"/><path class="cls-3" d="M193.49,61.79c-8.88,7.45-16.45,3.74-28.62,3.74s-16.46,9.54-23,16.67-33.56,12-46.07,16.56-7.57,18.76-7.24,12.84,19.75-17.44,36.53-17.77,24-17.77,31.92-21.94S178,69.48,185.6,69.81s22-18.43,22-18.43C211,47.33,202.38,54.34,193.49,61.79Z"/><path class="cls-5" d="M187.61,30.46c-10.2-2-18.1,1-28.3,10.86s-10.86,10.86-26,9.87-19.08,0-27.31,10.53S93.49,77.52,76.38,79.16,57.82,78.83,53,88.38s.4,18.1,9.58,16.06,24.5-17.71,38.13-12.77c6,2.15,18.1-12.51,30.28-19.09s18.75-7.57,30.6-13.49,21.61-8.85,29.61-17.77C194.21,38,197.81,32.43,187.61,30.46Z"/><path class="cls-3" d="M151.41,37.91c-8.89,7.45-16.45,3.74-28.63,3.74s-16.45,9.54-23,16.67-33.57,12-46.07,16.56-7.57,18.76-7.24,12.84S66.18,70.28,83,70,107,52.18,114.88,48s21.06-2.41,28.63-2.09S165.56,27.5,165.56,27.5C168.9,23.45,160.29,30.46,151.41,37.91Z"/><g class="cls-6"><path class="cls-7" d="M154.66,11.9c-10.2-2-7.4-3.12-17.6,6.75s-30.27.44-41.92,10.15C84.61,37.57,65,35.93,56.77,46.46S46.24,44,38.21,56.77c-9.14,14.55-20.39,4-25.18,13.54S15.25,84.09,24.42,82s24.51-17.7,38.14-12.77c6,2.16,26-5.69,34.52-16.57s14.51-10.08,26.36-16,16.12,2.4,26.95-2.74C164.87,27.07,164.87,13.88,154.66,11.9Z"/></g><path class="cls-8" d="M70.21,78c-3.74-1.66-8.4,1.32-13.66,3s-3.62,10.36,3.29,12.17S80.9,82.78,70.21,78Z"/><path class="cls-3" d="M59.84,89.07a8.51,8.51,0,0,1-6-5.57c-1.28,3.25.94,8.32,6,9.65,5.77,1.51,16.56-6.71,13.77-12.25C71.71,85.62,64.28,90.24,59.84,89.07Z"/><path class="cls-9" d="M66.26,79.82c-3.9-2.29-4.7,3.44-8.23,3s-3.76,4.61.83,4.94S71.85,83.11,66.26,79.82Z"/><path class="cls-8" d="M225.91,60.71c-3.74-1.09-8.39.87-13.66,1.95s-3.62,6.83,3.29,8S236.6,63.85,225.91,60.71Z"/><path class="cls-3" d="M215.54,68c-3.2-.56-5.25-2.08-6-3.67-1.28,2.13.94,5.47,6,6.35,5.76,1,16.55-4.42,13.77-8.06C227.41,65.72,220,68.76,215.54,68Z"/><path class="cls-9" d="M222,61.9c-3.89-1.51-4.69,2.27-8.22,2s-3.76,3,.83,3.26S227.55,64.07,222,61.9Z"/><path class="cls-8" d="M160.41,15.49c-3.73-1.09-8.39.87-13.65,2s-3.62,6.83,3.29,8S171.11,18.63,160.41,15.49Z"/><path class="cls-3" d="M150.05,22.78c-3.2-.55-5.25-2.08-6-3.67-1.28,2.13.94,5.47,6,6.35,5.76,1,16.55-4.42,13.77-8.06C161.92,20.5,154.49,23.54,150.05,22.78Z"/><path class="cls-9" d="M156.47,16.69c-3.91-1.52-4.7,2.26-8.23,1.94s-3.77,3,.83,3.25S162.06,18.85,156.47,16.69Z"/><path class="cls-8" d="M243,93.8c-4.66-3.25-5.59-1.28-10.36,1.5s-9.22,3.27-11.35,2.12-5.43,11.18,10.85,10.36S248.4,97.58,243,93.8Z"/><path class="cls-3" d="M232.11,105c-8.66.44-11.79-2.85-12.49-5.85-.78,3.14.88,9.24,12.49,8.65s14.95-5.53,13.93-9.69C245.2,101.41,241.18,104.53,232.11,105Z"/><path class="cls-9" d="M230.8,98.24c-5.1,1-5.1,4.11,3.12,2.8s4.94-4.45,4.94-4.45C236.39,94.12,235.9,97.25,230.8,98.24Z"/><path class="cls-8" d="M146.3,92.34c-4.66-3.25-5.6-1.27-10.37,1.5s-9.21,3.27-11.35,2.12-5.43,11.19,10.86,10.37S151.72,96.12,146.3,92.34Z"/><path class="cls-3" d="M135.44,103.53c-8.67.44-11.79-2.85-12.49-5.85-.78,3.13.88,9.23,12.49,8.65s14.95-5.53,13.93-9.7C148.53,100,144.51,103.07,135.44,103.53Z"/><path class="cls-9" d="M134.12,96.78c-5.1,1-5.1,4.12,3.13,2.8s4.93-4.44,4.93-4.44C139.72,92.67,139.22,95.8,134.12,96.78Z"/><path class="cls-8" d="M271,79.26c-4.66-3.25-5.59-1.28-10.36,1.5s-9.22,3.27-11.36,2.12-5.43,11.19,10.86,10.36S276.47,83,271,79.26Z"/><path class="cls-3" d="M260.18,90.45c-8.66.43-11.79-2.85-12.49-5.85-.78,3.13.88,9.23,12.49,8.64s14.95-5.53,13.93-9.69C273.27,86.87,269.25,90,260.18,90.45Z"/><path class="cls-9" d="M258.87,83.7c-5.11,1-5.11,4.11,3.12,2.8s4.94-4.45,4.94-4.45C264.46,79.59,264,82.71,258.87,83.7Z"/><path class="cls-8" d="M28.05,67.73c-4.66-3.25-5.59-1.28-10.36,1.5S8.47,72.5,6.33,71.34.91,82.53,17.19,81.71,33.48,71.51,28.05,67.73Z"/><path class="cls-3" d="M17.19,78.91C8.53,79.35,5.4,76.06,4.7,73.06c-.78,3.14.89,9.24,12.49,8.65s15-5.53,13.93-9.69C30.28,75.34,26.27,78.46,17.19,78.91Z"/><path class="cls-9" d="M15.88,72.17c-5.1,1-5.1,4.11,3.12,2.8s4.94-4.45,4.94-4.45C21.47,68.06,21,71.18,15.88,72.17Z"/><path class="cls-10" d="M127.19,149.84c-1.21-.39,2.19,2.3,4.88,4.88s3.62,7.13,3.62,7.13c1.53,2.85,2.36,1.53,1.1-3.13S128.39,150.22,127.19,149.84Z"/><path class="cls-10" d="M141.78,161.08a20.21,20.21,0,0,0,3.29-12.89Z"/><path class="cls-10" d="M147.37,159.32c-1.43,2.36,3.95,1.76,3.35-8.66C150.72,150.66,148.8,157,147.37,159.32Z"/></g></g></svg>