<svg xmlns="http://www.w3.org/2000/svg" viewBox="0 0 64 64"><defs><style>.cls-1{isolation:isolate;}.cls-2,.cls-6{fill:#593d38;}.cls-2,.cls-3,.cls-4,.cls-5{fill-rule:evenodd;}.cls-3,.cls-9{fill:#3b1b0b;}.cls-10,.cls-4{fill:#855f58;}.cls-5{fill:#4d1e31;opacity:0.42;mix-blend-mode:multiply;}.cls-7{fill:none;}.cls-8{fill:#fff;}.cls-11{fill:#66cef6;}</style></defs><g class="cls-1"><g id="Layer_1" data-name="Layer 1"><path class="cls-2" d="M35.36,27.55a8.08,8.08,0,0,1-4.81,5.78l-.19.07-.3.1h0l-.33.08-.08,0-.21,0-.23,0a19.2,19.2,0,0,1-5.35.12l-.92-.13c-.64-.09-1.27-.2-1.88-.32l-.18,0a17.58,17.58,0,0,1-3.06-.18l.79.1a8,8,0,0,0-1.69,0c-.29.06-.58.14-.87.22l0,0-.55.4-.87.64-.11.08c-1.21.88-2.73,2-3,2.22,0,0,0,0-.06,0a2.23,2.23,0,0,1-.35.33A7,7,0,0,1,11,38.45c0,.11-.07.19-.1.29s0,.08,0,.1a1.92,1.92,0,0,1-1.3,1c-.24,0-1.57-.16-1.69,0,.22.33,3.19,6.48,3.41,6.8.09-.16.18-.33.28-.49,0,0,3.67-4.7,3.8-4.85s1.93-2.65,4.6-2.22a5.2,5.2,0,0,0,1.23,0,12.43,12.43,0,0,1,1.3-.13h0a43.11,43.11,0,0,1,4.9,1.09l.08,0,.4.1c.44.12.45,0,.88.11l.33.14c.15,0,.4.18.54.21h0a21.25,21.25,0,0,0,3.4.67h.18a1.92,1.92,0,0,0,.63-.06.59.59,0,0,0,.21-.1l.1-.08.06,0,.07-.05.1-.07c.28-.19.62-.39,1-.59l.13-.07,0,0,.11,0,.22-.11.24-.12.24-.12.15-.07a12.74,12.74,0,0,1,1.52-.59h0l.12,0h.06l.16,0h.09a.31.31,0,0,1,.21,0,17.87,17.87,0,0,1,1,1.54l.06.1-.25.63,1.75,3.73.11.24.34.13L37.63,32.91h0l-.71-3-.05-.24-.45-1.92Z"/><path class="cls-3" d="M35.36,27.55a8.08,8.08,0,0,1-4.81,5.78l-.19.07-.3.1h0l-.33.08-.08,0-.21,0-.23,0a19.2,19.2,0,0,1-5.35.12l-.92-.13c-.64-.09-1.27-.2-1.88-.32l-.18,0a17.58,17.58,0,0,1-3.06-.18l.79.1a8,8,0,0,0-1.69,0c-.29.06-.58.14-.87.22l0,0-.55.4-.87.64-.11.08c-1.21.88-2.73,2-3,2.22,0,0,0,0-.06,0a2.23,2.23,0,0,1-.35.33A7,7,0,0,1,11,38.45a1.07,1.07,0,0,0-.09.34c0,.36-.73.86-1,1-.7.23-1.19-.15-1.95.09a23.47,23.47,0,0,0,1.45,2.93c.13.2,1.82,3.71,1.95,3.9.09-.16.18-.33.28-.49h0c.17-1.37-.47-7.06-.3-7.68a3.44,3.44,0,0,1,2.59-2.83c1.84-.49,5.22,3.25,6.11,3.45l.11,0A12.33,12.33,0,0,0,22.57,39L19,35.26h0l-.05,0-1.32-.8a8,8,0,0,1,2.61-.2c1.37.18,5.44,5.34,7.29,5.87l.08,0,.4.1.06-.11c-.1-.06-4.37-4.16-4.66-5.08-.15-.47.53-.46,1.25-.33.2,1,2.85,3.21,2.93,3.28h0c.15,0,2,2.67,2.17,2.7-.39-1.75-4.19-4.9-4.58-5.87.51.13.94.27.94.27a19.41,19.41,0,0,1,4.75.71c1.92.7,3.58,4.76,3.11,5.52a.59.59,0,0,0,.21-.1l.1-.08.06,0,.07-.05.1-.07c.28-.19.62-.39,1-.59l.13-.07,0,0,.11,0,.22-.11.24-.12.24-.12.15-.07A3.46,3.46,0,0,1,35.3,39c-1.46-1.46-4.83-4.11-4.83-4.11s3.24,2.51,4.89,3.46a3.88,3.88,0,0,0,2.72.88h0l.12,0h.06l.16,0h.09c.16-1.4.75-2.64,1.06-1.4v0l.18.75-.18-.74a6.33,6.33,0,0,1,.1,2.94l.06.1-.25.63c.17-.21.46.06.73.43a21,21,0,0,1,1,3.3l.11.24.34.13L37.63,32.91h0l-.71-3-.05-.24-.45-1.92Z"/><path class="cls-4" d="M33.29,41.37h0a1,1,0,0,0,.33-1.24c-.52-1.07-3.57-3.05-3.57-3.05s2.87,2.48,3.16,3.42a1,1,0,0,1-.1.86Z"/><path class="cls-5" d="M37.63,32.91l-.71-3c-.81.61,1.38,7.72,1.4,7.86C38.33,37.61,37.08,31.11,37.63,32.91Z"/><path class="cls-5" d="M36.65,38.06c0-.05-3-3.74-3.54-4.42C33,31.43,35.69,29,36,28.94s.92.69.92.69l-.45-1.92-1.06-.16a8.08,8.08,0,0,1-4.81,5.78l-.49.17C32.57,32.8,36.58,38,36.65,38.06Z"/><path class="cls-5" d="M18.94,35.26l-.05,0a10.31,10.31,0,0,0-3.36-1.31l-.87.64C15.59,34,18.84,35.22,18.94,35.26Z"/><polygon class="cls-6" points="43.09 18.68 28.74 30.04 22.3 23.45 38.11 10.94 43.09 18.68"/><path class="cls-7" d="M53.69,22.42c-.81-1.75-4.38-5.41-5.46-5.59-.08,0-.59,0-2,1.06-.31.25-.62.51-.89.76L46.44,20l.35.45-.44.35-.43.34c2.88,3.11,4.37,4.42,4.14,4.2l2.5,1.13.44-.36.36.45,1.19,1.51C54.88,27.64,54.34,23.84,53.69,22.42Z"/><path class="cls-8" d="M27.71,33.67l-.14-.22Z"/><path class="cls-8" d="M27.87,33.88a1.71,1.71,0,0,0-.11-.14A1.71,1.71,0,0,1,27.87,33.88Z"/><polygon class="cls-8" points="21.9 23.44 21.9 23.44 21.9 23.44 21.9 23.44"/><path class="cls-6" d="M58.81,22.49l0,.22Z"/><path class="cls-6" d="M58.73,22.16a1.6,1.6,0,0,1,.05.21A1.6,1.6,0,0,0,58.73,22.16Z"/><path class="cls-6" d="M41.89,15.08,42,15Z"/><path class="cls-6" d="M42.83,14.16c.06-.05.11-.11.18-.16S42.89,14.11,42.83,14.16Z"/><path class="cls-6" d="M43.07,13.94l.18-.17Z"/><path class="cls-6" d="M57,29.09l-.06.09Z"/><path class="cls-6" d="M42.6,14.38l.17-.17Z"/><path class="cls-6" d="M58.89,23.16c0,.1,0,.21,0,.31C58.9,23.37,58.9,23.26,58.89,23.16Z"/><path class="cls-6" d="M57,29a.35.35,0,0,1-.05.08A.35.35,0,0,0,57,29Z"/><path class="cls-6" d="M58.86,22.83a1.79,1.79,0,0,1,0,.23A1.79,1.79,0,0,0,58.86,22.83Z"/><path class="cls-6" d="M44.71,12.57l.13-.09Z"/><path class="cls-6" d="M43.59,13.47l.18-.15Z"/><path class="cls-6" d="M43.87,13.24l.18-.15Z"/><path class="cls-6" d="M58.63,21.82a1.42,1.42,0,0,1,.07.22A1.42,1.42,0,0,0,58.63,21.82Z"/><path class="cls-6" d="M45.1,18.12,45,18.2h0c.27-.25.58-.51.9-.76a4.09,4.09,0,0,1,2.42-1.18c1.36.24,5.05,4.15,5.88,5.92a3.75,3.75,0,0,1,0,2.72h0v0a.18.18,0,0,1,0,0h0c0,.06,0,.12-.07.17a.88.88,0,0,1,0,.15l-.07.16-.06.14,0,0a4.72,4.72,0,0,0-.28,1.76l0,0,.36.45-.21.17a1.5,1.5,0,0,0,.81.77c2.41.78,3.75-3.31,4.06-3.47a9.38,9.38,0,0,0,.18-1.06,6.5,6.5,0,0,0-.55-2.13,26.07,26.07,0,0,0-4.16-5.52,21,21,0,0,1,1.94,2.65s-4.22-4.88-5.6-5.75a10.66,10.66,0,0,1,1.9,1.33c-1.7-1.61-3.34-2.83-4.3-3a6.93,6.93,0,0,0-3.44.84l-.3.23C41.86,14.77,45.61,17.66,45.1,18.12Zm9.36,8.3a5.75,5.75,0,0,0,.09-4.63C56,23.76,54.46,26.42,54.46,26.42ZM57,26.19a7.55,7.55,0,0,0-.55-5.93C58.56,22.71,57,26.19,57,26.19Zm-.7-5.06s-6.07-7.07-8.06-8.32C52.92,15.3,56.33,21.13,56.33,21.13Zm-3.39-2.51s-4.59-4.53-6-5.28C50.25,14.8,52.94,18.62,52.94,18.62Z"/><path class="cls-6" d="M48,11.08h0Z"/><path class="cls-6" d="M53.5,26.36l0,.07A.43.43,0,0,0,53.5,26.36Z"/><path class="cls-6" d="M53.62,26.16a.41.41,0,0,0,0,.09A.41.41,0,0,1,53.62,26.16Z"/><path class="cls-6" d="M53.24,26.73l0,0Z"/><path class="cls-6" d="M53.74,25.93l-.05.11Z"/><path class="cls-6" d="M53.39,26.53l0,0Z"/><path class="cls-6" d="M47.75,11.09h0Z"/><path class="cls-6" d="M47.29,11.17l.1,0Z"/><path class="cls-6" d="M46.08,11.68l.11-.06Z"/><path class="cls-6" d="M46.33,11.55l.11-.05Z"/><path class="cls-6" d="M42,14.92l.14-.13Z"/><path class="cls-6" d="M46.57,11.43l.11,0Z"/><path class="cls-6" d="M46.82,11.33l.1,0Z"/><path class="cls-6" d="M45.83,11.82l.1-.06Z"/><path class="cls-6" d="M45,12.39l.13-.09Z"/><path class="cls-6" d="M57.71,27.82a1.62,1.62,0,0,0-.1.18A1.62,1.62,0,0,1,57.71,27.82Z"/><path class="cls-6" d="M45.46,12.05l.13-.08Z"/><path class="cls-6" d="M47.52,11.12h0Z"/><path class="cls-6" d="M45.21,12.22l.13-.09Z"/><path class="cls-6" d="M44.29,12.89l-.13.12.18-.15Z"/><path class="cls-6" d="M41.53,15.46v0Z"/><path class="cls-6" d="M42.39,14.58l.17-.16Z"/><path class="cls-6" d="M57.58,28.06a1,1,0,0,1-.1.17A1,1,0,0,0,57.58,28.06Z"/><path class="cls-6" d="M47.06,11.24l.1,0Z"/><path class="cls-6" d="M57.46,28.27l-.22.39Z"/><path class="cls-6" d="M57.84,27.54l-.1.22Z"/><path class="cls-6" d="M57.22,28.69a.83.83,0,0,0-.08.12A.83.83,0,0,1,57.22,28.69Z"/><path class="cls-6" d="M58.46,21.4c0,.1.1.21.14.31C58.56,21.61,58.51,21.5,58.46,21.4Z"/><path class="cls-6" d="M57.11,28.86l-.06.09Z"/><path class="cls-6" d="M41.55,15.43l.32-.33Z"/><path class="cls-6" d="M58.89,23.89l0,.29Z"/><path class="cls-6" d="M43.32,13.71l.19-.16Z"/><path class="cls-6" d="M58.9,23.5c0,.11,0,.23,0,.34C58.9,23.73,58.9,23.61,58.9,23.5Z"/><path class="cls-6" d="M58.35,26.34l-.09.23Z"/><path class="cls-6" d="M53.87,25.67a.61.61,0,0,0,0,.12A.61.61,0,0,1,53.87,25.67Z"/><path class="cls-6" d="M58.23,26.65l-.09.24Z"/><path class="cls-6" d="M42.2,14.77s.1-.11.16-.16S42.25,14.72,42.2,14.77Z"/><path class="cls-6" d="M58.11,27c-.08.19-.16.38-.25.56C58,27.33,58,27.14,58.11,27Z"/><path class="cls-6" d="M58.47,26l-.09.27Z"/><path class="cls-6" d="M58.67,25.28c0,.11-.05.22-.08.33C58.62,25.5,58.64,25.39,58.67,25.28Z"/><path class="cls-6" d="M58.58,25.61c0,.11-.06.23-.1.34C58.52,25.84,58.55,25.72,58.58,25.61Z"/><path class="cls-9" d="M54.19,24.9c0,.06,0,.12-.07.17S54.17,25,54.19,24.9Z"/><path class="cls-9" d="M53.92,25.56l0,0v0Z"/><path class="cls-9" d="M54.07,25.22l-.07.16Z"/><path class="cls-9" d="M53.24,26.73l.06-.07.07-.09,0,0a.61.61,0,0,0,.07-.1l0-.07.07-.11a.41.41,0,0,1,0-.09.75.75,0,0,1,.07-.12l.05-.11.08-.14a.61.61,0,0,1,0-.12l.06-.12c.11-.32.22-.56.26-.65a3.75,3.75,0,0,0,0-2.72c-.83-1.77-4.52-5.68-5.88-5.92a4.09,4.09,0,0,0-2.42,1.18c-.32.25-.63.51-.9.76l.36.45c.27-.25.58-.51.89-.76,1.38-1.1,1.89-1.08,2-1.06,1.08.18,4.65,3.84,5.46,5.59.65,1.42-.52,3.46-.84,3.89l.36.46h0Z"/><path class="cls-10" d="M52.39,14.78a16.3,16.3,0,0,1,1.76,1.77,26.07,26.07,0,0,1,4.16,5.52,6.5,6.5,0,0,1,.55,2.13h0v0l0-.29v-.05c0-.11,0-.23,0-.34v0c0-.1,0-.21,0-.31s0-.06,0-.1a1.79,1.79,0,0,0,0-.23s0-.08,0-.12l0-.22,0-.12a1.6,1.6,0,0,0-.05-.21l0-.12a1.42,1.42,0,0,0-.07-.22l0-.11c0-.1-.09-.21-.14-.31C57,18.31,50.61,11.51,48.25,11.1l-.2,0h-.3l-.13,0h-.1l-.13,0-.1,0-.13,0-.1,0-.14,0-.1,0-.14.06-.11,0-.13.07-.11.05-.14.07-.11.06-.15.08-.1.06-.24.15-.13.08-.12.08-.13.09-.12.08-.13.09-.12.09-.13.09a.18.18,0,0,1-.07,0h0a6.93,6.93,0,0,1,3.44-.84C49.05,12,50.69,13.17,52.39,14.78Z"/><path class="cls-9" d="M54.19,24.9a.18.18,0,0,0,0,0Z"/><path class="cls-9" d="M53.92,25.56h0l-.06.12a.61.61,0,0,0,0,.12l-.08.14-.05.11a.75.75,0,0,0-.07.12.41.41,0,0,0,0,.09l-.07.11a.43.43,0,0,1,0,.07.61.61,0,0,1-.07.1l0,0-.07.09-.06.07,0,0h0l.43.55A4.72,4.72,0,0,1,53.92,25.56Z"/><path class="cls-9" d="M54.62,28.73a1.5,1.5,0,0,1-.81-.77l-.24.19-.28.22Q55,29.95,57,31.61c-.18-.75-.4-2-.06-2.43l.06-.09,0,0A.35.35,0,0,0,57,29l0,0,.06-.09,0-.05a.83.83,0,0,1,.08-.12l0,0,.22-.39,0,0a1,1,0,0,0,.1-.17l0-.06a1.62,1.62,0,0,1,.1-.18l0-.06.1-.22,0,0c.09-.18.17-.37.25-.56l0-.06.09-.24,0-.08.09-.23,0-.08.09-.27v0c0-.11.07-.23.1-.34h0c0-.11,0-.22.08-.33v0h0C58.37,25.42,57,29.51,54.62,28.73Z"/><path class="cls-9" d="M53.94,25.52l.06-.14.07-.16a.88.88,0,0,0,0-.15c0-.05.05-.11.07-.17h0c0,.09-.15.33-.26.65Z"/><path class="cls-9" d="M48.35,10.54c-1.11-.19-2.55.43-4.41,1.9a27.37,27.37,0,0,0-2.83,2.63c.14.24.31.49.48.75.47.7,1,1.48,1.69,2.28l.57-.45.44-.35.34.42.38.48.09-.08c.51-.46-3.24-3.35-.75-5.27l.3-.23h0a.18.18,0,0,0,.07,0l.13-.09.12-.09.13-.09.12-.08.13-.09.12-.08.13-.08.24-.15.1-.06.15-.08.11-.06.14-.07.11-.05.13-.07.11,0,.14-.06.1,0,.14,0,.1,0,.13,0,.1,0,.13,0h.1l.13,0h.3l.2,0c2.36.41,8.78,7.21,10.21,10.3,0,.1.1.21.14.31l0,.11a1.42,1.42,0,0,1,.07.22l0,.12a1.6,1.6,0,0,1,.05.21l0,.12,0,.22s0,.08,0,.12a1.79,1.79,0,0,1,0,.23s0,.07,0,.1,0,.21,0,.31v0c0,.11,0,.23,0,.34v.05l0,.29v0h0a9.38,9.38,0,0,1-.18,1.06h0v0c0,.11-.05.22-.08.33h0c0,.11-.06.23-.1.34v0l-.09.27,0,.08-.09.23,0,.08-.09.24,0,.06c-.08.19-.16.38-.25.56l0,0-.1.22,0,.06a1.62,1.62,0,0,0-.1.18l0,.06a1,1,0,0,1-.1.17l0,0-.22.39,0,0a.83.83,0,0,0-.08.12l0,.05-.06.09,0,0a.35.35,0,0,1-.05.08l0,0-.06.09c-.34.45-.12,1.68.06,2.43l.77.66L57.65,32a5.36,5.36,0,0,1-.3-2.52s3.34-4.68,1.63-8.37C57.56,18.08,51.08,11,48.35,10.54ZM44.16,13l.13-.12.05,0Z"/><path class="cls-9" d="M57,26.19s1.53-3.48-.55-5.93A7.55,7.55,0,0,1,57,26.19Z"/><path class="cls-9" d="M54.46,26.42s1.53-2.66.09-4.63A5.75,5.75,0,0,1,54.46,26.42Z"/><path class="cls-9" d="M50.49,13.45c1.38.87,5.6,5.75,5.6,5.75a21,21,0,0,0-1.94-2.65,16.3,16.3,0,0,0-1.76-1.77A10.66,10.66,0,0,0,50.49,13.45Z"/><path class="cls-10" d="M48.27,12.81c2,1.25,8.06,8.32,8.06,8.32S52.92,15.3,48.27,12.81Z"/><path class="cls-9" d="M46.9,13.34c1.45.75,6,5.28,6,5.28S50.25,14.8,46.9,13.34Z"/><path class="cls-6" d="M38.33,40.21c.32.51.59,1,.77,1.33-.33-.35-.67-.74-1-1.15l0,0A31.07,31.07,0,0,1,41,45.6c.63-.37,1.26-.77,1.88-1.16l-3.3-5.19Z"/><path class="cls-6" d="M39.36,26.34l5.47,6.25,1.51-1.19C45,29.52,42,26,41.2,24.88Z"/><path class="cls-6" d="M37.22,28a40.85,40.85,0,0,1,2.92,4.48c-1.07-1.17-2.23-2.63-3.35-4.14l-1.45,1.16c1.22,1.71,4.18,5.18,5.16,6.49l3.89-3.08-5.25-6.42Z"/><path class="cls-6" d="M44.51,22.26l.32.39-.38-.34L42.07,24.2l5.61,6.13,1.81-1.43L45.1,24.24l4.74,4.39,1.46-1.16c-1.4-1.36-4.52-4.54-5.83-6Z"/><path class="cls-6" d="M41.22,24.87c.7,1,3.73,4.45,5.26,6.41l.76-.6-5.39-6.31Z"/><path class="cls-6" d="M34.93,29.84l-1,.75,5.21,6.46,1.06-.83C39.22,35,36.22,31.7,34.93,29.84Z"/><path class="cls-6" d="M44.11,35.63c1.37,1.67,2.2,2.54,4.08,4.69l-.35.28c-1.62-1.92-2.3-2.76-3.85-4.88l-1,.76,4.19,4.91c.43-.33.85-.65,1.27-1l.73-.58-3.89-5.16Z"/><path class="cls-6" d="M40.11,38.79l3.7,5c.84-.56,1.67-1.14,2.48-1.73l-3.48-5.42Z"/><path class="cls-6" d="M47.48,33c1.89,2.38,2.78,3.45,4,4.79l-.35.28c-1-1.16-1.88-2.33-3.82-4.9l-1.32,1,4.18,4.89c.72-.61,1.44-1.23,2.14-1.87l-4-4.88Z"/><path class="cls-6" d="M48.9,31.84l4.22,4.57q.91-.87,1.8-1.77l-4.15-4.28Z"/><path class="cls-6" d="M33.86,30.69,32.34,31.9c1.06,1.39,4,4.84,5.21,6.46l1.26-1Z"/><path class="cls-6" d="M51.5,29.78l4.61,3.62,1.1-1.2c-1.18-1-2.17-1.46-4.38-3.47Z"/><path class="cls-9" d="M38.51,47c-.7-1.38-.92-2.45-2.36-5.06l-.46.36c1.07,1.93,1.2,2.79,2.32,5l.18-.1Z"/><path class="cls-9" d="M45.47,21.51c1.31,1.42,4.43,4.6,5.83,6l.46-.36c-1.54-1.48-4.62-4.65-5.84-6Z"/><path class="cls-9" d="M57,31.61Q55,29.95,53.29,28.37l-.46.36c2.21,2,3.2,2.47,4.38,3.47.08-.1.17-.19.25-.28l.14-.15c-.28-.23.4.74.12.5Z"/><path class="cls-10" d="M36.15,41.93c1.44,2.61,1.66,3.68,2.36,5.06.82-.44,1.64-.91,2.45-1.39a31.07,31.07,0,0,0-2.89-5.19Z"/><path class="cls-10" d="M30,33.78c.21.31,1.35,0,1.66.45a.87.87,0,0,1,.86.29,5.43,5.43,0,0,0,1.06.94,10.18,10.18,0,0,1,1.21,1.07,3.66,3.66,0,0,1,1.09,2.86.93.93,0,0,1-.21.42l0,0,1.46-1.16c-1.23-1.69-4.1-5.17-5-6.59Z"/><path class="cls-10" d="M23.64,22.52h0l-1.17.92h0c1.38.84,4.41,4.37,6,6.36l1.11-.88c-.17-.22-.35-.42-.52-.63-.83-1-1.46-2.72.39-5.69-.13-.07-2.31-2.73-2.43-2.81Z"/><path class="cls-9" d="M50.77,30.36l4.15,4.28c.4-.41.8-.82,1.19-1.24L51.5,29.78Z"/><polygon class="cls-9" points="49.49 28.9 49.84 28.63 45.1 24.24 49.49 28.9"/><polygon class="cls-9" points="39.29 21.21 39.35 21.16 38.25 19.93 39.29 21.21"/><path class="cls-9" d="M48.29,32.32l4,4.88.85-.79L48.9,31.84Z"/><polygon class="cls-9" points="41.85 24.37 47.24 30.68 47.68 30.33 42.07 24.2 41.85 24.37"/><polygon class="cls-9" points="36.67 23.28 36.74 23.23 35.67 21.97 36.67 23.28"/><polygon class="cls-9" points="39.14 26.52 44.39 32.94 44.83 32.59 39.36 26.34 39.14 26.52"/><path class="cls-9" d="M45.34,34.66l3.89,5.16.9-.75L46,34.18Z"/><path class="cls-9" d="M42.81,36.66l3.48,5.42.94-.69L43,36.48Z"/><path class="cls-9" d="M39.54,39.25l3.3,5.19,1-.63-3.7-5Z"/><polygon class="cls-9" points="33.96 30.57 33.84 30.67 38.81 37.35 39.2 37.05 33.96 30.57"/><path class="cls-9" d="M38.33,40.21l-.24.18c.34.41.68.8,1,1.15C38.92,41.18,38.65,40.72,38.33,40.21Z"/><path class="cls-9" d="M32.3,31.84l-.28.22C33,33.49,35.87,37,37.11,38.7l.44-.34C36.37,36.73,33.37,33.25,32.3,31.84Z"/><path class="cls-9" d="M40.14,32.51A40.85,40.85,0,0,0,37.22,28l-.43.34C37.91,29.88,39.07,31.34,40.14,32.51Z"/><path class="cls-9" d="M34.44,25.05l.37-.29c-.59-.79-4.79-6.41-5.3-7.08l-.29.14C29.69,18.54,33.85,24.21,34.44,25.05Z"/><path class="cls-9" d="M38.05,22.19l.22-.17c-.74-1.15-4.12-5.69-5.16-7.08a4,4,0,0,1-.34.23C33.69,16.5,37.06,21,38.05,22.19Z"/><path class="cls-9" d="M41.76,19.26,42,19C41.23,18,37.39,13,36.64,12a2.32,2.32,0,0,1-.22.41C37.12,13.31,40.94,18.25,41.76,19.26Z"/><path class="cls-9" d="M44.45,22.31l.38.34-.32-.39Z"/><path class="cls-10" d="M33,26.18a29,29,0,0,1-1.89-3.13h0a30.19,30.19,0,0,0,1.63,3.33Z"/><path class="cls-10" d="M35.34,29.53l-.41.31c1.29,1.86,4.29,5.2,5.32,6.38l.25-.2C39.52,34.71,36.56,31.24,35.34,29.53Z"/><path class="cls-10" d="M47.84,40.6l.35-.28c-1.88-2.15-2.71-3-4.08-4.69l-.12.09C45.54,37.84,46.22,38.68,47.84,40.6Z"/><path class="cls-10" d="M41.2,24.88C42,26,45,29.52,46.34,31.4l.14-.12c-1.53-2-4.56-5.45-5.26-6.41Z"/><path class="cls-10" d="M51.09,38l.35-.28c-1.18-1.34-2.07-2.41-4-4.79l-.21.17C49.21,35.7,50.11,36.87,51.09,38Z"/><polygon class="cls-6" points="37.33 25.7 28.97 32.59 29.02 32.65 45.44 19.66 44.78 18.83 37.93 24.62 44.46 18.43 34.75 26.13 28.44 31.92 28.6 32.12 37.33 25.7"/><path class="cls-9" d="M32.34,31.9l1.52-1.21.12-.1,1-.75.41-.31,1.45-1.16.43-.34,1.92-1.51.22-.18,1.84-1.46h0l.63-.5.22-.17,2.38-1.89.06,0,1-.75.45-.36.43-.34.44-.35L46.44,20l-1.07-1.36L45,18.2h0l-.38-.48-.36-.45-.45.36-.56.44-.46.36L42,19l-.27.22-2.41,1.9-.06.05-1,.81-.22.17-1.31,1-.07.05-1.86,1.48-.37.29L33,26.18l-.26.2-3.22,2.55-1.11.88-.46.36-.56.44L27,31l.36.45L29,33.57l.11.14.35.45.45-.36.25-.2.17-.13.46-.36,1.26-1Zm-4,.14-.26-.62-.28-.36h0l16.41-13h0l.28.36.32.4.66.83.55.7-16.41,13-.56-.7L29,32.59l-.37-.47-.16-.2Z"/><polygon class="cls-10" points="34.75 26.13 44.46 18.43 44.18 18.07 44.18 18.07 27.77 31.06 27.77 31.06 28.05 31.42 34.75 26.13"/><rect class="cls-9" x="27.02" y="26.07" width="21.06" height="1.18" transform="translate(-8.44 29.05) rotate(-38.35)"/><polygon class="cls-9" points="34.75 26.13 28.05 31.42 28.31 32.04 28.44 31.92 34.75 26.13"/><polygon class="cls-9" points="37.93 24.62 44.78 18.83 44.46 18.43 37.93 24.62"/><polygon class="cls-10" points="37.33 25.7 28.6 32.12 28.97 32.59 37.33 25.7"/><polygon class="cls-6" points="54.05 28.84 53.32 27.92 45.74 34.33 52.98 27.48 42.23 35.99 35.25 42.4 35.43 42.63 45.09 35.52 35.84 43.14 35.9 43.21 54.05 28.84"/><path class="cls-9" d="M37.6,43.85l1.93-1.52,0,0,.23-.18,1.21-1,.57-.46,2.71-2.13.22-.18,1-.76.12-.09,1.22-1,.61-.48,1.32-1.05.22-.17.81-.64.61-.48,1.87-1.48L53,31.7l1.33-1.05.46-.36.28-.22.24-.19.21-.17-.36-.45v0l-.44-.55-.36-.46-1.19-1.5-.36-.45-.44.36-.8.63-.46.36-1.46,1.16-.35.27-1.81,1.43-.44.35-.76.6-.14.11-1.51,1.2-.44.35-3.89,3.08-.25.19-1,.84-.39.3-1.26,1-.44.35L35.4,40l-.46.36-.79.64-.45.35.35.45,2,2.53.35.45.45-.35.28-.23Zm-1.71-.64,0-.07-.41-.51-.18-.23-.43-.55-.32-.4L52.66,27.09l.32.39.34.44.73.92.61.78L36.51,44Z"/><polygon class="cls-10" points="42.23 35.99 52.98 27.48 52.66 27.09 34.5 41.45 34.82 41.85 42.23 35.99"/><rect class="cls-9" x="33.7" y="35.92" width="23.15" height="0.99" transform="translate(-12.82 35.96) rotate(-38.35)"/><polygon class="cls-9" points="42.23 35.99 34.82 41.85 35.25 42.4 42.23 35.99"/><polygon class="cls-9" points="45.74 34.33 53.32 27.92 52.98 27.48 45.74 34.33"/><polygon class="cls-10" points="45.09 35.52 35.43 42.63 35.84 43.14 45.09 35.52"/><path class="cls-6" d="M57.88,34.12c-2,2.3-11.31,8.62-11.28,8.45h0l.17-.13a72.16,72.16,0,0,1-8.31,5.24c5.22-1.5,6.87-1.16,19.6-11,1.13-1.18,2.24-2.4,3.29-3.66C60.76,32.69,59.4,32.36,57.88,34.12Z"/><path class="cls-6" d="M48.12,45.25l-.46.33Z"/><path class="cls-6" d="M55.31,39.34l-.42.39Z"/><path class="cls-6" d="M44.8,47.51l-.45.28Z"/><path class="cls-6" d="M59.31,31.65h0Z"/><path class="cls-6" d="M37.53,49.87v0Z"/><path class="cls-6" d="M37.5,48.91h0Z"/><path class="cls-6" d="M46.32,46.51l-.07.05Z"/><path class="cls-6" d="M53.74,40.77l-.13.12Z"/><path class="cls-6" d="M37.46,49.24v0Z"/><path class="cls-6" d="M58.68,31.77l0,0Z"/><path class="cls-6" d="M58.38,31.9l0,0Z"/><path class="cls-6" d="M59,31.68h0Z"/><path class="cls-6" d="M43.33,48.42l-.54.33Z"/><path class="cls-6" d="M58.14,32.06l0,0,0,0Z"/><path class="cls-6" d="M41.82,49.32l-.56.31Z"/><path class="cls-6" d="M50.76,43.26l.2-.16-.5.39Z"/><path class="cls-6" d="M56.62,38.09l-.46.45Z"/><path class="cls-6" d="M60.2,31.88l0,0Z"/><path class="cls-6" d="M52.3,42l-.41.35Z"/><path class="cls-6" d="M59.59,31.68h0Z"/><path class="cls-6" d="M59.9,31.75l.05,0Z"/><path class="cls-6" d="M38.17,47.86h0l0,0Z"/><path class="cls-6" d="M57.86,36.85l-.45.45Z"/><path class="cls-6" d="M37.73,48.36l0,0Z"/><path class="cls-6" d="M40.22,50.21l-.48.26Z"/><path class="cls-6" d="M49.58,44.17l-.52.39Z"/><path class="cls-6" d="M37.59,48.63v0Z"/><path class="cls-6" d="M37.92,48.1l0,0Z"/><path class="cls-6" d="M37.47,49.56v0Z"/><path class="cls-6" d="M53.77,36.58l.41-.4Z"/><path class="cls-6" d="M56.71,33.6l-.39.41Z"/><path class="cls-6" d="M48.34,41.25l-.37.29Z"/><path class="cls-6" d="M52.49,37.78c.06-.07.13-.13.19-.19S52.55,37.71,52.49,37.78Z"/><path class="cls-6" d="M49.39,40.42c.13-.1.26-.2.38-.31C49.65,40.22,49.52,40.32,49.39,40.42Z"/><path class="cls-6" d="M50.89,39.18l.25-.21Z"/><path class="cls-6" d="M55.48,34.89l-.44.44Z"/><path class="cls-9" d="M57.21,32.2l-1.1,1.2c-.39.42-.79.83-1.19,1.24q-.89.9-1.8,1.77l-.85.79c-.7.64-1.42,1.26-2.14,1.87l-.9.75-.73.58c-.42.34-.84.66-1.27,1l-.94.69c-.81.59-1.64,1.17-2.48,1.73l-1,.63c-.62.39-1.25.79-1.88,1.16-.81.48-1.63.95-2.45,1.39l-.32.18-.18.1-.19.14a2.45,2.45,0,0,0-.69,3l.26.52.3.59.25.51.52-.25a74.18,74.18,0,0,0,12.66-8.07A73.47,73.47,0,0,0,61.88,33.24l.37-.44-.44-.37-.6-.5-.36-.3a2.45,2.45,0,0,0-3.07,0l-.18.15-.14.15C57.38,32,57.29,32.1,57.21,32.2Zm2.38-.52h0l.26.07.05,0,.25.11,0,0,.25.17.95.8-.09.11h0c-1.05,1.26-2.16,2.48-3.29,3.66l0,0-.22.23-.45.45c-.26.27-.53.53-.79.79l-.46.45c-.28.27-.56.54-.85.8l-.42.39c-.38.35-.76.7-1.15,1l-.13.12c-.43.38-.87.75-1.31,1.11l-.41.35L51,43.1l-.2.16-.3.23-.88.68-.52.39-.94.69-.46.33-1.34.93-.07.05c-.48.32-1,.64-1.45.95l-.45.28-1,.63-.54.33-1,.57-.56.31c-.34.2-.69.39-1,.58l-.48.26c-.51.27-1,.54-1.54.8-.19-.37-.37-.75-.56-1.12a1.36,1.36,0,0,1-.11-.28v0a1.28,1.28,0,0,1-.05-.27v-.05a1.22,1.22,0,0,1,0-.27v-.05c0-.09,0-.18,0-.28h0a2.76,2.76,0,0,1,.08-.27v0a2,2,0,0,1,.13-.25l0,0a1.77,1.77,0,0,1,.16-.22l0,0a1.8,1.8,0,0,1,.2-.19h0a1.78,1.78,0,0,1,.27-.17,72.16,72.16,0,0,0,8.31-5.24l1.2-.9.37-.29c.36-.27.7-.55,1-.83.13-.1.26-.2.38-.31.38-.3.75-.62,1.12-.93l.25-.21,1.35-1.19c.06-.07.13-.13.19-.19.37-.33.73-.67,1.09-1l.41-.4.86-.85.44-.44.84-.88.39-.41c.4-.43.79-.86,1.18-1.3a2.39,2.39,0,0,1,.23-.22l0,0h0l.24-.16,0,0a1.45,1.45,0,0,1,.26-.11l0,0,.27-.07h0l.27,0h0A1.27,1.27,0,0,1,59.59,31.68Z"/><path class="cls-10" d="M59,31.68h0l-.27.07,0,0a1.45,1.45,0,0,0-.26.11l0,0-.24.16,0,0a2.39,2.39,0,0,0-.23.22c-.39.44-.78.87-1.18,1.3l-.39.41-.84.88-.44.44-.86.85-.41.4c-.36.34-.72.68-1.09,1-.06.06-.13.12-.19.19L51.14,39l-.25.21c-.37.31-.74.63-1.12.93-.12.11-.25.21-.38.31-.35.28-.69.56-1,.83l-.37.29-1.2.9-.17.13h0c0,.17,9.27-6.15,11.28-8.45,1.52-1.76,2.88-1.43,3.47-1.14h0l.09-.11-.95-.8-.25-.17,0,0L60,31.77l-.05,0-.26-.07h0a1.27,1.27,0,0,0-.28,0h0Z"/><path class="cls-9" d="M38.46,47.68a1.78,1.78,0,0,0-.27.17l0,0a1.8,1.8,0,0,0-.2.19l0,0a1.77,1.77,0,0,0-.16.22l0,0a2,2,0,0,0-.13.25v0a2.76,2.76,0,0,0-.08.27h0c0,.1,0,.19,0,.28v.05a1.22,1.22,0,0,0,0,.27v.05a1.28,1.28,0,0,0,.05.27v0a1.36,1.36,0,0,0,.11.28c.19.37.37.75.56,1.12.52-.26,1-.53,1.54-.8l.48-.26c.35-.19.7-.38,1-.58l.56-.31,1-.57.54-.33,1-.63.45-.28c.49-.31,1-.63,1.45-.95l.07-.05,1.34-.93.46-.33.94-.69.52-.39.88-.68.5-.39.93-.75L52.3,42c.44-.36.88-.73,1.31-1.11l.13-.12c.39-.34.77-.69,1.15-1l.42-.39c.29-.26.57-.53.85-.8l.46-.45c.26-.26.53-.52.79-.79l.45-.45.22-.23,0,0C45.33,46.52,43.68,46.18,38.46,47.68Z"/><path class="cls-8" d="M37.71,7.65c0,.09.1.17.15.27C37.81,7.82,37.76,7.74,37.71,7.65Z"/><path class="cls-8" d="M37.69,11.47a1.36,1.36,0,0,0-.11-.25A1.36,1.36,0,0,1,37.69,11.47Z"/><polygon class="cls-8" points="34.11 15.16 34.12 15.16 34.12 15.16 34.11 15.16"/><path class="cls-9" d="M38.21,10.56,24.11,21.41l-.95.75-1,.83-.24.19,0,.26h0v0l0,.3.25.16,0,0c1.21.76,4.15,4.14,5.77,6.22l.46-.36c-1.55-2-4.58-5.52-6-6.36h0l1.17-.92h0l1.29-1h0l13.26-10.4A34.42,34.42,0,0,1,40,14.16a25,25,0,0,0,2.91,4.33l.46-.36c-.64-.8-1.22-1.64-1.69-2.35-.17-.25-.34-.5-.48-.74-.49-.81-2.39-3.43-2.61-4.06l-.09-.29Z"/><rect class="cls-9" x="53.32" y="26.06" width="0.11" height="1.98" transform="translate(-5.26 38.96) rotate(-38.35)"/><path class="cls-9" d="M35.11,41a3.13,3.13,0,0,1-1.09.68l-.26-.31a2.61,2.61,0,0,0,2-2.16c.35-1.41-1.31-3-2.35-3.73C31.19,34,30.41,34,29.51,34v-.41c1.1,0,2,.09,4.09,1.56.31.22,3,2.16,2.52,4.17A2.86,2.86,0,0,1,35.11,41Z"/><path class="cls-11" d="M7.6,50.66s-4.39,6.16-2.51,8.06a2.69,2.69,0,0,0,3.14.21C10.61,57.32,7.6,50.66,7.6,50.66Z"/><path class="cls-8" d="M5.53,55.76a2.4,2.4,0,0,0,0,2.06,2,2,0,0,0,1.73,1,1.83,1.83,0,0,1-1.18,0A1.71,1.71,0,0,1,5.11,58,2,2,0,0,1,5,56.79,2,2,0,0,1,5.53,55.76Z"/><path class="cls-11" d="M10,44.51s-2.74,3.84-1.57,5a1.68,1.68,0,0,0,2,.13C11.85,48.67,10,44.51,10,44.51Z"/><path class="cls-8" d="M8.68,47.69a1.54,1.54,0,0,0,0,1.29,1.22,1.22,0,0,0,1.08.62,1.06,1.06,0,0,1-1.31-.51,1.33,1.33,0,0,1-.09-.76A1.21,1.21,0,0,1,8.68,47.69Z"/><path class="cls-11" d="M6.74,47.06S4.8,49.78,5.63,50.62A1.19,1.19,0,0,0,7,50.71C8.07,50,6.74,47.06,6.74,47.06Z"/><path class="cls-8" d="M5.83,49.31a1,1,0,0,0,0,.91c.1.3.43.41.76.45a.79.79,0,0,1-.93-.37A.91.91,0,0,1,5.83,49.31Z"/></g></g></svg>