<svg xmlns="http://www.w3.org/2000/svg" viewBox="0 0 64 64"><defs><style>.cls-1{isolation:isolate;}.cls-2,.cls-5,.cls-7{fill:#1e353a;}.cls-3,.cls-6{fill:#2d4c4d;}.cls-4,.cls-5{opacity:0.3;mix-blend-mode:screen;}.cls-11,.cls-12,.cls-13,.cls-14,.cls-6,.cls-7,.cls-8,.cls-9{fill-rule:evenodd;}.cls-10,.cls-8{fill:#e1803a;}.cls-9{fill:#d07132;}.cls-11{fill:#ef9557;}.cls-12{fill:#feea9d;}.cls-13{fill:#887f31;}.cls-14{fill:#988e33;}</style></defs><g class="cls-1"><g id="Layer_1" data-name="Layer 1"><path class="cls-2" d="M15.06,42.88a1.59,1.59,0,0,0-.35-1.36A2.21,2.21,0,0,0,13.19,41a1.55,1.55,0,0,0-.31-.06.69.69,0,0,0-.72.88c.1.54.63.9,1,1.24s.68,1,1.17.87S15,43.23,15.06,42.88Z"/><path class="cls-3" d="M15.2,39.86a4,4,0,0,0,0-3c-.39-.6-1.45-.6-2.24-.66a4.55,4.55,0,0,0-2-.27c-.53.07-1.8.49-1.67,1.26A5.25,5.25,0,0,0,10.73,40,3.83,3.83,0,0,0,13,41.18,2.16,2.16,0,0,0,15.2,39.86Z"/><path class="cls-2" d="M15.2,39.86s0,0,0-.06a2.3,2.3,0,0,1-3.12,0c-.87-.73-2-2.11-1.16-3.28a2.36,2.36,0,0,1,.6-.58,3.45,3.45,0,0,0-.64,0c-.53.07-1.8.49-1.67,1.26A5.25,5.25,0,0,0,10.73,40,3.83,3.83,0,0,0,13,41.18,2.16,2.16,0,0,0,15.2,39.86Z"/><path class="cls-3" d="M20.25,51.13c-.9-.32-1.82.55-2.34,1.34a4,4,0,0,0-.77,1.24c-.78,2.13,4.63,1.73,5.08-.11C22.46,52.58,21.09,51.43,20.25,51.13Z"/><path class="cls-2" d="M21.73,52.2a1.49,1.49,0,0,1-1,2c-.94.18-2.8,0-3.42-.81-.05.1-.09.2-.13.3-.78,2.13,4.63,1.73,5.08-.11A1.66,1.66,0,0,0,21.73,52.2Z"/><g class="cls-4"><path class="cls-2" d="M19.52,51.84c-.23-.15-.54.14-.7.29a1.51,1.51,0,0,0-.46.7,1.58,1.58,0,0,0-.13.26c-.05.16,0,.45.21.36a1.44,1.44,0,0,0,.53-.38,2.42,2.42,0,0,0,.44-.57C19.48,52.38,19.7,52,19.52,51.84Z"/></g><path class="cls-3" d="M17.13,48.48c-.11-1-.7-2.49-1.85-2.63a3.73,3.73,0,0,0-.67,0,.8.8,0,0,0-.27,0,7.56,7.56,0,0,0-3.87,1.31c-2.37,1.72,1.95,4,3.3,4.46.54.2,2.54,1,3,.34C17.58,50.89,17.26,49.63,17.13,48.48Z"/><path class="cls-2" d="M17.26,49.48a2,2,0,0,1-.22.44c-1,1.46-2.61,1.09-3.83.1s-1.78-2.26-1-3.6a2.61,2.61,0,0,1,.19-.27,7.37,7.37,0,0,0-1.95,1c-2.37,1.72,1.95,4,3.3,4.46.54.2,2.54,1,3,.34A3.18,3.18,0,0,0,17.26,49.48Z"/><ellipse class="cls-5" cx="14.35" cy="46.83" rx="0.86" ry="0.31" transform="translate(-7.66 3.08) rotate(-9.67)"/><path class="cls-6" d="M26.16,14.11a3.33,3.33,0,0,0-.35.77,3,3,0,0,0-3.37,1.46A3.35,3.35,0,0,0,22,17.56a3.6,3.6,0,0,0-3.65,1.82,4,4,0,0,0-.33.69,2.82,2.82,0,0,0-3.52,1.28,3,3,0,0,0,.69,3.85,2.69,2.69,0,0,0-.62.72,2.31,2.31,0,0,0,.57,3,2.31,2.31,0,0,0-.93.93A2.37,2.37,0,0,0,15,33.12l.09.06a9.12,9.12,0,0,1,1.4-1.68,2.6,2.6,0,0,0,.8,3.54,2.48,2.48,0,0,0,3.42-1,2.69,2.69,0,0,0-.11-2.89,1.6,1.6,0,0,0,.26-.21c1,0-.24,2,.31,1.08A3,3,0,0,0,21.5,30a3.35,3.35,0,0,0,2.07-1.61A3.73,3.73,0,0,0,24,25.88,2.93,2.93,0,0,0,27.27,25a3.18,3.18,0,0,0,3.18-1.63A3.33,3.33,0,0,0,29.67,19a3.47,3.47,0,0,0,.94-6.18,3.2,3.2,0,0,0-4.45,1.25Z"/><path class="cls-7" d="M26.16,14.11a3.33,3.33,0,0,0-.35.77,3,3,0,0,0-3.37,1.46A3.35,3.35,0,0,0,22,17.56a3.6,3.6,0,0,0-3.65,1.82,4,4,0,0,0-.33.69,2.82,2.82,0,0,0-3.52,1.28,3,3,0,0,1,3.72,0c1-1.57,2.23-2.39,3.77-2a2.51,2.51,0,0,1,4.46,0l5.67-3.56a3.25,3.25,0,0,0-1.53-3,3.2,3.2,0,0,0-4.45,1.25ZM16.33,30a.52.52,0,0,0,.18.72.5.5,0,0,0,.71-.18.53.53,0,0,0-.18-.73.51.51,0,0,0-.71.19ZM19,22.32a.33.33,0,0,0,.09.46.33.33,0,1,0,.34-.57.29.29,0,0,0-.43.11ZM23,20.12a.39.39,0,0,0,.15.52.37.37,0,0,0,.51-.11A.42.42,0,0,0,23.5,20a.4.4,0,0,0-.53.13Zm-2.28.62a.52.52,0,0,0,.17.72.51.51,0,0,0,.71-.18.53.53,0,0,0-.2-.71.5.5,0,0,0-.68.17ZM19,24.44a.68.68,0,1,0,.92-.24.64.64,0,0,0-.92.24ZM16.15,27a1,1,0,0,0,.35,1.39A1,1,0,0,0,17.85,28a1,1,0,0,0-.35-1.37,1,1,0,0,0-1.35.33Zm.39-3.43a.54.54,0,0,0,.18.72.5.5,0,0,0,.72-.18.54.54,0,0,0-.19-.73.52.52,0,0,0-.71.19Z"/><path class="cls-8" d="M18.12,33l6.66-10.29,6.67-10.3a1.76,1.76,0,0,1,2.31-.6Q39.85,15.27,46.4,19l14.17,8.09a1.89,1.89,0,0,1,.74,2.63l-7.58,11.7-7.57,11.7a1.88,1.88,0,0,1-2.69.39c-4.56-3.34-9-6.54-13.19-9.61L18.52,35.35a1.76,1.76,0,0,1-.4-2.35Z"/><path class="cls-9" d="M60.69,27.2a1.86,1.86,0,0,1,.62,2.55l-7.58,11.7-7.57,11.7a1.86,1.86,0,0,1-2.57.47Z"/><path class="cls-9" d="M18.12,33l6.66-10.29,6.67-10.3a1.76,1.76,0,0,1,2.31-.6Q39.85,15.27,46.4,19l1.26.72C36.93,21.52,27.05,25.18,20.9,37.08l-2.38-1.73a1.76,1.76,0,0,1-.4-2.35Z"/><path class="cls-10" d="M20.34,34.48l.15.24h0a1.35,1.35,0,0,1-.24,1.06h0a2.12,2.12,0,0,1-.3.36,1.48,1.48,0,0,1-.39.31.92.92,0,0,1-1,0L14.92,34a.37.37,0,0,1-.1-.51L30.59,9.18a.35.35,0,0,1,.5-.12l3.68,2.38a1,1,0,0,1,.42.87,1.69,1.69,0,0,1-.12.48,4.11,4.11,0,0,1-.21.42,1.27,1.27,0,0,1-.87.65l-.28,0c-.47,0-1-.09-1.25.26s0,.58.17.92a3.21,3.21,0,0,1,.26.63.64.64,0,0,1,0,.23h0A1.62,1.62,0,0,1,32.68,17a1.64,1.64,0,0,1-.88.68.79.79,0,0,1-.22.05,4,4,0,0,1-.69,0c-.37,0-.74,0-.9.22s0,.6.16.93a3.06,3.06,0,0,1,.26.64.83.83,0,0,1,.06.21h0a1.64,1.64,0,0,1-.27,1.09,1.66,1.66,0,0,1-.88.68l-.22.05a3.09,3.09,0,0,1-.68,0c-.37,0-.75,0-.91.23s0,.6.16.94a4.72,4.72,0,0,1,.27.61l0,.23h0a1.64,1.64,0,0,1-.27,1.09,1.66,1.66,0,0,1-.88.68l-.22.05a5.14,5.14,0,0,1-.68,0c-.37,0-.74,0-.92.24s0,.59.17.93a3.14,3.14,0,0,1,.27.62.87.87,0,0,1,.05.22h0a1.69,1.69,0,0,1-1.15,1.77l-.21,0a3.21,3.21,0,0,1-.69,0c-.37,0-.74,0-.92.23s0,.58.18.92A3.21,3.21,0,0,1,23,31a.79.79,0,0,1,.05.22h0a1.62,1.62,0,0,1-.26,1.08,1.59,1.59,0,0,1-.88.68.87.87,0,0,1-.22.05A3.21,3.21,0,0,1,21,33c-.37,0-.74,0-.91.22s.06.84.27,1.25Z"/><path class="cls-11" d="M28.74,13.78l1.55-2.4a.51.51,0,0,1,.71-.15h0a.52.52,0,0,1,.17.72l-1.55,2.4a.54.54,0,0,1-.73.15h0a.52.52,0,0,1-.15-.72Zm-12,18.58L27.31,16a.52.52,0,0,1,.72-.17h0a.53.53,0,0,1,.16.74L17.6,32.93a.53.53,0,0,1-.73.14h0a.5.5,0,0,1-.15-.71Z"/><path class="cls-12" d="M31.08,26.38a7.52,7.52,0,1,1,2.22,10.4,7.52,7.52,0,0,1-2.22-10.4Z"/><path class="cls-12" d="M42.63,40.78,48.94,31a.58.58,0,0,1,.81-.17h0a.57.57,0,0,1,.17.8l-6.31,9.75a.57.57,0,0,1-.81.17h0a.58.58,0,0,1-.17-.8Zm2.31,1.5,6.31-9.75a.58.58,0,0,1,.81-.18h0a.57.57,0,0,1,.16.8L45.91,42.9a.56.56,0,0,1-.79.18h0a.57.57,0,0,1-.18-.8Z"/><path class="cls-13" d="M40.75,32.25a5.16,5.16,0,0,0,.33-4.48c-.59-1.52-2-1.34-3.28-3.05a5.16,5.16,0,0,0,3,7.53Z"/><path class="cls-14" d="M40.87,32.17a6,6,0,0,1-4.6,2.5c-1.92.1-2.37-1.46-4.84-2a6,6,0,0,1,9.44-.46Z"/></g></g></svg>