<svg xmlns="http://www.w3.org/2000/svg" viewBox="0 0 65.74 92.54"><defs><style>.cls-1{isolation:isolate;}.cls-2{fill:#68442e;}.cls-3{fill:#b78067;}.cls-15,.cls-4{fill:#80413c;}.cls-4,.cls-6,.cls-7,.cls-8{opacity:0.5;}.cls-4,.cls-5,.cls-6,.cls-8{mix-blend-mode:multiply;}.cls-5,.cls-6,.cls-7{fill:#8a4c41;}.cls-5{opacity:0.3;}.cls-7{mix-blend-mode:screen;}.cls-8{fill:#542f27;}.cls-9{fill:#72be44;}.cls-10{fill:#16a94a;}.cls-11{fill:#70bf44;}.cls-12{fill:#0faa4b;}.cls-13{fill:#dada2d;}.cls-14{fill:#0c6e38;}</style></defs><g class="cls-1"><g id="Layer_1" data-name="Layer 1"><rect class="cls-2" x="7.62" y="41.42" width="51.13" height="51.13" rx="2.64"/><path class="cls-3" d="M58.27,81.48a13.93,13.93,0,0,0-.37-2.33,3.53,3.53,0,0,0,.13-.54,7.71,7.71,0,0,0-.3-3.65,4.49,4.49,0,0,0-.17-.44,19.12,19.12,0,0,0,.52-5.43,20.8,20.8,0,0,0-.33-3.37c.85-1.9,1.12-4.52.28-5.8a13.64,13.64,0,0,0,.67-6.38c-.14-.69-.32-1.39-.53-2.07,0-.08.09-.16.13-.25a5.24,5.24,0,0,0,0-3.06,3.54,3.54,0,0,0-1.62-2.57c.34-1.86-1-3.59-3.3-4.08a12.62,12.62,0,0,0-6.74,1,7.78,7.78,0,0,0-2,1c-.63-.84-3.34-1.5-3.82-1.58a9.67,9.67,0,0,0-8.66,2.75c-1.62-3.43-6.21-3.56-9.54-3.13a12.46,12.46,0,0,0-4.44,1.33,7.14,7.14,0,0,0-.79-.11A4.61,4.61,0,0,0,15,42.41a7.14,7.14,0,0,0-4.17,2.51,5.21,5.21,0,0,0-1.06,5,6.61,6.61,0,0,0-.91,2A7.8,7.8,0,0,0,9,56.38a8.3,8.3,0,0,0-.72,1.73,6.38,6.38,0,0,0,.07,2.6c0,.23-.07.44-.09.68-.3,3.14-1,7.22.43,10.2a4.49,4.49,0,0,0-.94,2.53,8.55,8.55,0,0,0,.9,3.54A9.22,9.22,0,0,0,8.08,79a3.23,3.23,0,0,0,0,1.9c-.84,2.36-1,5.48.92,7a3.28,3.28,0,0,0,.45.31,7.08,7.08,0,0,0,.09,1.2,3.92,3.92,0,0,0,3.73,3.06,5.11,5.11,0,0,0,3.29-.91,1.85,1.85,0,0,0,1,.19,3.41,3.41,0,0,0,1.14-.38c1.33,1,3.08.79,4.66.73a17,17,0,0,0,3.83-.61,4.17,4.17,0,0,0,1.92.23,3.92,3.92,0,0,0,1.13-.36c.18.09.36.19.57.28a4.91,4.91,0,0,0,2.36.63A17.69,17.69,0,0,0,36,91.44a5.71,5.71,0,0,0,2.71.09,13.34,13.34,0,0,0,5.83.79,22.2,22.2,0,0,0,5.13-1,12.12,12.12,0,0,0,3.28-.21,6.12,6.12,0,0,0,4.82-4.36A6.82,6.82,0,0,0,57.94,84,6.27,6.27,0,0,0,58.27,81.48Z"/><path class="cls-4" d="M58.27,81.48a13.93,13.93,0,0,0-.37-2.33,3.53,3.53,0,0,0,.13-.54,7.71,7.71,0,0,0-.3-3.65,4.49,4.49,0,0,0-.17-.44,19.12,19.12,0,0,0,.52-5.43,20.8,20.8,0,0,0-.33-3.37c.85-1.9,1.12-4.52.28-5.8a13.64,13.64,0,0,0,.67-6.38c-.14-.69-.32-1.39-.53-2.07,0-.08.09-.16.13-.25a5.24,5.24,0,0,0,0-3.06,3.54,3.54,0,0,0-1.62-2.57c.34-1.86-1-3.59-3.3-4.08a12.62,12.62,0,0,0-6.74,1,7.78,7.78,0,0,0-2,1c-.63-.84-3.34-1.5-3.82-1.58a9.67,9.67,0,0,0-8.66,2.75c-1.62-3.43-6.21-3.56-9.54-3.13a12.46,12.46,0,0,0-4.44,1.33,7.14,7.14,0,0,0-.79-.11A4.61,4.61,0,0,0,15,42.41a7.14,7.14,0,0,0-4.17,2.51,5.21,5.21,0,0,0-1.06,5,6.61,6.61,0,0,0-.91,2A7.8,7.8,0,0,0,9,56.38a8.3,8.3,0,0,0-.72,1.73,6.38,6.38,0,0,0,.07,2.6c0,.23-.07.44-.09.68-.3,3.14-1,7.22.43,10.2a4.49,4.49,0,0,0-.94,2.53,8.55,8.55,0,0,0,.9,3.54A9.22,9.22,0,0,0,8.08,79a3.23,3.23,0,0,0,0,1.9c-.84,2.36-1,5.48.92,7a3.28,3.28,0,0,0,.45.31,7.08,7.08,0,0,0,.09,1.2,3.92,3.92,0,0,0,3.73,3.06,5.11,5.11,0,0,0,3.29-.91,1.85,1.85,0,0,0,1,.19,3.41,3.41,0,0,0,1.14-.38c1.33,1,3.08.79,4.66.73a17,17,0,0,0,3.83-.61,4.17,4.17,0,0,0,1.92.23,3.92,3.92,0,0,0,1.13-.36c.18.09.36.19.57.28a4.91,4.91,0,0,0,2.36.63A17.69,17.69,0,0,0,36,91.44a5.71,5.71,0,0,0,2.71.09,13.34,13.34,0,0,0,5.83.79,22.2,22.2,0,0,0,5.13-1,12.12,12.12,0,0,0,3.28-.21,6.12,6.12,0,0,0,4.82-4.36A6.82,6.82,0,0,0,57.94,84,6.27,6.27,0,0,0,58.27,81.48ZM48.73,81c-2,1.61-4.92,2.65-7.24,1.68a5.43,5.43,0,0,1-1.43-.87,5.56,5.56,0,0,1-.52.37,13.5,13.5,0,0,1-7.6,2.26c-2.37,0-5.78-.54-7.58-2.57a6.47,6.47,0,0,1-4.49,1.85,3.77,3.77,0,0,1-2-1c-1.77,1.91-4.74,2.89-6.66.72-1.76-2-2-5.82.19-7.2-1.08-.8-.29-3,1.07-3.6a6.5,6.5,0,0,1-2.66-6.91,11.35,11.35,0,0,1,2.38-4.27A2.8,2.8,0,0,1,10,59.91c-.61-1.42-.47-3.19.69-4-2.09-2.06-1-4.28,1-5.22-1.19-1.43-.63-4.15.54-5.48a5.12,5.12,0,0,1,4.23-1.62,5.6,5.6,0,0,1,2.28.63,3.88,3.88,0,0,1,1,.76,6.93,6.93,0,0,1,5.2-1.51,9,9,0,0,1,6.19,3.41A12.89,12.89,0,0,1,34.42,45a7,7,0,0,1,6.75.88,5.86,5.86,0,0,1,4-.39c1.33-.86,2.92-1.44,3.66-1.17,3.28,1.17,1.33,4.76-.63,7a4,4,0,0,1,1.93,1.1c2,2.09,2.21,5.68,1.29,8.6a16,16,0,0,1-3.6,6.07,2.93,2.93,0,0,1,.5,2.82.7.7,0,0,1-.06.19,5.74,5.74,0,0,1,2.79,4.31A7.11,7.11,0,0,1,48.73,81Z"/><path class="cls-4" d="M58.27,81.48a13.93,13.93,0,0,0-.37-2.33,3.53,3.53,0,0,0,.13-.54,7.71,7.71,0,0,0-.3-3.65,4.49,4.49,0,0,0-.17-.44,19.12,19.12,0,0,0,.52-5.43,20.8,20.8,0,0,0-.33-3.37c.85-1.9,1.12-4.52.28-5.8a13.64,13.64,0,0,0,.67-6.38c-.14-.69-.32-1.39-.53-2.07,0-.08.09-.16.13-.25a5.24,5.24,0,0,0,0-3.06,3.54,3.54,0,0,0-1.62-2.57c.33-1.85-1-3.59-3.29-4.08a4.34,4.34,0,0,1,2.29,4.21c2.94,1,2,5.54.41,6.26,2.28,1.37,1.76,4.52.43,7a5,5,0,0,1,.3,5.59,5.5,5.5,0,0,1-.43.64c1.78,2.15,1.26,7.07-.66,9.78,1,1.17,1.54,3.18.51,4.21,1.14,1.37,1.58,3.86.1,5.28.42,2.2-.94,4.85-3.15,5.32a5.36,5.36,0,0,1-4.94-2.07,4.86,4.86,0,0,1-3.56,2.81c-1.93.32-4.29-.88-4.63-3a1.49,1.49,0,0,1-2.55-.26c-1.18,2.45-5.41,3.48-7.25,1-2.22,2.74-8.07,3.15-10,.58a1.79,1.79,0,0,1-3.11-.4c-1,1.64-2.75,2.58-4.51,1.63a2.7,2.7,0,0,1-1.29-3.46,3.15,3.15,0,0,1-3.2-1.8,9.5,9.5,0,0,1-.62-1.49A5,5,0,0,0,9,88a3.28,3.28,0,0,0,.45.31,7.08,7.08,0,0,0,.09,1.2,3.92,3.92,0,0,0,3.73,3.06,5.11,5.11,0,0,0,3.29-.91,1.85,1.85,0,0,0,1,.19,3.41,3.41,0,0,0,1.14-.38c1.33,1,3.08.79,4.66.73a17,17,0,0,0,3.83-.61,4.17,4.17,0,0,0,1.92.23,3.92,3.92,0,0,0,1.13-.36c.18.09.36.19.57.28a4.91,4.91,0,0,0,2.36.63A17.69,17.69,0,0,0,36,91.44a5.71,5.71,0,0,0,2.71.09,13.34,13.34,0,0,0,5.83.79,22.2,22.2,0,0,0,5.13-1,12.12,12.12,0,0,0,3.28-.21,6.12,6.12,0,0,0,4.82-4.36A6.82,6.82,0,0,0,57.94,84,6.27,6.27,0,0,0,58.27,81.48Z"/><path class="cls-5" d="M16.32,47.4a2.46,2.46,0,0,0-1.06.78,3.62,3.62,0,0,0-.33.2c-.41.34-1,.94-.88,1.58a2.27,2.27,0,0,0,2,1.5c1.61.33,3.84-.55,4.43-2.21C21.24,47.15,17.4,47.06,16.32,47.4Z"/><path class="cls-6" d="M24.77,51.41a.7.7,0,0,0-.57-.26,1.48,1.48,0,0,0-1.38.43l-.09.1a1.3,1.3,0,0,0-.62,1.09c.07.56.74.65,1.19.59a1.94,1.94,0,0,0,1.35-1C24.78,52.08,25,51.7,24.77,51.41Z"/><path class="cls-6" d="M33.7,51.6a3.41,3.41,0,0,0-.54.1c-1.37,0-3.23,1.29-3,2.52s2.54,1,3.31.9a3.12,3.12,0,0,0,2.76-2C36.6,51.8,34.56,51.52,33.7,51.6Z"/><path class="cls-6" d="M44.78,49.56a1,1,0,0,0-.74.15c-.42.27-1,1.11-.32,1.31a1.45,1.45,0,0,0,1.56-1.17C45.28,49.54,45,49.49,44.78,49.56Z"/><path class="cls-7" d="M53.74,49.71a3,3,0,0,0-.49.09,1.61,1.61,0,0,0-.39,0,2.24,2.24,0,0,0-2,1.62c-.16,1.1,1.3,1.24,2.09,1.14a2.85,2.85,0,0,0,2.39-1.68C55.63,49.93,54.35,49.67,53.74,49.71Z"/><path class="cls-5" d="M20.08,62.55A3.1,3.1,0,0,0,17,62.6a5,5,0,0,0-.66.32l0,0-.1.06c-.89.54-2,1.57-1.47,2.71.75,1.71,3.81,1.26,4.92.41.62-.47,1.48-1.41,1.37-2.31A1.54,1.54,0,0,0,20.08,62.55Z"/><path class="cls-5" d="M15.15,58.44a1.31,1.31,0,0,0-1-.43,1.06,1.06,0,0,0-.31.05,1.68,1.68,0,0,0-.8.25c-.4.27-.8.95-.37,1.4a1.23,1.23,0,0,0,.91.3,1.85,1.85,0,0,0,1.12-.29C15,59.5,15.45,58.87,15.15,58.44Z"/><path class="cls-6" d="M44.88,65.84a1.85,1.85,0,0,0-.68-.31s0,0,0,0c-1.28-.66-3.34-.28-3.53,1.59-.09.85.82,1.26,1.46,1.33a2.93,2.93,0,0,0,2.31-.6C44.91,67.34,45.53,66.35,44.88,65.84Z"/><path class="cls-6" d="M26.89,59.82c-.39.07-1.16.59-1,1.06,0,.45.54.65,1.05.66s1.47-.19,1.61-.86C28.75,59.78,27.49,59.69,26.89,59.82Z"/><path class="cls-7" d="M46.05,75.41a2.55,2.55,0,0,1-.13-.29c0-.27-.06-.41-.29-.43a.68.68,0,0,0-.52-.12c-.51.06-1.31,1-.82,1.48a.94.94,0,0,0,1.28-.26l.07.06C45.78,76,46.12,75.55,46.05,75.41Z"/><path class="cls-7" d="M54.49,68.72l-.09,0a.73.73,0,0,0-.62-.08c-.88.3-1.78,1.8-.89,2.42A1.12,1.12,0,0,0,54,71a2.23,2.23,0,0,0,1.13-1.59C55.16,68.93,54.9,68.69,54.49,68.72Z"/><path class="cls-7" d="M50.69,67.15h0a.45.45,0,0,0-.36,0c-.49.16-1,1-.49,1.34a.66.66,0,0,0,.62,0,1.24,1.24,0,0,0,.64-.88A.31.31,0,0,0,50.69,67.15Z"/><path class="cls-6" d="M31.43,78.88c-.67-1.72-3.14-1.24-4.39-.72-.67.27-1.89,1.29-1.81,2.15-.18,1.28,1.74,1.74,2.86,1.76a3.45,3.45,0,0,0,2.55-.76A2.23,2.23,0,0,0,31.43,78.88Z"/><path class="cls-7" d="M14,86.56l0,0-.07-.06c-.36-.27-.9,0-1.11.37s-.41.9.12,1a1.27,1.27,0,0,0,1.2-.73C14.21,87,14.34,86.48,14,86.56Z"/><path class="cls-6" d="M13.4,78.23a2.84,2.84,0,0,0-2.12,1,1.55,1.55,0,0,0-.24.19,1.46,1.46,0,0,0-.47,1.26,1.8,1.8,0,0,0,1.35,1.36,2.87,2.87,0,0,0,3.36-1.4C16.1,79.25,14.52,78.28,13.4,78.23ZM13.47,81h0a3.94,3.94,0,0,0,.73-.74l.13.11C14.75,80.77,14,80.93,13.47,81Z"/><path class="cls-7" d="M24,88.38a1.24,1.24,0,0,0-.33,0c-.47-.35-1.2.06-1.45.6a.65.65,0,0,0,.18.9,1.22,1.22,0,0,0,1.17,0c.17-.07.34-.08.51-.15a1.18,1.18,0,0,0,.53-.75C24.66,88.52,24.24,88.46,24,88.38Z"/><path class="cls-7" d="M44.69,86.1l-.06,0h0l-.09-.05c-.14-.06-.32.09-.41.19s-.48.58-.33.85a.41.41,0,0,0,.57.1,1.27,1.27,0,0,0,.64-1C45,86.05,44.83,86,44.69,86.1Z"/><path class="cls-7" d="M54.61,84.12a2.36,2.36,0,0,0-1.23-.3A3.51,3.51,0,0,0,50.2,85c-.87,1.16.14,2,1,2.35a3.06,3.06,0,0,0,3.27-.59C55.26,85.94,55.64,84.78,54.61,84.12Z"/><path class="cls-8" d="M47.6,57.63a4.49,4.49,0,0,0-1.93-.27,13.43,13.43,0,0,0-2.4.37,6.89,6.89,0,0,0-2.33,2,8.5,8.5,0,0,0-1.9-.16,6,6,0,0,0-1.93.49c-.46.17-.86.66-1.31.79a.1.1,0,0,0-.07.06,9.23,9.23,0,0,1,4.37-.67,6.59,6.59,0,0,1,2.57.87.24.24,0,0,0,0-.13,2,2,0,0,0-1.38-1.15,7,7,0,0,1,2.57-1.73A10.55,10.55,0,0,1,47.6,57.63Z"/><path class="cls-8" d="M21,55.8a6.68,6.68,0,0,0-.89,0,4.55,4.55,0,0,0-1.21.29,4.16,4.16,0,0,0-4.46-.75,2.25,2.25,0,0,0-.21.12,3.67,3.67,0,0,0-1.18,1,6.27,6.27,0,0,1,5.16-.1,4,4,0,0,0-.62.42h0a7.33,7.33,0,0,1,2.12-.52,12.13,12.13,0,0,1,2.88.08A7.36,7.36,0,0,0,21,55.8Z"/><path class="cls-8" d="M35.52,47.32a4.11,4.11,0,0,0-2,.9,6.49,6.49,0,0,0-2.34-.35c-1.31,0-2.3.81-3.35,1.4a.19.19,0,0,0-.07.08,7,7,0,0,1,6.18-.05l.45.07c.13,0,.35-.23.26-.34a2.25,2.25,0,0,0-.63-.56A7.3,7.3,0,0,1,35.44,48a9.45,9.45,0,0,1,2.19-.2A8.7,8.7,0,0,0,35.52,47.32Z"/><path class="cls-8" d="M43.75,78a3.94,3.94,0,0,0-1.82-.28,11.27,11.27,0,0,0-2.23.36,6.26,6.26,0,0,0-2.13,2,7.46,7.46,0,0,0-1.76-.18,5.37,5.37,0,0,0-1.78.49c-.42.16-.79.65-1.2.77,0,0,0,0-.06.06a8,8,0,0,1,4-.64,6.09,6.09,0,0,1,2.42.88s0-.09,0-.12a2,2,0,0,0-1.32-1.16,6.17,6.17,0,0,1,2.36-1.71A9.15,9.15,0,0,1,43.75,78Z"/><path class="cls-8" d="M22.32,75.63a5.89,5.89,0,0,0-.84,0,4.42,4.42,0,0,0-1.14.28,3.8,3.8,0,0,0-4.21-.75l-.2.11a3.77,3.77,0,0,0-1.15,1,5.75,5.75,0,0,1,4.9-.09,3.69,3.69,0,0,0-.58.42h0a6.54,6.54,0,0,1,2-.51,10.59,10.59,0,0,1,2.69.09A6.6,6.6,0,0,0,22.32,75.63Z"/><path class="cls-8" d="M34.76,68.8a3.47,3.47,0,0,0-1.75.83,5.16,5.16,0,0,0-2-.31,5.92,5.92,0,0,0-2.89,1.29s0,0-.06.06a5.67,5.67,0,0,1,5.31,0,2.5,2.5,0,0,0,.38.06c.11,0,.3-.21.23-.31a2.05,2.05,0,0,0-.54-.52,7.17,7.17,0,0,1,1.25-.47,7.9,7.9,0,0,1,1.88-.19A7.24,7.24,0,0,0,34.76,68.8Z"/><path class="cls-9" d="M34.69,18.55c-1.32,4.23,1.25,4.87,1.58,6.17.64,2.51-2.68,5.3-4.78,4.15A2.72,2.72,0,0,1,30.24,27c-1.76,2.62-4.47,1.52-5.11-1.28C24.35,22.3,29,16.91,34.69,18.55Z"/><path class="cls-10" d="M25.27,26.16a3.35,3.35,0,0,0,.95,1.15c.1.07.67.49.82.36s-.16-.43-.2-1a2,2,0,0,1,.24-1.21A2.65,2.65,0,0,0,27.19,27c.53,1,1.54.82,1.77.39s-.56-1-.78-1.93a3.65,3.65,0,0,1,1.05-3,3.5,3.5,0,0,0-.81,2.65c.22,1,1.49,2.62,1.86.73,1,2,3.06,1.56,3.35-.61s-1.77-3.11,1.06-6.66c-1.32,4.23,1.25,4.87,1.58,6.17.64,2.51-2.68,5.3-4.78,4.15A2.72,2.72,0,0,1,30.24,27C28.66,29.32,26.22,28.78,25.27,26.16Z"/><path class="cls-11" d="M17.14,19.27c4.68,1.61,3.56,4.34,4.51,5.5,1.83,2.23,6.54,1.09,6.89-1.56a3,3,0,0,0-.88-2.38c3.52.15,4.32-3,2.22-5.44C27.34,12.44,19.43,13.05,17.14,19.27Z"/><path class="cls-12" d="M30.22,15.82a4,4,0,0,1,.4,1.62c0,.13,0,.92-.22,1s-.29-.43-.79-.86A2.18,2.18,0,0,0,28.36,17a2.89,2.89,0,0,1,1.31,1.12c.57,1.14-.28,1.93-.82,1.85s-.51-1.15-1.22-2c-1.12-1.32-3.38-1-3.38-1a4,4,0,0,1,2.92,1c.78.88,1.37,3.07-.57,2.16,1.16,2.24-.62,3.78-2.77,2.61s-1.63-3.65-6.69-3.45c4.68,1.61,3.56,4.34,4.51,5.5,1.83,2.23,6.54,1.09,6.89-1.56a3,3,0,0,0-.88-2.38C30.82,21,31.94,18.42,30.22,15.82Z"/><path class="cls-11" d="M39.6,19.15a14.29,14.29,0,0,1-1.63.36A3.27,3.27,0,0,0,39.6,19.15Z"/><path class="cls-11" d="M44.61,6.12a12.1,12.1,0,0,1-4,6.78c-2,1.69-4.37,2.41-4.52,4.24-.2,2.44,2.42,3.14,4.32,1.43-1.19,3.62,3.78,3.68,5.41,2.81C49.41,19.49,45.89,9.51,44.61,6.12Z"/><path class="cls-13" d="M42.93,16.11a11.7,11.7,0,0,1,2.63-1.77c-.05-.1-1.24.41-1.54.12s.66-1.2,1-2.22.38-2.3-1-4.37a11.41,11.41,0,0,1-3.44,5c-2,1.69-4.37,2.41-4.52,4.24a2.2,2.2,0,0,0,1.15,2.2c.54.24,1,.2,2.33-.19a3.83,3.83,0,0,0,.84-.58,2.45,2.45,0,0,0-.09.32,5.67,5.67,0,0,0,1.36-.07c1.82-.33,4.37-2.47,4.22-2.61a8.17,8.17,0,0,1-1.67,1C42.35,17.91,41.51,17.65,42.93,16.11Z"/><path class="cls-11" d="M39.22,29c5.48-3,12.47-2.73,16.26,2.14h-.14a9.86,9.86,0,0,0-7.41-3.4c-6.65,0-8.9,6.37-8.25,10.92.08,1.43.17.81-.17.84s-.31,1.13-1.13,1.51-2.27-.18-3.05-.77C32.86,38.42,32.72,32.63,39.22,29Z"/><path class="cls-11" d="M55.34,31.19c-4.18.22-5.73,1.24-6.35,2.17-1.12,1.7.79,3.19-.42,6-1.71,4-5.29,3.87-6.68,3.16s-1.71-2.37-2.11-2.85C38.07,27.27,49.64,24.78,55.34,31.19Z"/><path class="cls-14" d="M45.15,34.73c0-3.38,4.74-5.16,8.69-3.41-3.07.36-4.31,1.23-4.85,2-1.12,1.7.79,3.19-.42,6A5.61,5.61,0,0,1,45,42.76a5.29,5.29,0,0,1-1.3.16C45.57,40.81,45.47,37.55,45.15,34.73Z"/><path class="cls-12" d="M55.34,31.19c-.54,0-1,.07-1.5.13-4-1.75-8.69,0-8.69,3.41.32,2.82.42,6.08-1.49,8.19-3.09,0-3.36-2.6-3.88-3.23-2.28,1.38-4.73.56-5.5-2.28a3.21,3.21,0,0,1,.37-2.79c.14,0-.2,1.33.75,2.17.36.32,1,.64,1.24.49.47-.27-.77-1.64-.46-3.56.18-1,.75-1.87,1-1.84s-.13,1,.44,2c.32.6,1,1.32,1.37,1.22.56-.15-.2-1.77.76-3.53a6.13,6.13,0,0,1,3-2.49s-1.27.65-1.31,1.56a.87.87,0,0,0,.47.86c.6.2,1.38-.68,2.42-1.32A10.08,10.08,0,0,1,55.34,31.19Z"/><path class="cls-13" d="M26.21,37.1c8-.88,5-14.25-6-10-1.75.68-4.39,3.77-11.36,3a14.7,14.7,0,0,0,3.9,10c1.48,1.51,4.2,4.28,7.71,3.82C23.71,43.55,27.08,40.23,26.21,37.1Z"/><path class="cls-14" d="M8.88,30.87a12.08,12.08,0,0,0,3.38,5.56c2.09,1.75,5.41,3.33,8.47,2.55,1.91-.33,2.14-2.37,1-3.59,3.06,0,7-.87,9-3,.09,2.62-1.75,4.28-4.27,5,.24,3.39-2.92,6.21-5.92,6.6-3.51.46-6.23-2.31-7.71-3.82A13.63,13.63,0,0,1,8.88,30.87Z"/><path class="cls-11" d="M15.48,32.27a4.84,4.84,0,0,0-3.39-1.86,6,6,0,0,1,3.06.34c1.66.6,1.69,1.38,3.3,1.88,1.12.34,2.64.44,2.93,0s-.73-1.49-1.82-2A7.73,7.73,0,0,0,17.45,30c.05-.22,3.57.07,5.81,1.41,1.24.74,1.66,1.46,1.89,1.36s.12-1.21-.65-2c-1.18-1.29-3.24-1.28-3.19-1.47a4.87,4.87,0,0,1,3.79.55,3.9,3.9,0,0,1,1.48,1.63c1.09-1.79.14-3.64-1.72-4.52a7,7,0,0,1,4.42,1.85c4.28,4.74-2.71,9.28-7.58,6.64,5.16,2,1.48,6.09-2.12,6.65-4.71.73-10.88-5.7-10.71-11.93A8.92,8.92,0,0,0,15.48,32.27Z"/><path class="cls-11" d="M37.4,50.28c.45-3.48-2.37-8.67-17.68-15.87A49.79,49.79,0,0,1,32.61,40.1a7,7,0,0,0-1.5-4.64,12.15,12.15,0,0,1,2.39,3.08A17.67,17.67,0,0,1,35,41.76a28.84,28.84,0,0,1,3.61,3.38,8.86,8.86,0,0,1,2.52,4.13c.7,2.69-1.65,7.2-2.4,10.16a13.43,13.43,0,0,0,.73,8.35l-6.71,1.86C29.42,59.46,36.8,54.85,37.4,50.28Z"/><path class="cls-12" d="M32,63.2a75.67,75.67,0,0,0,4.89-8.3A7.64,7.64,0,0,0,38,49.13c-2-7.76-16.22-14-24.26-16.1A52.36,52.36,0,0,1,32.61,40.1a7.37,7.37,0,0,0,0-.94A5.54,5.54,0,0,1,35,41.75l.38.32a28.71,28.71,0,0,1,3.23,3.07A17.24,17.24,0,0,1,40.29,47a1.69,1.69,0,0,0,0,.23c4.08,7.15-4.93,10-.85,20.53l-6.71,1.86A15.73,15.73,0,0,1,32,63.2Z"/><path class="cls-14" d="M31.1,35.44a12.33,12.33,0,0,1,2.39,3.09A17.11,17.11,0,0,1,35,41.7a24.57,24.57,0,0,0-2.36-2.31A7.25,7.25,0,0,0,31.1,35.44Z"/><path class="cls-14" d="M40.59,3.08A60.83,60.83,0,0,0,34,22.5a18.7,18.7,0,0,0,10.35-11A19.5,19.5,0,0,1,37.4,21.5,22.84,22.84,0,0,1,34,23.73c-1,7.64,0,15.08,4.61,21.39a15.51,15.51,0,0,1,1.12-7.42,19.59,19.59,0,0,1,6.11-7.76S37.41,36.5,40.3,47.23c4.08,7.15-4.92,10-.85,20.53l-1.16.39c-2.5-3.86-2.56-6.74-2.15-8.66.74-3.54,3.33-4.94,3-8.89a12.59,12.59,0,0,0-3.1-7.25c-2.32-2.61-4.7-9.15-4-16.87a18.29,18.29,0,0,0-10.68-8.79,23,23,0,0,1,7.46,3.54,24.76,24.76,0,0,1,3.43,2.87,43.84,43.84,0,0,1,1.22-5.94A52.36,52.36,0,0,1,40.59,3.08Z"/><path class="cls-15" d="M16.75,64.84c.71-.55.31-1.25,1.06-2.35.05-.08,1.09-1.57,2.41-1.52.91,0,1.21.78,1.65.59.67-.28,0-2,1.12-3.52A2.45,2.45,0,0,1,25.5,57a2,2,0,0,1,2.61-1.34c.54.28.39.75.94,1.27.9.88,2.66,0,3.08,2.91a6.1,6.1,0,0,1,3.28-2.11c2.84-.54,3.28,1.1,6,3.45a3.5,3.5,0,0,1,6,.57,4,4,0,0,1,3.25,4.12,2.8,2.8,0,0,1,2.52,4.67l-38.13.23c-2.26-1.6-1.79-4.46-.44-5.33C15.45,64.85,16,65.38,16.75,64.84Z"/><path class="cls-7" d="M31.29,62.12c0,.41-.35.45-.49,1-.22.88.52,1.31.24,1.73s-1.66-.1-2.88.6c-.59.35-.44.58-1.22,1.07a2.68,2.68,0,0,1-2.05.61,1.57,1.57,0,0,1-1.11-1.3c-.1-.91.95-1.21.85-2s-1.61-1-1.71-1.79,1.23-1.86,2.32-1.78c.9.06,1,.84,2,.92s1.27-.69,2.26-.6S31.3,61.46,31.29,62.12Z"/><path class="cls-7" d="M27.64,57.87c.79,0,1.45.66.82,1.51a1.16,1.16,0,0,1-1,.47c-.37-.05-.32-.37-.81-.59s-.71,0-1-.23a.69.69,0,0,1,0-1c.24-.13.56.1.73,0s-.12-.45.07-.69C26.9,56.8,27.9,57.21,27.64,57.87Z"/><path class="cls-7" d="M34.62,64.42c.2.63-.5,1.08-.21,1.48s.52.14.87.49A.93.93,0,0,1,35,67.94c-.42.19-.66-.07-1.16.11s-.36.37-.77.51a1.9,1.9,0,0,1-1.29-.11c-.36-.16-.31-.28-.82-.6s-.6-.23-.84-.44a1.16,1.16,0,0,1-.3-1.48c.29-.37,1.74-.57,2-.87s.08-.46.31-.81a1.53,1.53,0,0,1,1.43-.63A1.3,1.3,0,0,1,34.62,64.42Z"/><path class="cls-7" d="M46.54,69.15c-.45-.15-.35-.86-.74-.94s-.43.3-.91.48a2.18,2.18,0,0,1-2.19-.54c-.44-.49-.61-1.37-.11-1.72a1.4,1.4,0,0,1,1.46.07c.52.35.38.92.74,1S45.4,67,46,67c.81-.07,1.92,1,1.66,1.64A1,1,0,0,1,46.54,69.15Z"/><path class="cls-7" d="M21.87,66.87c.42.23.46,1.09,0,1.62-1,1.13-3.88.17-3.76-.56,0-.29.59-.29.73-.69s-.33-.61-.21-.93A1.6,1.6,0,0,1,20.52,66c.22.27-.26.73,0,.94S21.44,66.63,21.87,66.87Z"/><path class="cls-7" d="M20.9,62.48c.36.28.09.62.47,1.07s1.23.38,1.55.88a1.08,1.08,0,0,1-.46,1.46c-.34.12-.73,0-1.26-.27-.76-.32-.76-.55-1.29-.7-.78-.22-1.2.17-1.55-.07s-.36-1.6.53-2.2A2,2,0,0,1,20.9,62.48Z"/><path class="cls-7" d="M38.76,60.31c.26.52-.29,2.33.05,2.93s1.1.51,1.46,1.16c.71,1.31-1.07,2.11-2.07,1.5-.34-.21-.24-.46-.59-.63-.71-.36-1.8.74-1.93-1.21,0-.47.12-.51,0-.73-.22-.53-1.1-.36-1.56-.93a1.08,1.08,0,0,1,.06-1.46c.4-.26,1,.13,1.29-.13s-.18-.75.1-1.14C36.08,59,38.24,59.3,38.76,60.31Z"/><path class="cls-7" d="M45.12,62c.58.56.43,1.11,1,1.3s.85-.25,1.66-.13c2.6.41,1,3.43-.94,3.81a2.55,2.55,0,0,1-2.21-.46c-.41-.43-.12-.8-.57-1.18s-.84-.18-1.66-.47c-.22-.08-1.27-.45-1.53-1.18C40.28,62.07,43.17,60.06,45.12,62Z"/></g></g></svg>