<svg xmlns="http://www.w3.org/2000/svg" viewBox="0 0 65.74 92.54"><defs><style>.cls-1{isolation:isolate;}.cls-2{fill:#68442e;}.cls-3{fill:#b78067;}.cls-4{fill:#80413c;}.cls-4,.cls-6,.cls-7,.cls-8{opacity:0.5;}.cls-12,.cls-15,.cls-30,.cls-4,.cls-5,.cls-6,.cls-8{mix-blend-mode:multiply;}.cls-5,.cls-6,.cls-7{fill:#8a4c41;}.cls-34,.cls-5{opacity:0.3;}.cls-34,.cls-7{mix-blend-mode:screen;}.cls-8{fill:#542f27;}.cls-9{fill:#72c163;}.cls-10{fill:#056635;}.cls-11{fill:#009556;}.cls-12,.cls-22{fill:#00a963;}.cls-12{opacity:0.4;}.cls-13{fill:#a6cf3d;}.cls-14{fill:#a0ad5d;}.cls-15{fill:#b8be52;}.cls-16{fill:#69b445;}.cls-17{fill:#0ca24a;}.cls-18{fill:#4a833d;}.cls-19{fill:#fff;}.cls-20{fill:#02925d;}.cls-21{fill:#02643d;}.cls-23{fill:#018d5a;}.cls-24{fill:#9ccd5e;}.cls-25{fill:#029555;}.cls-26{fill:#037d48;}.cls-27{fill:#04663f;}.cls-28{fill:#83c460;}.cls-29{fill:#cb8a54;}.cls-30{opacity:0.2;}.cls-31{fill:#814e2b;}.cls-32{fill:#a87244;}.cls-33{fill:#6a3e1b;}.cls-35{fill:#8b572f;}</style></defs><g class="cls-1"><g id="Layer_1" data-name="Layer 1"><rect class="cls-2" x="7.62" y="41.42" width="51.13" height="51.13" rx="2.64"/><path class="cls-3" d="M58.27,81.48a13.93,13.93,0,0,0-.37-2.33,3.53,3.53,0,0,0,.13-.54,7.71,7.71,0,0,0-.3-3.65,4.49,4.49,0,0,0-.17-.44,19.12,19.12,0,0,0,.52-5.43,20.8,20.8,0,0,0-.33-3.37c.85-1.9,1.12-4.52.28-5.8a13.64,13.64,0,0,0,.67-6.38c-.14-.69-.32-1.39-.53-2.07,0-.08.09-.16.13-.25a5.24,5.24,0,0,0,0-3.06,3.54,3.54,0,0,0-1.62-2.57c.34-1.86-1-3.59-3.3-4.08a12.62,12.62,0,0,0-6.74,1,7.78,7.78,0,0,0-2,1c-.63-.84-3.34-1.5-3.82-1.58a9.67,9.67,0,0,0-8.66,2.75c-1.62-3.43-6.21-3.56-9.54-3.13a12.46,12.46,0,0,0-4.44,1.33,7.14,7.14,0,0,0-.79-.11A4.61,4.61,0,0,0,15,42.41a7.14,7.14,0,0,0-4.17,2.51,5.21,5.21,0,0,0-1.06,5,6.61,6.61,0,0,0-.91,2A7.8,7.8,0,0,0,9,56.38a8.3,8.3,0,0,0-.72,1.73,6.38,6.38,0,0,0,.07,2.6c0,.23-.07.44-.09.68-.3,3.14-1,7.22.43,10.2a4.49,4.49,0,0,0-.94,2.53,8.55,8.55,0,0,0,.9,3.54A9.22,9.22,0,0,0,8.08,79a3.23,3.23,0,0,0,0,1.9c-.84,2.36-1,5.48.92,7a3.28,3.28,0,0,0,.45.31,7.08,7.08,0,0,0,.09,1.2,3.92,3.92,0,0,0,3.73,3.06,5.11,5.11,0,0,0,3.29-.91,1.85,1.85,0,0,0,1,.19,3.41,3.41,0,0,0,1.14-.38c1.33,1,3.08.79,4.66.73a17,17,0,0,0,3.83-.61,4.17,4.17,0,0,0,1.92.23,3.92,3.92,0,0,0,1.13-.36c.18.09.36.19.57.28a4.91,4.91,0,0,0,2.36.63A17.69,17.69,0,0,0,36,91.44a5.71,5.71,0,0,0,2.71.09,13.34,13.34,0,0,0,5.83.79,22.2,22.2,0,0,0,5.13-1,12.12,12.12,0,0,0,3.28-.21,6.12,6.12,0,0,0,4.82-4.36A6.82,6.82,0,0,0,57.94,84,6.27,6.27,0,0,0,58.27,81.48Z"/><path class="cls-4" d="M58.27,81.48a13.93,13.93,0,0,0-.37-2.33,3.53,3.53,0,0,0,.13-.54,7.71,7.71,0,0,0-.3-3.65,4.49,4.49,0,0,0-.17-.44,19.12,19.12,0,0,0,.52-5.43,20.8,20.8,0,0,0-.33-3.37c.85-1.9,1.12-4.52.28-5.8a13.64,13.64,0,0,0,.67-6.38c-.14-.69-.32-1.39-.53-2.07,0-.08.09-.16.13-.25a5.24,5.24,0,0,0,0-3.06,3.54,3.54,0,0,0-1.62-2.57c.34-1.86-1-3.59-3.3-4.08a12.62,12.62,0,0,0-6.74,1,7.78,7.78,0,0,0-2,1c-.63-.84-3.34-1.5-3.82-1.58a9.67,9.67,0,0,0-8.66,2.75c-1.62-3.43-6.21-3.56-9.54-3.13a12.46,12.46,0,0,0-4.44,1.33,7.14,7.14,0,0,0-.79-.11A4.61,4.61,0,0,0,15,42.41a7.14,7.14,0,0,0-4.17,2.51,5.21,5.21,0,0,0-1.06,5,6.61,6.61,0,0,0-.91,2A7.8,7.8,0,0,0,9,56.38a8.3,8.3,0,0,0-.72,1.73,6.38,6.38,0,0,0,.07,2.6c0,.23-.07.44-.09.68-.3,3.14-1,7.22.43,10.2a4.49,4.49,0,0,0-.94,2.53,8.55,8.55,0,0,0,.9,3.54A9.22,9.22,0,0,0,8.08,79a3.23,3.23,0,0,0,0,1.9c-.84,2.36-1,5.48.92,7a3.28,3.28,0,0,0,.45.31,7.08,7.08,0,0,0,.09,1.2,3.92,3.92,0,0,0,3.73,3.06,5.11,5.11,0,0,0,3.29-.91,1.85,1.85,0,0,0,1,.19,3.41,3.41,0,0,0,1.14-.38c1.33,1,3.08.79,4.66.73a17,17,0,0,0,3.83-.61,4.17,4.17,0,0,0,1.92.23,3.92,3.92,0,0,0,1.13-.36c.18.09.36.19.57.28a4.91,4.91,0,0,0,2.36.63A17.69,17.69,0,0,0,36,91.44a5.71,5.71,0,0,0,2.71.09,13.34,13.34,0,0,0,5.83.79,22.2,22.2,0,0,0,5.13-1,12.12,12.12,0,0,0,3.28-.21,6.12,6.12,0,0,0,4.82-4.36A6.82,6.82,0,0,0,57.94,84,6.27,6.27,0,0,0,58.27,81.48ZM48.73,81c-2,1.61-4.92,2.65-7.24,1.68a5.43,5.43,0,0,1-1.43-.87,5.56,5.56,0,0,1-.52.37,13.5,13.5,0,0,1-7.6,2.26c-2.37,0-5.78-.54-7.58-2.57a6.47,6.47,0,0,1-4.49,1.85,3.77,3.77,0,0,1-2-1c-1.77,1.91-4.74,2.89-6.66.72-1.76-2-2-5.82.19-7.2-1.08-.8-.29-3,1.07-3.6a6.5,6.5,0,0,1-2.66-6.91,11.35,11.35,0,0,1,2.38-4.27A2.8,2.8,0,0,1,10,59.91c-.61-1.42-.47-3.19.69-4-2.09-2.06-1-4.28,1-5.22-1.19-1.43-.63-4.15.54-5.48a5.12,5.12,0,0,1,4.23-1.62,5.6,5.6,0,0,1,2.28.63,3.88,3.88,0,0,1,1,.76,6.93,6.93,0,0,1,5.2-1.51,9,9,0,0,1,6.19,3.41A12.89,12.89,0,0,1,34.42,45a7,7,0,0,1,6.75.88,5.86,5.86,0,0,1,4-.39c1.33-.86,2.92-1.44,3.66-1.17,3.28,1.17,1.33,4.76-.63,7a4,4,0,0,1,1.93,1.1c2,2.09,2.21,5.68,1.29,8.6a16,16,0,0,1-3.6,6.07,2.93,2.93,0,0,1,.5,2.82.7.7,0,0,1-.06.19,5.74,5.74,0,0,1,2.79,4.31A7.11,7.11,0,0,1,48.73,81Z"/><path class="cls-4" d="M58.27,81.48a13.93,13.93,0,0,0-.37-2.33,3.53,3.53,0,0,0,.13-.54,7.71,7.71,0,0,0-.3-3.65,4.49,4.49,0,0,0-.17-.44,19.12,19.12,0,0,0,.52-5.43,20.8,20.8,0,0,0-.33-3.37c.85-1.9,1.12-4.52.28-5.8a13.64,13.64,0,0,0,.67-6.38c-.14-.69-.32-1.39-.53-2.07,0-.08.09-.16.13-.25a5.24,5.24,0,0,0,0-3.06,3.54,3.54,0,0,0-1.62-2.57c.33-1.85-1-3.59-3.29-4.08a4.34,4.34,0,0,1,2.29,4.21c2.94,1,2,5.54.41,6.26,2.28,1.37,1.76,4.52.43,7a5,5,0,0,1,.3,5.59,5.5,5.5,0,0,1-.43.64c1.78,2.15,1.26,7.07-.66,9.78,1,1.17,1.54,3.18.51,4.21,1.14,1.37,1.58,3.86.1,5.28.42,2.2-.94,4.85-3.15,5.32a5.36,5.36,0,0,1-4.94-2.07,4.86,4.86,0,0,1-3.56,2.81c-1.93.32-4.29-.88-4.63-3a1.49,1.49,0,0,1-2.55-.26c-1.18,2.45-5.41,3.48-7.25,1-2.22,2.74-8.07,3.15-10,.58a1.79,1.79,0,0,1-3.11-.4c-1,1.64-2.75,2.58-4.51,1.63a2.7,2.7,0,0,1-1.29-3.46,3.15,3.15,0,0,1-3.2-1.8,9.5,9.5,0,0,1-.62-1.49A5,5,0,0,0,9,88a3.28,3.28,0,0,0,.45.31,7.08,7.08,0,0,0,.09,1.2,3.92,3.92,0,0,0,3.73,3.06,5.11,5.11,0,0,0,3.29-.91,1.85,1.85,0,0,0,1,.19,3.41,3.41,0,0,0,1.14-.38c1.33,1,3.08.79,4.66.73a17,17,0,0,0,3.83-.61,4.17,4.17,0,0,0,1.92.23,3.92,3.92,0,0,0,1.13-.36c.18.09.36.19.57.28a4.91,4.91,0,0,0,2.36.63A17.69,17.69,0,0,0,36,91.44a5.71,5.71,0,0,0,2.71.09,13.34,13.34,0,0,0,5.83.79,22.2,22.2,0,0,0,5.13-1,12.12,12.12,0,0,0,3.28-.21,6.12,6.12,0,0,0,4.82-4.36A6.82,6.82,0,0,0,57.94,84,6.27,6.27,0,0,0,58.27,81.48Z"/><path class="cls-5" d="M16.32,47.4a2.46,2.46,0,0,0-1.06.78,3.62,3.62,0,0,0-.33.2c-.41.34-1,.94-.88,1.58a2.27,2.27,0,0,0,2,1.5c1.61.33,3.84-.55,4.43-2.21C21.24,47.15,17.4,47.06,16.32,47.4Z"/><path class="cls-6" d="M24.77,51.41a.7.7,0,0,0-.57-.26,1.48,1.48,0,0,0-1.38.43l-.09.1a1.3,1.3,0,0,0-.62,1.09c.07.56.74.65,1.19.59a1.94,1.94,0,0,0,1.35-1C24.78,52.08,25,51.7,24.77,51.41Z"/><path class="cls-6" d="M33.7,51.6a3.41,3.41,0,0,0-.54.1c-1.37,0-3.23,1.29-3,2.52s2.54,1,3.31.9a3.12,3.12,0,0,0,2.76-2C36.6,51.8,34.56,51.52,33.7,51.6Z"/><path class="cls-6" d="M44.78,49.56a1,1,0,0,0-.74.15c-.42.27-1,1.11-.32,1.31a1.45,1.45,0,0,0,1.56-1.17C45.28,49.54,45,49.49,44.78,49.56Z"/><path class="cls-7" d="M53.74,49.71a3,3,0,0,0-.49.09,1.61,1.61,0,0,0-.39,0,2.24,2.24,0,0,0-2,1.62c-.16,1.1,1.3,1.24,2.09,1.14a2.85,2.85,0,0,0,2.39-1.68C55.63,49.93,54.35,49.67,53.74,49.71Z"/><path class="cls-5" d="M20.08,62.55A3.1,3.1,0,0,0,17,62.6a5,5,0,0,0-.66.32l0,0-.1.06c-.89.54-2,1.57-1.47,2.71.75,1.71,3.81,1.26,4.92.41.62-.47,1.48-1.41,1.37-2.31A1.54,1.54,0,0,0,20.08,62.55Z"/><path class="cls-5" d="M15.15,58.44a1.31,1.31,0,0,0-1-.43,1.06,1.06,0,0,0-.31.05,1.68,1.68,0,0,0-.8.25c-.4.27-.8.95-.37,1.4a1.23,1.23,0,0,0,.91.3,1.85,1.85,0,0,0,1.12-.29C15,59.5,15.45,58.87,15.15,58.44Z"/><path class="cls-6" d="M44.88,65.84a1.85,1.85,0,0,0-.68-.31s0,0,0,0c-1.28-.66-3.34-.28-3.53,1.59-.09.85.82,1.26,1.46,1.33a2.93,2.93,0,0,0,2.31-.6C44.91,67.34,45.53,66.35,44.88,65.84Z"/><path class="cls-6" d="M26.89,59.82c-.39.07-1.16.59-1,1.06,0,.45.54.65,1.05.66s1.47-.19,1.61-.86C28.75,59.78,27.49,59.69,26.89,59.82Z"/><path class="cls-7" d="M46.05,75.41a2.55,2.55,0,0,1-.13-.29c0-.27-.06-.41-.29-.43a.68.68,0,0,0-.52-.12c-.51.06-1.31,1-.82,1.48a.94.94,0,0,0,1.28-.26l.07.06C45.78,76,46.12,75.55,46.05,75.41Z"/><path class="cls-7" d="M54.49,68.72l-.09,0a.73.73,0,0,0-.62-.08c-.88.3-1.78,1.8-.89,2.42A1.12,1.12,0,0,0,54,71a2.23,2.23,0,0,0,1.13-1.59C55.16,68.93,54.9,68.69,54.49,68.72Z"/><path class="cls-7" d="M50.69,67.15h0a.45.45,0,0,0-.36,0c-.49.16-1,1-.49,1.34a.66.66,0,0,0,.62,0,1.24,1.24,0,0,0,.64-.88A.31.31,0,0,0,50.69,67.15Z"/><path class="cls-6" d="M31.43,78.88c-.67-1.72-3.14-1.24-4.39-.72-.67.27-1.89,1.29-1.81,2.15-.18,1.28,1.74,1.74,2.86,1.76a3.45,3.45,0,0,0,2.55-.76A2.23,2.23,0,0,0,31.43,78.88Z"/><path class="cls-7" d="M14,86.56l0,0-.07-.06c-.36-.27-.9,0-1.11.37s-.41.9.12,1a1.27,1.27,0,0,0,1.2-.73C14.21,87,14.34,86.48,14,86.56Z"/><path class="cls-6" d="M13.4,78.23a2.84,2.84,0,0,0-2.12,1,1.55,1.55,0,0,0-.24.19,1.46,1.46,0,0,0-.47,1.26,1.8,1.8,0,0,0,1.35,1.36,2.87,2.87,0,0,0,3.36-1.4C16.1,79.25,14.52,78.28,13.4,78.23ZM13.47,81h0a3.94,3.94,0,0,0,.73-.74l.13.11C14.75,80.77,14,80.93,13.47,81Z"/><path class="cls-7" d="M24,88.38a1.24,1.24,0,0,0-.33,0c-.47-.35-1.2.06-1.45.6a.65.65,0,0,0,.18.9,1.22,1.22,0,0,0,1.17,0c.17-.07.34-.08.51-.15a1.18,1.18,0,0,0,.53-.75C24.66,88.52,24.24,88.46,24,88.38Z"/><path class="cls-7" d="M44.69,86.1l-.06,0h0l-.09-.05c-.14-.06-.32.09-.41.19s-.48.58-.33.85a.41.41,0,0,0,.57.1,1.27,1.27,0,0,0,.64-1C45,86.05,44.83,86,44.69,86.1Z"/><path class="cls-7" d="M54.61,84.12a2.36,2.36,0,0,0-1.23-.3A3.51,3.51,0,0,0,50.2,85c-.87,1.16.14,2,1,2.35a3.06,3.06,0,0,0,3.27-.59C55.26,85.94,55.64,84.78,54.61,84.12Z"/><path class="cls-8" d="M47.6,57.63a4.49,4.49,0,0,0-1.93-.27,13.43,13.43,0,0,0-2.4.37,6.89,6.89,0,0,0-2.33,2,8.5,8.5,0,0,0-1.9-.16,6,6,0,0,0-1.93.49c-.46.17-.86.66-1.31.79a.1.1,0,0,0-.07.06,9.23,9.23,0,0,1,4.37-.67,6.59,6.59,0,0,1,2.57.87.24.24,0,0,0,0-.13,2,2,0,0,0-1.38-1.15,7,7,0,0,1,2.57-1.73A10.55,10.55,0,0,1,47.6,57.63Z"/><path class="cls-8" d="M21,55.8a6.68,6.68,0,0,0-.89,0,4.55,4.55,0,0,0-1.21.29,4.16,4.16,0,0,0-4.46-.75,2.25,2.25,0,0,0-.21.12,3.67,3.67,0,0,0-1.18,1,6.27,6.27,0,0,1,5.16-.1,4,4,0,0,0-.62.42h0a7.33,7.33,0,0,1,2.12-.52,12.13,12.13,0,0,1,2.88.08A7.36,7.36,0,0,0,21,55.8Z"/><path class="cls-8" d="M35.52,47.32a4.11,4.11,0,0,0-2,.9,6.49,6.49,0,0,0-2.34-.35c-1.31,0-2.3.81-3.35,1.4a.19.19,0,0,0-.07.08,7,7,0,0,1,6.18-.05l.45.07c.13,0,.35-.23.26-.34a2.25,2.25,0,0,0-.63-.56A7.3,7.3,0,0,1,35.44,48a9.45,9.45,0,0,1,2.19-.2A8.7,8.7,0,0,0,35.52,47.32Z"/><path class="cls-8" d="M43.75,78a3.94,3.94,0,0,0-1.82-.28,11.27,11.27,0,0,0-2.23.36,6.26,6.26,0,0,0-2.13,2,7.46,7.46,0,0,0-1.76-.18,5.37,5.37,0,0,0-1.78.49c-.42.16-.79.65-1.2.77,0,0,0,0-.06.06a8,8,0,0,1,4-.64,6.09,6.09,0,0,1,2.42.88s0-.09,0-.12a2,2,0,0,0-1.32-1.16,6.17,6.17,0,0,1,2.36-1.71A9.15,9.15,0,0,1,43.75,78Z"/><path class="cls-8" d="M22.32,75.63a5.89,5.89,0,0,0-.84,0,4.42,4.42,0,0,0-1.14.28,3.8,3.8,0,0,0-4.21-.75l-.2.11a3.77,3.77,0,0,0-1.15,1,5.75,5.75,0,0,1,4.9-.09,3.69,3.69,0,0,0-.58.42h0a6.54,6.54,0,0,1,2-.51,10.59,10.59,0,0,1,2.69.09A6.6,6.6,0,0,0,22.32,75.63Z"/><path class="cls-8" d="M34.76,68.8a3.47,3.47,0,0,0-1.75.83,5.16,5.16,0,0,0-2-.31,5.92,5.92,0,0,0-2.89,1.29s0,0-.06.06a5.67,5.67,0,0,1,5.31,0,2.5,2.5,0,0,0,.38.06c.11,0,.3-.21.23-.31a2.05,2.05,0,0,0-.54-.52,7.17,7.17,0,0,1,1.25-.47,7.9,7.9,0,0,1,1.88-.19A7.24,7.24,0,0,0,34.76,68.8Z"/><path class="cls-9" d="M38.08,36.07a2.6,2.6,0,0,0-1.1.36c-.18.18,0-.15.05-.26s-.1-.13-.56.13-.46.53-.53.54.09-.37-.2,0a1.11,1.11,0,0,0-.23.92,1.52,1.52,0,0,0,0,1.93c.2.24,0-.16.25.11s1,.81,1.17.73-.17-.27.15-.12a1.68,1.68,0,0,0,1.29.09c.51-.18.5-.23.35-.27s.29-.05.76-.05a1.7,1.7,0,0,0,1.08-.47c.32-.25-.09-.17.19-.25a2.84,2.84,0,0,0,.56-.18c.21-.1.06-.31-.14-.56a3.29,3.29,0,0,1-.47-.7,3.43,3.43,0,0,0-.9-.92c-.24-.18.26,0-.09-.3a1.73,1.73,0,0,0-1.1-.46c-.14,0-.06-.06.09-.18S38.36,36,38.08,36.07Z"/><path class="cls-10" d="M37.86,40.74a1.88,1.88,0,0,1-.78-.18.21.21,0,0,1-.12.1.15.15,0,0,1-.09,0,2.48,2.48,0,0,1-1.21-.78h0c-.09.06-.16,0-.24-.1a1.63,1.63,0,0,1,0-2,1.22,1.22,0,0,1,.25-1c.13-.19.19-.24.26-.24l.06,0a1.13,1.13,0,0,1,.45-.39A1.36,1.36,0,0,1,37,36a.15.15,0,0,1,.15.22,3.16,3.16,0,0,1,.94-.24h.22c.47,0,.51.11.53.15a.15.15,0,0,1-.06.17h0a2,2,0,0,1,1,.48c.12.11.18.2.15.29s0,0,0,.05a3.34,3.34,0,0,1,.88.91,3.25,3.25,0,0,0,.46.68c.17.22.3.39.26.55a.24.24,0,0,1-.15.17,2.7,2.7,0,0,1-.36.13l-.21.06c0,.07,0,.14-.17.23a1.79,1.79,0,0,1-1.14.5H38.9c0,.1-.12.17-.5.3A1.44,1.44,0,0,1,37.86,40.74Zm-.92-.45a.46.46,0,0,1,.17.06,1.55,1.55,0,0,0,1.22.09l.27-.1a.15.15,0,0,1,0-.09c0-.1,0-.13.87-.13h0a1.56,1.56,0,0,0,1-.44l.09-.07a.13.13,0,0,1,0-.08c0-.08.08-.1.18-.13l.23-.07a1.74,1.74,0,0,0,.32-.11.05.05,0,0,0,0,0c0-.07-.15-.28-.23-.37a3.24,3.24,0,0,1-.47-.71,3.29,3.29,0,0,0-.87-.88s-.13-.1-.11-.19a.09.09,0,0,1,.06-.07l-.06-.06a1.77,1.77,0,0,0-1-.43h-.09c-.09,0-.12-.06-.12-.08s0-.14.12-.23H38.1a2.55,2.55,0,0,0-1.05.33.21.21,0,0,1-.14.08.12.12,0,0,1-.1,0s-.05-.08.07-.31a3,3,0,0,0-.36.17.87.87,0,0,0-.43.42c0,.06-.06.12-.14.13a.14.14,0,0,1-.1,0h0l0,0a1,1,0,0,0-.21.83.12.12,0,0,1,0,.1,1.42,1.42,0,0,0,0,1.79.1.1,0,0,1,.07,0c.06,0,.11,0,.18.14a2.53,2.53,0,0,0,1,.69s0-.09,0-.12A.11.11,0,0,1,36.94,40.29Z"/><path class="cls-11" d="M35.67,37.76s0,.05,0,.05a9.37,9.37,0,0,1,5.16,1s0,0,0,0C39.34,38,37.4,37.26,35.67,37.76Z"/><path class="cls-12" d="M38,36.08a2.38,2.38,0,0,1,1.18,2c-.06,1.61-1.78,2.23-3.17,2,.31.25.74.51.88.45s-.17-.27.15-.12a1.68,1.68,0,0,0,1.29.09c.51-.18.5-.23.35-.27s.29-.05.76-.05a1.7,1.7,0,0,0,1.08-.47c.32-.25-.09-.17.19-.25a2.84,2.84,0,0,0,.56-.18c.21-.1.06-.31-.14-.56a3.29,3.29,0,0,1-.47-.7,3.43,3.43,0,0,0-.9-.92c-.24-.18.26,0-.09-.3a1.73,1.73,0,0,0-1.1-.46c-.14,0-.06-.06.09-.18s-.33-.16-.61-.13Z"/><path class="cls-13" d="M6.58,34.93a3.83,3.83,0,0,0,4,3.64,3.7,3.7,0,1,0-.11-7.38A3.83,3.83,0,0,0,6.58,34.93Z"/><path class="cls-14" d="M10.51,38.67a3.92,3.92,0,0,1-4-3.73,3.59,3.59,0,0,1,1.15-2.7,4.1,4.1,0,0,1,2.84-1.15h.06a3.8,3.8,0,1,1,.05,7.58Zm0-7.37h0a4,4,0,0,0-2.71,1.09,3.41,3.41,0,0,0-1.08,2.54,3.72,3.72,0,0,0,3.82,3.53h.06a3.59,3.59,0,1,0,0-7.16Z"/><path class="cls-15" d="M8.57,31.68a1.81,1.81,0,0,0,1.25.45c.13,0,.76-.1.63-.34,0-.08-.15-.12-.23-.16a1.53,1.53,0,0,1-.5-.36,5.94,5.94,0,0,1,.75-.08,4.52,4.52,0,0,1,1.49.25.23.23,0,0,0-.08.19.42.42,0,0,0,.33.3,2.13,2.13,0,0,0,.66,0A3.89,3.89,0,0,1,13.92,33a4.32,4.32,0,0,0-1.3-.52s0,.07,0,.08a1.78,1.78,0,0,1,.06,1.8,1.57,1.57,0,0,1-1,1c.4-.87,1.08-2.87-.26-3.12-.55-.1-1.06.32-1.61.27a4.35,4.35,0,0,1-1.65-.47l-.1,0A3.58,3.58,0,0,1,8.57,31.68Z"/><path class="cls-16" d="M11.44,31.68a5.64,5.64,0,0,1-2.1-2c-.39.87,1.18,2.23,1.86,2.19C11.58,31.91,11.56,31.74,11.44,31.68Z"/><path class="cls-17" d="M11.17,32a2.65,2.65,0,0,1-1.73-1.21,1.18,1.18,0,0,1-.2-1.12.1.1,0,0,1,.09-.06.08.08,0,0,1,.09,0,5.72,5.72,0,0,0,2.07,1.94.22.22,0,0,1,.13.23c0,.09-.11.18-.38.18h-.07ZM9.38,30a1.23,1.23,0,0,0,.24.7,2.53,2.53,0,0,0,1.55,1.13h.07a.4.4,0,0,0,.16,0h0A5.56,5.56,0,0,1,9.38,30Z"/><path class="cls-16" d="M11.52,31.93s1.31,1.08.26,3.23C12.54,35,13.39,32.6,11.52,31.93Z"/><path class="cls-17" d="M11.78,35.26a.1.1,0,0,1-.09,0,.11.11,0,0,1,0-.11c1-2-.22-3.09-.23-3.1a.11.11,0,0,1,0-.13.1.1,0,0,1,.13-.05,1.73,1.73,0,0,1,1.19,1.9c-.07.75-.5,1.46-1,1.53Zm.13-3A2.8,2.8,0,0,1,12,34.93a1.91,1.91,0,0,0,.54-1.22A1.58,1.58,0,0,0,11.91,32.24Z"/><path class="cls-16" d="M11.75,32c-.05,0,2.87,1.66,3.31-.55C14.25,32,14,32.26,11.75,32Z"/><path class="cls-17" d="M13.7,32.73a3.55,3.55,0,0,1-2.06-.7.12.12,0,0,1,0-.08.11.11,0,0,1,.08,0,11.18,11.18,0,0,0,1.29.08,2.67,2.67,0,0,0,1.75-.49l.21-.12a.11.11,0,0,1,.11,0,.12.12,0,0,1,0,.11A1.38,1.38,0,0,1,13.7,32.73Zm-1.41-.55a3.8,3.8,0,0,0,1.41.34,1.14,1.14,0,0,0,1.19-.82,2.89,2.89,0,0,1-1.84.51Z"/><path class="cls-16" d="M11.3,31.86a2.84,2.84,0,0,1-3.13-.64C7.85,31.88,9.53,32.89,11.3,31.86Z"/><path class="cls-17" d="M9.75,32.41h0a1.92,1.92,0,0,1-1.62-.69.56.56,0,0,1-.05-.54s.05-.06.08-.06a.14.14,0,0,1,.09,0,2.41,2.41,0,0,0,1.87.83,3.32,3.32,0,0,0,1.14-.21.1.1,0,0,1,.13.05.1.1,0,0,1,0,.14A3.26,3.26,0,0,1,9.75,32.41Zm-1.51-1a.44.44,0,0,0,.07.17,1.73,1.73,0,0,0,1.44.59h0l.25,0A2.61,2.61,0,0,1,8.24,31.44Z"/><path class="cls-16" d="M13,29.06h0Z"/><path class="cls-18" d="M12.08,29.22a1.17,1.17,0,0,1,1-.45c.28,0,0,.22-.06.28h0C12.61,29.35,12,29.52,12.08,29.22Z"/><path class="cls-17" d="M12.23,29.48a.24.24,0,0,1-.22-.09.2.2,0,0,1,0-.2,1.2,1.2,0,0,1,1-.52h.05c.12,0,.19,0,.21.12s0,.17-.22.34A1.6,1.6,0,0,1,12.23,29.48Zm.8-.6a1.05,1.05,0,0,0-.86.39h.06a1.44,1.44,0,0,0,.7-.29l.12-.1Z"/><path class="cls-16" d="M11.39,31.35a10.87,10.87,0,0,1,.69-2.13c-.08.3.53.13.91-.16a4.11,4.11,0,0,0-1.26,2.81C11.73,32.06,11.27,32,11.39,31.35Z"/><path class="cls-17" d="M11.62,32.08a.37.37,0,0,1-.24-.12.8.8,0,0,1-.09-.63,10.32,10.32,0,0,1,.7-2.16.11.11,0,0,1,.13-.05.12.12,0,0,1,.06.13s0,0,.05,0a1.44,1.44,0,0,0,.7-.29.11.11,0,0,1,.15,0,.12.12,0,0,1,0,.15,4,4,0,0,0-1.22,2.74.2.2,0,0,1-.06.14A.21.21,0,0,1,11.62,32.08Zm.46-2.63a12.45,12.45,0,0,0-.59,1.92c-.05.29,0,.41.06.45s.08.05.08.05a4.18,4.18,0,0,1,.89-2.44A.62.62,0,0,1,12.08,29.45Z"/><path class="cls-19" d="M7.47,33a1.13,1.13,0,0,1,.4-.49c.08-.06.23.16.16.23s-.24.31-.36.47S7.43,33.1,7.47,33Z"/><path class="cls-19" d="M7.28,33.43c.07-.1.21.13.17.21a3.7,3.7,0,0,0,.46,3.44c.12.17,0,.13-.13,0A3.17,3.17,0,0,1,7.28,33.43Z"/><path class="cls-13" d="M9.37,62.61a3.82,3.82,0,0,0,4,3.64,3.7,3.7,0,1,0-.1-7.38A3.82,3.82,0,0,0,9.37,62.61Z"/><path class="cls-14" d="M13.3,66.35a3.94,3.94,0,0,1-4-3.74,3.7,3.7,0,0,1,1.15-2.7,4.18,4.18,0,0,1,2.85-1.14h.06a3.8,3.8,0,1,1,0,7.59Zm0-7.38h-.06a4,4,0,0,0-2.7,1.08,3.5,3.5,0,0,0-1.09,2.55,3.73,3.73,0,0,0,3.83,3.53h.06a3.59,3.59,0,1,0,0-7.17Z"/><path class="cls-15" d="M11.35,59.36a1.79,1.79,0,0,0,1.26.44c.12,0,.75-.09.63-.33A.5.5,0,0,0,13,59.3,1.54,1.54,0,0,1,12.5,59a3.84,3.84,0,0,1,.76-.08,4.13,4.13,0,0,1,1.49.25.22.22,0,0,0-.08.19.4.4,0,0,0,.33.29,1.79,1.79,0,0,0,.65,0,3.52,3.52,0,0,1,1,1.09,4.08,4.08,0,0,0-1.3-.52s0,.06,0,.08a1.76,1.76,0,0,1,.05,1.8,1.62,1.62,0,0,1-1,1c.41-.87,1.09-2.87-.25-3.12-.55-.11-1.06.32-1.61.27a4.48,4.48,0,0,1-1.65-.47l-.11-.06A5.69,5.69,0,0,1,11.35,59.36Z"/><path class="cls-16" d="M14.23,59.36a5.62,5.62,0,0,1-2.11-2c-.39.87,1.18,2.23,1.86,2.19C14.37,59.59,14.35,59.42,14.23,59.36Z"/><path class="cls-17" d="M14,59.68a2.69,2.69,0,0,1-1.72-1.22,1.18,1.18,0,0,1-.2-1.12.1.1,0,0,1,.08-.06.11.11,0,0,1,.1,0,5.46,5.46,0,0,0,2.07,1.93.21.21,0,0,1,.12.24c0,.08-.1.18-.38.18H14Zm-1.78-2a1.22,1.22,0,0,0,.23.7A2.51,2.51,0,0,0,14,59.47H14a.54.54,0,0,0,.17,0h0A5.69,5.69,0,0,1,12.17,57.65Z"/><path class="cls-16" d="M14.3,59.6s1.32,1.09.26,3.24C15.33,62.71,16.18,60.28,14.3,59.6Z"/><path class="cls-17" d="M14.56,62.94a.09.09,0,0,1-.08,0,.09.09,0,0,1,0-.11c1-2-.18-3.06-.24-3.1a.13.13,0,0,1,0-.13.1.1,0,0,1,.13-.05,1.72,1.72,0,0,1,1.19,1.89c-.07.76-.51,1.46-.95,1.54Zm.13-3a2.8,2.8,0,0,1,.09,2.69,2,2,0,0,0,.54-1.23A1.56,1.56,0,0,0,14.69,59.92Z"/><path class="cls-16" d="M14.54,59.7c-.06,0,2.87,1.66,3.3-.54C17,59.64,16.79,59.94,14.54,59.7Z"/><path class="cls-17" d="M16.48,60.41a3.59,3.59,0,0,1-2.05-.7s0-.07,0-.08a.11.11,0,0,1,.08,0c.52,0,.94.08,1.29.08a2.71,2.71,0,0,0,1.75-.49l.2-.12a.13.13,0,0,1,.12,0,.15.15,0,0,1,0,.11A1.39,1.39,0,0,1,16.48,60.41Zm-1.41-.55a3.85,3.85,0,0,0,1.41.34,1.15,1.15,0,0,0,1.2-.82,2.89,2.89,0,0,1-1.84.51Z"/><path class="cls-16" d="M14.08,59.54A2.84,2.84,0,0,1,11,58.9C10.64,59.56,12.32,60.57,14.08,59.54Z"/><path class="cls-17" d="M12.53,60.08h0a1.91,1.91,0,0,1-1.62-.69.53.53,0,0,1,0-.54A.08.08,0,0,1,11,58.8s.06,0,.09,0a2.41,2.41,0,0,0,1.87.83A3.16,3.16,0,0,0,14,59.45a.11.11,0,0,1,.14,0,.11.11,0,0,1,0,.14A3.19,3.19,0,0,1,12.53,60.08Zm-1.5-1a.38.38,0,0,0,.06.16,1.73,1.73,0,0,0,1.44.6h0l.26,0A2.61,2.61,0,0,1,11,59.12Z"/><path class="cls-16" d="M15.78,56.74l0,0Z"/><path class="cls-18" d="M14.87,56.9a1.14,1.14,0,0,1,1-.45c.28,0,0,.22-.06.27l0,0C15.4,57,14.78,57.19,14.87,56.9Z"/><path class="cls-17" d="M15,57.16a.27.27,0,0,1-.22-.09.21.21,0,0,1,0-.2,1.18,1.18,0,0,1,1-.52h0c.12,0,.2,0,.22.12s0,.15-.22.34A1.71,1.71,0,0,1,15,57.16Zm.8-.61A1,1,0,0,0,15,57s0,0,0,0a1.41,1.41,0,0,0,.7-.29.44.44,0,0,0,.12-.11Z"/><path class="cls-16" d="M14.18,59a9.56,9.56,0,0,1,.69-2.12c-.09.29.53.13.91-.16a4.11,4.11,0,0,0-1.26,2.81C14.52,59.74,14.05,59.71,14.18,59Z"/><path class="cls-17" d="M14.41,59.75a.32.32,0,0,1-.24-.11.76.76,0,0,1-.1-.63,10.73,10.73,0,0,1,.7-2.16.11.11,0,0,1,.14-.05.13.13,0,0,1,.06.13s0,0,0,0a1.41,1.41,0,0,0,.7-.29.11.11,0,1,1,.14.16,4,4,0,0,0-1.23,2.74.21.21,0,0,1,0,.13A.23.23,0,0,1,14.41,59.75Zm.46-2.62A10.47,10.47,0,0,0,14.28,59a.58.58,0,0,0,.05.46c.06.07.09,0,.09,0a4.24,4.24,0,0,1,.88-2.44A.6.6,0,0,1,14.87,57.13Z"/><path class="cls-19" d="M10.25,60.7a1.15,1.15,0,0,1,.41-.49c.08-.07.22.16.16.23s-.24.31-.37.47S10.22,60.78,10.25,60.7Z"/><path class="cls-19" d="M10.07,61.11c.07-.1.2.13.17.21a3.68,3.68,0,0,0,.46,3.44c.11.17,0,.13-.13-.05A3.17,3.17,0,0,1,10.07,61.11Z"/><path class="cls-13" d="M50.55,62.34a3.95,3.95,0,1,1-3.89-3.74A3.82,3.82,0,0,1,50.55,62.34Z"/><path class="cls-14" d="M46.62,66.08h-.06a3.8,3.8,0,1,1,0-7.58h.06a4.18,4.18,0,0,1,2.85,1.14,3.7,3.7,0,0,1,1.15,2.7A3.94,3.94,0,0,1,46.62,66.08Zm0-7.38a3.59,3.59,0,1,0,0,7.17h.06a3.72,3.72,0,0,0,3.83-3.53,3.46,3.46,0,0,0-1.09-2.55,4,4,0,0,0-2.7-1.09Z"/><path class="cls-15" d="M48.57,59.09a1.77,1.77,0,0,1-1.26.44c-.12,0-.75-.1-.63-.33a.59.59,0,0,1,.24-.17,1.37,1.37,0,0,0,.5-.35,3.77,3.77,0,0,0-.76-.08,4.26,4.26,0,0,0-1.48.25.21.21,0,0,1,.07.19.4.4,0,0,1-.32.29,1.84,1.84,0,0,1-.66,0,3.76,3.76,0,0,0-1.05,1.09,4.08,4.08,0,0,1,1.3-.52s0,.06,0,.08a1.78,1.78,0,0,0,0,1.8,1.62,1.62,0,0,0,1,1c-.4-.87-1.08-2.87.25-3.12.55-.1,1.07.32,1.62.27A4.48,4.48,0,0,0,49,59.48a.6.6,0,0,0,.11-.06A5.69,5.69,0,0,0,48.57,59.09Z"/><path class="cls-16" d="M45.69,59.09a5.62,5.62,0,0,0,2.11-2c.39.87-1.18,2.23-1.86,2.19C45.55,59.32,45.57,59.15,45.69,59.09Z"/><path class="cls-17" d="M46,59.41H45.9c-.28,0-.36-.1-.38-.18a.19.19,0,0,1,.12-.23,5.56,5.56,0,0,0,2.07-1.94.11.11,0,0,1,.1-.05.08.08,0,0,1,.08.07,1.11,1.11,0,0,1-.2,1.11A2.69,2.69,0,0,1,46,59.41Zm0-.21h0a2.51,2.51,0,0,0,1.55-1.12,1.31,1.31,0,0,0,.24-.71,5.62,5.62,0,0,1-2,1.81.42.42,0,0,0,.16,0Z"/><path class="cls-16" d="M45.62,59.33s-1.31,1.09-.26,3.24C44.6,62.44,43.75,60,45.62,59.33Z"/><path class="cls-17" d="M45.36,62.67h0c-.44-.07-.88-.78-1-1.53a1.74,1.74,0,0,1,1.19-1.9.11.11,0,0,1,.13,0,.12.12,0,0,1,0,.14s-1.23,1-.25,3.08a.08.08,0,0,1,0,.07.1.1,0,0,1-.1.1Zm-.13-3a1.56,1.56,0,0,0-.63,1.46,2,2,0,0,0,.54,1.23A2.82,2.82,0,0,1,45.23,59.65Z"/><path class="cls-16" d="M45.39,59.43s-2.87,1.66-3.31-.54C42.89,59.37,43.13,59.67,45.39,59.43Z"/><path class="cls-17" d="M43.44,60.14A1.39,1.39,0,0,1,42,58.91.13.13,0,0,1,42,58.8a.11.11,0,0,1,.11,0l.2.12a2.72,2.72,0,0,0,1.76.49h0c.34,0,.76,0,1.28-.08a.09.09,0,0,1,.1.05.09.09,0,0,1,0,.11A4.28,4.28,0,0,1,43.44,60.14Zm-1.2-1a1.16,1.16,0,0,0,1.2.82,3.8,3.8,0,0,0,1.41-.34l-.76,0h0A2.92,2.92,0,0,1,42.24,59.11Z"/><path class="cls-16" d="M45.84,59.27A2.84,2.84,0,0,0,49,58.63C49.29,59.29,47.61,60.3,45.84,59.27Z"/><path class="cls-17" d="M47.39,59.81a3.16,3.16,0,0,1-1.6-.45.11.11,0,0,1,0-.14.12.12,0,0,1,.14,0,3.23,3.23,0,0,0,1.13.21,2.44,2.44,0,0,0,1.88-.83.12.12,0,0,1,.09,0,.07.07,0,0,1,.07.06.51.51,0,0,1,0,.53A1.91,1.91,0,0,1,47.39,59.81Zm-.25-.22h.25A1.71,1.71,0,0,0,48.83,59a.59.59,0,0,0,.07-.16A2.61,2.61,0,0,1,47.14,59.59Z"/><path class="cls-16" d="M44.14,56.47h0Z"/><path class="cls-18" d="M45.06,56.63a1.17,1.17,0,0,0-1-.45c-.27,0,0,.22.07.28h0C44.53,56.76,45.14,56.92,45.06,56.63Z"/><path class="cls-17" d="M44.91,56.89h0a1.65,1.65,0,0,1-.83-.34c-.25-.18-.26-.29-.24-.35s.1-.12.22-.12h0a1.21,1.21,0,0,1,1,.5.21.21,0,0,1,0,.22A.25.25,0,0,1,44.91,56.89Zm-.82-.6.1.08,0,0a1.44,1.44,0,0,0,.7.29H45a1.08,1.08,0,0,0-.86-.38Z"/><path class="cls-16" d="M45.75,58.76a10.64,10.64,0,0,0-.69-2.13c.08.29-.53.13-.92-.16a4.06,4.06,0,0,1,1.26,2.81C45.4,59.47,45.87,59.44,45.75,58.76Z"/><path class="cls-17" d="M45.51,59.49h0a.17.17,0,0,1-.15-.07.18.18,0,0,1-.06-.14,4,4,0,0,0-1.23-2.73.11.11,0,0,1,.14-.17,1.38,1.38,0,0,0,.7.3H45a.1.1,0,0,1,.18-.09,10.12,10.12,0,0,1,.7,2.16.72.72,0,0,1-.1.62A.31.31,0,0,1,45.51,59.49Zm-.89-2.66a4.24,4.24,0,0,1,.89,2.45h0a.12.12,0,0,0,.08-.05.54.54,0,0,0,0-.46,10.47,10.47,0,0,0-.59-1.91A.6.6,0,0,1,44.62,56.83Z"/><path class="cls-19" d="M49.67,60.43a1.09,1.09,0,0,0-.41-.49c-.08-.07-.22.16-.16.23a5.45,5.45,0,0,1,.37.47C49.55,60.75,49.7,60.51,49.67,60.43Z"/><path class="cls-19" d="M49.85,60.84c-.07-.1-.2.13-.17.21a3.65,3.65,0,0,1-.46,3.44c-.11.17,0,.13.13,0A3.17,3.17,0,0,0,49.85,60.84Z"/><path class="cls-16" d="M40,33.26c-2.77,1.44-5.3,2.66-7.3,9.76,0,0-.76,3.09-1.08,3.11s-.48-1.3-.83-2.44-.95-3.41-1.36-5-.78-3.79-1.25-5.77a28.67,28.67,0,0,1-.5-2.89l-.33.23c.18,1.56.88,4.85,1.3,6.83s.59,3.31.59,3.31a7.18,7.18,0,0,0-1.08-1.24c-.79-.76-1.17-1.47-2.17-2.44A13.43,13.43,0,0,0,19.93,33a2.33,2.33,0,0,1-.11.28,7.72,7.72,0,0,1,1.39.58,30.55,30.55,0,0,1,4.6,3.33,23.41,23.41,0,0,1,3.08,4C30.75,44.4,31,55.49,30.8,57.3A20.55,20.55,0,0,0,27,53.44c-1.73-1.13-5.56-1-10.69,1.08.12.34.23.68.36,1a13,13,0,0,1,1.45-.7c2.52-1,6.54-2.45,8.33-.53,4.8,5.15,4.23,13.86,4.31,15.85,0,.19,0,.4,0,.63.42,0,1.8-.06,2.2-.06-.24-4.07-.18-5.58-.17-7.87a7.58,7.58,0,0,1,2-4.73,13.69,13.69,0,0,1,1.87-1.72l.33-.25-.36-.47,0,0s-.67.61-1.14,1a18.77,18.77,0,0,0-3.31,3.88s-.08-1.91,0-3.29c.14-2.26.47-11.12,1.11-13.23,1-3.44,2.63-6.94,5.34-9.38a6.35,6.35,0,0,1,2.55-1.47A6.18,6.18,0,0,1,42.89,33L43,32.7A5.84,5.84,0,0,0,40,33.26Z"/><path class="cls-17" d="M30.77,70.89a.11.11,0,0,1-.07,0,.11.11,0,0,1,0-.08c0-.23,0-.44,0-.62s0-.54,0-.92c0-3.09,0-10.33-4.27-14.87a3.34,3.34,0,0,0-2.54-.91,16.57,16.57,0,0,0-5.67,1.47,13.26,13.26,0,0,0-1.44.7.1.1,0,0,1-.09,0,.09.09,0,0,1-.06-.06c-.12-.32-.24-.66-.35-1a.1.1,0,0,1,.06-.13,21.28,21.28,0,0,1,7.63-1.8,5.88,5.88,0,0,1,3.14.73A19.33,19.33,0,0,1,30.72,57c.16-2.44-.14-12.7-1.92-15.78a24.43,24.43,0,0,0-3.06-4A30,30,0,0,0,21.15,34a6.77,6.77,0,0,0-1.36-.56.12.12,0,0,1-.06-.06.12.12,0,0,1,0-.08l.11-.27A.12.12,0,0,1,20,32.9a13.65,13.65,0,0,1,6.15,3.7A14.9,14.9,0,0,1,27.33,38,10.14,10.14,0,0,0,28.27,39a9.62,9.62,0,0,1,.85.92c-.09-.53-.26-1.52-.54-2.88l-.14-.67c-.42-2-1-4.78-1.16-6.18a.1.1,0,0,1,0-.09l.33-.24a.14.14,0,0,1,.11,0,.16.16,0,0,1,.06.08,24.19,24.19,0,0,0,.5,2.89c.21.93.41,1.89.6,2.82s.43,2.09.64,3c.43,1.7,1,3.92,1.36,5,.11.38.21.79.3,1.14s.29,1.23.42,1.23a12.75,12.75,0,0,0,1-3c2-7,4.54-8.37,7.24-9.77l.12-.06a5.69,5.69,0,0,1,2.65-.58H43a.12.12,0,0,1,.08,0,.08.08,0,0,1,0,.08L43,33c0,.06,0,.1-.11.09H42.8a6,6,0,0,0-1.62.21,6.21,6.21,0,0,0-2.51,1.45c-2.31,2.08-4.05,5.13-5.31,9.33-.53,1.73-.85,8.12-1,11.55,0,.7-.06,1.27-.08,1.66-.06,1,0,2.29,0,2.91a21.39,21.39,0,0,1,3.15-3.59c.47-.41,1.13-1,1.14-1v0s0,0,.08,0a.12.12,0,0,1,.08,0l.36.48a.08.08,0,0,1,0,.08.08.08,0,0,1,0,.07,2.43,2.43,0,0,0-.32.24,12.94,12.94,0,0,0-1.86,1.71,7.52,7.52,0,0,0-2,4.66v1c0,1.84,0,3.42.18,6.88a.11.11,0,0,1,0,.07.08.08,0,0,1-.07,0c-.46,0-1.8,0-2.2.06ZM23.83,53.25a3.54,3.54,0,0,1,2.7,1c4.29,4.6,4.31,11.9,4.32,15,0,.38,0,.68,0,.91s0,.33,0,.52c.48,0,1.54,0,2,0-.19-3.39-.18-5-.17-6.78v-1a7.67,7.67,0,0,1,2-4.8,13.8,13.8,0,0,1,1.88-1.73l.25-.19-.22-.29c-.18.17-.7.64-1.08,1a18.42,18.42,0,0,0-3.28,3.85.12.12,0,0,1-.12.06.1.1,0,0,1-.08-.1s-.08-1.93,0-3.31c0-.38.05-1,.08-1.65.18-3.44.5-9.84,1-11.6,1.27-4.23,3-7.32,5.37-9.43a6.46,6.46,0,0,1,2.59-1.49,6.14,6.14,0,0,1,1.68-.22l0-.12h-.18a5.48,5.48,0,0,0-2.55.56l-.12.07c-2.66,1.37-5.17,2.68-7.13,9.63-.35,1.44-.84,3.16-1.17,3.19h0c-.32,0-.45-.55-.65-1.39-.08-.35-.18-.75-.29-1.12-.35-1.13-.93-3.35-1.36-5-.22-.87-.42-1.88-.64-3s-.39-1.9-.61-2.82a25.57,25.57,0,0,1-.48-2.74l-.14.1c.17,1.41.74,4.12,1.15,6.1l.14.66c.43,2.07.59,3.31.59,3.32a.1.1,0,0,1-.06.11.11.11,0,0,1-.13,0,6.81,6.81,0,0,0-1.06-1.23,12,12,0,0,1-1-1.08A13.15,13.15,0,0,0,26,36.75a13.59,13.59,0,0,0-6-3.63.42.42,0,0,0,0,.1,6.67,6.67,0,0,1,1.3.55,29.89,29.89,0,0,1,4.63,3.35,23.86,23.86,0,0,1,3.09,4c1.88,3.25,2.13,14.33,1.92,16.18a.11.11,0,0,1-.07.09.11.11,0,0,1-.11,0,20.55,20.55,0,0,0-3.78-3.83,5.59,5.59,0,0,0-3-.69,20.8,20.8,0,0,0-7.46,1.74q.14.42.27.81a11.87,11.87,0,0,1,1.36-.66A16.9,16.9,0,0,1,23.83,53.25Z"/><path class="cls-20" d="M20.56,22.9a6.64,6.64,0,0,1,2,2.25c.16.64.21-.31.21-.64s.39-.17,1.11,1a3.52,3.52,0,0,1,.48,1.91c.13.11.28-.94.41.36a3,3,0,0,1-.7,2.38,4,4,0,0,1-2.5,4.36c-.77.29.11-.43-.71-.08s-3.25.56-3.59.11.73-.38-.18-.48a4.42,4.42,0,0,1-3.05-1.47c-.9-1.08-.79-1.17-.41-1.05s-.59-.51-1.65-1.12A4.29,4.29,0,0,1,10.2,28c-.41-1,.42-.25-.1-.81a8.54,8.54,0,0,1-1-1.14c-.35-.49.27-.77,1.06-1.07a9,9,0,0,0,2-1,9.58,9.58,0,0,1,3.21-.88c.81-.09-.61-.25.63-.57a4.66,4.66,0,0,1,3.08.41c.27.25.19-.06,0-.53S20,22.48,20.56,22.9Z"/><path class="cls-10" d="M18.5,34.92c-.7,0-1.13-.1-1.28-.3a.35.35,0,0,1-.09-.29.32.32,0,0,1,.08-.13h-.1A4.54,4.54,0,0,1,14,32.68c-.74-.88-.75-1.06-.7-1.17a.15.15,0,0,1,.12-.09c-.29-.19-.8-.51-1.45-.89a4.38,4.38,0,0,1-1.84-2.46l0-.07c-.13-.31-.16-.5-.09-.61a.32.32,0,0,1,.09-.08L10,27.23a5.91,5.91,0,0,0-.42-.43A5.27,5.27,0,0,1,9,26.07a.52.52,0,0,1-.1-.45c.11-.33.61-.55,1.21-.78a8.85,8.85,0,0,0,1.95-1A9.72,9.72,0,0,1,15.29,23l.1,0a.22.22,0,0,1-.1-.21c0-.14.21-.24.61-.34a3.9,3.9,0,0,1,.93-.1,4.43,4.43,0,0,1,2.23.52,2.79,2.79,0,0,0-.13-.4.25.25,0,0,1,0-.24.24.24,0,0,1,.2-.09,3.85,3.85,0,0,1,1.49.71A7.34,7.34,0,0,1,22.67,25a4.22,4.22,0,0,0,0-.53c0-.19.1-.25.2-.25.3,0,.76.66,1.1,1.21a2.73,2.73,0,0,1,.47,1.7c0-.08.09-.14.17-.14s.2.17.26.75a3,3,0,0,1-.69,2.42,4.07,4.07,0,0,1-2.57,4.42c-.27.1-.39.1-.46,0a.21.21,0,0,1,0-.17l-.23.07A7.54,7.54,0,0,1,18.5,34.92Zm-5-3.3a3.74,3.74,0,0,0,.66.92,4.23,4.23,0,0,0,3,1.44c.4,0,.46.05.47.15s-.06.13-.12.15-.13.06-.14.1,0,.07,0,.11.24.22,1.12.22a7.34,7.34,0,0,0,2.35-.36c.34-.14.45-.1.49,0a.2.2,0,0,1,0,.18,1.18,1.18,0,0,0,.19-.06A3.87,3.87,0,0,0,24,30.19a.1.1,0,0,1,0-.1,2.84,2.84,0,0,0,.66-2.29,3.68,3.68,0,0,0-.06-.49v0c-.06.11-.11.22-.21.22a.24.24,0,0,1-.09,0c-.08-.07-.08-.18-.07-.33a2.45,2.45,0,0,0-.43-1.61c-.53-.88-.83-1.1-.91-1.11v0c0,1-.14,1-.22,1s-.16-.14-.2-.29a6.68,6.68,0,0,0-2-2.2,3.84,3.84,0,0,0-1.37-.67h0a.08.08,0,0,0,0,0c.19.49.2.63.14.71a.14.14,0,0,1-.11.06h0c-.06,0-.12,0-.21-.12a4.35,4.35,0,0,0-2.11-.48,3.49,3.49,0,0,0-.88.1c-.4.1-.45.17-.45.18s0,0,.06,0,.13.1.1.19-.14.13-.35.16a9.51,9.51,0,0,0-3.17.86,9.21,9.21,0,0,1-2,1c-.5.19-1,.4-1.08.64a.33.33,0,0,0,.07.27,4.86,4.86,0,0,0,.61.7l.42.43c.18.19.23.26.2.34a.15.15,0,0,1-.14.08s0,0,0,0,0,.07.1.41l0,.07a4.15,4.15,0,0,0,1.74,2.36c1.84,1.06,1.81,1.16,1.79,1.24a.13.13,0,0,1-.12.08.24.24,0,0,1-.1,0Z"/><path class="cls-21" d="M23.79,29.87s-.1.1-.14.07c-3.89-3.08-8.18-3.8-13-4.41-.06,0,0-.06.05-.06C15.18,25.62,20.55,26.48,23.79,29.87Z"/><path class="cls-12" d="M20.67,23a6.28,6.28,0,0,0-5.28,3c-2,3.7,1.08,7.34,4.49,8.71-1,.16-2.33.18-2.58-.14s.73-.38-.18-.48a4.42,4.42,0,0,1-3.05-1.47c-.9-1.08-.79-1.17-.41-1.05s-.59-.51-1.65-1.12A4.29,4.29,0,0,1,10.2,28c-.41-1,.42-.25-.1-.81a8.54,8.54,0,0,1-1-1.14c-.35-.49.27-.77,1.06-1.07a9,9,0,0,0,2-1,9.58,9.58,0,0,1,3.21-.88c.81-.09-.61-.25.63-.57a4.66,4.66,0,0,1,3.08.41c.27.25.19-.06,0-.53s.95.09,1.53.51Z"/><path class="cls-22" d="M16.89,33.07a6.83,6.83,0,0,1,2.52-1.69c.65-.06-.28-.25-.6-.3s-.12-.4,1.16-.94a3.47,3.47,0,0,1,2-.2c.13-.12-.89-.42.42-.36a3,3,0,0,1,2.25,1,3.93,3.93,0,0,1,3.95,3.1c.18.8-.4-.17-.18.69S28.45,37.7,28,38s-.26-.77-.49.12a4.42,4.42,0,0,1-1.9,2.8c-1.19.74-1.27.62-1.1.25s-.58.52-1.34,1.48a4.35,4.35,0,0,1-2.72,1.44c-1,.26-.19-.45-.81,0a9.55,9.55,0,0,1-1.28.86c-.54.27-.72-.38-.91-1.2a8.62,8.62,0,0,0-.68-2.09,9.5,9.5,0,0,1-.41-3.3c0-.82-.34.56-.47-.71a4.59,4.59,0,0,1,.85-3c.28-.23,0-.2-.53-.09S16.39,33.59,16.89,33.07Z"/><path class="cls-10" d="M18.08,45.07c-.44,0-.62-.61-.78-1.35a8.77,8.77,0,0,0-.68-2.07,9.84,9.84,0,0,1-.41-3.35v-.1a.26.26,0,0,1-.17.07c-.2,0-.26-.26-.3-.66a4.67,4.67,0,0,1,.87-3.07l-.43.08c-.14,0-.23,0-.27-.1-.13-.31.61-1.22.9-1.52a7.35,7.35,0,0,1,2.51-1.71,3.85,3.85,0,0,0-.53-.1c-.18,0-.22-.14-.22-.18,0-.31.71-.7,1.36-1a3.2,3.2,0,0,1,1.21-.28,3.13,3.13,0,0,1,.54.06c-.08-.06-.14-.13-.12-.21s.19-.14.46-.14h.32a3.08,3.08,0,0,1,2.3,1,4,4,0,0,1,4,3.19c.05.23.05.34,0,.41a.22.22,0,0,1-.22,0,1.39,1.39,0,0,0,0,.23c.22.85.1,3.38-.47,3.69a.29.29,0,0,1-.41-.06l0,.1A4.45,4.45,0,0,1,25.62,41c-.8.49-1,.56-1.15.56a.19.19,0,0,1-.16-.08.24.24,0,0,1,0-.08c-.23.25-.62.71-1.09,1.3a4.31,4.31,0,0,1-2.7,1.46l-.07,0c-.35.09-.54.08-.64,0l0-.08-.1.06-.48.36a5.41,5.41,0,0,1-.81.52A.61.61,0,0,1,18.08,45.07Zm-1.82-7.14a.18.18,0,0,1,.1,0c.05.05.06.14.06.34a9.49,9.49,0,0,0,.4,3.26,8.9,8.9,0,0,1,.68,2.11c.14.62.29,1.18.58,1.18a.49.49,0,0,0,.18,0,5,5,0,0,0,.78-.5l.49-.36c.2-.14.25-.16.3-.16a.15.15,0,0,1,.09,0A.13.13,0,0,1,20,44v0h0a1.39,1.39,0,0,0,.43,0l.07,0A4.2,4.2,0,0,0,23,42.56C24.3,41,24.42,41,24.48,41a.12.12,0,0,1,.09,0c0,.06,0,.12,0,.18a1.3,1.3,0,0,0-.05.14,4,4,0,0,0,1-.53,4.28,4.28,0,0,0,1.85-2.74c.1-.38.11-.44.22-.44s.11.08.12.14.06.16.1.16l.1,0c.41-.22.6-2.54.36-3.45-.07-.26-.07-.38,0-.46s.15,0,.22,0a1.57,1.57,0,0,0,0-.2,3.81,3.81,0,0,0-3.84-3,.13.13,0,0,1-.09,0,2.85,2.85,0,0,0-2.18-1,4.48,4.48,0,0,0-.49,0l0,0c.09.06.17.12.18.21A.17.17,0,0,1,22,30c-.07.05-.17.05-.33,0a3,3,0,0,0-.53-.06,3,3,0,0,0-1.13.26c-1.05.45-1.21.69-1.23.74h0c.92.14.92.27.92.34s-.19.15-.32.17A6.7,6.7,0,0,0,17,33.14a3.34,3.34,0,0,0-.86,1.3s0,0,0,0a2.66,2.66,0,0,1,.54-.09c.05,0,.17,0,.21.1s-.08.22-.14.26a4.63,4.63,0,0,0-.8,2.9c0,.41.1.47.11.48s0,0,0-.06A.27.27,0,0,1,16.26,37.93Z"/><path class="cls-23" d="M24.25,30.88s.09.11.05.14c-3.61,3.42-4.93,7.56-6.23,12.21,0,.06-.06,0-.06-.06C18.81,38.78,20.42,33.6,24.25,30.88Z"/><path class="cls-12" d="M17,33a6.29,6.29,0,0,0,2.22,5.66c3.38,2.49,7.42,0,9.27-3.19,0,1-.16,2.33-.52,2.52s-.26-.77-.49.12a4.42,4.42,0,0,1-1.9,2.8c-1.19.74-1.27.62-1.1.25s-.58.52-1.34,1.48a4.35,4.35,0,0,1-2.72,1.44c-1,.26-.19-.45-.81,0a9.55,9.55,0,0,1-1.28.86c-.54.27-.72-.38-.91-1.2a8.62,8.62,0,0,0-.68-2.09,9.5,9.5,0,0,1-.41-3.3c0-.82-.34.56-.47-.71a4.59,4.59,0,0,1,.85-3c.28-.23,0-.2-.53-.09s.23-.93.73-1.45Z"/><path class="cls-20" d="M16.08,49.35a5.07,5.07,0,0,1,2.07.8c.31.36,0-.27-.08-.48s.2-.24,1.06.29.81,1.06.93,1.09-.12-.71.39.1a2.13,2.13,0,0,1,.33,1.77,2.9,2.9,0,0,1-.2,3.67c-.41.43-.06-.32-.49.18S18.16,58.2,17.79,58s.36-.48-.27-.24a3.25,3.25,0,0,1-2.47,0c-1-.4-.9-.5-.62-.55s-.55-.13-1.43-.18a3.2,3.2,0,0,1-2-1c-.59-.5.19-.31-.33-.5a7.71,7.71,0,0,1-1.06-.4c-.38-.21-.07-.59.34-1a6.2,6.2,0,0,0,1-1.28,6.94,6.94,0,0,1,1.81-1.63c.49-.32-.48,0,.22-.57a3.32,3.32,0,0,1,2.14-.75c.26.07.1-.11-.17-.35S15.56,49.27,16.08,49.35Z"/><path class="cls-10" d="M16.18,58.14A3.09,3.09,0,0,1,15,57.91c-.75-.32-.87-.44-.86-.58a.14.14,0,0,1,0-.06c-.25,0-.67-.06-1.18-.09a3.22,3.22,0,0,1-2-1l0,0c-.2-.17-.28-.29-.27-.4a.14.14,0,0,1,0-.06l0,0-.41-.14a3.11,3.11,0,0,1-.65-.27A.4.4,0,0,1,9.34,55c0-.26.22-.57.54-.93a6.08,6.08,0,0,0,.94-1.26,7,7,0,0,1,1.84-1.66l0,0a.14.14,0,0,1-.1-.11c0-.11.05-.23.29-.44A3.64,3.64,0,0,1,15,49.76l-.17-.16a.19.19,0,0,1-.07-.21c0-.09.14-.19.68-.19a4.4,4.4,0,0,1,.65,0,6,6,0,0,1,2,.71,2.72,2.72,0,0,0-.11-.25.2.2,0,0,1,0-.2.21.21,0,0,1,.18-.09,2.78,2.78,0,0,1,1,.45,2.1,2.1,0,0,1,.84.89.11.11,0,0,1,.12-.1c.09,0,.17.07.4.43a2.27,2.27,0,0,1,.35,1.81,3,3,0,0,1-.23,3.76c-.12.13-.2.17-.27.17a.15.15,0,0,1-.13-.09l-.09.09a4.8,4.8,0,0,1-2.26,1.31.38.38,0,0,1-.16,0c-.1,0-.16-.11-.17-.18s0,0,0-.07h0A4,4,0,0,1,16.18,58.14Zm-1.78-.77a4.51,4.51,0,0,0,.69.34,3.06,3.06,0,0,0,2.39,0,1,1,0,0,1,.3-.09.11.11,0,0,1,.1.06.13.13,0,0,1,0,.15c-.05.06-.06.08-.06.09l.06,0h.07A4.82,4.82,0,0,0,20,56.7c.14-.16.21-.21.29-.21a.13.13,0,0,1,.13.1l.07-.08A2.76,2.76,0,0,0,20.69,53a.12.12,0,0,1,0-.1,2.1,2.1,0,0,0-.32-1.69L20.21,51c0,.09,0,.18-.14.18h0c-.09,0-.12-.1-.17-.2a1.81,1.81,0,0,0-.8-.9,2.5,2.5,0,0,0-.9-.42c.28.56.22.65.2.68a.12.12,0,0,1-.1,0c-.06,0-.11,0-.2-.14a4.81,4.81,0,0,0-2-.76,4,4,0,0,0-.62-.05,1.52,1.52,0,0,0-.45.05c.28.26.35.36.31.45a.13.13,0,0,1-.14.09h0l-.12,0h-.11a3.51,3.51,0,0,0-1.93.74.9.9,0,0,0-.21.22h0s.14,0,.16.12-.08.16-.2.24A7.25,7.25,0,0,0,11,52.89a6.39,6.39,0,0,1-1,1.29c-.2.23-.52.57-.48.76,0,0,0,.07.11.13a3.35,3.35,0,0,0,.62.25l.42.14c.17.06.26.1.26.19s-.06.11-.08.12,0,0,.19.21l0,0A3,3,0,0,0,13,57c1.59.09,1.59.16,1.6.26s0,.12-.15.13Z"/><path class="cls-21" d="M20.47,52.83s0,.1-.06.09c-3.55-.72-6.58.22-9.9,1.39,0,0,0,0,0-.05C13.48,52.9,17.25,51.69,20.47,52.83Z"/><path class="cls-12" d="M16.18,49.37a4.57,4.57,0,0,0-2.45,3.7c-.07,3.06,3.12,4.42,5.79,4.19-.62.44-1.46.89-1.73.75s.36-.48-.27-.24a3.25,3.25,0,0,1-2.47,0c-1-.4-.9-.5-.62-.55s-.55-.13-1.43-.18a3.2,3.2,0,0,1-2-1c-.59-.5.19-.31-.33-.5a7.71,7.71,0,0,1-1.06-.4c-.38-.21-.07-.59.34-1a6.2,6.2,0,0,0,1-1.28,6.94,6.94,0,0,1,1.81-1.63c.49-.32-.48,0,.22-.57a3.32,3.32,0,0,1,2.14-.75c.26.07.1-.11-.17-.35s.65-.26,1.17-.18Z"/><path class="cls-9" d="M24.92,48.38a3.21,3.21,0,0,1,.17,1.45c-.11.3.17-.06.27-.19s.2,0,.15.71a1.59,1.59,0,0,1-.34.88c0,.08.37-.29.06.26a1.42,1.42,0,0,1-.93.74,1.9,1.9,0,0,1-2.2,1c-.39-.1.16-.14-.26-.23s-1.44-.68-1.45-1,.4.05.06-.24a2.16,2.16,0,0,1-.79-1.43c-.06-.67,0-.68.13-.53s-.09-.36-.34-.9a2.1,2.1,0,0,1,0-1.48c.11-.5.24,0,.19-.35a4.48,4.48,0,0,1-.09-.74c0-.29.32-.22.71-.12a5.51,5.51,0,0,0,1.05.16,4.6,4.6,0,0,1,1.51.54c.35.19-.17-.27.41-.05a2.24,2.24,0,0,1,1.1,1c0,.17.09,0,.15-.21S24.81,48.05,24.92,48.38Z"/><path class="cls-10" d="M22.56,53.42a1.88,1.88,0,0,1-.49-.06c-.1,0-.2-.06-.22-.15v-.07h0c-.4-.08-1.52-.69-1.53-1.05a.29.29,0,0,1,.05-.17h0a2.2,2.2,0,0,1-.8-1.48c0-.49,0-.62,0-.68a.09.09,0,0,1,0,0c-.06-.15-.16-.38-.3-.68a2.24,2.24,0,0,1,0-1.53c0-.11.07-.3.19-.33h0c0-.12,0-.21,0-.29a2.12,2.12,0,0,1-.05-.47.31.31,0,0,1,.08-.22c.13-.13.36-.11.77,0a4,4,0,0,0,1,.16,4.78,4.78,0,0,1,1.53.54.05.05,0,0,1,0,0c0-.05.13-.1.4,0a2.6,2.6,0,0,1,1.11.95v-.06a.16.16,0,0,1,.15-.14c.25,0,.52.75.52.76a4.84,4.84,0,0,1,.22,1.28l0-.05a.19.19,0,0,1,.14-.09.14.14,0,0,1,.11.06c.09.09.13.36.1.8a1.52,1.52,0,0,1-.23.74.15.15,0,0,1,.06,0c0,.07,0,.16-.13.4a1.63,1.63,0,0,1-.95.79A2,2,0,0,1,22.56,53.42Zm-.46-.27h0a2,2,0,0,0,.44.05,1.75,1.75,0,0,0,1.64-1,.16.16,0,0,1,.08-.06,1.29,1.29,0,0,0,.86-.69.9.9,0,0,0,.05-.09.13.13,0,0,1-.12-.09.21.21,0,0,1,.07-.19,1.19,1.19,0,0,0,.27-.73,2,2,0,0,0,0-.57c-.21.28-.27.28-.31.28A.12.12,0,0,1,25,50a.21.21,0,0,1,0-.2,3.29,3.29,0,0,0-.18-1.38,2.32,2.32,0,0,0-.28-.57c-.06.21-.11.29-.2.29h0c-.11,0-.14-.12-.15-.16a2.17,2.17,0,0,0-1-.94L23,47a.14.14,0,0,1,0,.1.15.15,0,0,1-.1,0,.34.34,0,0,1-.16,0,4.31,4.31,0,0,0-1.46-.54,4.3,4.3,0,0,1-1.07-.16c-.23-.06-.51-.11-.57,0a.12.12,0,0,0,0,.07,2.63,2.63,0,0,0,0,.43c0,.08,0,.17.05.3s0,.17,0,.22a.11.11,0,0,1-.13,0,1.11,1.11,0,0,0,0,.13v0a2,2,0,0,0,0,1.39c.43.93.4,1,.37,1a.12.12,0,0,1-.16,0,2.27,2.27,0,0,0,0,.41,2,2,0,0,0,.75,1.36c.15.13.19.17.16.24a.1.1,0,0,1-.1.08h-.09a2.91,2.91,0,0,0,1.37.86c.15,0,.23.06.25.14A.11.11,0,0,1,22.1,53.15Z"/><path class="cls-11" d="M24.26,52s-.07,0-.08,0c-.68-2.3-2.17-3.77-3.89-5.34,0,0,0,0,0,0C22,48,23.92,49.79,24.26,52Z"/><path class="cls-12" d="M24.94,48.44A3,3,0,0,0,22,48.16c-1.81.92-1.62,3.2-.65,4.69-.45-.22-1-.58-1-.77s.4.05.06-.24a2.16,2.16,0,0,1-.79-1.43c-.06-.67,0-.68.13-.53s-.09-.36-.34-.9a2.1,2.1,0,0,1,0-1.48c.11-.5.24,0,.19-.35a4.48,4.48,0,0,1-.09-.74c0-.29.32-.22.71-.12a5.51,5.51,0,0,0,1.05.16,4.6,4.6,0,0,1,1.51.54c.35.19-.17-.27.41-.05a2.24,2.24,0,0,1,1.1,1c0,.17.09,0,.15-.21s.36.3.47.63C24.93,48.4,24.93,48.42,24.94,48.44Z"/><path class="cls-22" d="M17,57.19a4.92,4.92,0,0,1,1.09-1.93c.4-.26-.26-.07-.49,0s-.21-.23.44-1,1.17-.65,1.21-.77-.72,0,.16-.37a2.14,2.14,0,0,1,1.8-.07,2.89,2.89,0,0,1,3.6.73c.37.46-.32,0,.1.5s1.14,2.12.91,2.46-.43-.42-.28.24a3.23,3.23,0,0,1-.32,2.44c-.53.88-.62.82-.63.53s-.21.53-.39,1.4a3.15,3.15,0,0,1-1.29,1.83c-.58.51-.28-.23-.54.26a6.59,6.59,0,0,1-.55,1c-.26.35-.6,0-1-.48a6.39,6.39,0,0,0-1.13-1.14,6.87,6.87,0,0,1-1.35-2c-.26-.53,0,.48-.54-.3a3.4,3.4,0,0,1-.43-2.23c.11-.24-.09-.12-.37.12S16.88,57.69,17,57.19Z"/><path class="cls-10" d="M21.61,64.67c-.26,0-.52-.29-.83-.67a6.51,6.51,0,0,0-1.11-1.12,7.21,7.21,0,0,1-1.38-2.05l0,0a.16.16,0,0,1-.14.08c-.1,0-.21-.1-.38-.35a3.66,3.66,0,0,1-.46-2.24l-.19.15a.18.18,0,0,1-.28,0c-.15-.21,0-1,.11-1.29a6.11,6.11,0,0,1,1-1.87l-.27.08a.19.19,0,0,1-.25-.08c-.08-.17.12-.54.58-1.09a2.14,2.14,0,0,1,1-.7.14.14,0,0,1-.08-.1c0-.11.09-.19.48-.36a2.63,2.63,0,0,1,1.07-.24,2.22,2.22,0,0,1,.78.14,2.86,2.86,0,0,1,1.33-.34,3.17,3.17,0,0,1,2.35,1.12c.1.13.16.23.13.32a.14.14,0,0,1-.11.08l.08.1c.39.44,1.21,2.16.92,2.59a.27.27,0,0,1-.27.13v0a3.28,3.28,0,0,1-.33,2.53c-.43.71-.55.77-.65.77a.12.12,0,0,1-.09,0c-.07.24-.16.64-.27,1.15A3.1,3.1,0,0,1,23,63.22l0,0c-.25.22-.4.24-.48.18l0,.05c-.08.16-.15.28-.2.39a3.06,3.06,0,0,1-.36.6A.4.4,0,0,1,21.61,64.67Zm-3.35-4.16c.09,0,.14.08.21.23a7.21,7.21,0,0,0,1.33,2,6.5,6.5,0,0,1,1.14,1.15c.2.23.49.59.67.59s.09,0,.15-.1a3,3,0,0,0,.34-.58c.06-.1.12-.23.21-.39s.12-.23.21-.23a.12.12,0,0,1,.11.1s.05,0,.23-.16l.05,0a3.09,3.09,0,0,0,1.22-1.74c.31-1.54.38-1.54.47-1.54s.12,0,.12.16a.07.07,0,0,0,0,0,5.1,5.1,0,0,0,.43-.63A3.1,3.1,0,0,0,25.47,57c-.06-.26-.07-.31,0-.36a.1.1,0,0,1,.08,0,.16.16,0,0,1,.12.07l.08.07a.11.11,0,0,0,0,0c.19-.27-.46-1.84-.89-2.33-.14-.15-.2-.25-.16-.34a.14.14,0,0,1,.11-.09.28.28,0,0,1-.06-.08,3,3,0,0,0-2.19-1,2.69,2.69,0,0,0-1.28.34.09.09,0,0,1-.1,0,1.76,1.76,0,0,0-.73-.14,2.36,2.36,0,0,0-1,.22l-.25.12a.18.18,0,0,1,.14.08.14.14,0,0,1,0,.11c0,.08-.12.11-.22.13a1.92,1.92,0,0,0-1,.67,2.5,2.5,0,0,0-.54.83A2.82,2.82,0,0,1,18.2,55a.15.15,0,0,1,.15.09c0,.1-.07.17-.17.24a4.8,4.8,0,0,0-1.05,1.87A3.3,3.3,0,0,0,17,58.28c.27-.22.36-.27.43-.27a.15.15,0,0,1,.11.06c.05.07,0,.15,0,.23a3.38,3.38,0,0,0,.43,2.12,1.19,1.19,0,0,0,.18.24h0S18.17,60.51,18.26,60.51Z"/><path class="cls-23" d="M21.11,53.34s.09,0,.08.08c-1.23,3.4-.73,6.54-.05,10,0,0-.05,0-.05,0C20.16,60.27,19.51,56.36,21.11,53.34Z"/><path class="cls-12" d="M17.06,57.09a4.6,4.6,0,0,0,3.31,3c3,.51,4.83-2.45,5-5.12.35.67.67,1.57.5,1.81s-.43-.42-.28.24a3.23,3.23,0,0,1-.32,2.44c-.53.88-.62.82-.63.53s-.21.53-.39,1.4a3.15,3.15,0,0,1-1.29,1.83c-.58.51-.28-.23-.54.26a6.59,6.59,0,0,1-.55,1c-.26.35-.6,0-1-.48a6.39,6.39,0,0,0-1.13-1.14,6.87,6.87,0,0,1-1.35-2c-.26-.53,0,.48-.54-.3a3.4,3.4,0,0,1-.43-2.23c.11-.24-.09-.12-.37.12s-.16-.68,0-1.18Z"/><path class="cls-20" d="M42.58,52.48a4,4,0,0,0-1.64.64c-.25.28,0-.22.06-.39s-.16-.19-.84.24-.64.84-.74.86.1-.56-.31.08a1.7,1.7,0,0,0-.26,1.41A2.29,2.29,0,0,0,39,58.23c.32.35.05-.24.39.14s1.53,1.14,1.82,1-.28-.39.22-.2a2.56,2.56,0,0,0,2,0c.76-.32.72-.4.5-.44s.43-.11,1.14-.15a2.55,2.55,0,0,0,1.59-.81c.46-.4-.15-.24.26-.39a6,6,0,0,0,.84-.32c.3-.16.05-.47-.27-.83a5.14,5.14,0,0,1-.77-1A5.65,5.65,0,0,0,45.26,54c-.39-.26.38,0-.18-.46a2.67,2.67,0,0,0-1.7-.59c-.21.06-.08-.08.13-.28S43,52.42,42.58,52.48Z"/><path class="cls-10" d="M42.51,59.49a3.14,3.14,0,0,1-1.09-.21v0a.23.23,0,0,1-.14.17l-.14,0a3.89,3.89,0,0,1-1.82-1.05l0,0a.14.14,0,0,1-.11.06c-.07,0-.13,0-.23-.15a2.4,2.4,0,0,1-.19-3A1.85,1.85,0,0,1,39,53.85c.19-.3.26-.35.34-.35a.12.12,0,0,1,.1,0,1.57,1.57,0,0,1,.65-.67,2,2,0,0,1,.83-.37.19.19,0,0,1,.16.08.19.19,0,0,1,0,.19l-.06.13a4.87,4.87,0,0,1,1.54-.53,4.06,4.06,0,0,1,.51,0c.45,0,.54.09.57.16a.19.19,0,0,1-.07.2l-.09.09h0a2.93,2.93,0,0,1,1.66.63c.2.17.27.27.24.37a.15.15,0,0,1-.06.09,5.49,5.49,0,0,1,1.45,1.31,5.13,5.13,0,0,0,.76,1c.26.29.46.54.43.75a.37.37,0,0,1-.19.24,2.73,2.73,0,0,1-.53.22l-.32.11h0v0c0,.09,0,.19-.21.33l0,0a2.55,2.55,0,0,1-1.62.81l-.9.07v0c0,.12-.08.22-.7.48A2.28,2.28,0,0,1,42.51,59.49ZM41.24,59a.9.9,0,0,1,.24.07,2.41,2.41,0,0,0,1.88,0,5,5,0,0,0,.5-.24c-.1,0-.12-.08-.12-.12s0-.16,1.29-.23a2.39,2.39,0,0,0,1.5-.76l0,0,.14-.13a.14.14,0,0,1-.07-.12c0-.08.09-.11.22-.16l.34-.11a3.62,3.62,0,0,0,.49-.2c.07,0,.08-.08.08-.09s-.23-.41-.38-.58a5.43,5.43,0,0,1-.78-1A5.54,5.54,0,0,0,45.2,54c-.1-.06-.18-.13-.16-.21a.14.14,0,0,1,.12-.11L45,53.57A2.8,2.8,0,0,0,43.49,53h-.08c-.18,0-.22,0-.23-.06s0-.17.23-.36a1.16,1.16,0,0,0-.33,0,2.45,2.45,0,0,0-.48,0,3.81,3.81,0,0,0-1.58.59c-.06.08-.12.13-.18.13a.11.11,0,0,1-.1-.06s-.06-.1.14-.52a2.72,2.72,0,0,0-.66.32,1.43,1.43,0,0,0-.63.71c0,.08-.07.16-.15.17a.14.14,0,0,1-.15-.1L39.2,54A1.63,1.63,0,0,0,39,55.29a.08.08,0,0,1,0,.09,2.2,2.2,0,0,0,.15,2.78l0,0a.12.12,0,0,1,.11-.07c.07,0,.13,0,.24.18a3.81,3.81,0,0,0,1.66,1h0l0,0,0,0a.17.17,0,0,1,0-.15A.15.15,0,0,1,41.24,59Z"/><path class="cls-21" d="M39.09,55.25s0,.08,0,.07c2.82-.58,5.23.17,7.87,1.11,0,0,0,0,0,0C44.66,55.3,41.65,54.34,39.09,55.25Z"/><path class="cls-12" d="M42.51,52.5a3.65,3.65,0,0,1,2,2.93c0,2.44-2.48,3.52-4.61,3.34.49.35,1.17.7,1.37.6s-.28-.39.22-.2a2.56,2.56,0,0,0,2,0c.76-.32.72-.4.5-.44s.43-.11,1.14-.15a2.55,2.55,0,0,0,1.59-.81c.46-.4-.15-.24.26-.39a6,6,0,0,0,.84-.32c.3-.16.05-.47-.27-.83a5.14,5.14,0,0,1-.77-1A5.65,5.65,0,0,0,45.26,54c-.39-.26.38,0-.18-.46a2.67,2.67,0,0,0-1.7-.59c-.21.06-.08-.08.13-.28s-.51-.2-.93-.14Z"/><path class="cls-9" d="M35.56,51.71a2.59,2.59,0,0,0-.14,1.15c.09.24-.14,0-.21-.15s-.16,0-.12.57.29.63.27.7-.3-.24,0,.2a1.11,1.11,0,0,0,.74.59,1.51,1.51,0,0,0,1.75.82c.31-.08-.13-.11.21-.18s1.14-.54,1.15-.76-.32,0,0-.19a1.74,1.74,0,0,0,.63-1.13c0-.54,0-.55-.1-.43s.07-.29.27-.71a1.66,1.66,0,0,0,0-1.18c-.09-.4-.19,0-.15-.28a3.48,3.48,0,0,0,.07-.58c0-.24-.25-.19-.56-.11a3.61,3.61,0,0,1-.84.13,3.89,3.89,0,0,0-1.2.43c-.27.15.13-.21-.32,0a1.74,1.74,0,0,0-.88.8c0,.14-.08,0-.12-.16S35.65,51.45,35.56,51.71Z"/><path class="cls-10" d="M37.44,55.74A1.61,1.61,0,0,1,36,54.86a1.23,1.23,0,0,1-.76-.63c-.12-.2-.14-.27-.1-.34l0,0a1.08,1.08,0,0,1-.18-.57c0-.54.05-.63.08-.66s.13-.09.22,0a3.82,3.82,0,0,1,.18-1s.21-.61.43-.61a.15.15,0,0,1,.14.12h0a2,2,0,0,1,.86-.72c.23-.09.31,0,.35,0a0,0,0,0,1,0,0,3.57,3.57,0,0,1,1.2-.42,3.52,3.52,0,0,0,.81-.13,2.11,2.11,0,0,1,.4-.07.26.26,0,0,1,.3.28,2,2,0,0,1,0,.37c0,.06,0,.12,0,.21s.12.18.14.26v0a1.72,1.72,0,0,1,0,1.22l-.23.52,0,0c0,.06.07.16,0,.56a1.79,1.79,0,0,1-.62,1.18.2.2,0,0,1,0,.14c0,.32-.94.8-1.23.86h0v.05c0,.08-.11.11-.19.13A1.6,1.6,0,0,1,37.44,55.74Zm-2.07-1.65,0,0a1,1,0,0,0,.67.54s.06,0,.08.06a1.37,1.37,0,0,0,1.29.8,1.66,1.66,0,0,0,.33,0v-.06c0-.08.11-.1.21-.12A2.47,2.47,0,0,0,39,54.66h0a.11.11,0,0,1-.1-.07c0-.08,0-.11.13-.22a1.52,1.52,0,0,0,.59-1.06,2,2,0,0,0,0-.3h0a.12.12,0,0,1-.09-.05s-.05-.09.29-.83a1.52,1.52,0,0,0,0-1.09v0a.34.34,0,0,0,0-.08.13.13,0,0,1-.1,0s0-.1,0-.19,0-.18,0-.24a1.69,1.69,0,0,0,0-.33s0-.07-.09-.07a1.71,1.71,0,0,0-.35.06,3.29,3.29,0,0,1-.85.14,3.21,3.21,0,0,0-1.16.42.39.39,0,0,1-.14,0,.12.12,0,0,1-.09,0,.09.09,0,0,1,0-.06l-.07,0a1.72,1.72,0,0,0-.82.74c0,.09-.06.14-.13.14s-.13-.08-.17-.2a1.87,1.87,0,0,0-.19.4,2.41,2.41,0,0,0-.14,1.09.19.19,0,0,1,0,.18s-.06.06-.09.05-.09,0-.24-.2a2.65,2.65,0,0,0,0,.41.91.91,0,0,0,.21.56.2.2,0,0,1,.06.18A.18.18,0,0,1,35.37,54.09Z"/><path class="cls-11" d="M36.08,54.61s.06,0,.06,0a9.3,9.3,0,0,1,3.1-4.25s0,0,0,0C37.85,51.38,36.35,52.83,36.08,54.61Z"/><path class="cls-12" d="M35.54,51.76a2.41,2.41,0,0,1,2.33-.22c1.43.72,1.28,2.54.51,3.72.36-.18.77-.46.78-.61s-.32,0,0-.19a1.74,1.74,0,0,0,.63-1.13c0-.54,0-.55-.1-.43s.07-.29.27-.71a1.66,1.66,0,0,0,0-1.18c-.09-.4-.19,0-.15-.28a3.48,3.48,0,0,0,.07-.58c0-.24-.25-.19-.56-.11a3.61,3.61,0,0,1-.84.13,3.89,3.89,0,0,0-1.2.43c-.27.15.13-.21-.32,0a1.74,1.74,0,0,0-.88.8c0,.14-.08,0-.12-.16s-.28.24-.37.5C35.55,51.72,35.55,51.74,35.54,51.76Z"/><path class="cls-22" d="M41.83,58.71A4,4,0,0,0,41,57.18c-.32-.21.22-.06.39,0s.17-.18-.35-.79-.93-.52-1-.62.57,0-.12-.29a1.75,1.75,0,0,0-1.44-.06,2.28,2.28,0,0,0-2.85.58c-.3.37.25,0-.09.4s-.91,1.69-.72,2,.34-.34.22.18a2.64,2.64,0,0,0,.25,2c.43.7.5.65.51.42s.16.42.3,1.11a2.54,2.54,0,0,0,1,1.46c.46.4.21-.19.42.2a5.86,5.86,0,0,0,.44.78c.21.28.47,0,.78-.38a5.51,5.51,0,0,1,.9-.91,5.51,5.51,0,0,0,1.08-1.6c.2-.43,0,.38.43-.24a2.72,2.72,0,0,0,.34-1.77c-.09-.2.07-.09.3.09S42,59.11,41.83,58.71Z"/><path class="cls-10" d="M38.19,64.68a.33.33,0,0,1-.28-.16,2.46,2.46,0,0,1-.28-.48l-.16-.31v0c-.09,0-.21,0-.39-.15l0,0A2.6,2.6,0,0,1,36,62c-.07-.38-.15-.69-.2-.88h-.06c-.1,0-.22-.1-.54-.63a2.62,2.62,0,0,1-.26-2,.21.21,0,0,1-.21-.11c-.24-.35.42-1.73.73-2.09l0,0s0,0-.06-.07,0-.16.1-.28a2.59,2.59,0,0,1,1.89-.9,2.16,2.16,0,0,1,1.06.28,1.54,1.54,0,0,1,.61-.12,2.27,2.27,0,0,1,.86.19c.32.15.41.22.4.32a.16.16,0,0,1,0,.07,1.61,1.61,0,0,1,.76.55c.57.67.49.83.47.88a.18.18,0,0,1-.23.08l-.14,0a4.87,4.87,0,0,1,.75,1.44c0,.16.22.85.08,1a.14.14,0,0,1-.12.06h0a.18.18,0,0,1-.13-.05l-.1-.08a3,3,0,0,1-.39,1.74c-.13.21-.22.29-.32.29a.14.14,0,0,1-.11,0,5.7,5.7,0,0,1-1.09,1.62,5,5,0,0,0-.88.9C38.61,64.45,38.4,64.68,38.19,64.68Zm-.72-1.24c.08,0,.12.07.18.19l.17.32a2.7,2.7,0,0,0,.26.45c.05.07.09.07.11.07s.37-.29.51-.46a5.7,5.7,0,0,1,.92-.92,5.17,5.17,0,0,0,1-1.57c.05-.1.1-.18.19-.18a.14.14,0,0,1,.13.1l.12-.17a2.56,2.56,0,0,0,.33-1.67.23.23,0,0,1,0-.2.14.14,0,0,1,.11,0c.06,0,.13,0,.32.19a2.44,2.44,0,0,0-.12-.8,3.77,3.77,0,0,0-.82-1.47c-.07-.05-.17-.11-.15-.21A.13.13,0,0,1,40.9,57a1.65,1.65,0,0,1,.44.1,2.1,2.1,0,0,0-.42-.62,1.43,1.43,0,0,0-.78-.52c-.09,0-.17,0-.2-.12a.21.21,0,0,1,0-.11.12.12,0,0,1,.07-.05l-.15-.08a1.91,1.91,0,0,0-.77-.17,1.14,1.14,0,0,0-.57.12.12.12,0,0,1-.1,0,2.14,2.14,0,0,0-1-.27,2.33,2.33,0,0,0-1.72.83l0,0a.2.2,0,0,1,.08.08c0,.08,0,.17-.13.29a3.35,3.35,0,0,0-.72,1.83l0,0,0,0a.15.15,0,0,1,.11-.06.12.12,0,0,1,.08,0c0,.05,0,.09,0,.31a2.39,2.39,0,0,0,.23,1.86,5.25,5.25,0,0,0,.31.47c0-.13.09-.14.12-.14s.15,0,.4,1.24a2.39,2.39,0,0,0,1,1.37l0,0a.56.56,0,0,0,.15.11A.12.12,0,0,1,37.47,63.44Z"/><path class="cls-23" d="M38.59,55.65s-.07,0-.07.06c1,2.71.59,5.2,0,7.95,0,0,0,0,0,0C39.34,61.16,39.86,58.06,38.59,55.65Z"/><path class="cls-12" d="M41.8,58.63A3.65,3.65,0,0,1,39.18,61c-2.4.4-3.84-2-4-4.08-.27.54-.53,1.25-.39,1.45s.34-.34.22.18a2.64,2.64,0,0,0,.25,2c.43.7.5.65.51.42s.16.42.3,1.11a2.54,2.54,0,0,0,1,1.46c.46.4.21-.19.42.2a5.86,5.86,0,0,0,.44.78c.21.28.47,0,.78-.38a5.51,5.51,0,0,1,.9-.91,5.51,5.51,0,0,0,1.08-1.6c.2-.43,0,.38.43-.24a2.72,2.72,0,0,0,.34-1.77c-.09-.2.07-.09.3.09s.12-.54,0-.94Z"/><path class="cls-13" d="M25.21,37.63a4,4,0,0,0,7.55-2.27,4,4,0,0,0-7.55,2.27Z"/><path class="cls-14" d="M28.84,40.31a3.8,3.8,0,0,1-3.73-2.65,3.6,3.6,0,0,1,.36-2.91,4.2,4.2,0,0,1,2.42-1.88,4,4,0,0,1,1.24-.19,3.83,3.83,0,0,1,3.73,2.65,3.93,3.93,0,0,1-2.79,4.8A4.31,4.31,0,0,1,28.84,40.31Zm.29-7.42a4.1,4.1,0,0,0-3.48,2,3.4,3.4,0,0,0-.34,2.74,3.59,3.59,0,0,0,3.53,2.5A3.9,3.9,0,0,0,30,39.93a3.72,3.72,0,0,0,2.65-4.53A3.61,3.61,0,0,0,29.13,32.89Z"/><path class="cls-15" d="M26.22,34a1.76,1.76,0,0,0,1.33.08c.12,0,.7-.3.52-.49a.56.56,0,0,0-.28-.1,1.49,1.49,0,0,1-.58-.2,4.37,4.37,0,0,1,.71-.28,4.08,4.08,0,0,1,1.5-.17.21.21,0,0,0,0,.2.41.41,0,0,0,.39.2,2.41,2.41,0,0,0,.63-.2,3.82,3.82,0,0,1,1.31.76,4.13,4.13,0,0,0-1.4-.15s0,.07,0,.08a1.78,1.78,0,0,1,.55,1.72,1.57,1.57,0,0,1-.69,1.26c.15-.94.26-3.05-1.1-2.92-.56,0-.93.6-1.48.7a4.47,4.47,0,0,1-1.71,0l-.12,0A5.87,5.87,0,0,1,26.22,34Z"/><path class="cls-16" d="M29,33.17a5.58,5.58,0,0,1-2.57-1.32c-.13.95,1.75,1.82,2.39,1.6C29.18,33.35,29.12,33.2,29,33.17Z"/><path class="cls-17" d="M28.56,33.59h0a3.07,3.07,0,0,1-1.95-.93,1.08,1.08,0,0,1-.3-.82.16.16,0,0,1,.07-.09.14.14,0,0,1,.11,0A5.42,5.42,0,0,0,29,33.06a.23.23,0,0,1,.19.2c0,.09-.07.21-.36.29A1.11,1.11,0,0,1,28.56,33.59Zm-2-1.5a1,1,0,0,0,.24.43,2.81,2.81,0,0,0,1.79.86h0a.73.73,0,0,0,.22,0,.6.6,0,0,0,.19-.08h0A5.67,5.67,0,0,1,26.53,32.09Z"/><path class="cls-16" d="M29.12,33.39s1.56.68,1.14,3C31,36.09,31.11,33.52,29.12,33.39Z"/><path class="cls-17" d="M30.26,36.53a.09.09,0,0,1-.06,0,.1.1,0,0,1,0-.1c.4-2.24-1-2.89-1.08-2.92a.11.11,0,0,1-.06-.12.11.11,0,0,1,.11-.08,1.73,1.73,0,0,1,1.67,1.5c.14.75-.08,1.54-.49,1.74Zm-.67-3a2.83,2.83,0,0,1,.82,2.56,1.93,1.93,0,0,0,.18-1.32A1.56,1.56,0,0,0,29.59,33.58Z"/><path class="cls-16" d="M29.38,33.42c-.06,0,3.21.8,3-1.44C31.76,32.66,31.61,33,29.38,33.42Z"/><path class="cls-17" d="M30.56,33.67h0s-1.27,0-1.29-.24a.11.11,0,0,1,.09-.12c2-.35,2.29-.66,2.81-1.23l.16-.17a.11.11,0,0,1,.11,0,.11.11,0,0,1,.07.09,1.46,1.46,0,0,1-.33,1.16A2.11,2.11,0,0,1,30.56,33.67Zm-.62-.25a5.54,5.54,0,0,0,.62,0h0A2,2,0,0,0,32,33a1.2,1.2,0,0,0,.28-.75A3.47,3.47,0,0,1,29.94,33.42Z"/><path class="cls-16" d="M28.9,33.38a2.85,2.85,0,0,1-3.18.25C25.58,34.35,27.48,34.86,28.9,33.38Z"/><path class="cls-17" d="M26.84,34.44h0a1.43,1.43,0,0,1-1.1-.4.54.54,0,0,1-.13-.43.16.16,0,0,1,.06-.08.11.11,0,0,1,.1,0,2.45,2.45,0,0,0,1.3.38,3.07,3.07,0,0,0,1.76-.62.11.11,0,0,1,.14,0,.11.11,0,0,1,0,.15A3,3,0,0,1,26.84,34.44Zm-1-.62a.47.47,0,0,0,.06.09,1.27,1.27,0,0,0,.94.32h0a2.32,2.32,0,0,0,.89-.18,2.78,2.78,0,0,1-.66.08A2.55,2.55,0,0,1,25.84,33.82Z"/><path class="cls-16" d="M29.76,30.22h0Z"/><path class="cls-18" d="M28.92,30.63a1.15,1.15,0,0,1,.84-.7c.26-.07.06.21,0,.28h0C29.47,30.61,28.92,30.94,28.92,30.63Z"/><path class="cls-17" d="M29,30.85a.2.2,0,0,1-.21-.22,1.25,1.25,0,0,1,.91-.81.21.21,0,0,1,.25.08s.06.12-.13.37A1.41,1.41,0,0,1,29,30.85Zm.73-.82a1.09,1.09,0,0,0-.74.63v0a1.21,1.21,0,0,0,.64-.48A.77.77,0,0,0,29.76,30Z"/><path class="cls-16" d="M28.84,32.86a10.7,10.7,0,0,1,.08-2.23c0,.31.55,0,.84-.41a4.1,4.1,0,0,0-.44,3.06C29.37,33.45,28.91,33.56,28.84,32.86Z"/><path class="cls-17" d="M29.19,33.51c-.18,0-.4-.17-.45-.64a10.31,10.31,0,0,1,.08-2.26.11.11,0,0,1,.11-.09.12.12,0,0,1,.1.11c.12,0,.44-.2.64-.47a.1.1,0,0,1,.15,0,.11.11,0,0,1,0,.14,4,4,0,0,0-.42,3,.25.25,0,0,1,0,.17A.25.25,0,0,1,29.19,33.51ZM29,30.85a10.92,10.92,0,0,0,0,2c0,.36.17.45.24.45h0a4.16,4.16,0,0,1,.18-2.58A.65.65,0,0,1,29,30.85Z"/><path class="cls-19" d="M25.53,35.55a1.21,1.21,0,0,1,.26-.59c.06-.08.26.1.21.18s-.14.37-.22.56S25.52,35.64,25.53,35.55Z"/><path class="cls-19" d="M25.47,36c0-.12.23.06.22.15a3.68,3.68,0,0,0,1.39,3.18c.15.13.06.12-.14,0A3.17,3.17,0,0,1,25.47,36Z"/><path class="cls-16" d="M30.59,58.19a5.62,5.62,0,0,1-2.11-2c-.39.87,1.18,2.23,1.86,2.19C30.72,58.42,30.7,58.25,30.59,58.19Z"/><path class="cls-16" d="M31.09,56a11.11,11.11,0,0,0-.56,1.85c-.12.68.34.71.34.52a4.14,4.14,0,0,1,.71-2.16A1,1,0,0,0,31.09,56Z"/><path class="cls-13" d="M35,46.44a3.95,3.95,0,1,0,3.89-3.75A3.82,3.82,0,0,0,35,46.44Z"/><path class="cls-14" d="M38.91,50.18a3.93,3.93,0,0,1-4-3.74A3.62,3.62,0,0,1,36,43.74a4.1,4.1,0,0,1,2.84-1.15h.06a3.8,3.8,0,1,1,0,7.59Zm0-7.38h-.06a3.92,3.92,0,0,0-2.7,1.09,3.48,3.48,0,0,0-1.09,2.55A3.73,3.73,0,0,0,38.91,50H39a3.59,3.59,0,1,0,0-7.17Z"/><path class="cls-15" d="M37,43.19a1.87,1.87,0,0,0,1.26.44c.13,0,.75-.1.63-.34a.53.53,0,0,0-.23-.16,1.65,1.65,0,0,1-.51-.35,4.78,4.78,0,0,1,.76-.09,4.22,4.22,0,0,1,1.48.26.23.23,0,0,0-.07.19.4.4,0,0,0,.33.29,2,2,0,0,0,.65,0,3.72,3.72,0,0,1,1.05,1.08A4.12,4.12,0,0,0,41,44s0,.07,0,.08a1.8,1.8,0,0,1,0,1.81,1.58,1.58,0,0,1-1,1c.4-.86,1.09-2.86-.25-3.12-.55-.1-1.06.33-1.61.27a4.29,4.29,0,0,1-1.65-.47.31.31,0,0,1-.1,0A4.45,4.45,0,0,1,37,43.19Z"/><path class="cls-16" d="M39.84,43.18a5.62,5.62,0,0,1-2.11-2c-.39.87,1.18,2.24,1.86,2.19C40,43.41,40,43.25,39.84,43.18Z"/><path class="cls-17" d="M39.56,43.51a2.65,2.65,0,0,1-1.72-1.22,1.18,1.18,0,0,1-.2-1.12.09.09,0,0,1,.09-.06.08.08,0,0,1,.09,0,5.64,5.64,0,0,0,2.07,1.93.2.2,0,0,1,.12.24c0,.08-.1.17-.37.17h-.08Zm-1.78-2a1.28,1.28,0,0,0,.23.71,2.54,2.54,0,0,0,1.55,1.12h.08a.4.4,0,0,0,.15,0h0A5.78,5.78,0,0,1,37.78,41.47Z"/><path class="cls-16" d="M39.91,43.43s1.31,1.08.26,3.23A1.82,1.82,0,0,0,39.91,43.43Z"/><path class="cls-17" d="M40.17,46.77a.1.1,0,0,1-.08-.05.08.08,0,0,1,0-.1c1-2-.18-3.07-.23-3.11a.1.1,0,0,1,0-.13.11.11,0,0,1,.13-.05,1.73,1.73,0,0,1,1.19,1.9c-.07.76-.51,1.46-1,1.53Zm.13-3a2.75,2.75,0,0,1,.09,2.68,1.93,1.93,0,0,0,.54-1.22A1.55,1.55,0,0,0,40.3,43.75Z"/><path class="cls-16" d="M40.15,43.53c-.06,0,2.87,1.66,3.3-.55C42.65,43.46,42.4,43.76,40.15,43.53Z"/><path class="cls-17" d="M42.09,44.23a3.51,3.51,0,0,1-2.05-.7.09.09,0,0,1,0-.08.11.11,0,0,1,.08,0,11.18,11.18,0,0,0,1.29.08A2.77,2.77,0,0,0,43.2,43l.2-.13a.11.11,0,0,1,.12,0,.12.12,0,0,1,0,.1A1.38,1.38,0,0,1,42.09,44.23Zm-1.41-.55a3.85,3.85,0,0,0,1.41.34,1.14,1.14,0,0,0,1.2-.82,2.88,2.88,0,0,1-1.84.52C41.22,43.72,41,43.7,40.68,43.68Z"/><path class="cls-16" d="M39.7,43.37a2.86,2.86,0,0,1-3.13-.64C36.25,43.38,37.92,44.39,39.7,43.37Z"/><path class="cls-17" d="M38.15,43.91h0a1.94,1.94,0,0,1-1.63-.69.53.53,0,0,1,0-.54.1.1,0,0,1,.08-.06.11.11,0,0,1,.09,0,2.43,2.43,0,0,0,1.87.82,3.16,3.16,0,0,0,1.13-.21.11.11,0,0,1,.14,0,.12.12,0,0,1,0,.14A3.29,3.29,0,0,1,38.15,43.91Zm-1.51-1a.76.76,0,0,0,.06.16,1.73,1.73,0,0,0,1.45.59h.25A2.65,2.65,0,0,1,36.64,43Z"/><path class="cls-16" d="M41.39,40.56h0Z"/><path class="cls-18" d="M40.47,40.72a1.16,1.16,0,0,1,1-.44c.28,0,0,.22-.06.27h0C41,40.85,40.39,41,40.47,40.72Z"/><path class="cls-17" d="M40.62,41a.24.24,0,0,1-.22-.09.19.19,0,0,1,0-.19,1.22,1.22,0,0,1,1.05-.53h0c.12,0,.2,0,.22.12s0,.17-.22.34A1.62,1.62,0,0,1,40.62,41Zm.8-.6a1,1,0,0,0-.85.39h0a1.41,1.41,0,0,0,.7-.29.44.44,0,0,0,.12-.1Z"/><path class="cls-16" d="M39.79,42.85a10.3,10.3,0,0,1,.68-2.13c-.08.3.54.13.92-.16a4.12,4.12,0,0,0-1.26,2.82C40.13,43.56,39.66,43.53,39.79,42.85Z"/><path class="cls-17" d="M40,43.58a.3.3,0,0,1-.24-.12.74.74,0,0,1-.1-.63,11,11,0,0,1,.7-2.16.12.12,0,0,1,.14,0,.11.11,0,0,1,.06.12s0,0,0,0a1.41,1.41,0,0,0,.7-.29.1.1,0,0,1,.15,0,.1.1,0,0,1,0,.14,4.07,4.07,0,0,0-1.23,2.74.24.24,0,0,1,0,.14A.23.23,0,0,1,40,43.58ZM40.48,41a10.23,10.23,0,0,0-.59,1.91c0,.29,0,.42,0,.45s.09,0,.09,0a4.18,4.18,0,0,1,.88-2.44A.66.66,0,0,1,40.48,41Z"/><path class="cls-19" d="M35.86,44.52a1.15,1.15,0,0,1,.41-.49c.08-.06.22.17.16.23s-.24.32-.36.48S35.83,44.6,35.86,44.52Z"/><path class="cls-19" d="M35.68,44.93c.07-.1.2.13.17.22a3.66,3.66,0,0,0,.46,3.43c.11.17,0,.14-.13,0A3.19,3.19,0,0,1,35.68,44.93Z"/><path class="cls-13" d="M58.1,37.72A3.95,3.95,0,1,1,54.21,34,3.81,3.81,0,0,1,58.1,37.72Z"/><path class="cls-14" d="M54.17,41.46h-.06a3.8,3.8,0,1,1,0-7.59h.06A4.24,4.24,0,0,1,57.06,35a3.7,3.7,0,0,1,1.15,2.7A3.94,3.94,0,0,1,54.17,41.46Zm0-7.38a3.59,3.59,0,1,0,0,7.17h.06A3.72,3.72,0,0,0,58,37.72a3.48,3.48,0,0,0-1.09-2.55,4,4,0,0,0-2.7-1.09Z"/><path class="cls-15" d="M56.12,34.47a1.79,1.79,0,0,1-1.26.44c-.12,0-.75-.1-.63-.33a.63.63,0,0,1,.23-.17,1.54,1.54,0,0,0,.51-.35,3.84,3.84,0,0,0-.76-.08,4,4,0,0,0-1.48.25.21.21,0,0,1,.07.19.4.4,0,0,1-.33.29,1.79,1.79,0,0,1-.65,0,3.64,3.64,0,0,0-1,1.09,3.7,3.7,0,0,1,1.3-.52s0,.06,0,.08a1.78,1.78,0,0,0-.05,1.8,1.58,1.58,0,0,0,1,1c-.4-.86-1.09-2.86.26-3.11.54-.11,1,.32,1.6.27a4.68,4.68,0,0,0,1.65-.47l.11-.06A5.69,5.69,0,0,0,56.12,34.47Z"/><path class="cls-16" d="M53.24,34.47a5.6,5.6,0,0,0,2.11-2c.39.88-1.18,2.24-1.86,2.19C53.1,34.7,53.12,34.53,53.24,34.47Z"/><path class="cls-17" d="M53.52,34.79h-.07c-.28,0-.36-.1-.38-.18a.21.21,0,0,1,.12-.24,5.48,5.48,0,0,0,2.07-1.93.12.12,0,0,1,.1,0,.1.1,0,0,1,.08.06,1.18,1.18,0,0,1-.2,1.12A2.65,2.65,0,0,1,53.52,34.79Zm0-.21h0a2.51,2.51,0,0,0,1.55-1.12,1.23,1.23,0,0,0,.23-.71,5.72,5.72,0,0,1-2,1.81.42.42,0,0,0,.16,0Z"/><path class="cls-16" d="M53.17,34.71s-1.32,1.09-.26,3.23C52.15,37.82,51.29,35.39,53.17,34.71Z"/><path class="cls-17" d="M52.91,38.05h0c-.44-.08-.88-.78-1-1.54a1.73,1.73,0,0,1,1.19-1.89.11.11,0,0,1,.13,0,.1.1,0,0,1,0,.13c-.06.05-1.23,1.06-.25,3.08a.11.11,0,0,1,0,.07.12.12,0,0,1-.11.11Zm-.13-3a1.55,1.55,0,0,0-.63,1.46,2,2,0,0,0,.54,1.23A2.82,2.82,0,0,1,52.78,35Z"/><path class="cls-16" d="M52.93,34.81c.06,0-2.87,1.66-3.3-.54C50.44,34.75,50.68,35.05,52.93,34.81Z"/><path class="cls-17" d="M51,35.51a1.38,1.38,0,0,1-1.47-1.22.12.12,0,0,1,0-.11.14.14,0,0,1,.11,0l.2.13a2.77,2.77,0,0,0,1.75.49h0c.35,0,.77,0,1.29-.08a.1.1,0,0,1,.1,0,.14.14,0,0,1,0,.11A4.21,4.21,0,0,1,51,35.51Zm-1.2-1a1.16,1.16,0,0,0,1.2.82A4.11,4.11,0,0,0,52.4,35l-.77,0h0A2.89,2.89,0,0,1,49.79,34.49Z"/><path class="cls-16" d="M53.39,34.65A2.84,2.84,0,0,0,56.51,34C56.84,34.66,55.16,35.68,53.39,34.65Z"/><path class="cls-17" d="M54.94,35.19a3.19,3.19,0,0,1-1.61-.45.12.12,0,0,1,0-.14.11.11,0,0,1,.14-.05,2.88,2.88,0,0,0,1.13.22,2.41,2.41,0,0,0,1.87-.83.1.1,0,0,1,.1,0,.1.1,0,0,1,.08.05.56.56,0,0,1,0,.54A1.91,1.91,0,0,1,54.94,35.19ZM54.68,35h.26a1.73,1.73,0,0,0,1.44-.59.38.38,0,0,0,.06-.16A2.63,2.63,0,0,1,54.68,35Z"/><path class="cls-16" d="M51.69,31.84h0Z"/><path class="cls-18" d="M52.61,32a1.17,1.17,0,0,0-1-.45c-.28,0,0,.22.06.27h0C52.07,32.14,52.69,32.3,52.61,32Z"/><path class="cls-17" d="M52.46,32.27h0a1.65,1.65,0,0,1-.83-.34c-.25-.19-.26-.29-.24-.35s.09-.12.22-.13h0a1.22,1.22,0,0,1,1,.51.21.21,0,0,1,0,.22A.25.25,0,0,1,52.46,32.27Zm-.82-.6a.49.49,0,0,0,.1.08l0,0a1.41,1.41,0,0,0,.7.29h.06a1,1,0,0,0-.86-.38Z"/><path class="cls-16" d="M53.29,34.13A10.18,10.18,0,0,0,52.61,32c.08.29-.54.13-.92-.17A4.15,4.15,0,0,1,53,34.66C53,34.84,53.42,34.82,53.29,34.13Z"/><path class="cls-17" d="M53.06,34.86h0a.23.23,0,0,1-.16-.06.24.24,0,0,1,0-.14,4,4,0,0,0-1.23-2.74.11.11,0,0,1,0-.14.11.11,0,0,1,.15,0,1.35,1.35,0,0,0,.7.3h.06A.1.1,0,0,1,52.7,32a10.2,10.2,0,0,1,.7,2.15.74.74,0,0,1-.1.63A.3.3,0,0,1,53.06,34.86Zm-.89-2.65a4.28,4.28,0,0,1,.89,2.45h0a.11.11,0,0,0,.08,0,.58.58,0,0,0,0-.46,10.47,10.47,0,0,0-.59-1.91A.66.66,0,0,1,52.17,32.21Z"/><path class="cls-19" d="M57.22,35.8a1.29,1.29,0,0,0-.41-.49c-.08-.06-.22.17-.16.23A5.58,5.58,0,0,1,57,36C57.1,36.12,57.25,35.89,57.22,35.8Z"/><path class="cls-19" d="M57.4,36.22c-.07-.11-.2.13-.17.21a3.68,3.68,0,0,1-.46,3.44c-.11.17,0,.13.13,0A3.17,3.17,0,0,0,57.4,36.22Z"/><path class="cls-20" d="M45.87,25.79a5.48,5.48,0,0,0-1.66,1.82c-.13.52-.17-.25-.17-.51s-.31-.14-.9.82a2.79,2.79,0,0,0-.38,1.55c-.11.09-.24-.77-.34.29A2.38,2.38,0,0,0,43,31.69a3.22,3.22,0,0,0,2,3.55c.63.23-.09-.34.58-.07s2.64.46,2.92.09-.6-.3.14-.38a3.62,3.62,0,0,0,2.48-1.2c.74-.88.65-1,.33-.86s.49-.41,1.35-.9a3.63,3.63,0,0,0,1.47-2c.33-.79-.34-.21.08-.65a8.48,8.48,0,0,0,.85-.94c.28-.4-.23-.62-.86-.87a7.25,7.25,0,0,1-1.61-.79,7.43,7.43,0,0,0-2.61-.71c-.65-.08.49-.21-.51-.47a3.73,3.73,0,0,0-2.5.34c-.22.2-.16-.06,0-.44S46.34,25.44,45.87,25.79Z"/><path class="cls-21" d="M43.25,31.45s.07.08.1.06C46.52,29,50,28.42,53.9,27.92c.05,0,0-.05,0-.05C50.24,28,45.87,28.69,43.25,31.45Z"/><path class="cls-12" d="M45.78,25.85a5.11,5.11,0,0,1,4.29,2.44c1.61,3-.88,6-3.65,7.09.84.13,1.9.14,2.1-.12s-.6-.3.14-.38a3.62,3.62,0,0,0,2.48-1.2c.74-.88.65-1,.33-.86s.49-.41,1.35-.9a3.63,3.63,0,0,0,1.47-2c.33-.79-.34-.21.08-.65a8.48,8.48,0,0,0,.85-.94c.28-.4-.23-.62-.86-.87a7.25,7.25,0,0,1-1.61-.79,7.43,7.43,0,0,0-2.61-.71c-.65-.08.49-.21-.51-.47a3.73,3.73,0,0,0-2.5.34c-.22.2-.16-.06,0-.44s-.78.07-1.25.42Z"/><path class="cls-24" d="M36.58,29.25a3.78,3.78,0,0,0,.56,1.54c.26.24-.2,0-.36-.06s-.17.14.2.78.77.62.79.71-.52-.1.07.28a1.56,1.56,0,0,0,1.3.28,2.13,2.13,0,0,0,2.7-.09c.33-.29-.23,0,.15-.35s1.08-1.4.95-1.68-.36.25-.17-.21a2.4,2.4,0,0,0,.07-1.81c-.28-.71-.36-.68-.4-.47s-.09-.41-.11-1.06a2.32,2.32,0,0,0-.72-1.49c-.36-.44-.22.13-.36-.25a4.12,4.12,0,0,0-.27-.78c-.15-.29-.44-.07-.78.22a4.72,4.72,0,0,1-1,.69A5,5,0,0,0,38,26.8c-.26.36,0-.35-.43.16A2.49,2.49,0,0,0,37,28.53c0,.19-.08.07-.26-.13S36.53,28.87,36.58,29.25Z"/><path class="cls-25" d="M40.39,33.33a2.06,2.06,0,0,1-1.27-.44,1.14,1.14,0,0,1-.31,0,1.8,1.8,0,0,1-1-.33c-.28-.18-.35-.26-.32-.35a.09.09,0,0,1,0-.06,1.54,1.54,0,0,1-.61-.62c-.4-.68-.32-.83-.29-.88a.16.16,0,0,1,.23,0l.1,0a4.85,4.85,0,0,1-.45-1.41,1.88,1.88,0,0,1,.08-1,.16.16,0,0,1,.25,0l.07.07a2.73,2.73,0,0,1,.62-1.51c.15-.16.24-.22.32-.22a.15.15,0,0,1,.12,0,5.4,5.4,0,0,1,1.24-1.31,4.59,4.59,0,0,0,1-.67c.25-.22.46-.4.66-.4a.32.32,0,0,1,.28.2,2.57,2.57,0,0,1,.19.49q0,.12.09.3h0c.08,0,.19,0,.33.21l0,0a2.5,2.5,0,0,1,.72,1.53c0,.35,0,.64,0,.83h0c.11,0,.2.1.42.67a2.44,2.44,0,0,1-.06,1.87.23.23,0,0,1,.17.15c.17.36-.64,1.51-1,1.8l0,0a.15.15,0,0,1,0,.08c0,.08,0,.15-.14.24A2.41,2.41,0,0,1,40.39,33.33Zm-1.23-.67.05,0a1.85,1.85,0,0,0,1.18.42,2.16,2.16,0,0,0,1.38-.51l0,0a.16.16,0,0,1,0-.08c0-.08,0-.15.17-.25a3.26,3.26,0,0,0,.93-1.56s0,0,0,0l0,0a.19.19,0,0,1-.1.05h-.05l0-.05c0-.06,0-.09.06-.3a2.23,2.23,0,0,0,.07-1.73,4.61,4.61,0,0,0-.2-.46.12.12,0,0,1-.12.1c-.11,0-.15,0-.19-1.21a2.25,2.25,0,0,0-.68-1.4l0,0a.64.64,0,0,0-.12-.12s0,.05-.09.05h0c-.09,0-.12-.08-.16-.21a2.15,2.15,0,0,1-.1-.31,2.07,2.07,0,0,0-.18-.46c0-.08-.08-.08-.09-.08s-.38.22-.52.35a5.86,5.86,0,0,1-1,.7,5.18,5.18,0,0,0-1.2,1.26C38,27,38,27,37.9,27h0a.12.12,0,0,1-.12-.11l-.13.13a2.46,2.46,0,0,0-.56,1.47.19.19,0,0,1,0,.18l0,0H37c-.06,0-.12,0-.29-.22a2.51,2.51,0,0,0,0,.73,3.51,3.51,0,0,0,.52,1.47c.06.06.14.13.11.22l0,.07H37.2a1.59,1.59,0,0,1-.41-.15,2.11,2.11,0,0,0,.29.61,1.22,1.22,0,0,0,.63.59c.08,0,.15.07.16.15v0l0,0-.07,0,.11.08a1.46,1.46,0,0,0,1.22.26Z"/><path class="cls-11" d="M39.08,32.55s.07,0,.07,0c-.48-2.63.27-4.85,1.19-7.28,0,0,0,0-.05,0C39.24,27.4,38.29,30.15,39.08,32.55Z"/><path class="cls-12" d="M36.6,29.33a3.37,3.37,0,0,1,2.76-1.75c2.26,0,3.21,2.37,3,4.34.34-.45.68-1.06.58-1.26s-.36.25-.17-.21a2.4,2.4,0,0,0,.07-1.81c-.28-.71-.36-.68-.4-.47s-.09-.41-.11-1.06a2.32,2.32,0,0,0-.72-1.49c-.36-.44-.22.13-.36-.25a4.12,4.12,0,0,0-.27-.78c-.15-.29-.44-.07-.78.22a4.72,4.72,0,0,1-1,.69A5,5,0,0,0,38,26.8c-.26.36,0-.35-.43.16A2.49,2.49,0,0,0,37,28.53c0,.19-.08.07-.26-.13s-.2.47-.15.85C36.59,29.28,36.59,29.3,36.6,29.33Z"/><path class="cls-26" d="M50.62,34.7A6.79,6.79,0,0,0,48,33c-.67-.07.29-.26.63-.31s.12-.43-1.21-1a3.53,3.53,0,0,0-2-.2c-.13-.13.93-.44-.43-.37a3,3,0,0,0-2.34,1.07,4.1,4.1,0,0,0-4.11,3.23c-.18.83.42-.19.19.71s-.09,3.43.42,3.71.28-.81.51.11a4.63,4.63,0,0,0,2,2.92c1.25.77,1.33.64,1.15.26s.61.54,1.39,1.53A4.55,4.55,0,0,0,47,46.12c1.06.27.2-.47.84,0a10.46,10.46,0,0,0,1.34.9c.55.28.75-.4.94-1.25a9.41,9.41,0,0,1,.7-2.17,9.6,9.6,0,0,0,.43-3.44c0-.84.36.58.49-.73a4.82,4.82,0,0,0-.88-3.11c-.3-.24,0-.21.55-.09S51.14,35.24,50.62,34.7Z"/><path class="cls-10" d="M49.38,47.17a.63.63,0,0,1-.28-.08,4.69,4.69,0,0,1-.84-.54l-.51-.36-.1-.08a.41.41,0,0,1,0,.09c-.1.11-.29.12-.66,0h-.07a4.61,4.61,0,0,1-2.81-1.52c-.49-.62-.89-1.1-1.13-1.37a.17.17,0,0,1,0,.1.19.19,0,0,1-.16.08c-.13,0-.37-.07-1.19-.59a4.67,4.67,0,0,1-2-3l0-.11a.31.31,0,0,1-.43.06c-.59-.32-.71-3-.48-3.83a.87.87,0,0,0,0-.25.2.2,0,0,1-.23,0c0-.07,0-.19,0-.43a4.18,4.18,0,0,1,4-3.31h.13A3.29,3.29,0,0,1,45,31h.33c.33,0,.44,0,.48.14s0,.17-.13.23a2.53,2.53,0,0,1,.57-.06,3.24,3.24,0,0,1,1.26.28c.67.29,1.45.69,1.41,1,0,.05,0,.16-.23.19l-.56.11a7.6,7.6,0,0,1,2.62,1.78c.3.31,1.08,1.25.94,1.57a.19.19,0,0,1-.19.12h-.09a3,3,0,0,0-.46-.08,4.76,4.76,0,0,1,.91,3.19c0,.41-.11.68-.31.68a.27.27,0,0,1-.17-.08.24.24,0,0,0,0,.12,10.47,10.47,0,0,1-.44,3.48,9,9,0,0,0-.7,2.15C50,46.56,49.84,47.17,49.38,47.17Zm-1.82-1.32s.11,0,.31.16l.51.37a4.73,4.73,0,0,0,.81.53.54.54,0,0,0,.19.05c.3,0,.46-.58.61-1.24a9.58,9.58,0,0,1,.71-2.19,10.27,10.27,0,0,0,.42-3.38c0-.21,0-.31.06-.36a.18.18,0,0,1,.09,0,.24.24,0,0,1,.16.09.18.18,0,0,0,.08,0,1.78,1.78,0,0,0,.1-.49,4.8,4.8,0,0,0-.84-3c-.1-.08-.18-.17-.15-.27s.17-.11.21-.11a3,3,0,0,1,.57.09h.05a3.62,3.62,0,0,0-.9-1.33A6.92,6.92,0,0,0,48,33.05c-.13,0-.32,0-.33-.17s0-.2,1-.35h.06c0-.05-.25-.33-1.29-.77a3,3,0,0,0-1.18-.27,2.47,2.47,0,0,0-.55.06c-.16,0-.26.05-.33,0a.13.13,0,0,1,0-.11c0-.08.09-.14.19-.21l0,0H45a3,3,0,0,0-2.26,1,.1.1,0,0,1-.09,0,4,4,0,0,0-4,3.15,1.62,1.62,0,0,0,0,.21h0c.07,0,.18,0,.23,0s.07.17,0,.48c-.25.94-.06,3.35.37,3.59a.2.2,0,0,0,.11,0s.07-.06.1-.17,0-.14.13-.14.12.06.22.46a4.39,4.39,0,0,0,1.93,2.85,4.44,4.44,0,0,0,1.05.55.61.61,0,0,0-.05-.15c0-.06-.06-.13,0-.18a.11.11,0,0,1,.09-.06c.05,0,.19,0,1.49,1.66A4.33,4.33,0,0,0,46.92,46L47,46a1.64,1.64,0,0,0,.36.06c.07,0,.09,0,.09,0s0,0,0,0a.16.16,0,0,1,0-.13A.11.11,0,0,1,47.56,45.85Z"/><path class="cls-27" d="M43,32.43s-.09.11,0,.14c3.75,3.55,5.12,7.86,6.48,12.69,0,.06.06,0,.05-.07C48.62,40.64,46.94,35.25,43,32.43Z"/><path class="cls-12" d="M50.52,34.6a6.53,6.53,0,0,1-2.3,5.89c-3.51,2.58-7.71,0-9.63-3.32,0,1.08.16,2.43.53,2.63.52.28.28-.81.51.11a4.63,4.63,0,0,0,2,2.92c1.25.77,1.33.64,1.15.26s.61.54,1.39,1.53A4.55,4.55,0,0,0,47,46.12c1.06.27.2-.47.84,0a10.46,10.46,0,0,0,1.34.9c.55.28.75-.4.94-1.25a9.41,9.41,0,0,1,.7-2.17,9.6,9.6,0,0,0,.43-3.44c0-.84.36.58.49-.73a4.82,4.82,0,0,0-.88-3.11c-.3-.24,0-.21.55-.09s-.24-1-.76-1.51Z"/><path class="cls-28" d="M29.55,24.41a4.55,4.55,0,0,1,.72,1.88c-.06.43.2-.15.28-.35s.28,0,.44.89a2.33,2.33,0,0,1-.16,1.29c.06.1.4-.51.17.32a2,2,0,0,1-1,1.31,2.61,2.61,0,0,1-2.58,2.09c-.55,0,.17-.23-.42-.22s-2.14-.43-2.24-.79.54,0,0-.33a2.92,2.92,0,0,1-1.53-1.64c-.31-.88-.21-.91,0-.75S23,27.66,22.47,27a2.87,2.87,0,0,1-.53-2c0-.7.32-.06.13-.52a6.21,6.21,0,0,1-.36-1c-.1-.38.35-.41.9-.41a6.16,6.16,0,0,0,1.45-.13,6.29,6.29,0,0,1,2.19.22c.53.14-.31-.3.53-.2a3,3,0,0,1,1.8,1c.11.22.14,0,.14-.33S29.29,24,29.55,24.41Z"/><path class="cls-10" d="M27.44,31.94h0c-.16,0-.27,0-.31-.1a.14.14,0,0,1,0-.11H27c-.57,0-2.19-.43-2.31-.87a.26.26,0,0,1,0-.23l0,0h0a3,3,0,0,1-1.58-1.69c-.25-.71-.22-.83-.17-.91a.14.14,0,0,1,.08,0c-.14-.19-.36-.49-.65-.84a2.93,2.93,0,0,1-.55-2v-.05a.58.58,0,0,1,.08-.41l.07,0s0,0,0,0-.12-.27-.16-.37a4.52,4.52,0,0,1-.22-.6.39.39,0,0,1,.06-.34c.15-.18.5-.2.89-.2h.07A5.91,5.91,0,0,0,24,23a2.13,2.13,0,0,1,.46,0,8.3,8.3,0,0,1,1.78.26h0a.17.17,0,0,1,0-.12c.05-.09.17-.1.27-.1l.22,0a3.28,3.28,0,0,1,1.82,1,1,1,0,0,0,0-.19c0-.15.09-.2.16-.2.26,0,.75.66.86.83a5.7,5.7,0,0,1,.73,1.74,1.19,1.19,0,0,0,.08-.2c.05-.12.13-.14.17-.14s.29,0,.47,1A1.92,1.92,0,0,1,31,27.9a.16.16,0,0,1,.13,0c.05.06.05.16,0,.53a2.1,2.1,0,0,1-1,1.35A2.69,2.69,0,0,1,27.44,31.94Zm-.1-.21h.08l0,.11v-.11a2.49,2.49,0,0,0,2.46-2,.1.1,0,0,1,.06-.08,1.87,1.87,0,0,0,.94-1.23c0-.1,0-.17.05-.22a.18.18,0,0,1-.1,0,.15.15,0,0,1-.11-.06c0-.08,0-.16,0-.25a1.65,1.65,0,0,0,.12-1.08,2.86,2.86,0,0,0-.25-.84c-.22.54-.31.54-.36.54a.15.15,0,0,1-.09,0s0-.1,0-.24a4.28,4.28,0,0,0-.7-1.8,2.93,2.93,0,0,0-.63-.71c0,.32,0,.41-.08.45a.15.15,0,0,1-.09,0h0c-.1,0-.15-.1-.17-.15a3,3,0,0,0-1.72-.93h-.26a.17.17,0,0,1,0,.17s-.07.09-.3,0a8,8,0,0,0-1.73-.25,2.37,2.37,0,0,0-.41,0,5.86,5.86,0,0,1-1.45.14h-.09c-.22,0-.63,0-.73.13s0,0,0,.15a3.79,3.79,0,0,0,.2.57,2.87,2.87,0,0,1,.16.37c.06.15.09.21,0,.28a.17.17,0,0,1-.15,0,.54.54,0,0,0,0,.23v.05a2.79,2.79,0,0,0,.5,1.86c.88,1.08.85,1.15.82,1.21s-.13.07-.21,0h0a4,4,0,0,0,.19.65,2.77,2.77,0,0,0,1.48,1.58c.24.12.29.15.27.24s-.11.09-.14.09h-.09a.18.18,0,0,0,0,.05,3.72,3.72,0,0,0,2.11.72h.09c.14,0,.24,0,.28.09A.17.17,0,0,1,27.34,31.73Z"/><path class="cls-11" d="M29.88,29.48s-.08,0-.1,0c-1.67-2.83-4.15-4.3-7-5.82,0,0,0,0,.05,0C25.58,24.81,28.69,26.62,29.88,29.48Z"/><path class="cls-12" d="M29.52,24.31a4.17,4.17,0,0,0-4,.6c-2.1,1.82-1.08,4.79.7,6.45-.67-.15-1.48-.45-1.55-.7s.54-.06,0-.34a2.87,2.87,0,0,1-1.53-1.63c-.31-.88-.21-.92,0-.75s-.24-.46-.75-1.08a2.91,2.91,0,0,1-.53-2c0-.7.32-.06.13-.52a6.29,6.29,0,0,1-.37-.95c-.09-.39.36-.41.91-.41A6.16,6.16,0,0,0,24,22.88a6.06,6.06,0,0,1,2.19.22c.53.13-.31-.3.53-.2a3.07,3.07,0,0,1,1.8,1c.11.22.14,0,.14-.32s.57.28.83.68Z"/><path class="cls-29" d="M36.28,67.88c-.47-.81-1.55-1.86-2.59-1.55a4.12,4.12,0,0,0-.58.23,1.21,1.21,0,0,0-.25.08,6.94,6.94,0,0,0-2.81,2.59c-1.38,2.37,3.17,2.65,4.52,2.57.54,0,2.55-.13,2.73-.87C37.58,69.77,36.83,68.82,36.28,67.88Z"/><g class="cls-30"><path class="cls-31" d="M36.77,68.69a1.79,1.79,0,0,1,0,.46c-.27,1.61-1.82,1.92-3.25,1.54A2.56,2.56,0,0,1,31.29,68l.06-.31a7.14,7.14,0,0,0-1.3,1.56c-1.38,2.37,3.17,2.65,4.52,2.57.54,0,2.55-.13,2.73-.87A3,3,0,0,0,36.77,68.69Z"/></g><path class="cls-32" d="M33.35,70.77A1.7,1.7,0,0,0,32,70c-.6,0-1.09.48-1.51.86a1.2,1.2,0,0,0-.27.19.75.75,0,0,0,.17,1.23,2.83,2.83,0,0,0,1.73.1c.44,0,1.31.2,1.56-.29A1.58,1.58,0,0,0,33.35,70.77Z"/><path class="cls-29" d="M31,68.43c-.54-.82-1.35-2-2.41-2.15-.77-.13-1.55.71-2.18,1.3A4.72,4.72,0,0,0,24.76,69c-.34.48-1,1.8-.23,2.27a5.69,5.69,0,0,0,3.31.81,4.11,4.11,0,0,0,2.64-.91A2.33,2.33,0,0,0,31,68.43Z"/><g class="cls-30"><path class="cls-33" d="M31,68.43l0-.06a2.49,2.49,0,0,1-2.31,2.48c-1.22.15-3.12,0-3.46-1.49a2.43,2.43,0,0,1,0-.89,3.67,3.67,0,0,0-.44.51c-.34.48-1,1.8-.23,2.27a5.69,5.69,0,0,0,3.31.81,4.11,4.11,0,0,0,2.64-.91A2.33,2.33,0,0,0,31,68.43Z"/></g><g class="cls-34"><path class="cls-35" d="M33.84,66.61a2.51,2.51,0,0,0-1.19.36c-.21.11-1.26.78-1,1.17a.5.5,0,0,0,0,.24c.13.29.63.14.83.07A3,3,0,0,0,34.33,67C34.43,66.71,34,66.61,33.84,66.61Z"/></g><g class="cls-34"><path class="cls-35" d="M27.67,67.27a2.8,2.8,0,0,0-1,.75l-.09.07A1.52,1.52,0,0,0,26,69c0,.4.46.29.67.2a3.09,3.09,0,0,0,1.76-1.62C28.6,67.07,28,67.13,27.67,67.27Z"/></g><path class="cls-29" d="M29.51,70.11c-.93-.43-2,.41-2.62,1.21a3.88,3.88,0,0,0-.95,1.25c-1,2.19,4.78,2.27,5.42.36C31.72,71.86,30.37,70.51,29.51,70.11Z"/><g class="cls-30"><path class="cls-33" d="M31,71.38c.15,1-.21,2-1.3,2.06s-3-.22-3.57-1.19a3.24,3.24,0,0,0-.17.32c-1,2.19,4.78,2.27,5.42.36A1.78,1.78,0,0,0,31,71.38Z"/></g><g class="cls-34"><path class="cls-35" d="M28.66,70.79c-.24-.18-.59.1-.78.25a1.6,1.6,0,0,0-.55.7,1.2,1.2,0,0,0-.16.27c-.07.16-.09.47.18.4a1.52,1.52,0,0,0,.61-.36,3.06,3.06,0,0,0,.52-.56C28.57,71.37,28.84,70.94,28.66,70.79Z"/></g><path class="cls-29" d="M37.84,66.26c-.59-1-2-2.36-3.27-2a4.78,4.78,0,0,0-.74.3,1.41,1.41,0,0,0-.32.09A9,9,0,0,0,30,68c-1.75,3,4,3.35,5.73,3.25.69,0,3.23-.16,3.45-1.1C39.48,68.66,38.53,67.45,37.84,66.26Z"/><g class="cls-30"><path class="cls-31" d="M38.46,67.29a1.89,1.89,0,0,1,0,.58c-.35,2-2.31,2.44-4.11,2s-3-1.6-2.8-3.44a2.7,2.7,0,0,1,.08-.39A8.65,8.65,0,0,0,30,68c-1.75,3,4,3.35,5.73,3.25.69,0,3.23-.16,3.45-1.1A3.79,3.79,0,0,0,38.46,67.29Z"/></g><path class="cls-32" d="M34.13,69.92A2.21,2.21,0,0,0,32.42,69c-.75,0-1.37.61-1.9,1.08a1.72,1.72,0,0,0-.35.25.94.94,0,0,0,.22,1.55,3.55,3.55,0,0,0,2.19.14c.55,0,1.65.24,2-.37A2,2,0,0,0,34.13,69.92Z"/><path class="cls-29" d="M31.21,67c-.69-1-1.72-2.49-3.05-2.72-1-.17-2,.9-2.76,1.64a6.2,6.2,0,0,0-2.15,1.78c-.42.6-1.19,2.27-.29,2.87a7.23,7.23,0,0,0,4.19,1,5.13,5.13,0,0,0,3.34-1.16C31.29,69.55,31.94,68.07,31.21,67Z"/><g class="cls-30"><path class="cls-33" d="M31.21,67l-.05-.07c.16,1.67-1.39,2.94-2.93,3.14s-3.94,0-4.38-1.89a3.31,3.31,0,0,1,0-1.13,4.5,4.5,0,0,0-.57.65c-.42.6-1.19,2.27-.29,2.87a7.23,7.23,0,0,0,4.19,1,5.13,5.13,0,0,0,3.34-1.16C31.29,69.55,31.94,68.07,31.21,67Z"/></g><g class="cls-34"><path class="cls-35" d="M34.76,64.65a3.19,3.19,0,0,0-1.52.47c-.26.14-1.59,1-1.26,1.48a.63.63,0,0,0,0,.3c.16.37.79.18,1,.09a3.8,3.8,0,0,0,2.3-1.84C35.5,64.79,35,64.65,34.76,64.65Z"/></g><g class="cls-34"><path class="cls-35" d="M26.94,65.49a3.5,3.5,0,0,0-1.3,1l-.11.09a1.84,1.84,0,0,0-.75,1.16c-.05.51.58.37.84.26a3.93,3.93,0,0,0,2.24-2C28.11,65.24,27.32,65.31,26.94,65.49Z"/></g><path class="cls-29" d="M29.27,69.09c-1.18-.54-2.52.51-3.32,1.52a5,5,0,0,0-1.19,1.59c-1.31,2.77,6,2.88,6.86.46C32.07,71.31,30.36,69.59,29.27,69.09Z"/><g class="cls-30"><path class="cls-33" d="M31.13,70.7c.19,1.21-.26,2.47-1.65,2.61S25.7,73,25,71.8a3,3,0,0,0-.21.4c-1.31,2.77,6,2.88,6.86.46A2.26,2.26,0,0,0,31.13,70.7Z"/></g><g class="cls-34"><path class="cls-35" d="M28.19,70c-.3-.23-.75.12-1,.31a2.05,2.05,0,0,0-.7.89,1.6,1.6,0,0,0-.2.34c-.09.2-.11.6.23.51a2.14,2.14,0,0,0,.77-.45,4.12,4.12,0,0,0,.66-.72C28.08,70.68,28.43,70.14,28.19,70Z"/></g></g></g></svg>