<svg xmlns="http://www.w3.org/2000/svg" viewBox="0 0 64 64"><defs><style>.cls-1{isolation:isolate;}.cls-2,.cls-6{fill:#593d38;}.cls-2,.cls-3,.cls-4,.cls-5{fill-rule:evenodd;}.cls-3,.cls-9{fill:#3b1b0b;}.cls-10,.cls-4{fill:#855f58;}.cls-5{fill:#4d1e31;opacity:0.42;mix-blend-mode:multiply;}.cls-7{fill:none;}.cls-8{fill:#fff;}</style></defs><g class="cls-1"><g id="Layer_1" data-name="Layer 1"><path class="cls-2" d="M38.55,29.1a8.07,8.07,0,0,1-7.36,1.54L31,30.59l-.3-.11h0l-.31-.14a.2.2,0,0,1-.08,0l-.19-.09-.21-.11a19.09,19.09,0,0,1-4.26-3.23c-.22-.22-.44-.44-.65-.67-.44-.47-.87-.95-1.27-1.41l-.12-.14a16.31,16.31,0,0,1-2.29-2l.55.56a8.55,8.55,0,0,0-1.32-1c-.27-.14-.55-.25-.82-.37v0l-.68,0-1.08,0h-.14c-1.5-.06-3.39-.12-3.71-.1,0,0,0,0,0-.05a3.88,3.88,0,0,1-.48,0,9,9,0,0,1-.94.91c-.08.07-.17.1-.25.16s0,.09,0,.1a1.92,1.92,0,0,1-1.62,0c-.22-.12-1.13-1.11-1.36-1,0,.39-1.51,7.06-1.55,7.45L8.39,29s5.79-1.41,6-1.44,3.16-.88,5,1.11a4.86,4.86,0,0,0,.94.79,11.21,11.21,0,0,1,1.1.71h0A40.09,40.09,0,0,1,24.57,34l.05.07.25.33c.27.37.35.28.62.63l.18.32c.09.12.2.38.29.5h0a21.77,21.77,0,0,0,2.25,2.64l.14.12h0a2.07,2.07,0,0,0,.52.34.79.79,0,0,0,.24,0h.4a8.74,8.74,0,0,1,1.14.15l.15,0h0l.11,0,.24,0,.27.06a1.1,1.1,0,0,1,.26.06l.16,0a11.86,11.86,0,0,1,1.56.48h0l.12,0,.05,0,.15.07,0,0,0,0c.09,0,.14.1.14.15a15,15,0,0,1-.2,1.8,1.13,1.13,0,0,1,0,.12l-.58.34-.94,4-.06.26.19.31L37,34.72h0l1.33-2.82.11-.22.84-1.78Z"/><path class="cls-3" d="M38.55,29.1a8.07,8.07,0,0,1-7.36,1.54L31,30.59l-.3-.11h0l-.31-.14a.2.2,0,0,1-.08,0l-.19-.09-.21-.11a19.09,19.09,0,0,1-4.26-3.23c-.22-.22-.44-.44-.65-.67-.44-.47-.87-.95-1.27-1.41l-.12-.14a16.31,16.31,0,0,1-2.29-2l.55.56a8.55,8.55,0,0,0-1.32-1c-.27-.14-.55-.25-.82-.37v0l-.68,0-1.08,0h-.14c-1.5-.06-3.39-.12-3.71-.1,0,0,0,0,0-.05a3.88,3.88,0,0,1-.48,0,9,9,0,0,1-.94.91c-.08.07-.21.12-.27.2-.22.3-1.11.24-1.39.13-.69-.25-.84-.85-1.59-1.14a26.77,26.77,0,0,0-.68,3.2c0,.24-.87,4-.89,4.27L8.39,29h0c1-1,4-5.83,4.54-6.21a3.4,3.4,0,0,1,3.78-.61c1.75.75,2.08,5.79,2.66,6.49l.07.09a12.18,12.18,0,0,0,2,1.41L20.89,25h0s0,0,0-.07l-.54-1.45a8.17,8.17,0,0,1,2.18,1.48c1,1,.95,7.56,2.06,9.12l.05.07.25.33.12,0c0-.11-.85-6-.51-6.88.18-.46.71,0,1.19.53-.5.94.24,4.28.27,4.38h0c.09.13-.07,3.35,0,3.47.78-1.62-.24-6.45.05-7.45.32.42.57.79.57.79a19.57,19.57,0,0,1,3.28,3.51c1.07,1.74-.14,5.95-1,6.26a.79.79,0,0,0,.24,0h.4a8.74,8.74,0,0,1,1.14.15l.15,0h0l.11,0,.24,0,.27.06a1.1,1.1,0,0,1,.26.06l.16,0a3.34,3.34,0,0,1-.47-1.42c-.25-2.06-1.24-6.22-1.24-6.22s1,4,1.68,5.74A3.88,3.88,0,0,0,33.43,40h0l.12,0,.05,0,.15.07,0,0,0,0c1-1,2.22-1.61,1.7-.44h0l-.32.71.31-.69a6.37,6.37,0,0,1-1.75,2.36,1.13,1.13,0,0,1,0,.12l-.58.34c.26-.06.32.33.3.79a20.44,20.44,0,0,1-1.24,3.22l-.06.26.19.31L37,34.72h0l1.33-2.82.11-.22.84-1.78Z"/><path class="cls-4" d="M28.35,38.66h0a1,1,0,0,0,1-.77c.26-1.16-.9-4.61-.9-4.61s.7,3.73.36,4.64a1,1,0,0,1-.62.62Z"/><path class="cls-5" d="M37,34.71l1.33-2.82c-1,0-3.71,6.91-3.78,7C34.63,38.83,37.68,33,37,34.71Z"/><path class="cls-5" d="M33,38.14s0-4.77,0-5.66c1.27-1.81,4.92-2.06,5.14-1.92s.3,1.11.3,1.11l.84-1.78-.73-.79a8.07,8.07,0,0,1-7.36,1.54c-.16,0-.32-.1-.49-.16C33.1,31.49,33,38.07,33,38.14Z"/><path class="cls-5" d="M20.89,25l0-.07a10.54,10.54,0,0,0-1.82-3.11l-1.08,0C19,21.92,20.83,24.86,20.89,25Z"/><polygon class="cls-6" points="50.11 26.95 31.81 26.95 30.86 17.78 51.01 17.78 50.11 26.95"/><path class="cls-7" d="M56.1,36.46c.45-1.88-.08-7-.81-7.78,0-.06-.44-.39-2.2-.39-.4,0-.81,0-1.18,0v2.31H50.8c.33,4.22.68,6.18.64,5.85l1.25,2.44h.58v2.49C53.79,41.29,55.73,38,56.1,36.46Z"/><path class="cls-8" d="M28.75,29.16a2.06,2.06,0,0,1,0-.26A2.06,2.06,0,0,0,28.75,29.16Z"/><path class="cls-8" d="M28.75,29.42v0Z"/><polygon class="cls-8" points="30.54 17.52 30.54 17.52 30.54 17.52 30.54 17.52"/><path class="cls-6" d="M60.07,39.69l-.11.19Z"/><path class="cls-6" d="M60.22,39.38l-.09.19Z"/><path class="cls-6" d="M51.4,23.37l.18,0Z"/><path class="cls-6" d="M52.71,23.24l.24,0Z"/><path class="cls-6" d="M53,23.21h0Z"/><path class="cls-6" d="M54.52,43.71l-.1,0Z"/><path class="cls-6" d="M52.4,23.26l.24,0Z"/><path class="cls-6" d="M59.72,40.26l-.18.25Z"/><path class="cls-6" d="M54.64,43.67l-.09,0Z"/><path class="cls-6" d="M59.9,40l-.12.2Z"/><path class="cls-6" d="M55.17,23.16h0Z"/><path class="cls-6" d="M53.73,23.17h0Z"/><path class="cls-6" d="M54.1,23.16h0Z"/><path class="cls-6" d="M60.35,39.05a1.8,1.8,0,0,1-.08.21A1.8,1.8,0,0,0,60.35,39.05Z"/><path class="cls-6" d="M52,27.75h-.12c.37,0,.78,0,1.18,0a4,4,0,0,1,2.63.58c.92,1,1.39,6.39.93,8.29A3.65,3.65,0,0,1,55,38.7h0l0,0,0,0h0l-.15.09-.14.08-.15.09-.13.07,0,0A4.38,4.38,0,0,0,53,40.27v.6h-.27A1.5,1.5,0,0,0,52.92,42c1.41,2.1,5-.27,5.33-.21a7.66,7.66,0,0,0,.8-.71,6.68,6.68,0,0,0,.89-2,25.49,25.49,0,0,0,.16-6.91A20,20,0,0,1,60,35.41s-.27-6.44-.82-8a10.43,10.43,0,0,1,.66,2.21c-.33-2.31-.85-4.29-1.51-5a6.86,6.86,0,0,0-3.22-1.48h-.37C51.57,23.12,52.72,27.71,52,27.75Zm2.19,12.32a5.82,5.82,0,0,0,3-3.57C57.07,38.93,54.22,40.07,54.22,40.07Zm2.16,1.41a7.55,7.55,0,0,0,3.25-5C59.75,39.7,56.38,41.48,56.38,41.48Zm2.6-4.4s-.38-9.31-1.17-11.52C59.92,30.39,59,37.08,59,37.08ZM57.87,33s-.79-6.4-1.46-7.89C58.13,28.34,57.87,33,57.87,33Z"/><path class="cls-6" d="M58.66,24l.05,0Z"/><path class="cls-6" d="M53.5,39.43l-.06,0Z"/><path class="cls-6" d="M53.72,39.34l-.09,0Z"/><path class="cls-6" d="M53.07,39.56h0Z"/><path class="cls-6" d="M54,39.24l-.11,0Z"/><path class="cls-6" d="M53.32,39.49l0,0Z"/><path class="cls-6" d="M58.47,23.88l.08.05Z"/><path class="cls-6" d="M58.06,23.66l.1.05Z"/><path class="cls-6" d="M56.8,23.31l.12,0Z"/><path class="cls-6" d="M57.07,23.36l.12,0Z"/><path class="cls-6" d="M51.62,23.35l.19,0Z"/><path class="cls-6" d="M57.34,23.42l.11,0Z"/><path class="cls-6" d="M57.59,23.49l.11,0Z"/><path class="cls-6" d="M56.51,23.27h0Z"/><path class="cls-6" d="M55.47,23.17h0Z"/><path class="cls-6" d="M55.9,43.18l-.18.08Z"/><path class="cls-6" d="M56.09,23.22h0Z"/><path class="cls-6" d="M58.28,23.77l.08,0Z"/><path class="cls-6" d="M55.78,23.19h0Z"/><path class="cls-6" d="M54.65,23.15h0Z"/><path class="cls-6" d="M50.89,23.44h0Z"/><path class="cls-6" d="M52.11,23.29l.23,0Z"/><path class="cls-6" d="M55.65,43.29l-.18.08Z"/><path class="cls-6" d="M57.83,23.57l.11,0Z"/><path class="cls-6" d="M55.43,43.39l-.42.16Z"/><path class="cls-6" d="M56.18,43.05l-.22.1Z"/><path class="cls-6" d="M55,43.56l-.14,0Z"/><path class="cls-6" d="M60.48,38.61c0,.11-.06.22-.09.33C60.42,38.83,60.46,38.72,60.48,38.61Z"/><path class="cls-6" d="M54.79,43.62l-.1,0Z"/><path class="cls-6" d="M50.92,23.44l.46-.06Z"/><path class="cls-6" d="M59.27,40.83l-.2.21Z"/><path class="cls-6" d="M53.38,23.19h0Z"/><path class="cls-6" d="M59.52,40.53l-.22.27Z"/><path class="cls-6" d="M57.32,42.42l-.21.13Z"/><path class="cls-6" d="M54.23,39.12l-.12.05Z"/><path class="cls-6" d="M57,42.59l-.22.13Z"/><path class="cls-6" d="M51.84,23.32l.22,0Z"/><path class="cls-6" d="M56.76,42.75l-.54.28Z"/><path class="cls-6" d="M57.64,42.22l-.25.16Z"/><path class="cls-6" d="M58.23,41.79,58,42Z"/><path class="cls-6" d="M58,42l-.29.2Z"/><path class="cls-9" d="M55,38.71l-.15.09Z"/><path class="cls-9" d="M54.34,39.06l0,0,0,0Z"/><path class="cls-9" d="M54.66,38.88l-.15.09Z"/><path class="cls-9" d="M53.07,39.56l.1,0,.11,0,0,0,.12,0,.06,0,.13,0,.09,0,.14-.05.11,0,.14-.07.12-.05.12-.06c.28-.18.51-.31.6-.36a3.65,3.65,0,0,0,1.7-2.11c.46-1.9,0-7.27-.93-8.29a4,4,0,0,0-2.63-.58c-.4,0-.81,0-1.18,0v.57c.37,0,.78,0,1.18,0,1.76,0,2.15.33,2.2.39.73.81,1.26,5.9.81,7.78C55.73,38,53.55,38.85,53,39v.58h0Z"/><path class="cls-10" d="M59.82,29.65a16,16,0,0,1,.28,2.49,25.49,25.49,0,0,1-.16,6.91,6.68,6.68,0,0,1-.89,2h0l0,0,.2-.21,0,0,.22-.27,0,0,.18-.25.06-.08.12-.2.06-.1.11-.19.06-.12.09-.19.05-.12a1.8,1.8,0,0,0,.08-.21s0-.07,0-.11.07-.22.09-.33c.8-3.31,0-12.63-1.62-14.41l-.15-.14-.05,0-.11-.09-.08-.05-.11-.07-.08,0-.12-.06-.1-.05-.12-.05-.11,0-.13,0-.11,0-.14,0-.11,0-.15,0-.12,0-.15,0-.12,0-.17,0h-.12l-.28,0h-.14l-.15,0h-.85a6.86,6.86,0,0,1,3.22,1.48C59,25.36,59.49,27.34,59.82,29.65Z"/><path class="cls-9" d="M55,38.7l0,0Z"/><path class="cls-9" d="M54.34,39.06h0l-.12.06-.12.05-.14.07-.11,0-.14.05-.09,0-.13,0-.06,0-.12,0,0,0-.11,0-.1,0h0v.71A4.38,4.38,0,0,1,54.34,39.06Z"/><path class="cls-9" d="M52.92,42a1.5,1.5,0,0,1-.16-1.11H52.1c.25,1.54.54,3.14.86,4.81.32-.69.92-1.8,1.46-1.94l.1,0h0l.09,0h0l.1,0h.05l.14,0h0l.42-.16,0,0,.18-.08.07,0,.18-.08.06,0,.22-.1,0,0,.54-.28.06,0,.22-.13.07,0,.21-.13.07,0,.25-.16,0,0L58,42h0l.27-.2,0,0h0C57.91,41.71,54.33,44.08,52.92,42Z"/><path class="cls-9" d="M54.38,39l.13-.07.15-.09.14-.08.15-.09h0c-.09,0-.32.18-.6.36Z"/><path class="cls-9" d="M59.28,23.82c-.75-.83-2.26-1.24-4.63-1.24a26.19,26.19,0,0,0-3.85.3c0,.28-.06.58-.09.88-.07.85-.1,1.82-.09,2.85h1.29v1.15H52c.69,0-.46-4.63,2.69-4.6h1.22l.15,0h.14l.28,0h.12l.17,0,.12,0,.15,0,.12,0,.15,0,.11,0,.14,0,.11,0,.13,0,.11,0,.12.05.1.05.12.06.08,0,.11.07.08.05.11.09.05,0,.15.14c1.6,1.78,2.42,11.1,1.62,14.41,0,.11-.06.22-.09.33s0,.07,0,.11a1.8,1.8,0,0,1-.08.21l-.05.12-.09.19-.06.12-.11.19-.06.1-.12.2-.06.08-.18.25,0,0-.22.27,0,0-.2.21,0,0h0a7.66,7.66,0,0,1-.8.71h0l0,0L58,42h0l-.29.2,0,0-.25.16-.07,0-.21.13-.07,0-.22.13-.06,0-.54.28,0,0-.22.1-.06,0-.18.08-.07,0-.18.08,0,0-.42.16h0l-.14,0h-.05l-.1,0h0l-.09,0h0l-.1,0c-.54.14-1.14,1.25-1.46,1.94.06.33.12.67.19,1l.09-.23a5.29,5.29,0,0,1,1.33-2.16s5.52-1.6,6.47-5.54C61.83,35.45,61.14,25.88,59.28,23.82Zm-4.81-.67h0Z"/><path class="cls-9" d="M56.38,41.48s3.37-1.78,3.25-5A7.55,7.55,0,0,1,56.38,41.48Z"/><path class="cls-9" d="M54.22,40.07s2.85-1.14,3-3.57A5.82,5.82,0,0,1,54.22,40.07Z"/><path class="cls-9" d="M59.16,27.44c.55,1.53.82,8,.82,8a20,20,0,0,0,.12-3.27,16,16,0,0,0-.28-2.49A10.43,10.43,0,0,0,59.16,27.44Z"/><path class="cls-10" d="M57.81,25.56C58.6,27.77,59,37.08,59,37.08S59.92,30.39,57.81,25.56Z"/><path class="cls-9" d="M56.41,25.12c.67,1.49,1.46,7.89,1.46,7.89S58.13,28.34,56.41,25.12Z"/><path class="cls-6" d="M33,40.87c-.07.61-.14,1.13-.23,1.53,0-.49,0-1-.07-1.53h0a30.49,30.49,0,0,1-1,5.86c.73.1,1.47.18,2.2.26l.64-6.12Z"/><path class="cls-6" d="M42.43,30.64l.42,8.29h1.92c.07-2.33-.08-6.89,0-8.29Z"/><path class="cls-6" d="M39.71,30.64a41.46,41.46,0,0,1-.5,5.32c-.11-1.58-.11-3.45-.05-5.32H37.3c-.11,2.1.06,6.66,0,8.29h5l-.13-8.29Z"/><path class="cls-6" d="M49,30.64c0,.17,0,.34,0,.5,0-.16-.06-.33-.08-.5h-3l.59,8.29h2.31l-.55-6.38,1,6.38H51.1c-.26-1.93-.73-6.37-.88-8.29Z"/><path class="cls-6" d="M44.8,30.64c0,1.18.17,5.8.15,8.29h1l-.31-8.29Z"/><path class="cls-6" d="M36.79,30.64H35.58l.08,8.29H37C36.93,37.37,36.65,32.89,36.79,30.64Z"/><path class="cls-6" d="M40.4,40.87c0,2.16.14,3.35.28,6.21h-.45c-.08-2.51-.09-3.6,0-6.21H39l.25,6.45,1.61,0h.93L42,40.87Z"/><path class="cls-6" d="M35.29,40.87l-.21,6.22c1,.09,2,.15,3,.19l.64-6.41Z"/><path class="cls-6" d="M44.7,40.87c0,3,0,4.43.12,6.21h-.45c0-1.52,0-3,.05-6.21H42.74L43,47.3c1,0,1.89-.07,2.84-.14l-.09-6.29Z"/><path class="cls-6" d="M46.51,40.87l.47,6.2c.83-.08,1.67-.17,2.5-.27l-.59-5.93Z"/><path class="cls-6" d="M35.42,30.64H33.48c0,1.75.16,6.3.08,8.29h1.61Z"/><path class="cls-6" d="M49.82,40.87l1.37,5.69c.54-.08,1.07-.16,1.61-.26-.31-1.51-.8-2.49-1.29-5.43Z"/><path class="cls-9" d="M29,46.3c.31-1.51.8-2.49,1.29-5.43h-.59c-.35,2.17-.78,2.93-1.26,5.35l.2,0Z"/><path class="cls-9" d="M50.22,30.64c.15,1.92.62,6.36.88,8.29h.58c-.29-2.11-.74-6.51-.88-8.29Z"/><path class="cls-9" d="M53,45.68c-.32-1.67-.61-3.27-.86-4.81h-.59c.49,2.94,1,3.92,1.29,5.43l.36-.06.2,0c-.07-.37-.14.82-.21.46S53,46,53,45.68Z"/><path class="cls-10" d="M30.24,40.87c-.49,2.94-1,3.92-1.29,5.43.93.16,1.85.31,2.78.43a30.49,30.49,0,0,0,1-5.86Z"/><path class="cls-10" d="M30.44,30.64c0,.37,1,.85,1,1.38a.85.85,0,0,1,.49.75,6,6,0,0,0,.25,1.4,10.6,10.6,0,0,1,.29,1.59,3.69,3.69,0,0,1-.92,2.92.86.86,0,0,1-.43.2v0H33c.08-2.08,0-6.6.13-8.29Z"/><path class="cls-10" d="M32.48,17.88H31c.55,1.51.74,6.16.72,8.68h1.42c0-.27,0-.55,0-.82,0-1.28.54-3,3.84-4.22-.06-.13-.12-3.57-.17-3.71Z"/><path class="cls-9" d="M48.89,40.87l.59,5.93,1.71-.24-1.37-5.69Z"/><polygon class="cls-9" points="48.79 38.93 49.23 38.93 48.24 32.55 48.79 38.93"/><polygon class="cls-9" points="45.56 26.57 45.64 26.57 45.54 24.92 45.56 26.57"/><path class="cls-9" d="M45.73,40.87l.09,6.29L47,47.07l-.47-6.2Z"/><polygon class="cls-9" points="45.61 30.64 45.92 38.93 46.48 38.93 45.89 30.64 45.61 30.64"/><polygon class="cls-9" points="42.22 26.57 42.3 26.57 42.25 24.92 42.22 26.57"/><polygon class="cls-9" points="42.15 30.64 42.28 38.93 42.85 38.93 42.43 30.64 42.15 30.64"/><path class="cls-9" d="M42,40.87l-.15,6.46,1.17,0-.24-6.43Z"/><path class="cls-9" d="M38.74,40.87l-.64,6.41,1.17,0L39,40.87Z"/><path class="cls-9" d="M34.57,40.87,33.93,47l1.15.1.21-6.22Z"/><polygon class="cls-9" points="35.58 30.6 35.41 30.6 35.17 38.93 35.66 38.93 35.58 30.6"/><path class="cls-9" d="M33,40.87h-.3c0,.53,0,1,.07,1.53C32.88,42,33,41.48,33,40.87Z"/><path class="cls-9" d="M33.48,30.57h-.35c-.14,1.71-.05,6.26-.13,8.36h.56C33.64,36.92,33.45,32.33,33.48,30.57Z"/><path class="cls-9" d="M39.21,36a41.46,41.46,0,0,0,.5-5.32h-.55C39.1,32.51,39.1,34.38,39.21,36Z"/><path class="cls-9" d="M39.37,26.57h.48c0-1,.22-8,.23-8.84l-.31-.06C39.69,18.52,39.44,25.55,39.37,26.57Z"/><path class="cls-9" d="M44,26.57h.28c.13-1.35.3-7,.35-8.75a3,3,0,0,1-.42,0C44.1,19.4,44,25,44,26.57Z"/><path class="cls-9" d="M48.7,26.57h.36c0-1.34.13-7.65.17-8.91a3.89,3.89,0,0,1-.42.19C48.76,19,48.69,25.28,48.7,26.57Z"/><path class="cls-9" d="M48.93,30.64c0,.17,0,.34.08.5,0-.16,0-.33,0-.5Z"/><path class="cls-10" d="M37.56,26.57A31.28,31.28,0,0,1,38,23h0a30.37,30.37,0,0,0-.79,3.62Z"/><path class="cls-10" d="M37.3,30.64h-.51c-.14,2.25.14,6.73.21,8.29h.32C37.36,37.3,37.19,32.74,37.3,30.64Z"/><path class="cls-10" d="M40.23,47.08h.45c-.14-2.86-.25-4-.28-6.21h-.15C40.14,43.48,40.15,44.57,40.23,47.08Z"/><path class="cls-10" d="M44.78,30.64c-.09,1.4.06,6,0,8.29H45c0-2.49-.19-7.11-.15-8.29Z"/><path class="cls-10" d="M44.37,47.08h.45c-.09-1.78-.12-3.17-.12-6.21h-.28C44.35,44.09,44.33,45.56,44.37,47.08Z"/><polygon class="cls-6" points="41.24 28.87 30.41 29.09 30.41 29.17 51.34 29.17 51.34 28.11 42.38 28.4 51.34 27.6 38.95 27.6 30.41 28.24 30.41 28.49 41.24 28.87"/><path class="cls-9" d="M33.48,30.64H51.91V27.76h0V26.57H29.84v4.07h3.64Zm-3.25-2.39.18-.65v-.46H51.34v2.92H30.41V28.24Z"/><polygon class="cls-10" points="38.95 27.6 51.34 27.6 51.34 27.14 51.34 27.14 30.41 27.14 30.41 27.14 30.41 27.6 38.95 27.6"/><rect class="cls-9" x="30.28" y="29.17" width="21.06" height="1.18"/><polygon class="cls-9" points="38.95 27.6 30.41 27.6 30.23 28.25 30.41 28.24 38.95 27.6"/><polygon class="cls-9" points="42.38 28.4 51.34 28.11 51.34 27.6 42.38 28.4"/><polygon class="cls-10" points="41.24 28.87 30.41 28.49 30.41 29.09 41.24 28.87"/><polygon class="cls-6" points="52.4 41.72 52.4 40.54 42.48 40.86 52.4 39.98 38.69 39.98 29.25 40.68 29.25 40.97 41.23 41.38 29.25 41.62 29.25 41.72 52.4 41.72"/><path class="cls-9" d="M30.18,43.28H53V38.9H28.67v4.38h1.51Zm-.93-1.56V39.47H52.4V42.7H29.25Z"/><polygon class="cls-10" points="38.69 39.98 52.4 39.98 52.4 39.47 29.25 39.47 29.25 39.98 38.69 39.98"/><rect class="cls-9" x="29.25" y="41.72" width="23.15" height="0.99"/><polygon class="cls-9" points="38.69 39.98 29.25 39.98 29.25 40.68 38.69 39.98"/><polygon class="cls-9" points="42.48 40.86 52.4 40.54 52.4 39.98 42.48 40.86"/><polygon class="cls-10" points="41.23 41.38 29.25 40.97 29.25 41.62 41.23 41.38"/><path class="cls-6" d="M52.13,48.22c-3,.57-14.22-.25-14.09-.37h.22a69.81,69.81,0,0,1-9.77-1c5,2.07,6.1,3.35,22.21,3.5,1.63-.22,3.25-.49,4.86-.82C55.27,48.89,54.41,47.8,52.13,48.22Z"/><path class="cls-6" d="M37.57,50.9l-.57,0Z"/><path class="cls-6" d="M46.88,50.73l-.58.05Z"/><path class="cls-6" d="M33.57,50.61,33,50.55Z"/><path class="cls-6" d="M54.78,47.18h0Z"/><path class="cls-6" d="M26.4,48v0Z"/><path class="cls-6" d="M27,47.18h0Z"/><path class="cls-6" d="M35.38,50.77h0Z"/><path class="cls-6" d="M44.75,50.88h0Z"/><path class="cls-6" d="M26.73,47.41l0,0Z"/><path class="cls-6" d="M54.21,46.88h0Z"/><path class="cls-6" d="M53.9,46.8h0Z"/><path class="cls-6" d="M54.51,47h0Z"/><path class="cls-6" d="M31.84,50.42l-.63-.08Z"/><path class="cls-6" d="M53.6,46.78h0Z"/><path class="cls-6" d="M30.1,50.18l-.63-.1Z"/><path class="cls-6" d="M40.88,51h0Z"/><path class="cls-6" d="M48.67,50.56l-.64.07Z"/><path class="cls-6" d="M55.34,47.92v0Z"/><path class="cls-6" d="M42.86,51h0Z"/><path class="cls-6" d="M55,47.38l0,0Z"/><path class="cls-6" d="M55.18,47.63l0,0Z"/><path class="cls-6" d="M28.15,46.78h0Z"/><path class="cls-6" d="M50.42,50.35l-.64.08Z"/><path class="cls-6" d="M27.49,46.89h0Z"/><path class="cls-6" d="M28.3,49.89l-.54-.1Z"/><path class="cls-6" d="M39.38,51h0Z"/><path class="cls-6" d="M27.22,47h0Z"/><path class="cls-6" d="M27.8,46.81h0Z"/><path class="cls-6" d="M26.54,47.67l0,0Z"/><path class="cls-6" d="M47.38,47.61l.57-.06Z"/><path class="cls-6" d="M51.53,47.09l-.56.08Z"/><path class="cls-6" d="M40.23,47.9h0Z"/><path class="cls-6" d="M45.63,47.75l.27,0Z"/><path class="cls-6" d="M41.56,47.9h0Z"/><path class="cls-6" d="M43.51,47.86h0Z"/><path class="cls-6" d="M49.77,47.34l-.62.08Z"/><path class="cls-9" d="M52.8,46.3c-.54.1-1.07.18-1.61.26l-1.71.24c-.83.1-1.67.19-2.5.27l-1.16.09c-1,.07-1.89.11-2.84.14l-1.17,0h-.93l-1.61,0-1.17,0c-1,0-2-.1-3-.19L33.93,47c-.73-.08-1.47-.16-2.2-.26-.93-.12-1.85-.27-2.78-.43l-.36-.06-.2,0-.24,0a2.45,2.45,0,0,0-2.4,1.92l-.12.58-.14.65-.11.56.56.11a73.48,73.48,0,0,0,14.94,1.53A73.45,73.45,0,0,0,55.81,50l.56-.11-.11-.56-.16-.77-.1-.45a2.44,2.44,0,0,0-2.4-1.93l-.24,0-.2,0ZM55,47.38l0,0a1.77,1.77,0,0,1,.16.22l0,0a2,2,0,0,1,.13.25v0a1.4,1.4,0,0,1,.09.29c.09.41.17.82.26,1.22l-.14,0h0c-1.61.33-3.23.6-4.86.82h0l-.32,0-.64.08-1.11.13-.64.07-1.15.1-.58.05-1.55.1h-.17c-.57,0-1.14,0-1.72.06h-.54l-1.19,0h-.64l-1.11,0h-.64l-1.17-.05-.57,0-1.62-.11h-.1l-1.71-.16L33,50.55l-1.19-.13-.63-.08-1.11-.16-.63-.1-1.17-.19-.54-.1c-.57-.1-1.14-.21-1.7-.33.08-.4.16-.81.25-1.22A1.4,1.4,0,0,1,26.4,48v0a2,2,0,0,1,.13-.25l0,0a1.77,1.77,0,0,1,.16-.22l0,0a2,2,0,0,1,.21-.2h0l.24-.15h0a1.42,1.42,0,0,1,.25-.12h.05a1.11,1.11,0,0,1,.26-.07h.05l.29,0h0l.32,0a69.81,69.81,0,0,0,9.77,1l1.49,0h2.3l1.46,0h.33l1.79-.1.27,0,1.48-.12.57-.06,1.2-.13.62-.08,1.2-.17.56-.08,1.73-.28.32,0h0l.29,0H54a1.11,1.11,0,0,1,.26.07h0a1.42,1.42,0,0,1,.25.12h0l.23.15h0A2,2,0,0,1,55,47.38Z"/><path class="cls-10" d="M54.54,47h0a1.42,1.42,0,0,0-.25-.12h0a1.11,1.11,0,0,0-.26-.07H53.9l-.29,0h0l-.32,0-1.73.28-.56.08-1.2.17-.62.08-1.2.13-.57.06-1.48.12-.27,0-1.79.1h-.33l-1.46,0h-2.3l-1.49,0H38c-.13.12,11.08.94,14.09.37,2.28-.42,3.14.67,3.43,1.27h0l.14,0c-.09-.4-.17-.81-.26-1.22a1.4,1.4,0,0,0-.09-.29v0a2,2,0,0,0-.13-.25l0,0a1.77,1.77,0,0,0-.16-.22l0,0a2,2,0,0,0-.21-.2h0Z"/><path class="cls-9" d="M28.49,46.81l-.32,0h0l-.29,0H27.8a1.11,1.11,0,0,0-.26.07h-.05a1.42,1.42,0,0,0-.25.12h0l-.24.15h0a2,2,0,0,0-.21.2l0,0a1.77,1.77,0,0,0-.16.22l0,0a2,2,0,0,0-.13.25v0a1.4,1.4,0,0,0-.09.29c-.09.41-.17.82-.25,1.22.56.12,1.13.23,1.7.33l.54.1,1.17.19.63.1,1.11.16.63.08,1.19.13.54.06,1.71.16h.1l1.62.11.57,0,1.17.05h.64l1.11,0h.64l1.19,0h.54c.58,0,1.15,0,1.72-.06h.17l1.55-.1.58-.05,1.15-.1.64-.07,1.11-.13.64-.08.32,0h0C34.59,50.16,33.51,48.88,28.49,46.81Z"/><path class="cls-8" d="M52.73,15c0,.1,0,.2,0,.3C52.71,15.16,52.72,15.06,52.73,15Z"/><path class="cls-8" d="M50.35,17.94a2,2,0,0,0,.07-.26A2,2,0,0,1,50.35,17.94Z"/><polygon class="cls-8" points="45.25 18.62 45.26 18.61 45.26 18.61 45.25 18.62"/><path class="cls-9" d="M51.32,17.55l-17.78-.24H30.69l-.15.21h0l0,0-.17.25.1.28v0c.48,1.34.69,5.81.67,8.45h.58c0-2.52-.17-7.17-.72-8.68h3.13l0,0L51,17.93a32.43,32.43,0,0,1-.49,3.52,25,25,0,0,0-.41,5.21h.58c0-1,.06-2.05.13-2.89,0-.31.05-.61.09-.89.12-.94.25-4.17.47-4.8l.11-.28Z"/><rect class="cls-9" x="52.93" y="38.9" width="0.11" height="1.98"/><path class="cls-9" d="M30,39.49a3.12,3.12,0,0,1-1.27-.15v-.4a2.62,2.62,0,0,0,2.87-.48c1.15-.89.84-3.18.47-4.39-.76-2.52-1.38-3-2.09-3.56l.25-.32c.86.67,1.49,1.3,2.23,3.76.11.36,1,3.56-.61,4.83A2.86,2.86,0,0,1,30,39.49Z"/></g></g></svg>