<svg xmlns="http://www.w3.org/2000/svg" viewBox="0 0 64 64"><defs><style>.cls-1{isolation:isolate;}.cls-11,.cls-2{fill:#2d4c4d;}.cls-10,.cls-2,.cls-3,.cls-4,.cls-5,.cls-7,.cls-8,.cls-9{fill-rule:evenodd;}.cls-12,.cls-14,.cls-3{fill:#1e353a;}.cls-4,.cls-6{fill:#e1803a;}.cls-5{fill:#d07132;}.cls-7{fill:#ef9557;}.cls-8{fill:#feea9d;}.cls-9{fill:#887f31;}.cls-10{fill:#988e33;}.cls-13,.cls-14{opacity:0.3;mix-blend-mode:screen;}</style></defs><g class="cls-1"><g id="Layer_1" data-name="Layer 1"><path class="cls-2" d="M28.67,11.8a3.14,3.14,0,0,0-.4.71,2.91,2.91,0,0,0-3.37,1.1,3.16,3.16,0,0,0-.5,1.13,3.51,3.51,0,0,0-3.68,1.42,3.23,3.23,0,0,0-.36.63,2.76,2.76,0,0,0-3.51.91,2.82,2.82,0,0,0,.35,3.74,2.51,2.51,0,0,0-.67.63,2.2,2.2,0,0,0,.3,2.94,2.36,2.36,0,0,0-1,.81A2.28,2.28,0,0,0,16.29,29l.08.06a2.72,2.72,0,0,0-.82.73A2.49,2.49,0,0,0,16,33.22a2.41,2.41,0,0,0,3.38-.63,2.53,2.53,0,0,0,.14-2.75,1.48,1.48,0,0,0,.27-.19,2.67,2.67,0,0,0,2.51-1.15,2.87,2.87,0,0,0,.52-1.94A3.23,3.23,0,0,0,25,25.21a3.55,3.55,0,0,0,.64-2.37,2.83,2.83,0,0,0,3.22-.56A3.07,3.07,0,0,0,32,21a3.18,3.18,0,0,0-.38-4.21,3.29,3.29,0,0,0,2.05-1.33A3.24,3.24,0,0,0,33.06,11a3.12,3.12,0,0,0-4.39.82Z"/><path class="cls-3" d="M28.67,11.8a3.14,3.14,0,0,0-.4.71,2.91,2.91,0,0,0-3.37,1.1,3.16,3.16,0,0,0-.5,1.13,3.51,3.51,0,0,0-3.68,1.42,3.23,3.23,0,0,0-.36.63,2.76,2.76,0,0,0-3.51.91,2.9,2.9,0,0,1,3.58.37c1.12-1.42,2.35-2.09,3.8-1.63a2.44,2.44,0,0,1,4.29.42L34.28,14a3.07,3.07,0,0,0-5.61-2.15ZM17.87,26.08a.5.5,0,1,0,.7-.12.48.48,0,0,0-.7.12ZM21.1,19a.32.32,0,0,0,.06.45.32.32,0,1,0,.37-.52.3.3,0,0,0-.43.07Zm4-1.76a.38.38,0,0,0,.1.51.35.35,0,0,0,.5-.07.37.37,0,0,0-.6-.44Zm-2.24.4a.5.5,0,0,0,.09.7.48.48,0,0,0,.7-.12.49.49,0,0,0-.79-.58ZM20.92,21a.66.66,0,1,0,1.06.78.67.67,0,0,0-.15-.93.64.64,0,0,0-.91.15Zm-3,2.18a1,1,0,0,0,.21,1.35.94.94,0,0,0,1.34-.21A1,1,0,0,0,19.27,23a.93.93,0,0,0-1.32.2ZM18.62,20a.52.52,0,0,0,.11.71.48.48,0,0,0,.7-.12.5.5,0,1,0-.81-.59Z"/><path class="cls-4" d="M18.08,31.46l7.54-9.66,7.56-9.67a1.76,1.76,0,0,1,2.35-.39l11.95,8.31,13.39,9.32a1.89,1.89,0,0,1,.51,2.68L52.8,43,44.22,54a1.89,1.89,0,0,1-2.72.15q-6.37-5.6-12.28-10.74l-11-9.59a1.76,1.76,0,0,1-.18-2.38Z"/><path class="cls-5" d="M61,29.46a1.86,1.86,0,0,1,.39,2.59L52.8,43,44.22,54a1.87,1.87,0,0,1-2.61.24Z"/><path class="cls-5" d="M18.08,31.46l7.54-9.66,7.56-9.67a1.76,1.76,0,0,1,2.35-.39l11.95,8.31,1.19.83c-10.85.82-21,3.58-28.19,14.9l-2.22-1.94a1.76,1.76,0,0,1-.18-2.38Z"/><path class="cls-6" d="M20.15,33.13l.13.26h0a1.33,1.33,0,0,1-.34,1h0a3.47,3.47,0,0,1-.32.34,2.31,2.31,0,0,1-.42.27.92.92,0,0,1-.95-.12l-3.46-2.7a.36.36,0,0,1,0-.51L32.6,8.84a.36.36,0,0,1,.51-.08l3.46,2.7a1,1,0,0,1,.34.9,1.74,1.74,0,0,1-.16.47,2.5,2.5,0,0,1-.25.4,1.22,1.22,0,0,1-.92.57l-.28-.05c-.46-.07-1-.18-1.27.15s-.05.58.09.93a3.53,3.53,0,0,1,.21.65.6.6,0,0,1,0,.23h0a1.64,1.64,0,0,1-1.29,1.65.78.78,0,0,1-.22,0,3.16,3.16,0,0,1-.69,0c-.37-.05-.73-.11-.92.14s-.06.59.08.94a3.53,3.53,0,0,1,.21.65.89.89,0,0,1,0,.22h0a1.6,1.6,0,0,1-.36,1.06,1.69,1.69,0,0,1-.94.6A1.46,1.46,0,0,1,30,21a3.07,3.07,0,0,1-.68-.06c-.37,0-.74-.09-.93.15s-.06.59.08,1a4,4,0,0,1,.22.64l0,.22h0A1.63,1.63,0,0,1,28.38,24a1.69,1.69,0,0,1-.94.6l-.22,0a3.82,3.82,0,0,1-.68,0c-.37-.05-.73-.11-.93.15s-.06.59.08.94a4.38,4.38,0,0,1,.22.64,2,2,0,0,1,0,.23h0a1.59,1.59,0,0,1-.35,1.05,1.66,1.66,0,0,1-.95.61l-.21,0a3.13,3.13,0,0,1-.69,0c-.37-.05-.73-.11-.93.15s-.05.58.09.93a4.12,4.12,0,0,1,.21.65.9.9,0,0,1,0,.23h0a1.59,1.59,0,0,1-.35,1.05,1.6,1.6,0,0,1-.94.6.83.83,0,0,1-.22,0,3.87,3.87,0,0,1-.69-.05c-.37,0-.73-.1-.92.14s0,.84.15,1.27Z"/><path class="cls-7" d="M30.35,13.26,32.11,11a.51.51,0,0,1,.73-.09h0a.54.54,0,0,1,.1.74l-1.76,2.25a.54.54,0,0,1-.74.08h0a.51.51,0,0,1-.09-.73ZM16.73,30.7l12-15.37a.53.53,0,0,1,.74-.1h0a.54.54,0,0,1,.09.75l-12,15.36a.51.51,0,0,1-.73.08h0a.5.5,0,0,1-.09-.72Z"/><path class="cls-8" d="M31.57,26a7.52,7.52,0,1,1,1.29,10.55A7.51,7.51,0,0,1,31.57,26Z"/><path class="cls-8" d="M41.79,41.38l7.15-9.15a.59.59,0,0,1,.82-.1h0a.57.57,0,0,1,.1.82L42.71,42.1a.58.58,0,0,1-.82.1h0a.59.59,0,0,1-.1-.82ZM44,43.08l7.15-9.15a.57.57,0,0,1,.81-.1h0a.56.56,0,0,1,.09.8l-7.15,9.16a.57.57,0,0,1-.8.11h0a.57.57,0,0,1-.1-.82Z"/><path class="cls-9" d="M40.68,32.72a5.14,5.14,0,0,0,.72-4.43c-.45-1.57-1.83-1.51-3-3.33a5.15,5.15,0,0,0,2.27,7.76Z"/><path class="cls-10" d="M40.8,32.65A6,6,0,0,1,36,34.73c-1.92-.07-2.23-1.66-4.64-2.46a6,6,0,0,1,9.44.38Z"/><path class="cls-11" d="M19.26,42.21c-.87-.4-1.86.38-2.45,1.13a3.61,3.61,0,0,0-.88,1.17c-1,2,4.46,2.12,5.06.33C21.33,43.85,20.07,42.58,19.26,42.21Z"/><path class="cls-12" d="M20.63,43.4c.15.89-.19,1.83-1.21,1.93s-2.8-.21-3.34-1.12a2.1,2.1,0,0,0-.15.3c-1,2,4.46,2.12,5.06.33A1.63,1.63,0,0,0,20.63,43.4Z"/><g class="cls-13"><path class="cls-12" d="M18.46,42.85c-.22-.18-.55.09-.72.22a1.61,1.61,0,0,0-.52.66,2.07,2.07,0,0,0-.15.25c-.07.15-.08.44.17.38a1.45,1.45,0,0,0,.57-.34,3,3,0,0,0,.49-.52C18.38,43.38,18.64,43,18.46,42.85Z"/></g><path class="cls-11" d="M16.38,39.29c0-1-.48-2.54-1.61-2.78a5,5,0,0,0-.66-.09,1.31,1.31,0,0,0-.27-.06,7.55,7.55,0,0,0-4,1c-2.51,1.5,1.59,4.11,2.89,4.73.53.25,2.45,1.2,3,.61C16.61,41.73,16.4,40.45,16.38,39.29Z"/><path class="cls-12" d="M16.42,40.3a1.83,1.83,0,0,1-.26.42c-1.09,1.36-2.69.85-3.82-.24s-1.58-2.41-.66-3.68l.21-.25a7.26,7.26,0,0,0-2,.78c-2.51,1.5,1.59,4.11,2.89,4.73.53.25,2.45,1.2,3,.61A3.18,3.18,0,0,0,16.42,40.3Z"/><ellipse class="cls-14" cx="13.76" cy="37.4" rx="0.86" ry="0.31" transform="translate(-2.94 1.22) rotate(-4.58)"/></g></g></svg>