<svg id="Layer_1" data-name="Layer 1" xmlns="http://www.w3.org/2000/svg" viewBox="0 0 180.26 398.3"><defs><style>.cls-1{fill:#bbcbd2;}.cls-2{fill:#f0f3f3;}.cls-3{fill:#4b666b;}</style></defs><path class="cls-1" d="M96.7,95H91.55c-.89,12.52-10,279.59-10.23,288.91h25.62C106.67,374.57,97.62,107.5,96.7,95Z"/><path class="cls-2" d="M96.23,95c-.84,0,.88,288.91.88,288.91h8.54C105.4,374.33,97.09,107.5,96.23,95Z"/><path class="cls-1" d="M111.11,84.62c4.56-2.67,37.41-58.9,35.38-60.37s-15.72,13.94-30.62,34.42S91.78,91,93.81,92.45,102.24,89.79,111.11,84.62Z"/><path class="cls-2" d="M143.7,29.24,99.49,90c2.38-1.21,5.26-2.9,8-4.49q1.5-.9,3.12-1.83C113.87,81.78,137,43.21,143.7,29.24Z"/><path class="cls-1" d="M79.3,81.17c-4.58-2.61-69.7-3-70-.46s20,6.66,45.14,9.32,40,4.7,40.27,2.21S88.22,86.28,79.3,81.17Z"/><path class="cls-2" d="M15,80.63l74.77,7.89c-2.24-1.46-5.15-3.1-7.88-4.64-1-.58-2.06-1.16-3.14-1.79C75.47,80.2,30.51,79.47,15,80.63Z"/><path class="cls-1" d="M92.4,110c0,5.27,32.29,61.85,34.58,60.83s-4.19-20.59-14.48-43.73-15.94-37-18.24-36S92.36,99.72,92.4,110Z"/><path class="cls-2" d="M124.06,165.92,93.51,97.22c-.14,2.67-.11,6-.08,9.16,0,1.15,0,2.36,0,3.61C93.47,113.81,115.33,153.11,124.06,165.92Z"/><path class="cls-1" d="M97.87,94.35a4.46,4.46,0,1,0-6.23,1A4.47,4.47,0,0,0,97.87,94.35Z"/><path class="cls-3" d="M96.68,93.48a3,3,0,1,0-4.17.66A3,3,0,0,0,96.68,93.48Z"/><path class="cls-1" d="M115.19,385.88c0,1.27-.72,2.3-1.62,2.3H75.2c-.91,0-1.62-1-1.62-2.3s.71-2.27,1.62-2.27h38.37c.9,0,1.62,1,1.62,2.27Z"/></svg>