<svg xmlns="http://www.w3.org/2000/svg" viewBox="0 0 64 64"><defs><style>.cls-1{isolation:isolate;}.cls-2{fill:#e43525;}.cls-3{fill:#f04a27;}.cls-4{fill:#e0b8b7;mix-blend-mode:multiply;}.cls-5{fill:#79993e;}.cls-6{fill:#6a8538;}.cls-7,.cls-8{fill:#fff;}.cls-7{opacity:0.19;}.cls-8{opacity:0.34;}.cls-9{fill:#ce2527;}.cls-10{fill:#f15b43;}.cls-11{fill:#f47857;}.cls-12{fill:#de4426;}.cls-13{fill:#ffd075;}.cls-14{fill:#f8a177;}.cls-15{fill:#fcccae;}.cls-16{fill:#d7e264;opacity:0.54;}</style></defs><g class="cls-1"><g id="Layer_1" data-name="Layer 1"><path class="cls-2" d="M40,32.55c.9,9.07-6.68,17.19-15.53,19-9.4,1.91-19.85-3.4-22.15-12.38-2-7.91,2.83-16.48,8.35-18.89a42.39,42.39,0,0,1,7.42-1.93,41.83,41.83,0,0,1,6.77-.83C31,17.63,39.17,23.93,40,32.55Z"/><path class="cls-3" d="M28.28,22.88a11.63,11.63,0,0,0-4.46,1.85,16.43,16.43,0,0,1-4.34,2.15,18.77,18.77,0,0,1-4.74.33,36.06,36.06,0,0,0-5.29.43A7.64,7.64,0,0,0,5.73,29c-1.68,1.39-2,3.83-1.88,6a12.18,12.18,0,0,0,1.24,4.79,9.31,9.31,0,0,0,3.54,3.35,11.14,11.14,0,0,0,5.65,1.2,21.1,21.1,0,0,0,10.24-2.63,16.54,16.54,0,0,0,7.14-6.67c1.93-3.68,2.8-9.43.22-11.39A5.38,5.38,0,0,0,28.28,22.88Z"/><path class="cls-4" d="M35.11,45.67l.12-.13.14-.15.12-.13.14-.15.11-.12.15-.19.08-.09.24-.28,0-.07.18-.22.07-.1.17-.21.06-.09.2-.27,0,0,.22-.33,0,0,.19-.29,0-.06.18-.28,0,0c.21-.34.4-.68.59-1v0A15.58,15.58,0,0,0,40,32.55c-.86-8.62-9.07-14.92-15.14-15a41.83,41.83,0,0,0-6.77.83,42.39,42.39,0,0,0-7.42,1.93,14.42,14.42,0,0,0-6.19,5.87,2.85,2.85,0,0,0,.23-.26A4.19,4.19,0,0,1,6.1,24.61a1.18,1.18,0,0,1,1.59.49c.28.83,1.4,1.07,2.3.89a16.36,16.36,0,0,1,2.63-.67c1.25-.05,2.43.7,3.68.56,1.6-.19,2.63-1.75,4.09-2.42.89-.41,1.91-.47,2.81-.86,1.13-.49,2-1.48,3.2-1.82a5.16,5.16,0,0,1,3.43.53,14.59,14.59,0,0,1,8.08,10.41,15.81,15.81,0,0,1,.24,1.94,12.57,12.57,0,0,0-8.7,2.2A10.3,10.3,0,0,0,27.33,38c-2.4,3.47-1.55,7.56-1.28,8.66a35.54,35.54,0,0,1-6.66,2.58,35,35,0,0,1-6.51,1.15A20.46,20.46,0,0,0,24.5,51.53a19.81,19.81,0,0,0,6-2.27h0l.27-.16h0q.55-.33,1.08-.69l0,0,.24-.17,0,0,.76-.55h0a1.84,1.84,0,0,1,.22-.17l.07-.06.2-.16.07-.06.62-.54.08-.08.17-.15.1-.1.16-.15.11-.11Z"/><path class="cls-5" d="M20.77,13.94a5.49,5.49,0,0,1,1-2.47c-.41.89-1.66,1.14-2.22,2a2.87,2.87,0,0,0-.36.89c-.5,1.86-.7,4-2.28,5.2-1.31,1-3.11.91-4.74.73a13,13,0,0,1-3.29-.7c-1.64-.64-3.24-1.89-5-1.49a13.12,13.12,0,0,0,4,2.22,9.84,9.84,0,0,1,3.51,1.54.77.77,0,0,1,.33.7c-.07.28-.39.42-.67.52-1.13.4-2.46.78-3.47.17s-1.26-1.79-2.19-2.36l1,2.13c.51,1.06,1.21,2.26,2.41,2.37s2.08-.73,3.12-.54a5,5,0,0,1,1.13.44,4.37,4.37,0,0,0,4.42-.65c.48-.39.85-.88,1.32-1.29,2-1.73,5.19-1.63,7.11-3.43a2.68,2.68,0,0,0,.78-1.13,2.93,2.93,0,0,0,.07-1.25,6.89,6.89,0,0,0-3.26-5,5.69,5.69,0,0,1,1.66,2.71,3.41,3.41,0,0,1,.08,2,3.82,3.82,0,0,1-4.34,2.31,1.75,1.75,0,0,1-1-.79,1.65,1.65,0,0,1,0-1.27A14.27,14.27,0,0,0,20.77,13.94Z"/><path class="cls-5" d="M15.29,15.39a2.38,2.38,0,0,0-.83-.92.9.9,0,0,0-1.16.17,22.18,22.18,0,0,1,2.49,6.71,3.39,3.39,0,0,0,1.25.24c1.6-.11.54-1.7.2-2.47A30,30,0,0,0,15.29,15.39Z"/><path class="cls-6" d="M15.29,15.39a2.38,2.38,0,0,0-.83-.92,1,1,0,0,0-.42-.12,10.48,10.48,0,0,1,2.76,7.24,1,1,0,0,0,.24,0c1.6-.11.54-1.7.2-2.47A30,30,0,0,0,15.29,15.39Z"/><path class="cls-7" d="M27.9,23.53A9.13,9.13,0,0,0,28,25.18c0,1.16-.77,2.18-1.14,3.29A4.14,4.14,0,0,0,28.05,33a6.46,6.46,0,0,0,4.71.89,3.69,3.69,0,0,0,3-1.42A3,3,0,0,0,36,30.72a8.83,8.83,0,0,0-2.74-5.28C32.52,24.72,28.35,21.08,27.9,23.53Z"/><path class="cls-8" d="M10.53,29.39c-1.71,0-3.69.14-4.71,1.48a4.23,4.23,0,0,0-.7,2.62,4.61,4.61,0,0,0,1.51,3.78A4.44,4.44,0,0,0,8.34,38a8.69,8.69,0,0,0,8.25-2.67c1.23-1.43,2.23-4.31.29-5.63a3.79,3.79,0,0,0-2.11-.35C13.36,29.35,11.94,29.38,10.53,29.39Z"/><path class="cls-2" d="M61.09,50.42c-4.3,7.11-13.7,7.1-15.69,7.09-2.77,0-9.45,0-13.81-5.34-3.85-4.69-3.33-10.39-3.18-11.72l34.5.43A15,15,0,0,1,61.09,50.42Z"/><path class="cls-9" d="M61.09,50.42a15,15,0,0,0,1.82-9.54l-4.46-.06c-.12,1.17,0,2.35-.08,3.52A13.9,13.9,0,0,1,45.73,57.51C48.27,57.5,57,57.19,61.09,50.42Z"/><path class="cls-10" d="M52.76,35.16a19.73,19.73,0,0,0-7.13,1,19.7,19.7,0,0,0-7.13-1c-6.28.23-10.79,3.22-10.08,6.68.48,2.31,3.19,4.25,6.82,5.2h0a18.13,18.13,0,0,0,2.54.49,50.46,50.46,0,0,0,8.06.61,49.66,49.66,0,0,0,7.71-.62,19.46,19.46,0,0,0,2.39-.45h0c3.67-1,6.42-2.9,6.9-5.23C63.56,38.38,59.05,35.39,52.76,35.16Z"/><path class="cls-11" d="M52,35.82A31.89,31.89,0,0,0,48.6,36c-1.27.12-2.28.29-3,.42-.77-.14-1.84-.3-3.15-.42a32.86,32.86,0,0,0-3.41-.18c-5.7.21-9.8,2.93-9.15,6.06.44,2.1,2.9,3.86,6.19,4.73h0a17.84,17.84,0,0,0,2.31.44,45.73,45.73,0,0,0,7.31.55,45.41,45.41,0,0,0,7-.56,16.34,16.34,0,0,0,2.17-.41h0c3.33-.86,5.83-2.63,6.27-4.75C61.81,38.75,57.71,36,52,35.82Z"/><path class="cls-12" d="M47.77,38c-.84.7-.67,1.78.55,2.26a20.49,20.49,0,0,0,2.87.45c1.71.36,2.42,1.37,1.79,2.17s-2.35,1.36-4.18,1.56a7.31,7.31,0,0,0-1.47.22c-.93.29-.84.92-.84,1s0,.73,1,1a9.09,9.09,0,0,0,4-.24c5.7-1.23,7.23-3.77,7.23-3.77,1.14-1.87.59-4.79-3.32-5.59C52.94,36.57,49.08,36.88,47.77,38Z"/><path class="cls-13" d="M52.26,37.75a1.14,1.14,0,0,0-1.09.17c-.18.26-.83.5-.65.79a.26.26,0,0,0,.23.08,1.76,1.76,0,0,0,.78-.19l.32-.15a3.65,3.65,0,0,1,.34-.18C52.58,38.14,52.68,37.9,52.26,37.75Z"/><path class="cls-13" d="M55.45,38.58a1.41,1.41,0,0,0-1.27,0,3.31,3.31,0,0,1-.46.21c-.18.08-.35.16-.51.25s-.4.23-.23.32a1.82,1.82,0,0,0,.87,0c.2,0,.39-.08.58-.12s.42-.13.62-.16C55.57,39.06,55.77,38.77,55.45,38.58Z"/><path class="cls-13" d="M57.31,40.28c-.07-.23-.64-.36-1.08-.24a5.16,5.16,0,0,1-.58.06,5.77,5.77,0,0,0-.6.09c-.18,0-.51.09-.46.21s.44.14.66.16.82,0,1.15.07C56.9,40.72,57.37,40.48,57.31,40.28Z"/><path class="cls-13" d="M57,41.87l-.92-.07a3.32,3.32,0,0,0-.89,0c-.19,0-.32.11-.26.21.18.3,1.11.43,1.71.48.36,0,.74,0,.84-.22S57.39,41.89,57,41.87Z"/><path class="cls-13" d="M55.68,43.82a6.25,6.25,0,0,0-1.29-.35c-.2,0-.44.05-.43.14a.48.48,0,0,0,.25.36,2.11,2.11,0,0,0,.69.3,1.21,1.21,0,0,0,.83-.07C55.92,44.09,55.92,43.92,55.68,43.82Z"/><path class="cls-13" d="M53.11,45.24a2.29,2.29,0,0,0-1.17-.56c-.19,0-.41,0-.46.12s.25.54.54.73C52.49,45.82,53.48,45.57,53.11,45.24Z"/><path class="cls-13" d="M49.44,45.91h0a.52.52,0,0,0-.1-.11,1.21,1.21,0,0,0-.2-.19.58.58,0,0,0-.47-.12.31.31,0,0,0-.27.35.46.46,0,0,0,.11.45,1.16,1.16,0,0,0,1.06,0C49.78,46.17,49.69,46,49.44,45.91Z"/><path class="cls-12" d="M42.74,38c.85.7.67,1.78-.54,2.26a20.66,20.66,0,0,1-2.88.45c-1.71.36-2.42,1.37-1.79,2.17s2.35,1.36,4.18,1.56a7.21,7.21,0,0,1,1.47.22c.94.29.84.92.84,1s-.05.73-1,1a9.1,9.1,0,0,1-4-.24c-5.69-1.23-7.23-3.77-7.23-3.77-1.14-1.87-.59-4.79,3.32-5.59C37.57,36.57,41.43,36.88,42.74,38Z"/><path class="cls-13" d="M38.25,37.75a1.14,1.14,0,0,1,1.09.17c.19.26.84.5.65.79a.25.25,0,0,1-.23.08A1.79,1.79,0,0,1,39,38.6l-.32-.15a3.65,3.65,0,0,0-.34-.18C37.93,38.14,37.84,37.9,38.25,37.75Z"/><path class="cls-13" d="M35.07,38.58a1.39,1.39,0,0,1,1.26,0,3.31,3.31,0,0,0,.46.21c.18.08.36.16.52.25s.39.23.22.32a1.82,1.82,0,0,1-.87,0c-.2,0-.39-.08-.57-.12s-.43-.13-.62-.16C34.94,39.06,34.74,38.77,35.07,38.58Z"/><path class="cls-13" d="M33.21,40.28c.06-.23.63-.36,1.07-.24a5.16,5.16,0,0,0,.58.06,5.77,5.77,0,0,1,.6.09c.18,0,.52.09.46.21s-.44.14-.66.16-.81,0-1.15.07S33.14,40.48,33.21,40.28Z"/><path class="cls-13" d="M33.49,41.87l.92-.07a3.32,3.32,0,0,1,.89,0c.19,0,.32.11.26.21-.18.3-1.1.43-1.71.48-.36,0-.73,0-.84-.22S33.12,41.89,33.49,41.87Z"/><path class="cls-13" d="M34.83,43.82a6.25,6.25,0,0,1,1.29-.35c.21,0,.44.05.43.14a.48.48,0,0,1-.25.36,2.11,2.11,0,0,1-.69.3,1.21,1.21,0,0,1-.83-.07C34.6,44.09,34.59,43.92,34.83,43.82Z"/><path class="cls-13" d="M37.4,45.24a2.29,2.29,0,0,1,1.18-.56c.19,0,.4,0,.45.12s-.25.54-.54.73C38,45.82,37,45.57,37.4,45.24Z"/><path class="cls-13" d="M41.07,45.91h0a.52.52,0,0,1,.1-.11,1.21,1.21,0,0,1,.2-.19.59.59,0,0,1,.48-.12c.26.06.25.24.27.35a.48.48,0,0,1-.11.45,1.16,1.16,0,0,1-1.06,0C40.73,46.17,40.82,46,41.07,45.91Z"/><path class="cls-14" d="M46.28,43.75c.64-.13,1.54.21,1.88.08s-.25-.38,0-.58,2.11-.07,2.28-.25-2-.64-1.78-.94,1.54-.16,1.74-.44-.37-.41-.5-.47a6.43,6.43,0,0,0-1.5-.33,2.46,2.46,0,0,1-1.56-1,2.39,2.39,0,0,1-.52-2.07,1.79,1.79,0,0,1,.59-1.44,4.84,4.84,0,0,1,1.51-.83c-.44.08-.93.18-1.45.31s-.92.26-1.36.41c-.49-.17-1-.33-1.55-.46a3.62,3.62,0,0,1,.45,3.11c-.09.28-.64,1.86-2.12,2a6,6,0,0,0-1.09.2s-.5.22-.35.43.77.22.78.35-.59.15-1.31.41c-.34.12-.9.32-.8.5s.75.25,1.07.29a8.49,8.49,0,0,1,1.23.11c.28.15-.12.38.2.52a1.79,1.79,0,0,0,.56.06c.79,0,1.2,0,1.39,0,.44,0,.9.52,1,2.48l.71-2A.53.53,0,0,1,46.28,43.75Z"/><path class="cls-15" d="M43.73,40.86a1.73,1.73,0,0,0-.53.22c-.11.09-.08.23.14.27l.21,0c.27.06.12.24,0,.35a1.49,1.49,0,0,0-.38.43c0,.06,0,.14.08.17a1.43,1.43,0,0,0,.36,0,1,1,0,0,1,.7.26c.12.13.17.27.36.38a1,1,0,0,0,.59.11c.38-.06.34-.32.68-.41s.7,0,1-.06.29-.32.14-.49-.3-.39,0-.5l.28-.08c.15-.06.15-.17.07-.25a1.66,1.66,0,0,0-.38-.21,2.23,2.23,0,0,1-1.39-1.34.28.28,0,0,0-.35-.19.18.18,0,0,0-.14.12A2,2,0,0,1,43.73,40.86Z"/><path class="cls-16" d="M44.93,35.94a2.86,2.86,0,0,1,.63,1.72A3.47,3.47,0,0,1,47,35.77a13.9,13.9,0,0,0-1.34.4Z"/><path class="cls-7" d="M38.49,54.11a1.14,1.14,0,0,0,1.15-.22.82.82,0,0,0,0-.9,2.32,2.32,0,0,0-.69-.67l-6.11-4.53a1.06,1.06,0,0,0-1.71,1c.11.71,1.35,1.59,1.83,2.08A10.58,10.58,0,0,0,38.49,54.11Z"/></g></g></svg>