<svg id="Layer_1" data-name="Layer 1" xmlns="http://www.w3.org/2000/svg" viewBox="0 0 64 64"><defs><style>.cls-1{fill:#2d4c4d;}.cls-1,.cls-2,.cls-3,.cls-4,.cls-6,.cls-7,.cls-8,.cls-9{fill-rule:evenodd;}.cls-2{fill:#1e353a;}.cls-3,.cls-5{fill:#e1803a;}.cls-4{fill:#d07132;}.cls-6{fill:#ef9557;}.cls-7{fill:#feea9d;}.cls-8{fill:#887f31;}.cls-9{fill:#988e33;}</style></defs><path class="cls-1" d="M18.18,26.69a3.33,3.33,0,0,1,.71-.44,3,3,0,0,1,1-3.5A3.17,3.17,0,0,1,21,22.18a3.61,3.61,0,0,1,1.31-3.83A3.65,3.65,0,0,1,23,18a2.86,2.86,0,0,1,.81-3.64,2.82,2.82,0,0,1,3.81.22,2.61,2.61,0,0,1,.61-.71,2.21,2.21,0,0,1,3,.2A2.32,2.32,0,0,1,32,13a2.28,2.28,0,0,1,3.22.34l.06.09a2.57,2.57,0,0,1,4.24-.52A2.51,2.51,0,0,1,39,16.4a2.57,2.57,0,0,1-2.79.24,1.47,1.47,0,0,1-.18.28,2.79,2.79,0,0,1-1.08,2.63,2.87,2.87,0,0,1-2,.61,3.35,3.35,0,0,1-1.3,2.23,3.57,3.57,0,0,1-2.38.74,3,3,0,0,1-.45,3.34,3.27,3.27,0,0,1-5.47,3.09,3.34,3.34,0,0,1-1.27,2.16,3.19,3.19,0,1,1-3.92-5Z"/><path class="cls-2" d="M18.18,26.69a3.33,3.33,0,0,1,.71-.44,3,3,0,0,1,1-3.5A3.17,3.17,0,0,1,21,22.18a3.61,3.61,0,0,1,1.31-3.83A3.65,3.65,0,0,1,23,18a2.86,2.86,0,0,1,.81-3.64,3,3,0,0,0,.5,3.67c-1.4,1.2-2,2.5-1.52,4a2.53,2.53,0,0,0,.59,4.41l-2.76,6a3.13,3.13,0,0,1-3.05-1.15,3.24,3.24,0,0,1,.66-4.55ZM32.3,15.05a.5.5,0,0,1,.72.09.51.51,0,0,1-.09.73.5.5,0,0,1-.72-.09.51.51,0,0,1,.09-.73Zm-7,3.58a.33.33,0,0,1,.46,0,.36.36,0,0,1-.06.48.33.33,0,0,1-.46-.08.31.31,0,0,1,.06-.44Zm-1.64,4.18a.38.38,0,0,1,.52.08.37.37,0,0,1-.05.52.38.38,0,1,1-.47-.6Zm.32-2.33a.5.5,0,0,1,.71.08.51.51,0,1,1-.8.62.51.51,0,0,1,.09-.7Zm3.37-2.1a.67.67,0,0,1,.94.11.69.69,0,0,1-.12,1,.68.68,0,0,1-.94-.12.64.64,0,0,1,.12-.94Zm2.1-3.15a1,1,0,1,1-.16,1.38,1,1,0,0,1,.16-1.38ZM26.13,16a.53.53,0,0,1,.73.09.52.52,0,1,1-.82.64.53.53,0,0,1,.09-.73Z"/><path class="cls-3" d="M18.25,29l8.67-8.66,8.68-8.68A1.76,1.76,0,0,1,38,11.56l10.85,9.71c3.89,3.48,7.94,7.12,12.16,10.88a1.89,1.89,0,0,1,.17,2.73L51.3,44.73l-9.85,9.85a1.86,1.86,0,0,1-2.71-.18C35,50.18,31.33,46.13,27.86,42.24s-6.6-7.36-9.71-10.84a1.77,1.77,0,0,1,.1-2.39Z"/><path class="cls-4" d="M61.09,32.25a1.86,1.86,0,0,1,.07,2.63L51.3,44.73l-9.85,9.85a1.85,1.85,0,0,1-2.61-.08Z"/><path class="cls-4" d="M18.25,29l8.67-8.66,8.68-8.68A1.76,1.76,0,0,1,38,11.56l10.85,9.71,1.08,1c-10.87-.51-21.29,1-29.8,11.35l-2-2.19a1.77,1.77,0,0,1,.1-2.39Z"/><path class="cls-5" d="M20.11,30.92l.09.27h0a1.27,1.27,0,0,1-.45,1h0a2,2,0,0,1-.37.3,1.81,1.81,0,0,1-.44.22,1,1,0,0,1-.94-.23l-3.1-3.1a.37.37,0,0,1,0-.52L35.43,8.33a.36.36,0,0,1,.51,0L39,11.42a.91.91,0,0,1,.23.93,1.54,1.54,0,0,1-.21.45,3.81,3.81,0,0,1-.3.36,1.24,1.24,0,0,1-1,.46l-.28-.09c-.44-.13-1-.3-1.27,0s-.12.57,0,.93a2.94,2.94,0,0,1,.13.67.89.89,0,0,1,0,.23h0a1.65,1.65,0,0,1-.48,1,1.59,1.59,0,0,1-1,.47.45.45,0,0,1-.23,0,2.84,2.84,0,0,1-.67-.12c-.37-.09-.72-.19-.94,0s-.12.58,0,1a3.61,3.61,0,0,1,.12.67,1.7,1.7,0,0,1,0,.22h0a1.61,1.61,0,0,1-.49,1,1.58,1.58,0,0,1-1,.48h-.23a3.51,3.51,0,0,1-.66-.13c-.37-.1-.73-.19-.95,0s-.12.58,0,1a4.54,4.54,0,0,1,.14.66v.23h0a1.72,1.72,0,0,1-.49,1,1.68,1.68,0,0,1-1,.48h-.23a3.88,3.88,0,0,1-.66-.14c-.36-.09-.72-.19-.94,0s-.13.58,0,.94a3,3,0,0,1,.14.67,1.61,1.61,0,0,1,0,.22h0a1.74,1.74,0,0,1-.48,1,1.72,1.72,0,0,1-1,.49H25a3.72,3.72,0,0,1-.68-.13c-.36-.09-.71-.19-.94,0s-.12.57,0,.94a3.61,3.61,0,0,1,.12.67.89.89,0,0,1,0,.23h0a1.53,1.53,0,0,1-.48,1,1.55,1.55,0,0,1-1,.48.89.89,0,0,1-.23,0,2.84,2.84,0,0,1-.67-.12c-.37-.09-.72-.2-.94,0s-.12.83,0,1.28Z"/><path class="cls-6" d="M32.66,12.44l2-2a.52.52,0,0,1,.73,0h0a.53.53,0,0,1,0,.74l-2,2a.51.51,0,0,1-.74,0h0a.5.5,0,0,1,0-.73ZM17,28.09,30.8,14.3a.52.52,0,0,1,.74,0h0a.53.53,0,0,1,0,.75L17.75,28.83a.52.52,0,0,1-.74,0h0a.5.5,0,0,1,0-.73Z"/><path class="cls-7" d="M32.31,25.26a7.51,7.51,0,1,1,0,10.62,7.51,7.51,0,0,1,0-10.62Z"/><path class="cls-7" d="M40.59,41.75l8.21-8.21a.57.57,0,0,1,.82,0h0a.56.56,0,0,1,0,.82l-8.21,8.21a.56.56,0,0,1-.82,0h0a.57.57,0,0,1,0-.82Zm1.95,2,8.21-8.21a.56.56,0,0,1,.82,0h0a.57.57,0,0,1,0,.81l-8.21,8.21a.57.57,0,0,1-.81,0h0a.56.56,0,0,1,0-.82Z"/><path class="cls-8" d="M40.53,33a5.1,5.1,0,0,0,1.26-4.31C41.53,27.1,40.16,27,39.23,25a5.15,5.15,0,0,0,1.3,8Z"/><path class="cls-9" d="M40.67,33a6,6,0,0,1-5,1.48c-1.89-.3-2-1.92-4.3-3A6,6,0,0,1,40.67,33Z"/></svg>