<svg xmlns="http://www.w3.org/2000/svg" viewBox="0 0 64 64"><defs><style>.cls-1{isolation:isolate;}.cls-2,.cls-6{fill:#593d38;}.cls-2,.cls-3,.cls-4,.cls-5{fill-rule:evenodd;}.cls-3,.cls-9{fill:#3b1b0b;}.cls-10,.cls-4{fill:#855f58;}.cls-5{fill:#4d1e31;opacity:0.42;mix-blend-mode:multiply;}.cls-7{fill:none;}.cls-8{fill:#fff;}.cls-11{fill:#66cef6;}</style></defs><g class="cls-1"><g id="Layer_1" data-name="Layer 1"><path class="cls-2" d="M35.55,27.61A8.09,8.09,0,0,1,30.31,33l-.19.05-.3.08h0l-.34.06-.09,0-.21,0-.23,0A19.45,19.45,0,0,1,23.61,33l-.91-.2c-.63-.14-1.25-.3-1.84-.46l-.19,0a16.7,16.7,0,0,1-3-.41l.77.16a8.64,8.64,0,0,0-1.68-.12c-.3,0-.59.11-.88.16l0,0-.57.35-.92.58-.12.07c-1.27.79-2.87,1.8-3.13,2,0,0,0,0-.05,0a3,3,0,0,1-.38.3,8.07,8.07,0,0,1-.26,1.28,2.21,2.21,0,0,1-.12.27s0,.09,0,.11A1.94,1.94,0,0,1,9,37.89c-.25,0-1.56-.29-1.7-.08.2.34,2.7,6.7,2.89,7,.1-.16.2-.32.31-.48,0,0,4-4.4,4.16-4.54S16.77,37.34,19.4,38a4.73,4.73,0,0,0,1.23.13,10.92,10.92,0,0,1,1.3,0h0a40.75,40.75,0,0,1,4.8,1.46l.08,0,.39.14c.43.15.45,0,.87.17l.32.17c.15,0,.38.2.52.25h0a21.42,21.42,0,0,0,3.34.94l.18,0h0a2.57,2.57,0,0,0,.63,0,.63.63,0,0,0,.22-.09.41.41,0,0,1,.11-.07l.05,0,.08,0,.1-.07c.3-.16.65-.34,1-.51l.14-.06h0l.1,0,.23-.1.25-.1.25-.1.16-.06a14.18,14.18,0,0,1,1.55-.48h0l.12,0h.06l.16,0h.09c.11,0,.18,0,.2.05a13.31,13.31,0,0,1,.85,1.6l0,.11-.3.61,1.47,3.85.09.25.33.15L37.41,33.13h0L36.93,30l0-.24-.3-1.94Z"/><path class="cls-3" d="M35.55,27.61A8.09,8.09,0,0,1,30.31,33l-.19.05-.3.08h0l-.34.06-.09,0-.21,0-.23,0A19.45,19.45,0,0,1,23.61,33l-.91-.2c-.63-.14-1.25-.3-1.84-.46l-.19,0a16.7,16.7,0,0,1-3-.41l.77.16a8.64,8.64,0,0,0-1.68-.12c-.3,0-.59.11-.88.16l0,0-.57.35-.92.58-.12.07c-1.27.79-2.87,1.8-3.13,2,0,0,0,0-.05,0a3,3,0,0,1-.38.3,8.07,8.07,0,0,1-.26,1.28,2.08,2.08,0,0,0-.12.32c0,.36-.78.81-1.07.88-.72.18-1.18-.24-2-.06a25,25,0,0,0,1.23,3c.12.21,1.53,3.83,1.65,4,.1-.16.2-.32.31-.48h0c.28-1.35.08-7.08.29-7.68a3.42,3.42,0,0,1,2.79-2.63c1.88-.35,5,3.64,5.84,3.9l.11,0a12.51,12.51,0,0,0,2.42.07l-3.33-4h0l-.06,0-1.25-.9a8.16,8.16,0,0,1,2.62,0c1.35.28,5,5.74,6.82,6.41l.08,0,.39.14.07-.11c-.1-.06-4.05-4.48-4.27-5.42-.11-.48.57-.42,1.28-.23.12,1.06,2.6,3.41,2.67,3.48h0c.15,0,1.82,2.81,2,2.86-.26-1.78-3.8-5.21-4.12-6.2.5.16.91.33.91.33a19.73,19.73,0,0,1,4.69,1.08c1.85.84,3.2,5,2.68,5.74a.63.63,0,0,0,.22-.09.41.41,0,0,1,.11-.07l.05,0,.08,0,.1-.07c.3-.16.65-.34,1-.51l.14-.06h0l.1,0,.23-.1.25-.1.25-.1.16-.06A3.34,3.34,0,0,1,34.63,39c-1.36-1.57-4.51-4.47-4.51-4.47s3,2.74,4.61,3.83a3.92,3.92,0,0,0,2.64,1.07h0l.12,0h.06l.16,0h.09c.27-1.38.95-2.58,1.17-1.32v0c.05.26.09.51.13.76L39,38.12a6.37,6.37,0,0,1-.12,2.93l0,.11-.3.61c.19-.2.46.09.7.48a20,20,0,0,1,.77,3.37l.09.25.33.15L37.41,33.13h0L36.93,30l0-.24-.3-1.94Z"/><path class="cls-4" d="M32.44,41.24h0A1,1,0,0,0,32.86,40c-.44-1.11-3.33-3.31-3.33-3.31s2.67,2.69,2.89,3.64a1,1,0,0,1-.16.86Z"/><path class="cls-5" d="M37.41,33.13,36.93,30c-.85.55.79,7.81.8,8C37.75,37.87,37,31.3,37.41,33.13Z"/><path class="cls-5" d="M36,38.19s-2.68-3.95-3.19-4.67c0-2.22,2.92-4.47,3.18-4.47s.87.75.87.75l-.3-1.94-1.05-.25A8.09,8.09,0,0,1,30.31,33c-.15.05-.32.09-.49.13C32.37,32.64,36,38.15,36,38.19Z"/><path class="cls-5" d="M18.6,34.05l-.06,0a10.4,10.4,0,0,0-3.24-1.57l-.92.58C15.35,32.58,18.49,34,18.6,34.05Z"/><polygon class="cls-6" points="43.93 19.36 28.76 29.59 22.84 22.53 39.55 11.26 43.93 19.36"/><path class="cls-7" d="M54.21,23.89c-.67-1.8-4-5.73-5-6-.08,0-.58-.08-2,.9-.34.23-.66.47-1,.7l1,1.43.32.48-.47.32-.45.3c2.63,3.32,4,4.75,3.8,4.5l2.41,1.32.47-.32.32.48,1.07,1.59C55,29.19,54.76,25.36,54.21,23.89Z"/><path class="cls-8" d="M27.46,33.14a2.53,2.53,0,0,1-.12-.23A2.53,2.53,0,0,0,27.46,33.14Z"/><path class="cls-8" d="M27.61,33.36a1.3,1.3,0,0,1-.1-.15A1.3,1.3,0,0,0,27.61,33.36Z"/><polygon class="cls-8" points="22.44 22.49 22.44 22.49 22.44 22.49 22.44 22.49"/><path class="cls-6" d="M59.32,24.35c0,.07,0,.15,0,.22S59.32,24.42,59.32,24.35Z"/><path class="cls-6" d="M59.27,24l0,.22Z"/><path class="cls-6" d="M43,15.67l.13-.11Z"/><path class="cls-6" d="M44,14.83l.19-.15Z"/><path class="cls-6" d="M44.27,14.63l.19-.15Z"/><path class="cls-6" d="M57,30.79l-.06.08Z"/><path class="cls-6" d="M43.77,15l.19-.15Z"/><path class="cls-6" d="M59.35,25c0,.11,0,.21,0,.31C59.34,25.23,59.34,25.13,59.35,25Z"/><path class="cls-6" d="M57,30.69l-.06.08Z"/><path class="cls-6" d="M59.34,24.69c0,.08,0,.16,0,.24C59.35,24.85,59.34,24.77,59.34,24.69Z"/><path class="cls-6" d="M46,13.39l.14-.09Z"/><path class="cls-6" d="M44.83,14.2l.19-.14Z"/><path class="cls-6" d="M45.12,14l.19-.13Z"/><path class="cls-6" d="M59.19,23.67a1.42,1.42,0,0,1,.05.22A1.42,1.42,0,0,0,59.19,23.67Z"/><path class="cls-6" d="M46,19l-.1.07h0c.3-.22.62-.46,1-.69a4.06,4.06,0,0,1,2.5-1c1.34.34,4.72,4.52,5.41,6.35a3.68,3.68,0,0,1-.23,2.71h0l0,0s0,0,0,0h0c0,.06-.05.11-.07.17s-.05.09-.07.14l-.08.16-.06.13,0,0a4.49,4.49,0,0,0-.41,1.73v0l.32.47-.22.15a1.55,1.55,0,0,0,.76.83c2.34,1,4-3,4.3-3.15a9.34,9.34,0,0,0,.27-1,6.82,6.82,0,0,0-.39-2.16,26.19,26.19,0,0,0-3.73-5.83,19.77,19.77,0,0,1,1.73,2.79S53,15.67,51.71,14.71a10.79,10.79,0,0,1,1.79,1.46c-1.57-1.73-3.11-3.07-4.06-3.31a6.92,6.92,0,0,0-3.5.57l-.31.21C43,15.36,46.53,18.53,46,19Zm8.7,9a5.79,5.79,0,0,0,.45-4.61C56.41,25.4,54.68,27.94,54.68,27.94Zm2.58,0a7.55,7.55,0,0,0-.1-5.95C59.05,24.55,57.26,27.9,57.26,27.9ZM57,22.81s-5.51-7.51-7.41-8.91C54,16.73,57,22.81,57,22.81ZM53.76,20s-4.24-4.86-5.62-5.72C51.36,16,53.76,20,53.76,20Z"/><path class="cls-6" d="M49.38,12.15h0Z"/><path class="cls-6" d="M53.73,27.81l0,.06Z"/><path class="cls-6" d="M53.86,27.62a.22.22,0,0,0,0,.08A.22.22,0,0,1,53.86,27.62Z"/><path class="cls-6" d="M53.44,28.16l0,0Z"/><path class="cls-6" d="M54,27.39l-.06.1Z"/><path class="cls-6" d="M53.61,28l0,0Z"/><path class="cls-6" d="M49.15,12.14h0Z"/><path class="cls-6" d="M48.69,12.19l.1,0Z"/><path class="cls-6" d="M47.44,12.6l.12,0Z"/><path class="cls-6" d="M47.7,12.49l.11,0Z"/><path class="cls-6" d="M43.17,15.53l.15-.13Z"/><path class="cls-6" d="M48,12.4l.12,0Z"/><path class="cls-6" d="M48.2,12.31l.12,0Z"/><path class="cls-6" d="M47.18,12.73l.11-.05Z"/><path class="cls-6" d="M46.27,13.23l.14-.08Z"/><path class="cls-6" d="M57.81,29.58a1.63,1.63,0,0,1-.11.17A1.63,1.63,0,0,0,57.81,29.58Z"/><path class="cls-6" d="M46.8,12.93l.13-.08Z"/><path class="cls-6" d="M48.92,12.16h0Z"/><path class="cls-6" d="M46.53,13.08l.14-.08Z"/><path class="cls-6" d="M45.57,13.68a.71.71,0,0,0-.14.1l.19-.13Z"/><path class="cls-6" d="M42.62,16h0Z"/><path class="cls-6" d="M43.55,15.21l.18-.15Z"/><path class="cls-6" d="M57.67,29.81l-.11.16Z"/><path class="cls-6" d="M48.45,12.24l.11,0Z"/><path class="cls-6" d="M57.53,30l-.25.37Z"/><path class="cls-6" d="M58,29.31l-.12.21Z"/><path class="cls-6" d="M57.26,30.41l-.09.12Z"/><path class="cls-6" d="M59.06,23.23c0,.11.07.22.1.33C59.13,23.45,59.1,23.34,59.06,23.23Z"/><path class="cls-6" d="M57.14,30.57l-.07.09Z"/><path class="cls-6" d="M42.64,16l.35-.31Z"/><path class="cls-6" d="M59.29,25.75c0,.1,0,.19,0,.29C59.26,25.94,59.27,25.85,59.29,25.75Z"/><path class="cls-6" d="M44.54,14.42l.2-.15Z"/><path class="cls-6" d="M59.33,25.36c0,.11,0,.23,0,.34C59.31,25.59,59.32,25.47,59.33,25.36Z"/><path class="cls-6" d="M58.57,28.15l-.11.23Z"/><path class="cls-6" d="M54.15,27.14l-.06.12Z"/><path class="cls-6" d="M58.42,28.46l-.11.22Z"/><path class="cls-6" d="M43.34,15.39l.17-.15Z"/><path class="cls-6" d="M58.28,28.74c-.09.19-.19.37-.29.54C58.09,29.11,58.19,28.93,58.28,28.74Z"/><path class="cls-6" d="M58.71,27.81c0,.09-.07.18-.11.27C58.64,28,58.68,27.9,58.71,27.81Z"/><path class="cls-6" d="M59,27.12c0,.11-.08.21-.11.32C58.89,27.33,58.93,27.23,59,27.12Z"/><path class="cls-6" d="M58.86,27.44l-.13.33Z"/><path class="cls-9" d="M54.52,26.4c0,.06-.05.11-.07.17S54.5,26.46,54.52,26.4Z"/><path class="cls-9" d="M54.21,27l0,0,0,0Z"/><path class="cls-9" d="M54.38,26.71l-.08.16Z"/><path class="cls-9" d="M53.44,28.16l.07-.07.07-.09,0,0,.07-.09,0-.06a.76.76,0,0,1,.08-.11.22.22,0,0,1,0-.08l.08-.13.06-.1.09-.13.06-.12.07-.11c.13-.31.26-.54.3-.63a3.68,3.68,0,0,0,.23-2.71c-.69-1.83-4.07-6-5.41-6.35a4.06,4.06,0,0,0-2.5,1c-.34.23-.66.47-1,.69l.32.48c.3-.23.62-.47,1-.7,1.46-1,2-.92,2-.9,1.06.26,4.34,4.19,5,6,.55,1.47-.77,3.41-1.13,3.82l.33.48h0Z"/><path class="cls-10" d="M53.5,16.17a17.24,17.24,0,0,1,1.62,1.9,26.19,26.19,0,0,1,3.73,5.83,6.82,6.82,0,0,1,.39,2.16h0v0c0-.1,0-.19,0-.29V25.7c0-.11,0-.23,0-.34v0c0-.1,0-.2,0-.31v-.09c0-.08,0-.16,0-.24a.49.49,0,0,0,0-.12c0-.07,0-.15,0-.22s0-.08,0-.12l0-.22,0-.12a1.42,1.42,0,0,0-.05-.22l0-.11c0-.11-.06-.22-.1-.33-1.2-3.19-7.09-10.46-9.41-11l-.2,0h-.66l-.1,0-.13,0-.11,0-.13,0-.12,0-.13,0-.12,0-.14,0-.11,0-.14.06-.12,0-.15.08-.11.05-.25.12-.13.08-.13.07-.14.08-.12.07-.14.08-.12.07-.14.09-.07,0h0a6.92,6.92,0,0,1,3.5-.57C50.39,13.1,51.93,14.44,53.5,16.17Z"/><path class="cls-9" d="M54.52,26.4s0,0,0,0Z"/><path class="cls-9" d="M54.21,27h0l-.07.11-.06.12-.09.13-.06.1-.08.13a.22.22,0,0,0,0,.08.76.76,0,0,0-.08.11l0,.06-.07.09,0,0-.07.09-.07.07,0,0h0l.39.58A4.49,4.49,0,0,1,54.21,27Z"/><path class="cls-9" d="M54.67,30.25a1.55,1.55,0,0,1-.76-.83l-.25.17-.3.2c1.08,1.14,2.21,2.31,3.41,3.51-.12-.76-.25-2,.13-2.43l.06-.08,0,0,.06-.08,0,0,.07-.09,0,0,.09-.12,0,0,.25-.37,0,0,.11-.16,0-.06a1.63,1.63,0,0,0,.11-.17l0-.06.12-.21,0,0c.1-.17.2-.35.29-.54l0-.06.11-.22,0-.08.11-.23,0-.07c0-.09.08-.18.11-.27l0,0,.13-.33h0c0-.11.07-.21.11-.32v0h0C58.65,27.24,57,31.21,54.67,30.25Z"/><path class="cls-9" d="M54.24,27l.06-.13.08-.16c0-.05,0-.09.07-.14s0-.11.07-.17h0c0,.09-.17.32-.3.63Z"/><path class="cls-9" d="M49.79,11.64c-1.09-.27-2.57.24-4.54,1.56a27.36,27.36,0,0,0-3,2.4c.13.25.27.52.42.79.42.73.93,1.55,1.52,2.4l.59-.4.48-.32.3.45.34.5L46,19c.55-.42-3-3.59-.35-5.31l.31-.21h0l.07,0,.14-.09.12-.07.14-.08.12-.07.14-.08.13-.07.13-.08.25-.12.11-.05.15-.08.12,0,.14-.06.11,0,.14,0,.12,0,.13,0,.12,0,.13,0,.11,0,.13,0,.1,0h.66l.2,0c2.32.58,8.21,7.85,9.41,11,0,.11.07.22.1.33l0,.11a1.42,1.42,0,0,1,.05.22l0,.12,0,.22s0,.08,0,.12,0,.15,0,.22a.49.49,0,0,1,0,.12c0,.08,0,.16,0,.24V25c0,.11,0,.21,0,.31v0c0,.11,0,.23,0,.34v.05c0,.1,0,.19,0,.29v0h0a9.34,9.34,0,0,1-.27,1h0v0c0,.11-.08.21-.11.32h0l-.13.33,0,0c0,.09-.07.18-.11.27l0,.07-.11.23,0,.08-.11.22,0,.06c-.09.19-.19.37-.29.54l0,0-.12.21,0,.06a1.63,1.63,0,0,1-.11.17l0,.06-.11.16,0,0-.25.37,0,0-.09.12,0,0-.07.09,0,0-.06.08,0,0-.06.08c-.38.42-.25,1.67-.13,2.43l.72.72-.05-.24a5.3,5.3,0,0,1-.11-2.53S61,26.83,59.59,23C58.4,19.85,52.48,12.31,49.79,11.64Zm-4.36,2.14a.71.71,0,0,1,.14-.1l0,0Z"/><path class="cls-9" d="M57.26,27.9s1.79-3.35-.1-5.95A7.55,7.55,0,0,1,57.26,27.9Z"/><path class="cls-9" d="M54.68,27.94s1.73-2.54.45-4.61A5.79,5.79,0,0,1,54.68,27.94Z"/><path class="cls-9" d="M51.71,14.71c1.31,1,5.14,6.15,5.14,6.15a19.77,19.77,0,0,0-1.73-2.79,17.24,17.24,0,0,0-1.62-1.9A10.79,10.79,0,0,0,51.71,14.71Z"/><path class="cls-10" d="M49.54,13.9c1.9,1.4,7.41,8.91,7.41,8.91S54,16.73,49.54,13.9Z"/><path class="cls-9" d="M48.14,14.32c1.38.86,5.62,5.72,5.62,5.72S51.36,16,48.14,14.32Z"/><path class="cls-6" d="M37.55,40.46c.28.54.51,1,.67,1.39-.3-.38-.61-.79-.92-1.23l0,0A30.67,30.67,0,0,1,39.76,46c.66-.33,1.31-.67,2-1l-2.9-5.43Z"/><path class="cls-6" d="M39.63,26.71l5,6.65,1.6-1.08c-1.24-2-3.92-5.67-4.63-6.88Z"/><path class="cls-6" d="M37.37,28.23a42.83,42.83,0,0,1,2.57,4.69c-1-1.25-2-2.79-3-4.38l-1.54,1c1.09,1.81,3.77,5.49,4.65,6.87l4.11-2.78-4.74-6.8Z"/><path class="cls-6" d="M45.08,23l.28.41L45,23.08l-2.53,1.7,5.14,6.54L49.54,30l-4-5,4.38,4.74,1.55-1.05c-1.3-1.46-4.16-4.87-5.36-6.38Z"/><path class="cls-6" d="M41.59,25.39c.64,1,3.39,4.72,4.77,6.79l.8-.54-4.9-6.7Z"/><path class="cls-6" d="M35,29.87l-1,.67,4.7,6.84,1.12-.75C38.83,35.38,36.1,31.81,35,29.87Z"/><path class="cls-6" d="M43.67,36.33c1.23,1.78,2,2.7,3.7,5l-.37.25c-1.47-2-2.08-2.93-3.46-5.15l-1,.68,3.8,5.21c.46-.29.91-.58,1.35-.88l.77-.53L45,35.46Z"/><path class="cls-6" d="M39.43,39.19l3.31,5.28c.88-.5,1.75-1,2.61-1.54l-3.06-5.67Z"/><path class="cls-6" d="M47.23,33.93c1.7,2.52,2.51,3.65,3.58,5.08l-.37.25C49.55,38,48.75,36.79,47,34.08L45.61,35l3.79,5.2q1.16-.82,2.28-1.71l-3.6-5.16Z"/><path class="cls-6" d="M48.73,32.92l3.86,4.87q1-.8,1.92-1.62l-3.8-4.59Z"/><path class="cls-6" d="M33.81,30.63l-1.6,1.09c.95,1.47,3.66,5.13,4.7,6.83l1.34-.9Z"/><path class="cls-6" d="M51.47,31.07l4.33,4L57,33.9c-1.1-1.08-2-1.61-4.1-3.78Z"/><path class="cls-9" d="M37.22,47.24c-.6-1.43-.73-2.51-2-5.23l-.48.33c.92,2,1,2.87,1.94,5.14l.18-.09Z"/><path class="cls-9" d="M46.09,22.36c1.2,1.51,4.06,4.92,5.36,6.38l.49-.32c-1.43-1.6-4.26-5-5.37-6.39Z"/><path class="cls-9" d="M56.77,33.3c-1.2-1.2-2.33-2.37-3.41-3.51l-.48.33c2,2.17,3,2.7,4.1,3.78l.27-.25.16-.14c-.27-.26.34.77.08.51Z"/><path class="cls-10" d="M35.24,42c1.25,2.72,1.38,3.8,2,5.23.85-.38,1.7-.78,2.54-1.2a30.67,30.67,0,0,0-2.48-5.4Z"/><path class="cls-10" d="M29.69,33.42c.18.32,1.34.13,1.62.57a.85.85,0,0,1,.82.35,6.35,6.35,0,0,0,1,1,10.23,10.23,0,0,1,1.13,1.15,3.66,3.66,0,0,1,.87,2.93.89.89,0,0,1-.24.41.08.08,0,0,1,0,0l1.55-1c-1.1-1.77-3.7-5.46-4.53-6.95Z"/><path class="cls-10" d="M24.25,21.7h0L23,22.54h0c1.31.95,4.06,4.69,5.46,6.8l1.18-.8-.48-.66c-.75-1-1.25-2.83.82-5.65-.12-.07-2.1-2.89-2.21-3Z"/><path class="cls-9" d="M50.71,31.58l3.8,4.59L55.8,35l-4.33-4Z"/><polygon class="cls-9" points="49.54 30.04 49.9 29.79 45.52 25.05 49.54 30.04"/><polygon class="cls-9" points="39.95 21.59 40.02 21.55 39.01 20.23 39.95 21.59"/><path class="cls-9" d="M48.08,33.35l3.6,5.16c.3-.23.61-.47.91-.72l-3.86-4.87Z"/><polygon class="cls-9" points="42.26 24.94 47.16 31.64 47.63 31.32 42.49 24.78 42.26 24.94"/><polygon class="cls-9" points="37.19 23.46 37.25 23.41 36.28 22.07 37.19 23.46"/><polygon class="cls-9" points="39.4 26.87 44.15 33.67 44.61 33.36 39.63 26.71 39.4 26.87"/><path class="cls-9" d="M45,35.46l3.49,5.44.95-.68L45.61,35Z"/><path class="cls-9" d="M42.29,37.26l3.06,5.67,1-.62-3.8-5.21Z"/><path class="cls-9" d="M38.83,39.59,41.73,45l1-.55-3.31-5.28Z"/><polygon class="cls-9" points="33.93 30.52 33.8 30.61 38.25 37.65 38.65 37.38 33.93 30.52"/><path class="cls-9" d="M37.55,40.46l-.25.16c.31.44.62.85.92,1.23C38.06,41.47,37.83,41,37.55,40.46Z"/><path class="cls-9" d="M32.17,31.66l-.29.2c.84,1.5,3.46,5.21,4.57,7l.46-.31C35.86,36.84,33.13,33.14,32.17,31.66Z"/><path class="cls-9" d="M39.94,32.92a42.83,42.83,0,0,0-2.57-4.69l-.45.31C37.92,30.13,39,31.67,39.94,32.92Z"/><path class="cls-9" d="M34.82,25.05l.4-.26c-.53-.83-4.29-6.76-4.76-7.46l-.29.12C30.58,18.2,34.3,24.17,34.82,25.05Z"/><path class="cls-9" d="M38.64,22.48l.24-.16c-.65-1.2-3.68-6-4.61-7.45a2.64,2.64,0,0,1-.37.2C34.73,16.47,37.75,21.2,38.64,22.48Z"/><path class="cls-9" d="M42.56,19.83l.29-.19c-.72-1.14-4.17-6.42-4.84-7.48a2.26,2.26,0,0,1-.25.38C38.39,13.55,41.82,18.77,42.56,19.83Z"/><path class="cls-9" d="M45,23.08l.34.37L45.08,23Z"/><path class="cls-10" d="M33.32,26.07a31.23,31.23,0,0,1-1.65-3.26h0A33.46,33.46,0,0,0,33,26.25Z"/><path class="cls-10" d="M35.38,29.58l-.43.29c1.15,1.94,3.88,5.51,4.82,6.76l.26-.18C39.15,35.07,36.47,31.39,35.38,29.58Z"/><path class="cls-10" d="M47,41.57l.37-.25c-1.71-2.29-2.47-3.21-3.7-5l-.13.09C44.92,38.64,45.53,39.53,47,41.57Z"/><path class="cls-10" d="M41.58,25.4c.71,1.21,3.39,4.91,4.63,6.88l.15-.1c-1.38-2.07-4.13-5.79-4.77-6.79Z"/><path class="cls-10" d="M50.44,39.26l.37-.25c-1.07-1.43-1.88-2.56-3.58-5.08l-.23.15C48.75,36.79,49.55,38,50.44,39.26Z"/><polygon class="cls-6" points="37.66 25.91 28.8 32.15 28.84 32.22 46.2 20.52 45.6 19.63 38.33 24.89 45.32 19.22 35.05 26.14 28.32 31.45 28.47 31.66 37.66 25.91"/><path class="cls-9" d="M32.21,31.72l1.6-1.09.14-.09,1-.67.43-.29,1.54-1,.45-.31,2-1.36.23-.16,1.95-1.31h0l.67-.45.23-.16L45,23.08l.06,0,1-.68.48-.33.45-.3.47-.32-.32-.48-1-1.43L45.88,19h0l-.34-.5L45.22,18l-.48.32-.59.4-.49.33-.81.55-.29.19L40,21.55l-.07,0-1.07.73-.24.16-1.39.93-.06.05-2,1.33-.4.26-1.5,1-.28.18-3.39,2.29-1.18.8-.48.32-.6.4-.47.32.32.48,1.53,2.28.1.14.32.47.47-.32.27-.18.18-.12.48-.32,1.33-.9Zm-4-.16L28,30.92l-.26-.38h0L45.06,18.83h0l.26.38.28.41.6.89.5.73L29.34,33l-.5-.74,0-.07-.33-.49-.15-.21Z"/><polygon class="cls-10" points="35.05 26.14 45.32 19.22 45.06 18.84 45.06 18.84 27.71 30.54 27.71 30.54 27.97 30.92 35.05 26.14"/><rect class="cls-9" x="27.27" y="26.3" width="21.06" height="1.18" transform="translate(-8.57 25.73) rotate(-34)"/><polygon class="cls-9" points="35.05 26.14 27.97 30.92 28.18 31.56 28.32 31.45 35.05 26.14"/><polygon class="cls-9" points="38.33 24.89 45.6 19.63 45.32 19.22 38.33 24.89"/><polygon class="cls-10" points="37.66 25.91 28.47 31.66 28.8 32.15 37.66 25.91"/><polygon class="cls-6" points="54.09 30.32 53.43 29.35 45.39 35.16 53.12 28.89 41.76 36.55 34.32 42.41 34.48 42.65 44.64 36.29 34.84 43.19 34.89 43.27 54.09 30.32"/><path class="cls-9" d="M36.55,44l2-1.38h0l.25-.17,1.29-.86.6-.41,2.85-1.93.24-.15,1-.69.13-.08,1.29-.88.65-.43,1.39-.94.23-.16.86-.57.64-.44,2-1.33.77-.52,1.4-1,.49-.32.29-.2.26-.17.22-.15-.32-.48,0,0-.39-.58-.33-.49-1.07-1.59L53,27.67l-.47.32-.85.57-.48.32-1.55,1.05-.36.24-1.91,1.29-.47.32-.8.54-.15.1-1.6,1.08-.47.31-4.11,2.78-.26.17-1.12.76-.4.27-1.34.9-.46.31-1.55,1-.48.32-.84.57-.47.32.32.47L35,44.41l.32.47.48-.32.29-.2Zm-1.66-.77,0-.08-.36-.54-.16-.24-.4-.58-.28-.42,19.2-12.95.28.43.31.46.66,1,.55.82-19.19,13Z"/><polygon class="cls-10" points="41.76 36.55 53.12 28.89 52.84 28.46 33.64 41.41 33.92 41.83 41.76 36.55"/><rect class="cls-9" x="33.19" y="36.71" width="23.15" height="0.99" transform="translate(-13.15 31.4) rotate(-34)"/><polygon class="cls-9" points="41.76 36.55 33.92 41.83 34.32 42.41 41.76 36.55"/><polygon class="cls-9" points="45.39 35.16 53.43 29.35 53.12 28.89 45.39 35.16"/><polygon class="cls-10" points="44.64 36.29 34.48 42.65 34.84 43.19 44.64 36.29"/><path class="cls-6" d="M57.5,35.87C55.33,38,45.57,43.61,45.62,43.44h0l.18-.12a70,70,0,0,1-8.69,4.6c5.32-1.1,6.94-.63,20.38-9.52,1.23-1.09,2.42-2.23,3.57-3.4C60.48,34.67,59.16,34.24,57.5,35.87Z"/><path class="cls-6" d="M46.93,46.23l-.48.3Z"/><path class="cls-6" d="M54.55,40.89l-.45.36Z"/><path class="cls-6" d="M43.45,48.23l-.48.25Z"/><path class="cls-6" d="M59.12,33.52h0Z"/><path class="cls-6" d="M36,50v0Z"/><path class="cls-6" d="M36.06,49.08v0Z"/><path class="cls-6" d="M45,47.35l-.08,0Z"/><path class="cls-6" d="M52.87,42.2l-.13.1Z"/><path class="cls-6" d="M36,49.4v0Z"/><path class="cls-6" d="M58.48,33.59h0Z"/><path class="cls-6" d="M58.18,33.7l0,0Z"/><path class="cls-6" d="M58.8,33.53h0Z"/><path class="cls-6" d="M41.91,49l-.56.29Z"/><path class="cls-6" d="M57.92,33.84l0,0,0,0Z"/><path class="cls-6" d="M40.34,49.81l-.58.27Z"/><path class="cls-6" d="M49.72,44.45l.21-.15-.53.36Z"/><path class="cls-6" d="M56,39.74l-.5.41Z"/><path class="cls-6" d="M60,33.82l0,0Z"/><path class="cls-6" d="M51.35,43.31l-.44.31Z"/><path class="cls-6" d="M59.4,33.57h0Z"/><path class="cls-6" d="M59.7,33.67h0Z"/><path class="cls-6" d="M36.81,48.08h0l0,0Z"/><path class="cls-6" d="M57.27,38.59l-.48.42Z"/><path class="cls-6" d="M36.34,48.54l0,0Z"/><path class="cls-6" d="M38.68,50.57l-.51.23Z"/><path class="cls-6" d="M48.47,45.27l-.55.35Z"/><path class="cls-6" d="M36.18,48.8v0Z"/><path class="cls-6" d="M36.55,48.3l0,0Z"/><path class="cls-6" d="M36,49.72v0Z"/><path class="cls-6" d="M53.22,38l.44-.36Z"/><path class="cls-6" d="M56.38,35.27l-.42.38Z"/><path class="cls-6" d="M47.46,42.26l-.4.26Z"/><path class="cls-6" d="M51.85,39.11l.21-.17Z"/><path class="cls-6" d="M48.56,41.51l.41-.28Z"/><path class="cls-6" d="M50.15,40.39l.27-.19Z"/><path class="cls-6" d="M55.05,36.46l-.47.41Z"/><path class="cls-9" d="M57,33.9,55.8,35l-1.29,1.15q-.94.82-1.92,1.62c-.3.25-.61.49-.91.72q-1.12.89-2.28,1.71l-.95.68-.77.53c-.44.3-.89.59-1.35.88l-1,.62c-.86.53-1.73,1-2.61,1.54l-1,.55c-.66.35-1.31.69-2,1-.84.42-1.69.82-2.54,1.2l-.34.15-.18.09-.21.13a2.45,2.45,0,0,0-.91,2.93l.22.54.25.61.22.53L36.8,52A73.91,73.91,0,0,0,50,44.92,73.13,73.13,0,0,0,61.56,35.3l.4-.41-.41-.4L61,34l-.33-.33a2.44,2.44,0,0,0-3.06-.25,1.33,1.33,0,0,0-.19.14l-.16.14Zm2.42-.33h0a1.14,1.14,0,0,1,.26.09h0l.24.14,0,0a2.11,2.11,0,0,1,.23.19l.89.87-.09.1h0c-1.15,1.17-2.34,2.31-3.57,3.4l0,0-.25.21-.48.42-.84.73-.5.41-.9.74-.45.36-1.23,1-.13.1c-.46.34-.92.68-1.39,1l-.44.31-1,.68-.21.15-.32.21-.93.61-.55.35-1,.61-.48.3L45,47.35l-.08,0c-.5.28-1,.56-1.51.83l-.48.25L41.91,49l-.56.29-1,.49-.58.27-1.08.49-.51.23c-.52.23-1.05.46-1.59.68l-.47-1.16A1.4,1.4,0,0,1,36,50v0a1.41,1.41,0,0,1,0-.28v0a2.44,2.44,0,0,1,0-.27v0a2.61,2.61,0,0,1,.06-.27v0c0-.09.07-.17.11-.26v0a1.58,1.58,0,0,1,.15-.24l0,0a1.8,1.8,0,0,1,.19-.2l0,0a1.24,1.24,0,0,1,.22-.18h0a1.51,1.51,0,0,1,.28-.15,70,70,0,0,0,8.69-4.6l1.26-.8.4-.26c.37-.24.74-.49,1.1-.75l.41-.28c.4-.27.79-.56,1.18-.84l.27-.19c.48-.36,1-.72,1.43-1.09l.21-.17c.39-.3.78-.61,1.16-.93l.44-.36.92-.78.47-.41.91-.81.42-.38,1.27-1.21a1.57,1.57,0,0,1,.25-.2l0,0h0a2,2,0,0,1,.25-.14l0,0a1.14,1.14,0,0,1,.26-.09h0a1.37,1.37,0,0,1,.28,0h.32Z"/><path class="cls-10" d="M58.83,33.53h0a1.37,1.37,0,0,0-.28,0h0a1.14,1.14,0,0,0-.26.09l0,0a2,2,0,0,0-.25.14l0,0a1.57,1.57,0,0,0-.25.2l-1.27,1.21-.42.38-.91.81-.47.41-.92.78-.44.36c-.38.32-.77.63-1.16.93l-.21.17c-.47.37-1,.73-1.43,1.09l-.27.19c-.39.28-.78.57-1.18.84l-.41.28c-.36.26-.73.51-1.1.75l-.4.26-1.26.8-.18.12h0c0,.17,9.71-5.42,11.88-7.57,1.66-1.63,3-1.2,3.56-.87h0l.09-.1L60.26,34a2.11,2.11,0,0,0-.23-.19l0,0-.24-.14h0a1.14,1.14,0,0,0-.26-.09h0l-.28,0h-.29Z"/><path class="cls-9" d="M37.11,47.92a1.51,1.51,0,0,0-.28.15l0,0a1.24,1.24,0,0,0-.22.18l0,0a1.8,1.8,0,0,0-.19.2l0,0a1.58,1.58,0,0,0-.15.24v0c0,.09-.08.17-.11.26v0a2.61,2.61,0,0,0-.06.27v0a2.44,2.44,0,0,0,0,.27v0A1.41,1.41,0,0,0,36,50v0a1.4,1.4,0,0,0,.09.29l.47,1.16c.54-.22,1.07-.45,1.59-.68l.51-.23,1.08-.49.58-.27,1-.49.56-.29L43,48.48l.48-.25c.51-.27,1-.55,1.51-.83l.08,0,1.41-.82.48-.3,1-.61.55-.35.93-.61.53-.36,1-.68.44-.31c.47-.33.93-.67,1.39-1l.13-.1,1.23-1,.45-.36.9-.74.5-.41.84-.73.48-.42.25-.21,0,0C44.05,47.29,42.43,46.82,37.11,47.92Z"/><path class="cls-8" d="M39.4,8a2.39,2.39,0,0,1,.13.28A2.39,2.39,0,0,0,39.4,8Z"/><path class="cls-8" d="M39.1,11.76,39,11.5Z"/><polygon class="cls-8" points="35.25 15.17 35.25 15.16 35.25 15.16 35.25 15.17"/><path class="cls-9" d="M39.68,10.89,24.8,20.64l-1,.67-1.11.75-.24.17v.26h0v.33l.24.18,0,0c1.15.84,3.83,4.43,5.29,6.63l.48-.32c-1.4-2.11-4.15-5.85-5.46-6.8h0l1.24-.84h0l1.36-.92h0l14-9.37a33.59,33.59,0,0,1,1.56,3.2,24.66,24.66,0,0,0,2.57,4.54l.48-.32c-.58-.85-1.09-1.74-1.51-2.47-.15-.27-.29-.53-.42-.79-.43-.84-2.12-3.59-2.29-4.24L39.91,11Z"/><rect class="cls-9" x="53.5" y="27.49" width="0.11" height="1.98" transform="matrix(0.83, -0.56, 0.56, 0.83, -6.77, 34.82)"/><path class="cls-9" d="M34.28,41a3.07,3.07,0,0,1-1.14.59l-.23-.33a2.62,2.62,0,0,0,2.11-2c.45-1.38-1.09-3.1-2.07-3.9-2-1.67-2.82-1.72-3.72-1.78l0-.41c1.1.07,2,.25,4,1.87.29.24,2.84,2.38,2.2,4.35A2.93,2.93,0,0,1,34.28,41Z"/><path class="cls-11" d="M7.6,43.85S3.21,50,5.09,51.91a2.69,2.69,0,0,0,3.14.21C10.61,50.51,7.6,43.85,7.6,43.85Z"/><path class="cls-8" d="M5.53,49a2.4,2.4,0,0,0,0,2.06,2,2,0,0,0,1.73,1A1.83,1.83,0,0,1,6,52a1.71,1.71,0,0,1-.92-.82A2,2,0,0,1,5,50,2,2,0,0,1,5.53,49Z"/></g></g></svg>