<svg xmlns="http://www.w3.org/2000/svg" viewBox="0 0 64 64"><defs><style>.cls-1{isolation:isolate;}.cls-2,.cls-6{fill:#593d38;}.cls-2,.cls-3,.cls-4,.cls-5{fill-rule:evenodd;}.cls-3,.cls-9{fill:#3b1b0b;}.cls-10,.cls-4{fill:#855f58;}.cls-5{fill:#4d1e31;opacity:0.42;mix-blend-mode:multiply;}.cls-7{fill:none;}.cls-8{fill:#fff;}</style></defs><g class="cls-1"><g id="Layer_1" data-name="Layer 1"><path class="cls-2" d="M37.77,28.48a8.1,8.1,0,0,1-7,2.8l-.2,0-.31-.05h0l-.34-.08-.08,0-.2-.06L29.44,31a19.22,19.22,0,0,1-4.76-2.44L23.92,28q-.78-.59-1.5-1.17l-.14-.12a17,17,0,0,1-2.61-1.61l.64.46a7.55,7.55,0,0,0-1.48-.79c-.29-.09-.58-.15-.87-.22v0l-.67.09-1.07.15-.14,0c-1.49.2-3.36.47-3.67.54,0,0,0,0,0,0a2.39,2.39,0,0,1-.46.12,8.88,8.88,0,0,1-.76,1.06,2.2,2.2,0,0,1-.23.2s0,.1,0,.11a1.94,1.94,0,0,1-1.6.24C9.07,27,8,26.17,7.79,26.3c0,.39-.26,7.21-.22,7.6.16-.1.31-.21.48-.3,0,0,5.46-2.39,5.65-2.46s2.95-1.41,5.1.23a5,5,0,0,0,1.07.61,12.62,12.62,0,0,1,1.2.51h0a40.92,40.92,0,0,1,3.79,3.28l.07.06.29.29c.34.31.4.21.72.51l.24.28c.11.11.26.34.37.45h0a22.78,22.78,0,0,0,2.67,2.21l.16.09h0a2.24,2.24,0,0,0,.58.25.66.66,0,0,0,.24,0l.12,0h.15l.13,0c.34,0,.73,0,1.15,0h.81l.27,0H33a13.45,13.45,0,0,1,1.62.19h0l.13,0h.06l.15,0h0l0,0c.1,0,.16.08.17.12a14.73,14.73,0,0,1,.12,1.81v.13l-.52.43-.22,4.11,0,.27.24.27,2.42-13h0l.82-3L38.1,31l.52-1.9Z"/><path class="cls-3" d="M37.77,28.48a8.1,8.1,0,0,1-7,2.8l-.2,0-.31-.05h0l-.34-.08-.08,0-.2-.06L29.44,31a19.22,19.22,0,0,1-4.76-2.44L23.92,28q-.78-.59-1.5-1.17l-.14-.12a17,17,0,0,1-2.61-1.61l.64.46a7.55,7.55,0,0,0-1.48-.79c-.29-.09-.58-.15-.87-.22v0l-.67.09-1.07.15-.14,0c-1.49.2-3.36.47-3.67.54,0,0,0,0,0,0a2.39,2.39,0,0,1-.46.12,8.88,8.88,0,0,1-.76,1.06c-.07.08-.2.16-.24.25-.17.32-1.05.42-1.34.37-.73-.13-1-.7-1.76-.85a23.78,23.78,0,0,0-.12,3.27c0,.23-.16,4.12-.13,4.35.16-.1.31-.21.48-.3h0c.8-1.13,2.95-6.44,3.39-6.9a3.4,3.4,0,0,1,3.62-1.27c1.85.44,3,5.35,3.74,5.94l.09.07a11.9,11.9,0,0,0,2.18,1.05l-1.41-5h0l0-.06-.78-1.34a8.27,8.27,0,0,1,2.4,1.07c1.12.81,2.25,7.29,3.62,8.63l.07.06.29.29.11-.08c-.06-.09-1.87-5.74-1.69-6.68.09-.49.69-.15,1.26.31-.32,1,1,4.17,1,4.27h0c.12.11.52,3.31.63,3.42C27,35.62,25.19,31.05,25.3,30a9.57,9.57,0,0,1,.7.68,19.59,19.59,0,0,1,3.84,2.89c1.36,1.52.9,5.88.12,6.33a.66.66,0,0,0,.24,0l.12,0h.15l.13,0c.34,0,.73,0,1.15,0h.81l.27,0H33a3.49,3.49,0,0,1-.71-1.33c-.6-2-2.3-5.91-2.3-5.91s1.66,3.74,2.65,5.37a3.87,3.87,0,0,0,2,2.06h0l.13,0h.06l.15,0h0l0,0c.81-1.16,1.92-2,1.61-.73v0c-.06.25-.12.5-.19.75l.19-.74a6.3,6.3,0,0,1-1.31,2.63v.13l-.52.43c.25-.11.38.27.44.73a20.34,20.34,0,0,1-.66,3.38l0,.27.24.27,2.42-13h0l.82-3L38.1,31l.52-1.9Z"/><path class="cls-4" d="M29.38,39.66h0a1,1,0,0,0,.87-.93c.06-1.19-1.68-4.38-1.68-4.38s1.34,3.54,1.15,4.5a1,1,0,0,1-.5.72Z"/><path class="cls-5" d="M37.22,34.28l.82-3c-1,.16-2.46,7.46-2.51,7.59C35.6,38.75,37.59,32.44,37.22,34.28Z"/><path class="cls-5" d="M33.91,38.35c0-.06-.84-4.71-1-5.57.93-2,4.49-2.89,4.73-2.79s.48,1,.48,1l.52-1.9-.85-.65a8.07,8.07,0,0,1-7,2.8l-.51-.08C32.81,31.78,33.86,38.28,33.91,38.35Z"/><path class="cls-5" d="M19.66,27.47l0-.06a10,10,0,0,0-2.32-2.75l-1.07.15C17.29,24.8,19.58,27.38,19.66,27.47Z"/><polygon class="cls-6" points="48.78 24.35 30.76 27.53 28.23 18.67 48.07 15.17 48.78 24.35"/><path class="cls-7" d="M56.33,32.68c.11-1.93-1.29-6.85-2.14-7.52-.07-.05-.51-.31-2.24,0-.4.07-.79.15-1.15.24l.3,1.71.1.56-.57.1-.53.09c1,4.11,1.74,6,1.64,5.66l1.66,2.19.57-.1.1.56.33,1.89C54.9,37.83,56.23,34.23,56.33,32.68Z"/><path class="cls-8" d="M28.13,30.24a2.46,2.46,0,0,1,0-.26A2.46,2.46,0,0,0,28.13,30.24Z"/><path class="cls-8" d="M28.17,30.5l0-.18Z"/><polygon class="cls-8" points="27.87 18.47 27.87 18.47 27.87 18.47 27.87 18.47"/><path class="cls-6" d="M60.8,35.17c0,.07,0,.14-.07.21S60.78,35.24,60.8,35.17Z"/><path class="cls-6" d="M60.89,34.84a1.6,1.6,0,0,1,0,.21A1.6,1.6,0,0,0,60.89,34.84Z"/><path class="cls-6" d="M49.43,20.61l.17-.05Z"/><path class="cls-6" d="M50.69,20.25l.24-.06Z"/><path class="cls-6" d="M51,20.17l.24-.06Z"/><path class="cls-6" d="M56,40.1l-.09,0Z"/><path class="cls-6" d="M50.39,20.33l.23-.07Z"/><path class="cls-6" d="M60.55,35.8c0,.09-.08.18-.13.27C60.47,36,60.51,35.89,60.55,35.8Z"/><path class="cls-6" d="M56.15,40l-.09,0Z"/><path class="cls-6" d="M60.69,35.49l-.09.21Z"/><path class="cls-6" d="M53.11,19.74l.16,0Z"/><path class="cls-6" d="M51.69,20l.24-.05Z"/><path class="cls-6" d="M52.05,19.93l.23,0Z"/><path class="cls-6" d="M61,34.49c0,.08,0,.15,0,.23C60.94,34.64,61,34.57,61,34.49Z"/><path class="cls-6" d="M50.81,24.81l-.11,0h0c.36-.09.75-.18,1.15-.25a4.06,4.06,0,0,1,2.69.12c1.08.85,2.48,6.05,2.36,8a3.72,3.72,0,0,1-1.31,2.38h0l0,0,0,0h0l-.14.12-.11.11-.14.11-.11.09,0,0A4.47,4.47,0,0,0,54,37v0l.1.57-.27,0a1.54,1.54,0,0,0,.36,1.07c1.75,1.83,4.86-1.13,5.21-1.13A10.72,10.72,0,0,0,60,36.7a6.71,6.71,0,0,0,.52-2.14,25.89,25.89,0,0,0-1-6.83A19.78,19.78,0,0,1,60,31s-1.39-6.29-2.2-7.71a10.6,10.6,0,0,1,1,2.07c-.74-2.22-1.59-4.07-2.36-4.68A6.9,6.9,0,0,0,53,19.76a2.2,2.2,0,0,0-.37.06C49.56,20.32,51.48,24.65,50.81,24.81Zm4.3,11.75a5.78,5.78,0,0,0,2.28-4C57.72,35,55.11,36.56,55.11,36.56Zm2.37,1a7.54,7.54,0,0,0,2.33-5.47C60.48,35.24,57.48,37.57,57.48,37.57Zm1.79-4.78s-2-9.1-3.15-11.14C59,26,59.27,32.79,59.27,32.79ZM57.47,29s-1.88-6.16-2.8-7.51C56.92,24.33,57.47,29,57.47,29Z"/><path class="cls-6" d="M56.69,20l.06,0Z"/><path class="cls-6" d="M54.29,36.05l-.06,0Z"/><path class="cls-6" d="M54.49,35.93l-.08.06Z"/><path class="cls-6" d="M53.89,36.26h0Z"/><path class="cls-6" d="M54.71,35.79l-.1.06Z"/><path class="cls-6" d="M54.12,36.15l0,0Z"/><path class="cls-6" d="M56.48,19.88a.2.2,0,0,1,.08,0A.2.2,0,0,0,56.48,19.88Z"/><path class="cls-6" d="M56,19.74l.1,0Z"/><path class="cls-6" d="M54.73,19.61h0Z"/><path class="cls-6" d="M55,19.61h0Z"/><path class="cls-6" d="M49.64,20.54l.18-.05Z"/><path class="cls-6" d="M55.29,19.63h0Z"/><path class="cls-6" d="M55.55,19.65l.11,0Z"/><path class="cls-6" d="M54.45,19.61h0Z"/><path class="cls-6" d="M53.41,19.7l.16,0Z"/><path class="cls-6" d="M57.3,39.33l-.17.12Z"/><path class="cls-6" d="M54,19.64h0Z"/><path class="cls-6" d="M56.27,19.8l.09,0Z"/><path class="cls-6" d="M53.71,19.67l.16,0Z"/><path class="cls-6" d="M52.59,19.83l-.18,0,.23,0Z"/><path class="cls-6" d="M48.94,20.77h0Z"/><path class="cls-6" d="M50.11,20.4l.23-.06Z"/><path class="cls-6" d="M57.08,39.48l-.17.11Z"/><path class="cls-6" d="M55.8,19.69l.11,0Z"/><path class="cls-6" d="M56.87,39.62l-.38.23Z"/><path class="cls-6" d="M57.56,39.15l-.2.14Z"/><path class="cls-6" d="M56.46,39.87l-.13.07Z"/><path class="cls-6" d="M61,34c0,.11,0,.23,0,.34C61,34.27,61,34.15,61,34Z"/><path class="cls-6" d="M56.29,40l-.1.06Z"/><path class="cls-6" d="M49,20.76l.45-.15Z"/><path class="cls-6" d="M60.21,36.44l-.16.24Z"/><path class="cls-6" d="M51.35,20.08l.23,0Z"/><path class="cls-6" d="M60.41,36.09l-.18.31Z"/><path class="cls-6" d="M58.57,38.34l-.19.16Z"/><path class="cls-6" d="M55,35.62l-.11.08Z"/><path class="cls-6" d="M58.32,38.56l-.2.16Z"/><path class="cls-6" d="M49.85,20.48l.22-.06Z"/><path class="cls-6" d="M58.07,38.76l-.48.37Z"/><path class="cls-6" d="M58.84,38.08l-.21.2Z"/><path class="cls-6" d="M59.35,37.56l-.22.24Z"/><path class="cls-6" d="M59.12,37.81l-.24.24Z"/><path class="cls-9" d="M55.59,35.09l-.14.12Z"/><path class="cls-9" d="M55.05,35.55l0,0,0,0Z"/><path class="cls-9" d="M55.34,35.32l-.14.11Z"/><path class="cls-9" d="M53.89,36.26l.09,0,.1,0,0,0,.11-.06.06,0,.12-.06.08-.06.12-.08.1-.06.13-.09.11-.08.1-.08c.25-.23.46-.39.54-.45a3.72,3.72,0,0,0,1.31-2.38c.12-1.95-1.28-7.15-2.36-8a4.06,4.06,0,0,0-2.69-.12c-.4.07-.79.16-1.15.25l.1.56c.36-.09.75-.17,1.15-.24,1.73-.31,2.17-.05,2.24,0,.85.67,2.25,5.59,2.14,7.52-.1,1.55-2.1,2.79-2.59,3l.1.57h0Z"/><path class="cls-10" d="M58.82,25.33a17.31,17.31,0,0,1,.7,2.4,25.89,25.89,0,0,1,1,6.83A6.71,6.71,0,0,1,60,36.7h0l0,0,.16-.24,0,0,.18-.31v0c0-.09.09-.18.13-.27a.93.93,0,0,0,.05-.1l.09-.21s0-.08,0-.11.05-.14.07-.21l0-.12a1.6,1.6,0,0,0,0-.21l0-.12c0-.08,0-.15,0-.23s0-.07,0-.11,0-.23,0-.34c.21-3.4-2.22-12.43-4.1-13.91L56.75,20l-.06,0-.13-.06a.2.2,0,0,0-.08,0l-.12-.05-.09,0-.13,0-.1,0-.13,0-.11,0-.14,0-.11,0h-1.1l-.29,0h-.29l-.16,0h-.14l-.16,0-.14,0-.16,0-.09,0h0a6.9,6.9,0,0,1,3.43.89C57.23,21.26,58.08,23.11,58.82,25.33Z"/><path class="cls-9" d="M55.59,35.09l0,0Z"/><path class="cls-9" d="M55.05,35.55h0l-.1.08-.11.08-.13.09-.1.06-.12.08-.08.06-.12.06-.06,0-.11.06,0,0-.1,0-.09,0h0L54,37A4.47,4.47,0,0,1,55.05,35.55Z"/><path class="cls-9" d="M54.16,38.67a1.54,1.54,0,0,1-.36-1.07l-.3,0-.35.07q.78,2.2,1.68,4.59c.2-.74.6-1.94,1.11-2.17l.09,0,0,0,.09,0,0,0,.1-.06,0,0,.13-.07,0,0,.38-.23,0,0,.17-.11.05,0,.17-.12.06,0,.2-.14,0,0,.48-.37,0,0,.2-.16.06-.06.19-.16.06-.06.21-.2,0,0,.24-.24h0l.22-.24,0,0h0C59,37.54,55.91,40.5,54.16,38.67Z"/><path class="cls-9" d="M55.09,35.52l.11-.09.14-.11.11-.11.14-.12h0c-.08.06-.29.22-.54.45Z"/><path class="cls-9" d="M57.27,19.68c-.88-.69-2.45-.83-4.78-.42a25.7,25.7,0,0,0-3.74,1c0,.28,0,.58.07.88.08.84.22,1.81.4,2.82l.71-.13.57-.1.09.53.11.61.11,0c.67-.16-1.25-4.49,1.85-5a2.2,2.2,0,0,1,.37-.06h0l.09,0,.16,0,.14,0,.16,0h.14l.16,0h.29l.29,0h.84l.11,0h.15l.11,0,.14,0,.11,0,.13,0,.1,0,.13,0,.09,0,.12.05a.2.2,0,0,1,.08,0l.13.06.06,0,.17.11C58.8,21.61,61.23,30.64,61,34c0,.11,0,.23,0,.34s0,.07,0,.11,0,.15,0,.23l0,.12a1.6,1.6,0,0,1,0,.21l0,.12c0,.07,0,.14-.07.21s0,.07,0,.11l-.09.21a.93.93,0,0,1-.05.1c0,.09-.08.18-.13.27v0l-.18.31,0,0-.16.24,0,0h0a10.72,10.72,0,0,1-.67.84h0l0,0-.22.24h0l-.24.24,0,0-.21.2-.06.06-.19.16-.06.06-.2.16,0,0-.48.37,0,0-.2.14-.06,0-.17.12-.05,0-.17.11,0,0-.38.23,0,0-.13.07,0,0-.1.06,0,0-.09,0,0,0-.09,0c-.51.23-.91,1.43-1.11,2.17.13.31.25.63.37.95l0-.24a5.4,5.4,0,0,1,.93-2.36s5.16-2.53,5.41-6.59C61.8,30.69,59.45,21.39,57.27,19.68Zm-4.86.18.18,0h0Z"/><path class="cls-9" d="M57.48,37.57s3-2.33,2.33-5.47A7.54,7.54,0,0,1,57.48,37.57Z"/><path class="cls-9" d="M55.11,36.56s2.61-1.61,2.28-4A5.78,5.78,0,0,1,55.11,36.56Z"/><path class="cls-9" d="M57.77,23.26C58.58,24.68,60,31,60,31a19.78,19.78,0,0,0-.45-3.24,17.31,17.31,0,0,0-.7-2.4A10.6,10.6,0,0,0,57.77,23.26Z"/><path class="cls-10" d="M56.12,21.65c1.17,2,3.15,11.14,3.15,11.14S59,26,56.12,21.65Z"/><path class="cls-9" d="M54.67,21.46c.92,1.35,2.8,7.51,2.8,7.51S56.92,24.33,54.67,21.46Z"/><path class="cls-6" d="M34.36,41c0,.61.06,1.14,0,1.54-.12-.47-.23-1-.34-1.49h0A30.29,30.29,0,0,1,34.11,47c.74,0,1.48-.08,2.22-.14l-.44-6.13Z"/><path class="cls-6" d="M41.85,29.32l1.86,8.1,1.89-.34c-.33-2.3-1.27-6.77-1.43-8.17Z"/><path class="cls-6" d="M39.18,29.79a40.25,40.25,0,0,1,.43,5.33c-.38-1.54-.71-3.37-1-5.23l-1.84.32c.27,2.09,1.22,6.55,1.46,8.17l4.89-.86-1.57-8.15Z"/><path class="cls-6" d="M48.33,28.18l.09.49c-.05-.15-.11-.31-.16-.48l-3,.53,2,8.07,2.27-.41L47.91,30.2,50,36.31,51.83,36c-.59-1.86-1.82-6.14-2.3-8Z"/><path class="cls-6" d="M44.19,28.91c.17,1.17,1.18,5.68,1.59,8.14l.95-.17L45,28.77Z"/><path class="cls-6" d="M36.3,30.3l-1.19.21,1.52,8.16L38,38.43C37.61,36.91,36.56,32.54,36.3,30.3Z"/><path class="cls-6" d="M41.63,39.75C42,41.87,42.35,43,43,45.82l-.44.07c-.52-2.46-.71-3.52-1.07-6.12l-1.2.22,1.36,6.31L43.23,46l.91-.18-1-6.38Z"/><path class="cls-6" d="M36.61,40.63l.87,6.17c1-.09,2-.2,3-.34L40,40Z"/><path class="cls-6" d="M45.86,39c.54,3,.81,4.36,1.21,6.1l-.44.07c-.32-1.48-.55-2.93-1-6.12l-1.65.29,1.35,6.3c.93-.2,1.85-.41,2.77-.64l-1.18-6.18Z"/><path class="cls-6" d="M47.65,38.69l1.54,6c.81-.22,1.61-.45,2.41-.7L50,38.27Z"/><path class="cls-6" d="M35,30.54,33,30.87c.28,1.73,1.26,6.18,1.52,8.16l1.59-.28Z"/><path class="cls-6" d="M50.91,38.11l2.34,5.37L54.79,43c-.57-1.44-1.22-2.31-2.21-5.13Z"/><path class="cls-9" d="M31.31,47.09c0-1.55.35-2.59.32-5.58l-.58.1c0,2.21-.26,3-.32,5.49h.58Z"/><path class="cls-9" d="M49.53,28c.48,1.87,1.71,6.15,2.3,8l.57-.1c-.64-2-1.85-6.28-2.3-8Z"/><path class="cls-9" d="M54.83,42.31q-.9-2.39-1.68-4.59l-.57.1c1,2.82,1.64,3.69,2.21,5.13l.35-.13.19-.06c-.13-.34,0,.84-.13.5S55,42.62,54.83,42.31Z"/><path class="cls-10" d="M31.63,41.51c0,3-.29,4-.32,5.58.93,0,1.87,0,2.8-.06a30.29,30.29,0,0,0-.06-5.94Z"/><path class="cls-10" d="M30.05,31.4c0,.37,1.17.66,1.24,1.18a.87.87,0,0,1,.62.66,6.37,6.37,0,0,0,.48,1.34A10.18,10.18,0,0,1,33,36.09a3.7,3.7,0,0,1-.4,3,.83.83,0,0,1-.39.28v.05L34,39.13c-.28-2.07-1.16-6.5-1.31-8.2Z"/><path class="cls-10" d="M29.84,18.49h0l-1.46.25h0c.81,1.4,1.8,5.94,2.22,8.43l1.4-.25c0-.27-.11-.54-.16-.8-.27-1.26,0-3.09,3.05-4.82-.08-.12-.74-3.5-.81-3.63Z"/><path class="cls-9" d="M50,38.27,51.6,44c.56-.17,1.1-.34,1.65-.53l-2.34-5.37Z"/><polygon class="cls-9" points="49.56 36.38 49.99 36.31 47.91 30.2 49.56 36.38"/><polygon class="cls-9" points="44.23 24.77 44.31 24.76 43.93 23.15 44.23 24.77"/><path class="cls-9" d="M46.88,38.82,48.06,45l1.13-.29-1.54-6Z"/><polygon class="cls-9" points="44.98 28.77 46.73 36.88 47.29 36.78 45.26 28.72 44.98 28.77"/><polygon class="cls-9" points="40.95 25.35 41.03 25.34 40.69 23.72 40.95 25.35"/><polygon class="cls-9" points="41.58 29.37 43.15 37.52 43.71 37.42 41.85 29.32 41.58 29.37"/><path class="cls-9" d="M43.17,39.48l1,6.38,1.15-.22-1.35-6.3Z"/><path class="cls-9" d="M40,40l.49,6.42,1.15-.16L40.28,40Z"/><path class="cls-9" d="M35.89,40.76l.44,6.13,1.15-.09-.87-6.17Z"/><polygon class="cls-9" points="35.1 30.48 34.94 30.5 36.15 38.75 36.63 38.66 35.1 30.48"/><path class="cls-9" d="M34.36,41l-.29,0c.11.52.22,1,.34,1.49C34.42,42.17,34.4,41.64,34.36,41Z"/><path class="cls-9" d="M33,30.81l-.34.06c.15,1.71,1,6.17,1.32,8.26l.55-.1C34.29,37,33.31,32.55,33,30.81Z"/><path class="cls-9" d="M39.61,35.12a40.25,40.25,0,0,0-.43-5.33l-.54.1C38.9,31.75,39.23,33.58,39.61,35.12Z"/><path class="cls-9" d="M38.14,25.85l.47-.09c-.15-1-1.17-7.91-1.31-8.74H37C37.06,17.86,38,24.83,38.14,25.85Z"/><path class="cls-9" d="M42.68,25.05,43,25c-.11-1.36-.93-7-1.18-8.68l-.42,0C41.55,18,42.38,23.51,42.68,25.05Z"/><path class="cls-9" d="M47.33,24.23l.35-.07c-.2-1.33-1.2-7.55-1.38-8.8a3.19,3.19,0,0,1-.38.26C46.08,16.78,47.09,23,47.33,24.23Z"/><path class="cls-9" d="M48.26,28.19c.05.17.11.33.16.48l-.09-.49Z"/><path class="cls-10" d="M36.35,26.16a31.51,31.51,0,0,1-.17-3.65h0A30.77,30.77,0,0,0,36,26.22Z"/><path class="cls-10" d="M36.8,30.21l-.5.09c.26,2.24,1.31,6.61,1.65,8.13l.31,0C38,36.76,37.07,32.3,36.8,30.21Z"/><path class="cls-10" d="M42.55,45.89l.44-.07c-.64-2.79-1-4-1.36-6.07l-.15,0C41.84,42.37,42,43.43,42.55,45.89Z"/><path class="cls-10" d="M44.17,28.91c.16,1.4,1.1,5.87,1.43,8.17l.18,0c-.41-2.46-1.42-7-1.59-8.14Z"/><path class="cls-10" d="M46.63,45.17l.44-.07c-.4-1.74-.67-3.11-1.21-6.1l-.27,0C46.08,42.24,46.31,43.69,46.63,45.17Z"/><polygon class="cls-6" points="40.38 27.79 29.75 29.88 29.77 29.96 50.38 26.33 50.19 25.28 41.41 27.12 50.1 24.79 37.9 26.94 29.6 29.04 29.65 29.3 40.38 27.79"/><path class="cls-9" d="M33,30.87,35,30.54l.16,0,1.19-.21.5-.09,1.84-.32.54-.1,2.4-.42.27-.05,2.32-.41h0l.8-.14.27-.05,3-.53h.07l1.2-.21.57-.11.53-.09.57-.1-.1-.56-.3-1.71-.1-.56h0l-.11-.61-.1-.56-.56.1-.71.12-.58.1-1,.17-.35.07-3,.53h-.08L43,25l-.28.05L41,25.34H41l-2.34.41-.47.09-1.79.31-.32.06-4,.71-1.4.25-.57.1-.71.12-.56.1.1.57.48,2.7,0,.17.1.56.56-.09.31-.06.22,0,.57-.1,1.58-.28Zm-3.61-1.78.06-.67L29.41,28h0L50,24.33h0l.07.45.09.5.19,1,.15.88L29.92,30.84,29.76,30v-.08l-.1-.58,0-.26Z"/><polygon class="cls-10" points="37.9 26.94 50.1 24.79 50.02 24.33 50.02 24.33 29.41 27.97 29.41 27.97 29.49 28.42 37.9 26.94"/><rect class="cls-9" x="29.58" y="28.15" width="21.06" height="1.18" transform="translate(-4.38 7.4) rotate(-10)"/><polygon class="cls-9" points="37.9 26.94 29.49 28.42 29.43 29.09 29.6 29.04 37.9 26.94"/><polygon class="cls-9" points="41.41 27.12 50.19 25.28 50.1 24.79 41.41 27.12"/><polygon class="cls-10" points="40.38 27.79 29.65 29.3 29.75 29.88 40.38 27.79"/><polygon class="cls-6" points="53.6 38.5 53.4 37.34 43.68 39.38 53.3 36.79 39.8 39.17 30.62 41.5 30.67 41.78 42.54 40.11 30.78 42.43 30.8 42.52 53.6 38.5"/><path class="cls-9" d="M32,43.89l2.42-.42h0l.29-.05,1.53-.27L37,43l3.4-.59.28-.05,1.2-.22.15,0,1.54-.27.76-.14L46,41.43l.27,0,1-.18.76-.13,2.35-.42.91-.16L53,40.2l.57-.1.35-.07.3-.05.26,0-.1-.57v0l-.12-.69-.1-.57-.34-1.89-.1-.56-.56.1-1,.17-.57.1-1.84.33-.43.08-2.28.4-.55.09-.95.17-.18,0-1.9.34-.55.1L38,38.4l-.31.05-1.33.24-.48.08-1.59.28-.54.1-1.84.32-.57.1-1,.18-.57.1.1.56.56,3.18.1.57.57-.1.35-.07ZM30.8,42.52l0-.09-.11-.65-.05-.28-.12-.69-.09-.5,22.8-4,.09.5.09.55.21,1.16.17,1-22.8,4Z"/><polygon class="cls-10" points="39.8 39.17 53.3 36.79 53.21 36.29 30.41 40.31 30.5 40.81 39.8 39.17"/><rect class="cls-9" x="30.71" y="40.5" width="23.15" height="0.99" transform="translate(-6.48 7.97) rotate(-10)"/><polygon class="cls-9" points="39.8 39.17 30.5 40.81 30.62 41.5 39.8 39.17"/><polygon class="cls-9" points="43.68 39.38 53.4 37.34 53.3 36.79 43.68 39.38"/><polygon class="cls-10" points="42.54 40.11 30.67 41.78 30.78 42.43 42.54 40.11"/><path class="cls-6" d="M54.46,45C51.6,46,40.41,47.18,40.52,47h0l.22,0a69.79,69.79,0,0,1-9.81.66c5.31,1.17,6.59,2.25,22.49-.4q2.34-.75,4.64-1.66C57.67,45.07,56.64,44.14,54.46,45Z"/><path class="cls-6" d="M40.59,50.12l-.56.07Z"/><path class="cls-6" d="M49.72,48.33l-.55.15Z"/><path class="cls-6" d="M36.6,50.53l-.54,0Z"/><path class="cls-6" d="M56.9,43.47h0Z"/><path class="cls-6" d="M29.07,49.16v0Z"/><path class="cls-6" d="M29.5,48.3h0Z"/><path class="cls-6" d="M38.41,50.37h0Z"/><path class="cls-6" d="M47.66,48.85l-.17,0Z"/><path class="cls-6" d="M29.31,48.56l0,0Z"/><path class="cls-6" d="M56.28,43.27h0Z"/><path class="cls-6" d="M56,43.25h0Z"/><path class="cls-6" d="M56.6,43.34h0Z"/><path class="cls-6" d="M34.86,50.64l-.63,0Z"/><path class="cls-6" d="M55.66,43.27h0Z"/><path class="cls-6" d="M33.11,50.7l-.64,0Z"/><path class="cls-6" d="M43.86,49.62l.25,0-.63.11Z"/><path class="cls-6" d="M51.47,47.85l-.63.18Z"/><path class="cls-6" d="M57.57,44.09l0,0Z"/><path class="cls-6" d="M45.81,49.25l-.53.1Z"/><path class="cls-6" d="M57.13,43.62l0,0Z"/><path class="cls-6" d="M57.37,43.83l0,0Z"/><path class="cls-6" d="M30.59,47.69h0Z"/><path class="cls-6" d="M53.14,47.35l-.61.19Z"/><path class="cls-6" d="M30,47.92l0,0Z"/><path class="cls-6" d="M31.28,50.73h0Z"/><path class="cls-6" d="M42.38,49.86l-.63.1Z"/><path class="cls-6" d="M29.72,48.1l0,0Z"/><path class="cls-6" d="M30.26,47.78h0Z"/><path class="cls-6" d="M29.16,48.85l0-.05Z"/><path class="cls-6" d="M49.68,45.17l.55-.16Z"/><path class="cls-6" d="M53.68,44l-.54.17Z"/><path class="cls-6" d="M42.68,46.71l-.47.07Z"/><path class="cls-6" d="M48,45.61l.26-.06Z"/><path class="cls-6" d="M44,46.47l.48-.09Z"/><path class="cls-6" d="M45.91,46.09l.32-.07Z"/><path class="cls-6" d="M52,44.49l-.6.19Z"/><path class="cls-9" d="M54.79,43l-1.54.53c-.55.19-1.09.36-1.65.53-.8.25-1.6.48-2.41.7L48.06,45c-.92.23-1.84.44-2.77.64l-1.15.22-.91.18-1.59.26-1.15.16c-1,.14-2,.25-3,.34l-1.15.09c-.74.06-1.48.11-2.22.14-.93,0-1.87.06-2.8.06h-.58l-.24,0a2.46,2.46,0,0,0-2,2.31V50l0,.66,0,.58H29a73.68,73.68,0,0,0,15-1.08,73.88,73.88,0,0,0,14.44-4.1l.53-.21-.21-.54-.29-.72-.17-.43a2.46,2.46,0,0,0-2.7-1.48l-.23,0-.19.06Zm2.34.67,0,0,.2.18,0,0a1.84,1.84,0,0,1,.17.22l0,0a1.71,1.71,0,0,1,.14.27c.15.38.31.77.46,1.16l-.13,0h0q-2.3.91-4.64,1.66h0l-.32.1-.61.19-1.06.31-.63.18c-.37.11-.74.21-1.12.3l-.55.15-1.51.37-.17,0q-.84.2-1.68.36l-.53.1-1.17.23-.25,0-.38.07-1.1.17-.63.1-1.16.16-.56.07q-.81.11-1.62.18h-.1l-1.71.15-.54,0-1.2.07-.63,0-1.12,0-.64,0H30.73c-.58,0-1.15,0-1.73,0,0-.41,0-.83,0-1.24a1.39,1.39,0,0,1,0-.3v0a2.76,2.76,0,0,1,.08-.27l0-.05c0-.08.08-.16.13-.24l0,0,.17-.22h0a1.19,1.19,0,0,1,.2-.19l0,0a1.88,1.88,0,0,1,.23-.16l0,0a1.92,1.92,0,0,1,.25-.12h0a1.34,1.34,0,0,1,.27-.07h0a1.73,1.73,0,0,1,.32,0A69.79,69.79,0,0,0,40.74,47c.49-.06,1-.14,1.47-.22l.47-.07c.44-.08.88-.15,1.32-.24l.48-.09,1.43-.29.32-.07c.58-.13,1.17-.26,1.75-.41l.26-.06,1.44-.38.55-.16c.39-.1.77-.22,1.15-.33l.6-.19,1.16-.37.54-.17,1.65-.59a2,2,0,0,1,.31-.08h0l.29,0h0a1.23,1.23,0,0,1,.27,0h0l.27.07h0l.26.11h0A1.82,1.82,0,0,1,57.13,43.62Z"/><path class="cls-10" d="M56.62,43.35h0l-.27-.07h0a1.23,1.23,0,0,0-.27,0h0l-.29,0h0a2,2,0,0,0-.31.08L53.68,44l-.54.17L52,44.49l-.6.19c-.38.11-.76.23-1.15.33l-.55.16-1.44.38-.26.06c-.58.15-1.17.28-1.75.41l-.32.07-1.43.29-.48.09c-.44.09-.88.16-1.32.24l-.47.07c-.49.08-1,.16-1.47.22l-.22,0h0c-.11.14,11.08-1,13.94-2.08,2.18-.82,3.21.11,3.6.64h0l.13,0c-.15-.39-.31-.78-.46-1.16a1.71,1.71,0,0,0-.14-.27l0,0a1.84,1.84,0,0,0-.17-.22l0,0-.2-.18,0,0a1.82,1.82,0,0,0-.23-.15h0Z"/><path class="cls-9" d="M30.93,47.66a1.73,1.73,0,0,0-.32,0h0a1.34,1.34,0,0,0-.27.07h0a1.92,1.92,0,0,0-.25.12l0,0a1.88,1.88,0,0,0-.23.16l0,0a1.19,1.19,0,0,0-.2.19h0l-.17.22,0,0c0,.08-.09.16-.13.24l0,.05a2.76,2.76,0,0,0-.08.27v0a1.39,1.39,0,0,0,0,.3c0,.41,0,.83,0,1.24.58,0,1.15,0,1.73,0h1.74l.64,0,1.12,0,.63,0,1.2-.07.54,0,1.71-.15h.1q.81-.07,1.62-.18l.56-.07L41.75,50l.63-.1,1.1-.17.63-.11,1.17-.23.53-.1q.84-.16,1.68-.36l.17,0,1.51-.37.55-.15c.38-.09.75-.19,1.12-.3l.63-.18,1.06-.31.61-.19.32-.1h0C37.52,49.91,36.24,48.83,30.93,47.66Z"/><path class="cls-8" d="M49.28,12.09c0,.1,0,.2,0,.3C49.29,12.29,49.29,12.19,49.28,12.09Z"/><path class="cls-8" d="M47.46,15.44c0-.09,0-.18,0-.27C47.47,15.26,47.47,15.35,47.46,15.44Z"/><polygon class="cls-8" points="42.55 16.99 42.56 16.99 42.56 16.99 42.55 16.99"/><path class="cls-9" d="M48.34,14.88,30.78,17.74,29.59,18l-1.31.23-.3.05-.11.24h0l0,0-.12.27.15.26v0c.71,1.23,1.69,5.61,2.13,8.21l.57-.1c-.42-2.49-1.41-7-2.22-8.43h0l1.46-.25h0l1.62-.29s0,0,0,0L48,15.33a32.77,32.77,0,0,1,.13,3.55,24.49,24.49,0,0,0,.5,5.2l.57-.1c-.18-1-.29-2-.37-2.87,0-.31,0-.61-.07-.89,0-.95-.48-4.15-.36-4.81l.05-.29Z"/><rect class="cls-9" x="53.8" y="35.61" width="0.11" height="1.98" transform="translate(-5.54 9.91) rotate(-10)"/><path class="cls-9" d="M31.16,40.19a2.94,2.94,0,0,1-1.28.08l-.08-.39a2.62,2.62,0,0,0,2.74-1c1-1.07.27-3.27-.3-4.4-1.19-2.35-1.88-2.72-2.68-3.14l.19-.36c1,.51,1.69,1,2.86,3.32.17.33,1.62,3.33.23,4.86A2.86,2.86,0,0,1,31.16,40.19Z"/></g></g></svg>