<svg xmlns="http://www.w3.org/2000/svg" viewBox="0 0 150 150"><defs><style>.cls-1{isolation:isolate;}.cls-2{fill:#80543e;}.cls-3{fill:#d8a060;}.cls-3,.cls-5,.cls-7,.cls-8{opacity:0.5;}.cls-3,.cls-8{mix-blend-mode:multiply;}.cls-4{fill:#906033;}.cls-6{fill:#e8b082;}.cls-6,.cls-7{mix-blend-mode:screen;}.cls-7{fill:#8a4c41;}.cls-8{fill:#85533d;}</style></defs><g class="cls-1"><g id="Layer_1" data-name="Layer 1"><path class="cls-2" d="M149.66,49c.15-5.65-.49-11.41-.55-17-.05-4,.33-8,.34-11.94s-.78-8-.66-12.07c.21-6.87-3.46-6-6.71-6.52q-.35-.06-.69-.09c-2.31-.16-4.27-.73-6.65-.27a73.76,73.76,0,0,1-9.53,1.41c-3.2.22-6.42-.44-9.61,0a42.67,42.67,0,0,1-6.42.87c-3.09,0-6.05-1.71-9.15-.79a6.61,6.61,0,0,1-5.71-.44C89.47-.52,84,3.16,79,2.89a22.56,22.56,0,0,1-5.34-1c-1.78-.54-3.19,0-5,.28s-3.39-.48-5.1-.24-3.53,1-5.33.69A41.32,41.32,0,0,1,53,.9C49-.3,45.28,2,41.41,3.12c-3.71,1.11-6.78-3-10.52-3-3.9,0-7.77,1.76-11.68,1C17.6.72,16,.09,14.39.56a23.66,23.66,0,0,1-4,1.25C9,1.94,7.71,1.17,6.33,1.17,3.18,1.18.21,2.6.26,8.45c0,2.66.74,4.8.82,7.41.09,3-.37,5.79-.41,8.76C.57,32.88.1,131.45.21,139.73c.06,3.86,1,8.58,3.82,9,2.52.34,5.05-1.08,7.59-1.06,3.26,0,6.46,1.07,9.71,1.15,7.77.18,15.52-.65,23.29-.55,2.23,0,4.46.13,6.69.37,3.1.32,6.18,1.23,9.29,1.27,3.39,0,6.77-.71,10.15-1,3.56-.31,7.13-.46,10.68-1,3.37-.46,6.73.33,10.09.64s6.5-.41,9.76-.59c4.27-.24,8.59.09,12.87.07,4.47,0,8.93.42,13.4.59a61.81,61.81,0,0,0,7.7-.11c3-.26,6,.69,9,.6s4.94-3,5.26-7.45C149.6,140.89,149.64,49.73,149.66,49Z"/><path class="cls-3" d="M.94,19.92c2.22-2.57,5.62-2.56,8.4-1.78,3.48,1,6.94.11,10.41-.43a19,19,0,0,1,9.8.91c2.56.95,5.12,2.16,7.76,2.52a17.94,17.94,0,0,0,8-1.15c2.58-.86,5.11-2.21,7.72-2.77a18.78,18.78,0,0,1,7.43-.09c2.67.48,5.29,1.51,8,1.87a30,30,0,0,0,7.8-.07c2.61-.33,5.2-.84,7.81-1.16a16,16,0,0,1,7.15.92c2.41.81,4.77,1.92,7.18,2.7a18.73,18.73,0,0,0,8.13.69c5.38-.64,10.63-2.29,16-1.53,2.71.38,5.64,1.27,8.33.35,2.35-.81,4.6-2.49,7-2.8s4.35.86,6.56,2a8.69,8.69,0,0,0,3.87,1.25c.39,0,.77,0,1.15,0,0-.46,0-.92,0-1.38,0-4-.78-8-.66-12.07.21-6.87-3.46-6-6.71-6.52q-.35-.06-.69-.09c-2.31-.16-4.27-.73-6.65-.27a73.76,73.76,0,0,1-9.53,1.41c-3.2.22-6.42-.44-9.61,0a42.67,42.67,0,0,1-6.42.87c-3.09,0-6.05-1.71-9.15-.79a6.61,6.61,0,0,1-5.71-.44C89.47-.52,84,3.16,79,2.89a22.56,22.56,0,0,1-5.34-1c-1.78-.54-3.19,0-5,.28s-3.39-.48-5.1-.24-3.53,1-5.33.69A41.32,41.32,0,0,1,53,.9C49-.3,45.28,2,41.41,3.12c-3.71,1.11-6.78-3-10.52-3-3.9,0-7.77,1.76-11.68,1C17.6.72,16,.09,14.39.56a23.66,23.66,0,0,1-4,1.25C9,1.94,7.71,1.17,6.33,1.17,3.18,1.18.21,2.6.26,8.45c0,2.66.74,4.8.82,7.41A39,39,0,0,1,.94,19.92Z"/><path class="cls-4" d="M149.53,39.05c-.12-2.34-.25-4.77-.27-7.12,0-2.13.07-4.29.16-6.38.08-1.82.17-3.7.17-5.55s-.17-3.82-.33-5.66a54.38,54.38,0,0,1-.32-6.41c.19-5.94-2.48-6.21-5.29-6.48-.5-.05-1-.1-1.5-.18-.25,0-.48-.06-.69-.08-.68-.05-1.33-.14-2-.22a21.71,21.71,0,0,0-2.78-.23,10,10,0,0,0-1.93.18,76,76,0,0,1-9.52,1.4c-.45,0-.9.05-1.41.05-.93,0-1.86-.05-2.77-.1s-1.84-.09-2.77-.09a19.55,19.55,0,0,0-2.67.17c-.64.1-1.28.22-1.91.34a25.29,25.29,0,0,1-4.42.53h-.08a17.2,17.2,0,0,1-3.57-.53,16.4,16.4,0,0,0-3.61-.53,7.09,7.09,0,0,0-2,.27,8.52,8.52,0,0,1-2.54.44A6.37,6.37,0,0,1,94.42,2a8.15,8.15,0,0,0-4-1A23.49,23.49,0,0,0,85,1.93a21.29,21.29,0,0,1-5.89.85,22.09,22.09,0,0,1-5.33-1,5.52,5.52,0,0,0-1.57-.23,10.76,10.76,0,0,0-2.23.3c-.37.08-.77.15-1.18.22a6.23,6.23,0,0,1-.77,0,13.09,13.09,0,0,1-1.77-.17,13.55,13.55,0,0,0-1.8-.18,4.59,4.59,0,0,0-.76.06c-.56.08-1.12.21-1.67.33a13.35,13.35,0,0,1-2.8.42,5.71,5.71,0,0,1-.84-.07,15.88,15.88,0,0,1-3.3-1c-.63-.24-1.29-.5-2-.7a8.7,8.7,0,0,0-2.4-.34A19.14,19.14,0,0,0,44.27,2c-.93.34-1.87.7-2.82,1a4.65,4.65,0,0,1-1.28.18,9.89,9.89,0,0,1-4.48-1.56A10.42,10.42,0,0,0,30.94,0a25.39,25.39,0,0,0-4.75.59,27.05,27.05,0,0,1-4.73.58A10.88,10.88,0,0,1,19.28,1l-1-.24A10.88,10.88,0,0,0,15.68.28a3.94,3.94,0,0,0-1.25.18C13.94.6,13.45.79,13,1a9.51,9.51,0,0,1-2.5.73,6.31,6.31,0,0,1-2.19-.31,7.57,7.57,0,0,0-1.91-.33,5.5,5.5,0,0,0-5,2.38,9.12,9.12,0,0,0-1.15,5,24.65,24.65,0,0,0,.42,3.89,25.93,25.93,0,0,1,.4,3.52A46.56,46.56,0,0,1,.86,20.8C.76,22,.67,23.34.65,24.64c0,3.19-.14,6.43-.23,9.56-.15,5-.3,100.48-.23,105.55a18.21,18.21,0,0,0,.88,5.94c1,2.61,2.44,3.08,3,3.16a7,7,0,0,0,.81.05,14.56,14.56,0,0,0,3.38-.56,14.48,14.48,0,0,1,3.37-.56h0a30.89,30.89,0,0,1,5,.58,33.81,33.81,0,0,0,4.72.58c.75,0,1.53,0,2.33,0,3.29,0,6.63-.14,9.86-.29,1.63-.08,3.29-.15,5-.21,1.06,0,2.12-.06,3.17-.07.57,0,1.14,0,1.71,0h1.24c2.44,0,4.62.15,6.69.37l.15,0c1,.11,2.06.29,3.07.47l.48.08a32.85,32.85,0,0,0,5.61.7h.24a34.62,34.62,0,0,0,4.06-.28l2.16-.27c1.22-.17,2.46-.34,3.69-.45l1.12-.09,2.37-.17c2.36-.18,4.8-.35,7.19-.68a17,17,0,0,1,2.2-.14,39.43,39.43,0,0,1,5.09.44c.91.12,1.85.24,2.78.34.54,0,1.1.07,1.7.07a44.06,44.06,0,0,0,4.75-.36c1.09-.12,2.21-.24,3.32-.3s2.16-.09,3.42-.09c1.52,0,3.06,0,4.54.08s3,.08,4.54.08h.69c2.69,0,5.44.16,8.09.32,1.63.1,3.32.21,5,.27,1.15,0,2.19.06,3.16.06,1.64,0,3.13,0,4.55-.17a9.56,9.56,0,0,1,1.09-.06,29.5,29.5,0,0,1,3.77.34,27.61,27.61,0,0,0,4.18.31c2.64-.07,4.49-2.24,5.13-5.9a0,0,0,0,0,0,0c.09-.52.15-1.06.2-1.63.05-.75.08-91.92.11-92.72C149.89,45.69,149.71,42.31,149.53,39.05Zm.1,9.93c0,.8-.06,92-.11,92.7a2.85,2.85,0,0,1,0,.29c-.36,4.34-2.28,7-5.13,7a27.58,27.58,0,0,1-4.17-.31,27.8,27.8,0,0,0-3.78-.34c-.38,0-.75,0-1.1,0-1.41.12-2.9.17-4.54.17-1,0-2,0-3.16-.06-1.66-.06-3.35-.16-5-.26-2.66-.16-5.41-.32-8.1-.32h-.69c-1.51,0-3-.05-4.53-.09s-3-.08-4.55-.08c-1.26,0-2.38,0-3.42.09s-2.24.19-3.34.31a43.69,43.69,0,0,1-4.73.35c-.6,0-1.15,0-1.69-.07-.93-.09-1.86-.21-2.78-.33a37.75,37.75,0,0,0-5.1-.45,17.12,17.12,0,0,0-2.21.14c-2.4.34-4.83.51-7.19.68-1.15.08-2.33.17-3.49.27l-.39,0c-1.11.11-2.22.26-3.3.4H67c-1.25.18-2.53.35-3.8.45h0c-.76.06-1.54.1-2.3.1h-.24a26.24,26.24,0,0,1-4.05-.42l-1.54-.27c-1.22-.22-2.47-.46-3.71-.58-2.07-.22-4.25-.34-6.7-.37H43.43c-3.29,0-6.63.14-9.85.29s-6.58.29-9.86.29c-.8,0-1.58,0-2.32,0a35.23,35.23,0,0,1-4.71-.58,31.13,31.13,0,0,0-5-.58h0a14.13,14.13,0,0,0-3.4.56,14.3,14.3,0,0,1-3.35.55,6.87,6.87,0,0,1-.8,0c-1.66-.22-2.58-1.89-3.11-3.77a21.78,21.78,0,0,1-.63-5.07c0-.84,0-4.18,0-9.2v-2.76c0-27,.13-89.58.25-93.57.09-3.13.19-6.37.23-9.56,0-1.3.11-2.57.2-3.82a44.58,44.58,0,0,0,.21-4.95,28,28,0,0,0-.41-3.57A24.27,24.27,0,0,1,.4,8.48,8.82,8.82,0,0,1,1.5,3.62c1-1.52,2.62-2.29,4.89-2.29a7.48,7.48,0,0,1,1.88.32A6.19,6.19,0,0,0,10.49,2,9.61,9.61,0,0,0,13,1.23c.47-.19,1-.38,1.44-.52A4.39,4.39,0,0,1,15.68.55,11,11,0,0,1,18.21,1l1.05.26a11,11,0,0,0,2.2.21A25.39,25.39,0,0,0,26.21.84,26.93,26.93,0,0,1,31,.26a10.09,10.09,0,0,1,4.68,1.63,10.21,10.21,0,0,0,4.54,1.57,4.51,4.51,0,0,0,1.31-.19c1-.29,1.9-.64,2.83-1A18.74,18.74,0,0,1,50.71.71a8.13,8.13,0,0,1,2.37.34c.65.2,1.31.45,1.94.69a16,16,0,0,0,3.33,1,4.72,4.72,0,0,0,.85.07A12.26,12.26,0,0,0,62,2.4c.55-.12,1.11-.24,1.67-.32A5.62,5.62,0,0,1,64.43,2a13.09,13.09,0,0,1,1.78.17A13.39,13.39,0,0,0,68,2.37a5,5,0,0,0,.79-.06c.41-.06.81-.14,1.18-.21a11.39,11.39,0,0,1,2.21-.3A5.38,5.38,0,0,1,73.72,2a22.7,22.7,0,0,0,5.35,1A21.52,21.52,0,0,0,85,2.19a23.22,23.22,0,0,1,5.41-.88,8.15,8.15,0,0,1,4,.94,6.43,6.43,0,0,0,3.17.88,9,9,0,0,0,2.57-.43,6.28,6.28,0,0,1,2-.28,16.92,16.92,0,0,1,3.59.53,18,18,0,0,0,3.59.54h.08a24.61,24.61,0,0,0,4.44-.55c.62-.11,1.27-.23,1.91-.32a16.4,16.4,0,0,1,2.65-.18c.92,0,1.85.05,2.76.1s1.85.1,2.78.1c.51,0,1,0,1.41-.05a78,78,0,0,0,9.54-1.41A9,9,0,0,1,136.72,1a21.42,21.42,0,0,1,2.76.24c.63.08,1.29.16,2,.21a5.94,5.94,0,0,1,.68.08c.5.08,1,.13,1.51.18,2.73.27,5.3.52,5.13,6.21a51.19,51.19,0,0,0,.33,6.46c.16,1.83.33,3.73.32,5.61s-.09,3.73-.17,5.54c-.09,2.1-.19,4.26-.16,6.41,0,2.35.15,4.78.28,7.13C149.54,42.32,149.72,45.69,149.63,49Z"/><path class="cls-3" d="M149.11,31.91c-.05-4,.33-8,.34-11.94s-.78-8-.66-12.07c.18-5.68-2.31-6.06-5-6.32a8.52,8.52,0,0,1,1.11,1.07c1.85,2.17,2.57,5.5,2.53,9,0,.24-.19.38-.3.2A9.89,9.89,0,0,0,146,10.31c1,1.81,1.2,4.82,1.2,7a30.61,30.61,0,0,1-1,8.38,10.69,10.69,0,0,0,1.53-2.75c.1-.3.35-.07.32.21a27.79,27.79,0,0,1-1.36,6.67c.28-.4.53-.84.82-1.22.12-.15.31-.06.31.2,0,3.25-.32,6.43-.07,9.68a40.6,40.6,0,0,1,0,9c0,.28-.3.26-.34,0a11.5,11.5,0,0,0-.35-1.43c.31,3.62-1.73,7.64-3.8,9-2.28,1.5-4.64.81-6.31-1.62.09.42.19.84.28,1.28a.33.33,0,0,1-.12.34,6.32,6.32,0,0,1-6.3-.73,6.62,6.62,0,0,1-5.05,1.55,15.85,15.85,0,0,1-3.62-.38,4.53,4.53,0,0,1-1.85-.75,7.19,7.19,0,0,1-.81-.84c-3.28,2.46-6.81,2.61-10.48,2-1.7-.29-4.33-1-5.42-3.37A8.6,8.6,0,0,1,100,55.36c-2,1.06-4.77,1.82-6.7,0a.39.39,0,0,1,0-.44,11.62,11.62,0,0,0,1.34-3.48,7.83,7.83,0,0,1-4.28,3.89c-2.81,1.09-6.12,1.52-8.81-.44a.37.37,0,0,1-.06-.37A8.87,8.87,0,0,0,82.19,52,6.21,6.21,0,0,1,80.13,55c-.13.08-.32-.06-.26-.32.24-1,.48-1.89.62-2.85-2.36,4-6.38,5-9.72,5.11-1.85.05-5.84.06-7.06-2.9-2.65,3.87-7.51,4.82-10.6,2.06a.36.36,0,0,1,0-.43A18.74,18.74,0,0,0,55,52.71a8,8,0,0,1-7.75,2.19c-.61-.16-3.19-.92-3.94-2.32-1.49,1.77-3.1,3.26-5.06,2.59-.13-.05-.17-.32-.08-.46a9.34,9.34,0,0,0,.5-.87c-4,2.61-9,3.8-12.84.56a.38.38,0,0,1,0-.48c.44-.42.92-.79,1.34-1.26a13.64,13.64,0,0,1-5,.78,14.19,14.19,0,0,1-3.78-.32,8.26,8.26,0,0,1-2.64-1.38,3.87,3.87,0,0,0,1.12,1.42c.13.08.2.39,0,.5-1.87,1.41-4.1,2.39-6.17,1.51a3.57,3.57,0,0,1-2-2c-1.15,1.65-2.75,2.7-4.33,2.52s-2.83-2.67-3.06-5.08a26.22,26.22,0,0,1,.33-7.08,10.82,10.82,0,0,1,.94-3,28.57,28.57,0,0,1-.7-4,38.86,38.86,0,0,1,.4-7.78c0-.3.29-.22.35,0A9.79,9.79,0,0,0,4,31.77c-1.74-5.88-3-13.6-1.16-19.6a25.23,25.23,0,0,0-.74,2.5c-.06.23-.3.28-.35,0-.48-2.76-.72-7.12.31-9.9A5.7,5.7,0,0,1,5.17,1.24C2.49,1.6.21,3.32.26,8.45c0,2.66.74,4.8.82,7.41.09,3-.37,5.79-.41,8.76C.57,32.88.1,41.07.21,49.34c.06,3.87,1,8.58,3.82,9,2.52.34,5.05-1.08,7.59-1.07,3.26,0,6.46,1.08,9.71,1.16,7.77.18,15.52-.65,23.29-.56,2.23,0,4.46.14,6.69.37,3.1.33,6.18,1.24,9.29,1.27,3.39,0,6.77-.7,10.15-1,3.56-.31,7.13-.45,10.68-.94,3.37-.47,6.73.32,10.09.63s6.5-.4,9.76-.58c4.27-.24,8.59.09,12.87.07,4.47,0,8.93.42,13.4.59a63.8,63.8,0,0,0,7.7-.12c3-.26,6,.69,9,.61s4.94-3,5.26-7.46c0-.77.09-1.55.11-2.33C149.81,43.3,149.17,37.54,149.11,31.91Z"/><path class="cls-3" d="M149.45,63.4c0-2,.29-9.16.12-11.12-.57,2.12-2,5.29-2.58,5a26,26,0,0,1,.21,3.42,30.68,30.68,0,0,1-1,8.39,11,11,0,0,0,1.53-2.75c.1-.3.35-.08.32.21a27.79,27.79,0,0,1-1.36,6.67c.28-.41.53-.84.82-1.22.12-.15.31-.06.31.19,0,3.26-.32,6.43-.07,9.69a40.6,40.6,0,0,1,0,9c0,.27-.3.26-.34,0a11.5,11.5,0,0,0-.35-1.43c.31,3.61-1.73,7.64-3.8,9-2.28,1.5-4.64.82-6.31-1.61.09.42.19.84.28,1.27a.31.31,0,0,1-.12.34,6.31,6.31,0,0,1-6.3-.72,6.66,6.66,0,0,1-5.05,1.55,16.45,16.45,0,0,1-3.62-.39,4.51,4.51,0,0,1-1.85-.74,6.57,6.57,0,0,1-.81-.85c-3.28,2.47-6.81,2.62-10.48,2-1.7-.3-4.33-1-5.42-3.37A8.68,8.68,0,0,1,100,98.8c-2,1.06-4.77,1.81-6.7,0a.37.37,0,0,1,0-.43,11.72,11.72,0,0,0,1.34-3.48,7.87,7.87,0,0,1-4.28,3.89c-2.81,1.08-6.12,1.51-8.81-.44a.38.38,0,0,1-.06-.38,8.8,8.8,0,0,0,.69-2.46,6.13,6.13,0,0,1-2.06,2.93c-.13.09-.32-.06-.26-.31a29.23,29.23,0,0,0,.62-2.86c-2.36,4-6.38,5-9.72,5.12-1.85,0-5.84.06-7.06-2.91-2.65,3.88-7.51,4.83-10.6,2.07a.37.37,0,0,1,0-.44A19.13,19.13,0,0,0,55,96.15a8.06,8.06,0,0,1-7.75,2.18c-.61-.16-3.19-.91-3.94-2.31-1.49,1.77-3.1,3.26-5.06,2.59-.13,0-.17-.33-.08-.47a7.31,7.31,0,0,0,.5-.87c-4,2.61-9,3.81-12.84.57a.38.38,0,0,1,0-.48c.44-.43.92-.8,1.34-1.27a13.45,13.45,0,0,1-5,.79,15.06,15.06,0,0,1-3.78-.32,8.1,8.1,0,0,1-2.64-1.39,4,4,0,0,0,1.12,1.43.34.34,0,0,1,0,.5c-1.87,1.41-4.1,2.39-6.17,1.51a3.59,3.59,0,0,1-2-2c-1.15,1.66-2.75,2.71-4.33,2.52s-2.83-2.67-3.06-5.07A26.2,26.2,0,0,1,1.74,87a10.72,10.72,0,0,1,.94-3,28.46,28.46,0,0,1-.7-4,38.72,38.72,0,0,1,.4-7.77c0-.3.29-.22.35,0a10,10,0,0,0,1.3,3C2.7,70.72,1.38,59.92,1.76,54.87a4.1,4.1,0,0,1-1,0c0,2.69-.07,10.51-.1,13.21C.57,76.31.1,84.51.21,92.78c.06,3.87,1,8.58,3.82,9,2.52.34,5.05-1.07,7.59-1.06,3.26,0,6.46,1.08,9.71,1.15,7.77.19,15.52-.64,23.29-.55,2.23,0,4.46.13,6.69.37,3.1.33,6.18,1.24,9.29,1.27,3.39,0,6.77-.7,10.15-1,3.56-.31,7.13-.45,10.68-1,3.37-.46,6.73.33,10.09.64s6.5-.4,9.76-.59c4.27-.24,8.59.1,12.87.08,4.47,0,8.93.42,13.4.58a61.81,61.81,0,0,0,7.7-.11c3-.26,6,.69,9.05.6s4.93-3,5.25-7.45c0-.77.09-1.55.11-2.33.15-5.65-.49-11.42-.55-17C149.06,71.36,149.44,67.39,149.45,63.4Z"/><path class="cls-3" d="M149.11,121.66c-.05-4,.33-8,.34-11.94,0-3.17.15-10.6,0-13.74-.68,2.51-1.94,5.07-2.82,5.44a30.2,30.2,0,0,1,.57,5.63,30.63,30.63,0,0,1-1,8.39,10.86,10.86,0,0,0,1.53-2.75c.1-.3.35-.08.32.21a27.79,27.79,0,0,1-1.36,6.67c.28-.4.53-.84.82-1.22.12-.15.31-.06.31.2,0,3.25-.32,6.43-.07,9.68a40.6,40.6,0,0,1,0,9c0,.28-.3.26-.34,0a11.5,11.5,0,0,0-.35-1.43c.31,3.62-1.73,7.64-3.8,9-2.28,1.5-4.64.82-6.31-1.61.09.42.19.84.28,1.28a.33.33,0,0,1-.12.34,6.32,6.32,0,0,1-6.3-.73,6.62,6.62,0,0,1-5.05,1.55,16.43,16.43,0,0,1-3.62-.38,4.53,4.53,0,0,1-1.85-.75,7.19,7.19,0,0,1-.81-.84c-3.28,2.46-6.81,2.61-10.48,2-1.7-.3-4.33-1-5.42-3.37a8.6,8.6,0,0,1-3.56,2.84c-2,1.06-4.77,1.82-6.7,0a.37.37,0,0,1,0-.43,11.62,11.62,0,0,0,1.34-3.48,7.83,7.83,0,0,1-4.28,3.89c-2.81,1.09-6.12,1.52-8.81-.44a.38.38,0,0,1-.06-.38,8.71,8.71,0,0,0,.69-2.46,6.21,6.21,0,0,1-2.06,2.94c-.13.08-.32-.06-.26-.32a29.23,29.23,0,0,0,.62-2.86c-2.36,4-6.38,5-9.72,5.12-1.85,0-5.84.06-7.06-2.91-2.65,3.88-7.51,4.83-10.6,2.07a.36.36,0,0,1,0-.43A18.74,18.74,0,0,0,55,142.46a8,8,0,0,1-7.75,2.19c-.61-.16-3.19-.92-3.94-2.32-1.49,1.77-3.1,3.26-5.06,2.59-.13,0-.17-.32-.08-.47a8,8,0,0,0,.5-.86c-4,2.6-9,3.8-12.84.56a.38.38,0,0,1,0-.48c.44-.42.92-.79,1.34-1.26a13.64,13.64,0,0,1-5,.78,14.19,14.19,0,0,1-3.78-.32,8.26,8.26,0,0,1-2.64-1.38,3.87,3.87,0,0,0,1.12,1.42c.13.08.2.39,0,.5-1.87,1.41-4.1,2.39-6.17,1.51a3.6,3.6,0,0,1-2-2c-1.15,1.65-2.75,2.7-4.33,2.52s-2.83-2.67-3.06-5.08a26.2,26.2,0,0,1,.33-7.08,10.82,10.82,0,0,1,.94-3,28.57,28.57,0,0,1-.7-4,38.86,38.86,0,0,1,.4-7.78c0-.3.29-.22.35,0a9.79,9.79,0,0,0,1.3,3c-1.74-5.88-3-13.61-1.16-19.6a24.46,24.46,0,0,0-.74,2.5c-.06.23-.3.28-.35,0a29.08,29.08,0,0,1-.4-5.2,16.18,16.18,0,0,1-1-3,13.61,13.61,0,0,0-.12,2c0,2.66.74,4.8.82,7.41.09,3-.37,5.79-.41,8.76-.1,8.26-.57,16.45-.46,24.72.06,3.87,1,8.58,3.82,9,2.52.34,5.05-1.08,7.59-1.07,3.26,0,6.46,1.08,9.71,1.16,7.77.18,15.52-.65,23.29-.56,2.23,0,4.46.14,6.69.37,3.1.33,6.18,1.24,9.29,1.27,3.39,0,6.77-.7,10.15-1,3.56-.31,7.13-.45,10.68-.94,3.37-.47,6.73.32,10.09.63s6.5-.4,9.76-.59c4.27-.24,8.59.1,12.87.08,4.47,0,8.93.42,13.4.59a63.8,63.8,0,0,0,7.7-.12c3-.26,6,.69,9.05.6s4.93-2.95,5.25-7.45c0-.77.09-1.55.11-2.33C149.81,133.05,149.17,127.29,149.11,121.66Z"/><g class="cls-5"><path class="cls-6" d="M6.53,7.13a.4.4,0,0,0-.2.11c-.26-.18-.63.92-.71,1.2s-.16.8.07.9.57-.36.74-.66S7.11,7.05,6.53,7.13Z"/><path class="cls-6" d="M3.66,51.25c-.05-.22-.24-1-.45-1s-.51.31-.67.71a.36.36,0,0,0,0,.11,2.06,2.06,0,0,0-.34.85,3.79,3.79,0,0,0,.52,2.24c.37.62.94,0,1.1-.62A4.79,4.79,0,0,0,3.66,51.25Z"/><path class="cls-6" d="M4.69,52.92c-.16,0-.4.64-.25.64S4.84,52.92,4.69,52.92Z"/><path class="cls-6" d="M22.21,52.67c-.32-.47-1-.38-1.43-.3a.7.7,0,0,0-.27.14h-.19c-.5.11-.63,1.11-.66,1.74s.8.91,1.14,1a1.37,1.37,0,0,0,1.27-.68A1.7,1.7,0,0,0,22.21,52.67Z"/><path class="cls-6" d="M23.87,53.08v0c0-.11-.09-.11-.15-.1h0a1.11,1.11,0,0,0-.46,1h0c0,.07.05.09.09.09s.16,0,.25-.14h0a1.76,1.76,0,0,0,.15-.23A1,1,0,0,0,23.87,53.08Z"/><path class="cls-6" d="M41.64,53.21c-.24-.38-.62-.27-.9,0a.6.6,0,0,0-.22.06,1,1,0,0,0-.4.76.6.6,0,0,0,.8.75C41.29,54.67,42.05,53.86,41.64,53.21Z"/><path class="cls-6" d="M66.1,53.36c-.08-.17-.28,0-.36.07a1.24,1.24,0,0,0-.16.24.73.73,0,0,0-.21.42c0,.16,0,.52.15.54C65.84,54.67,66.32,53.83,66.1,53.36Z"/><path class="cls-6" d="M92.1,51.84a1.16,1.16,0,0,0-1.23-.57.93.93,0,0,0-.37.19.39.39,0,0,0-.42,0A1.47,1.47,0,0,0,89.59,53a1.52,1.52,0,0,0,1,.66,1.75,1.75,0,0,0,1.07.16C92.07,53.65,92.42,52.39,92.1,51.84Z"/><path class="cls-6" d="M118,51.32a1.93,1.93,0,0,0-2,.18,2,2,0,0,0-.49.09c-.33.12-.56.6-.66,1.06a1.11,1.11,0,0,0,.55,1.32,2.08,2.08,0,0,0,2.75-.18C118.67,53.07,118.79,51.77,118,51.32Z"/><path class="cls-6" d="M120.24,52.77c0-.13-.07-.18-.13-.18s-.24.12-.29.19v0a1.28,1.28,0,0,0-.18.39.51.51,0,0,0,0,.27c0,.24.19.22.31.15A1,1,0,0,0,120.24,52.77Z"/><path class="cls-6" d="M148,48.59c0-.14-.16,0-.21,0a.6.6,0,0,1-.08.08s0,0,0,0-.12-.16-.23,0-.3.54-.14.75.48-.18.58-.36A.7.7,0,0,0,148,48.59Z"/></g><path class="cls-7" d="M6.91,6.5a2.09,2.09,0,0,0-.83.84,2.65,2.65,0,0,0-.26.21,2.22,2.22,0,0,0-.69,1.7,2,2,0,0,0,1.58,1.61,3.06,3.06,0,0,0,3.48-2.38C10.76,6.23,7.75,6.13,6.91,6.5Z"/><path class="cls-7" d="M13.53,10.81a.49.49,0,0,0-.44-.29A1,1,0,0,0,12,11l-.06.1a1.54,1.54,0,0,0-.49,1.17.72.72,0,0,0,.93.64,1.65,1.65,0,0,0,1.06-1.09A1.34,1.34,0,0,0,13.53,10.81Z"/><path class="cls-7" d="M20.54,11a3.2,3.2,0,0,0-.42.1,2.69,2.69,0,0,0-2.32,2.72c.19,1.18,2,1.07,2.59,1a2.68,2.68,0,0,0,2.17-2.17C22.82,11.23,21.22,10.93,20.54,11Z"/><path class="cls-7" d="M29.23,8.82a.63.63,0,0,0-.58.16c-.33.28-.81,1.19-.25,1.41s1.21-.58,1.22-1.26C29.62,8.8,29.43,8.75,29.23,8.82Z"/><path class="cls-7" d="M36.26,9a2.16,2.16,0,0,0-.39.09.73.73,0,0,0-.3,0A2,2,0,0,0,34,10.78C33.87,12,35,12.1,35.63,12a2.41,2.41,0,0,0,1.87-1.8C37.74,9.22,36.74,8.93,36.26,9Z"/><path class="cls-7" d="M6,18.36a.91.91,0,0,0-.81-.47.71.71,0,0,0-.24.06,1.08,1.08,0,0,0-.63.27A1.29,1.29,0,0,0,4,19.72a.82.82,0,0,0,.72.33,1.22,1.22,0,0,0,.87-.31A1.38,1.38,0,0,0,6,18.36Z"/><path class="cls-7" d="M29.31,26.31a1.32,1.32,0,0,0-.54-.33.05.05,0,0,0,0,0c-1-.71-2.62-.31-2.77,1.7a1.33,1.33,0,0,0,1.15,1.43,1.88,1.88,0,0,0,1.81-.65C29.33,27.91,29.82,26.86,29.31,26.31Z"/><path class="cls-7" d="M15.2,19.84c-.31.08-.91.64-.79,1.14a.76.76,0,0,0,.82.71,1.2,1.2,0,0,0,1.27-.93C16.66,19.79,15.67,19.71,15.2,19.84Z"/><path class="cls-7" d="M30.23,36.58a2.64,2.64,0,0,1-.1-.3c0-.29-.06-.44-.23-.47a.43.43,0,0,0-.41-.12c-.4.06-1,1.12-.64,1.58s.72.14,1-.27l.06.06C30,37.18,30.28,36.74,30.23,36.58Z"/><path class="cls-7" d="M36.84,29.41l-.06,0a.41.41,0,0,0-.49-.08c-.69.31-1.4,1.92-.7,2.59.24.23.6.11.86-.08a2.51,2.51,0,0,0,.89-1.72C37.37,29.63,37.16,29.37,36.84,29.41Z"/><path class="cls-7" d="M33.87,27.71h0a.24.24,0,0,0-.28,0c-.38.17-.78,1.06-.38,1.43a.38.38,0,0,0,.48-.05,1.34,1.34,0,0,0,.5-.95C34.17,27.83,34.05,27.69,33.87,27.71Z"/><path class="cls-7" d="M18.76,40.32c-.52-1.84-2.46-1.34-3.45-.78a3.1,3.1,0,0,0-1.41,2.32c-.14,1.37,1.36,1.87,2.24,1.89a2.24,2.24,0,0,0,2-.82A3,3,0,0,0,18.76,40.32Z"/><path class="cls-7" d="M5.1,48.57l0,0L5,48.53c-.28-.3-.7,0-.87.4s-.33,1,.09,1,.74-.29.94-.78C5.25,49,5.36,48.48,5.1,48.57Z"/><path class="cls-7" d="M4.62,39.63A2,2,0,0,0,3,40.74a1.19,1.19,0,0,0-.19.2A1.89,1.89,0,0,0,2.4,42.3a1.72,1.72,0,0,0,1.06,1.45c1,.46,2.09-.2,2.64-1.5A1.84,1.84,0,0,0,4.62,39.63Z"/><path class="cls-7" d="M12.89,50.53a.74.74,0,0,0-.25-.05c-.37-.37-1,.07-1.15.64a.88.88,0,0,0,.14,1,.75.75,0,0,0,.93.06c.13-.08.27-.08.4-.16a1.36,1.36,0,0,0,.41-.82C13.45,50.68,13.12,50.61,12.89,50.53Z"/><path class="cls-7" d="M29.16,48.08l-.05,0a0,0,0,0,1,0,0L29,48.07c-.11-.06-.25.1-.33.21s-.37.62-.26.91a.27.27,0,0,0,.45.11,1.44,1.44,0,0,0,.5-1.07C29.39,48,29.27,48,29.16,48.08Z"/><path class="cls-7" d="M36.22,48.23a1.64,1.64,0,0,1-.58.06,1.91,1.91,0,0,0,.73-.82C36.73,47.8,36.61,48.11,36.22,48.23Z"/><path class="cls-8" d="M31.45,17.48a2.69,2.69,0,0,0-1.52-.28,7.48,7.48,0,0,0-1.88.4,6.22,6.22,0,0,0-1.83,2.17,4.74,4.74,0,0,0-1.49-.18,3.8,3.8,0,0,0-1.51.53c-.37.18-.68.71-1,.85,0,0,0,0-.06.06,1.19-.46,2.12-1,3.43-.72a4.5,4.5,0,0,1,2,.93.21.21,0,0,0,0-.13,1.81,1.81,0,0,0-1.09-1.23,5.68,5.68,0,0,1,2-1.86A6.42,6.42,0,0,1,31.45,17.48Z"/><path class="cls-8" d="M10.6,15.53a3.3,3.3,0,0,0-.7,0,2.91,2.91,0,0,0-.94.32,2.62,2.62,0,0,0-3.5-.81,1,1,0,0,0-.16.12,3.49,3.49,0,0,0-.93,1.14,3.7,3.7,0,0,1,4-.11,3.34,3.34,0,0,0-.48.45h0a4.42,4.42,0,0,1,1.65-.56,6.89,6.89,0,0,1,2.26.09A4.76,4.76,0,0,0,10.6,15.53Z"/><path class="cls-8" d="M22,6.41a2.86,2.86,0,0,0-1.59,1A3.78,3.78,0,0,0,18.54,7c-1,0-1.8.86-2.63,1.5a.18.18,0,0,0-.05.08,4.21,4.21,0,0,1,4.85-.05,2,2,0,0,0,.35.07c.1,0,.27-.24.2-.37a2.2,2.2,0,0,0-.49-.59A5.14,5.14,0,0,1,21.9,7.1a5.63,5.63,0,0,1,1.73-.22A5.42,5.42,0,0,0,22,6.41Z"/><path class="cls-8" d="M28.42,39.4A2.41,2.41,0,0,0,27,39.11a6.94,6.94,0,0,0-1.75.38,6,6,0,0,0-1.66,2.16,4.42,4.42,0,0,0-1.39-.19A3.29,3.29,0,0,0,20.8,42c-.33.18-.62.7-.94.83l-.05.07c1.09-.45,1.94-1,3.16-.69a4.07,4.07,0,0,1,1.89.94.22.22,0,0,0,0-.13,1.85,1.85,0,0,0-1-1.24,5.25,5.25,0,0,1,1.85-1.84A5.45,5.45,0,0,1,28.42,39.4Z"/><path class="cls-8" d="M11.61,36.83a2.92,2.92,0,0,0-.66,0,2.68,2.68,0,0,0-.89.3,2.41,2.41,0,0,0-3.3-.81l-.16.12a3.6,3.6,0,0,0-.9,1.12,3.44,3.44,0,0,1,3.85-.09,3.78,3.78,0,0,0-.46.44s0,0,0,0a3.81,3.81,0,0,1,1.56-.55,5.79,5.79,0,0,1,2.11.1A4.06,4.06,0,0,0,11.61,36.83Z"/><path class="cls-8" d="M21.37,29.49a2.47,2.47,0,0,0-1.37.89A3.17,3.17,0,0,0,18.43,30c-.89,0-1.55.8-2.27,1.39l-.05.07a3.42,3.42,0,0,1,4.16-.05l.3.08c.09,0,.24-.23.18-.34a2.05,2.05,0,0,0-.42-.56,5.07,5.07,0,0,1,1-.51,4.35,4.35,0,0,1,1.47-.2A4.19,4.19,0,0,0,21.37,29.49Z"/><path class="cls-7" d="M42.66,6.5a2.09,2.09,0,0,0-.83.84,2.65,2.65,0,0,0-.26.21,2.25,2.25,0,0,0-.69,1.7,2,2,0,0,0,1.58,1.61,3.06,3.06,0,0,0,3.48-2.38C46.52,6.23,43.51,6.13,42.66,6.5Z"/><path class="cls-7" d="M49.29,10.81a.52.52,0,0,0-.45-.29,1,1,0,0,0-1.08.47l-.07.1a1.57,1.57,0,0,0-.49,1.17.72.72,0,0,0,.93.64,1.63,1.63,0,0,0,1.06-1.09A1.39,1.39,0,0,0,49.29,10.81Z"/><path class="cls-7" d="M65,8.82A.63.63,0,0,0,64.4,9c-.33.28-.81,1.19-.25,1.41s1.21-.58,1.22-1.26C65.37,8.8,65.18,8.75,65,8.82Z"/><path class="cls-7" d="M72,9a1.83,1.83,0,0,0-.39.09.78.78,0,0,0-.31,0,2,2,0,0,0-1.58,1.74c-.12,1.17,1,1.32,1.64,1.22a2.42,2.42,0,0,0,1.88-1.8C73.5,9.22,72.49,8.93,72,9Z"/><path class="cls-7" d="M45.61,22.78c-.7-.69-1.6-.42-2.4,0a4.13,4.13,0,0,0-.52.33l0,0-.08.06a2.86,2.86,0,0,0-1.15,2.92c.59,1.84,3,1.36,3.86.44a3.57,3.57,0,0,0,1.07-2.48A1.63,1.63,0,0,0,45.61,22.78Z"/><path class="cls-7" d="M41.74,18.36a.9.9,0,0,0-.8-.47.71.71,0,0,0-.25.06,1.08,1.08,0,0,0-.62.27,1.28,1.28,0,0,0-.3,1.5.83.83,0,0,0,.72.33,1.24,1.24,0,0,0,.88-.31A1.38,1.38,0,0,0,41.74,18.36Z"/><path class="cls-7" d="M65.06,26.31a1.22,1.22,0,0,0-.53-.33l0,0c-1-.71-2.63-.31-2.78,1.7a1.33,1.33,0,0,0,1.15,1.43,1.87,1.87,0,0,0,1.81-.65C65.09,27.91,65.57,26.86,65.06,26.31Z"/><path class="cls-7" d="M51,19.84c-.3.08-.9.64-.79,1.14a.76.76,0,0,0,.83.71,1.21,1.21,0,0,0,1.27-.93C52.41,19.79,51.43,19.71,51,19.84Z"/><path class="cls-7" d="M66,36.58a2.64,2.64,0,0,1-.1-.3c0-.29,0-.44-.23-.47a.42.42,0,0,0-.41-.12c-.39.06-1,1.12-.64,1.58s.72.14,1-.27l.06.06C65.77,37.18,66,36.74,66,36.58Z"/><path class="cls-7" d="M72.6,29.41l-.07,0a.41.41,0,0,0-.49-.08c-.69.31-1.39,1.92-.69,2.59.23.23.59.11.85-.08a2.55,2.55,0,0,0,.9-1.72C73.13,29.63,72.92,29.37,72.6,29.41Z"/><path class="cls-7" d="M69.62,27.71h0a.23.23,0,0,0-.27,0c-.39.17-.79,1.06-.39,1.43a.4.4,0,0,0,.49-.05,1.42,1.42,0,0,0,.5-.95C69.92,27.83,69.8,27.69,69.62,27.71Z"/><path class="cls-7" d="M40.86,48.57s0,0,0,0l0-.06c-.28-.3-.7,0-.87.4s-.32,1,.09,1,.75-.29.95-.78C41,49,41.11,48.48,40.86,48.57Z"/><path class="cls-7" d="M40.37,39.63a2.06,2.06,0,0,0-1.66,1.11,1.8,1.8,0,0,0-.19.2,1.94,1.94,0,0,0-.37,1.36,1.74,1.74,0,0,0,1.06,1.45c1,.46,2.1-.2,2.64-1.5A1.84,1.84,0,0,0,40.37,39.63Zm.05,2.95h0a4.12,4.12,0,0,0,.57-.79l.1.11C41.43,42.35,40.8,42.52,40.42,42.58Z"/><path class="cls-7" d="M48.64,50.53a.7.7,0,0,0-.25-.05c-.37-.37-1,.07-1.14.64a.88.88,0,0,0,.14,1,.74.74,0,0,0,.92.06c.14-.08.27-.08.4-.16a1.26,1.26,0,0,0,.41-.82C49.2,50.68,48.87,50.61,48.64,50.53Z"/><path class="cls-7" d="M64.91,48.08l0,0,0,0-.07-.06c-.11-.06-.25.1-.32.21s-.38.62-.26.91a.26.26,0,0,0,.44.11,1.4,1.4,0,0,0,.5-1.07C65.14,48,65,48,64.91,48.08Z"/><path class="cls-7" d="M72.69,45.94a1.48,1.48,0,0,0-1-.31c-.77-.35-2,.43-2.5,1.28a1.76,1.76,0,0,0,.83,2.52,1.91,1.91,0,0,0,2.56-.64C73.21,47.9,73.5,46.65,72.69,45.94Z"/><path class="cls-8" d="M67.2,17.48a2.66,2.66,0,0,0-1.51-.28,7.64,7.64,0,0,0-1.89.4A6.22,6.22,0,0,0,62,19.77a4.67,4.67,0,0,0-1.49-.18,3.8,3.8,0,0,0-1.51.53c-.36.18-.68.71-1,.85,0,0,0,0,0,.06,1.18-.46,2.11-1,3.42-.72a4.45,4.45,0,0,1,2,.93.21.21,0,0,0,0-.13,1.82,1.82,0,0,0-1.08-1.23,5.6,5.6,0,0,1,2-1.86A6.38,6.38,0,0,1,67.2,17.48Z"/><path class="cls-8" d="M46.36,15.53a3.39,3.39,0,0,0-.71,0,3,3,0,0,0-.94.32,2.62,2.62,0,0,0-3.5-.81,1.67,1.67,0,0,0-.16.12,3.49,3.49,0,0,0-.93,1.14,3.72,3.72,0,0,1,4.05-.11,3.39,3.39,0,0,0-.49.45h0a4.42,4.42,0,0,1,1.65-.56,6.88,6.88,0,0,1,2.26.09A4.87,4.87,0,0,0,46.36,15.53Z"/><path class="cls-8" d="M57.72,6.41a2.9,2.9,0,0,0-1.59,1A3.75,3.75,0,0,0,54.29,7c-1,0-1.8.86-2.63,1.5l0,.08a4.21,4.21,0,0,1,4.85-.05,2.41,2.41,0,0,0,.35.07c.1,0,.27-.24.2-.37a2,2,0,0,0-.49-.59,5.21,5.21,0,0,1,1.14-.55,5.53,5.53,0,0,1,1.72-.22A5.42,5.42,0,0,0,57.72,6.41Z"/><path class="cls-8" d="M64.17,39.4a2.39,2.39,0,0,0-1.42-.29,6.76,6.76,0,0,0-1.75.38,6,6,0,0,0-1.67,2.16A4.36,4.36,0,0,0,58,41.46a3.28,3.28,0,0,0-1.4.52c-.33.18-.61.7-.94.83l0,.07c1.09-.45,1.95-1,3.16-.69a4.15,4.15,0,0,1,1.9.94.83.83,0,0,0,0-.13,1.87,1.87,0,0,0-1-1.24,5.31,5.31,0,0,1,1.84-1.84A5.49,5.49,0,0,1,64.17,39.4Z"/><path class="cls-8" d="M47.36,36.83a3,3,0,0,0-.66,0,2.63,2.63,0,0,0-.88.3,2.43,2.43,0,0,0-3.31-.81l-.15.12a3.46,3.46,0,0,0-.9,1.12,3.43,3.43,0,0,1,3.84-.09,3.78,3.78,0,0,0-.46.44,0,0,0,0,0,0,0,3.86,3.86,0,0,1,1.56-.55,5.79,5.79,0,0,1,2.11.1A3.8,3.8,0,0,0,47.36,36.83Z"/><path class="cls-8" d="M57.12,29.49a2.47,2.47,0,0,0-1.37.89A3.17,3.17,0,0,0,54.18,30c-.89,0-1.55.8-2.27,1.39l0,.07A3.44,3.44,0,0,1,56,31.45l.3.08c.08,0,.23-.23.17-.34a1.87,1.87,0,0,0-.42-.56,5.37,5.37,0,0,1,1-.51,4.38,4.38,0,0,1,1.48-.2A4.24,4.24,0,0,0,57.12,29.49Z"/><path class="cls-7" d="M80.84,6.5a2,2,0,0,0-.84.84c-.08.07-.18.13-.26.21a2.21,2.21,0,0,0-.68,1.7,2,2,0,0,0,1.58,1.61,3.05,3.05,0,0,0,3.47-2.38C84.69,6.23,81.68,6.13,80.84,6.5Z"/><path class="cls-7" d="M87.46,10.81a.51.51,0,0,0-.45-.29,1,1,0,0,0-1.08.47l-.07.1a1.57,1.57,0,0,0-.48,1.17.72.72,0,0,0,.93.64,1.64,1.64,0,0,0,1-1.09A1.39,1.39,0,0,0,87.46,10.81Z"/><path class="cls-7" d="M94.47,11a3.77,3.77,0,0,0-.43.1,2.7,2.7,0,0,0-2.32,2.72c.2,1.18,2,1.07,2.6,1a2.67,2.67,0,0,0,2.16-2.17C96.74,11.23,95.14,10.93,94.47,11Z"/><path class="cls-7" d="M103.15,8.82a.61.61,0,0,0-.57.16c-.34.28-.82,1.19-.26,1.41s1.22-.58,1.22-1.26C103.55,8.8,103.36,8.75,103.15,8.82Z"/><path class="cls-7" d="M110.19,9a1.83,1.83,0,0,0-.39.09.73.73,0,0,0-.3,0,2,2,0,0,0-1.59,1.74c-.12,1.17,1,1.32,1.64,1.22a2.42,2.42,0,0,0,1.88-1.8C111.67,9.22,110.66,8.93,110.19,9Z"/><path class="cls-7" d="M79.92,18.36a.92.92,0,0,0-.81-.47.76.76,0,0,0-.25.06,1.08,1.08,0,0,0-.62.27,1.28,1.28,0,0,0-.29,1.5.8.8,0,0,0,.71.33,1.24,1.24,0,0,0,.88-.31A1.41,1.41,0,0,0,79.92,18.36Z"/><path class="cls-7" d="M103.24,26.31a1.32,1.32,0,0,0-.54-.33l0,0c-1-.71-2.62-.31-2.77,1.7a1.32,1.32,0,0,0,1.15,1.43,1.88,1.88,0,0,0,1.81-.65C103.26,27.91,103.75,26.86,103.24,26.31Z"/><path class="cls-7" d="M89.13,19.84c-.31.08-.91.64-.79,1.14s.42.7.82.71a1.2,1.2,0,0,0,1.27-.93C90.58,19.79,89.6,19.71,89.13,19.84Z"/><path class="cls-7" d="M104.15,36.58c0-.09-.06-.2-.1-.3,0-.29,0-.44-.22-.47a.45.45,0,0,0-.42-.12c-.39.06-1,1.12-.63,1.58s.72.14,1-.27l0,.06C103.94,37.18,104.21,36.74,104.15,36.58Z"/><path class="cls-7" d="M110.77,29.41l-.07,0a.4.4,0,0,0-.48-.08c-.69.31-1.4,1.92-.7,2.59.24.23.59.11.86-.08a2.59,2.59,0,0,0,.89-1.72C111.3,29.63,111.09,29.37,110.77,29.41Z"/><path class="cls-7" d="M107.79,27.71h0a.24.24,0,0,0-.28,0c-.39.17-.78,1.06-.39,1.43a.4.4,0,0,0,.49-.05,1.38,1.38,0,0,0,.5-.95C108.09,27.83,108,27.69,107.79,27.71Z"/><path class="cls-7" d="M92.69,40.32c-.53-1.84-2.47-1.34-3.45-.78a3.1,3.1,0,0,0-1.41,2.32c-.15,1.37,1.36,1.87,2.23,1.89a2.25,2.25,0,0,0,2-.82A3,3,0,0,0,92.69,40.32Z"/><path class="cls-7" d="M79,48.57l0,0-.06-.06c-.28-.3-.7,0-.87.4s-.32,1,.1,1,.74-.29.94-.78C79.18,49,79.29,48.48,79,48.57Z"/><path class="cls-7" d="M78.6,42.58h0a3.73,3.73,0,0,0,.57-.79l.1.11C79.6,42.35,79,42.52,78.6,42.58Z"/><path class="cls-7" d="M86.82,50.53a.75.75,0,0,0-.26-.05c-.36-.37-.94.07-1.14.64a.88.88,0,0,0,.14,1,.75.75,0,0,0,.93.06c.13-.08.26-.08.39-.16a1.32,1.32,0,0,0,.42-.82C87.37,50.68,87.05,50.61,86.82,50.53Z"/><path class="cls-7" d="M103.08,48.08l0,0,0,0-.07-.06c-.1-.06-.25.1-.32.21s-.38.62-.26.91a.27.27,0,0,0,.45.11,1.47,1.47,0,0,0,.5-1.07C103.31,48,103.2,48,103.08,48.08Z"/><path class="cls-7" d="M110.86,45.94a1.46,1.46,0,0,0-1-.31c-.76-.35-2,.43-2.49,1.28a1.75,1.75,0,0,0,.82,2.52,1.91,1.91,0,0,0,2.56-.64C111.38,47.9,111.67,46.65,110.86,45.94Zm-.71,2.29a1.64,1.64,0,0,1-.58.06,1.9,1.9,0,0,0,.72-.82C110.66,47.8,110.53,48.11,110.15,48.23Z"/><path class="cls-8" d="M105.37,17.48a2.66,2.66,0,0,0-1.51-.28,7.64,7.64,0,0,0-1.89.4,6.22,6.22,0,0,0-1.83,2.17,4.64,4.64,0,0,0-1.48-.18,3.79,3.79,0,0,0-1.52.53c-.36.18-.68.71-1,.85,0,0,0,0,0,.06,1.19-.46,2.12-1,3.42-.72a4.45,4.45,0,0,1,2,.93.21.21,0,0,0,0-.13,1.82,1.82,0,0,0-1.08-1.23,5.68,5.68,0,0,1,2-1.86A6.38,6.38,0,0,1,105.37,17.48Z"/><path class="cls-8" d="M84.53,15.53a3.28,3.28,0,0,0-.7,0,3,3,0,0,0-1,.32,2.62,2.62,0,0,0-3.5-.81,1.67,1.67,0,0,0-.16.12,3.49,3.49,0,0,0-.93,1.14,3.72,3.72,0,0,1,4-.11,2.89,2.89,0,0,0-.48.45h0a4.46,4.46,0,0,1,1.66-.56,6.9,6.9,0,0,1,2.26.09A5.11,5.11,0,0,0,84.53,15.53Z"/><path class="cls-8" d="M95.9,6.41a2.92,2.92,0,0,0-1.6,1A3.74,3.74,0,0,0,92.47,7c-1,0-1.8.86-2.63,1.5a.18.18,0,0,0-.06.08,4.21,4.21,0,0,1,4.85-.05,2.29,2.29,0,0,0,.36.07c.1,0,.27-.24.2-.37a2.23,2.23,0,0,0-.5-.59,5.44,5.44,0,0,1,1.14-.55,5.57,5.57,0,0,1,1.72-.22A5.36,5.36,0,0,0,95.9,6.41Z"/><path class="cls-8" d="M85.54,36.83a2.92,2.92,0,0,0-.66,0,2.68,2.68,0,0,0-.89.3,2.42,2.42,0,0,0-3.31-.81l-.15.12a3.6,3.6,0,0,0-.9,1.12,3.43,3.43,0,0,1,3.84-.09,4.67,4.67,0,0,0-.46.44v0a3.91,3.91,0,0,1,1.56-.55,5.85,5.85,0,0,1,2.12.1A4.06,4.06,0,0,0,85.54,36.83Z"/><path class="cls-8" d="M95.3,29.49a2.49,2.49,0,0,0-1.38.89A3.17,3.17,0,0,0,92.35,30c-.88,0-1.55.8-2.27,1.39l0,.07a3.44,3.44,0,0,1,4.17-.05l.3.08c.09,0,.23-.23.17-.34a1.85,1.85,0,0,0-.41-.56,5,5,0,0,1,1-.51,4.41,4.41,0,0,1,1.48-.2A4.19,4.19,0,0,0,95.3,29.49Z"/><path class="cls-7" d="M116.59,6.5a2.09,2.09,0,0,0-.83.84,2.65,2.65,0,0,0-.26.21,2.22,2.22,0,0,0-.69,1.7,2,2,0,0,0,1.58,1.61,3.06,3.06,0,0,0,3.48-2.38C120.44,6.23,117.43,6.13,116.59,6.5Z"/><path class="cls-7" d="M123.21,10.81a.49.49,0,0,0-.44-.29,1,1,0,0,0-1.09.47l-.06.1a1.54,1.54,0,0,0-.49,1.17.72.72,0,0,0,.93.64,1.67,1.67,0,0,0,1.06-1.09A1.34,1.34,0,0,0,123.21,10.81Z"/><path class="cls-7" d="M130.22,11a3.2,3.2,0,0,0-.42.1,2.69,2.69,0,0,0-2.32,2.72c.19,1.18,2,1.07,2.59,1a2.68,2.68,0,0,0,2.17-2.17C132.5,11.23,130.9,10.93,130.22,11Z"/><path class="cls-7" d="M138.91,8.82a.63.63,0,0,0-.58.16c-.33.28-.81,1.19-.25,1.41s1.21-.58,1.22-1.26C139.3,8.8,139.11,8.75,138.91,8.82Z"/><path class="cls-7" d="M145.94,9a2,2,0,0,0-.39.09.73.73,0,0,0-.3,0,2,2,0,0,0-1.58,1.74c-.12,1.17,1,1.32,1.64,1.22a2.41,2.41,0,0,0,1.87-1.8C147.42,9.22,146.42,8.93,145.94,9Z"/><path class="cls-7" d="M119.54,22.78c-.7-.69-1.6-.42-2.4,0a3.51,3.51,0,0,0-.52.33l0,0-.07.06a2.88,2.88,0,0,0-1.16,2.92c.6,1.84,3,1.36,3.87.44a3.57,3.57,0,0,0,1.07-2.48A1.63,1.63,0,0,0,119.54,22.78Z"/><path class="cls-7" d="M115.67,18.36a.91.91,0,0,0-.81-.47.71.71,0,0,0-.24.06,1.08,1.08,0,0,0-.63.27,1.28,1.28,0,0,0-.29,1.5.82.82,0,0,0,.72.33,1.22,1.22,0,0,0,.87-.31A1.38,1.38,0,0,0,115.67,18.36Z"/><path class="cls-7" d="M139,26.31a1.32,1.32,0,0,0-.54-.33.05.05,0,0,0,0,0c-1-.71-2.62-.31-2.77,1.7a1.33,1.33,0,0,0,1.15,1.43,1.88,1.88,0,0,0,1.81-.65C139,27.91,139.5,26.86,139,26.31Z"/><path class="cls-7" d="M124.88,19.84c-.31.08-.91.64-.79,1.14a.76.76,0,0,0,.82.71,1.2,1.2,0,0,0,1.27-.93C126.34,19.79,125.35,19.71,124.88,19.84Z"/><path class="cls-7" d="M139.9,36.58c0-.09-.06-.2-.09-.3,0-.29-.06-.44-.23-.47a.43.43,0,0,0-.41-.12c-.4.06-1,1.12-.64,1.58s.72.14,1-.27l.06.06C139.69,37.18,140,36.74,139.9,36.58Z"/><path class="cls-7" d="M146.52,29.41l-.06,0a.41.41,0,0,0-.49-.08c-.69.31-1.4,1.92-.7,2.59.24.23.6.11.86-.08a2.55,2.55,0,0,0,.89-1.72C147.05,29.63,146.84,29.37,146.52,29.41Z"/><path class="cls-7" d="M143.55,27.71h0a.24.24,0,0,0-.28,0c-.38.17-.78,1.06-.38,1.43a.38.38,0,0,0,.48-.05,1.38,1.38,0,0,0,.5-.95C143.85,27.83,143.73,27.69,143.55,27.71Z"/><path class="cls-7" d="M128.44,40.32c-.52-1.84-2.46-1.34-3.45-.78a3.1,3.1,0,0,0-1.41,2.32c-.14,1.37,1.36,1.87,2.24,1.89a2.24,2.24,0,0,0,2-.82A3,3,0,0,0,128.44,40.32Z"/><path class="cls-7" d="M114.78,48.57l0,0,0-.06c-.28-.3-.7,0-.87.4s-.33,1,.09,1,.74-.29.94-.78C114.93,49,115,48.48,114.78,48.57Z"/><path class="cls-7" d="M114.3,39.63a2,2,0,0,0-1.66,1.11,1.19,1.19,0,0,0-.19.2,1.89,1.89,0,0,0-.37,1.36,1.72,1.72,0,0,0,1.06,1.45c1,.46,2.09-.2,2.64-1.5A1.84,1.84,0,0,0,114.3,39.63Zm0,2.95h0a4.14,4.14,0,0,0,.58-.79l.1.11C115.36,42.35,114.73,42.52,114.35,42.58Z"/><path class="cls-7" d="M122.57,50.53a.74.74,0,0,0-.25-.05c-.37-.37-.95.07-1.15.64a.88.88,0,0,0,.14,1,.75.75,0,0,0,.93.06c.13-.08.27-.08.4-.16a1.36,1.36,0,0,0,.41-.82C123.13,50.68,122.8,50.61,122.57,50.53Z"/><path class="cls-7" d="M138.84,48.08l-.05,0,0,0-.07-.06c-.1-.06-.24.1-.32.21s-.37.62-.26.91a.27.27,0,0,0,.45.11,1.44,1.44,0,0,0,.5-1.07C139.06,48,139,48,138.84,48.08Z"/><path class="cls-7" d="M145.9,48.23a1.64,1.64,0,0,1-.58.06,1.91,1.91,0,0,0,.73-.82C146.41,47.8,146.29,48.11,145.9,48.23Z"/><path class="cls-8" d="M141.13,17.48a2.69,2.69,0,0,0-1.52-.28,7.48,7.48,0,0,0-1.88.4,6.22,6.22,0,0,0-1.83,2.17,4.74,4.74,0,0,0-1.49-.18,3.9,3.9,0,0,0-1.52.53c-.36.18-.67.71-1,.85,0,0,0,0-.05.06,1.19-.46,2.12-1,3.43-.72a4.5,4.5,0,0,1,2,.93.32.32,0,0,0,0-.13,1.81,1.81,0,0,0-1.09-1.23,5.68,5.68,0,0,1,2-1.86A6.42,6.42,0,0,1,141.13,17.48Z"/><path class="cls-8" d="M120.28,15.53a3.3,3.3,0,0,0-.7,0,2.91,2.91,0,0,0-.94.32,2.63,2.63,0,0,0-3.51-.81l-.15.12a3.64,3.64,0,0,0-.94,1.14,3.72,3.72,0,0,1,4-.11,3.34,3.34,0,0,0-.48.45h0a4.42,4.42,0,0,1,1.65-.56,6.89,6.89,0,0,1,2.26.09A4.76,4.76,0,0,0,120.28,15.53Z"/><path class="cls-8" d="M131.65,6.41a2.86,2.86,0,0,0-1.59,1A3.78,3.78,0,0,0,128.22,7c-1,0-1.8.86-2.63,1.5a.32.32,0,0,0-.06.08,4.23,4.23,0,0,1,4.86-.05,2,2,0,0,0,.35.07c.1,0,.27-.24.2-.37a2.41,2.41,0,0,0-.49-.59,5.14,5.14,0,0,1,1.13-.55,5.61,5.61,0,0,1,1.72-.22A5.29,5.29,0,0,0,131.65,6.41Z"/><path class="cls-8" d="M138.1,39.4a2.41,2.41,0,0,0-1.43-.29,6.94,6.94,0,0,0-1.75.38,5.94,5.94,0,0,0-1.66,2.16,4.46,4.46,0,0,0-1.39-.19,3.29,3.29,0,0,0-1.39.52c-.33.18-.62.7-.94.83l0,.07c1.09-.45,1.94-1,3.16-.69a4.12,4.12,0,0,1,1.89.94.22.22,0,0,0,0-.13,1.85,1.85,0,0,0-1-1.24,5.25,5.25,0,0,1,1.85-1.84A5.45,5.45,0,0,1,138.1,39.4Z"/><path class="cls-8" d="M121.29,36.83a2.92,2.92,0,0,0-.66,0,2.68,2.68,0,0,0-.89.3,2.41,2.41,0,0,0-3.3-.81l-.16.12a3.6,3.6,0,0,0-.9,1.12,3.44,3.44,0,0,1,3.85-.09,3.78,3.78,0,0,0-.46.44l0,0a3.9,3.9,0,0,1,1.57-.55,5.79,5.79,0,0,1,2.11.1A4.06,4.06,0,0,0,121.29,36.83Z"/><path class="cls-8" d="M131.05,29.49a2.47,2.47,0,0,0-1.37.89,3.17,3.17,0,0,0-1.57-.34c-.89,0-1.55.8-2.27,1.39a.21.21,0,0,0,0,.07,3.42,3.42,0,0,1,4.16-.05l.3.08c.09,0,.23-.23.18-.34a2.05,2.05,0,0,0-.42-.56,4.79,4.79,0,0,1,1-.51,4.35,4.35,0,0,1,1.47-.2A4.19,4.19,0,0,0,131.05,29.49Z"/><path class="cls-7" d="M6.91,104.07a1.9,1.9,0,0,0-.83.71,2.4,2.4,0,0,0-.26.18,1.75,1.75,0,0,0-.69,1.44,1.82,1.82,0,0,0,1.58,1.37,3.08,3.08,0,0,0,3.48-2C10.76,103.84,7.75,103.75,6.91,104.07Z"/><path class="cls-7" d="M13.53,107.73a.5.5,0,0,0-.44-.24,1.09,1.09,0,0,0-1.09.39l-.06.09a1.22,1.22,0,0,0-.49,1c.05.51.58.59.93.54a1.55,1.55,0,0,0,1.06-.93A1,1,0,0,0,13.53,107.73Z"/><path class="cls-7" d="M20.54,107.9a3.15,3.15,0,0,0-.42.09c-1.07,0-2.54,1.18-2.32,2.31s2,.91,2.59.82a2.53,2.53,0,0,0,2.17-1.85C22.82,108.09,21.22,107.83,20.54,107.9Z"/><path class="cls-7" d="M29.23,106a.73.73,0,0,0-.58.13c-.33.25-.81,1-.25,1.21s1.21-.5,1.22-1.08C29.62,106,29.43,106,29.23,106Z"/><path class="cls-7" d="M36.26,106.18a2.08,2.08,0,0,0-.39.08,1,1,0,0,0-.3,0A1.86,1.86,0,0,0,34,107.7c-.12,1,1,1.13,1.64,1a2.27,2.27,0,0,0,1.87-1.53C37.74,106.38,36.74,106.14,36.26,106.18Z"/><path class="cls-7" d="M6,114.14a1,1,0,0,0-.81-.39.69.69,0,0,0-.24,0,1.27,1.27,0,0,0-.63.23A1,1,0,0,0,4,115.31a.88.88,0,0,0,.72.27,1.32,1.32,0,0,0,.87-.26C5.87,115.12,6.22,114.54,6,114.14Z"/><path class="cls-7" d="M29.31,120.9a1.63,1.63,0,0,0-.54-.28s0,0,0,0A1.79,1.79,0,0,0,26,122c-.07.77.65,1.14,1.15,1.21a2.08,2.08,0,0,0,1.81-.55C29.33,122.27,29.82,121.37,29.31,120.9Z"/><path class="cls-7" d="M15.2,115.4c-.31.08-.91.55-.79,1s.43.6.82.61,1.16-.17,1.27-.79C16.66,115.37,15.67,115.29,15.2,115.4Z"/><path class="cls-7" d="M30.23,129.64a2.77,2.77,0,0,1-.1-.26c0-.25-.06-.38-.23-.4a.47.47,0,0,0-.41-.1c-.4.05-1,.94-.64,1.34s.72.12,1-.23l.06,0C30,130.14,30.28,129.77,30.23,129.64Z"/><path class="cls-7" d="M36.84,123.54h-.06a.5.5,0,0,0-.49-.07c-.69.27-1.4,1.64-.7,2.21a.78.78,0,0,0,.86-.07,2.05,2.05,0,0,0,.89-1.46C37.37,123.72,37.16,123.51,36.84,123.54Z"/><path class="cls-7" d="M33.87,122.1h0a.31.31,0,0,0-.28,0c-.38.14-.78.9-.38,1.21a.43.43,0,0,0,.48,0,1.1,1.1,0,0,0,.5-.8C34.17,122.2,34.05,122.08,33.87,122.1Z"/><path class="cls-7" d="M5.1,139.82l0,0L5,139.79c-.28-.25-.7,0-.87.34s-.33.82.09.88a1,1,0,0,0,.94-.66C5.25,140.21,5.36,139.75,5.1,139.82Z"/><path class="cls-7" d="M4.62,132.22a2.11,2.11,0,0,0-1.66.95,1,1,0,0,0-.19.17,1.44,1.44,0,0,0-.37,1.15,1.53,1.53,0,0,0,1.06,1.24,2.14,2.14,0,0,0,2.64-1.28A1.58,1.58,0,0,0,4.62,132.22Zm0,2.51h0a4.32,4.32,0,0,0,.58-.68l.1.1C5.68,134.53,5.05,134.68,4.67,134.73Z"/><path class="cls-7" d="M12.89,141.49a1.11,1.11,0,0,0-.25-.05c-.37-.31-1,.07-1.15.55a.65.65,0,0,0,.14.82.83.83,0,0,0,.93.05c.13-.06.27-.07.4-.13a1.12,1.12,0,0,0,.41-.69C13.45,141.62,13.12,141.56,12.89,141.49Z"/><path class="cls-7" d="M29.16,139.4l-.05,0,0,0-.06,0c-.11-.05-.25.09-.33.17s-.37.54-.26.78a.29.29,0,0,0,.45.09,1.14,1.14,0,0,0,.5-.9C29.39,139.35,29.27,139.33,29.16,139.4Z"/><path class="cls-7" d="M36.94,137.59a1.66,1.66,0,0,0-1-.26,2.53,2.53,0,0,0-2.5,1.08c-.68,1.06.11,1.81.83,2.14a2.11,2.11,0,0,0,2.56-.54C37.45,139.25,37.74,138.19,36.94,137.59Zm-.72,1.94a1.63,1.63,0,0,1-.58.05,1.72,1.72,0,0,0,.73-.69C36.73,139.17,36.61,139.43,36.22,139.53Z"/><path class="cls-8" d="M31.45,113.4a3.17,3.17,0,0,0-1.52-.24,8.64,8.64,0,0,0-1.88.34,5.58,5.58,0,0,0-1.83,1.85,5.74,5.74,0,0,0-1.49-.16,4.19,4.19,0,0,0-1.51.46c-.37.15-.68.6-1,.71,0,0,0,0-.06.06a6.34,6.34,0,0,1,3.43-.61,4.86,4.86,0,0,1,2,.79.15.15,0,0,0,0-.11,1.63,1.63,0,0,0-1.09-1,5.47,5.47,0,0,1,2-1.58A7.42,7.42,0,0,1,31.45,113.4Z"/><path class="cls-8" d="M10.6,111.74a5.51,5.51,0,0,0-.7,0A3.38,3.38,0,0,0,9,112a2.92,2.92,0,0,0-3.5-.69l-.16.11a3.1,3.1,0,0,0-.93,1,4.25,4.25,0,0,1,4-.1,3.33,3.33,0,0,0-.48.38v0a4.71,4.71,0,0,1,1.65-.48,7.81,7.81,0,0,1,2.26.07A5.09,5.09,0,0,0,10.6,111.74Z"/><path class="cls-8" d="M22,104a3.05,3.05,0,0,0-1.59.82,4.55,4.55,0,0,0-1.84-.31,5.16,5.16,0,0,0-2.63,1.28s0,0-.05.06a4.83,4.83,0,0,1,4.85,0,2,2,0,0,0,.35.06c.1,0,.27-.21.2-.31a1.8,1.8,0,0,0-.49-.5,5.38,5.38,0,0,1,1.13-.47,6.29,6.29,0,0,1,1.73-.19A6.29,6.29,0,0,0,22,104Z"/><path class="cls-8" d="M26,134.32a2.69,2.69,0,0,0-1.4-.39,8.4,8.4,0,0,0-1.77.16A5.33,5.33,0,0,0,21,135.76a4.84,4.84,0,0,0-1.37-.28,3.63,3.63,0,0,0-1.43.3c-.34.12-.67.54-1,.62l-.05,0a5.47,5.47,0,0,1,3.2-.29,4.39,4.39,0,0,1,1.81,1,.26.26,0,0,0,0-.11,1.68,1.68,0,0,0-.93-1.15,4.91,4.91,0,0,1,2-1.38A6.27,6.27,0,0,1,26,134.32Z"/><path class="cls-8" d="M11.61,129.84a4.85,4.85,0,0,0-.66,0,3.13,3.13,0,0,0-.89.26,2.66,2.66,0,0,0-3.3-.69l-.16.1a3.19,3.19,0,0,0-.9.95,4,4,0,0,1,3.85-.08,3.19,3.19,0,0,0-.46.38h0a4.6,4.6,0,0,1,1.56-.46,7.13,7.13,0,0,1,2.11.08A4.86,4.86,0,0,0,11.61,129.84Z"/><path class="cls-8" d="M21.37,123.61a2.56,2.56,0,0,0-1.37.75,3.47,3.47,0,0,0-1.57-.28,4.35,4.35,0,0,0-2.27,1.18s0,0-.05.06a3.89,3.89,0,0,1,4.16,0l.3.06c.09,0,.24-.2.18-.29a1.74,1.74,0,0,0-.42-.47,4.81,4.81,0,0,1,1-.44,5.63,5.63,0,0,1,1.47-.17A4.88,4.88,0,0,0,21.37,123.61Z"/><path class="cls-7" d="M49.29,107.73a.53.53,0,0,0-.45-.24,1.07,1.07,0,0,0-1.08.39l-.07.09a1.25,1.25,0,0,0-.49,1c.06.51.58.59.93.54a1.53,1.53,0,0,0,1.06-.93A1,1,0,0,0,49.29,107.73Z"/><path class="cls-7" d="M56.3,107.9a3.29,3.29,0,0,0-.43.09c-1.07,0-2.54,1.18-2.32,2.31s2,.91,2.59.82a2.52,2.52,0,0,0,2.17-1.85C58.57,108.09,57,107.83,56.3,107.9Z"/><path class="cls-7" d="M65,106a.73.73,0,0,0-.58.13c-.33.25-.81,1-.25,1.21s1.21-.5,1.22-1.08C65.37,106,65.18,106,65,106Z"/><path class="cls-7" d="M72,106.18a1.8,1.8,0,0,0-.39.08,1,1,0,0,0-.31,0,1.86,1.86,0,0,0-1.58,1.48c-.12,1,1,1.13,1.64,1a2.28,2.28,0,0,0,1.88-1.53C73.5,106.38,72.49,106.14,72,106.18Z"/><path class="cls-7" d="M45.61,117.9a2.14,2.14,0,0,0-2.4,0,5.29,5.29,0,0,0-.52.29l0,0-.08,0c-.69.49-1.55,1.44-1.15,2.48.59,1.56,3,1.15,3.86.37a2.85,2.85,0,0,0,1.07-2.11A1.38,1.38,0,0,0,45.61,117.9Z"/><path class="cls-7" d="M41.74,114.14a1,1,0,0,0-.8-.39.7.7,0,0,0-.25,0,1.27,1.27,0,0,0-.62.23,1,1,0,0,0-.3,1.28.89.89,0,0,0,.72.27,1.34,1.34,0,0,0,.88-.26C41.62,115.12,42,114.54,41.74,114.14Z"/><path class="cls-7" d="M65.06,120.9a1.49,1.49,0,0,0-.53-.28l0,0A1.79,1.79,0,0,0,61.73,122a1.21,1.21,0,0,0,1.15,1.21,2.07,2.07,0,0,0,1.81-.55C65.09,122.27,65.57,121.37,65.06,120.9Z"/><path class="cls-7" d="M51,115.4c-.3.08-.9.55-.79,1s.43.6.83.61,1.15-.17,1.27-.79C52.41,115.37,51.43,115.29,51,115.4Z"/><path class="cls-7" d="M66,129.64a2.77,2.77,0,0,1-.1-.26c0-.25,0-.38-.23-.4a.46.46,0,0,0-.41-.1c-.39.05-1,.94-.64,1.34s.72.12,1-.23l.06,0C65.77,130.14,66,129.77,66,129.64Z"/><path class="cls-7" d="M72.6,123.54h-.07a.5.5,0,0,0-.49-.07c-.69.27-1.39,1.64-.69,2.21a.76.76,0,0,0,.85-.07,2.1,2.1,0,0,0,.9-1.46C73.13,123.72,72.92,123.51,72.6,123.54Z"/><path class="cls-7" d="M69.62,122.1h0a.29.29,0,0,0-.27,0c-.39.14-.79.9-.39,1.21a.44.44,0,0,0,.49,0,1.17,1.17,0,0,0,.5-.8C69.92,122.2,69.8,122.08,69.62,122.1Z"/><path class="cls-7" d="M40.86,139.82s0,0,0,0a.12.12,0,0,0,0-.05c-.28-.25-.7,0-.87.34s-.32.82.09.88a1,1,0,0,0,.95-.66C41,140.21,41.11,139.75,40.86,139.82Z"/><path class="cls-7" d="M40.37,132.22a2.12,2.12,0,0,0-1.66.95,1.54,1.54,0,0,0-.19.17,1.48,1.48,0,0,0-.37,1.15,1.54,1.54,0,0,0,1.06,1.24,2.13,2.13,0,0,0,2.64-1.28A1.58,1.58,0,0,0,40.37,132.22Zm.05,2.51h0a4.27,4.27,0,0,0,.57-.68l.1.1C41.43,134.53,40.8,134.68,40.42,134.73Z"/><path class="cls-7" d="M48.64,141.49a1,1,0,0,0-.25-.05c-.37-.31-1,.07-1.14.55a.65.65,0,0,0,.14.82.81.81,0,0,0,.92.05c.14-.06.27-.07.4-.13a1,1,0,0,0,.41-.69C49.2,141.62,48.87,141.56,48.64,141.49Z"/><path class="cls-7" d="M64.91,139.4l0,0,0,0-.07,0c-.11-.05-.25.09-.32.17s-.38.54-.26.78a.28.28,0,0,0,.44.09,1.12,1.12,0,0,0,.5-.9C65.14,139.35,65,139.33,64.91,139.4Z"/><path class="cls-7" d="M72.69,137.59a1.64,1.64,0,0,0-1-.26,2.54,2.54,0,0,0-2.5,1.08c-.68,1.06.11,1.81.83,2.14a2.11,2.11,0,0,0,2.56-.54C73.21,139.25,73.5,138.19,72.69,137.59ZM72,139.53a1.61,1.61,0,0,1-.58.05,1.66,1.66,0,0,0,.73-.69C72.48,139.17,72.36,139.43,72,139.53Z"/><path class="cls-8" d="M67.2,113.4a3.13,3.13,0,0,0-1.51-.24,8.82,8.82,0,0,0-1.89.34A5.58,5.58,0,0,0,62,115.35a5.65,5.65,0,0,0-1.49-.16,4.19,4.19,0,0,0-1.51.46c-.36.15-.68.6-1,.71,0,0,0,0,0,.06a6.28,6.28,0,0,1,3.42-.61,4.81,4.81,0,0,1,2,.79.15.15,0,0,0,0-.11,1.64,1.64,0,0,0-1.08-1,5.4,5.4,0,0,1,2-1.58A7.37,7.37,0,0,1,67.2,113.4Z"/><path class="cls-8" d="M46.36,111.74a5.67,5.67,0,0,0-.71,0,3.48,3.48,0,0,0-.94.27,2.92,2.92,0,0,0-3.5-.69l-.16.11a3.1,3.1,0,0,0-.93,1,4.27,4.27,0,0,1,4.05-.1,3.4,3.4,0,0,0-.49.38v0a4.71,4.71,0,0,1,1.65-.48,7.8,7.8,0,0,1,2.26.07A5.21,5.21,0,0,0,46.36,111.74Z"/><path class="cls-8" d="M57.72,104a3.09,3.09,0,0,0-1.59.82,4.52,4.52,0,0,0-1.84-.31,5.16,5.16,0,0,0-2.63,1.28s0,0,0,.06a4.83,4.83,0,0,1,4.85,0l.35.06c.1,0,.27-.21.2-.31a1.67,1.67,0,0,0-.49-.5,5.47,5.47,0,0,1,1.14-.47,6.18,6.18,0,0,1,1.72-.19A6.29,6.29,0,0,0,57.72,104Z"/><path class="cls-8" d="M71.32,135a2.87,2.87,0,0,0-1.38-.43,8.15,8.15,0,0,0-1.78.11,5.25,5.25,0,0,0-1.88,1.61,5.3,5.3,0,0,0-1.35-.33,3.78,3.78,0,0,0-1.44.26c-.35.11-.69.52-1,.59,0,0,0,0-.06.05a5.41,5.41,0,0,1,3.21-.19,4.38,4.38,0,0,1,1.78,1,.17.17,0,0,0,0-.11,1.66,1.66,0,0,0-.89-1.17,5,5,0,0,1,2-1.33A6.4,6.4,0,0,1,71.32,135Z"/><path class="cls-8" d="M46.57,135.73a3.64,3.64,0,0,0-.66,0A2.82,2.82,0,0,0,45,136a2.7,2.7,0,0,0-3.31-.69l-.15.11a3.19,3.19,0,0,0-.9,1,3.92,3.92,0,0,1,3.84-.08,3.13,3.13,0,0,0-.45.38h0a4.28,4.28,0,0,1,1.57-.46,6.84,6.84,0,0,1,2.11.08A4.51,4.51,0,0,0,46.57,135.73Z"/><path class="cls-8" d="M57.12,123.61a2.56,2.56,0,0,0-1.37.75,3.47,3.47,0,0,0-1.57-.28,4.35,4.35,0,0,0-2.27,1.18s0,0,0,.06a3.9,3.9,0,0,1,4.17,0l.3.06c.08,0,.23-.2.17-.29a1.59,1.59,0,0,0-.42-.47,5.07,5.07,0,0,1,1-.44,5.65,5.65,0,0,1,1.48-.17A4.94,4.94,0,0,0,57.12,123.61Z"/><path class="cls-7" d="M80.84,104.07a1.87,1.87,0,0,0-.84.71c-.08.06-.18.11-.26.18a1.74,1.74,0,0,0-.68,1.44,1.82,1.82,0,0,0,1.58,1.37,3.08,3.08,0,0,0,3.47-2C84.69,103.84,81.68,103.75,80.84,104.07Z"/><path class="cls-7" d="M87.46,107.73a.52.52,0,0,0-.45-.24,1.08,1.08,0,0,0-1.08.39l-.07.09a1.24,1.24,0,0,0-.48,1c.05.51.58.59.93.54a1.54,1.54,0,0,0,1-.93A1,1,0,0,0,87.46,107.73Z"/><path class="cls-7" d="M94.47,107.9,94,108c-1.07,0-2.53,1.18-2.32,2.31s2,.91,2.6.82a2.51,2.51,0,0,0,2.16-1.85C96.74,108.09,95.14,107.83,94.47,107.9Z"/><path class="cls-7" d="M103.15,106a.72.72,0,0,0-.57.13c-.34.25-.82,1-.26,1.21s1.22-.5,1.22-1.08C103.55,106,103.36,106,103.15,106Z"/><path class="cls-7" d="M110.19,106.18a1.8,1.8,0,0,0-.39.08,1,1,0,0,0-.3,0,1.87,1.87,0,0,0-1.59,1.48c-.12,1,1,1.13,1.64,1a2.28,2.28,0,0,0,1.88-1.53C111.67,106.38,110.66,106.14,110.19,106.18Z"/><path class="cls-7" d="M79.92,114.14a1,1,0,0,0-.81-.39.74.74,0,0,0-.25,0,1.27,1.27,0,0,0-.62.23c-.31.24-.63.86-.29,1.28a.86.86,0,0,0,.71.27,1.34,1.34,0,0,0,.88-.26C79.79,115.12,80.15,114.54,79.92,114.14Z"/><path class="cls-7" d="M103.24,120.9a1.63,1.63,0,0,0-.54-.28l0,0A1.79,1.79,0,0,0,99.91,122a1.2,1.2,0,0,0,1.15,1.21,2.09,2.09,0,0,0,1.81-.55C103.26,122.27,103.75,121.37,103.24,120.9Z"/><path class="cls-7" d="M89.13,115.4c-.31.08-.91.55-.79,1s.42.6.82.61,1.16-.17,1.27-.79C90.58,115.37,89.6,115.29,89.13,115.4Z"/><path class="cls-7" d="M104.15,129.64a2.77,2.77,0,0,0-.1-.26c0-.25,0-.38-.22-.4a.49.49,0,0,0-.42-.1c-.39.05-1,.94-.63,1.34s.72.12,1-.23l0,0C103.94,130.14,104.21,129.77,104.15,129.64Z"/><path class="cls-7" d="M110.77,123.54h-.07a.49.49,0,0,0-.48-.07c-.69.27-1.4,1.64-.7,2.21a.78.78,0,0,0,.86-.07,2.12,2.12,0,0,0,.89-1.46C111.3,123.72,111.09,123.51,110.77,123.54Z"/><path class="cls-7" d="M107.79,122.1h0a.31.31,0,0,0-.28,0c-.39.14-.78.9-.39,1.21a.44.44,0,0,0,.49,0,1.13,1.13,0,0,0,.5-.8C108.09,122.2,108,122.08,107.79,122.1Z"/><path class="cls-7" d="M79,139.82l0,0-.06-.05c-.28-.25-.7,0-.87.34s-.32.82.1.88a1,1,0,0,0,.94-.66C79.18,140.21,79.29,139.75,79,139.82Z"/><path class="cls-7" d="M78.6,134.73h0a3.8,3.8,0,0,0,.57-.68l.1.1C79.6,134.53,79,134.68,78.6,134.73Z"/><path class="cls-7" d="M86.82,141.49a1.09,1.09,0,0,0-.26-.05c-.36-.31-.94.07-1.14.55a.65.65,0,0,0,.14.82.83.83,0,0,0,.93.05c.13-.06.26-.07.39-.13a1.09,1.09,0,0,0,.42-.69C87.37,141.62,87.05,141.56,86.82,141.49Z"/><path class="cls-7" d="M103.08,139.4l0,0,0,0a.18.18,0,0,0-.07,0c-.1-.05-.25.09-.32.17s-.38.54-.26.78a.29.29,0,0,0,.45.09,1.17,1.17,0,0,0,.5-.9C103.31,139.35,103.2,139.33,103.08,139.4Z"/><path class="cls-7" d="M110.86,137.59a1.62,1.62,0,0,0-1-.26,2.52,2.52,0,0,0-2.49,1.08c-.69,1.06.1,1.81.82,2.14a2.11,2.11,0,0,0,2.56-.54C111.38,139.25,111.67,138.19,110.86,137.59Zm-.71,1.94a1.63,1.63,0,0,1-.58.05,1.7,1.7,0,0,0,.72-.69C110.66,139.17,110.53,139.43,110.15,139.53Z"/><path class="cls-8" d="M105.37,113.4a3.13,3.13,0,0,0-1.51-.24,8.82,8.82,0,0,0-1.89.34,5.58,5.58,0,0,0-1.83,1.85,5.62,5.62,0,0,0-1.48-.16,4.18,4.18,0,0,0-1.52.46c-.36.15-.68.6-1,.71,0,0,0,0,0,.06a6.32,6.32,0,0,1,3.42-.61,4.81,4.81,0,0,1,2,.79.15.15,0,0,0,0-.11,1.64,1.64,0,0,0-1.08-1,5.47,5.47,0,0,1,2-1.58A7.37,7.37,0,0,1,105.37,113.4Z"/><path class="cls-8" d="M84.53,111.74a5.46,5.46,0,0,0-.7,0,3.55,3.55,0,0,0-1,.27,2.92,2.92,0,0,0-3.5-.69l-.16.11a3.1,3.1,0,0,0-.93,1,4.27,4.27,0,0,1,4-.1,2.86,2.86,0,0,0-.48.38l0,0a4.76,4.76,0,0,1,1.66-.48,7.82,7.82,0,0,1,2.26.07A5.47,5.47,0,0,0,84.53,111.74Z"/><path class="cls-8" d="M95.9,104a3.12,3.12,0,0,0-1.6.82,4.5,4.5,0,0,0-1.83-.31,5.12,5.12,0,0,0-2.63,1.28s0,0-.06.06a4.83,4.83,0,0,1,4.85,0,2.25,2.25,0,0,0,.36.06c.1,0,.27-.21.2-.31a1.83,1.83,0,0,0-.5-.5,5.7,5.7,0,0,1,1.14-.47,6.22,6.22,0,0,1,1.72-.19A6.22,6.22,0,0,0,95.9,104Z"/><path class="cls-8" d="M90.35,135.76a4.85,4.85,0,0,0-.66,0,2.76,2.76,0,0,0-.89.26,2.69,2.69,0,0,0-3.31-.7l-.15.11a3.19,3.19,0,0,0-.9,1,3.94,3.94,0,0,1,3.84-.08,3.85,3.85,0,0,0-.46.38,0,0,0,0,1,0,0,4.24,4.24,0,0,1,1.56-.46,6.89,6.89,0,0,1,2.12.08A4.51,4.51,0,0,0,90.35,135.76Z"/><path class="cls-8" d="M95.3,123.61a2.59,2.59,0,0,0-1.38.75,3.47,3.47,0,0,0-1.57-.28,4.38,4.38,0,0,0-2.27,1.18s0,0,0,.06a3.9,3.9,0,0,1,4.17,0l.3.06c.09,0,.23-.2.17-.29a1.56,1.56,0,0,0-.41-.47,4.73,4.73,0,0,1,1-.44,5.7,5.7,0,0,1,1.48-.17A4.88,4.88,0,0,0,95.3,123.61Z"/><path class="cls-7" d="M123.21,107.73a.5.5,0,0,0-.44-.24,1.09,1.09,0,0,0-1.09.39l-.06.09a1.22,1.22,0,0,0-.49,1c.05.51.58.59.93.54a1.57,1.57,0,0,0,1.06-.93A1,1,0,0,0,123.21,107.73Z"/><path class="cls-7" d="M130.22,107.9a3.15,3.15,0,0,0-.42.09c-1.07,0-2.54,1.18-2.32,2.31s2,.91,2.59.82a2.53,2.53,0,0,0,2.17-1.85C132.5,108.09,130.9,107.83,130.22,107.9Z"/><path class="cls-7" d="M138.91,106a.73.73,0,0,0-.58.13c-.33.25-.81,1-.25,1.21s1.21-.5,1.22-1.08C139.3,106,139.11,106,138.91,106Z"/><path class="cls-7" d="M145.94,106.18a1.93,1.93,0,0,0-.39.08,1,1,0,0,0-.3,0,1.86,1.86,0,0,0-1.58,1.48c-.12,1,1,1.13,1.64,1a2.27,2.27,0,0,0,1.87-1.53C147.42,106.38,146.42,106.14,145.94,106.18Z"/><path class="cls-7" d="M115.67,114.14a1,1,0,0,0-.81-.39.69.69,0,0,0-.24,0,1.27,1.27,0,0,0-.63.23c-.31.24-.63.86-.29,1.28a.88.88,0,0,0,.72.27,1.32,1.32,0,0,0,.87-.26C115.55,115.12,115.9,114.54,115.67,114.14Z"/><path class="cls-7" d="M139,120.9a1.63,1.63,0,0,0-.54-.28s0,0,0,0a1.79,1.79,0,0,0-2.77,1.45c-.07.77.65,1.14,1.15,1.21a2.08,2.08,0,0,0,1.81-.55C139,122.27,139.5,121.37,139,120.9Z"/><path class="cls-7" d="M124.88,115.4c-.31.08-.91.55-.79,1s.43.6.82.61,1.16-.17,1.27-.79C126.34,115.37,125.35,115.29,124.88,115.4Z"/><path class="cls-7" d="M139.9,129.64l-.09-.26c0-.25-.06-.38-.23-.4a.47.47,0,0,0-.41-.1c-.4.05-1,.94-.64,1.34s.72.12,1-.23l.06,0C139.69,130.14,140,129.77,139.9,129.64Z"/><path class="cls-7" d="M146.52,123.54h-.06a.5.5,0,0,0-.49-.07c-.69.27-1.4,1.64-.7,2.21a.78.78,0,0,0,.86-.07,2.09,2.09,0,0,0,.89-1.46C147.05,123.72,146.84,123.51,146.52,123.54Z"/><path class="cls-7" d="M143.55,122.1h0a.31.31,0,0,0-.28,0c-.38.14-.78.9-.38,1.21a.43.43,0,0,0,.48,0,1.13,1.13,0,0,0,.5-.8C143.85,122.2,143.73,122.08,143.55,122.1Z"/><path class="cls-7" d="M128.44,132.81c-.52-1.57-2.46-1.14-3.45-.66-.52.25-1.48,1.18-1.41,2-.14,1.16,1.36,1.59,2.24,1.61a2.49,2.49,0,0,0,2-.7A2.25,2.25,0,0,0,128.44,132.81Z"/><path class="cls-7" d="M114.78,139.82l0,0,0-.05c-.28-.25-.7,0-.87.34s-.33.82.09.88a1,1,0,0,0,.94-.66C114.93,140.21,115,139.75,114.78,139.82Z"/><path class="cls-7" d="M114.3,132.22a2.11,2.11,0,0,0-1.66.95,1,1,0,0,0-.19.17,1.44,1.44,0,0,0-.37,1.15,1.53,1.53,0,0,0,1.06,1.24,2.14,2.14,0,0,0,2.64-1.28A1.59,1.59,0,0,0,114.3,132.22Zm0,2.51h0a4.32,4.32,0,0,0,.58-.68l.1.1C115.36,134.53,114.73,134.68,114.35,134.73Z"/><path class="cls-7" d="M122.57,141.49a1.11,1.11,0,0,0-.25-.05c-.37-.31-.95.07-1.15.55a.65.65,0,0,0,.14.82.83.83,0,0,0,.93.05c.13-.06.27-.07.4-.13a1.12,1.12,0,0,0,.41-.69C123.13,141.62,122.8,141.56,122.57,141.49Z"/><path class="cls-7" d="M138.84,139.4l-.05,0,0,0a.18.18,0,0,0-.07,0c-.1-.05-.24.09-.32.17s-.37.54-.26.78a.29.29,0,0,0,.45.09,1.14,1.14,0,0,0,.5-.9C139.06,139.35,139,139.33,138.84,139.4Z"/><path class="cls-7" d="M146.62,137.59a1.66,1.66,0,0,0-1-.26,2.53,2.53,0,0,0-2.5,1.08c-.69,1.06.11,1.81.83,2.14a2.11,2.11,0,0,0,2.56-.54C147.13,139.25,147.42,138.19,146.62,137.59Zm-.72,1.94a1.63,1.63,0,0,1-.58.05,1.72,1.72,0,0,0,.73-.69C146.41,139.17,146.29,139.43,145.9,139.53Z"/><path class="cls-8" d="M141.13,113.4a3.17,3.17,0,0,0-1.52-.24,8.64,8.64,0,0,0-1.88.34,5.58,5.58,0,0,0-1.83,1.85,5.74,5.74,0,0,0-1.49-.16,4.3,4.3,0,0,0-1.52.46c-.36.15-.67.6-1,.71,0,0,0,0-.05.06a6.34,6.34,0,0,1,3.43-.61,4.86,4.86,0,0,1,2,.79s0-.08,0-.11a1.63,1.63,0,0,0-1.09-1,5.47,5.47,0,0,1,2-1.58A7.42,7.42,0,0,1,141.13,113.4Z"/><path class="cls-8" d="M120.28,111.74a5.51,5.51,0,0,0-.7,0,3.38,3.38,0,0,0-.94.27,2.94,2.94,0,0,0-3.51-.69l-.15.11a3.24,3.24,0,0,0-.94,1,4.27,4.27,0,0,1,4-.1,3.33,3.33,0,0,0-.48.38v0a4.71,4.71,0,0,1,1.65-.48,7.81,7.81,0,0,1,2.26.07A5.09,5.09,0,0,0,120.28,111.74Z"/><path class="cls-8" d="M131.65,104a3.05,3.05,0,0,0-1.59.82,4.55,4.55,0,0,0-1.84-.31,5.16,5.16,0,0,0-2.63,1.28s0,0-.06.06a4.85,4.85,0,0,1,4.86,0,2,2,0,0,0,.35.06c.1,0,.27-.21.2-.31a2,2,0,0,0-.49-.5,5.38,5.38,0,0,1,1.13-.47,6.26,6.26,0,0,1,1.72-.19A6.13,6.13,0,0,0,131.65,104Z"/><path class="cls-8" d="M139.28,134a2.78,2.78,0,0,0-1.42-.25,7.93,7.93,0,0,0-1.75.33,5.31,5.31,0,0,0-1.67,1.83,5.33,5.33,0,0,0-1.38-.16,3.65,3.65,0,0,0-1.4.45c-.33.14-.61.59-.94.7a.15.15,0,0,0,0,.06,5.38,5.38,0,0,1,3.15-.59,4.45,4.45,0,0,1,1.9.8.15.15,0,0,0,0-.11,1.63,1.63,0,0,0-1-1,5,5,0,0,1,1.84-1.57A6.46,6.46,0,0,1,139.28,134Z"/><path class="cls-8" d="M115.31,135.6a4.85,4.85,0,0,0-.66,0,3,3,0,0,0-.89.26,2.69,2.69,0,0,0-3.31-.69l-.15.11a3,3,0,0,0-.9.95,3.92,3.92,0,0,1,3.84-.08,5,5,0,0,0-.46.37s0,0,0,0a4.48,4.48,0,0,1,1.56-.47,7.13,7.13,0,0,1,2.11.08A4.62,4.62,0,0,0,115.31,135.6Z"/><path class="cls-8" d="M131.05,123.61a2.56,2.56,0,0,0-1.37.75,3.47,3.47,0,0,0-1.57-.28,4.35,4.35,0,0,0-2.27,1.18s0,0,0,.06a3.89,3.89,0,0,1,4.16,0l.3.06c.09,0,.23-.2.18-.29a1.74,1.74,0,0,0-.42-.47,4.58,4.58,0,0,1,1-.44,5.63,5.63,0,0,1,1.47-.17A4.88,4.88,0,0,0,131.05,123.61Z"/><path class="cls-7" d="M6.91,59a2,2,0,0,0-.83.72,1.51,1.51,0,0,0-.26.18,1.75,1.75,0,0,0-.69,1.44,1.83,1.83,0,0,0,1.58,1.37,3.1,3.1,0,0,0,3.48-2C10.76,58.82,7.75,58.73,6.91,59Z"/><path class="cls-7" d="M13.53,62.71a.51.51,0,0,0-.44-.25,1.09,1.09,0,0,0-1.09.4l-.06.09a1.2,1.2,0,0,0-.49,1c.05.51.58.6.93.55a1.57,1.57,0,0,0,1.06-.94A1,1,0,0,0,13.53,62.71Z"/><path class="cls-7" d="M20.54,62.88a1.58,1.58,0,0,0-.42.09c-1.07,0-2.54,1.17-2.32,2.3s2,.91,2.59.82a2.52,2.52,0,0,0,2.17-1.84C22.82,63.06,21.22,62.81,20.54,62.88Z"/><path class="cls-7" d="M29.23,61a.74.74,0,0,0-.58.14c-.33.24-.81,1-.25,1.2s1.21-.49,1.22-1.07C29.62,61,29.43,61,29.23,61Z"/><path class="cls-7" d="M36.26,61.15a2.08,2.08,0,0,0-.39.08,1,1,0,0,0-.3,0A1.86,1.86,0,0,0,34,62.68c-.12,1,1,1.12,1.64,1a2.28,2.28,0,0,0,1.87-1.53C37.74,61.35,36.74,61.11,36.26,61.15Z"/><path class="cls-7" d="M6,69.12a1,1,0,0,0-.81-.39.52.52,0,0,0-.24,0,1.1,1.1,0,0,0-.63.23c-.31.24-.62.86-.29,1.27a.89.89,0,0,0,.72.28,1.32,1.32,0,0,0,.87-.27C5.87,70.09,6.22,69.51,6,69.12Z"/><path class="cls-7" d="M15.2,70.38c-.31.07-.91.55-.79,1s.43.6.82.6,1.16-.17,1.27-.78C16.66,70.34,15.67,70.27,15.2,70.38Z"/><path class="cls-7" d="M30.23,84.61a2.6,2.6,0,0,1-.1-.25c0-.25-.06-.38-.23-.4a.48.48,0,0,0-.41-.11c-.4.06-1,1-.64,1.34s.72.12,1-.23l.06.06C30,85.12,30.28,84.74,30.23,84.61Z"/><path class="cls-7" d="M36.84,78.51l-.06,0a.48.48,0,0,0-.49-.07c-.69.27-1.4,1.63-.7,2.2a.74.74,0,0,0,.86-.07,2,2,0,0,0,.89-1.46C37.37,78.7,37.16,78.48,36.84,78.51Z"/><path class="cls-7" d="M33.87,77.07h0a.28.28,0,0,0-.28,0c-.38.15-.78.9-.38,1.22a.45.45,0,0,0,.48,0,1.12,1.12,0,0,0,.5-.81C34.17,77.17,34.05,77.05,33.87,77.07Z"/><path class="cls-7" d="M5.1,94.8l0,0L5,94.76c-.28-.25-.7,0-.87.34s-.33.83.09.89a1,1,0,0,0,.94-.67C5.25,95.19,5.36,94.72,5.1,94.8Z"/><path class="cls-7" d="M4.62,87.2A2.07,2.07,0,0,0,3,88.14l-.19.17a1.45,1.45,0,0,0-.37,1.16A1.51,1.51,0,0,0,3.46,90.7,2.13,2.13,0,0,0,6.1,89.43,1.58,1.58,0,0,0,4.62,87.2Zm0,2.5h0A3.57,3.57,0,0,0,5.25,89a.47.47,0,0,0,.1.1C5.68,89.51,5.05,89.65,4.67,89.7Z"/><path class="cls-7" d="M12.89,96.46a.73.73,0,0,0-.25,0c-.37-.31-1,.06-1.15.55a.66.66,0,0,0,.14.82.85.85,0,0,0,.93,0c.13-.06.27-.07.4-.14a1.07,1.07,0,0,0,.41-.69C13.45,96.59,13.12,96.54,12.89,96.46Z"/><path class="cls-7" d="M29.16,94.38l-.05,0h0l-.06,0c-.11-.06-.25.08-.33.17s-.37.53-.26.78a.3.3,0,0,0,.45.09,1.18,1.18,0,0,0,.5-.91C29.39,94.33,29.27,94.31,29.16,94.38Z"/><path class="cls-7" d="M36.94,92.57a1.6,1.6,0,0,0-1-.27,2.56,2.56,0,0,0-2.5,1.09c-.68,1,.11,1.8.83,2.14A2.14,2.14,0,0,0,36.87,95C37.45,94.23,37.74,93.17,36.94,92.57Zm-.72,1.94a1.9,1.9,0,0,1-.58,0,1.68,1.68,0,0,0,.73-.7C36.73,94.14,36.61,94.41,36.22,94.51Z"/><path class="cls-8" d="M31.45,68.38a3.17,3.17,0,0,0-1.52-.25,9.29,9.29,0,0,0-1.88.34,5.78,5.78,0,0,0-1.83,1.85,5.71,5.71,0,0,0-1.49-.15,4.17,4.17,0,0,0-1.51.45c-.37.15-.68.6-1,.72,0,0,0,0-.06,0a6.33,6.33,0,0,1,3.43-.6,4.71,4.71,0,0,1,2,.78.15.15,0,0,0,0-.11,1.66,1.66,0,0,0-1.09-1,5.58,5.58,0,0,1,2-1.58A7.4,7.4,0,0,1,31.45,68.38Z"/><path class="cls-8" d="M10.6,66.71a4.15,4.15,0,0,0-.7,0A3.36,3.36,0,0,0,9,67a2.92,2.92,0,0,0-3.5-.68l-.16.1a3.1,3.1,0,0,0-.93,1,4.25,4.25,0,0,1,4-.09,3.33,3.33,0,0,0-.48.38h0a4.68,4.68,0,0,1,1.65-.47,7.81,7.81,0,0,1,2.26.07A5.12,5.12,0,0,0,10.6,66.71Z"/><path class="cls-8" d="M22,59a3,3,0,0,0-1.59.82,4.38,4.38,0,0,0-1.84-.31,5.07,5.07,0,0,0-2.63,1.27.21.21,0,0,0-.05.07,4.81,4.81,0,0,1,4.85,0l.35.06c.1,0,.27-.21.2-.31a2,2,0,0,0-.49-.51,6,6,0,0,1,1.13-.47,6.7,6.7,0,0,1,1.73-.18A6.29,6.29,0,0,0,22,59Z"/><path class="cls-8" d="M26,89.29a2.78,2.78,0,0,0-1.4-.38,7.25,7.25,0,0,0-1.77.16A5.33,5.33,0,0,0,21,90.74a5.26,5.26,0,0,0-1.37-.29,3.65,3.65,0,0,0-1.43.31c-.34.12-.67.54-1,.61l-.05.06a5.39,5.39,0,0,1,3.2-.29,4.37,4.37,0,0,1,1.81,1,.26.26,0,0,0,0-.11,1.66,1.66,0,0,0-.93-1.14,5,5,0,0,1,2-1.39A6.43,6.43,0,0,1,26,89.29Z"/><path class="cls-8" d="M11.61,84.82a3.64,3.64,0,0,0-.66,0,2.82,2.82,0,0,0-.89.25,2.69,2.69,0,0,0-3.3-.69l-.16.11a3.19,3.19,0,0,0-.9.95,3.94,3.94,0,0,1,3.85-.08,3.92,3.92,0,0,0-.46.37v0a4.18,4.18,0,0,1,1.56-.46,6.81,6.81,0,0,1,2.11.08A4.2,4.2,0,0,0,11.61,84.82Z"/><path class="cls-8" d="M21.37,78.58a2.58,2.58,0,0,0-1.37.76,3.62,3.62,0,0,0-1.57-.29,4.35,4.35,0,0,0-2.27,1.18l-.05.06a3.91,3.91,0,0,1,4.16,0,1.59,1.59,0,0,0,.3.06c.09,0,.24-.19.18-.29a1.91,1.91,0,0,0-.42-.47,5.39,5.39,0,0,1,1-.43A5.23,5.23,0,0,1,22.78,79,4.89,4.89,0,0,0,21.37,78.58Z"/><path class="cls-7" d="M42.66,59a2,2,0,0,0-.83.72,1.51,1.51,0,0,0-.26.18,1.78,1.78,0,0,0-.69,1.44,1.84,1.84,0,0,0,1.58,1.37,3.1,3.1,0,0,0,3.48-2C46.52,58.82,43.51,58.73,42.66,59Z"/><path class="cls-7" d="M49.29,62.71a.54.54,0,0,0-.45-.25,1.08,1.08,0,0,0-1.08.4l-.07.09a1.23,1.23,0,0,0-.49,1c.06.51.58.6.93.55a1.55,1.55,0,0,0,1.06-.94A1,1,0,0,0,49.29,62.71Z"/><path class="cls-7" d="M65,61a.74.74,0,0,0-.58.14c-.33.24-.81,1-.25,1.2s1.21-.49,1.22-1.07C65.37,61,65.18,61,65,61Z"/><path class="cls-7" d="M72,61.15a1.8,1.8,0,0,0-.39.08,1,1,0,0,0-.31,0,1.86,1.86,0,0,0-1.58,1.48c-.12,1,1,1.12,1.64,1a2.3,2.3,0,0,0,1.88-1.53C73.5,61.35,72.49,61.11,72,61.15Z"/><path class="cls-7" d="M45.61,72.88a2.13,2.13,0,0,0-2.4,0,3.81,3.81,0,0,0-.52.29l0,0-.08,0c-.69.5-1.55,1.44-1.15,2.48.59,1.56,3,1.15,3.86.37A2.83,2.83,0,0,0,46.36,74,1.37,1.37,0,0,0,45.61,72.88Z"/><path class="cls-7" d="M41.74,69.12a1,1,0,0,0-.8-.39.53.53,0,0,0-.25,0,1.1,1.1,0,0,0-.62.23c-.32.24-.63.86-.3,1.27a.9.9,0,0,0,.72.28,1.35,1.35,0,0,0,.88-.27C41.62,70.09,42,69.51,41.74,69.12Z"/><path class="cls-7" d="M65.06,75.88a1.35,1.35,0,0,0-.53-.28s0,0,0,0A1.79,1.79,0,0,0,61.73,77a1.21,1.21,0,0,0,1.15,1.22,2.1,2.1,0,0,0,1.81-.55C65.09,77.24,65.57,76.34,65.06,75.88Z"/><path class="cls-7" d="M51,70.38c-.3.07-.9.55-.79,1s.43.6.83.6,1.15-.17,1.27-.78C52.41,70.34,51.43,70.27,51,70.38Z"/><path class="cls-7" d="M66,84.61a2.6,2.6,0,0,1-.1-.25c0-.25,0-.38-.23-.4a.47.47,0,0,0-.41-.11c-.39.06-1,1-.64,1.34s.72.12,1-.23l.06.06C65.77,85.12,66,84.74,66,84.61Z"/><path class="cls-7" d="M72.6,78.51l-.07,0a.48.48,0,0,0-.49-.07c-.69.27-1.39,1.63-.69,2.2a.73.73,0,0,0,.85-.07,2.06,2.06,0,0,0,.9-1.46C73.13,78.7,72.92,78.48,72.6,78.51Z"/><path class="cls-7" d="M69.62,77.07h0a.26.26,0,0,0-.27,0c-.39.15-.79.9-.39,1.22a.46.46,0,0,0,.49,0,1.19,1.19,0,0,0,.5-.81C69.92,77.17,69.8,77.05,69.62,77.07Z"/><path class="cls-7" d="M54.52,87.79c-.53-1.57-2.47-1.14-3.45-.67-.53.26-1.48,1.18-1.42,2-.14,1.17,1.37,1.59,2.24,1.61a2.47,2.47,0,0,0,2-.69A2.28,2.28,0,0,0,54.52,87.79Z"/><path class="cls-7" d="M40.86,94.8l0,0,0-.06c-.28-.25-.7,0-.87.34s-.32.83.09.89a1,1,0,0,0,.95-.67C41,95.19,41.11,94.72,40.86,94.8Z"/><path class="cls-7" d="M40.37,87.2a2.08,2.08,0,0,0-1.66.94l-.19.17a1.49,1.49,0,0,0-.37,1.16,1.53,1.53,0,0,0,1.06,1.23,2.13,2.13,0,0,0,2.64-1.27A1.58,1.58,0,0,0,40.37,87.2Zm.05,2.5h0A3.54,3.54,0,0,0,41,89a.94.94,0,0,0,.1.1C41.43,89.51,40.8,89.65,40.42,89.7Z"/><path class="cls-7" d="M48.64,96.46a.69.69,0,0,0-.25,0c-.37-.31-1,.06-1.14.55a.66.66,0,0,0,.14.82.83.83,0,0,0,.92,0c.14-.06.27-.07.4-.14a1,1,0,0,0,.41-.69C49.2,96.59,48.87,96.54,48.64,96.46Z"/><path class="cls-7" d="M64.91,94.38l0,0h0l-.07,0c-.11-.06-.25.08-.32.17s-.38.53-.26.78a.29.29,0,0,0,.44.09,1.15,1.15,0,0,0,.5-.91C65.14,94.33,65,94.31,64.91,94.38Z"/><path class="cls-7" d="M72.69,92.57a1.58,1.58,0,0,0-1-.27,2.56,2.56,0,0,0-2.5,1.09c-.68,1,.11,1.8.83,2.14A2.13,2.13,0,0,0,72.62,95C73.21,94.23,73.5,93.17,72.69,92.57ZM72,94.51a1.87,1.87,0,0,1-.58,0,1.63,1.63,0,0,0,.73-.7C72.48,94.14,72.36,94.41,72,94.51Z"/><path class="cls-8" d="M67.2,68.38a3.13,3.13,0,0,0-1.51-.25,9.49,9.49,0,0,0-1.89.34A5.78,5.78,0,0,0,62,70.32a5.63,5.63,0,0,0-1.49-.15,4.17,4.17,0,0,0-1.51.45c-.36.15-.68.6-1,.72l0,0a6.28,6.28,0,0,1,3.42-.6,4.67,4.67,0,0,1,2,.78.15.15,0,0,0,0-.11,1.66,1.66,0,0,0-1.08-1,5.5,5.5,0,0,1,2-1.58A7.36,7.36,0,0,1,67.2,68.38Z"/><path class="cls-8" d="M46.36,66.71a4.26,4.26,0,0,0-.71,0,3.46,3.46,0,0,0-.94.26,2.92,2.92,0,0,0-3.5-.68l-.16.1a3.1,3.1,0,0,0-.93,1,4.27,4.27,0,0,1,4.05-.09,3.4,3.4,0,0,0-.49.38h0a4.68,4.68,0,0,1,1.65-.47,7.8,7.8,0,0,1,2.26.07A5.24,5.24,0,0,0,46.36,66.71Z"/><path class="cls-8" d="M57.72,59a3,3,0,0,0-1.59.82,4.36,4.36,0,0,0-1.84-.31,5.07,5.07,0,0,0-2.63,1.27l0,.07a4.81,4.81,0,0,1,4.85,0l.35.06c.1,0,.27-.21.2-.31a1.83,1.83,0,0,0-.49-.51,6.06,6.06,0,0,1,1.14-.47,6.57,6.57,0,0,1,1.72-.18A6.29,6.29,0,0,0,57.72,59Z"/><path class="cls-8" d="M71.32,90a2.67,2.67,0,0,0-1.38-.43,8.08,8.08,0,0,0-1.78.1,5.35,5.35,0,0,0-1.88,1.61,4.87,4.87,0,0,0-1.35-.32,3.43,3.43,0,0,0-1.44.26c-.35.1-.69.51-1,.58,0,0,0,0-.06,0a5.49,5.49,0,0,1,3.21-.19,4.5,4.5,0,0,1,1.78,1s0-.07,0-.1a1.68,1.68,0,0,0-.89-1.18,5,5,0,0,1,2-1.32A6.25,6.25,0,0,1,71.32,90Z"/><path class="cls-8" d="M46.57,90.7a4.85,4.85,0,0,0-.66,0A3.13,3.13,0,0,0,45,91a2.68,2.68,0,0,0-3.31-.69l-.15.11a3,3,0,0,0-.9.95,3.89,3.89,0,0,1,3.84-.08,3.84,3.84,0,0,0-.45.37l0,0a4.52,4.52,0,0,1,1.57-.47,7.16,7.16,0,0,1,2.11.08A4.86,4.86,0,0,0,46.57,90.7Z"/><path class="cls-8" d="M57.12,78.58a2.58,2.58,0,0,0-1.37.76,3.62,3.62,0,0,0-1.57-.29,4.35,4.35,0,0,0-2.27,1.18l0,.06a3.92,3.92,0,0,1,4.17,0,1.59,1.59,0,0,0,.3.06c.08,0,.23-.19.17-.29a1.73,1.73,0,0,0-.42-.47,5.71,5.71,0,0,1,1-.43A5.26,5.26,0,0,1,58.54,79,5,5,0,0,0,57.12,78.58Z"/><path class="cls-7" d="M87.46,62.71a.53.53,0,0,0-.45-.25,1.08,1.08,0,0,0-1.08.4l-.07.09a1.22,1.22,0,0,0-.48,1c.05.51.58.6.93.55a1.55,1.55,0,0,0,1-.94A1,1,0,0,0,87.46,62.71Z"/><path class="cls-7" d="M103.15,61a.72.72,0,0,0-.57.14c-.34.24-.82,1-.26,1.2s1.22-.49,1.22-1.07C103.55,61,103.36,61,103.15,61Z"/><path class="cls-7" d="M110.19,61.15a1.8,1.8,0,0,0-.39.08,1,1,0,0,0-.3,0,1.87,1.87,0,0,0-1.59,1.48c-.12,1,1,1.12,1.64,1a2.3,2.3,0,0,0,1.88-1.53C111.67,61.35,110.66,61.11,110.19,61.15Z"/><path class="cls-7" d="M103.24,75.88a1.46,1.46,0,0,0-.54-.28s0,0,0,0A1.78,1.78,0,0,0,99.91,77a1.2,1.2,0,0,0,1.15,1.22,2.12,2.12,0,0,0,1.81-.55C103.26,77.24,103.75,76.34,103.24,75.88Z"/><path class="cls-7" d="M89.13,70.38c-.31.07-.91.55-.79,1s.42.6.82.6,1.16-.17,1.27-.78C90.58,70.34,89.6,70.27,89.13,70.38Z"/><path class="cls-7" d="M104.15,84.61a2.6,2.6,0,0,0-.1-.25c0-.25,0-.38-.22-.4a.5.5,0,0,0-.42-.11c-.39.06-1,1-.63,1.34s.72.12,1-.23l0,.06C103.94,85.12,104.21,84.74,104.15,84.61Z"/><path class="cls-7" d="M110.77,78.51l-.07,0a.46.46,0,0,0-.48-.07c-.69.27-1.4,1.63-.7,2.2a.74.74,0,0,0,.86-.07,2.08,2.08,0,0,0,.89-1.46C111.3,78.7,111.09,78.48,110.77,78.51Z"/><path class="cls-7" d="M107.79,77.07h0a.28.28,0,0,0-.28,0c-.39.15-.78.9-.39,1.22a.46.46,0,0,0,.49,0,1.16,1.16,0,0,0,.5-.81C108.09,77.17,108,77.05,107.79,77.07Z"/><path class="cls-7" d="M79,94.8l0,0-.06-.06c-.28-.25-.7,0-.87.34s-.32.83.1.89a1,1,0,0,0,.94-.67C79.18,95.19,79.29,94.72,79,94.8Z"/><path class="cls-7" d="M78.54,87.2a2.1,2.1,0,0,0-1.66.94l-.19.17a1.48,1.48,0,0,0-.36,1.16,1.51,1.51,0,0,0,1.06,1.23A2.12,2.12,0,0,0,80,89.43,1.58,1.58,0,0,0,78.54,87.2Zm.06,2.5h0a3.21,3.21,0,0,0,.57-.68l.1.1C79.6,89.51,79,89.65,78.6,89.7Z"/><path class="cls-7" d="M86.82,96.46a.75.75,0,0,0-.26,0c-.36-.31-.94.06-1.14.55a.66.66,0,0,0,.14.82.85.85,0,0,0,.93,0c.13-.06.26-.07.39-.14A1,1,0,0,0,87.3,97C87.37,96.59,87.05,96.54,86.82,96.46Z"/><path class="cls-7" d="M103.08,94.38l0,0h0l-.07,0c-.1-.06-.25.08-.32.17s-.38.53-.26.78a.3.3,0,0,0,.45.09,1.21,1.21,0,0,0,.5-.91C103.31,94.33,103.2,94.31,103.08,94.38Z"/><path class="cls-7" d="M110.86,92.57a1.56,1.56,0,0,0-1-.27,2.55,2.55,0,0,0-2.49,1.09c-.69,1,.1,1.8.82,2.14a2.13,2.13,0,0,0,2.56-.54C111.38,94.23,111.67,93.17,110.86,92.57Zm-.71,1.94a1.9,1.9,0,0,1-.58,0,1.66,1.66,0,0,0,.72-.7C110.66,94.14,110.53,94.41,110.15,94.51Z"/><path class="cls-8" d="M105.37,68.38a3.13,3.13,0,0,0-1.51-.25,9.49,9.49,0,0,0-1.89.34,5.78,5.78,0,0,0-1.83,1.85,5.59,5.59,0,0,0-1.48-.15,4.16,4.16,0,0,0-1.52.45c-.36.15-.68.6-1,.72,0,0,0,0,0,0a6.31,6.31,0,0,1,3.42-.6,4.67,4.67,0,0,1,2,.78.15.15,0,0,0,0-.11,1.66,1.66,0,0,0-1.08-1,5.58,5.58,0,0,1,2-1.58A7.36,7.36,0,0,1,105.37,68.38Z"/><path class="cls-8" d="M84.53,66.71a4.1,4.1,0,0,0-.7,0,3.53,3.53,0,0,0-1,.26,2.92,2.92,0,0,0-3.5-.68l-.16.1a3.1,3.1,0,0,0-.93,1,4.27,4.27,0,0,1,4-.09,2.86,2.86,0,0,0-.48.38h0a4.72,4.72,0,0,1,1.66-.47,7.82,7.82,0,0,1,2.26.07A5.51,5.51,0,0,0,84.53,66.71Z"/><path class="cls-8" d="M95.9,59a3,3,0,0,0-1.6.82,4.34,4.34,0,0,0-1.83-.31,5,5,0,0,0-2.63,1.27.22.22,0,0,0-.06.07,4.81,4.81,0,0,1,4.85,0l.36.06c.1,0,.27-.21.2-.31a2,2,0,0,0-.5-.51,6.35,6.35,0,0,1,1.14-.47,6.62,6.62,0,0,1,1.72-.18A6.22,6.22,0,0,0,95.9,59Z"/><path class="cls-8" d="M90.35,90.73a3.65,3.65,0,0,0-.66,0,2.75,2.75,0,0,0-.89.25,2.69,2.69,0,0,0-3.31-.69l-.15.11a3,3,0,0,0-.9.95,3.92,3.92,0,0,1,3.84-.08,5,5,0,0,0-.46.37s0,0,0,0a4.48,4.48,0,0,1,1.56-.47,6.89,6.89,0,0,1,2.12.09A4.54,4.54,0,0,0,90.35,90.73Z"/><path class="cls-8" d="M95.3,78.58a2.61,2.61,0,0,0-1.38.76,3.62,3.62,0,0,0-1.57-.29,4.38,4.38,0,0,0-2.27,1.18l0,.06a3.92,3.92,0,0,1,4.17,0,1.59,1.59,0,0,0,.3.06c.09,0,.23-.19.17-.29a1.7,1.7,0,0,0-.41-.47,4.23,4.23,0,0,1,2.45-.6A4.89,4.89,0,0,0,95.3,78.58Z"/><path class="cls-7" d="M116.59,59a2,2,0,0,0-.83.72,1.51,1.51,0,0,0-.26.18,1.75,1.75,0,0,0-.69,1.44,1.83,1.83,0,0,0,1.58,1.37,3.11,3.11,0,0,0,3.48-2C120.44,58.82,117.43,58.73,116.59,59Z"/><path class="cls-7" d="M123.21,62.71a.51.51,0,0,0-.44-.25,1.09,1.09,0,0,0-1.09.4l-.06.09a1.2,1.2,0,0,0-.49,1c.05.51.58.6.93.55a1.59,1.59,0,0,0,1.06-.94A1,1,0,0,0,123.21,62.71Z"/><path class="cls-7" d="M130.22,62.88a1.58,1.58,0,0,0-.42.09c-1.07,0-2.54,1.17-2.32,2.3s2,.91,2.59.82a2.52,2.52,0,0,0,2.17-1.84C132.5,63.06,130.9,62.81,130.22,62.88Z"/><path class="cls-7" d="M138.91,61a.74.74,0,0,0-.58.14c-.33.24-.81,1-.25,1.2s1.21-.49,1.22-1.07C139.3,61,139.11,61,138.91,61Z"/><path class="cls-7" d="M145.94,61.15a1.93,1.93,0,0,0-.39.08,1,1,0,0,0-.3,0,1.86,1.86,0,0,0-1.58,1.48c-.12,1,1,1.12,1.64,1a2.28,2.28,0,0,0,1.87-1.53C147.42,61.35,146.42,61.11,145.94,61.15Z"/><path class="cls-7" d="M115.67,69.12a1,1,0,0,0-.81-.39.52.52,0,0,0-.24,0A1.1,1.1,0,0,0,114,69c-.31.24-.63.86-.29,1.27a.89.89,0,0,0,.72.28,1.32,1.32,0,0,0,.87-.27C115.55,70.09,115.9,69.51,115.67,69.12Z"/><path class="cls-7" d="M139,75.88a1.46,1.46,0,0,0-.54-.28s0,0,0,0A1.78,1.78,0,0,0,135.66,77a1.21,1.21,0,0,0,1.15,1.22,2.11,2.11,0,0,0,1.81-.55C139,77.24,139.5,76.34,139,75.88Z"/><path class="cls-7" d="M124.88,70.38c-.31.07-.91.55-.79,1s.43.6.82.6,1.16-.17,1.27-.78C126.34,70.34,125.35,70.27,124.88,70.38Z"/><path class="cls-7" d="M139.9,84.61l-.09-.25c0-.25-.06-.38-.23-.4a.48.48,0,0,0-.41-.11c-.4.06-1,1-.64,1.34s.72.12,1-.23l.06.06C139.69,85.12,140,84.74,139.9,84.61Z"/><path class="cls-7" d="M146.52,78.51l-.06,0a.48.48,0,0,0-.49-.07c-.69.27-1.4,1.63-.7,2.2a.74.74,0,0,0,.86-.07,2,2,0,0,0,.89-1.46C147.05,78.7,146.84,78.48,146.52,78.51Z"/><path class="cls-7" d="M143.55,77.07h0a.28.28,0,0,0-.28,0c-.38.15-.78.9-.38,1.22a.45.45,0,0,0,.48,0,1.16,1.16,0,0,0,.5-.81C143.85,77.17,143.73,77.05,143.55,77.07Z"/><path class="cls-7" d="M114.78,94.8l0,0,0-.06c-.28-.25-.7,0-.87.34s-.33.83.09.89a1,1,0,0,0,.94-.67C114.93,95.19,115,94.72,114.78,94.8Z"/><path class="cls-7" d="M114.3,87.2a2.07,2.07,0,0,0-1.66.94l-.19.17a1.45,1.45,0,0,0-.37,1.16,1.51,1.51,0,0,0,1.06,1.23,2.13,2.13,0,0,0,2.64-1.27A1.59,1.59,0,0,0,114.3,87.2Zm0,2.5h0a3.57,3.57,0,0,0,.58-.68.47.47,0,0,0,.1.1C115.36,89.51,114.73,89.65,114.35,89.7Z"/><path class="cls-7" d="M122.57,96.46a.73.73,0,0,0-.25,0c-.37-.31-.95.06-1.15.55a.66.66,0,0,0,.14.82.85.85,0,0,0,.93,0c.13-.06.27-.07.4-.14a1.07,1.07,0,0,0,.41-.69C123.13,96.59,122.8,96.54,122.57,96.46Z"/><path class="cls-7" d="M138.84,94.38l-.05,0h0l-.07,0c-.1-.06-.24.08-.32.17s-.37.53-.26.78a.3.3,0,0,0,.45.09,1.18,1.18,0,0,0,.5-.91C139.06,94.33,139,94.31,138.84,94.38Z"/><path class="cls-7" d="M146.62,92.57a1.6,1.6,0,0,0-1-.27,2.56,2.56,0,0,0-2.5,1.09c-.69,1,.11,1.8.83,2.14a2.14,2.14,0,0,0,2.56-.54C147.13,94.23,147.42,93.17,146.62,92.57Zm-.72,1.94a1.9,1.9,0,0,1-.58,0,1.68,1.68,0,0,0,.73-.7C146.41,94.14,146.29,94.41,145.9,94.51Z"/><path class="cls-8" d="M141.13,68.38a3.17,3.17,0,0,0-1.52-.25,9.29,9.29,0,0,0-1.88.34,5.78,5.78,0,0,0-1.83,1.85,5.71,5.71,0,0,0-1.49-.15,4.28,4.28,0,0,0-1.52.45c-.36.15-.67.6-1,.72,0,0,0,0-.05,0a6.33,6.33,0,0,1,3.43-.6,4.71,4.71,0,0,1,2,.78s0-.08,0-.11a1.66,1.66,0,0,0-1.09-1,5.58,5.58,0,0,1,2-1.58A7.4,7.4,0,0,1,141.13,68.38Z"/><path class="cls-8" d="M120.28,66.71a4.15,4.15,0,0,0-.7,0,3.36,3.36,0,0,0-.94.26,2.93,2.93,0,0,0-3.51-.68l-.15.1a3.24,3.24,0,0,0-.94,1,4.27,4.27,0,0,1,4-.09,3.33,3.33,0,0,0-.48.38h0a4.68,4.68,0,0,1,1.65-.47,7.81,7.81,0,0,1,2.26.07A5.12,5.12,0,0,0,120.28,66.71Z"/><path class="cls-8" d="M131.65,59a3,3,0,0,0-1.59.82,4.38,4.38,0,0,0-1.84-.31,5.07,5.07,0,0,0-2.63,1.27l-.06.07a4.83,4.83,0,0,1,4.86,0l.35.06c.1,0,.27-.21.2-.31a2.17,2.17,0,0,0-.49-.51,6,6,0,0,1,1.13-.47,6.66,6.66,0,0,1,1.72-.18A6.13,6.13,0,0,0,131.65,59Z"/><path class="cls-8" d="M139.28,89a2.68,2.68,0,0,0-1.42-.25,7.39,7.39,0,0,0-1.75.33,5.31,5.31,0,0,0-1.67,1.83,4.92,4.92,0,0,0-1.38-.16,3.81,3.81,0,0,0-1.4.44c-.33.15-.61.6-.94.71,0,0,0,0,0,0a5.45,5.45,0,0,1,3.15-.58,4.33,4.33,0,0,1,1.9.8.17.17,0,0,0,0-.11,1.67,1.67,0,0,0-1-1.06,5,5,0,0,1,1.84-1.56A6.3,6.3,0,0,1,139.28,89Z"/><path class="cls-8" d="M115.31,90.58a4.85,4.85,0,0,0-.66,0,2.76,2.76,0,0,0-.89.26,2.69,2.69,0,0,0-3.31-.7l-.15.11a3.19,3.19,0,0,0-.9,1,3.94,3.94,0,0,1,3.84-.08,3.85,3.85,0,0,0-.46.38h0a4.44,4.44,0,0,1,1.56-.46,6.81,6.81,0,0,1,2.11.08A4.29,4.29,0,0,0,115.31,90.58Z"/><path class="cls-8" d="M131.05,78.58a2.58,2.58,0,0,0-1.37.76,3.62,3.62,0,0,0-1.57-.29,4.35,4.35,0,0,0-2.27,1.18.16.16,0,0,0,0,.06,3.91,3.91,0,0,1,4.16,0l.3.06c.09,0,.23-.19.18-.29a1.91,1.91,0,0,0-.42-.47,5.1,5.1,0,0,1,1-.43,5.23,5.23,0,0,1,1.47-.17A4.89,4.89,0,0,0,131.05,78.58Z"/></g></g></svg>